<svg version="1.1" id="saturn" xmlns="http://www.w3.org/2000/svg" xmlns:xlink="http://www.w3.org/1999/xlink" x="0px" y="0px"
	 viewBox="0 0 254.3 176.3" style="enable-background:new 0 0 254.3 176.3;" xml:space="preserve">
<style type="text/css">
	.st0{fill:#877963;}
	.st1{fill:#CCAD78;}
</style>
<g>
	<g>
		<path class="st0" d="M146.2,91.7c-0.2,0.9-0.5,1.8-0.9,3.5c6.4-4.6,12.3-8.9,18.2-13.1c14.9-10.7,28.2-23.2,40.7-36.4
			c2.3-2.4,4.1-5.3,5.5-8.3c2.5-5.4,1.1-7.9-4.8-8.2c-4.8-0.3-9.4,0.8-13.6,2.6c-2.3,1-4.9,0.9-6.9,2.4c-3.1,2.2-4.5,0.7-5.2-2.3
			c-2-8.2-2-8.2,5.9-11.9c16.5-7.7,32.9-15.3,50.8-19c3.4-0.7,6.9-1,10.4-0.8c6.9,0.5,9.6,4.5,7.1,10.9c-2,5-4.8,9.5-8.3,13.5
			c-15.8,17.8-33.2,33.9-52.2,48.3c-2.3,1.7-3.7,3.5-3.5,6.6c2.2,32.8-23.8,60.5-52.4,68.3c-15.2,4.2-30,3.3-44.4-3.3
			c-2.9-1.3-4.9-0.7-7.4,0.6c-14.7,8.1-29.3,16.4-45,22.5c-8.1,3.2-16.2,6.8-25,8c-1,0.1-2,0.4-3,0.4c-11.3,1-15-4.1-10.3-14.3
			c5.7-12.3,15.2-21.8,24.5-31.3c9.3-9.5,19.3-18.4,29.7-26.8c2.4-1.9,3.2-3.9,3-6.8c-0.8-13.2,2.1-25.4,9.2-36.7
			c3.5-5.5,8.2-10,12.9-14.4c12.7-11.9,28-19.1,45-20.2c23.5-1.5,42.1,8.5,55.2,28.3c2.7,4.1,2.1,8.7-2.3,13
			c-9.6,9.3-20.2,17.3-31.4,24.6C147.3,91.7,146.7,91.6,146.2,91.7c0.2-2,1.4-3.3,3.1-4.3c6.1-3.5,10.8-8.8,16.6-12.7
			c5.7-3.8,5.2-9.5,4.9-14.9c-0.3-4-2.4-6.8-7.3-5.3c-1.7,0.5-3.6,0.6-5.4,1c-2.3,0.6-4.2,0.6-3.4-2.7c0.7-3.2-1.3-4.5-3.8-5.5
			c-2.1-0.9-4.4-1.5-6.5-2.6c-8.4-4.1-16.3-4.9-24.7,0.8c-3.6,2.5-8.2,3.9-12.7,5.3c-8,2.6-16.1,6.1-21,13.4
			c-2.8,4.2-6.1,7.3-10.2,10c-6.4,4.2-9.8,24.6-5.1,30.6c0.3,0.4,0.7,0.8,1.1,1c2.9,1.3,1.9,2.8,0.4,4.6c-1.7,2.1-3.1,4.3-2.2,7.3
			c2.2,8,9.3,11.2,16.9,7.8c16.7-7.5,32.4-16.8,47.3-27.4C137.8,95.6,141.3,92.1,146.2,91.7z M24.6,138.8c0,0.1,0.1,0.2,0.1,0.3
			c-0.1,0-0.2-0.1-0.2-0.2c0,0.1,0.1,0.1,0.1,0.2C24.6,139,24.6,138.9,24.6,138.8z M145.9,102.3c-1.8,0.2-3.6,0.7-5.1,1.8
			c-7.2,5-14.4,9.9-21.6,14.9c-0.8,0.6-2.3,1-1.5,2.8c5-0.8,8.2-4.8,12.2-7.2C135.7,111.2,141.6,107.8,145.9,102.3
			c1.9-0.8,4.4-0.8,5.5-3.9C148.4,98.8,146.7,100,145.9,102.3z M233.5,25.9c4.2-0.8,3.6-4.6,4.5-7.3c1.7-5.1,0.3-7.6-4.9-8.2
			c-6.3-0.8-12.3,0.7-18.2,3c5.4-1.1,10.7-2.3,16.2-1.3c4.4,0.8,5.8,3.6,5.2,7.6C235.9,21.9,235.3,24.2,233.5,25.9
			c-1.4,2.5-2.8,4.9-4.2,7.4C230.7,30.8,234.8,29.8,233.5,25.9z M127.1,143c4.8,2.1,7.4-2.1,11.1-2.8c10.4-2.1,17.9-9,24.6-16.2
			c4.7-5.1,10.9-10.6,8.5-19.3c-0.2-0.6,0.6-1.5,1-2.2c1.6-2.9,3-6.1,0.1-8.7c-3.2-2.9-6.1-0.7-8.9,1.2c-13.2,9-26.4,17.9-39.7,26.8
			c-7.3,4.9-14.8,9.6-22.2,14.4c-1.4,0.9-2.9,2-2.6,3.9c0.4,2,2.3,2.2,3.9,2.6c1.3,0.3,2.7,0.5,4,0.4
			C113.7,142.5,120.6,145.9,127.1,143z M143.4,96.7c-0.3-0.3-0.6-0.7-0.9-1c-1.6,1.1-3.3,2.2-4.9,3.4c-17,12-34.8,22.5-53.8,31.1
			c-6.3,2.8-9.7,1.8-13.9-3.7c-2.5-3.3-4.7-6.8-6.4-10.7c-0.7-1.6-1.5-2.8-3.2-1c-7.1,7.5-14.7,14.5-19.2,24
			c-2.3,4.8-0.4,7.8,4.8,8.1c3.2,0.2,6.3-0.7,9.3-1.5c11.1-3.1,21.3-8.4,31.5-13.5c12.5-6.3,24.3-13.7,36.2-21.1
			C130,106.3,136.6,101.4,143.4,96.7z M18,149.3c-5.9,6.9-7,11.9-3.3,15.5c2.5,2.5,13.3,2.2,16.4-0.4C15.1,165.4,14,164.1,18,149.3z
			 M19.9,145.6c0.2,0.2,0.5,0.4,0.7,0.6c0.7-1.1,1.4-2.2,2.1-3.3c-0.2-0.1-0.4-0.2-0.5-0.3C21.4,143.6,20.6,144.6,19.9,145.6z
			 M226.8,36.5c-0.3,0-0.6,0-0.8,0.1c-0.1,0-0.1,0.2-0.1,0.4c0.3,0,0.6,0,0.9-0.1C226.8,36.8,226.8,36.6,226.8,36.5z"/>
		<path class="st1" d="M146.2,91.7c-4.9,0.4-8.3,3.9-11.9,6.5c-14.9,10.6-30.5,20-47.3,27.4c-7.6,3.4-14.7,0.2-16.9-7.8
			c-0.8-3,0.6-5.2,2.2-7.3c1.5-1.8,2.4-3.3-0.4-4.6c-0.4-0.2-0.8-0.6-1.1-1c-4.7-6.1-1.3-26.4,5.1-30.6c4.1-2.7,7.4-5.8,10.2-10
			c4.9-7.3,13-10.8,21-13.4c4.4-1.4,9.1-2.9,12.7-5.3c8.4-5.7,16.3-4.9,24.7-0.8c2.1,1,4.3,1.7,6.5,2.6c2.4,1,4.5,2.4,3.8,5.5
			c-0.7,3.3,1.1,3.2,3.4,2.7c1.8-0.4,3.6-0.5,5.4-1c4.9-1.5,7,1.3,7.3,5.3c0.4,5.5,0.8,11.2-4.9,14.9c-5.8,3.9-10.5,9.2-16.6,12.7
			C147.5,88.4,146.4,89.7,146.2,91.7C146.3,91.7,146.2,91.7,146.2,91.7z"/>
		<path class="st1" d="M127.1,143c-6.5,2.9-13.4-0.5-20.3,0.2c-1.3,0.1-2.7-0.1-4-0.4c-1.6-0.4-3.5-0.5-3.9-2.6
			c-0.3-1.9,1.1-3,2.6-3.9c7.4-4.8,14.8-9.5,22.2-14.4c13.3-8.9,26.5-17.8,39.7-26.8c2.9-1.9,5.8-4.2,8.9-1.2
			c2.8,2.6,1.5,5.8-0.1,8.7c-0.4,0.7-1.2,1.6-1,2.2c2.4,8.7-3.7,14.2-8.5,19.3c-6.7,7.2-14.2,14.1-24.6,16.2
			C134.5,140.9,131.9,145,127.1,143z"/>
		<path class="st1" d="M145.9,102.3c-4.3,5.5-10.2,9-15.9,12.3c-4,2.4-7.2,6.4-12.2,7.2c-0.8-1.8,0.6-2.2,1.5-2.8
			c7.2-5,14.4-10,21.6-14.9C142.4,103.1,144.1,102.6,145.9,102.3L145.9,102.3z"/>
		<path class="st1" d="M145.9,102.3c0.8-2.4,2.4-3.6,5.5-3.9C150.3,101.6,147.8,101.6,145.9,102.3
			C145.9,102.3,145.9,102.3,145.9,102.3z"/>
	</g>
</g>
</svg>
