<?xml version="1.0" encoding="utf-8"?>
<!-- Generator: Adobe Illustrator 20.0.0, SVG Export Plug-In . SVG Version: 6.00 Build 0)  -->
<svg version="1.1" id="Layer_1" xmlns="http://www.w3.org/2000/svg" xmlns:xlink="http://www.w3.org/1999/xlink" x="0px" y="0px"
	 viewBox="0 0 174.2 173.1" style="enable-background:new 0 0 174.2 173.1;" xml:space="preserve">
<style type="text/css">
	.st0{fill:#736357;}
	.st1{fill:#746458;}
	.st2{fill:#736358;}
	.st3{fill:#746459;}
	.st4{fill:#746559;}
	.st5{fill:#736458;}
	.st6{fill:#75655A;}
	.st7{fill:#756559;}
	.st8{fill:#75665A;}
	.st9{fill:#76675B;}
	.st10{fill:#77675C;}
	.st11{fill:#76665B;}
	.st12{fill:#77675B;}
	.st13{fill:#78695D;}
	.st14{fill:#7F7165;}
	.st15{fill:#78685D;}
	.st16{fill:#09AB9F;}
	.st17{fill:#00A89C;}
	.st18{fill:#01A99D;}
	.st19{fill:#03A99D;}
	.st20{fill:#00A89D;}
	.st21{fill:#02A99D;}
	.st22{fill:#05AA9E;}
	.st23{fill:#04AA9E;}
	.st24{fill:#04A99E;}
	.st25{fill:#06AA9E;}
	.st26{fill:#04A99D;}
	.st27{fill:#0AABA0;}
	.st28{fill:#0EADA1;}
	.st29{fill:#07AA9F;}
	.st30{fill:#08AB9F;}
	.st31{fill:#05A99E;}
	.st32{fill:#0CACA1;}
	.st33{fill:#0AAB9F;}
	.st34{fill:#0FACA1;}
	.st35{fill:#22B473;}
	.st36{fill:#23B573;}
	.st37{fill:#24B574;}
	.st38{fill:#25B574;}
	.st39{fill:#26B575;}
	.st40{fill:#25B575;}
	.st41{fill:#28B676;}
	.st42{fill:#27B675;}
	.st43{fill:#26B675;}
	.st44{fill:#27B676;}
	.st45{fill:#2AB777;}
	.st46{fill:#28B677;}
	.st47{fill:#29B677;}
	.st48{fill:#29B676;}
	.st49{fill:#33B97D;}
	.st50{fill:#2BB778;}
	.st51{fill:#2AB677;}
	.st52{fill:#2DB87A;}
	.st53{fill:#7A6B60;}
	.st54{fill:#7E6F64;}
	.st55{fill:#78695E;}
</style>
<g>
	<path class="st0" d="M168.2,110.2c-1.1-0.3-1.8-1.4-2.9-1.8c-2.3-0.8-4.7-0.6-7-0.4c-0.8,0.1-1.4,0.8-1.3,1.8c0.1,1,1,0.7,1.5,0.5
		c2.3-0.5,4.5-0.4,6.8,0.5c1.2,0.5,1.9,1.4,2.6,2.2c1.7,2,3.4,3.9,5.5,5.4c1.4,1-0.2,2.1-0.6,2.7c-1,1.4-1.9,2.9-2.9,4.3
		c-2.4-3.5-4-3.5-6.9-3c-1.5,0.3-2.8,2.2-2.9,4c-0.1,3.5,1.6,5.3,5.4,5.5c-2.6,1.3-5.7,0.5-7.2-2.1c-0.4-0.7-0.7-2.3-1.7-1.7
		c-1.1,0.6,0.3,1.8,0.6,2.4c1.7,3.2,5,3,8.1,3.2c-0.5,1.4-1.4,2.5-1.7,4c-0.2,1.1-1,1.4-2.1,1.4c-2.5,0-5,0.7-7.6-0.4
		c-4.9-1.9-7.5-5.3-8.8-10.3c-0.7-2.7-1.2-5.2-0.5-7.9c1.2-4.2,2.9-7.8,7.1-9.8c0.8-0.4,1.5-1,2.1-1.6c0.4-0.4,0.3-1,0.1-1.4
		c-0.1-0.4-0.7-0.3-1-0.2c-0.5,0.2-1,0.4-1.5,0.6c-3.4,1.8-5.7,4.6-7.4,8c-1.4,2.8-1.5,2.8-4.6,2.2c-3.2-0.6-6.3-0.4-9.4,0.3
		c-2.1,0.5-3,2.5-3.7,4.2c-1,2.6-1.8,5.2-1,8.2c1.1,3.9,4.3,5.7,7.7,2.8c2-1.7,4.2-3.2,6.3-4.8c0.4-0.3,0.7-0.7,1.2-0.9
		c0.7-0.3,0.7-1.8,1.6-1.5c0.4,0.1,0.6,1.4,0.7,2.1c0.3,3.1,2,5.9,4,7.9c2.8,2.8,6,5.6,10.6,5.1c1.1-0.1,2.3,0.7,3.4-0.4
		c0.1,1.2-0.6,1.8-1,2.3c-3.3,3.5-7,6.7-11.5,8.6c-4.5,1.9-9.1,3.4-14,3.9c-2,0.2-4.1,0.3-6.1,0.1c-2.2-0.2-4.5-0.2-6.6-1.1
		c-2.4-1-5.4-0.7-6.9-3.4c-0.7-1.2-1.4-2.4-1.7-3.8c-0.4-1.9-1.2-3.7-2.2-5.3c-0.8-1.2-2.3-2-3.6-2.6c-3.4-1.7-7.2-2-10.9-2.5
		c-0.3,0-0.6,0-1,0c-1.9,0-2.3,0.6-1.5,2.2c0.2,0.4,0.4,0.9,0.7,1.4c-2,0.4-3.1-1.1-4.2-2c-3.1-2.6-4.9-6.1-6-10.1
		c-0.3-1.1-0.5-2.4-1.2-3.4c-0.2-0.4-0.3-0.7,0.1-1c0.4-0.4,0.8,0.1,1,0.2c4.8,3.5,10,3.6,15.5,2c2.8-0.8,5.2-2.5,7.7-3.8
		c2.8-1.5,5.5-3.3,8.3-4.6c2.6-1.3,5.5-1.9,8-3.3c3.6-2.1,7.7-2.9,11.5-4.2c4.9-1.7,9.9-3.1,15.1-3.5c2.3-0.2,4.6-0.7,7-0.9
		c3.8-0.4,7.2,0.8,10.4,2.8C168.4,109.5,168.1,109.9,168.2,110.2L168.2,110.2z"/>
	<path class="st0" d="M84.5,135c-1.8-0.5-2.6-1.8-3.4-2.7c-2.5-2.8-4.6-5.7-6.2-9.2c-1-2.3-2.1-4.5-2.4-7c-0.3-2.8-0.2-4.6,2.7-6.3
		c1.3-0.7,2.3-0.2,3.1,0.4c2.1,1.6,3,4.1,2.8,6.6C80.9,123,81.5,129,84.5,135z"/>
	<path class="st0" d="M56.7,91.9c0.6-1.4,0.2-2.7,0.3-4c0-0.3-0.2-0.9,0.4-0.8c0.4,0,0.5,0.6,0.7,0.8c1.2,1.3,0.6,3,1,4.4
		c0.8,2.9,1.7,5.8,2.6,8.7c1,3.3,3.4,5.7,4.9,8.7c0.1,0.2,0.6,0.3,0.2,0.7c-0.4,0.4-0.9-0.1-1-0.2c-1-2.4-3.2-4.1-4.5-6.4
		c-1.3-2.5-2.4-5-3.6-7.5C57.1,94.8,57.6,93.1,56.7,91.9z"/>
	<path class="st1" d="M83.5,114.4c2-3.3,3.1-6.8,3.2-10.7c0.1-3.8-1.1-7.2-2.2-10.7c-0.3-0.9-1.1-1.2-1.4-2.1
		c-0.2-0.6-0.6-1.2,0.1-1.7c0.8-0.6,1.1,0.2,1.4,0.7c1.6,2.9,2.5,6,2.9,9.3c0.6,3.9,0.1,7.6-1.1,11.2
		C85.9,112.2,84.9,113.4,83.5,114.4z"/>
	<path class="st0" d="M162.4,127.2c0-1.5,1.3-2.9,2.8-3c1.1,0,2.7,1.7,2.8,2.9c0.1,1.4-1.5,3.1-2.9,3.1
		C163.9,130.2,162.4,128.6,162.4,127.2z"/>
	<path class="st2" d="M131.6,170.1c0.7-3.6,1.1-7.2,3-10.4c0.2-0.3,0.2-0.6,0.3-0.8c0.4-0.8,1.2-1.1,2-1c0.3,0,0.3,0.1-0.2,1.4
		c-1.1,3-2.5,6-3.3,9.1c-0.2,0.6,0.2,1.1,0,1.6c-0.2,0.6-0.5,1.1-1.2,1.1C131.6,171.2,131.7,170.6,131.6,170.1z"/>
	<path class="st1" d="M83.5,110.9c2.5-7.1,0.2-13.6-2.2-20.2C85.5,92.8,87,105.4,83.5,110.9z"/>
	<path class="st2" d="M141.4,156.6c0.3,1.5-0.8,1.9-1.3,2.4c-2.2,2.3-2.7,5.2-3.4,8c-0.3,1.4-0.6,2.9-0.6,4.3c0,0.8-0.5,0.7-0.9,0.7
		c-0.3,0-0.7-0.1-0.6-0.8c0.5-3.1,0.6-6.4,2.5-9.1c0.6-0.8,0.7-1.9,1.1-2.7C138.9,157.7,140.3,157.6,141.4,156.6z"/>
	<path class="st3" d="M143.2,106.4c-2.1,1.5-3.8,0.3-4.9-0.5c-2.6-1.9-5.3-3.8-6.6-7c-0.2-0.5-0.7-1-0.1-1.3
		c0.5-0.3,0.5,0.6,0.7,0.8C135.2,102.1,138.7,104.7,143.2,106.4z"/>
	<path class="st2" d="M130.4,170.6c-1-0.7-1.1-1.9-0.9-2.3c0.8-2.4,0.3-5,1.7-7.2c0.4-0.5,0.5-1.3,0.6-1.9c0.2-0.8,0.8-0.9,1.4-0.8
		c0.6,0.1,0.3,0.6,0.2,1.1C132,163,131,166.7,130.4,170.6z"/>
	<path class="st4" d="M79.7,90.7c2.8,5.6,4.2,11.5,2.9,17.8c-1.1-3-0.1-6.1-0.8-9.2C81.2,96.4,80,93.7,79.7,90.7z"/>
	<path class="st1" d="M143.1,103.5c-0.2,0.2-0.3,0.6-0.7,0.3c-1.4-0.7-2.9-1.1-4.1-2c-2.2-1.6-4-3.6-5.4-6c-0.2-0.3-0.5-0.5-0.1-0.8
		c0.4-0.3,0.5,0.1,0.7,0.3c1.8,1.9,3.7,3.8,6,5.2c1.2,0.7,1.9,2,3.2,2.5C142.9,103.1,143,103.4,143.1,103.5z"/>
	<path class="st1" d="M130.4,159.5c0,2.1-1.4,3.8-1.7,5.8c-0.2,1.3-0.4,2.5-0.5,3.8c0,0.6-0.4,0.6-0.8,0.6c-0.5,0.1-0.8-0.3-0.7-0.6
		c0.7-3.4,1.1-6.8,2.6-9.9c0.1-0.2,0-1.1,0.8-0.8C130.7,158.6,130.4,159.1,130.4,159.5z"/>
	<path class="st1" d="M129.5,98.4c2.5,3.8,5.5,6.9,9.6,9.3c-1.7,0.8-2.6,0-3.7-0.8c-1.7-1.2-2.9-2.8-4-4.6
		C130.5,101.1,129.6,100,129.5,98.4z"/>
	<path class="st1" d="M127.6,98.9c1.6,1.4,2.4,3.3,3.4,5c0.9,1.5,2.1,2.4,3.2,3.6c0.4,0.4,0.9,0.8,0.6,1.3c-0.4,0.7-0.8,0.1-1.2-0.2
		c-2.6-1.8-4.1-4.5-5.9-7C127.1,100.7,127.1,99.8,127.6,98.9z"/>
	<path class="st2" d="M125.9,169.4c-1.3-0.6-1.6-1.7-1.4-2.6c0.5-2.6,1.2-5.2,1.9-7.8c0.2-0.9,1-0.8,1.9-0.5
		C126.8,161.9,125.8,165.5,125.9,169.4z"/>
	<path class="st4" d="M79.2,108.4c-1.3-1.5-0.7-3.2-1-4.6c-0.7-3.5-1.4-7.1-2.5-10.5c-0.1-0.3-0.7-1.2,0-1.4c0.8-0.3,0.5,0.6,0.7,1
		c1.5,3.2,1.8,6.8,2.6,10.2C79.4,104.6,79.8,106.4,79.2,108.4z"/>
	<path class="st4" d="M77.7,91.5c3.2,5.3,3.5,11.2,3.1,17.2C80.6,102.7,79.3,97.1,77.7,91.5z"/>
	<path class="st5" d="M137.9,126.1c-3,2.5-6.2,4-9.4,5.5c-0.5,0.2-0.7-0.1-0.9-0.4c-0.3-0.3,0-0.6,0.2-0.8c0.4-0.6,1.1-0.6,1.6-0.8
		C132.2,128.7,134.5,126.5,137.9,126.1z"/>
	<path class="st6" d="M73.5,107.9c-1.1-1.5-1.2-3.4-1.6-5c-0.8-3.4-2.2-6.6-2.7-10c-0.1-0.5-0.7-1.2,0.2-1.3
		c0.8-0.1,0.3,0.7,0.5,1.1c1.5,4.7,2.3,9.7,3.9,14.4C74,107.3,74.1,107.7,73.5,107.9z"/>
	<path class="st5" d="M122.9,168.5c-1.4-3.5-0.1-6.6,0.8-9.9c0.2-0.7,0.3-0.7,1.8-0.7C124.2,161.5,123.1,164.9,122.9,168.5z"/>
	<path class="st3" d="M77,106.6c-1.1-5.1-2.5-10-3.5-15.1C75.9,96.2,76.7,101.3,77,106.6z"/>
	<path class="st6" d="M74.9,106.1c-1.5-5-2.8-9.6-3.9-14.7C72.7,93,75.5,104,74.9,106.1z"/>
	<path class="st4" d="M59.8,88.5c1.6,0.4,1.3,2,1.3,2.8c0.3,3.3,1.5,6.3,2.6,9.3c0.1,0.2,1,0.6,0.3,1c-0.6,0.4-0.9-0.3-1.1-0.7
		c-0.7-1.6-1.5-3.3-1.9-5C60.4,93.5,59.8,91,59.8,88.5z"/>
	<path class="st1" d="M126.4,101.8c0.2,0.2,0.4,0.3,0.5,0.4c1.3,2.4,2.9,4.6,5.1,6.3c-0.4,0.5,1.2,0.4,0.3,1c-0.5,0.3-0.9,0.6-1.5,0
		C128.9,107.2,126.4,105.3,126.4,101.8z"/>
	<path class="st4" d="M128.8,110.3c-0.7-0.9-1.7-1.7-2.5-2.6c-1.2-1.5-2.1-3.2-2.9-4.9c-0.1-0.2-0.9-1.4,0.3-1.7
		c1.2-0.3,0.8,0.7,1,1.2c1.2,2.5,2.3,5.1,4.2,7.2c0.2,0.2,0.6,0.3,0.4,0.7C129.2,110.1,129.1,110.2,128.8,110.3z"/>
	<path class="st1" d="M120.7,166.2c-1.5-2.7-0.1-5.4,0.1-8.1c0-0.3,0.8-0.8,1.2-0.7c0.7,0.1,0.4,0.7,0.3,1.2c-0.3,1.5-0.4,3.1-1,4.4
		C120.6,164.1,122,165.3,120.7,166.2z"/>
	<path class="st4" d="M64.8,90.6c1.4,3.7,2.7,7.4,3.1,11.5C66.2,98.5,65.1,94.7,64.8,90.6z"/>
	<path class="st7" d="M62.1,89.8c0.8,0.6,1,0.7,1.4,2.8c0.6,2.8,1.2,5.6,2.4,8.3c0.2,0.3,0.3,0.6-0.1,0.7c-0.4,0.2-0.6-0.2-0.7-0.4
		c-0.8-3.2-2.6-6.1-2.8-9.4C62.3,91.1,61.6,90.5,62.1,89.8z"/>
	<path class="st8" d="M70,102c-1-3.4-2.7-6.5-3.3-9.9c-0.1-0.4-0.1-0.6,0.4-0.7c0.2,0,0.5-0.1,0.5,0.3c0.5,3.4,2.3,6.3,2.6,9.8
		C70.2,101.7,70.1,101.8,70,102z"/>
	<path class="st4" d="M116.9,106.1c0.5,0.3,0.8,0.4,0.9,0.7c1.3,2.1,2.5,4.2,3.9,6.2c0.3,0.5,0,0.6-0.2,0.7
		c-0.5,0.3-1.1,0.1-1.3-0.4c-0.7-2.1-2.3-3.7-3.4-5.7C116.6,107,116.6,106.6,116.9,106.1z"/>
	<path class="st1" d="M106.1,120.9c-0.2,0.5-0.3,0.8-0.4,1.2c-0.2-0.1-0.5-0.2-0.7-0.3c-1.4-1-1.9-2.7-2.7-4.1
		c-0.2-0.4,0-0.6,0.3-0.8c0.3-0.2,0.6-0.2,0.9,0C104.7,118,104.9,119.8,106.1,120.9z"/>
	<path class="st1" d="M107.3,120.6c-0.2-0.2-0.6-0.4-0.7-0.7c-0.4-1.3-1.6-2.1-1.9-3.4c-0.1-0.3-0.6-0.7,0-0.9
		c0.3-0.1,0.8-0.3,1.1,0.3c0.7,1.2,1.5,2.4,2.1,3.6C108,119.7,108.6,120.6,107.3,120.6z"/>
	<path class="st4" d="M96.5,119.2c0.8,0.7,0.9,1.7,1.6,2.5c0.6,0.7,1.1,1.4,1.6,2.1c0.3,0.4,0.6,0.7,0.1,1.1
		c-0.5,0.4-0.7-0.1-0.9-0.3c-1.4-1.2-1.8-3-3-4.4C95.7,119.9,96,119.4,96.5,119.2z"/>
	<path class="st4" d="M104.6,147.1c-0.2-0.4-0.6-0.6-0.4-1.2c0.4-1.3,0.7-2.6,1-3.9c0-0.2,0.3-0.3,0.5-0.4c0,0.6,1.1,0.6,0.8,1.1
		c-0.6,1.2-0.8,2.6-1.1,3.9C105.4,146.7,105,146.8,104.6,147.1z"/>
	<path class="st4" d="M107.1,114.2c0.4,0,3.1,4.5,2.9,4.7c-0.4,0.3-1.1,0.8-1.2,0.1c-0.3-1.5-1.5-2.4-2.1-3.8
		C106.4,114.4,106.8,114.5,107.1,114.2z"/>
	<path class="st7" d="M121.9,106.4c1.5,1.6,2.5,3.5,3.7,5.3c0.2,0.3,0,0.5-0.2,0.6c-0.5,0.4-0.8,0-1.1-0.4c-1-1.7-1.9-3.5-2.9-5.2
		C121.7,106.6,121.8,106.5,121.9,106.4z"/>
	<path class="st4" d="M117.6,115.2c-1.3-0.4-1.4-1.5-1.9-2.2c-0.8-1.1-1.5-2.2-2.1-3.4c-0.2-0.3-0.1-0.7,0.2-0.8
		c0.1-0.1,0.6,0.1,0.6,0.2C115.3,111.1,116.9,112.8,117.6,115.2z"/>
	<path class="st1" d="M94.9,125.9c-1.9-1.4-2.2-3.5-3.5-5c-0.2-0.3,0.3-0.3,0.4-0.4c0.4-0.3,0.4,0.1,0.6,0.3
		C93.7,122.2,94.8,123.5,94.9,125.9z"/>
	<path class="st7" d="M108.9,112.3c1.1,1.7,1.9,3.1,2.8,4.5c0.3,0.5,0.6,1.1,0.1,1.5c-0.6,0.4-0.7-0.3-0.9-0.8
		c-0.5-1.1-1.1-2.2-1.9-3.2C108.5,113.6,108.6,113.2,108.9,112.3z"/>
	<path class="st4" d="M98.3,118.8c1.9,1.1,2.4,3.2,3.2,5C99.8,122.6,99.2,120.6,98.3,118.8z"/>
	<path class="st8" d="M110.6,111.1c1.3,2.3,2.9,4,3.5,6.4C112.3,116.2,110.7,113.4,110.6,111.1z"/>
	<path class="st4" d="M118.1,162.7c-0.5-1.8,0.1-3.2,0.1-4.6c0-0.6,0.4-1,1-1c0.8,0,0.7,0.8,0.5,1.2
		C119.3,159.7,118.7,161.1,118.1,162.7z"/>
	<path class="st8" d="M103.6,123.2c-1.5-1.1-1.9-2.4-2.5-3.5c-0.2-0.3-0.1-0.9-0.6-1.1c-0.5-0.2-0.5-0.5-0.1-0.9c0.4-0.4,1,0,1,0.1
		C101.7,119.7,103.3,121,103.6,123.2z"/>
	<path class="st7" d="M107.8,143c0.6,0.1,0.9,0.4,0.7,0.8c-0.5,1.2-0.4,2.6-1.4,3.6c-0.1,0.1-0.1,0.5-0.5,0.3
		c-0.1-0.1-0.3-0.3-0.3-0.4c0.3-1.2,0.7-2.5,1.1-3.7C107.5,143.3,107.7,143.1,107.8,143z"/>
	<path class="st9" d="M127.1,125.8c2.7,0,4.4-1.7,6.8-1.8C132.4,125.6,128.8,126.7,127.1,125.8z"/>
	<path class="st7" d="M109.7,144.6c1.4,2.3,0,3.4-1,4.9C107.2,147.3,109.7,146.5,109.7,144.6z"/>
	<path class="st8" d="M129.3,132.8c2-1.1,4-2.2,5.9-3.3C133.6,131.1,132.1,133,129.3,132.8z"/>
	<path class="st10" d="M104.3,141.9c-1,0.7-0.2,2.2-1.2,3c-0.2,0.2,0.3,0.9-0.4,0.7c-0.3-0.1-0.7-0.4-0.5-0.9c0.5-1,0.9-1.9,0.8-3
		c0-0.2,0.3-0.7,0.8-0.4C103.9,141.4,104.3,141.4,104.3,141.9z"/>
	<path class="st11" d="M133.6,122.4c-1.8,0.9-3.3,1.3-4.9,1.6C129.5,122.6,131.1,122,133.6,122.4z"/>
	<path class="st9" d="M118.6,104.2c0.2,1.7,2.5,2.5,2,4.5C119.7,107.2,118,106.2,118.6,104.2z"/>
	<path class="st9" d="M115.3,115.7c-1.5-1-1.6-2.6-2.7-3.4c-0.2-0.2-0.2-0.6,0-0.9c0.2-0.2,0.5-0.1,0.7,0.2
		C114,112.8,115,113.9,115.3,115.7z"/>
	<path class="st12" d="M89.3,120.8c0.6,0,1.3,0.2,1.3,0.6c-0.1,1.5,1.5,2,1.6,3.3c0,0.2-0.5,0.7-0.6,0.2
		C91.2,123.4,89.5,122.6,89.3,120.8z"/>
	<path class="st11" d="M130.7,121.4c1.5-1.2,3.2-1.3,5.3-1C134.2,121.5,132.3,120.9,130.7,121.4z"/>
	<path class="st9" d="M168.2,110.2c1.9,0.3,2.4,2,3.4,3.2C170,112.8,169,111.7,168.2,110.2C168.2,110.2,168.2,110.2,168.2,110.2z"/>
	<path class="st13" d="M89.4,124.5c-1-0.8-1.3-2-2-2.9c-0.2-0.2-0.2-0.4,0-0.6c0.3-0.2,0.6,0,0.6,0.1
		C88.1,122.3,90,122.8,89.4,124.5z"/>
	<path class="st10" d="M131.7,127.3c-1.4,0.5-2.8,1-4.1,1.5c1-1.4,2.5-1.8,4-2C131.6,127,131.6,127.2,131.7,127.3z"/>
	<path class="st7" d="M99.1,143.6c-0.5-1.3-0.5-2.3,0.5-3.3C99.8,141.4,100.6,142.6,99.1,143.6z"/>
	<path class="st11" d="M85.6,87.9c1.4,1.6,1.3,3.1,1.8,4.4C86.4,91.2,85.8,89.9,85.6,87.9z"/>
	<path class="st1" d="M84.3,121.1c1.7-0.1,1.7-0.1,2.5,2.6C85.5,123.2,85.6,121.7,84.3,121.1z"/>
	<path class="st9" d="M117,158.7c-0.7-1-1.1-1.8-0.4-2.7c0.1-0.1,0.6-0.5,0.8-0.2C117.9,156.8,117,157.6,117,158.7z"/>
	<path class="st8" d="M101.4,143.7c-0.2-0.1-0.3-0.1-0.3-0.1c-0.3-1,0-1.9,0.4-2.8c0-0.1,0.5,0,0.5,0
		C102.1,141.8,101.6,142.7,101.4,143.7z"/>
	<path class="st14" d="M137.3,97.7c-0.8-0.7-2.2-1.1-2.5-2.7C136,95.8,136.8,96.6,137.3,97.7z"/>
	<path class="st15" d="M71.9,106.7c-1.8-0.7-0.6-2.4-1.6-3.4c1.1,0.2,1,1,1.1,1.6C71.5,105.5,71.3,106.1,71.9,106.7z"/>
	<path class="st13" d="M96.8,139.8c1.8,0.6,0,1.9,0.8,2.7C96.6,141.8,96.6,140.9,96.8,139.8z"/>
	<path class="st11" d="M111.2,147.9c0.1,1.1,0.3,2-0.5,2.6c-0.2,0.1-0.6,0.3-0.8,0.2c-0.3-0.2-0.2-0.6,0.1-0.8
		C110.7,149.6,110.7,148.8,111.2,147.9z"/>
	<path class="st8" d="M119.1,114.5c-0.4-0.4-0.8-0.8-1.2-1.3c0,0,0.3-0.3,0.5-0.5c0.4,0.5,1.4,0.4,1.3,1.4
		C119.7,114.3,119.6,114.5,119.1,114.5z"/>
	
		<animateTransform  accumulate="none" additive="replace" attributeName="transform" attributeType="HML" begin="0.1" calcMode="linear" dur="5.5s" fill="remove" repeatCount="indefinite" restart="always" type="translate" values="0,0;0,0; 0,15; 15,15;15,15;0, 0;">
		</animateTransform>
</g>
<g>
	<path class="st16" d="M51,135c-0.2-1.5,0-2.7-0.5-3.8c-0.1-0.3,0.1-0.6,0.4-0.8c0.3-0.1,0.6,0.1,0.6,0.3
		C51.5,132,52.2,133.4,51,135z"/>
	<path class="st17" d="M61.6,165.6c0.4-2.6,1.7-5.2,0.6-8c-0.2-0.4-0.1-1-0.6-1c-0.4,0-1.3-0.1-1.1,0.9c0.1,0.6-0.3,1-0.2,1.6
		c0.7,3.7-0.5,6.9-3.7,8.5c-2.2,1.1-3.8,2.8-5,4.8c-0.6,0.9-0.8,0.8-1.7,0.3c-1.8-1.2-3.3-2.8-5.2-4.1c1.6-0.5,2.2-1.6,2.8-3
		c0.6-1.5,0.1-2.8,0-4.2c-0.1-1.4-2.4-2.6-4.3-2.6c-3,0-4.1,1.2-5.2,5.6c-1.6-4.6,1.7-6.7,4.7-9c-3.7-0.4-6.9,4.3-6.2,8.7
		c-1.4-1-2.7-1.7-4.2-2.3c-1.4-0.6-1.3-2.3-1.4-3.5c-0.5-5.8,1.9-10,7.2-12.8c4.6-2.4,9.3-3.1,14.1-1.2c3.6,1.5,6.7,3.8,8.3,7.6
		c0.2,0.5,0.5,0.9,0.7,1.3c0.3,0.6,0.6,0.9,1.3,0.5c0.6-0.3,1.1-0.6,0.7-1.4c-1.7-3.8-4.1-7-8.1-8.7c-2.6-1.1-3.2-1.8-2.1-4.8
		c1-2.6,0.4-5.2,0.7-7.7c0.2-1.8-1.3-3.6-2.9-4.7c-2.9-2-6.2-2.7-9.6-2.6c-3.4,0.1-5.6,4.7-3.6,7.5c1.7,2.4,3.5,4.8,5.1,7.3
		c0.6,0.9,2.4,1.1,1.7,2.4c-0.4,0.9-1.9,0.5-2.8,0.7c-3.3,0.7-6.4,2.3-8.5,4.8c-3,3.5-5.5,7.6-3.9,13.1c-4.4-3.5-7.5-7.5-9.6-12.5
		c-1.5-3.5-2.8-6.9-3.2-10.6c-0.5-3.7-1.2-7.4-0.3-11.3c0.4-1.7,0.5-3.6,0.9-5.4c0.5-2.4,2-4.3,3-6.4c0.8-1.5,2.1-1.4,3.3-1.8
		c1.9-0.5,4-0.7,5.5-1.7c2.2-1.5,3.9-3.6,5.1-6.1c1.5-3.3,1.6-6.9,2.2-10.3c0.3-1.4-0.9-2.1-2.3-1.3c-0.5,0.2-0.9,0.7-1.3,0.2
		c-0.3-0.5,0.4-0.7,0.6-1.1c1.8-3.7,5-5.6,8.6-7.1c2.1-0.9,4.5-1.3,6.7-1.9c0.3-0.1,1.1,0.2,1.1,0.4c0.2,0.8-0.5,1.6-0.8,1.9
		c-2.6,2.8-2.9,6.2-2.9,9.7c0,2.7,0.4,5.5,1.8,7.6c1.7,2.6,2.5,5.6,4.1,8.2c2.1,3.6,3.5,7.6,5.1,11.4c1.4,3.5,2.5,7.1,3.5,10.8
		c0.7,2.6,1.1,5.3,1.7,7.9c0.8,3.9,1.6,7.8,2,11.7c0.3,3.4,0.8,6.8-0.3,10.1C63.3,163.4,62.6,164.6,61.6,165.6L61.6,165.6z"/>
	<path class="st17" d="M65.2,75.9c0.1,2.6-2.1,2.8-3.6,3.7c-2.5,1.4-5.3,0.7-8,0.6c-4.4-0.2-8.6,0.6-12.6,2
		c-0.5,0.2-0.8,0.5-1.2,0.1c-0.6-0.5,0.1-0.8,0.4-1c2.8-2.4,5.6-4.5,8.9-6.2c2.3-1.2,4.7-2.1,7.1-2.8c2.7-0.8,5.4-0.8,7.8,1.1
		C64.8,74,65.4,74.8,65.2,75.9z"/>
	<path class="st18" d="M89,57.8c-1.7,2.4-4.3,1.4-6.4,1.8c-3.7,0.9-7.4,1.5-10.8,3.3c-2.8,1.5-5.6,2.9-8.3,4.3
		C66.1,63.5,80.9,54.9,89,57.8z"/>
	<path class="st19" d="M60,83c2.1,1.7,4.6,2.5,7,3.2c4,1.2,8.1,0.6,12.1-0.5c1.6-0.5,3.2-1,4.6-1.9c0.8-0.5,1.1-0.1,1.5,0.4
		c0.6,0.9-0.4,0.6-0.7,0.8c-4.2,2.5-8.8,3-13.7,2.7C66.6,87.4,62.8,86.3,60,83z"/>
	<path class="st19" d="M83.8,81.8c-0.7,1.5-5.9,3.4-10.4,3.8c-3.5,0.3-6.2-0.4-11.2-2.9c3.6,0.8,7.1,1.7,10.8,1.4
		C76.7,83.9,80.2,83.1,83.8,81.8z"/>
	<path class="st18" d="M13.9,134.7c-2.9-1.7-6-2.9-9-4.2c-1.1-0.5-2.2-0.1-3.2-0.5c-0.3-0.1-1,0.2-0.8-0.5c0.1-0.5,0.3-1.1,1.1-1.1
		c2.5,0.1,4.9,0.6,7.1,1.8c1.1,0.6,2.2,1.2,3.3,1.6C13.7,132.3,14.2,133.2,13.9,134.7z"/>
	<path class="st20" d="M43,166.4c-1.7,0-2.6-1-2.6-2.7c0-1.6,1.1-2.8,2.5-2.7c1.7,0.1,3.2,1.5,3.2,3C46.2,165.6,45.1,166.5,43,166.4
		z"/>
	<path class="st21" d="M14.7,137.6c-0.1,0.2-0.2,0.3-0.3,0.5c-0.4,0.4-0.5,0-0.8-0.2c-1.5-1-3-2.1-4.5-3c-2.4-1.3-5-1.9-7.7-2
		c-0.5,0-1.5-0.1-1.4-1.1c0.1-0.9,0.7-0.6,1.4-0.6c4.4,0.3,8.2,2.3,11.8,4.6C13.8,136.2,14.2,136.9,14.7,137.6z"/>
	<path class="st21" d="M3.2,127.4c-0.6,0.3-1-0.2-1.4-0.5c-0.1-0.1,0-0.6,0.1-0.7c0.4-0.3,0.8-0.1,1.3,0c3.2,0.6,6.4,0.9,9.2,2.5
		c0.3,0.2,0.6,0.1,0.9,0.5c0.5,0.5,1,1,0.6,1.6c-0.4,0.4-1.1,0.3-1.7-0.2c-2.5-2-5.6-2.2-8.4-3.3C3.5,127.1,3.3,127.3,3.2,127.4z"/>
	<path class="st21" d="M65.1,143c-1.2-2.4,0.2-3.8,1-5.1c1.2-2.1,3-3.8,5-5.1c0.3-0.2,0.3-0.4,0.8-0.4c0.9,0,1.5-1.2,2.5-1
		c-0.3,1.1-1.5,1-2.1,1.6c-1.8,1.8-3.7,3.4-5.2,5.5C66.3,139.7,65.9,141.2,65.1,143z"/>
	<path class="st21" d="M4.3,124.9c-0.7,0.4-1.4,0.1-2.1-0.4c0,0,0.1-0.5,0.3-0.6c0.8-0.5,1.5-0.5,2.5-0.3c2.7,0.4,5.1,1.8,7.7,2.5
		c0.5,0.1,1.7,0.3,1.3,1.2c-0.3,0.7-1.1,0.3-1.8,0.1C9.5,126.4,7.1,125.3,4.3,124.9z"/>
	<path class="st19" d="M77.4,133.1c-2.2,1.5-3.8,2.9-5.2,4.7c-1.4,1.8-2.6,3.9-4.5,5.3C67.3,140,73.6,133.2,77.4,133.1z"/>
	<path class="st21" d="M4.1,121.1c3.1-0.1,5.8,1.4,8.7,2.2c1,0.3,1.3,1,1,1.6c-0.3,0.8-1-0.1-1.4-0.2c-2.6-1.1-5.2-1.8-8-2.1
		c-0.9-0.1-1.1-0.6-1.2-1.2C3.2,120.8,3.8,121,4.1,121.1z"/>
	<path class="st19" d="M83.4,78.2c-4.4,2.4-13.2,3.4-18,2.1C71.5,80.7,77.4,79.3,83.4,78.2z"/>
	<path class="st19" d="M64.4,138.5c-1.5-2.9,0.5-4.2,1.7-5.1c2.1-1.6,4.4-3.1,7-3.9c0.2-0.1,0.4,0,1.1,0.1
		C70.2,131.9,66.5,134,64.4,138.5z"/>
	<path class="st21" d="M6.4,118.7c2.8,0,5,1.3,7.4,2.2c0.4,0.2,1,0.2,0.6,1c-0.4,0.8-1,0.4-1.3,0.3c-1.5-0.6-2.8-1.5-4.5-1.7
		c-1.3-0.2-2.6-0.4-3.9-0.6c-0.3,0-0.7,0.6-0.8-0.2c-0.1-0.5,0.3-0.6,0.7-0.7C5.3,118.8,5.9,118.6,6.4,118.7z"/>
	<path class="st19" d="M66.4,82.2c3,0.1,6,0,8.9-0.3c2.8-0.4,5.6-1.1,8.5-2.1C81.4,82.5,72,83.8,66.4,82.2z"/>
	<path class="st21" d="M73.1,127.6c0,0.4-0.3,0.5-0.6,0.7c-3.1,1.8-6.4,3.2-8.7,6.1c-0.2,0.3-0.5,0.4-0.8,0.1
		c-0.3-0.3-0.1-0.5,0.1-0.8c0.7-1.1,1.7-1.9,2.5-2.7c1.6-1.4,3.6-2.3,5.5-3.3C71.7,127.3,72.4,127,73.1,127.6z"/>
	<path class="st21" d="M41.4,126.1c0.3,0.5,0.7,0.8,0.9,1.3c1.1,2.5,2.1,5.1,3.2,7.6c0.2,0.4,0.2,0.7-0.1,0.7
		c-0.3,0.1-0.8-0.1-0.9-0.3c-1.3-2.7-2.6-5.3-3.9-8C40.3,126.7,41.1,126.5,41.4,126.1z"/>
	<path class="st22" d="M86.7,61c-3.8,0.8-7.6,1.1-11.2,2.5c-1.1,0.4-2,1.1-3.2,1.1c-0.3,0-0.2,1-0.7,0.3c-0.4-0.5,0.1-0.6,0.4-0.8
		c2.1-1,4.2-2.1,6.5-2.4c2.1-0.3,4-1.1,6-1.3C85.5,60.4,86,60.8,86.7,61z"/>
	<path class="st23" d="M67.4,75.1c5.2-1.5,10.4-2.6,15.8-3.3C78.1,73.7,72.9,74.9,67.4,75.1z"/>
	<path class="st24" d="M67.3,78.5c5.3-0.3,10.5-1.4,15.7-2.3C78,78.3,72.7,79.2,67.3,78.5z"/>
	<path class="st22" d="M67.1,73.4c1-0.8,2.1-0.8,3.2-1c3.3-0.8,6.6-1.6,10-2.2c0.7-0.1,1.4-0.5,2.1-0.8c0.5-0.2,0.8-0.1,0.9,0.4
		c0.2,0.6-0.5,0.6-0.6,0.6c-1.8,0.3-3.5,0.9-5.3,1.2C74,72.3,70.6,72.9,67.1,73.4z"/>
	<path class="st24" d="M61.9,129.4c-0.8-2.2,1.3-2.2,2-2.8c1.8-1.5,4-2.6,6.2-3.5c0.8-0.3,1.3,0.2,1.4,0.4c0.2,0.6-0.4,0.5-0.8,0.8
		C67.6,125.6,64.4,126.6,61.9,129.4z"/>
	<path class="st22" d="M69.2,76.6c4.6-1,9.3-1.6,14.1-2.9C82.4,75.3,71.3,77.2,69.2,76.6z"/>
	<path class="st19" d="M6.4,117.7c2.2-1.6,4.5-0.5,6.8-0.2c0.4,0.1,0.6,0.6,1,0.4c1-0.5,1,0.4,0.9,0.8c-0.1,0.6-0.3,0.9-1.2,0.6
		c-1.7-0.6-3.5-0.9-5.2-1.4C7.9,117.8,7.2,117.5,6.4,117.7z"/>
	<path class="st19" d="M72.4,126c-3.8,0.8-6.4,2.9-8.9,5.2c-0.3,0.3-0.6,1-1.1,0.6c-0.8-0.6,0.1-1,0.4-1.4c1.5-2,3.6-3.3,6.1-3.8
		C69.9,126.4,70.7,125.1,72.4,126z"/>
	<path class="st22" d="M72,66c3.4-1.2,6.8-2.4,10.3-3.1c0.8-0.2,1.7-0.3,2.5-0.4c0.2,0,0.5-0.1,0.6,0.3c0.1,0.4-0.2,0.7-0.5,0.7
		c-3.9,0.6-7.7,1.4-11.4,2.6C73.1,66.3,72.5,66.8,72,66z"/>
	<path class="st24" d="M84.3,65.8c-3.8,0.9-7.6,1.7-11.4,2.6c0-0.2-0.1-0.4-0.1-0.6c3.7-1.3,7.5-2.5,11.4-2.6
		C84.3,65.4,84.3,65.6,84.3,65.8z"/>
	<path class="st25" d="M72.1,70.4c3.7-1.8,7.6-2.5,11.6-3C80.1,69.2,76,69.5,72.1,70.4z"/>
	<path class="st26" d="M66.8,116.4c-1,1.7-2.9,2-4.4,2.9c-0.8,0.5-1.6,1.2-2.5,1.5c-0.6,0.2-1,0.1-1.1-0.1c-0.4-0.5,0.2-0.5,0.4-0.7
		C61.4,118.2,64,117.2,66.8,116.4z"/>
	<path class="st19" d="M55.5,101.7c0.5,0,0.9-0.1,1,0.3c0.2,0.4-0.2,0.6-0.4,0.8c-1,1.1-2.7,1.1-3.7,2.3c0,0.1-1,0.3-1.2-0.5
		c-0.1-0.6-0.1-0.6,0.5-0.9C53,102.8,54.3,102.2,55.5,101.7z"/>
	<path class="st19" d="M57.4,103.4c0,1,0.1,1.5-0.8,2c-0.9,0.5-2.2,0.5-2.8,1.6c0,0.1-0.6,0.7-1,0.1c-0.4-0.5-0.2-1,0.3-1.2
		C54.7,105.4,55.8,104,57.4,103.4z"/>
	<path class="st19" d="M64.1,113.5c-1.7,1.1-3.3,2-4.8,2.9c-0.5,0.3-1.2,0.8-1.6,0.3c-0.5-0.7,0.5-0.9,0.8-1.1
		c1.4-1,3.2-1.4,4.5-2.6C63.1,113,63.7,113.3,64.1,113.5z"/>
	<path class="st26" d="M54.2,110.6c2.1-0.9,3.7-2.2,5.9-2.7C59,110.1,56.5,111.3,54.2,110.6z"/>
	<path class="st24" d="M27.6,101.9c1.2,0.4,2.4,0.9,3.5,1.3c0.3,0.1,0.5,0.2,0.3,0.5c-0.1,0.2,0,0.7-0.5,0.5
		c-1.4-0.5-2.9-0.9-4.3-1.4c-0.3-0.1-0.3-0.4-0.2-0.6C26.7,101.6,27.2,102.1,27.6,101.9z"/>
	<path class="st24" d="M54.6,95.5c-0.4,0.1-0.5,0.6-0.8,0.7c-1.4,0.5-2.7,1.3-3.9,2.2c-0.3,0.2-0.5,0.3-0.8,0
		c-0.2-0.3-0.2-0.6,0.1-0.8c1.5-0.9,3-1.8,4.5-2.6C54.2,94.7,54.5,95,54.6,95.5z"/>
	<path class="st22" d="M53.6,90.7c0.1,0.8-0.5,1.2-0.9,1.4c-1.5,0.5-2.8,1.2-4.2,1.9c-0.1,0.1-0.6,0.3-0.5-0.2
		c0.1-0.3-0.3-0.6,0.1-0.8c1.7-0.7,3.4-1.4,4.8-2.6C53.3,90.1,53.5,90.3,53.6,90.7z"/>
	<path class="st25" d="M50.1,102.5c1.6-1.5,3.4-2.1,5.1-3c0.2-0.1,0.6-0.6,0.7,0.1c0.1,0.3,0,0.6-0.1,0.9c-1.8-0.2-2.6,1.8-4.2,2.1
		C51.1,102.6,50.7,102.5,50.1,102.5z"/>
	<path class="st24" d="M55.2,97.7c-1.8,1.1-3.7,2.3-5.7,3.5C50.2,99.1,51.1,98.6,55.2,97.7z"/>
	<path class="st19" d="M54.1,109c-0.5-1.8,1.5-1.2,2-2c0.3-0.5,1.4-0.4,2-1.2c0.2-0.3,0.7-0.3,1,0.3c0.4,0.6,0,0.7-0.4,0.9
		C57.1,107.6,55.6,108.3,54.1,109z"/>
	<path class="st24" d="M60.2,125.2c0.1-1.7,3.2-3.4,5.3-3.2C64,123.4,62,123.9,60.2,125.2z"/>
	<path class="st19" d="M30.1,105.9c-0.1,0.6-0.5,0.5-0.9,0.5c-1.3-0.1-2.3-1.1-3.4-1.6c-0.1-0.1-0.3-0.4-0.2-0.6
		c0.1-0.6,0.4-0.1,0.7-0.1c1.2,0,2.1,1,3.3,1.2C29.8,105.3,30,105.7,30.1,105.9z"/>
	<path class="st22" d="M55.7,113c1.2-1.3,2.6-2.2,4.2-2.7c0.3-0.1,0.9-0.7,1.1,0c0.2,0.5-0.5,0.4-0.7,0.6
		C59,112,57.4,112.4,55.7,113z"/>
	<path class="st24" d="M56.5,114.9c1.7-1.1,3.1-2.7,5.8-2.8C60.4,113.7,58.3,114.1,56.5,114.9z"/>
	<path class="st19" d="M10.7,115.2c1.7-0.3,3.1,0,4.4,0.6c0.3,0.1,0.6,0.1,0.6,0.4c0,0.2-0.3,0.5-0.4,0.5
		C13.8,116.5,12.2,116.3,10.7,115.2z"/>
	<path class="st27" d="M47.2,132.5c-0.6-2.1-1.3-4-1.5-6.1C47,127.6,47.8,130.7,47.2,132.5z"/>
	<path class="st25" d="M39.5,127.6c1.1,1.6,1,3.6,2.1,5.1C39.8,132,38.9,129.9,39.5,127.6z"/>
	<path class="st23" d="M28.2,107.5c-1.9,1-3-0.7-4.9-1C25.7,104.9,26.4,108,28.2,107.5z"/>
	<path class="st22" d="M27.9,100.4c1.5-0.3,2.4,0.4,3.5,0.5c0.2,0,0.7,0,0.6,0.5c0,0.4-0.5,0.5-0.7,0.5
		C30.1,102,29.1,101.5,27.9,100.4z"/>
	<path class="st28" d="M90.8,55.9c-1.4,1.6-2.9,0.2-4.4,0.3C87.8,55.3,89.3,55.8,90.8,55.9z"/>
	<path class="st24" d="M68.1,118.5c-0.9,0.4-2,0.5-2.4,1.6c-0.1,0.2-0.8,0.8-1.2,0.1c-0.3-0.5,0.2-1.1,0.4-1
		C66.1,119.4,66.7,116.8,68.1,118.5z"/>
	<path class="st29" d="M32.8,99.5c-0.1,0.3-0.3,0.5-0.7,0.5c-0.9,0.2-1.5-0.4-2.2-0.7c-0.2-0.1-0.4-0.4-0.4-0.6
		c0.1-0.3,0.3-0.5,0.7-0.3c0.5,0.3,1,0.3,1.6,0.2C32.1,98.8,32.7,99,32.8,99.5z"/>
	<path class="st25" d="M60.9,117.2c0.9-1.8,2.9-1.5,4.3-2.3C64,116,62.6,117,60.9,117.2L60.9,117.2z"/>
	<path class="st24" d="M53.7,87.9c-0.8,2.1-2.5,2.1-3.9,2.6C50.7,89.1,52.2,88.8,53.7,87.9z"/>
	<path class="st22" d="M45,130.6c-0.6-1.4-1.1-2.8-1.9-4.6c2.1,1.2,1.8,3,2.4,4.4C45.3,130.5,45.2,130.6,45,130.6z"/>
	<path class="st30" d="M51.1,85.7c0.4-0.9,0.9-1.7,1.8-1.9c0.4-0.1,0.7-0.3,0.9,0.1c0.2,0.4-0.1,0.8-0.4,0.9
		C52.7,85.1,51.9,85.4,51.1,85.7z"/>
	<path class="st29" d="M14.3,113.6c1.1-0.2,2.1-0.6,2.8,0.4c0.2,0.2,0,0.7-0.3,0.8C15.7,115,14.9,114.5,14.3,113.6z"/>
	<path class="st31" d="M25.6,108.9c-1.4,0.2-2.3,0.2-3.1-0.7c-0.2-0.2-0.5-0.4-0.2-0.8c0.3-0.4,0.5-0.1,0.8,0.1
		C23.8,108,24.6,108.4,25.6,108.9z"/>
	<path class="st25" d="M33.5,97c-0.8,1.4-1.9,0.5-2.8,0.7c-0.3,0.1-0.4-0.4-0.4-0.7c-0.1-0.5,0.4-0.4,0.6-0.4
		C31.8,96.8,32.6,96.9,33.5,97z"/>
	<path class="st25" d="M82.6,87.5c0.9-0.7,1.9-1.2,3.3-1C85.1,88,83.7,87.4,82.6,87.5z"/>
	<path class="st32" d="M31,95.5c0.3-0.6,0.7-0.7,1.1-0.6c0.5,0,1.1-0.2,1.6,0.2c0.1,0.1-0.1,0.5-0.2,0.7c-0.5,0.4-1,0.3-1.6,0
		C31.6,95.6,31.3,95.6,31,95.5z"/>
	<path class="st22" d="M75,89.2c-1.7,0.2-3.4,0.7-5.1-0.2C71.6,89.1,73.3,89.1,75,89.2z"/>
	<path class="st33" d="M67.1,71.6c1.3-0.6,2.4-1.2,4.3-1.2C69.7,71.1,68.7,72.1,67.1,71.6z"/>
	<path class="st31" d="M49.7,95c1,0,1-1,1.6-1.3c0.3-0.1,0.6-0.5,1,0c0.2,0.3,0.1,0.8-0.1,0.8C51.3,94.5,50.8,95.6,49.7,95z"/>
	<path class="st34" d="M62.2,125.9c0.9-1.4,2-1.9,3.2-2.1C64.6,124.7,63.7,125.4,62.2,125.9z"/>
	<path class="st29" d="M21,110.2c-0.4,0-0.8-0.3-0.7-0.6c0.1-0.4,0.4-0.9,0.9-0.7c0.3,0.1,0.9,0.1,0.8,0.7
		C21.9,110.1,21.5,110.2,21,110.2z"/>
	<path class="st31" d="M60.9,117.1c-0.2,1.2-1.6,0.9-2,1.8c-0.2-0.1-0.3-0.1-0.4-0.2c-0.2-0.3-0.1-0.5,0.2-0.6
		C59.4,117.9,60,117.1,60.9,117.1L60.9,117.1z"/>
	
		<animateTransform  accumulate="none" additive="replace" attributeName="transform" attributeType="HML" begin="0.1" calcMode="linear" dur="5.5s" fill="remove" repeatCount="indefinite" restart="always" type="translate" values="0,0;0,0; 0,15; -15,15; -15,15;0, 0;">
		</animateTransform>
</g>
<g>
	<path class="st35" d="M112.3,8.1c-0.7,2.5-0.7,4.9-0.5,7.4c0.1,1,0.5,1.4,1.2,1.5c1,0.2,0.9-1.1,0.8-1.3c-0.2-0.8,0-1.6-0.1-2.4
		c-0.3-2.8,0.7-5.4,3.1-7c2.3-1.5,4.1-3.4,5.8-5.3c0.5-0.6,1.4-0.6,2.1-0.1c1.3,1,2.6,2,3.8,3.1c0.4,0.3,1,0.6,0,1.3
		c-2.5,1.7-3,5.1-1.4,7.5c0.8,1.1,3.5,2.3,4.6,1.9c1.8-0.5,3.9-2.7,4-4.3c0.1-0.5,0-1,0-1.7c1.5,3.6,0.3,6.4-3.4,8.2
		c-0.6,0.3-0.8,0.3-0.5,0.9c0.3,0.6,0.7,0.5,1.1,0.3c2.7-1.1,4.5-4.1,4.5-7.2c0-0.5,0.2-0.9,0.3-1.4c1.6,0.3,2.6,1.8,4.3,2.1
		c0.8,0.2,0.6,1.2,0.8,1.8c0.8,4.1,0.2,8.1-2.6,11.1c-2.9,3.1-6.5,5.1-11.1,5.4c-2.2,0.1-4.4,0.2-6.4-0.6c-2.1-0.8-4.1-1.8-5.8-3.5
		c-1.8-1.8-3.4-3.7-4.5-5.9c-0.2-0.4-0.4-0.7-0.8-0.5c-0.5,0.2-0.7,0.7-0.7,1.3c0,1.3,0.8,2.3,1.4,3.1c2.1,2.9,4.6,5.4,8.2,6.6
		c1.6,0.6,0.8,2,0.7,3.1c-0.4,3.4-1.1,6.8-0.2,10.2c0.3,1.2,0.5,2.4,1.8,3c2.4,1.1,4.6,2.4,7.3,2.8c2.7,0.4,5.1-0.3,6.7-2.3
		c1.2-1.4,0.9-3.5-0.1-5c-2.1-3.3-4.5-6.4-6.8-9.6c-0.1-0.1-0.3-0.2-0.7-0.3c2.7-0.6,5.2-1,7.4-2.3c3.1-1.8,5.4-4.2,7.2-7.3
		c1.4-2.5,1.5-4.8,1.6-7.4c0-0.3-0.5-0.6,0-0.8c0.3-0.1,0.5,0.1,0.8,0.3c2.2,1.4,3.8,3.3,5.2,5.3c2.4,3.7,4.5,7.6,5.6,12
		c0.7,3.1,1.2,6.3,1.3,9.6c0.1,3.5,0.1,7-0.7,10.4c-0.7,3.1-1.7,6-3.7,8.5c-0.8,1-2,1.2-3,1.3c-2.9,0.3-5.6,1.4-7.6,3.3
		c-1.9,1.7-3.1,4.3-3.5,6.9c-0.3,1.8-1.3,3.3-1.2,5.1c0.1,1.1-0.3,2.1-0.2,3.3c0.2,1.6,1,1.3,1.8,0.9c0.6-0.3,1.1-0.6,1.5,0
		c0.3,0.5-0.3,0.8-0.5,1.3c-1.9,2.9-4.7,4.5-7.7,6.1c-2.9,1.5-5.9,1.9-9,2.6c1.4-2.5,3-4.8,3.7-7.5c0.7-2.9,0.5-5.8-0.3-8.5
		c-0.7-2.6-1.7-5.1-2.9-7.5c-0.7-1.5-1.9-2.8-2.6-4.5c-2-5.2-4.7-10.1-6.3-15.4c-1.9-6.2-3.9-12.3-4.7-18.7
		c-0.6-4.2-1.3-8.3-1.5-12.5C109.7,13.6,110.4,10.6,112.3,8.1z"/>
	<path class="st35" d="M135.4,91.2c-2.8,2.4-5.3,5.3-8.7,6.8c-2.9,1.3-5.5,3.4-8.8,3.4c-2.2,0-4.5,0.4-6.7-0.7
		c-1.7-0.8-1.5-2.4-1.7-3.7c-0.1-0.7,0.7-1.4,1.6-2c2.8-2,5.7-2.1,9-1.8c4.5,0.3,9,0.1,13.3-1.9C133.8,91,134.6,90.8,135.4,91.2z"/>
	<path class="st36" d="M93.6,115.9c-1.9,1.1-3.9-0.4-5.8,0.3c-0.8,0.3-1.6,0-1.7-0.5c-0.1-0.6,0.4-1.2,1.3-1.3
		c4.1-0.2,8.1-1.1,12-2.5c2.7-1,5.4-1.9,7.7-3.7c0.6-0.5,1.4-0.2,1.9-0.9c0.1-0.2,0.3-0.6,0.7-0.2c0.5,0.4,0,0.9-0.1,0.9
		c-4.8,3.4-9.8,6.4-15.5,7.9C94,116,93.8,115.9,93.6,115.9z"/>
	<path class="st37" d="M102.7,86.8c-3.6-0.4-7,1.3-10.4,2.1c-0.4,0.1-0.9,0.7-1.5,1c-0.5,0.3-1,0.6-1.2-0.1
		c-0.2-0.5-0.3-1.2,0.6-1.5c2-0.7,4-1.9,6-2.2c3.6-0.5,7.2-0.8,10.8,0c2.1,0.5,3.9,1.4,5.7,2.5c0.4,0.2,0.7,0.4,0.3,0.8
		c-0.4,0.5-0.6,0.1-0.9-0.1C109.3,87.5,106.2,86.6,102.7,86.8z"/>
	<path class="st37" d="M90.3,92.1c3.5-3.8,16.1-6.1,20.9-1.6C104.2,88.3,97.4,89.3,90.3,92.1z"/>
	<path class="st35" d="M128.1,9.5c0.1-1.5,1.4-2.8,3-2.7c1.3,0.1,2.8,1.7,2.8,3c0,1.1-1.4,2.5-2.4,2.4
		C129.4,12.1,128.1,11,128.1,9.5z"/>
	<path class="st36" d="M160.9,38.3c1.6,1.8,3.8,2.5,5.8,3.4c1.8,0.8,3.7,1.3,5.7,1.5c0.8,0.1,1.2,0.3,1,1c-0.1,0.8-0.8,0.6-1.4,0.6
		c-3.7-0.4-7-1.9-10.3-3.5C159.9,40.5,160.4,39.6,160.9,38.3z"/>
	<path class="st36" d="M174.1,41.7c0.2,0.6-0.1,0.8-0.6,0.7c-4.6-0.7-8.9-2.2-12.6-5.1c0,0-0.2,0-0.2-0.1c-0.3-0.5-1.2-0.9-0.7-1.6
		c0.1-0.2,1.3,0.1,1.6,0.5c2.9,3,6.6,3.7,10.4,4.4C172.9,40.5,174.1,40.4,174.1,41.7z"/>
	<path class="st37" d="M99,42.4c2.7-1.1,4-3.3,6-4.7c2.2-1.6,2.5-4.2,3.8-6.4c0.2-0.3,0-1,0.5-1c0.8,0,0.4,0.8,0.5,1.2
		c0.5,1.9-0.9,3.4-1.8,4.7c-1.8,3-4.8,4.8-7.9,6.3C99.9,42.6,99.7,42.5,99,42.4z"/>
	<path class="st36" d="M171.4,47.2c-3.6-0.5-6.9-1.4-10.1-3c-0.8-0.4-1.1-1-0.8-1.4c0.5-0.6,1.1-0.5,1.6-0.1
		c2.8,1.8,5.9,2.8,9.2,3.3c1.2,0.2,1.2,0.2,1.1,0.5C172.4,47.1,172,47.3,171.4,47.2z"/>
	<path class="st38" d="M96.9,40.4c4.5-2.5,6.4-7.2,9.9-10.2C107,33.6,99.6,41.2,96.9,40.4z"/>
	<path class="st37" d="M110.7,36c-0.2,2.6-2.1,3.6-3.5,4.7c-1.7,1.4-3.8,2.2-5.7,3.3c-0.4,0.2-0.7,0.4-0.9,0
		c-0.4-0.8,0.4-0.4,0.6-0.6c1.5-1.5,3.7-1.9,5-3.6c1.1-1.4,2-3,3.6-3.9c0.4-0.2-0.2-1.2,0.6-0.9C111.1,35.3,110.8,35.9,110.7,36z"/>
	<path class="st37" d="M171.9,49c-0.4,0.1,0.5,0.9-0.5,0.8c-3.7-0.2-6.9-2-10.4-3c-0.6-0.2-0.6-0.7-0.4-1.1c0.3-0.6,0.6-0.2,1-0.1
		c2.5,0.9,4.9,1.6,7.4,2.5c0.7,0.3,1.4-0.3,2.2,0.1C171.5,48.5,172.2,48.2,171.9,49z"/>
	<path class="st39" d="M109.2,93.3c-2.6,0-5.2-0.2-7.6,0.1c-2.8,0.3-5.5,1.2-8.2,1.8c-0.4,0.1-0.6,0.4-1.1,0.2
		c-0.5-0.2-1.1,0.8-1.4,0.2c-0.4-0.9,0.8-0.8,1.1-0.9c4.9-1.6,9.9-2.9,15.1-1.8C107.8,93,108.5,92.3,109.2,93.3z"/>
	<path class="st37" d="M169.8,52.1c-2.9-0.7-5.9-1.2-8.7-2.4c-1-0.4-0.5-0.9-0.6-1.4c0.4,0,0.7,0,1.3,0.2c2.6,1.2,5.4,1.9,8.3,2.4
		c0.2,0,1.1-0.2,0.9,0.7C170.8,52.2,170.4,52.2,169.8,52.1z"/>
	<path class="st37" d="M111.2,38.5c1.1,1.9-1,2.9-1.8,3.5c-2,1.5-3.9,3.4-6.5,3.9c-0.6,0.1-1.5,0.5-1.7,0c-0.2-0.6,0.7-0.7,1.3-1
		C105.8,43.5,108.6,41.3,111.2,38.5z"/>
	<path class="st37" d="M170.5,53.6c-0.1,0.6-0.5,0.9-1.2,0.9c-2.7-0.3-5.4-0.7-8-1.7c-0.5-0.2-0.7-0.5-1.1-0.8
		c-0.5-0.3-0.2-0.6-0.1-1c0.2-0.5,0.5-0.3,0.9-0.1c2.1,1.2,4.4,1.7,6.7,2.2c0.7,0.2,1.2-0.2,1.8-0.2C169.9,53,170.5,52.8,170.5,53.6
		z"/>
	<path class="st38" d="M108.5,91.2c-0.7,1-1.4,0.2-2,0.2c-5,0-9.9,0.1-14.5,2.2c-0.4,0.2-0.6,0.1-0.8-0.2c-0.4-0.6,0.3-0.5,0.5-0.7
		c2.1-1.3,4.5-1.8,6.8-1.9c2.9-0.2,5.9-0.4,8.9,0C107.7,90.9,108.1,91,108.5,91.2z"/>
	<path class="st36" d="M133.9,46.8c-0.1,0.1-0.2,0.3-0.3,0.4c-0.4,0.1-0.8,0-1-0.3c-0.8-1.1-1.2-2.2-1.6-3.5c-0.7-2-1.7-3.9-2.6-5.8
		c-0.2-0.4-0.3-0.9,0-1c0.7-0.4,0.4,0.5,0.6,0.7c2.3,2.8,3.4,6.2,4.9,9.3C133.9,46.6,133.9,46.6,133.9,46.8z"/>
	<path class="st38" d="M91.4,97.5c3.4-2.1,11.1-3.2,16.5-2.4C102.3,95.1,96.9,96.5,91.4,97.5z"/>
	<path class="st40" d="M112.1,41.7c-0.6,2.9-6.9,6.6-9.7,5.8C106.2,46.5,108.8,43.6,112.1,41.7z"/>
	<path class="st36" d="M167.9,56.1c-2.9,0.9-5.6-0.2-8.3-0.8c-0.8-0.2-0.7-0.9-0.4-1.4c0.2-0.4,0.8-0.9,1.3-0.5
		c1.9,1.6,4.3,1.6,6.5,1.9C167.2,55.5,167.7,55.5,167.9,56.1z"/>
	<path class="st40" d="M87.9,112.8c5-1.3,10.2-1.8,14.9-4.2c-1.2,1.3-5,3.3-7,3.4C93.2,112.2,90.8,113.4,87.9,112.8z"/>
	<path class="st40" d="M105.2,98.8c-2,1.2-4,1-5.9,1.5c-2.2,0.5-4.5,1-6.7,1.4c-0.3,0.1-0.7,0.7-0.9,0c-0.1-0.4,0.2-0.6,0.6-0.7
		c1.3-0.5,2.8-0.6,4.1-0.9c1.4-0.3,2.8-0.7,4.1-1C102,98.9,103.4,98.3,105.2,98.8z"/>
	<path class="st37" d="M112.5,44.4c-2.1,2.8-4.8,4.8-8.2,5.8c-0.3,0.1-0.9,0.6-1.2-0.3c-0.3-0.8,0.6-0.7,0.7-0.7
		c1.8-0.6,3.3-1.7,5.1-2.3C110.2,46.5,111.3,45.3,112.5,44.4z"/>
	<path class="st40" d="M89.5,111c0.4-0.9,10.6-3.7,12.9-3.5C98.2,109.1,94,110.5,89.5,111z"/>
	<path class="st37" d="M91.1,104c2.5-1.5,5.4-1.7,8.2-2.4c1.7-0.4,3.4-0.6,5.2-1c0.4-0.1,0.7-0.4,0.9,0.2c0.1,0.4-0.2,0.6-0.5,0.6
		C100.1,101.6,95.8,103.6,91.1,104z"/>
	<path class="st40" d="M105.3,97c-4.5,0.9-8.9,1.7-13.4,2.6c0-0.2-0.1-0.5-0.1-0.7C96.2,98.1,100.6,96.5,105.3,97z"/>
	<path class="st39" d="M102.9,103.4c-3.3,0.9-6,2.2-8.9,2.3c-0.9,0-1.2,1-2,0.7c-0.3-0.1-0.9,0.2-1-0.3c-0.1-0.5,0.3-0.6,0.8-0.7
		c2.7-0.5,5.4-1.3,8.1-1.9C100.7,103.3,101.4,102.6,102.9,103.4z"/>
	<path class="st38" d="M89.9,108.4c1.5-0.7,3-1.3,4.6-1.6c1.9-0.3,3.8-0.9,5.6-1.4c0.5-0.1,0.8-0.1,0.9,0.2c0.2,0.5-0.5,0.5-0.7,0.6
		C97,107.4,93.6,108.5,89.9,108.4z"/>
	<path class="st38" d="M116,53c-2.5,1.4-4.7,2.8-7,4.1c-0.4,0.2-1.2,0.3-1.4-0.3c-0.3-0.8,0.5-0.4,0.8-0.6c1.8-1,3.7-2.1,5.4-3.3
		C114.7,52.4,115.1,52.6,116,53z"/>
	<path class="st41" d="M104.9,54c2.3-2.2,5.5-2.9,7.8-5c0.5-0.4,1.1-0.5,1.5,0c0.3,0.4,0,0.9-0.5,1c-3,0.7-5.3,2.8-8.1,3.8
		C105.4,53.8,105.2,53.9,104.9,54z"/>
	<path class="st37" d="M121.7,66.9c0.2,0.3,0.1,0.4-0.3,0.6c-1.3,0.5-2.3,1.6-3.7,2c-0.3,0.1-0.6,1.1-1,0.1
		c-0.1-0.3-0.4-0.7,0.4-1.1c1.2-0.6,2.4-1.4,3.6-2.1c0.3-0.2,0.4-0.4,0.7-0.2C121.9,66.4,122,66.6,121.7,66.9z"/>
	<path class="st36" d="M122.8,69c0.2,0.6-0.3,0.8-0.8,1c-1.1,0.6-2.2,1.1-3.3,1.8c-0.5,0.3-0.8,0.4-1.1-0.1c-0.2-0.4,0-0.9,0.4-1.1
		c1.4-0.6,2.7-1.3,3.9-2.3C122.6,67.9,122.8,68.5,122.8,69z"/>
	<path class="st37" d="M120.1,76.4c-0.2-0.1-0.4-0.3-0.5-0.4c-0.2-0.4,0.1-0.8,0.3-1c1.4-0.7,2.9-1.4,4.3-2c0.1-0.1,0.4,0.2,0.6,0.3
		c0.1,0.1,0.3,0.3,0,0.4c-1.5,0.7-2.7,2-4.3,2.5C120.4,76.2,120.3,76.3,120.1,76.4z"/>
	<path class="st36" d="M120.7,65c-0.1,0.1-0.1,0.2-0.2,0.2c-1.4,0.7-2.6,1.8-4.2,2.1c-0.4,0.1-0.6-0.2-0.7-0.4
		c-0.2-0.2,0-0.5,0.2-0.6c1.3-0.9,2.8-1.4,4.2-1.9C120.7,64.1,120.4,64.9,120.7,65z"/>
	<path class="st38" d="M110.5,60.2c1.6-2,3.9-2.7,6.4-3.5c-0.1,1.3-1.1,1.1-1.7,1.5c-0.7,0.5-1.4,1-2.2,1.3
		c-0.7,0.3-1.4,0.7-2.1,1.1C110.7,60.4,110.6,60.3,110.5,60.2z"/>
	<path class="st38" d="M120.1,62.3c-1.6,1.8-3.7,2.5-6,3.5C115.1,64,118.5,62.1,120.1,62.3z"/>
	<path class="st42" d="M132.2,39.2c1,1.4,2,2.9,2.9,4.3c0.2,0.4,0.9,1.1,0,1.4c-0.7,0.3-0.6-0.5-0.9-0.9c-1.1-1.4-1.8-3.1-2.4-4.7
		C131.9,39.4,132,39.3,132.2,39.2z"/>
	<path class="st40" d="M125.7,75.4c-1.4,1.7-3.6,1.8-5,3.2c-0.1,0.1-0.5-0.1-0.6-0.2c-0.4-0.3,0-0.6,0.2-0.7
		C121.9,76.9,123.2,75.1,125.7,75.4z"/>
	<path class="st37" d="M120.6,83c1.6-2.3,3.9-2.6,5.9-3.2C125.1,81.5,123,82,120.6,83z"/>
	<path class="st37" d="M147.8,70.8c-0.9,0.5-4.4-0.3-4.8-1c-0.1-0.2,0-0.3,0.1-0.5c0.2-0.3,0.5-0.2,0.8-0.2
		C145.5,69.4,145.9,69.5,147.8,70.8z"/>
	<path class="st39" d="M119.3,74.1c-0.6,0-1-0.2-0.6-0.7c1.2-1.5,3.3-1.4,4.7-2.6c0,0,0.3,0.2,0.4,0.3c0.2,0.3,0,0.7-0.2,0.8
		C122.1,72.6,120.4,72.7,119.3,74.1z"/>
	<path class="st43" d="M113.1,63.2c2-0.8,3.4-2.6,5.7-2.8C117.1,61.9,115.4,63.3,113.1,63.2z"/>
	<path class="st40" d="M148,69.3c-1.2-0.5-2.3-1-3.5-1.5c-0.1,0-0.2-0.3-0.2-0.5c0-0.4,0.3-0.2,0.5-0.3c1.7-0.4,2.6,1.2,4,1.5
		c0.1,0,0.1,0.5,0,0.7C148.6,69.6,148.3,69.4,148,69.3z"/>
	<path class="st38" d="M146.3,65.9c1.6-1.5,2.7,0.5,4,0.7c0.2,0,0.3,0.6,0.1,0.8c-0.2,0.3-0.6,0.2-0.9,0.1
		C148.5,67,147.3,66.8,146.3,65.9z"/>
	<path class="st44" d="M164,57.7c-1.6,0.8-3,0.2-4.5-0.1c-0.4-0.1-1-0.2-0.7-0.8c0.1-0.4,0.5-0.4,1-0.2
		C161.1,57,162.6,57.3,164,57.7z"/>
	<path class="st39" d="M106.8,55.5c-0.1-0.1-0.3-0.2-0.5-0.4c-0.2-0.2-0.1-0.5,0.2-0.6c1.6-0.3,2.8-1.4,4.2-2.1
		c0.3-0.2,0.5-0.1,0.6,0.1c0.3,0.3,0,0.5-0.2,0.6C110,54.2,108.3,54.6,106.8,55.5z"/>
	<path class="st45" d="M120.5,85.3c1.3-1.8,2.8-2.3,4.4-2.7c0.3-0.1,0.5,0.1,0.5,0.4c-0.1,0.4-0.4,0-0.6,0.1
		C123.7,84,122.6,84.9,120.5,85.3z"/>
	<path class="st38" d="M141.9,71.8c1.6-0.6,2.8-0.2,4,0.6c0.2,0.1,0.4,0.3,0.1,0.6c-0.2,0.2-0.3,0.3-0.6,0.1
		C144.4,72.5,143.1,72.8,141.9,71.8z"/>
	<path class="st41" d="M125,41.6c1.3,1.3,0.7,3,1.4,4.1c0,0.1-0.1,0.3-0.3,0.4c-0.3,0.2-0.5-0.1-0.6-0.3
		C125.2,44.6,124.6,43.4,125,41.6z"/>
	<path class="st42" d="M121,90.2c-0.4-2.4,1.7-2,2.7-2.7C123.2,88.9,122.1,89.4,121,90.2z"/>
	<path class="st39" d="M145.4,74.7c-1.5,0.1-2.8,0-3.9-1C143.1,73.1,143.8,73.3,145.4,74.7z"/>
	<path class="st46" d="M123.5,43.3c-0.9-1.8-1.1-3.7-0.3-5.5C123.3,39.6,123.4,41.4,123.5,43.3z"/>
	<path class="st47" d="M127.1,42.3c0.5,1.2,1.3,2.2,1.2,3.6c0,0.3,0.8,0.5,0.3,0.8c-0.4,0.3-1.1-0.1-1-0.5
		C127.8,44.9,126.9,43.7,127.1,42.3z"/>
	<path class="st38" d="M93.6,85.4c-1.1,1.1-2.8,1.1-4,2c-0.1,0.1-0.7-0.1-0.8-0.3c-0.2-0.4,0.1-0.6,0.4-0.6
		C90.8,86.6,91.9,85.2,93.6,85.4z"/>
	<path class="st48" d="M149.3,64.5c0.9-0.3,1.7-0.4,2.4,0.3c0.2,0.2,0.8,0.3,0.5,0.8c-0.2,0.3-0.6,0.5-1,0.2
		C150.6,65.4,149.9,64.9,149.3,64.5z"/>
	<path class="st44" d="M144.4,76.4c-0.7,0.3-1.4-0.2-2,0.2c-0.6,0.4-1-0.1-1.1-0.6c-0.2-1.1,0.6-0.3,0.9-0.4
		C143.1,75.2,143.8,75.6,144.4,76.4z"/>
	<path class="st49" d="M129,43.1c0.3,0.1,0.5,0.1,0.5,0.2c0.6,1.2,1.4,2.4,1.6,3.8c0,0.1-0.3,0.2-0.5,0.2
		C130.1,46,129.5,44.6,129,43.1z"/>
	<path class="st44" d="M112.5,56.3c0.4-0.5,1.3,0.1,1.6-0.7c0.1-0.3,0.7-0.9,1.2-0.2c0.3,0.5-0.4,0.7-0.6,1
		C113.8,56.9,113.4,56.9,112.5,56.3z"/>
	<path class="st50" d="M84.2,117.2c1.9-0.3,3.4-0.1,5.1,0.5C87.5,118.1,86.1,117.9,84.2,117.2z"/>
	<path class="st45" d="M114.9,5.1c0.8-1,1.2-2.4,2.9-2.4C117.3,4.1,115.7,4.2,114.9,5.1z"/>
	<path class="st37" d="M160,59.6c-1.1,0.4-1.9,0.5-2.5-0.4c-0.2-0.3,0-0.5,0.3-0.6C158.7,58.2,159.2,58.9,160,59.6z"/>
	<path class="st43" d="M99.6,84.2c1.9-0.1,3.7-0.5,5.4,0.3C103.2,84.2,101.3,84.7,99.6,84.2z"/>
	<path class="st38" d="M112.2,61.5c1.2-1,2.3-1.4,3.6-1.3C114.6,60.3,113.9,61.8,112.2,61.5z"/>
	<path class="st51" d="M120.6,79.9c1-0.6,1.8-0.9,2.5-1.4c0.3-0.2,0.5,0,0.6,0.2c0.1,0.1-0.1,0.4-0.1,0.4
		C122.6,79.3,122.1,80.6,120.6,79.9z"/>
	<path class="st38" d="M103.8,52c0.6-0.1,0.9-0.7,1.4-1c0.4-0.2,0.7-0.4,0.9,0.1c0.3,0.5-0.1,0.6-0.4,0.8
		C105.1,52.3,104.5,52.1,103.8,52z"/>
	<path class="st49" d="M120.8,0.4c-1.1,0.3-1.1,1.6-2.1,2c-0.1,0-0.2-0.2-0.4-0.4c0.7-0.6,1-1.6,2-2C120.4,0,120.6,0.2,120.8,0.4z"
		/>
	<path class="st45" d="M143,78.3c-0.4,0-0.8,0.1-1.1,0c-0.5-0.1-0.8,0.7-1.3,0.1c-0.1-0.1,0.1-0.3,0.2-0.5c0.3-0.5,0.9-0.4,1.4-0.3
		c0.3,0.1,0.7,0.3,1,0.4C143,78.1,143,78.2,143,78.3z"/>
	<path class="st39" d="M103,103.6c0.9-1.7,2-1.5,3-1.3C105.2,102.6,104.3,102.8,103,103.6z"/>
	<path class="st52" d="M154.5,63.6c-0.6,0.4-0.8,1.1-1.6,0.6c-0.2-0.1-0.3-0.6-0.2-0.7C153.1,63.1,153.7,63.2,154.5,63.6z"/>
	<path class="st44" d="M120.8,86.9c0.6-0.8,1.3-1,2.2-0.9C122,87,122,87,120.8,86.9z"/>
	
		<animateTransform  accumulate="none" additive="replace" attributeName="transform" attributeType="HML" begin="0.1" calcMode="linear" dur="5.5s" fill="remove" repeatCount="indefinite" restart="always" type="translate" values="0,0;0,0; 0,-15; 15,-15;15,-15;0, 0;">
		</animateTransform>
</g>
<g>
	<path class="st0" d="M3.6,57.5c1.5-0.1,1.6,1.4,2.1,2.1c3.3,4.4,7.4,4.8,11.7,3.9c0.7-0.1,1.2-0.6,1-1.3c-0.2-0.6-0.7-1-1.5-0.7
		c-2.8,0.9-5.4,0.7-8-1.2C7.9,59.7,7.7,58.8,7,58c-1.4-1.6-2.6-3.3-4.6-4.3C1,53,1.4,51.9,2,51.1c1.1-1.4,2.3-2.7,3.1-4.4
		c0.3-0.7,0.8-0.4,1.3,0.4c1.2,2.1,3,2.6,5.1,2.2c2.3-0.5,4-2.6,3.9-4c-0.2-3.9-1.1-4.4-4.1-5.3c-0.4-0.1-0.7-0.5-1.1-0.4
		c2.8-1.1,5.6,0.1,6.8,2.2c0.5,0.9,1.7,1.6,1.8,1.5c0.8-0.8-0.3-1.4-0.7-1.9c-1.7-2.2-3.8-3.8-6.7-3.4c-0.6,0.1-1.2,0.1-1.5-0.3
		c-0.2-0.3,0.5-0.6,0.7-1c0.1-0.2,0.2-0.3,0.3-0.5c0.7-1.3,1.4-2.6,2.1-4c2.6,0.7,5.2-0.8,7.9,0.3c3.7,1.5,6.3,3.8,8.2,7.4
		c2.3,4.5,2.6,9.1,0.9,13.7c-1.3,3.5-3.5,6.7-7.3,8.1c-0.5,0.2-0.9,0.5-1.3,0.7c-0.8,0.5-0.5,1.1-0.2,1.8c0.4,0.9,0.8,0.2,1.1,0
		c2.8-1.3,5-3.2,7-5.4c0.8-0.9,1.1-2.1,1.8-3.2c1.7-2.7,1.9-2.9,5-2c2.6,0.8,5.2,0.5,7.7,0.2c2.6-0.4,4.2-2.4,5.1-4.5
		c1-2.4,1.8-5,1.2-7.9c-1-4.7-5.3-5.4-8.4-2.6c-1.6,1.4-3.5,2.3-5.2,3.7c-1.2,1-1.9,2.6-3.6,3.3c-0.5-4.6-2.3-8.6-5.9-11.8
		c-3.7-3.4-7.8-4.5-12.7-3.7c1.5-1.4,2.1-3.4,4.1-4.6c1.4-0.8,2.6-2.1,4-3.1c2.4-1.8,5.2-2.7,7.8-3.9c3.8-1.7,7.9-2.4,11.9-2.5
		c5.9-0.2,11.9,0.1,17.4,3.3c1.8,1,2.4,2.6,2.8,4.2c0.7,2.7,1.6,5.2,3.6,7.3c1.2,1.3,2.8,1.9,4.4,2.5c2.8,1.1,5.7,1.7,8.7,1.8
		c1,0,2.3,0.4,2.8-0.6c0.5-0.9-0.3-2-0.9-3c3,0,4.6,2.4,6.3,4.2c1.5,1.6,2.7,3.8,3.4,6c0.8,2.4,1.2,4.9,1.8,7.6
		c-4.7-3.8-10.1-5.1-15.7-3.6c-2.6,0.7-5.2,2.1-7.7,3.4c-5.5,3-11,6-16.9,8.2c-4.2,1.6-8.3,3.3-12.7,4.3c-4.4,1-8.7,2.2-13.2,3.1
		c-3.1,0.6-6.2,1.1-9.3,1.1c-3,0.1-5.8-0.8-8.4-2.4c-2.2-1.4-3.5-3.5-5.2-5.3C3.3,58.1,3.5,57.7,3.6,57.5L3.6,57.5z"/>
	<path class="st0" d="M91.2,37.8c2.6,1.7,4.5,4,6.1,6.4c2.8,4.1,5,8.4,5.5,13.4c0.1,1.4,0,2.7-0.7,4c-0.8,1.4-1.9,2.5-3.5,2.3
		c-1.9-0.2-2.8-1.7-3.5-3.3c-0.9-2-0.9-4.2-0.8-6.4c0.2-4.4-0.4-8.7-1.8-12.8C92.2,40.3,91.6,39.1,91.2,37.8z"/>
	<path class="st0" d="M107,61.3c2.4,1.9,4.1,4.3,5.8,6.8c1.8,2.8,3.5,5.6,4.3,8.9c0.7,2.7,1,5.5,1,8.3c0,0.7-0.2,1.6-0.9,1.7
		c-0.9,0-0.4-1-0.6-1.5c-0.7-2.9-1-6-2-8.9c-1.6-4.5-3.4-8.9-6.2-12.7C107.9,63,107.5,62.1,107,61.3z"/>
	<path class="st5" d="M87.2,74.1c-0.3-3.2-0.2-6.5,0.7-9.6c0.4-1.3,1.5-2.2,1.8-3.6c0.1-0.3,0.5-0.8,0.9-0.5c0.5,0.3,0.3,0.7,0,1.1
		c-1.3,1.8-1.8,4.1-2.2,6c-0.6,2.8-0.3,5.8,0.8,8.6c0.9,2.3,1.1,4.8,2.8,6.8c0.2,0.3,0.5,1-0.1,1c-0.5,0-1.6,0.6-1.6-0.4
		c-0.1-0.7-0.3-1.1-0.6-1.6C88.1,79.5,87.9,76.7,87.2,74.1z"/>
	<path class="st0" d="M38.1,14.7c2.5-3.7,4.1-7.6,4.7-11.8c0.1-0.8,0.3-1.6,1-1.6c0.9,0,0.5,1,0.7,1.5c0.6,1.9-0.6,3.6-0.9,5.4
		c-0.3,1.6-1.4,2.9-1.8,4.5C41.3,14.4,40.1,15.1,38.1,14.7z"/>
	<path class="st0" d="M13.3,44.7c-0.2,2.1-1.2,3.1-3.1,2.9c-1.8-0.2-2.8-1.6-2.5-3.6c0.2-1.4,1.8-2.4,3.4-2.2
		C12.1,41.9,13.4,43.6,13.3,44.7z"/>
	<path class="st0" d="M93.8,83.3c-3.3-2.9-3.6-7.2-4.3-11.1c-0.8-4.6,0.9-9.5,2.6-10.4C89.8,69.2,91,76.3,93.8,83.3z"/>
	<path class="st5" d="M34.8,15.7c0-1.1,0.5-1.6,1-2.1c2.7-3,3.7-6.7,4.1-10.6c0-0.4,0.1-0.7,0.2-1.1c0.2-0.7,0.3-1.5,1.3-1.3
		c0.8,0.2,0.4,1,0.4,1.6c-0.4,3.8-1.5,7.4-3.7,10.7C37.2,14.1,36.4,15.1,34.8,15.7z"/>
	<path class="st2" d="M42,14.4c0.6-2,1.9-3.6,2.3-5.4c0.4-1.8,1.1-3.5,1.2-5.3c0.1-0.7,0.1-1.8,0.9-1.8C47.5,2,46.7,3,46.7,3.6
		c-0.1,3.3-0.9,6.3-2.2,9.3C43.9,14.3,43,13.9,42,14.4z"/>
	<path class="st0" d="M31.7,65.9c4.4-1.5,10.7,4,12.5,9.6c-1.9-1.7-3.1-4.1-5.3-5.7C36.8,68.2,34.5,67.1,31.7,65.9z"/>
	<path class="st1" d="M41.9,77.5c-2-3.5-5.9-5-8.7-7.5c0,0-0.1-0.1-0.1-0.1c-0.1-1-2.1-0.7-1.5-1.6c0.3-0.5,1.7,0.3,2.6,0.8
		c2,1.1,4,2.3,5.5,4C40.7,74.2,42,75.5,41.9,77.5z"/>
	<path class="st3" d="M108.7,66.5c3.3,5.8,6.3,11.7,6.3,18.6C112.9,79,111.9,72.4,108.7,66.5z"/>
	<path class="st1" d="M38,64.1c1,0.3,2.1,0.7,2.9,1.7c1.6,2.1,3.1,4.3,4.5,6.5c0.2,0.3,0.7,0.9,0,1.3c-0.4,0.2-0.5,0-0.7-0.3
		c-2-3.1-4.1-6-7.4-7.7c-0.3-0.2-0.6-0.5-0.9-0.8C36.8,64.3,37.2,64.1,38,64.1z"/>
	<path class="st1" d="M49.6,4c-0.3,3.5-2,6.6-2.7,9.9c-0.1,0.3-0.5,0.7-0.9,0.3c-0.3-0.3-0.8-0.4-0.5-1.2c0.4-1.4,1.1-2.7,1.4-4.2
		c0.4-1.7,0.7-3.4,1-5.1c0.1-0.5,0.1-1.3,0.8-1.2C49.3,2.8,49.8,3.3,49.6,4z"/>
	<path class="st1" d="M92.8,64.6c-0.5,6.1,0.9,11.9,2.9,17.9C92.7,80.6,90.9,69.4,92.8,64.6z"/>
	<path class="st5" d="M51.7,4.4c0.5,3.4-1.2,6.3-1.9,9.4c-0.3,1.1-0.9,0.2-1.3,0.2c-0.4,0-0.8-0.4-0.4-1.1c1.5-2.5,2.1-5.2,2.1-8.2
		c0-0.6,0-1.5,0.8-1.6C51.4,3.2,52.4,3.5,51.7,4.4z"/>
	<path class="st5" d="M36.1,47.5c1.5-2.1,4-2.8,5.9-4.4c1.1-1,3-1.4,4.6-2.1c0.5-0.2,1.4-0.2,1.6,0.6c0.2,0.9-0.6,0.7-1,0.8
		c-2.3,0.9-4.4,2.1-6.6,3.2C39,46.3,37.3,46.5,36.1,47.5z"/>
	<path class="st1" d="M94.2,63.9c0.9,0.5,1.1,1.2,0.9,1.9c-0.8,3.6,0.4,7.1,1,10.5c0.3,1.7,0.5,3.7,1.4,5.3c0.3,0.5,0,0.5-0.3,0.6
		c-0.5,0.3-0.4-0.1-0.5-0.4c-1.1-3.3-2.2-6.6-2.4-10.1C94,69.2,94.2,66.5,94.2,63.9z"/>
	<path class="st1" d="M39.9,63.4c0.9-0.2,1.6-0.3,2.3,0.8c0.9,1.4,2.5,2.2,3.3,3.7c0.7,1.3,1.5,2.5,2.1,3.8c0.1,0.3,0.6,1.1-0.2,1.4
		c-0.8,0.3-0.9-0.3-1.2-0.8c-0.7-1.5-1.2-3.1-2.2-4.4c-1.1-1.4-2.5-2.6-3.8-3.8C40,63.9,39.8,63.9,39.9,63.4z"/>
	<path class="st1" d="M96.6,65.3c0.1,3.3,0.7,6.4,1.2,9.5c0.4,2.1,1.5,3.9,1.5,6.1c0,0.4,0.5,1-0.1,1.1c-0.4,0.1-0.8-0.4-0.9-0.8
		c-0.5-1.9-1.1-3.7-1.4-5.6c-0.4-2.7-0.7-5.4-1-8.2C95.9,66.8,95.5,65.9,96.6,65.3z"/>
	<path class="st2" d="M51.3,14.8c-0.7-0.2-0.4-0.9-0.3-1.4c0.2-1.2,0.8-2.2,1.1-3.4c0.4-1.7,0.6-3.4,0.7-5.1c0-0.4-0.1-0.9,0.4-0.9
		c0.4,0,0.6,0.3,0.7,0.8c0.5,1.9,0.2,3.8-0.3,5.7c-0.3,1.1-0.8,2.1-1,3.3C52.6,14.5,52.1,14.8,51.3,14.8z"/>
	<path class="st3" d="M105.8,82c-2-5.1-3.8-10.2-4.1-15.7C103.3,71.4,105.2,76.5,105.8,82z"/>
	<path class="st3" d="M98,66.2c1.7,5.2,2.6,10.5,3.4,15.9C99.8,76.9,97.9,71.7,98,66.2z"/>
	<path class="st4" d="M100.2,66c1.2,5.3,2.5,10.6,3.7,15.9c-0.3,0.1-0.6,0.1-0.9,0.2c-1-5.3-3-10.5-3.2-16
		C99.9,66.1,100.1,66,100.2,66z"/>
	<path class="st4" d="M108.2,70.2c0-0.2-0.1-0.6,0.3-0.6c0.7-0.1,0.1,0.4,0.3,0.5c1.8,2.1,2,4.8,3,7.3c0.7,1.7,0.7,3.6,1.3,5.4
		c0.1,0.5,0.4,1-0.1,1.1c-0.5,0.2-0.9-0.4-1-0.8c-0.2-0.9-0.4-1.9-0.5-2.8c-0.5-3-1.1-5.9-2.7-8.5C108.3,71.3,108.3,70.7,108.2,70.2
		z"/>
	<path class="st1" d="M51,71.7c-1.4-3.5-2.9-6.9-6.1-9.5c1.1-0.2,2-0.2,2.4,0.5c1.4,2.4,3.8,4.1,4.3,7.1
		C51.8,70.6,51.9,71.1,51,71.7z"/>
	<path class="st3" d="M107,71.3c1.8,3.8,3.3,7.7,3.3,11.9C108.5,79.4,107.8,75.3,107,71.3z"/>
	<path class="st1" d="M49.2,72c-1.5-3-3.4-5.5-5.5-7.9c-0.3-0.3-1.2-0.7-0.4-1.3c0.5-0.4,1.3-0.2,1.6,0.2C46.8,65.7,49,68.4,49.2,72
		z"/>
	<path class="st5" d="M55.7,6.2c1.2,2.3,0.7,4.2,0.2,6.2c-0.1,0.5-0.4,0.8-0.3,1.4c0.1,0.6-0.3,1.7-1.3,1.4
		c-0.6-0.2-0.8-1.1-0.5-1.7C55,11.3,54.7,8.8,55.7,6.2z"/>
	<path class="st1" d="M54,58.7c0.4,0,0.6,0.1,0.7,0.4c1.5,2.2,2.4,4.8,4.1,6.8c0.2,0.2,0.2,0.7-0.3,0.9c-0.6,0.3-0.5,0-0.8-0.4
		c-1.6-1.9-2.1-4.5-3.9-6.3C53.8,60.1,53,58.9,54,58.7z"/>
	<path class="st1" d="M73.2,55.2c0.1,1.3-0.4,1.4-1,1c-0.4-0.3-0.9-0.6-1.1-1.2c-0.3-1-0.3-2.1-1.5-2.5c0.5-0.5-0.9-0.8-0.1-1.2
		c0.4-0.2,1.1-1,1.5-0.3C71.7,52.4,72,54.2,73.2,55.2z"/>
	<path class="st3" d="M54.6,66.9c-0.1,0.3-0.1,0.7-0.8,0.4c-0.9-0.4-1.1-1.3-1.5-2c-0.8-1.3-1.6-2.7-2.4-4c-0.2-0.3-0.3-0.6-0.1-0.9
		c0.3-0.4,0.5-0.1,0.8,0c0.3,0.2,0.8,0.3,0.9,0.6c0.6,2,1.6,3.8,2.9,5.4C54.5,66.6,54.5,66.8,54.6,66.9z"/>
	<path class="st4" d="M61.9,63.6c-0.2,0.3-0.2,0.7-0.5,0.8c-0.4,0.2-0.5-0.2-0.6-0.5c-0.6-1.7-1.6-3.2-2.7-4.6
		c-0.3-0.4-0.6-0.8-0.5-1.3c0-0.2,0.1-0.8,0.5-0.6c0.3,0.1,0.7-0.3,0.8,0.2c0.4,2.2,2.3,3.7,2.9,5.8C61.8,63.4,61.9,63.5,61.9,63.6z
		"/>
	<path class="st1" d="M71.2,57.1c-1,0.2-1.7,0.2-1.8-0.9c-0.1-1-1.3-1.2-1.6-2.2c-0.2-0.6-0.6-1.3,0-1.7c0.9-0.6,1.2,0.5,1.5,0.9
		C70,54.4,70.5,55.7,71.2,57.1z"/>
	<path class="st4" d="M80.5,47.2c1.3,0.5,1.7,1.6,2.2,2.6c0.3,0.7,0.5,1.4,1.1,1.8c0.5,0.3,0.9,0.8,0.4,1.1
		c-0.4,0.3-1.3,0.3-1.6-0.3C81.9,50.8,80.6,49.3,80.5,47.2z"/>
	<path class="st5" d="M80,53.2c-0.1,0.1-0.2,0.4-0.4,0.4c-0.5,0-1.2,0.1-1.3-0.1c-0.9-1.5-1.7-3.1-2.6-4.7c-0.2-0.4,0-0.6,0.3-0.7
		c0.3-0.3,0.7,0,0.8,0.2c0.8,1.7,1.7,3.4,3.1,4.7C80,53.1,80,53.1,80,53.2z"/>
	<path class="st1" d="M66.2,53.3c0.1,0,0.1,0.1,0.3,0.4c0.6,1.3,1.1,2.7,2.3,3.6c0.3,0.2,0.3,0.9-0.1,1.2c-0.3,0.2-0.8,0.2-1-0.2
		c-0.9-1.4-1.9-2.8-2.2-4.5C65.4,53.6,65.5,53.3,66.2,53.3z"/>
	<path class="st1" d="M69.4,30.4c0.4-1.4,0.7-2.5,1-3.6c0.5,0.2,0-1.3,0.9-0.6c0.5,0.3,1,0.6,0.6,1.1c-0.6,1-0.7,2.1-1.1,3.1
		c-0.1,0.2-0.1,1.1-1,0.7C69.2,30.8,69.3,30.5,69.4,30.4z"/>
	<path class="st3" d="M67.2,28.9c0-1.3,1.3-2.2,1.2-3.5c0-0.1,0.5-0.2,0.8-0.2c0.6,0,0.5,0.4,0.5,0.8c0.1,1.2-1,2-1,3.2
		c0,0.2-0.7,0.6-1.3,0.5C66.6,29.7,68,29,67.2,28.9z"/>
	<path class="st4" d="M73.4,48.9c2.9,1,2.9,3.6,4.1,5.3c-0.4,0.4-1,0.4-1.1,0.2C75.4,52.7,74.5,51,73.4,48.9z"/>
	<path class="st4" d="M64.7,60.9c-1.7-1.4-2.7-3.3-3.3-5.4C63.3,56.7,64.3,58.6,64.7,60.9z"/>
	<path class="st4" d="M72,49.6c1.5,1.8,2.8,3.4,3.2,5.6C73.4,54.5,71.9,51.9,72,49.6z"/>
	<path class="st4" d="M59.9,65.3c-1.8-2.2-3-4.7-4.4-7.2c0.2-0.1,0.3-0.2,0.5-0.3c1.5,2.4,2.9,4.8,4.4,7.2
		C60.3,65.1,60.1,65.2,59.9,65.3z"/>
	<path class="st1" d="M62.7,54.8c1.1-0.9,1.6-0.5,1.9,0.5c0.6,1.7,1.9,3.1,2.1,5.1C64.9,58.9,64.7,56.3,62.7,54.8z"/>
	<path class="st6" d="M53.4,61.9c1.6,1.4,2,3.5,3.5,4.9c-0.5,0.4,0.6,1.1-0.2,1.4c-0.6,0.2-0.8-0.2-0.9-0.7
		C55.1,65.6,54.4,63.8,53.4,61.9z"/>
	<path class="st6" d="M40.6,42.3c1.4-1.8,3.4-2.5,5.8-2.4c-1.8,0.9-3.6,1.9-5.4,2.8C40.8,42.5,40.7,42.4,40.6,42.3z"/>
	<path class="st1" d="M50.5,64.9c2.1,1.2,2.2,3.6,3.3,5.4c0,0.1-0.1,0.4-0.2,0.4c-0.3,0.2-0.5-0.1-0.6-0.3
		C52.2,68.6,50.7,67,50.5,64.9L50.5,64.9z"/>
	<path class="st8" d="M86.6,78.8c1.1,0.6,1.2,1.4,1.4,2.1c0.3,0.7,0.1,1.5,1,2c0.5,0.3,0.7,1,0.4,1.6c-0.1,0.3-0.2,0.7-0.6,0.6
		c-0.6-0.2-0.9-0.9-0.9-1.3C87.9,82.2,87.2,80.7,86.6,78.8z"/>
	<path class="st4" d="M83.4,47.9c1.5,1.4,2.7,2.9,3.1,4.8C85.1,52.4,83.5,50.1,83.4,47.9z"/>
	<path class="st1" d="M67.2,23c1.7,2.1-1.2,3.2-0.8,4.9C64.9,25.9,66.7,24.6,67.2,23z"/>
	<path class="st1" d="M58.4,12.1c-0.6,0.7-0.1,1.8-0.7,2.6c-0.2,0.3,0.3,1.2-0.6,0.9c-0.7-0.2-1-1-0.7-1.3c0.6-0.8,0.5-1.8,0.8-2.6
		c0.1-0.4,0.3-0.7,0.7-0.7C58.4,11.1,58.2,11.6,58.4,12.1z"/>
	<path class="st4" d="M91.3,52.5c-2.2,0.2-2.5-1.4-3.2-2.5c-0.2-0.2-0.3-0.4,0.1-0.5c0.4-0.1,0.6-0.2,1,0.1
		C90.2,50.3,90.5,51.4,91.3,52.5z"/>
	<path class="st15" d="M119.4,82.1c0.7,2.2,0.3,4.6,0.6,7.2C117.9,86.8,119.9,84.3,119.4,82.1z"/>
	<path class="st9" d="M47,48c-0.7,1.6-2.8,2.7-4,2.1c-0.2-0.1-0.4-0.3-0.5-0.5c0-0.1,0.2-0.4,0.3-0.4C44.5,49.5,45.4,48,47,48z"/>
	<path class="st11" d="M41.7,48c1.7-1,3.8-1.1,5.4-2.1c0.1-0.1,0.4,0.2,0.5,0.3c0.2,0.4,0,0.5-0.4,0.7C45.6,47.8,43.7,47.9,41.7,48z
		"/>
	<path class="st10" d="M39.1,52c1.9-1.1,3.9-0.5,6.1-1.1C42.9,52.6,42.3,52.7,39.1,52z"/>
	<path class="st8" d="M62.8,61.9c-1.3-0.7-1.6-1.8-1.9-2.7c-0.3-1-1.2-1.6-1.4-2.6C60.9,56.8,61.9,58.5,62.8,61.9z"/>
	<path class="st9" d="M43.7,46c1-1.9,2.9-1.7,3.9-2.7c0.2-0.2,0.5-0.2,0.5,0.2c0,0.4,0.2,0.9-0.4,1.1C46.5,44.9,45.5,45.7,43.7,46z"
		/>
	<path class="st11" d="M105,70.7c-2.1-1.9-1.3-4.3-2.3-6C104,66.3,104.6,68.2,105,70.7z"/>
	<path class="st7" d="M73.3,27.2c0.3,1.5-0.2,2.8-0.6,4.2c-0.2,0.5-0.4,0.3-0.7,0.3c-0.3,0-0.3-0.3-0.3-0.6
		C71.7,29.7,72.5,28.5,73.3,27.2z"/>
	<path class="st9" d="M81.4,53.1c-1-1.6-2.2-3.1-2.9-5.6C80.3,49.4,80.9,51.2,81.4,53.1z"/>
	<path class="st9" d="M88.2,52.7c-1.3-1-1.7-2.4-2.6-3.4c0,0,0.2-0.4,0.4-0.5c0.3-0.2,0.5,0,0.6,0.3C87,50.2,88.1,50.9,88.2,52.7z"
		/>
	<path class="st11" d="M64.9,25.1c-0.1-0.1-0.1-0.3-0.2-0.4c-0.6-0.9-0.1-1.8,0.4-2.5c0.1-0.2,0.8-0.2,0.8-0.2
		c0.5,0.8-0.3,1.5-0.3,2.3C65.5,24.7,65.3,24.9,64.9,25.1z"/>
	<path class="st11" d="M75.1,29.7c-0.7,0.5,0.7,2.1-0.9,2.4c-0.5,0.1-0.9-0.3-0.6-0.6c0.7-0.7,0-2.2,1.4-2.4
		C75.4,29.1,75.4,29.3,75.1,29.7z"/>
	<path class="st1" d="M59.9,15.8c-0.3,0.3,0.6,1.2-0.5,1.2c-0.2,0-1,0.3-0.9-0.5c0.2-0.8,0.4-2.2,0.8-2.3
		C60.5,14,59.5,15.2,59.9,15.8z"/>
	<path class="st1" d="M76.9,29.3c0.3,1.5,0.3,2.6-0.5,3.7C75.5,31.6,75.9,30.6,76.9,29.3z"/>
	<path class="st1" d="M79.1,30.3c0,0.4,0,0.7-0.1,1c-0.1,0.5,0.4,1.3-0.5,1.6c-0.2,0-0.6-0.4-0.6-0.6c-0.1-0.7-0.4-1.6,0.7-1.8
		C78.7,30.4,78.9,30.4,79.1,30.3z"/>
	<path class="st53" d="M3.6,57.5c-1.6,0.2-2-1.1-2.6-2.1C2,56,3.3,56.1,3.6,57.5L3.6,57.5z"/>
	<path class="st54" d="M37.7,73.7c1,1.2,1.8,2.2,2.6,3.1C39.3,76,37.5,76,37.7,73.7z"/>
	<path class="st9" d="M105.3,67.3c1.1,0.7,1.7,1.6,1.2,3.1C106.1,69.2,105.7,68.2,105.3,67.3z"/>
	<path class="st55" d="M50.5,64.9c-0.1-0.1-0.2-0.1-0.3-0.2c-0.6-0.6-1.1-1.2-1.4-2c0.2,0,0.4-0.2,0.5-0.1
		C50,63.1,50.6,63.8,50.5,64.9C50.5,64.9,50.5,64.9,50.5,64.9z"/>
	<path class="st6" d="M63.3,19.8c0.8,0.5,1.4,0.7,1.3,1.4c0,0.2-0.6,0.5-0.8,0.4C63.2,21.1,63.8,20.5,63.3,19.8z"/>
	<path class="st7" d="M108,82.3c-1.5-3.7-2.4-7.6-3-11.6C106.7,74.4,107.2,78.4,108,82.3z"/>
	
		<animateTransform  accumulate="none" additive="replace" attributeName="transform" attributeType="HML" begin="0.1" calcMode="linear" dur="5.5s" fill="remove" repeatCount="indefinite" restart="always" type="translate" values="0,0;0,0; 0,-15;-15,-15;-15,-15;0, 0;">
		</animateTransform>
</g>
</svg>
