
<svg version="1.1" id="earth" xmlns="http://www.w3.org/2000/svg" xmlns:xlink="http://www.w3.org/1999/xlink" x="0px" y="0px"
	 viewBox="0 0 129.1 129.1" style="enable-background:new 0 0 129.1 129.1;" xml:space="preserve">
<style type="text/css">
	.st0{fill:#121824;}
	.st1{fill:#2A3161;}
	.st2{fill:#B5B6B7;}
	.st3{fill:#9FA3A9;}
	.st4{fill:#424B63;}
	.st5{fill:#707A8E;}
	.st6{fill:#525A73;}
	.st7{fill:#4F5576;}
	.st8{fill:#84889E;}
	.st9{fill:#1E2F4E;}
	.st10{fill:#81859C;}
	.st11{fill:#5A5F7E;}
	.st12{fill:#565C7B;}
	.st13{fill:#354156;}
	.st14{fill:#D1D2CE;}
	.st15{fill:#242F5D;}
	.st16{fill:#788077;}
	.st17{fill:#424B67;}
	.st18{fill:#B0B1B7;}
	.st19{fill:#4B526E;}
	.st20{fill:#34414C;}
	.st21{fill:#585C74;}
	.st22{fill:#5E6672;}
	.st23{fill:#A2A59F;}
	.st24{fill:#223557;}
	.st25{fill:#394160;}
	.st26{fill:#C6C8C6;}
	.st27{fill:#5B617F;}
	.st28{fill:#A2A6AE;}
	.st29{fill:#C4C3C6;}
	.st30{fill:#101A33;}
	.st31{fill:#3F3929;}
	.st32{fill:#171D2B;}
	.st33{fill:#455534;}
	.st34{fill:#CFCFCF;}
	.st35{fill:#858589;}
	.st36{fill:#55575A;}
	.st37{fill:#525458;}
	.st38{fill:#24324D;}
	.st39{fill:#151A26;}
	.st40{fill:#36393F;}
	.st41{fill:#919295;}
	.st42{fill:#2E323A;}
	.st43{fill:#56575C;}
	.st44{fill:#696B70;}
	.st45{fill:#363A3F;}
	.st46{fill:#96979A;}
	.st47{fill:#66676D;}
	.st48{fill:#929189;}
	.st49{fill:#5B5D62;}
	.st50{fill:#45474B;}
	.st51{fill:#212754;}
	.st52{fill:#313B52;}
	.st53{fill:#323B50;}
	.st54{fill:#262B57;}
	.st55{fill:#5F6369;}
	.st56{fill:#C4C3C5;}
	.st57{fill:#727681;}
	.st58{fill:#53586D;}
	.st59{fill:#606573;}
	.st60{fill:#525874;}
	.st61{fill:#9D9FA8;}
	.st62{fill:#4F5366;}
	.st63{fill:#6F7287;}
	.st64{fill:#979BA2;}
	.st65{fill:#808287;}
	.st66{fill:#585969;}
	.st67{fill:#1B2332;}
	.st68{fill:#161B25;}
	.st69{fill:#A7A9AB;}
	.st70{fill:#454B56;}
	.st71{fill:#474B5E;}
	.st72{fill:#555A61;}
	.st73{fill:#3A4354;}
	.st74{fill:#1D2943;}
	.st75{fill:#6C727B;}
	.st76{fill:#555D69;}
	.st77{fill:#353740;}
	.st78{fill:#7D8286;}
	.st79{fill:#192840;}
	.st80{fill:#D5D6D7;}
	.st81{fill:#474A4E;}
	.st82{fill:#192B4B;}
	.st83{fill:#252B5E;}
	.st84{fill:#293067;}
	.st85{fill:#858696;}
	.st86{fill:#92959F;}
	.st87{fill:#ADACB6;}
	.st88{fill:#737773;}
	.st89{fill:#989891;}
	.st90{fill:#7B7D7D;}
	.st91{fill:#B8BABA;}
	.st92{fill:#D4D8D9;}
	.st93{fill:#BDBDC0;}
	.st94{fill:#C8C7C9;}
	.st95{fill:#666B72;}
	.st96{fill:#3E455F;}
	.st97{fill:#57754A;}
	.st98{fill:#375D35;}
	.st99{fill:#859174;}
	.st100{fill:#9D8D5D;}
	.st101{fill:#CDCBC4;}
	.st102{fill:#C4C5C0;}
	.st103{fill:#C6CAC4;}
	.st104{fill:#546F42;}
	.st105{fill:#8D8D9E;}
	.st106{fill:#9EA0AC;}
	.st107{fill:#5B5F7D;}
	.st108{fill:#39426C;}
	.st109{fill:#293657;}
	.st110{fill:#273646;}
	.st111{fill:#63687B;}
	.st112{fill:#8B7B44;}
	.st113{fill:#767A66;}
	.st114{fill:#626782;}
	.st115{fill:#0E193D;}
	.st116{fill:#181E48;}
	.st117{fill:#6B6140;}
	.st118{fill:#1C2A3B;}
	.st119{fill:#3E3E2B;}
	.st120{fill:#40444B;}
	.st121{fill:#76787C;}
	.st122{fill:#87847E;}
	.st123{fill:#676257;}
	.st124{fill:#424551;}
	.st125{fill:#7A7D89;}
	.st126{fill:#5A4D2C;}
	.st127{fill:#6A6E3D;}
	.st128{fill:#8D7742;}
	.st129{fill:#8A6F36;}
	.st130{fill:#CFD1CF;}
	.st131{fill:#4C663A;}
	.st132{fill:#6A6442;}
	.st133{fill:#91866C;}
	.st134{fill:#6D6443;}
	.st135{fill:#1E2730;}
	.st136{fill:#565860;}
	.st137{fill:#38393A;}
	.st138{fill:#343842;}
	.st139{fill:#252B60;}
	.st140{fill:#212757;}
	.st141{fill:#282E60;}
	.st142{fill:#D1D0D3;}
	.st143{fill:#575C7D;}
	.st144{fill:#505579;}
	.st145{fill:#4E5277;}
	.st146{fill:#353964;}
	.st147{fill:#C6C6C9;}
	.st148{fill:#DBDBDD;}
	.st149{fill:#797D86;}
	.st150{fill:#B5B5B7;}
	.st151{fill:#F0EFF1;}
	.st152{fill:#C3C3C5;}
	.st153{fill:#9A9BA2;}
	.st154{fill:#8F9196;}
	.st155{fill:#53585E;}
	.st156{fill:#393F49;}
	.st157{fill:#464B54;}
	.st158{fill:#50545C;}
	.st159{fill:#C1C0C3;}
	.st160{fill:#787C82;}
	.st161{fill:#3F4650;}
	.st162{fill:#999B9D;}
	.st163{fill:#5D636B;}
	.st164{fill:#7B7C82;}
	.st165{fill:#969899;}
	.st166{fill:#8A8A8C;}
	.st167{fill:#808388;}
	.st168{fill:#616369;}
	.st169{fill:#7F7E73;}
	.st170{fill:#B9B9B5;}
	.st171{fill:#D0D0D1;}
	.st172{fill:#282F68;}
	.st173{fill:#A8A8B3;}
	.st174{fill:#656889;}
	.st175{fill:#C4C3C8;}
	.st176{fill:#333C5F;}
	.st177{fill:#C7C6C6;}
	.st178{fill:#434B6E;}
	.st179{fill:#2F3664;}
	.st180{fill:#868A98;}
	.st181{fill:#918D67;}
	.st182{fill:#AFA25C;}
	.st183{fill:#A8B19F;}
	.st184{fill:#CBCDCB;}
	.st185{fill:#616564;}
	.st186{fill:#50575D;}
	.st187{fill:#62646C;}
	.st188{fill:#40444D;}
	.st189{fill:#DBDBDC;}
	.st190{fill:#393D48;}
	.st191{fill:#D9DEDD;}
	.st192{fill:#6E7A5C;}
	.st193{fill:#3E6F39;}
	.st194{fill:#4F7549;}
	.st195{fill:#244038;}
	.st196{fill:#ADB2AB;}
	.st197{fill:#BDC2B5;}
	.st198{fill:#979888;}
	.st199{fill:#949260;}
	.st200{fill:#353D6E;}
	.st201{fill:#9597A3;}
	.st202{fill:#B3B5B9;}
	.st203{fill:#636F45;}
	.st204{fill:#A88D3D;}
	.st205{fill:#9C8C51;}
	.st206{fill:#7F773C;}
	.st207{fill:#6E6F41;}
	.st208{fill:#202654;}
	.st209{fill:#3B5B33;}
	.st210{fill:#2F4E2A;}
	.st211{fill:#627B46;}
	.st212{fill:#818C4C;}
	.st213{fill:#63667C;}
	.st214{fill:#435D35;}
	.st215{fill:#837844;}
	.st216{fill:#6C754F;}
	.st217{fill:#A9A997;}
	.st218{fill:#566746;}
	.st219{fill:#7F9156;}
	.st220{fill:#A5A4A4;}
	.st221{fill:#ABAAAD;}
	.st222{fill:#635B39;}
	.st223{fill:#9C8441;}
	.st224{fill:#495C33;}
	.st225{fill:#3B4F37;}
	.st226{fill:#49693D;}
	.st227{fill:#A58A46;}
	.st228{fill:#A9AAAB;}
	.st229{fill:#BCBEC1;}
	.st230{fill:#63656C;}
	.st231{fill:#363E49;}
	.st232{fill:#353B67;}
	.st233{fill:#888C9F;}
	.st234{fill:#6D6F89;}
	.st235{fill:#3F4470;}
	.st236{fill:#2D3461;}
	.st237{fill:#4C5076;}
	.st238{fill:#343966;}
	.st239{fill:#8B8D9F;}
	.st240{fill:#3A4065;}
	.st241{fill:#393E65;}
	.st242{fill:#1E234F;}
	.st243{fill:#7A7E91;}
	.st244{fill:#303660;}
	.st245{fill:#A8AAB0;}
	.st246{fill:#6B6D84;}
	.st247{fill:#343A51;}
	.st248{fill:#D4D5D6;}
	.st249{fill:#575B67;}
	.st250{fill:#80818A;}
	.st251{fill:#DADBDC;}
	.st252{fill:#96989B;}
	.st253{fill:#454E56;}
	.st254{fill:#59634F;}
	.st255{fill:#5F6167;}
	.st256{fill:#95969B;}
	.st257{fill:#403E3C;}
	.st258{fill:#60636B;}
	.st259{fill:#A9A89D;}
	.st260{fill:#B1B2AF;}
	.st261{fill:#E0E1E1;}
	.st262{fill:#323D68;}
	.st263{fill:#313A6F;}
	.st264{fill:#BDBEC3;}
	.st265{fill:#9B9A8D;}
	.st266{fill:#555880;}
	.st267{fill:#ABAAB1;}
	.st268{fill:#A0A1AA;}
	.st269{fill:#464C72;}
	.st270{fill:#9495A7;}
	.st271{fill:#7E829A;}
	.st272{fill:#525680;}
	.st273{fill:#838599;}
	.st274{fill:#797C9A;}
	.st275{fill:#9799AB;}
	.st276{fill:#6D7093;}
	.st277{fill:#A39D76;}
	.st278{fill:#D7D7D7;}
	.st279{fill:#808292;}
	.st280{fill:#9E9FAA;}
	.st281{fill:#C1B75A;}
	.st282{fill:#4D537C;}
	.st283{fill:#4B507B;}
	.st284{fill:#DCDDDE;}
	.st285{fill:#494F71;}
	.st286{fill:#B7B7B8;}
	.st287{fill:#BCBDC8;}
	.st288{fill:#516A4B;}
	.st289{fill:#2A4037;}
	.st290{fill:#273839;}
	.st291{fill:#C7C7C8;}
	.st292{fill:#C9CACB;}
	.st293{fill:#63646C;}
	.st294{fill:#425B3D;}
	.st295{fill:#9D975E;}
	.st296{fill:#899784;}
	.st297{fill:#B8A055;}
	.st298{fill:#90984F;}
	.st299{fill:#5E8749;}
	.st300{fill:#4C7349;}
	.st301{fill:#818D5B;}
	.st302{fill:#2A3566;}
	.st303{fill:#578744;}
	.st304{fill:#5C6138;}
	.st305{fill:#2F3B58;}
	.st306{fill:#DFCD49;}
	.st307{fill:#B59E4C;}
	.st308{fill:#394A2C;}
	.st309{fill:#646846;}
	.st310{fill:#2A3369;}
	.st311{fill:#222A5B;}
	.st312{fill:#343F46;}
	.st313{fill:#A5A6AB;}
	.st314{fill:#1C2C49;}
	.st315{fill:#263643;}
	.st316{fill:#5F794A;}
	.st317{fill:#415530;}
	.st318{fill:#426035;}
	.st319{fill:#637B43;}
	.st320{fill:#838C49;}
	.st321{fill:#697E47;}
	.st322{fill:#858E55;}
	.st323{fill:#587644;}
	.st324{fill:#9E9D8B;}
	.st325{fill:#A4944C;}
	.st326{fill:#586F41;}
	.st327{fill:#927436;}
	.st328{fill:#A9944F;}
	.st329{fill:#978964;}
	.st330{fill:#BBA861;}
	.st331{fill:#5F7841;}
	.st332{fill:#7E6A40;}
	.st333{fill:#475836;}
	.st334{fill:#A69976;}
	.st335{fill:#9C966A;}
	.st336{fill:#6D5E34;}
	.st337{fill:#303741;}
	.st338{fill:#6C8758;}
	.st339{fill:#8A854F;}
	.st340{fill:#788157;}
	.st341{fill:#CED0D7;}
	.st342{fill:#B5B8C2;}
	.st343{fill:#D1D3D5;}
	.st344{fill:#222D43;}
	.st345{fill:#192248;}
	.st346{fill:#2A3252;}
	.st347{fill:#9999A6;}
	.st348{fill:#62626A;}
	.st349{fill:#383E5B;}
	.st350{fill:#3A4162;}
	.st351{fill:#C3C2C6;}
	.st352{fill:#9697A1;}
	.st353{fill:#BDBDC3;}
	.st354{fill:#ABA8A6;}
	.st355{fill:#9C9B9D;}
	.st356{fill:#6B6B7C;}
	.st357{fill:#989AA1;}
	.st358{fill:#636678;}
	.st359{fill:#9C9DA7;}
	.st360{fill:#E5E6E8;}
	.st361{fill:#9C9DA1;}
	.st362{fill:#A69F88;}
	.st363{fill:#B4AB95;}
	.st364{fill:#74777C;}
	.st365{fill:#999AA0;}
	.st366{fill:#94959C;}
	.st367{fill:#526247;}
	.st368{fill:#586539;}
	.st369{fill:#848693;}
	.st370{fill:#9EA1AE;}
	.st371{fill:#D5D6DA;}
	.st372{fill:#797F57;}
	.st373{fill:#747A94;}
	.st374{fill:#C8C7C8;}
	.st375{fill:#97998B;}
	.st376{fill:#B0B3C0;}
	.st377{fill:#7E8196;}
	.st378{fill:#575A82;}
	.st379{fill:#C1C3D3;}
	.st380{fill:#505A6D;}
	.st381{fill:#88886A;}
	.st382{fill:#D2D2D0;}
	.st383{fill:#B2B5AE;}
	.st384{fill:#E5E5EA;}
	.st385{fill:#758257;}
	.st386{fill:#9CA291;}
	.st387{fill:#B6B6B2;}
	.st388{fill:#E2E3E1;}
	.st389{fill:#5F7150;}
	.st390{fill:#31396E;}
	.st391{fill:#A29B6D;}
	.st392{fill:#9F9F81;}
	.st393{fill:#64724C;}
	.st394{fill:#A5A8AF;}
	.st395{fill:#6E8067;}
	.st396{fill:#887A39;}
	.st397{fill:#D1BE55;}
	.st398{fill:#708662;}
	.st399{fill:#2D3F4E;}
	.st400{fill:#3E604D;}
	.st401{fill:#24315D;}
	.st402{fill:#3E583B;}
	.st403{fill:#8D8FA7;}
	.st404{fill:#505877;}
	.st405{fill:#3B4C5D;}
	.st406{fill:#40496E;}
	.st407{fill:#718551;}
	.st408{fill:#BCBCC1;}
	.st409{fill:#647D61;}
	.st410{fill:#97A196;}
	.st411{fill:#BFC2BF;}
	.st412{fill:#2D3166;}
	.st413{fill:#222856;}
	.st414{fill:#3A594F;}
	.st415{fill:#6C8245;}
	.st416{fill:#5E7743;}
	.st417{fill:#9C937A;}
	.st418{fill:#647B42;}
	.st419{fill:#B2B4A7;}
	.st420{fill:#909770;}
	.st421{fill:#818A52;}
	.st422{fill:#96A18A;}
	.st423{fill:#B0B3A8;}
	.st424{fill:#7F8C65;}
	.st425{fill:#898160;}
	.st426{fill:#605131;}
	.st427{fill:#C7B04A;}
	.st428{fill:#5F6179;}
	.st429{fill:#9B8B42;}
	.st430{fill:#BABCC2;}
	.st431{fill:#6C6F82;}
	.st432{fill:#B3AC98;}
	.st433{fill:#C8CECB;}
	.st434{fill:#4F5D51;}
	.st435{fill:#66745C;}
	.st436{fill:#E3E3E3;}
	.st437{fill:#70784E;}
	.st438{fill:#C7CACC;}
	.st439{fill:#687668;}
	.st440{fill:#55837F;}
	.st441{fill:#919990;}
	.st442{fill:#BDBFC2;}
</style>
<g>
	<path class="st0" d="M129,53c0,8.3,0,16.7,0,25c-1.8,13.8-8.2,25.2-18.4,34.6c-1.3,1.2-2.6,2.6-4.3,3.2c-2,0.4-3.5,1.7-5.2,2.8
		c-1.6,1-3.1,2.7-5.3,1.5c-1.3-2.4,0.3-3.5,2-4.7c1.2-1.3,2.2-2.7,2.9-4.3c0-1.3-1.4-1.5-1.8-2.4c-0.1-1.8-1.5-1.4-2.6-1.4
		c-0.4-0.2-0.7-0.5-0.9-0.9c-0.5-0.9-1.3-1.7-1.9-2.6c-0.8-1.2-1.2-2.5-1.1-4c0.4-3.1,1.9-5.4,5-6.4c1.2-0.5,2.4-1.1,3.3-2.1
		c1-0.9,2-1.8,3.4-1.9c1.5,0.2,3-0.2,4.5-0.5c0.9-0.1,1.8,0,2.6,0.5c1.1,0.8,1.2,2.2,2.2,3.1c2.3,0.3,2.6-0.8,1.9-2.6
		c-0.5-1.3-1.7-2-2.4-3.1c0.3-5.6-1.5-11.5,2.5-16.6c0.9-1.2,1.2-2.8,0.9-4.3c-0.5-3.2,1-5.4,3.5-7.1c1.8-0.8,3.4-1.8,3.9-3.9
		c0.2-1.1-0.2-2.1-0.5-3.1c-1.2-3.5,0.4-5.3,3.6-6.1C129.6,47.5,127.6,50.8,129,53z"/>
	<path class="st1" d="M1,56c2.8-3.9,1.3-9.1,4.1-12.9c3.5,1.2,0.5,4.8,2.3,6.6c0.2,1,0.2,2.2,1.7,1.1c2,1.3,2.3,3.2,2.3,5.3
		c-0.2,1.2-0.9,2-2,2.3c-1.3,0-2.3,0.5-3.3,1.3c-0.7,0.5-1.5,0.9-2.4,1C2.4,60.9,1.7,60,1,59C1,58,1,57,1,56z"/>
	<path class="st2" d="M70,1c0.7,0,1.3,0,2,0c1.4,1.8,3.4,0.5,5,0.9L77,2c0.4,0.9,2.6,0.2,1.9,2.1c-1.2,1.2-2.9,1.2-4.3,1.8
		c-1.7,0.5-3.4,0.6-5.2,0.6C67.7,5.9,66,5.3,64.8,4c-0.1-0.5,0-0.9,0.3-1.3C66.5,1.5,68.7,2.7,70,1z"/>
	<path class="st3" d="M70,1c-0.7,3.1-3.3,1.5-5,2c-1.2,2.5-3,3.5-5.7,2.6c-1.2-0.6-2-1.5-2.6-2.8c0.1-0.9,0.6-1.3,1.5-1.3
		C60.1,1.2,62.2,2.1,64,1C66,1,68,1,70,1z"/>
	<path class="st4" d="M52,129c-0.7-0.4-1.3-0.8-2-1.1c-0.2-0.2-0.3-0.5-0.3-0.7c0-0.3,0.1-0.4,0.1-0.4c0.6-0.6,1.3-1,2.2-1.2
		c0.4,0,0.8,0,1.2,0.1c1.1,0.6,2.1,1.2,3.4,1.2c0.9,0.1,1.7,0.3,2.4,0.9c0.3,0.4,0.2,0.8-0.1,1.2C56.7,129,54.3,129,52,129z"/>
	<path class="st5" d="M59,129c0-0.3,0-0.6-0.1-0.9c3.4-2.6,7-1.7,10.6-0.7c0.6,0.4,0.8,0.9,0.4,1.6C66.3,129,62.7,129,59,129z"/>
	<path class="st6" d="M1.8,74l-0.4,0.2L1,74c0-1,0-2,0-3c0.5-0.6,0.8-1.4,1.7-1.5c0.9,0,1.6,0.3,2,1.2C4.9,72.8,5.1,75,1.8,74z"/>
	<path class="st7" d="M2.1,69.9C1.7,70.3,1.4,70.6,1,71c0-3.3,0-6.7,0-10c1-0.3,1.4,0.3,1.8,1.1c0.2,0.5,0.3,1,0.4,1.6
		C3.3,65.8,3.7,68,2.1,69.9z"/>
	<path class="st8" d="M77,1.9c-1.9,0.9-3.9,2.5-5-0.9c1.7,0,3.3,0,5,0C76.9,1.3,77,1.6,77,1.9z"/>
	<path class="st9" d="M70,129c0-0.3,0-0.6,0.1-0.8c2-2,4.2-1.6,6.5-0.7c0.5,0.4,0.7,0.9,0.3,1.5C74.7,129,72.3,129,70,129z"/>
	<path class="st10" d="M58.1,1.9c-0.4,0.3-0.8,0.6-1.2,1c-0.8,1-1.8,1-2.8,0.5c-0.4-0.4-0.5-0.9-0.1-1.4c0.2-0.3,0.2-0.6,0-0.9
		c1.3,0,2.7,0,4,0c0.3,0.2,0.4,0.3,0.3,0.5C58.3,1.8,58.2,1.9,58.1,1.9z"/>
	<path class="st11" d="M2.1,62.1C1.7,61.7,1.4,61.4,1,61c0-0.7,0-1.3,0-2c1,0.4,2.1,0.8,3.1,1.1C4.7,62.1,4,62.7,2.1,62.1z"/>
	<path class="st12" d="M58.1,1.9C58.1,1.6,58,1.3,58,1c2,0,4,0,6,0C62.3,2.8,60.1,1.8,58.1,1.9z"/>
	<path class="st13" d="M77,129c0-0.3,0-0.5,0-0.8c0.6-0.7,1.3-0.8,2.1-0.2c0,0.4,0,0.7,0,1.1C78.3,129,77.7,129,77,129z"/>
	<path class="st14" d="M39,7.8c1-0.6,2-1.2,3-1.8c0.7,0.7,1.6,1.1,2.7,0.8c1.7-0.7,3.5-1,5.4-1c1,0,1.9,0,2.9,0.1
		c0.7,0.1,1.4,0.3,2,0.8c0.6,1.2-0.2,1.6-1,2.1C53,9.2,52,9.2,51.3,10c-0.5,1,0.4,1.8,0.5,2.7c0.1,1.3-0.2,2.3-1.4,2.9
		c-0.7,0.2-1.4,0.2-2.1-0.1c-0.9-0.7-1.2-2.5-3-1.7c-1.4,0.4-2.5,1.7-4.1,1.5c-0.8-0.4-1.3-1.1-1.8-1.8c-0.7-0.9-1.5-1.6-1.7-2.7
		C37.5,9.5,38.3,8.7,39,7.8z"/>
	<path class="st15" d="M8,36.9c-0.1-0.3,0-0.6,0.3-0.8c1.8-0.9,2.4-3.3,4.6-3.6c1.8,1.3,1.8-2.5,3.6-1.3c1.5,1.6,1.8,3.5,1.5,5.6
		c-0.1,0.5-0.3,1-0.6,1.4c-0.4,0.3-0.8,0.5-1.3,0.5c-1.4-1.4-1.6-1.4-2.7,0.2c-1.1,0.5-2.3,0.8-3.5,0.8C8.5,39,7.3,38.6,8,36.9z"/>
	<path class="st16" d="M49.6,6.8c-1.9,0.4-3.8,0.9-5.7,1.3c-2.4-0.9,0-2.2-0.3-3.2c1.1-0.5,2.2-1,3.3-1.5c0.8,0.2,1.7,0,2.4,0.7
		C49.9,4.9,50.9,5.8,49.6,6.8z"/>
	<path class="st17" d="M6.7,50c-3.4-1.7,1-5.1-1.5-6.9c0.3-0.7,0.6-1.4,0.9-2.1c0.9-0.8,1.8-0.9,2.9-0.4c0.6,0.6,0.7,1.3,0.6,2.1
		c-1.4,1.8-1.1,4-0.9,6.1C8.3,49.6,8.1,50.8,6.7,50z"/>
	<path class="st18" d="M18,23c0.9-2.2,1.6-4.7,4.9-4.3c0.2,0.2,0.3,0.4,0.5,0.6c0.2,2-0.1,4-1.8,5.3c-0.9,0.5-1.8,0.8-2.9,0.7
		C17.5,24.8,17.2,24.1,18,23z"/>
	<path class="st19" d="M15.7,31.1c-1,0.5-0.3,3.5-2.7,1.9c-0.7-0.5-2,0-2.4-1.1c0.8-1.3,1.6-2.5,2.5-3.8c1.7-0.5,2.5,0.6,3.2,1.9
		C16.4,30.4,16.2,30.8,15.7,31.1z"/>
	<path class="st20" d="M23.9,18c0.4-0.3,0.7-0.7,1.1-1c2.3-0.1,3.4-3.6,6.2-2.1c0.8,1.2,0.3,2.3-0.4,3.4c-0.7,1-1.4,2-2.7,2.2
		c-1.5-0.1-2.9-0.3-4.2-1.1C23.6,18.8,23.6,18.4,23.9,18z"/>
	<path class="st21" d="M16,30c-1-0.7-2-1.3-3-2c0-1.3,1.1-1,1.8-1.2c0.7-0.3,1.4-0.5,2.2-0.5c1.4,0.4,2.1,1.4,2.4,2.7
		c0,0.5-0.2,1-0.6,1.3C17.8,30.9,16.9,30.8,16,30z"/>
	<path class="st22" d="M31,14.9c-2.5-0.8-2.9,4.7-6.1,2.1c1-1.3,2.1-2.7,3.1-4c1.1-0.3,2,0,2.9,0.7C31.3,14.1,31.3,14.5,31,14.9z"/>
	<path class="st23" d="M34,10.1c0.4-0.2,0.7-0.4,1.1-0.5c0.7,0.4,1.2,0.9,1.4,1.6c0.1,1.6-0.3,2.9-1.5,4c-1.9,0.8-2.8-0.2-3.4-1.8
		C31.2,11.5,32.7,10.9,34,10.1z"/>
	<path class="st24" d="M34,10.1c-0.6,1-1.3,1.9-1.9,2.9c-0.3,0.4-0.4,1-1,1.2c-1-0.4-1.9-0.7-2.9-1.1C29.8,11.4,31.4,9.9,34,10.1z"
		/>
	<path class="st25" d="M10.6,31.8c0.8,0.4,1.6,0.8,2.4,1.1c-1.8,0.7-2.2,3.6-4.8,3.1C9,34.6,9.8,33.2,10.6,31.8z"/>
	<path class="st25" d="M9,41c-1,0-1.9,0-2.9,0c0.2-1.6,0.8-2.9,1.9-4.1c0.4,1,1.1,1.7,2.1,2.1c0.2,0.3,0.3,0.7,0.2,1
		C9.9,40.5,9.6,40.9,9,41z"/>
	<path class="st26" d="M36.3,11c-0.4-0.5-0.8-1-1.2-1.5c1.2-0.9,2.4-1.6,3.9-1.7c-0.3,1-0.6,2.1-0.9,3.1c0.2,0.5,0.1,1-0.4,1.1
		C36.9,12.2,36.4,11.7,36.3,11z"/>
	<path class="st27" d="M49.4,4.2c-0.8-0.3-1.6-0.6-2.4-0.9c2.3-0.6,4.5-1.6,7-1.4c0,0.4,0,0.7,0,1.1c-0.2,0.4-0.6,0.6-0.9,0.8
		C51.9,4.2,50.7,4.9,49.4,4.2z"/>
	<path class="st28" d="M17,27c-0.7-0.1-1.4-0.1-2.1-0.2c0.7-1.5,1.3-3.2,3.1-3.8c0,0.8,0.1,1.5,0.9,1.9C19.6,26.9,17.6,26.3,17,27z"
		/>
	<path class="st26" d="M43.7,4.9c0.9,1-1.2,2.3,0.3,3.2C41.1,9.4,42.4,7,42,6C42.6,5.6,43.1,5.3,43.7,4.9z"/>
	<path class="st29" d="M23.9,18c0,0.3,0.1,0.7,0.1,1c-0.3,0.3-0.6,0.4-0.9,0.1c0,0-0.2-0.4-0.2-0.4C23.2,18.5,23.6,18.2,23.9,18z"/>
	<path class="st30" d="M120,59.1c-3.1,2.6-1.5,6.9-3,9.4c-3.4,5.9-2.5,12.2-3.9,18.2c-0.1,0.2-0.2,0.4-0.3,0.6c-1.2,0.5-2.1,0-3-0.6
		c-0.7-0.5-1.5-0.9-2.2-1.4c-0.9-0.7-1.7-1.5-2-2.6c-0.3-2.3,1.5-3.6,2.4-5.2c1.1-2,2-3.9,0.1-5.9c-0.4-0.6-0.8-1.2-1-1.9
		c-0.3-1.2-0.3-2.4-0.3-3.6c0.3-4.6,0.1-9.1,1.8-13.6c1.3-3.5,1.3-7.5-0.9-11.1c-0.5-0.8-1.1-1.9-1-2.8c0.8-6.1-2.8-8.7-7.7-10.4
		c-0.7-0.7-0.9-1.6-1.2-2.5c-0.4-1.6-2-2.7-2.2-4.4c0.1-2,1.4-2.3,3.1-2.2c3.9,4.2,9.8,5.4,13.7,9.5c0.2,0.2,0.5,0.5,0.7,0.7
		c1,1.2,1.2,2.6,1.1,4c-1.5,3.4,1.4,5.2,2.7,7.5c0.8,0.8,1.9,1.1,2.6,2c0.5,1.2,0.1,2.2-0.5,3.3c-1.3,3.7-2.4,7.3,0.5,10.8
		C119.7,57.7,120,58.3,120,59.1z"/>
	<path class="st31" d="M119,30c3.8,4.5,6.4,9.6,7.1,15.5c-1.4,1.9-3.4,3.6-2.1,6.5c-0.8,1.3-1.8,1.6-2.6,0.1
		c-0.9-1.6-1.7-3.2-1.9-5.1c0.3-1.9,0.8-3.7,0.3-5.7c0-2.8-1.9-5.1-2.5-7.7c-0.4-0.9-0.7-1.7-0.6-2.7C117.3,30.1,117.9,29.4,119,30z
		"/>
	<path class="st32" d="M120,47.1c2.4,0.8,0.4,5.2,4,5c0.3,1,0.6,2,1,3c-2.3,0.4-4,2-6,3c-4.6-3.6-2.7-7.8-1.1-12
		C119.1,45.4,119.6,46.1,120,47.1z"/>
	<path class="st33" d="M97.9,94.3c-3.2,0.6-4.1,3.3-5.1,5.8c-0.4,0.2-0.9,0.4-1.4,0.3c-2.3-0.4-4.8-0.3-6.6-2.1
		c-0.9-1.4-0.3-2.8,0.1-4.2c0.2-0.5,0.4-0.9,0.6-1.3c0.5-0.6,1-1,1.7-1.1c3,2,6.6,0.7,9.8,1.6C97.5,93.5,97.8,93.8,97.9,94.3z"/>
	<path class="st34" d="M106,82.9c0.7,0.7,1.4,1.4,2.1,2.1c0.5,1.4-2.1,2-0.8,3.5c-0.6,1.6-2.1,1.4-3.3,1.8c-0.9,0.7-1.8,1.4-2.8,2.1
		c-1.3,0.1-1.9-0.8-2.2-1.9c-0.2-1-0.2-2,0.1-3c0.3-0.9,1-1.6,1.7-2.2c1.5-0.9,1.8-3,3.6-3.6C105.3,81.7,105.5,82.5,106,82.9z"/>
	<path class="st35" d="M96.2,105.9c0.1,0.3,0.2,0.6,0.3,0.9c0.2,0.4,0.2,0.8,0.1,1.3c-0.1,0.6-0.3,1.3-0.5,1.9
		c-0.4,1.6-0.7,3.1-2,4.2c-2.8,0.3-3.3-2.1-4.4-3.8c-0.2-0.4-0.2-0.9-0.2-1.4c0.3-1.4,0.6-2.8,2.1-3.4
		C93.2,105.5,94.7,104.9,96.2,105.9z"/>
	<path class="st36" d="M119,58c1.2-2.6,2.5-5,6-3c-1.6,1.4-0.9,5.6-5,4C119.7,58.7,119.3,58.4,119,58z"/>
	<path class="st37" d="M102.2,111c-1.1,1.7-2.1,3.4-3.2,5c-1.6,0.7-3,0.9-3.5-1.3c0.3-1.3,2.5-2.2,0.6-3.9c0,0,0.6-0.6,1.1-0.9
		C98.9,109.9,101,108.1,102.2,111z"/>
	<path class="st38" d="M106.1,115c-4.2,3.5-8.1,7.6-14.1,7.9c-0.4-1.4,0.8-1.7,1.6-2.4c0.7-0.4,1.5-0.7,2.4-0.6
		C100,119.6,101.8,114.7,106.1,115z"/>
	<path class="st39" d="M96,120c-0.4,0.8-1.2,1-2,1c-0.7-1-1.3-2.1-2.6-2.5c-1.1-0.9-4.6-1.2-0.9-3.5c1.4-0.6,3.3,0.2,4.4-1.4
		c0.5-0.1,0.9,0,1.3,0.3c-0.1,2.2,1.5,1.9,2.8,2C97.8,117.2,95.4,117.4,96,120z"/>
	<path class="st40" d="M113,86.7c2.8,0.9,4.3,2.9,3.5,5.6c-0.4,1.5-2.2,3.5-4.6,1.7c0.3-0.6,0.6-1.2,1-1.7c0.4-0.6,3.6-1,0.2-1.9
		c-0.6-1.1-1.1-2.1-0.2-3.3L113,86.7z"/>
	<path class="st41" d="M113,87.1c0.3,0.9,0.6,1.8,0.9,2.7c-0.9,1.1-1.9,1-3,0.4c-0.9-0.1-1.9-0.2-2.8-0.2c-0.6-0.5-0.6-1.1-0.4-1.8
		c0.4-1.2,1.2-1.9,2.4-2C111,86.4,112,86.8,113,87.1z"/>
	<path class="st42" d="M102.2,111c-1.6-2.2-3.5,0.2-5.2-0.2c-0.7-0.5-1.2-1.2-1.7-1.8c0.2-0.3,0.4-0.7,0.6-1
		c1.1-0.7,2.1-0.9,3.1,0.1C99.1,110,103.6,107.4,102.2,111z"/>
	<path class="st43" d="M110.9,90.2c1-0.1,2-0.3,3-0.4c3,3-0.9,2.9-1.8,4.1C111.6,92.7,111.2,91.5,110.9,90.2z"/>
	<path class="st44" d="M96.2,105.9c-1.4-0.4-2.9,2.1-4.3,0c-0.5-0.7-0.4-1.4,0.1-2.1c0.8-0.4,1.5-0.3,2.1,0.2
		C95.5,103.9,96.2,104.5,96.2,105.9z"/>
	<path class="st45" d="M99,108c-1,0-2.1,0-3.1-0.1c0.2-0.4,0.4-0.8,0.6-1.2c1-0.6,1.7-2.3,3.1-1.1C100.4,106.4,99.9,107.4,99,108z"
		/>
	<path class="st46" d="M94.2,104c-0.6,0-1.2,0-1.9,0.1c-3.4-1-1.5-2.5-0.4-4c0.3,0,0.6,0,0.9,0C93.2,101.4,93.7,102.7,94.2,104z"/>
	<path class="st47" d="M108.1,88.1c0,0.6-0.1,1.2-0.1,1.9c-1.3,0.5-2.5,1.8-4,0.4c0-1.9,2.6-0.7,2.9-2.3
		C107.4,87.8,107.7,87.8,108.1,88.1z"/>
	<path class="st48" d="M99.9,89.9c0,1.1,0.4,1.9,1.4,2.5c-0.7,1.3-2.1,1.4-3.3,1.8c-0.3-0.1-0.7-0.3-1-0.4c-0.2-0.4-0.2-0.8,0-1.2
		c0.6-0.9,1.1-1.8,1.8-2.7C99.1,89.7,99.5,89.7,99.9,89.9z"/>
	<path class="st49" d="M124.8,66.9c-0.2,0.2-0.5,0.7-0.8,0.8c-0.9,0.1-0.9-0.7-0.8-1.3c0.1-0.4,0.5-0.9,0.8-0.9
		C124.8,65.3,124.8,66,124.8,66.9z"/>
	<path class="st50" d="M121.4,78.9c0.5,0.3,1.1,0.5,1.2,0.8c0.2,0.8-0.5,1.1-1.2,1c-0.3,0-0.9-0.5-0.9-0.8
		C120.5,79.6,121.1,79.3,121.4,78.9z"/>
	<path class="st51" d="M5.2,87.9C4.5,85.2,3.8,82.6,3,80c0.7-0.8,1.6-1,2.5-1.1C6,79,6.5,79,6.9,79.2c1.4,0.5,2.5,1.6,3.9,2.2
		c1.5,1.3,1.5-1.9,2.9-0.9c0.6,0.2,1.2,0.5,1.7,0.9c0.8,0.7,1.6,1.5,2.4,2.3c1.2,1.3,2.7,2.4,2.8,4.3c-0.1,0.7-0.4,1.2-0.9,1.7
		c-0.9,2.2-1.8,4.5-5,3.6c-0.9,0-1.8-0.1-2.7-0.1c-0.7-0.1-1.4-0.3-2-0.6c-1.1-0.8-2-1.9-2.7-3.1c-0.6-1.1-0.3-2.5-1-3.6
		C6.4,86.7,7.1,87.9,5.2,87.9z"/>
	<path class="st52" d="M15,105.3c-3.4-3.9-5.7-8.5-7.9-13.2c1.2-1.2,2.1-0.2,3,0.5c2,1.7,3.9,3.5,6.2,4.9c1.9,1.5,3.6,3.4,5.3,5.1
		c0.9,1,1.9,2,2,3.5c-0.1,1-0.6,1.7-1.5,2.2c-1.3,0.4-1.7-2.3-3.3-0.9C17.4,106.9,16.8,104.9,15,105.3z"/>
	<path class="st53" d="M21.8,108.3c0.4-0.8,0.8-1.6,1.2-2.4c0.2-0.1,0.4-0.2,0.6-0.3c0.2,0,0.4,0,0.6,0.1c1.4,0.5,2.7,1.2,4,1.9
		c0.6,0.4,1,0.8,1.5,1.3c1.2,1.5,1.7,3.6,3.7,4.4c0.4,0.3,0.7,0.6,0.9,1c0.6,3.7-1.7,4-4.5,3.9c-1.6,0-1.4-2-2.7-2.3
		c-1-1.5-2.5-2.3-4.2-2.8c-1-1-1.9-2-2.9-3C20.3,109,20.9,108.5,21.8,108.3z"/>
	<path class="st54" d="M7,80c-0.4,0-0.8,0-1.2-0.1c-1.6-1-2.9-2.2-3.7-4C2,75.3,1.9,74.7,1.8,74c2.8-0.2,2.1-2.2,2.1-3.9
		c-1.4-2.3-0.9-4.3,0.7-6.2C5,63.5,5.5,63.3,6,63.1c2.8-0.3,4.1,1,3.6,3.7c-0.6,3.2,0,6.5-0.5,9.7C8.8,78,8.2,79.2,7,80z"/>
	<path class="st55" d="M29.9,118.1c1.9-0.8,3.9-1.5,4.1-4c0.4-0.3,0.8-0.4,1.2-0.2c0.5,0.5,0.8,1.1,0.9,1.7c0.2,0.9,0.5,1.8,0.1,2.6
		c-1.2,1.5-2.8,1.1-4.4,0.9C31.2,118.8,30.5,118.5,29.9,118.1z"/>
	<path class="st56" d="M44.2,125.3c-1-0.3-2.1-0.2-2.8-1.2c-1,0-1.9-0.3-2.6-1c-0.3-1.1,0.3-1.8,1.1-2.4c0.9-0.4,1.8-0.2,2.6,0.3
		c1,0.8,2.5,1.2,2.8,2.7c-0.1,0.5-0.3,0.9-0.5,1.2C44.6,125,44.4,125.1,44.2,125.3z"/>
	<path class="st57" d="M21.8,108.3c-0.4,0.8-0.7,1.6-1.7,1.7c-1.1-0.3-1.7-1-2.1-2c-0.2-1,0.1-1.4,1.1-1.2
		C20.8,105.9,21,107.6,21.8,108.3z"/>
	<path class="st58" d="M50,127.2c0,0.2,0,0.5,0,0.7c-2.2-0.4-4.8,0.2-5.8-2.6c0,0,0,0,0,0C46.9,123.6,48.7,124.7,50,127.2z"/>
	<path class="st59" d="M19.1,106.9c-0.4,0.4-0.7,0.8-1.1,1.2c-1.7-0.2-2.5-1.3-3-2.8C16.1,103.4,16.1,103.4,19.1,106.9z"/>
	<path class="st60" d="M2.1,76c1.7,0.8,3.2,1.9,3.7,4C4.9,80,4,80,3,80C2.2,78.8,1.9,77.5,2.1,76z"/>
	<path class="st61" d="M9.9,93.2c-0.8-0.7-1.6-1.4-2.8-1.1c-0.4-0.7-0.7-1.4-1.1-2c0.5-0.6,0.8-1.5,1.9-0.9c0.9,0.8,2.6,0.9,2.2,2.7
		C10.4,92.4,10.4,92.8,9.9,93.2z"/>
	<path class="st62" d="M39.2,122.7c0.7,0.4,1.4,0.9,2.2,1.3c-2.2,1.5-3.6-0.5-5.4-1.2c-0.3-0.4-0.3-0.8,0.1-1.2
		C37.5,121.1,38.4,121.7,39.2,122.7z"/>
	<path class="st63" d="M7.8,89.1C7.2,89.4,6.6,89.7,6,90c-0.3-0.7-0.5-1.4-0.8-2.2c1-0.2,0.4-2.3,1.6-1.7
		C7.5,86.5,8.1,87.9,7.8,89.1z"/>
	<path class="st64" d="M23,113c2.1-0.2,4.3-0.3,4.2,2.8C25.3,115.6,24,114.6,23,113z"/>
	<path class="st65" d="M31.8,119.2c1.4-0.4,2.7-0.8,4.1-1.3c0.9,0.7,0.9,1.6,0.5,2.6c-1.3,1.2-2.2,0.3-3.1-0.6
		C32.8,119.7,32.3,119.4,31.8,119.2z"/>
	<path class="st66" d="M33.3,120c0.9,0.3,1.8,0.6,2.8,0.9c0,0,0.2,0.3,0.2,0.3c0,0-0.1,0.4-0.1,0.4c-0.1,0.4-0.1,0.8-0.2,1.2
		C34.7,122.3,33,122.1,33.3,120z"/>
	<path class="st67" d="M112,30c-3.1-0.7-3.7-7.1-8.7-3.8c-0.5,0.4-1.2-0.9-1.3-1.8c-0.3-1.9-1.6-3.1-2.9-4.4c0-0.2,0-0.4-0.1-0.6
		c0.1-1.3,0.3-2.6,2-2.8c1.2,0.4,2.2,1.2,3.4,1.7c0.4,0.2,0.9,0.6,1.2,0.4c0.5-0.3-0.1-0.7-0.1-1c-0.1-0.7,0-1.2,0.5-1.7
		c4.9,1.8,7.4,6,10.3,9.9c-1.4,1.2-2.4-0.4-3.6-0.5c-0.8,0-1.5-0.2-2.2-0.5c0,0-0.3,0-0.3,0s0.2,0.3,0.3,0.3c0.9,0.7,2.3,0,2.9,1.3
		C113.8,28,113.1,29.1,112,30z"/>
	<path class="st68" d="M112.9,25.1c1.5-1.5,2.2,1.2,3.5,0.7c0.2,0.3,0.5,0.6,0.7,1c0.8,1.4,0.9,2.7,0,4.1c0.3,0.7,0.7,1.4,1,2.1
		c0.1,1.5,0.1,3-1,4.2c-2.9,0.9-3.5-1.2-4-3.2c-0.2-1.4,0.4-3-1-4c0.3-1.4,0.6-2.7,0.9-4.1c-0.2-0.2-0.3-0.3-0.3-0.5
		C112.8,25.2,112.8,25.1,112.9,25.1z"/>
	<path class="st69" d="M85.8,6c0.4,0,0.9,0,1.3,0c2.1-0.9,3.6,0.4,5.1,1.5c0.8,1.6,0.4,3.1-0.1,4.7c-0.9,0.9-1.9,1.3-3.1,1.1
		c-1-0.5-2.1-1-3.2-1.1c-2.3-0.3-3.9-1.3-3.9-3.9c0-0.6,0.1-1.1,0.4-1.6C83.2,5.3,84.4,5,85.8,6z"/>
	<path class="st70" d="M106,16c0,0.7,0,1.3,0.1,2c-0.4,0.9-1,1.6-2.2,1.1c-1.4-0.1-2.4-0.8-2.9-2.2c-0.3-0.3-0.4-0.7-0.3-1.1
		c0.5-1,1.2-1.7,2.4-1.9C104.2,14.3,105.4,14.7,106,16z"/>
	<path class="st71" d="M91.8,8.2c-1.6-0.7-3.1-1.5-4.7-2.2c3.3-1.3,5.7-0.3,7.9,3C93.6,10.2,92.8,8.9,91.8,8.2z"/>
	<path class="st72" d="M96,10c0.3,0.3,0.7,0.6,1,1c0.3,0.3,0.6,0.7,0.7,1.1c0.1,0.4,0.1,0.9,0.1,1.3c-0.1,0.7-0.4,1.3-0.9,1.8
		c-0.4,0.2-0.9,0.2-1.4,0.1c-1.6-0.7-3.1-1.4-3-3.6C93.2,10,94.4,9.6,96,10z"/>
	<path class="st73" d="M103.1,13.8c-0.4,1-1.1,1.8-2.1,2.2c-0.9-0.6-1.2-1.7-1.7-2.6c-0.3-0.6-0.5-1.2-0.5-1.9
		c0.1-0.2,0.2-0.4,0.4-0.6C101.2,10.9,102.9,11.3,103.1,13.8z"/>
	<path class="st74" d="M79.1,3.9c-0.6-0.8-2.2-0.5-2.1-2c2.5,0.2,5.2-0.3,7.1,2c-0.5,0.6-1.1,0.8-1.8,1c-1,0.1-1.9,0-2.7-0.5
		C79.4,4.3,79.2,4.1,79.1,3.9z"/>
	<path class="st75" d="M96,10c-1,0.7-2.1,1.4-3.1,2.1c-0.3,0.2-0.7,0.2-1-0.1c-1.2-1.2,0.1-2.6-0.2-3.8C92.9,8.4,94,8.7,95,9
		C95.4,9.3,95.7,9.6,96,10z"/>
	<path class="st76" d="M81.8,4.2C82.5,4.1,83.3,4,84,4c1.1,0.2,1.9,0.7,1.7,2c-1,0-2.1,0-2.8,1C80.7,6.8,80,6.1,81.8,4.2z"/>
	<path class="st77" d="M117.1,30.9c0-1.4,0-2.7,0-4.1c1.1,0.8,2.1,1.6,1.9,3.2C118.4,30.3,117.7,30.6,117.1,30.9z"/>
	<path class="st78" d="M97,12c0-0.4,0-0.7,0-1.1c0.3,0,0.6,0.1,0.9,0.1c0.1,0.2,0.2,0.4,0.2,0.6C97.8,12.1,97.5,12.2,97,12z"/>
	<path class="st79" d="M97.9,11c0.2-0.3,0.5-0.6,0.7-0.9c0.1,0.3,0.3,0.5,0.4,0.8c0,0-0.1,0-0.1,0c-0.3,0.4-0.5,0.4-0.7-0.1L98,10.8
		L97.9,11z"/>
	<path class="st80" d="M79,127.9c-0.7,0.1-1.4,0.2-2.1,0.2c-2.3-0.6-4.6-0.2-6.9,0c-3.7,0-7.5,0-11.2,0c-0.9-0.1-1.9-0.2-2.8-0.4
		c1.6-3.3,4.5-3.9,7.7-3.7c1.7,0.1,3.3,0.4,4.8-0.5c0.5-0.1,0.9-0.1,1.4,0c-0.3-0.4-0.7-0.2-1.1-0.4c-0.6-0.3-1-0.7-1.2-1.3
		c0-0.5,0.1-1,0.5-1.3c1.1-0.7,2.4-0.8,3.6-0.8c1,0,2,0,2.9,0.3c0.4,0.1,0.9,0.4,1.2,0.6c0.7,0.2-0.6,1.7,1,1.4
		c1.4-0.3,2.9-0.5,4.3-0.8c0.8-0.1,1.5,0,2.2,0.3c1.3,0.9,1.5,2.1,1,3.5c-1.2,1.7-3.1,1.9-5,2.1C79.4,127.3,79.2,127.6,79,127.9z"/>
	<path class="st81" d="M92.1,117.8c2.4,0,3.3,0.9,1.9,3.2c-0.7,0.6-1.3,1.3-2,1.9c-1.3,0.7-2.6,1.4-3.9,2.1c-0.4,0.3-0.9,0.3-1.3,0
		c-1.1-1.5-1.3-3.1-1.2-4.8C86.9,117.3,89.6,117.8,92.1,117.8z"/>
	<path class="st82" d="M86.8,124.9c0.4,0.1,0.8,0.1,1.2,0.2c-2.7,1.2-5.2,3.4-8.5,2c0.8-1.9,3.4-0.4,4.3-2.2
		C84.8,124.2,85.8,124,86.8,124.9z"/>
	<path class="st83" d="M8,77c0.6-3.6-1.1-7.3,0.7-11c0.9-2-1.5-1.9-2.9-2.1C5.2,63,5.6,62.1,6,61.3c1.1-1,0.6-3.3,2.8-3.4
		c1.1-0.2,1.8-1,2.2-1.9c1.2-1.2,1.9-3.1,4-3.2c0.4,0.2,0.7,0.6,1,0.9c2,2.8-1.5,4.3-1.6,6.6c0.8,5.5,0.9,11,2,16.4
		c-0.6,1-1.7,1.4-2.7,2c-1.2,0.7-2.5,0.7-3.9,0.7C8.4,79.3,8.6,77.9,8,77z"/>
	<path class="st84" d="M14.9,53c-1.2,1.1-1.7,3.2-3.9,3c-0.7-1.6-1.3-3.3-2-4.9c0-0.7,0.3-1.3,0.6-1.9c0.8-1.6,2.3-2.6,3.1-4.1
		c0.4-1,0.8-2.1,1.7-2.8c1.5-1,3-2.1,4.7-2.7c0.5,0,0.9,0.1,1.3,0.4c0.8,1.1,0.9,2.5,1.4,3.8c1.3,1.6-0.6,3.6,0.6,5.2
		c0.2,0.4,0.3,0.8,0.2,1.3c-0.1,0.4-0.4,0.8-0.8,1C19.3,51.2,16.7,50.5,14.9,53z"/>
	<path class="st85" d="M7,61.7c-1,0.4-1.1,1.3-1.2,2.2c-0.3,0-0.5,0.2-0.7,0.3C3.5,65,2.7,64.1,2,62.9c0-0.3,0-0.5,0-0.8
		c1.2-0.1,1.9-0.7,2-2c0.6-0.4,1.2-0.8,1.9-1.2C7,59.5,7.1,60.6,7,61.7z"/>
	<path class="st86" d="M10.1,50c-0.4,0.4-0.8,0.7-1.1,1.1C8.1,51,7.1,51.2,6.7,50c1-0.3,1.3-1.1,1.2-2.1c-0.2-1.2,0.3-1.9,1.4-2.3
		c0.5,0,0.9,0.3,1.2,0.7C10.9,47.6,10.6,48.8,10.1,50z"/>
	<path class="st87" d="M7,61.7c-0.4-0.9-0.7-1.8-1.1-2.8c0.8-0.8,1.1-3,2.9-1C7.1,58.7,9.2,61.2,7,61.7z"/>
	<path class="st88" d="M54.9,7.1c-0.5-0.1-1-0.2-1.5-0.4c-1.2-0.5-0.9-1.3-0.4-2.1c2-1,3.9-0.9,5.8,0C61.3,5.6,63.1,4.2,65,3
		c0,0.3,0,0.6,0,0.9c0.5,0.5,0.6,1.2,0.5,1.9c-0.4,1.1-1.2,1.9-2,2.7c-0.5,0.5-1,0.9-1.7,1.1c-0.9,0.3-1.7,0.3-2.6,0
		c-0.6-0.2-1.1-0.6-1.7-0.9C56.7,8.2,55.7,7.9,54.9,7.1z"/>
	<path class="st89" d="M70,6.1c1.3-0.4,2.6-0.7,4-1.1c0.6,0.3,1.2,0.6,1.3,1.3c-0.9,0.9-1,2.2-1.4,3.3c-1.5,1.5-3.2,1.6-5.1,1.1
		c-1.3-0.8-1.5-2.4-2.2-3.5C66.9,4.4,69,6.9,70,6.1z"/>
	<path class="st90" d="M70,6.1c-0.7,1.6-2.3-0.4-3.1,0.8c-1.2,0.8-2,0.8-1.9-0.9c0-0.7,0-1.4,0.1-2C67,3.9,68.4,5.2,70,6.1z"/>
	<path class="st91" d="M75.1,6.1c-0.4-0.4-0.7-0.7-1.1-1.1c1.6-1,3.4-1.1,5.1-1.1c0,0,0,0,0,0c0.5,0.7,0.6,1.4,0.2,2.1
		c-0.8,0.8-1.8,0.9-2.9,0.8C75.9,6.7,75.4,6.5,75.1,6.1z"/>
	<path class="st92" d="M58.9,4.7c-1.9,0.2-3.9,0.3-5.8,0.5c-0.6-0.7-0.7-1.4-0.1-2.1C53.3,3.1,53.7,3,54,3c1,0,2-0.1,3-0.1
		C58,3,59.1,3.2,58.9,4.7z"/>
	<path class="st93" d="M69,124c-0.7,1.2-1.7,2.4-3.1,1.7c-3.9-1.9-6.8,0.5-9.8,2c-1.5,0.2-2.8,0.1-3.1-1.8c0.4-0.8,1.2-1.2,1.9-1.6
		c1.2-0.4,2.2-1.3,3.3-1.9c0.7-0.2,1.3-0.2,2-0.1C63.1,123.3,66.5,121.3,69,124z"/>
	<path class="st94" d="M50,127.2c-1.8-1-3.7-1.8-5.8-1.9c0.3-0.4,0.5-0.9,0.8-1.3c0.4-0.8,0.9-1.5,1.8-1.7c0.4-0.1,0.9-0.1,1.3-0.1
		c0.8,0.1,1.6,0.4,2.4,0.8c1.5,0.5,1.9,1.5,1.4,3C51.8,127.2,50.7,126.8,50,127.2z"/>
	<path class="st95" d="M51.9,126c-0.7-0.8-0.2-2.6-2-2.4c0.7-1.9,2.4-1.6,3.9-1.7c0.7,0.1,1.4,0.3,2,0.8c1.3,1.3-1.4,1.4-0.7,2.5
		c-0.7,0.3-1.5,0.6-2.2,0.8C52.6,126,52.3,126,51.9,126z"/>
	<path class="st96" d="M2,62.9c1,0.5,2,0.9,3.1,1.4c-0.4,2-0.8,3.9-1.2,5.9C3.3,70,2.7,70,2.1,69.9C2.1,67.6,2,65.2,2,62.9z"/>
	<path class="st97" d="M58.9,9c1,0,2,0,3,0c0.7,0.5,0.9,1.2,1,2c0.1,0.8,0,1.6-0.4,2.3c-0.7,1.3-1.9,1.6-3.3,1.3
		c-2.4-1-4.7-2.4-7.1-3.4c-0.9-0.6-2.6-0.4-2.2-2.2c0.7-0.9,1.7-1,2.8-0.9c1.6,1,3.3-0.6,4.9,0.2C58.1,8.5,58.5,8.7,58.9,9z"/>
	<path class="st98" d="M53.1,10.1c1.6,1.8,4.5,1.6,5.9,3.7c-0.1,1.1-0.9,1.5-1.9,1.5c-0.7-0.2-1.3-1.1-2-0.9
		c-0.2,0.1,0.5,0.9,0.5,1.5c0,0.5-0.1,0.9-0.3,1.4c-0.6,0.9-1.5,1.4-2.5,1.5c-1.7,0.1-3.2-0.2-3.4-2.3c0.1-0.6,0.3-1,0.8-1.3
		c1.2-0.8,0.8-2.1,0.8-3.2C50.3,10,52.5,10.9,53.1,10.1z"/>
	<path class="st99" d="M50.2,15.3c0,0.3,0,0.6-0.1,0.8c-1.3,1-2.6,2.1-4,3.1c-1.5,0.2-2.4-1-3.5-1.6c-0.8-0.7-2.1-1.2-1.5-2.7
		c1.3-0.7,2.7-1.3,4-2c1.8-0.5,2.1,1.1,3,2C48.7,15,49.5,15.2,50.2,15.3z"/>
	<path class="st100" d="M41,14.9c0.7,0.7,1.3,1.3,2,2c-0.2,1.3-1,2.1-2.3,2.5c-1.3,0-2.4-0.4-3.2-1.5c-0.5-0.9-0.6-1.9-0.3-3
		c0.5-1.2,1.1-2.4,2.8-1.9C40.3,13.6,40.7,14.3,41,14.9z"/>
	<path class="st101" d="M40,13c-1,0.4-1.8,0.9-2.1,1.9c-0.6,0.9-1.5,0.9-2.4,0.5c-0.2-0.2-0.3-0.3-0.5-0.5c-0.2-1.5,0.4-2.7,1.2-3.9
		c0.6,0.2,1.2,1,1.8,0C38.7,11.7,39.3,12.3,40,13z"/>
	<path class="st102" d="M53,3.2c0,0.7,0,1.4,0.1,2.1c0.1,0.5,0.2,1,0.3,1.5c-1.3,0-2.5,0-3.8,0c-0.1-0.9-0.1-1.7-0.2-2.6
		C50.6,3.9,51.8,3.5,53,3.2z"/>
	<path class="st103" d="M48,14.9c-1.6,0.3-1.9-1.5-3-2c0.9-1,2.1-1.2,3.1-0.6C49.4,13.1,48.3,14.1,48,14.9z"/>
	<path class="st102" d="M58,8.9c-1.8,0.1-3.6,0.5-5.2-0.8c0.7-0.3,1.4-0.6,2.2-1c1.1,0.1,2.3-0.1,3,1c0.3,0.2,0.4,0.3,0.3,0.5
		C58.2,8.8,58.1,8.9,58,8.9z"/>
	<path class="st104" d="M53.1,10.1c-0.7,0.7-1.4,1.4-2.1,2c-0.2-1-4.1-1-0.9-3C50.8,10.2,52,9.9,53.1,10.1z"/>
	<path class="st105" d="M19.3,40.2c-0.8,1.8-2.7,2-4.2,2.7c-1.8-0.3-3.5-0.8-4.7-2.3c-0.1-0.2-0.2-0.4-0.3-0.6c0-0.3,0-0.7,0-1
		c0.8-1,1.9-0.8,2.9-0.9c1,0.4,2,0.5,3-0.1c0.3-0.1,0.6-0.2,0.9-0.2C18.9,37.2,19.8,38,19.3,40.2z"/>
	<path class="st106" d="M16,30c1-0.1,2-0.1,2.9-0.2c1.9-0.1,1.4,2,2.4,2.7c0.5,0.7,1,1.5,0.8,2.4c-0.3,0.4-0.6,0.6-1,0.9
		c-1.4,0.4-2.5,1.8-4.2,1.1c0.6-2.2-0.9-3.9-1.4-5.8C15.8,30.7,15.9,30.4,16,30z"/>
	<path class="st107" d="M17.1,36.9c1.3-0.6,2.1-2.3,4-1.7c1,1.1,1,2.3,0.5,3.5c-0.4,0.7-0.9,1.2-1.7,1.3c-0.2,0.1-0.4,0.1-0.6,0.1
		c0-1.6-1.1-2.2-2.4-2.4C16.9,37.4,17,37.1,17.1,36.9z"/>
	<path class="st108" d="M15.9,38c-1,1.5-2,1-3,0.1C13.9,36.2,14.9,35.4,15.9,38z"/>
	<path class="st109" d="M8.9,46c-0.3,0.6-0.7,1.3-1,1.9c-1.1-1.9-2-3.8,1.1-4.9c0.4,0.1,0.8,0.3,1.1,0.6c0.1,0.2,0.2,0.4,0.3,0.6
		C10.4,45.2,9.2,45.3,8.9,46z"/>
	<path class="st105" d="M10,44c-0.4-0.3-0.7-0.7-1.1-1c0-0.7,0-1.4,0-2c0.4-0.3,0.7-0.7,1.1-1c0,0-0.1,0-0.1,0
		C11.2,41.3,12.3,42.6,10,44z"/>
	<path class="st110" d="M23.1,19.1C23.4,19,23.7,19,24,19c1.3,0.2,2.9-0.4,4,0.9c0,0.6,0,1.2-0.3,1.8c-0.1,0.4-0.3,0.8-0.5,1.2
		c-0.6,1.2-1.1,2.5-1.9,3.5c-1.2,1.3-2.6,2.1-4.5,2.1c-0.5-0.1-0.9-0.3-1.3-0.7c-0.6-1.7-0.2-3,1.5-3.7C23,23,21.2,20.3,23.1,19.1z"
		/>
	<path class="st111" d="M21.1,24.2c-0.7,1.1-1.3,2.3-1,3.6c0.3,1-0.1,1.4-1.1,1.2c-0.7-0.7-1.3-1.4-2-2c0.6-0.7,1.3-1.3,1.9-2
		C19.6,24.7,20.4,24.5,21.1,24.2z"/>
	<path class="st112" d="M27.2,21.1c0.3-0.4,0.5-0.8,0.8-1.2c0.7-0.6,1.4-1.2,2-1.8c1.1-0.1,2.1-0.9,3.2-0.6c0.5,0.1,0.8,0.4,1.1,0.7
		c0.6,1.4,0,2.7-0.5,4.1c-0.6,1.3-1.4,2.5-2.7,3.1c-0.5,0.1-0.9,0-1.3-0.2C29.4,23.5,28.8,22,27.2,21.1z"/>
	<path class="st113" d="M32.8,18c-0.9,0.3-1.9,1.5-2.8,0c0.3-1.1,0.7-2.1,1-3.2c0-0.3,0-0.5,0-0.8c0.3-0.4,0.7-0.8,1-1.2
		c0.5,1.4,1.4,2.2,3,2c0,0-0.1,0.1-0.1,0.1C35.6,16.9,33.6,17,32.8,18z"/>
	<path class="st114" d="M19,29c0.4-0.4,0.7-0.8,1.1-1.2c0.3,0.1,0.7,0.1,1,0.2c0.4,0.4,0.6,0.8,0.8,1.3c0.2,1.3,0.2,2.6-1,3.5
		c-3.1,0.6-0.4-2.5-1.9-3C19,29.6,19,29.3,19,29z"/>
	<path class="st115" d="M99.1,28c7.4,1.3,8.4,2.2,8.3,9.3c0,1.5,0.9,2.7,1.4,3.4c3.2,4.4,2.1,9.3,0.8,13.4c-1.3,4.1-1.1,8-1.6,12
		c-5.4,1.9-8.8-1.6-12.3-4.7c-1.3-1-2.6-1.9-4.3-2.3c-1.5-0.3-3.3-0.3-4.2-1.4c-3.9-4.6-9.2-4.5-14.4-4.9c-0.5-0.2-0.9-0.6-1.1-1.1
		c0-0.6,0.3-1,0.8-1.3c5.5-1.6,10.7-0.8,15.8,1.6c1.1,0.4,1.9,1.2,3,1.7c6.1,3,6.2,3,10.4-2.3c0.1-0.1,1.2-0.1,0.2-0.5
		c-4.3-1.5-1.1-3.8-0.9-5.9c0.5-4.6-1.4-9-2.4-13.4C98.3,30.3,97,29,99.1,28z"/>
	<path class="st116" d="M99.1,28c-0.2,0.5-0.6,1.2-0.5,1.4c3.7,3.8,2,9.1,3.8,13.4c0.5,1.1,0.9,2.4-0.1,3.2c-4.1,3.6,0,4.1,2.3,5.7
		c-4.5-0.9-4.6,3.7-6.9,5.5c-1.5,1.2-1.9,1.6-2.6,0.3c-1.3-2.6-5.2-1.3-6.1-4.4c3.3-2,3.3-3.2,0.1-5.1c-0.8-0.5-1.9-0.4-2.6-1.3
		c-0.4-0.9-0.4-1.8,0.1-2.7c3.5-2.2,4.1-6.6,6.7-9.5c1.2-1.4,0.3-3.2-1.3-4.2c-2.6-1.7-3-3.7-1.4-6.3c1.1-1,2.5-1.2,3.9-1.5
		c0.4-0.1,0.9,0,1.3,0.1c1.1,0.6,1.7,2,3.1,2.2C98.9,25.9,99,26.9,99.1,28z"/>
	<path class="st117" d="M108,70.1c0.3,0.3,0.7,0.6,1,1c1.3,5.1,0.8,5.8-5.6,9.7c-1.1,0.3-2.1,0.3-3.1-0.2c-0.7-0.5-1-1.2-1.2-2
		c-0.1-0.8,0-1.5,0.2-2.2c0.3-0.7,0.7-1.3,1.1-1.8c2.2-1.6,2.6-4.7,5.3-5.9C106.8,68.7,107.4,69.4,108,70.1z"/>
	<path class="st118" d="M108,70.1c-0.7-0.3-1.4-0.6-2.1-1c-0.9-0.8-2.1,0-3-0.6c-2-1.3-4.5-1.7-6.3-3.4c-0.6-1-0.9-2.1-1.2-3.2
		c-0.1-0.7,0-1.4,0.5-1.9c3.4,3.2,7.3,5.6,12.1,5.9C108,67.4,108,68.7,108,70.1z"/>
	<path class="st119" d="M103,80c2.3-2.8,7.5-3.6,5.9-9c2.3,1.6,1.8,3.4,0.8,5.6c-1,2.3-3.5,3.6-3.8,6.2c-0.4-0.3-0.7-0.6-1.1-0.9
		C104.3,81.4,102.4,81.8,103,80z"/>
	<path class="st120" d="M113,34c1.3,1,1.7,3.2,3.9,3c0.1,0.2,0.2,0.3,0.4,0.5c0,0.2,0,0.4,0,0.6c-0.2,1.2-0.3,2.4-1,3.5
		c-0.2,0.1-0.4,0.2-0.5,0.3C115.2,39.2,110,38.1,113,34z"/>
	<path class="st121" d="M96.1,22.7c-0.4,0.1-0.8,0.2-1.1,0.3c-2.8-0.6-1.1-2.7-1.4-4.2c0.5-1.7,2-2.5,3.5-3.1c0.5-0.1,0.9,0,1.3,0.3
		c0.8,1.2,1,2.5,0.6,4c0,0,0.2,0.2,0.2,0.2c-1.4-0.1-3.1-0.5-3,1.9l0.3,0.4L96.1,22.7z"/>
	<path class="st122" d="M118.8,43.2c-1.1-0.2-2.3-0.1-3-1.2c0,0,0.5,0,0.5,0c1-1.2,0.3-2.6,0.7-3.9l-0.1-0.3c3-0.8,2.9,1.6,3.5,3.3
		C120.4,42.1,120.6,43.4,118.8,43.2z"/>
	<path class="st123" d="M118.8,43.2c0.9-0.4,1.1-1.3,1.2-2.2c0.4-0.5,0.7-0.4,0.9,0.1c-0.2,2,1,4.2-0.9,6c-0.7-0.4-1.4-0.7-2.1-1.1
		C118.2,45.1,119.2,44.3,118.8,43.2z"/>
	<path class="st124" d="M108.1,88.1c-0.4,0-0.8-0.1-1.2-0.1c-4.1-2.8,1.8-1.7,1.2-3.1c0.9,0,1.6,0.2,1.9,1.2
		C109.4,86.8,108.7,87.4,108.1,88.1z"/>
	<path class="st125" d="M96.1,22.7c0-0.3,0-0.5-0.1-0.8c1,1,1.9,1.9,2.9,2.9C95.6,27.1,97,23.5,96.1,22.7z"/>
	<path class="st126" d="M120.9,41.1c-0.3-0.1-0.6-0.1-0.9-0.1c-0.7-1.4-1.2-3-3.1-3.2c0-0.3,0-0.5,0-0.8c0-1.4,0.3-2.8,1.1-4
		C119,35.7,121,38.1,120.9,41.1z"/>
	<path class="st127" d="M86.1,93c0,0.3,0,0.6-0.1,0.9c-0.6,1-1.5,1.4-2.6,1.9c-2.2,0.9-1.9,2.4-0.5,3.9c1.4,0.8,2,1.8,1.3,3.4
		c-0.5,0.5-1.2,0.7-1.9,0.8c-2.1-0.9-5,1.8-6.7-1.3c-1-4.9,1.3-8.9,3.4-13c1.2-0.7,2.4-0.7,3.6-0.3C84.2,90.1,85.4,91.4,86.1,93z"/>
	<path class="st128" d="M86.1,93c-2-0.1-2.3-1.8-3.1-3.1c-1.7-3.4-0.1-5.9,2.4-8.1c0.4-0.2,0.9-0.3,1.4-0.2c1.3,1.7,3.9,1.1,5.1,3.1
		c1.2,4.2-0.5,6.6-4.8,7.3C86.7,92.4,86.4,92.7,86.1,93z"/>
	<path class="st129" d="M87,92.1c3.1-1.8,4.8-4.3,4-8.1c-0.5-1.2,0.2-1.7,1.1-2.1c2.7,0.8,2.4,3.2,2.1,5.1c-0.3,2.6,1.6-0.5,1.7,0.8
		c1.7,1.5,2.6,3.1,1.1,5.2c0,0.3,0,0.6-0.1,0.9C93.6,93.6,89.7,96,87,92.1z"/>
	<path class="st130" d="M84.1,102.8c0.1-1.5-1.2-2.1-1.9-3c-0.1-2.3,0.9-2.7,2.9-1.9c2.2,1.1,4.9,0.3,6.9,2.1c0.3,1.3-1.8,2.9,0.4,4
		c-0.1,0.6-0.3,1.2-0.4,1.8c-1.5,0.6-0.3,2.7-2,3.2c-1.6,0-1.6-1.2-1.7-2.3c0-1.1-0.5-1.8-1.5-2.2C85.7,104.2,84.6,103.9,84.1,102.8
		z"/>
	<path class="st131" d="M85,98c-1.4-0.1-2.4,0.4-2.9,1.9c-2-0.9-1.9-2.8-1.7-4.3c0.3-1.7,1.9-1.1,3.2-0.9c0.7,0.1,1.5-0.4,2.3-0.7
		C85.7,95.3,85.3,96.6,85,98z"/>
	<path class="st132" d="M99.9,89.9c-0.3,0.1-0.5,0.2-0.8,0.2c-3.5-0.6-2.8-3.3-2.8-5.6c0.4-1.7,0.6-3.4,2.6-4.2
		c1-0.1,1.9,0.1,2.6,0.9c1.3,2.3-1.2,3.7-1.3,5.7C100,88,100,89,99.9,89.9z"/>
	<path class="st133" d="M101,82c-0.4-0.8-1.1-1-1.9-1.1c-0.3-0.9,0.1-1.2,0.9-1c1,0,2,0,3,0.1c0.2,1.1,2,0.7,1.9,2
		c-1,1.2-2,2.5-3,3.7C100.5,84.8,102.2,83,101,82z"/>
	<path class="st134" d="M101,82c1.4,1,0.8,2.5,0.9,3.8c-0.6,0.4-1.2,0.8-1.8,1.3C97.7,84.9,101.8,83.9,101,82z"/>
	<path class="st135" d="M88.7,106.1c0.5,1-0.1,2.4,1.2,3c0.1,0.3,0.1,0.6,0,0.9c-0.2,0.2-0.3,0.3-0.5,0.5c-0.6,0.3-1.3,0.4-2,0.3
		c-1.5-0.4-3.1-0.6-4.6-1.3c-0.8-0.6-1.3-1.3-1.2-2.4c1.2-2.2,3-2.8,5.4-2.1C87.7,105.1,88.3,105.4,88.7,106.1z"/>
	<path class="st136" d="M95,114c-0.7,1.8-2.2,2.1-4,1.9c-0.5-0.3-1.1-0.5-1.7-0.9c-0.6-0.6-0.9-1.4-0.8-2.3c0.2-1.1,0.6-2,1.4-2.8
		c0,0-0.1,0-0.1,0c1.4,1.4,2.7,2.7,4.1,4.1C94.4,113.7,94.7,113.7,95,114z"/>
	<path class="st137" d="M95,114l-0.5,0c0,0-0.5,0-0.5,0c0.4-1.7,0.8-3.3,1.3-5c1.1,0.1,1.7,0.7,1.7,1.8c-0.1,1.1,2.8,3.1-0.9,3.2
		C95.8,114,95.4,114,95,114z"/>
	<path class="st138" d="M89.9,114.9c0.4,0.3,0.8,0.7,1.1,1c-0.3,0.3-2-0.2-0.6,1.1c0.4,0.4,1.1,0.6,1.6,0.9c-2,0.7-4,1.4-5.9,2.1
		c-0.7,0-1.2-0.2-1.8-0.6c-0.6-0.3-1.1-0.7-1.5-1.3c-0.1-0.5-0.1-0.9,0.2-1.3C85,115.1,87.1,113.8,89.9,114.9z"/>
	<path class="st134" d="M97,85c0.7,1.7,0,4,2.1,5.2c-0.2,1.3-0.2,2.8-2.1,2.8c0.1-1.9-0.4-3.7-2-5C94.1,85.9,94.8,85,97,85z"/>
	<path class="st139" d="M20,88c-1-1.3-2-2.7-3-4c0-0.9-0.1-1.8,0.2-2.7c1.6-4.9,1.7-5,5.7-2c1.2,0.9,2,0.7,3,0.1
		c1.3-0.7,2.4-0.8,3.2,0.7c0-1.5-1.2-1.7-2.3-2.2c-1.8-0.9-3.3-2.2-1.8-4.2c1.7-2.3,3.6-1.1,4.9,0.5c1.8,2.2,4.1,3.8,6.2,5.6
		c1,0.3,1.1,2.3,2.7,1.3c1.3-1.8,3.3-2.5,5.2-3.4c0.5-0.1,0.9,0.1,1.3,0.3c1.6,1.9,2.2,5.4,6,3.4c0.6-0.4,1.2-0.7,1.9-0.9
		c0.5,0,0.9,0.1,1.3,0.4c1.8,1.7,1,3.5,0.3,5.3c-2.2,1.9-3,5.3-6.3,6c-1.1,0.3-0.8,1.2-0.9,2c-0.1,0.5-0.3,0.8-0.6,1.2
		c-0.6,0.4-1.3,0.4-2,0.3c-1.7-0.5-3.2-1.5-5-1.6c-2.1-0.1-3.2,1.6-4.8,2.4c-1.5,0.7-3.1,1.6-4.6,0.4c-1.7-1.3-0.1-2.7,0.3-4
		c0.1-0.5,0.2-1,0.1-1.5c-0.7-1.9-2.5-2.8-3.6-4.3c-0.8-1.4-1.6-1.1-2.7-0.2C23.4,88,22,89.4,20,88z"/>
	<path class="st140" d="M20,88c1.9-0.2,3.5-0.9,4.7-2.4c0.6-0.8,0.8-2.5,2.4-1.7c1.2,0.6,0.9,2,0.9,3.1c0.8,1.9,2.9,2.4,4,4
		c2.8,2.5-1.5,2.9-1.4,5c2.4,0.8,4.1-0.4,5.9-2c0.9-0.8,1.7-3,3.5-1c1.5,1,3.3,1.5,5,2c0.6,0,1.2,0,1.9,0c0.4,0.2,0.7,0.5,0.9,0.9
		c0.3,0.4,0.3,1.3,1.1,1.2c0.4,0,0.5-0.7,0.6-1.1c1.3-1.6-0.7-1.3-1.2-2c-0.6-1-1.5-2-0.1-3c2.9-0.6,3.2-4.1,5.8-5
		c1.3-1.2,2.7-0.8,4-0.2c0.4,0.2,0.8,0.5,1.1,0.9c0.4,1.6-0.6,3-0.9,4.6c-0.5,0.8-1.2,1.3-2,1.9c-0.9,0.5-1.4,1.4-1.7,2.4
		c-2.4,6.7-7,9-13.4,6.2c-4.5-2-8,0.4-11.9,1.7c-1.8,0.1-3.1-1-4.6-1.7c-0.6-0.4-1-1-1.2-1.7c-0.1-1.7-0.5-3.4,1.3-4.8
		c2.8-2.2,0.6-3.1-1.3-3.9c-1.6-0.6-4.1,0.6-4.5-2.4C19.3,88.7,19.7,88.3,20,88z"/>
	<path class="st141" d="M19,89c1.3,1.6,3.1,0.9,4.6,1c2.3,0.1,3.8,1.2,4.2,3.4c0.3,1.9-0.3,2.9-2.7,3c-2.3,0.1,0.8,2.7-1,3.5
		c-2.4,0.2-3.7-1.4-4.9-3c-0.8-1.4-2.2-1.9-3.5-2.5c-0.7-0.6-1.2-1.3-1.1-2.2C18.2,94,17,89.3,19,89z"/>
	<path class="st142" d="M16,94c1.6,0.2,3.5-0.3,4,2c-1.2,1.1-3.3,0.8-4.2,2.5c-1.8-2-5.3-2.1-6-5.3c0-0.4,0.1-0.8,0.1-1.3
		c0.7,0.1,1.3,0.2,2,0.3C13.4,92.6,14.9,93,16,94z"/>
	<path class="st143" d="M10,79.1c1-0.3,2-0.7,3-1c0.7-0.7,1.6-0.7,2,0.1c0.6,1.1,0,2.1-1,2.9c-1.2-0.5-1.7,1.6-3,0.9
		C10.2,81.2,9.4,80.4,10,79.1z"/>
	<path class="st144" d="M10,79.1c0.3,0.9,0.7,1.9,1,2.8c-1.9,0.5-3-0.6-4-1.9c0.3-1,0.7-2,1-3C8.7,77.7,9.4,78.4,10,79.1z"/>
	<path class="st145" d="M18,82c0,0.8-0.2,1.5-1,2c-0.7-0.7-1.3-1.3-2-2c-0.8-1.1-0.4-1.9,0.7-2.4C17.5,79.4,17.5,80.9,18,82z"/>
	<path class="st146" d="M16,79.9c-0.8,0.5-1,1.2-1,2.1c-0.3-0.3-0.6-0.6-1-1c-0.6-0.9,1.8-2.8-1-3c0.7-1.3,1.9-1,2.9-1.1
		C16.8,78,16.8,78.9,16,79.9z"/>
	<path class="st147" d="M16,94c-1.6-0.1-2.9-0.8-4-1.8c0.9,0,1.8,0,2.7,0C15.1,92.8,15.6,93.4,16,94z"/>
	<path class="st148" d="M15.8,98.5c-1.2-5.2,2.8-1.7,4.2-2.5c1.4,1.3,2.8,2.7,4.2,4c-0.2,0.7,0.3,0.9,0.8,1.2
		c1.8,0.8,2.9,2.5,4.6,3.4c1.5,1.6,3.3,2.7,5.1,3.9c1.2,0.9,2.1,1.8,1.8,3.5c-0.3,0.9-0.7,1.8-1.7,2.2c-0.3-0.1-0.6-0.2-0.9-0.1
		c0,0,0.1-0.1,0.1-0.1c-2.4-0.9-2.7-3.9-5.1-4.8c-0.3-0.3-0.7-0.6-1-0.9c-0.9-1.5-2.6-1.5-3.9-2.3l0,0c-0.9-1.2-1.7-2.5-3.3-2.8
		C19.1,101.6,17.5,100,15.8,98.5z"/>
	<path class="st142" d="M20.7,103.1c2.1-0.2,3.1,0.8,3.3,2.8c-0.3,0-0.7,0-1-0.1C22.3,105,21.5,104,20.7,103.1z"/>
	<path class="st149" d="M28.9,109.2c3.2,0.1,3.9,2.7,5.1,4.8C30.1,114.7,30.2,111.2,28.9,109.2z"/>
	<path class="st142" d="M24.1,106c1.7,0,3.4,0.2,3.9,2.3C26.5,107.8,24.9,107.4,24.1,106z"/>
	<path class="st150" d="M36.1,120.9c-0.1-1-0.1-2-0.2-3c-0.3-0.6-0.6-1.3-0.9-1.9c1.6-1.2,2.8-0.3,4,0.7c0.7,0.8,0.9,1.7,0.8,2.7
		C39.4,121.8,37.8,121.4,36.1,120.9L36.1,120.9z"/>
	<path class="st151" d="M39,116.9c-1.3-0.3-2.6-0.6-4-0.9c0-0.6-0.1-1.2-0.1-1.8c0.1-0.9,0.3-1.8,1.2-2.2c0.7-0.3,1.2,0.1,1.6,0.6
		c0.8,1,1.6,1.9,1.8,3.3c0,0.2-0.1,0.4-0.1,0.6C39.3,116.6,39.1,116.8,39,116.9z"/>
	<path class="st152" d="M42.1,122.1c-0.4-0.8-1.2-1.1-2-1.1c-0.4-0.4-0.5-0.8-0.5-1.3c0.4-1.3,1.5-2,2.7-2.5c1.5-0.4,3-0.5,4.5-0.2
		c1,0.2,1.8,0.7,2.4,1.5c1.3,4-2.5,2.6-3.9,3.7C44.2,122.3,43.1,122.2,42.1,122.1z"/>
	<path class="st153" d="M42.1,122.1c0.9-0.8,2-0.6,3-0.2c1.1-0.5,2.1-0.8,1.9,1.1c-0.6,0.3-1.3,0.7-1.9,1
		C44,123.4,43.1,122.7,42.1,122.1z"/>
	<path class="st154" d="M39.9,120.2c0,0.3,0,0.5,0.1,0.8c-0.3,0.6-0.6,1.2-0.9,1.7c-1-0.4-2-0.7-3-1.1c0-0.3,0-0.5,0-0.8
		c0.8-0.9,2.2,0.2,2.8-0.9C39.5,119.4,39.8,119.5,39.9,120.2z"/>
	<path class="st155" d="M98.9,19.9c-0.4-1.4-0.8-2.7-1.1-4.1c-0.2-0.2-0.4-0.3-0.7-0.4c0,0,0-0.4,0-0.4c0-0.6,0-1.3,0-1.9
		c1-0.7,2-0.7,2.9,0c1.2,0.7,1,1.9,1.1,3c0,0.3,0,0.6,0,0.9C100.3,17.9,99.6,18.9,98.9,19.9z"/>
	<path class="st156" d="M104,19.1c0.7-0.4,1.4-0.7,2.2-1.1c1.1,0.2,2.4,1,1.6,1.8C106.6,21,105.1,20,104,19.1z"/>
	<path class="st157" d="M110,26c-1.2-0.7-2.6-1.8-1.6-3c1-1.3,1.6,0.9,2.6,1.1C111.4,25.2,110.9,25.7,110,26z"/>
	<path class="st158" d="M110,26c0.3-0.6,0.7-1.3,1-1.9c0.6,0.3,1.3,0.7,1.9,1c0,0.3,0,0.5,0,0.8C112,26.4,111,27.6,110,26z"/>
	<path class="st159" d="M94,19c2.1,0.9-1.1,3.1,0.9,4c-0.8,2.1-2.7,0.6-3.9,1c-2.8,0.2-3.5-1.7-4.1-3.8c-0.2-1.2-0.1-2.5,0.3-3.6
		c0.6-1.2,1.1-2.5,1.9-3.5c1-0.3,1.9-0.7,2.9-1c0.3,0,0.6,0,1,0.1c1,1,2.1,1.9,3.1,2.9C95.7,16.5,92.8,16.7,94,19z"/>
	<path class="st160" d="M83,8.2c-0.4,3.4,2.2,2.9,4.2,3c0.1,0.7-0.3,1.1-0.9,1.5c-0.8,0.4-1.6,0.6-2.4,0.8c-0.9,0-1.7-0.2-2.5-0.4
		c-0.7-0.2-1.2-0.5-1.7-1.1c-0.3-0.7-0.3-1.3-0.2-2c0.3-0.9,0.8-1.8,1.6-2.3C81.8,7.4,82.5,7.4,83,8.2z"/>
	<path class="st161" d="M86.1,12c0.3-0.3,0.7-0.6,1-0.8c1.6-0.4,2.2,0.3,2,1.8c-0.6,0.8,2.2,3-1.1,2.7C85.3,15.5,84.7,14.3,86.1,12z
		"/>
	<path class="st2" d="M83,8.2C82.3,8.1,81.7,8,81,8c-1.1,0-1.9-0.4-2.2-1.6c0.1-0.8,0.1-1.7,0.2-2.5C80,4,80.9,4.1,81.8,4.2
		c-0.7,1.4-0.3,2.3,1.2,2.8C83,7.4,83,7.8,83,8.2z"/>
	<path class="st162" d="M94,19c-2.5-2.4-2.3-2.7,2-4c0.3,0,0.6,0,1-0.1c0,0-0.1,0.4-0.1,0.4c0,0.2,0,0.3,0,0.5
		C96.8,17.6,94.6,17.6,94,19z"/>
	<path class="st163" d="M99.9,13c-1,0-2,0-2.9,0c0-0.3,0-0.7,0-1c0.4-0.4,0.9-0.8,1.3-1.1c0.2,0,0.4,0.1,0.7,0.1
		C99.3,11.7,99.6,12.3,99.9,13z"/>
	<path class="st164" d="M85,118.8c0.4,0.4,0.8,0.8,1.2,1.1c1,1.5,1.1,3.2,0.7,4.9c-1,0-2,0-3-0.1c0.1-1.1,0.4-2.1-0.8-2.8
		c-0.8-0.9-0.9-1.9-0.3-3C83.4,118.4,84.2,118.5,85,118.8z"/>
	<path class="st165" d="M69,124c-2.9-1.4-6.3,1.3-9.1-1.1c0.1-0.2,0.3-0.3,0.4-0.5c0.4-0.2,0.8-0.4,1.2-0.6c1.4-0.5,2.9-1,4.4-1.3
		c1.1-0.1,1.5,0.7,2.1,1.4c1.1,0.5,2.2,1.1,3.7,1.8C70.6,123.9,69.8,124,69,124z"/>
	<path class="st166" d="M81.2,122.2c-2.2,1.6-4.9-0.1-7.5,1.8c0.2-2.4,2.4-1.8,2.6-3.1c0.8-0.8,1.8-0.8,2.8-0.6
		C80,120.7,80.8,121.2,81.2,122.2z"/>
	<path class="st167" d="M78.9,121c-0.9,0-1.8,0-2.7-0.1c-0.3,0-0.6-0.1-1-0.1c-0.9-0.5-1.6-1.1-1.6-2.3c1.3-2.1,3.1-0.9,4.7-0.7
		c0.8,0.2,1.4,0.6,1.9,1.3C80.4,120.2,80.8,121.4,78.9,121z"/>
	<path class="st168" d="M78.9,121c0.8-0.4,1-1.2,1-2c0.4-0.8,1.1-1.1,1.9-1.4c0.4-0.1,0.8,0.1,1.1,0.4l0.2-0.1
		c0.3,0.3,0.3,0.6,0.2,0.8c-0.1,0.2-0.2,0.3-0.3,0.3c0,1,0,1.9,0,2.9c-0.6,0.1-1.2,0.1-1.8,0.2C80.4,122,79.4,122,78.9,121z"/>
	<path class="st169" d="M71.9,121c-1.3,0-2.6,0-3.9,0c-0.9-0.5-1.5-1-0.9-2.1c0.4-0.3,0.8-0.5,1.2-0.7c0.9-0.2,1.9-0.2,2.8,0.1
		c0.5,0.2,0.8,0.5,1.2,0.8C72.6,119.8,72.6,120.4,71.9,121z"/>
	<path class="st170" d="M67.1,119c0.3,0.6,0.6,1.3,0.9,1.9c0,0.3,0,0.7,0.1,1c-0.7-0.3-1.4-0.6-2.2-0.9c-0.9,0.2-1.2-0.3-1.4-1.1
		c0.2-1.2,0.9-1.6,2-1.4C66.7,118.8,66.9,118.9,67.1,119z"/>
	<path class="st171" d="M71.9,121c0.1-0.6,0.1-1.2,0.2-1.8c0.5-0.7,1.1-0.7,1.7-0.4c0.5,0.7,0.9,1.4,1.4,2.1
		C74.2,120.9,73,120.9,71.9,121z"/>
	<path class="st172" d="M16,79.9c0-1,0-1.9,0-2.9c-3.6-5.2-1.3-11.5-2.9-17.1c1.5-1.7,3.6-2.1,5.8-2.2c1.7-0.1,2.6-1.4,3.6-2.5
		c0.6-0.7,1.5-1,2.3-1.3c1.3-0.3,2.6-0.8,4-0.7c0.5,0.1,0.9,0.3,1.3,0.5c0.3,0.4,0.5,0.8,0.5,1.3c0.1,2.6-0.2,5.3,2.7,6.7
		c0,0.9-0.4,1.6-0.9,2.3c0.6-0.1,1-0.5,1.6-0.8c1.3-0.5,2.6,0.9,3.8-0.3c0.3-0.3,0.6-0.5,1-0.7c1.3-0.4,2.6-0.3,3.8-0.1
		c1.7,0.5,2.9-0.7,4.4-1c0.5-0.1,0.9-0.2,1.4-0.2c1.5,0,2.9,0.4,3.9,1.7c0.5,0.9,0.5,1.8,0.2,2.8c0.3-1,0.9-1.7,1.9-2.1
		c1-0.3,2-0.2,2.8,0.4c1.2,1.7,1.2,3.7,1.4,5.7c-0.1,1.2-0.3,2.4-0.7,3.5c-0.2,0.4-0.4,0.8-0.8,1.1c-2,1.1-3.8,0.1-5.5-0.9
		c-1.4-0.9-2.9-1.4-4.6-1.4c-0.5-0.1-0.9-0.2-1.3-0.5c-0.6-0.5-1.1-1.1-1.1-1.9c-0.6,1.1-1.3,2.2-1.4,3.5c0.3,1.5,1,2.9,0.8,4.5
		c0,0.2-0.1,0.4-0.1,0.7c-0.7,2.4-3.6,2.2-4.9,3.9c-1-0.4-1.5-2.2-3.1-1c-2.4-2-5.3-3.4-6.9-6.3c-0.5-0.8-1.3-1.7-2.4-1.4
		c-0.5,0.1-1.2,0.8-1.3,1.3c-0.2,1.4,0.9,2,2.1,2.3c2.9,0.7,2.5,2.9,2.4,5.3c-2.3-3.1-2.3-3.1-6.2,0.2c-1-1.9-2.2-3.8-4.3-4.7
		c-0.5,1.4-1,2.8-1.4,4.2C17.3,81.3,16.7,80.6,16,79.9z"/>
	<path class="st173" d="M14.9,53c0.9-6,4.1-3.3,7-1.8c0.9,1.2,1,2.6,0.5,4c-0.8,1.4-1.9,2.6-3.5,3.2c-2.4-0.5-1.6-3.6-3.7-4.5
		C15.1,53.6,15,53.3,14.9,53z"/>
	<path class="st174" d="M15.2,53.9c2.8,0,2.3,3,3.9,4.1c0.9-0.2,1.3,0.1,1,1c-2.4-0.3-4.7,0.3-7,0.9C12.6,57.5,17.3,56.9,15.2,53.9z
		"/>
	<path class="st175" d="M21.9,49.3c-1.4-1.6-0.1-3.6-0.9-5.3c-0.4-0.8,0-1.3,0.6-1.8c1.7-0.7,3.6-1.8,3.5,1.5
		c-0.1,1.6,1.5,1.5,2.1,2.3c0.2,1.1-0.3,1.9-1,2.6C24.9,49.8,23.5,50.2,21.9,49.3z"/>
	<path class="st176" d="M10,44c1-1.4,0.2-2.7-0.1-4.1c2.1,0.2,3.3,2.1,5,2.9c-1.1,0.8-1,2-1.1,3.1c-0.3,0.3-0.7,0.4-1.1,0.2
		C11.8,45.6,10.8,44.9,10,44L10,44z"/>
	<path class="st177" d="M22.1,42.9c-0.4,0.4-0.7,0.7-1.1,1.1c-1.1-1.1-0.7-2.6-1.1-3.9c0.4-0.4,0.8-0.8,1.2-1.2
		c0.7-1.1,1.6-1.7,2.9-1.1c0.3,0.3,0.5,0.8,0.6,1.2C24.7,40.8,22.7,41.4,22.1,42.9z"/>
	<path class="st84" d="M22,55c0-1.3-0.8-2.5,0-3.8c0-0.3,0.1-0.7,0.1-1c1.2-1.3,2.1-0.3,3.1,0.4c0.6,1.5-1.7,2.9-0.1,4.4
		c-0.8,0-1.6,0.2-2,1C22.1,56.2,21.7,55.9,22,55z"/>
	<path class="st178" d="M25.3,51.1c-1.1-0.3-2.2-0.6-3.3-0.9c-0.1-0.3-0.1-0.6-0.1-0.9c1.3-0.4,2.7-0.9,4-1.3
		c0.7-0.5,1.5-0.6,2.3-0.1c0.7,1,0.7,2.1,0.1,3.1C27.3,51.8,26.3,51.9,25.3,51.1z"/>
	<path class="st179" d="M13.2,46c0.3,0,0.5,0,0.8,0c-1.3,1.3-2.6,2.7-3.8,4c0-1.3,0-2.6,0.1-3.9C11.2,45.1,12.2,45.2,13.2,46z"/>
	<path class="st180" d="M13.2,46c-1,0-2,0-2.9,0c-0.4,0-0.9,0-1.3-0.1c-1.2-1.5,1.6-0.9,1.1-2.1C11.5,43.9,12.9,44,13.2,46z"/>
	<path class="st181" d="M65,6c0.4,0.8,1.1,1,1.9,0.9c0.6,1,2.5,1.4,1.1,3.1c-0.8,1.1-1.8,1.5-3.1,1.2c-1.3-0.7-2.6-1.4-1.9-3.3
		C63.6,7.3,64.3,6.6,65,6z"/>
	<path class="st182" d="M63,7.9c0.7,1,1.3,2.1,2,3.1c-0.2,0.1-0.3,0.3-0.5,0.4c-0.9,0.4-1.8,0.3-2.5-0.5c0-0.7,0-1.3,0-2
		C62.3,8.7,62.6,8.3,63,7.9z"/>
	<path class="st183" d="M58,8.9c0-0.3-0.1-0.5,0-0.8c0.3,0.3,0.6,0.6,1,0.9C58.6,9,58.3,8.9,58,8.9z"/>
	<path class="st184" d="M65,11.1c1-0.4,2-0.7,3-1.1c2.2,0.2,4.2,0,6.1-1.2C74.7,8.3,75.4,8,76.2,8c1.6,0.1,3.2,0.2,3.6,2.2
		c0,0.6,0,1.1,0,1.7c0.9,1.9-0.8,1.7-1.7,2.3c-0.7,0.2-1.3,0.3-2,0.4c-2.5-0.3-1.1,2.3-2.2,3c-1.2,0.9-2.4,1.5-3.9,0.7
		c-1.4-2.3-4.1-1.7-6-2.9c-0.5-0.6-0.7-1.2-0.7-2C63.3,12.2,64.1,11.6,65,11.1L65,11.1z"/>
	<path class="st185" d="M76,8.6c-0.6,0-1.3,0.1-1.9,0.1c-3.3-2.2,1.3-1.5,1-2.7c0.3-0.1,0.6,0,1,0.1C76.8,7,76.8,7.8,76,8.6z"/>
	<path class="st186" d="M76,8.6c0-0.8,0-1.6,0-2.5c0.9,0.1,1.9,0.1,2.8,0.2c0.7,0.5,1.4,1,2.2,1.6c-0.1,0.9-0.3,1.7-1.1,2.2
		C78.8,9.1,77.5,8.7,76,8.6z"/>
	<path class="st187" d="M55.8,123c-0.6,0-1.3,0-1.9,0c-0.4-0.4-1.1-0.6-1.3-1.3c0.1-1.2,0.9-1.9,1.8-2.5c1.1-0.7,2.1-1.7,3.6-1.3
		c0.4,0.2,0.8,0.5,1.1,0.9c1,1.3,2.3,2.6,0.6,4.2c0,0,0.1,0,0.1,0c-0.7,0-1.3,0-2,0.1C57.3,123.6,56.5,123.6,55.8,123z"/>
	<path class="st188" d="M55.8,123c0.7,0,1.4,0,2.1,0c0,1.8-1.2,2.3-2.8,2.2C51.9,123.4,57,124.1,55.8,123z"/>
	<path class="st189" d="M46.9,123c-0.3-1-1.1-0.9-1.9-1.1c0.1-1.5,0.8-1.9,2.2-1.4c1.4,0.5,1.6-0.5,1.7-1.5c0.4-0.2,0.8-0.3,1.2-0.1
		c1.3,0.9,1.4,2,0.3,3.2c-0.6,0.6-1.5,0.5-2.2,0.8C47.8,122.9,47.4,123,46.9,123z"/>
	<path class="st190" d="M48.3,122.9c0.2-1,1.2-0.5,1.7-1c0.9-0.6,1.8-0.8,2.7-0.2c0.4,0.4,0.8,0.8,1.2,1.2c-1.3,0.1-2.8-0.5-4,0.6
		C49.4,123.4,48.9,123.1,48.3,122.9z"/>
	<path class="st191" d="M64,12.8c0,0.7,0,1.3,0,2c-0.1,0.8-0.6,1.3-0.9,2c-0.2,0.5-0.5,1.1-0.8,1.5c-0.7,0.7-1.4,1.5-2.2,2.1
		c-0.8,0.4-1.7,0.5-2.6,0.1c-0.4-0.2-0.8-0.5-1-0.9c-0.5-1.1-0.5-2.3-0.2-3.5c0.2-0.4,0.5-0.8,0.9-1.1c0.6-0.4,1.3-0.9,1.9-1.3
		c1.1-0.1,2.5,0.4,2.9-1.4C62.6,12.2,63.3,12.3,64,12.8z"/>
	<path class="st192" d="M64,12.8c-0.7-0.1-1.4-0.3-2.1-0.4c0.1-0.5,0.1-0.9,0.2-1.3c1,0,2,0,3,0C64.6,11.6,64.3,12.2,64,12.8z"/>
	<path class="st193" d="M45.9,19.1c0.1-2.8,2-3.1,4.2-3c0.1,2,1.6,1.9,3,1.9c0.4,1.6,0.5,3.3,2.3,4.1c0.5,0.4,0.9,1,1,1.7
		c-0.2,1.1-1,2-1.5,3c-0.6,1-1.1,2.2-2.2,2.8c-0.9,0.4-1.9,0.6-2.9,0.6c-2-0.1-4.1,0.3-5.2-2c-0.1-1.5,0-3.1-1.5-4.1
		c-0.2-0.4-0.3-0.8-0.2-1.2C43.8,21.7,44.8,20.3,45.9,19.1z"/>
	<path class="st194" d="M55.1,23c-2.4-0.9-5-1.8-2.1-4.9c0.6-0.3,1.3-0.7,1.9-1c1.3,0.6,1,2.3,2.1,2.9L57,20.1
		C57.4,21.8,55.9,22.1,55.1,23z"/>
	<path class="st195" d="M57.1,15.1c-0.1,0.2-0.1,0.5-0.2,0.7c-0.4,0.8-1,0.8-1.7,0.5c0.5-1.6-3.8-0.8-1.7-2.8
		C54.7,12.3,56.7,12.7,57.1,15.1z"/>
	<path class="st196" d="M55.1,16.3c0.6-0.2,1.2-0.4,1.7-0.5c0.1,1.4,0.1,2.8,0.2,4.1c-2.7,0.5-1.9-1.6-2.1-2.9
		C55.1,16.8,55.2,16.6,55.1,16.3z"/>
	<path class="st197" d="M45.9,19.1c-0.4,1.7,0.1,4.1-2.8,4c-1-0.2-1.5-0.9-1.9-1.7c-0.3-0.8-0.8-1.6-0.2-2.4c0.7-0.7,1.3-1.4,2-2.1
		C44.5,16.9,45,18.3,45.9,19.1z"/>
	<path class="st198" d="M32.8,18c0-1.5,1.5-1.9,2.1-3c1,0,1.9-0.1,2.9-0.1c0,1,0,2,0,3c-0.3,0.4-0.7,0.7-1.2,0.8
		c-1,0.3-1.9,0-2.7-0.6C33.6,18.1,33.2,18.1,32.8,18z"/>
	<path class="st199" d="M36.9,18.2c0.3-0.1,0.7-0.2,1-0.2c1,0.3,2.1,0.7,3.2,1c0.3,0.7,0.6,1.3,0.8,2c-1,1-1.9,0.3-2.9-0.2
		c-0.7-0.5-1.4-0.9-2-1.5C36.7,19,36.7,18.6,36.9,18.2z"/>
	<path class="st200" d="M23.9,37.6c-0.9,0.4-1.9,0.8-2.8,1.2c0-1.2,0-2.4,0-3.6c0.3-0.1,0.6-0.2,0.8-0.4c0.4-0.3,0.8-0.4,1.3-0.3
		c1,0.3,1.4,1.1,1.4,2.1C24.5,37,24.3,37.4,23.9,37.6z"/>
	<path class="st201" d="M22.7,34.8l-0.4,0c0,0-0.4,0-0.4,0c-0.3-0.7-0.7-1.3-1-2c0-1.3,0.1-2.5,0.1-3.8c2.3-0.3,2.7,1.4,3,3
		C24,33.2,23.9,34.2,22.7,34.8z"/>
	<path class="st202" d="M23.1,32.2c-0.1-1.5-0.6-2.6-2-3.2c-0.1-0.3-0.1-0.6,0.1-1c1.3-0.7,2.5-1.4,3.8-2.1c0.7,0,1.3,0.4,1.7,0.9
		c0.6,0.7,1,1.5,0.5,2.5C25.9,30.5,25.2,32.4,23.1,32.2z"/>
	<path class="st203" d="M26,27.1c-0.4-0.4-0.7-0.8-1.1-1.2c0.4-1.5,0.7-3,2.1-4c2.6,0.3,1.8,2.2,1.7,3.7
		C28.1,26.8,27.3,27.4,26,27.1z"/>
	<path class="st204" d="M27.9,25.9C27.8,24.5,28.5,23,27,22c0-0.3,0.1-0.6,0.2-0.9c3.3-0.4,3.6,1.4,2.8,4c-0.1,0.6-0.5,1.1-1.1,1.3
		C28.5,26.4,28.2,26.2,27.9,25.9z"/>
	<path class="st205" d="M31,25c0.7-1,1.3-2,2-3c0.6-0.6,1.4-0.6,2.1-0.3c1,1,1.3,2.2,1.6,3.5c0.3,2.1-0.5,3.5-2.8,3.7
		c-0.5,0-1-0.1-1.4-0.3C31.2,27.8,31.3,26.3,31,25z"/>
	<path class="st206" d="M31,25c1.5,0.6,1.8,1.7,1.1,3.1c0.5,0.9,0.1,1.6-0.3,2.4c-0.2,0.4-0.5,0.7-0.9,0.9c-0.4,0.1-0.9,0-1.3-0.1
		c-0.6-0.4-1-0.9-1.2-1.5c-0.4-1.4,0.3-2.5,0.6-3.8c0.3-0.3,0.7-0.6,1-0.9C30.4,25,30.7,25,31,25z"/>
	<path class="st207" d="M34.9,22c-0.6,0-1.2,0-1.9,0c0.3-1.3,0.7-2.6,1-3.9c1,0,1.9,0,2.9,0c0.1,0.3,0.1,0.5,0.2,0.8
		C37.9,21.1,37.2,22.1,34.9,22z"/>
	<path class="st208" d="M70.2,17.8c1.2-0.3,2.3-0.5,3.5-0.8c0.3-0.4,0.7-0.6,1.2-0.7c1,0,1.8,0.5,2.6,1c1.9,1.6,4,2,6.4,1.5
		c1.5,0,3-0.2,4,1.4C88.4,22,89.7,23,91,24c0.1,2-1.6,4.7,2.3,5.2c1.5,0.2,1.7,1.9,1.9,3.2c0.4,2.7-5.6,11-8.5,11.7
		c-0.7,1-0.7,1.9,0.1,2.8c5.7-1.7,5.5,3,7,6c-1.8,1.4-3.3-0.5-4.8,0.1c-5.5-1.6-11-2.7-16.7-2c-0.4-0.2-0.7-0.6-0.7-1.1
		c0.8-2.6,1.3-5.4,3.4-7.4c1.9-1.2,3.5-2.9,5.3-4c-0.4-0.1,0.5-0.1,0.4-0.1c-3.4,0.2-4-1.1-1.8-3.6c3.3-3.7,3.2-5.9-0.4-9.1
		c-2.4-2.1-5-3.8-7.9-5c-0.7-0.4-1-1-1-1.8C69.5,18.4,69.8,18.1,70.2,17.8z"/>
	<path class="st209" d="M73.1,51.9c5.1,0,10.3-0.7,13.9,4.4c1.1,1.6,3.5,0.8,5,1.7c-1.8,2.6-3.7,5.2-2.3,8.7c0,0.5-0.1,0.9-0.3,1.4
		c-1.5,2-3.5,1.2-5.4,0.8c-2.2-0.8-2.7-2.4-2.1-4.5c0.3-1,1-1.8,1.4-2.7c0.2-0.8,0.2-1.5,0.4-2.3c0.2-2.3-1.9-2.9-3.2-4.1
		c-1.6-1.5-3.6-1.1-5.5-0.9c-1,0-1.8-0.5-2.3-1.3C72.6,52.6,72.7,52.2,73.1,51.9z"/>
	<path class="st210" d="M89,67c-1.8-3.9-2.1-7.3,3-9c1.8-0.2,2.6,1.4,3.9,2c0.1,0.6,0.1,1.2,0.2,1.8c-0.2,0.3-0.5,0.6-0.9,0.8
		C94,67.8,93.4,68.3,89,67z"/>
	<path class="st211" d="M73.1,51.9c0,0.3-0.1,0.6-0.1,1c0.6,0.9,0.9,1.9,0.4,3c-1.1,1.4-2.6,1.7-4.3,1.6c-0.8-0.3-1.4-0.8-1.7-1.6
		c-0.4-1.1-0.3-2.1,0.4-3c1.3-1.1,2.8-1.1,4.4-1C72.5,51.8,72.8,51.8,73.1,51.9z"/>
	<path class="st212" d="M72.2,51.8c-1,1.7-2.7,1.2-4.2,1.2c-0.7-0.7-0.8-1.5-0.5-2.4c1.3-1.8,2.8-1.9,4.4-0.4c0,0.3,0.1,0.6,0.3,0.8
		C72.2,51.3,72.2,51.5,72.2,51.8z"/>
	<path class="st213" d="M86.9,46.9c-0.5-0.1-1.6,0.3-1.3-0.8c0.2-0.7-0.6-2.2,1.2-2C86.8,45.1,86.8,46,86.9,46.9z"/>
	<path class="st214" d="M89,67c3.9,0.6,5.2-1.5,5.2-5c0-0.1,0.2-0.2,0.4-0.2c0.1,0,0.3,0.1,0.4,0.2c0.9,0.8,1,2,1.4,2.9
		c2.1,1.2,3.6,3.7,6.6,3.1c1.1,0.1,2.3-0.3,2.9,1.1c-1.9,1.8-2.2,4.9-4.9,5.9c-1.4,0.9-2.1,0.1-2.4-1.1c-0.4-1.2-1.1-1.4-2.2-1
		c-0.6,0.3-1.2,0.6-1.8,0.7c-0.5,0.1-1,0.2-1.5,0.2C87,74.1,86.6,73.5,89,68C89,67.7,89,67.3,89,67z"/>
	<path class="st215" d="M97,85c-1.3,0.6-2,1.5-2,3c-0.6,0-1.7,1.2-1.7-0.4c0-2,0.2-3.9-1.3-5.5c-0.1-0.2-0.2-0.4-0.3-0.5
		c-0.2-1.3-0.4-2.6-0.3-3.9c0.6-1.7,1.4-3.3,3.3-4c1-0.2,1.8,0.1,2.6,0.6c0.5,0.4,0.9,0.9,1.1,1.5c0,1,0.4,1.9,1.4,2.2
		c0,0.7,0.1,1.4,0.1,2c-0.3,0.3-0.6,0.7-0.9,1C98.4,82.3,97.7,83.6,97,85z"/>
	<path class="st216" d="M98,75.7c-0.3-0.2-0.6-0.5-0.9-0.7c-0.8-0.9-1-2-1.1-3.1c4.4-3.3,2.7,3.2,5,3.2c-0.3,0.3-0.6,0.6-0.9,0.9
		C99.3,76.6,98.6,76.5,98,75.7z"/>
	<path class="st217" d="M98,75.7c0.7,0.1,1.4,0.2,2.1,0.3c-0.1,0.6-0.1,1.3-0.2,1.9c-0.7,0.5-1.4,1.6-2.4,0.6
		C96.5,77.5,97.2,76.5,98,75.7z"/>
	<path class="st218" d="M103,68c-2.2,2.4-2.3,2.5-3.6-0.1c-0.8-1.5-3.5-0.3-3.4-2.7c0.3-0.6,0.8-0.7,1.3-0.3
		C99.5,65.4,101.4,66.3,103,68z"/>
	<path class="st219" d="M97.3,65c-0.4,0.1-0.9,0.2-1.3,0.3c-1.1-0.9-1-2.1-0.9-3.3c0.4,0,0.7-0.1,1.1-0.1
		C97.2,62.7,97.1,63.8,97.3,65z"/>
	<path class="st220" d="M117,38.1c0.5,1.4,2.3,3-0.7,3.9C115.8,40.6,115.3,39.2,117,38.1z"/>
	<path class="st221" d="M97,15.9c0-0.2,0-0.3,0-0.5c0.4-0.1,0.6,0.1,0.8,0.4C97.5,15.8,97.2,15.9,97,15.9z"/>
	<path class="st222" d="M79.2,89.8c-1.1,4.4-2.1,8.8-3.2,13.2c-0.2,0.2-0.4,0.3-0.6,0.5c-1,0.4-1.9,0.3-2.8-0.2
		c-1.1-0.8-1.5-1.9-1.6-3.2c0-0.7,0.2-1.4,0.5-2.1c2.5-1.9,1.4-5,2.5-7.3c0.4-1,0.5-2.1,0.5-3.1c0.1-0.5,0.4-0.8,0.7-1.1
		c0.4-0.2,0.9-0.3,1.3-0.4c1,0,2,0.1,2.7,0.9C79.9,87.9,79.9,88.9,79.2,89.8z"/>
	<path class="st223" d="M79.2,89.8c-0.1-0.9-0.1-1.8-0.2-2.7c-0.4-2.5,2.6-3.3,2.8-5.5c0.4-0.6,1-1,1.7-1.2c1.2,0,2.7-0.3,2.5,1.7
		c-1.7,2.4-2.9,4.9-3,7.9C81.7,89.9,80.5,89.8,79.2,89.8z"/>
	<path class="st224" d="M82.1,107c0.3,0.6,0.6,1.1,0.9,1.7c-0.2,0.5-0.6,0.8-1.1,1c-1,0.3-2,0.2-3-0.3c-1.8-1.3-4.2-2.3-3.7-5.2
		c0.2-0.5,0.4-0.9,0.8-1.3c0,0,0,0,0,0c2,1.2,4-1.5,5.9,0.1C82.7,104.4,80.3,105.8,82.1,107z"/>
	<path class="st225" d="M82.1,107c-1.9-1.3-1.2-2.6-0.1-3.9c0.7-0.1,1.4-0.2,2.1-0.3c1,0.4,1.9,0.8,2.9,1.2c0.6,0.6,0.6,1.2,0.1,1.9
		C85.1,105,83.6,106.2,82.1,107z"/>
	<path class="st226" d="M86,82c-0.6-1.2-1.8-1-2.9-1.1c-0.4-0.2-0.7-0.5-0.9-0.9c-0.5-0.9-0.8-2-1.4-2.9c-1.5-1.8-3.8-3.3-3-6.2
		c1.5-1.7,4-1,5.7-2.1c0.1-0.4,0.2-0.7,0.5-0.9c1.7-0.3,3.3,1.1,5,0c0.2,0.4,0.8,1,0.7,1.2c-2.6,4.1-0.6,4.2,2.8,3.4
		c0.7-0.2,1.6,0.3,2.4,0.4c0.3,0.2,0.4,0.4,0.3,0.6C95.1,73.9,95,74,95,74c-1,1.3-2,2.7-3,4c-0.3,0.3-0.6,0.6-1,0.7
		c-0.7,0.2-1.5,0.1-2,0.8c-0.2,0.5-0.3,1.1-0.5,1.6c-0.3,0.5-0.8,0.9-1.4,1C86.7,82.1,86.3,82.1,86,82z"/>
	<path class="st227" d="M87,82.1c0.3-0.4,0.6-0.8,0.9-1.2c1.6-0.6,2.9-0.2,4,1c0,0,0,0.1,0,0.1c-0.3,0.7-0.7,1.3-1,2
		C89.4,84,86.7,86.3,87,82.1z"/>
	<path class="st228" d="M87.1,105.9c0-0.6-0.1-1.2-0.1-1.9c0.9,0.1,2-0.3,2.5,0.7c0.4,0.7-0.3,1.1-0.8,1.4
		C88.2,106,87.6,106,87.1,105.9z"/>
	<path class="st229" d="M82.1,109c0.3-0.1,0.6-0.2,0.9-0.3c1.7,0.3,3.6,0,4.9,1.4c0.8,0.8,1,1.7,0.6,2.7c-1.1,3.1-3.8,1.4-5.7,1.9
		c-1.7-0.4-3.4-1-3.3-3.2C79.8,110.1,82.1,110.8,82.1,109z"/>
	<path class="st35" d="M88.1,113.1c0-1-0.1-2-0.1-3c0.7-0.1,1.4-0.1,2.1-0.2c0.1,1.2,0.2,2.4-0.9,3.1
		C88.7,113.4,88.4,113.4,88.1,113.1z"/>
	<path class="st230" d="M88.1,113.1c0.3,0,0.6,0,1,0c0.3,0.6,0.6,1.2,0.9,1.8c-2.4,0.9-5.1,1.1-7,3.1c-0.3,0-0.6,0-0.9,0
		c-1.6,0.5-2.1-0.5-2.3-1.7c0.4-1.7,1.9-1.8,3.3-2.2C84.4,112.5,86.5,114.3,88.1,113.1z"/>
	<path class="st231" d="M83,119.1c0-0.4,0.1-0.8,0.1-1.1c0.6,0.3,1.2,0.6,1.8,0.9C84.3,118.9,83.7,119,83,119.1z"/>
	<path class="st232" d="M52,82c-3.6,3-5.8,1.7-7-4c1.4-1.3,3-1.2,4.6-0.6C51.3,78.4,52.4,79.8,52,82z"/>
	<path class="st233" d="M50,78c-1.7,0-3.3,0-5,0c-0.3,0-0.7,0.1-1,0.1c0.1-0.2,0.2-0.3,0.3-0.5c-0.4-1.6-0.5-3.1,0.4-4.6
		c1.1-0.8,2.5-0.7,3.6-1.5c2-0.6,2.5,1.3,3.7,2.1c0.7,1.2-0.3,2-0.8,2.9C50.9,77.1,50.6,77.7,50,78z"/>
	<path class="st234" d="M58.2,86.8c-1.4-0.3-2.8-0.5-4.2-0.8c-0.1-1.6,1.6-3.3-0.1-4.9c-0.5-1,0.1-1.7,0.8-2.3
		c0.4-0.2,0.8-0.2,1.3-0.1c1.2,0.9,2.4,1.8,3.2,3.1c0.2,1,0.1,2.1,0.4,3.1C59.6,85.8,59,86.4,58.2,86.8z"/>
	<path class="st235" d="M36,81c-0.1-1.3,0.6-1.5,1.8-1.5c2,0.1,0.9,1.6,1.3,2.5c0.1,0.5,0.4,1.1,0.3,1.4c-0.5,0.8-1.1,0.3-1.5-0.2
		C37.2,82.5,36.6,81.7,36,81z"/>
	<path class="st236" d="M50,78c0-0.6,0-1.2,0-1.9c0.3-0.5,0.8-0.6,1.3-0.3c1.3,1.5,3.1,2.7,1.7,5.1c-0.3,0.3-0.7,0.7-1,1
		C51.4,80.6,49.9,79.7,50,78z"/>
	<path class="st237" d="M53,81c0.2-2-2-2.8-2.1-4.7c2.6-1.1,3.8,0,4.1,2.6c-0.4,0.7-0.8,1.4-1.1,2.2C53.6,81,53.3,81,53,81z"/>
	<path class="st238" d="M32,91c-1.6-1-4.6-0.8-4-4C30.1,87.6,31.5,88.9,32,91z"/>
	<path class="st239" d="M49,93.7c1.1,0.5,4,0.1,1.2,2.5c-1,0.6-2,0.7-2.9-0.3c-0.1-0.3-0.3-0.6-0.4-0.9c0.2-0.2,0.3-0.4,0.3-0.7
		C47.5,93.3,48.3,93.5,49,93.7z"/>
	<path class="st240" d="M45,95c-2.1,0.5-3.9,0.2-5-2C42,92.9,43.7,93.4,45,95z"/>
	<path class="st241" d="M49,93.7c-0.6,0.2-1.2,0.4-1.8,0.6c-0.4-1.3-2-2.4-0.6-3.9c0.5-0.5,1.2,0.1,1.6,0.6
		C47.9,92.1,48.6,92.9,49,93.7z"/>
	<path class="st242" d="M34,109c-2-0.9-3.9-1.9-5-4c-0.5-0.5-0.6-1-0.2-1.6c4.4-4,9-5.3,14.5-1.8c2.8,1.8,9-1.9,9.7-5.3
		c0.4-2,0.5-4,3.2-4.2c2.2,2.1,5.1,1.4,7.7,2.2c1.6,0.6,3.2,1.3,4.4,2.6c0.5,0.9,0.6,1.9,0.1,2.8c-3.3,0.6-6.3,3.1-9.9,2
		c-2.4-0.7-2.3,1-2.2,2.6c-0.2,0.7-0.7,1.2-1.5,1.4c-2.8-0.1-5.6-0.1-8.3,0.1c-1.8-0.4-3.6-0.7-4.3,1.7c-0.3,1.1-0.5,2.2-1.7,2.8
		C38.1,111.2,36.2,109.4,34,109z"/>
	<path class="st243" d="M64,95.1c-1.9,0-3.8-0.1-5.7-0.1c-2.1,0-2.3-1.3-2.1-2.9c0.6-0.4,1.2-0.8,1.7-1.2c1-1.1,1.5-2.5,2.8-3.3
		c0.4-0.2,0.8-0.2,1.2-0.2c0.6,0.1,1.1,0.5,1.4,1.1c0.3,1,1.1,1.6,2,2.1c0.5,0.4,1,0.9,1.3,1.5c0.4,1.1,1.2,2.2,0.1,3.3
		C65.8,95.6,64.9,95.6,64,95.1z"/>
	<path class="st244" d="M61.1,88c-0.9,1.1-0.9,3.2-3.1,3c-1.4-1.8-0.2-2.8,1-3.8C60.1,86.3,60.9,86.4,61.1,88z"/>
	<path class="st245" d="M61.1,88c-0.5-0.9-1.2-1.1-2.1-0.9c-0.3-0.1-0.5-0.2-0.8-0.3c0.3-0.6,0.7-1.3,1-1.9c0.7-1,1.7-1.4,2.8-1.6
		c0.7,0,1.3,0.1,1.9,0.6c0.3,0.3,0.4,0.7,0.4,1.2c-0.6,1.1-1.3,2.1-2.2,3l-0.5,0L61.1,88z"/>
	<path class="st246" d="M47.3,95.9c1,0.1,1.9,0.2,2.9,0.3c-0.5,0.9,1.3,2.8-1.3,2.7C46.6,98.8,46.9,97.4,47.3,95.9z"/>
	<path class="st142" d="M28.8,103.4c0.1,0.5,0.1,1.1,0.2,1.6c-1.7-0.9-2.9-2.3-4-3.8C27,100.6,27.6,102.6,28.8,103.4z"/>
	<path class="st247" d="M34,109c2.3-0.8,4.1,0.5,6,1.2c0.6,0.6,0.7,1.2,0.6,2c-0.1,0.5-0.4,0.9-0.8,1.2c-1,0.4-1.9,0.3-2.6-0.5
		c-0.4-0.3-0.8-0.7-1.1-1C36.4,110.3,34.7,110,34,109z"/>
	<path class="st248" d="M39.9,120.2c-0.3-0.1-0.6-0.2-0.9-0.3c0-1,0-2,0-3c0,0,0,0.1,0,0.1c1.3-0.8,2.6-1.2,3,1
		C41.3,118.7,40.6,119.4,39.9,120.2z"/>
	<path class="st249" d="M37.2,112.9c1,0,1.9,0,2.9,0c2.6-0.1,4.3,1,5.1,3.5c-2.2,2-4.1-0.4-6.1-0.6
		C38.5,114.9,37.9,113.9,37.2,112.9z"/>
	<path class="st250" d="M39.1,115.9c2-0.7,3.8,1.6,5.8,0.2c1.8-0.6,2.3,0.4,2.2,1.9c-1.7,0-3.4-0.1-5.1-0.1c-0.8-1.1-1.8-1.2-3-1
		C39,116.6,39.1,116.3,39.1,115.9z"/>
	<path class="st251" d="M47.1,118c-0.3-1.1-1-1.8-2.2-1.9c-1.6-1-3.2-2.1-4.8-3.1c-0.1-0.3-0.1-0.6,0.1-0.9c0.4-0.6,1-0.8,1.7-0.8
		c1.7,0.2,3.5-0.5,5.2,0.1c1.5,0.6,3,1.2,4.1,2.4c0.5,1.7,0,3.3-0.8,4.8c-0.2,0.1-0.4,0.3-0.6,0.4l-0.5,0c0,0-0.5,0-0.5,0
		C48.4,118.7,47.7,118.4,47.1,118z"/>
	<path class="st252" d="M87.8,20.3c-1.6-0.2-3.3-0.3-4.9-0.5c-0.3-0.3-0.5-0.7-0.7-1.1c-0.1-0.7,0-1.3,0.1-2
		c0.4-1.2,0.4-2.6,1.4-3.5c0.4-1,1.3-1.2,2.2-1.1c-0.4,1.8,0.5,2.9,1.9,3.7C87.9,17.2,87.9,18.7,87.8,20.3z"/>
	<path class="st253" d="M83.8,13.1c0.2,1.3,0.7,2.7-0.7,3.7c-0.6,0.1-1.2,0-1.8-0.3c-0.4-0.2-0.6-0.6-0.6-1c0.2-0.7,1.1-1.1,0.7-2
		c-0.1-0.6,0-1.1,0.6-1.5C82.6,12.5,83.2,12.8,83.8,13.1z"/>
	<path class="st254" d="M82,12.1c0,0.6,0,1.2,0,1.8c-1.9,1-3.8,2.5-5-0.8c0.9-0.6,2.3,0,2.8-1.3C80.6,11.9,81.3,12,82,12.1z"/>
	<path class="st255" d="M65,120.2c0.3,0.3,0.6,0.6,0.9,0.9c-1.2,1.5-3.2,1.3-4.8,1.9c-0.4-0.3-0.6-0.6-0.4-1.1
		c0.6-1.3,1.6-2.2,3.1-2.4C64.4,119.5,64.7,119.7,65,120.2z"/>
	<path class="st256" d="M61.1,122.2c0,0.2,0.1,0.5,0.1,0.8c-0.4,0-0.8,0-1.2-0.1c0.6-1.9-1-2.7-1.9-3.9c0.8-0.8,1.2-2.1,2.6-2.1
		c1,0.5,1.3,1.4,1.3,2.5C61.9,120.4,61.5,121.3,61.1,122.2z"/>
	<path class="st257" d="M82.9,114.1c-1,0.7-1.9,1.3-2.9,2c-0.8,0.9-0.9,2.3-2.1,2.8c-1.3,0.9-2.6-2.2-4-0.1
		c-0.6,0.1-1.2,0.2-1.7,0.4c-0.4-0.1-0.7-0.1-1.1-0.2c-1-1-1.9-1.9-2.6-3.1c-0.2-0.4-0.2-0.9-0.3-1.4c0.2-1.7,1.3-2.3,2.8-2.6
		c1.1-0.2,2-0.7,2.9-1.4c0.4-0.2,0.8-0.4,1.2-0.6c1.3-0.4,2.6-1,4-0.4c0.7,0.2,1.3,0.6,0.9,1.5C79.8,113.1,82.1,112.9,82.9,114.1z"
		/>
	<path class="st258" d="M77.9,118.9C78,117.5,78,116,80,116c0.4,0.9,1,1.6,2,2c-0.4,0.8-1.2,1-2.1,1C79.3,119,78.6,118.9,77.9,118.9
		z"/>
	<path class="st259" d="M68.9,115.1c0.2,0.2,0.3,0.4,0.3,0.6c0.8,1.4,0.3,2.4-1.1,3.1c-0.3,0.1-0.7,0.1-1,0.2c0,0-0.4-0.1-0.4-0.1
		c-0.6-0.9-1.4-1.7-1.9-2.7c-0.2-0.7,0-1.3,0.4-1.8c0.5-0.7,1.1-1.3,1.9-1.7C68.8,112.8,68.3,114.3,68.9,115.1z"/>
	<path class="st260" d="M68.1,118.8c0.4-1,0.7-2.1,1.1-3.1c1.8,0.4,1.9,1.8,1.9,3.3C70.1,118.9,69.1,118.9,68.1,118.8z"/>
	<path class="st261" d="M65,115.9c1.8,0.3,2.1,1.5,1.7,3c-0.6,0.4-1.2,0.8-1.8,1.3c-0.3-0.1-0.6-0.2-0.9-0.3
		c-0.8-0.8-2.3-0.1-2.9-1.2c0.1-0.9-0.2-1.5-1.1-1.7c-0.1-0.2-0.1-0.4-0.2-0.6c0.3-0.9,1.1-1.2,1.9-1.4
		C63,114.6,64.3,114.4,65,115.9z"/>
	<path class="st262" d="M30.2,54.1c-0.5-0.1-0.9-0.1-1.4-0.2c-0.6-0.8-0.8-1.7-0.3-2.6c0.7-1.7,1-3.5,1.9-5c0.6-0.9,1.4-1.7,2.3-2.3
		c0.4-0.2,0.8-0.2,1.2,0c0.7-0.2,0.3,2.3,1.6,0.7c0.4-0.1,0.9-0.1,1.3,0c2.4,0.5,5.1-0.1,7.3,1.6c0.6,0.5,1,1,1.2,1.7
		c0.2,1.4-0.9,2-1.8,2.8c-0.7,0.5-1.5,1-2.3,1.4c-2.2,0.6-2.3,2.8-3.3,4.3c-2,0.6-2.5-0.7-2.9-2.1c-0.3-1.1-0.8-1.7-2-1
		c-0.5,0.4-1,0.7-1.6,1C31,54.3,30.6,54.3,30.2,54.1z"/>
	<path class="st263" d="M38,56.1c-1.6-3.2,0.2-4.5,3-5.1c1.7,0.7,3.5,0.7,5.2,1.1c1.5,0.4,3.1,0.7,4.7,0.8c0.7,0.1,1.4,0.2,2.1,0.4
		c1.1,0.4,2.3,0.7,3.1,1.6c0.2,0.8-0.2,1.3-0.8,1.7c-0.7,0.7-2.2-0.2-2.5,1.3c0.7,1.6-0.3,2.4-1.3,3.3C50.4,61.6,49,60.8,48,62
		l-0.5,0L47,62c-0.4-0.3-0.6-0.6-0.8-1c-0.7-1.7-0.2-4.1-2.9-4.5c-1.6,0-2.3,1.8-3.9,1.9c-0.7,0-1.3-0.5-1.7-1
		C37.6,56.9,37.7,56.4,38,56.1z"/>
	<path class="st264" d="M38.1,56.9c0.3,0.3,0.6,0.7,0.9,1c1.3,0.6,3,0.6,3.5,2.5c0.2,3.5-3.3,1.1-4.4,2.7L38,63
		c-1.8-0.3-4.1,2.1-5.2-1.2c-3.2-1.1-3.5-1.9-2.8-6.9C33,54.4,35,58.1,38.1,56.9z"/>
	<path class="st265" d="M58,69.7c-1.3-1.6-1.1-3.6-1.4-5.4c0.2-0.4,0.5-0.6,1-0.7c1.6,0.5,2.7,0.3,2.8-1.7c0.1-0.6,0.4-1.2,0.7-1.7
		c0.8-1.3-0.2-2.8,0.5-4.1c0.3-0.3,0.7-0.5,1.1-0.5c1.4,0.4,1.9,1.6,2.6,2.7c0.2,0.4,0.4,0.8,0.5,1.1c0.2,0.6,0.4,1.2,0.4,1.8
		c-0.2,0.8-0.7,1.5-1,2.2c-0.1,0.4-0.2,0.8-0.4,1.2c-0.3,1-0.8,1.9-1.4,2.8c-0.9,1-1.5,2.2-2.6,3c-0.6,0.3-1.3,0.4-2,0.2
		C58.5,70.5,58.2,70.1,58,69.7z"/>
	<path class="st266" d="M38.2,63.1c0.6-1.8,4.1,0.1,3.6-3c-0.9-1.9,0-3.5,1.1-5c4.5-0.4,3.9,2.9,4.2,5.7c-1.2,1.1-2.8,1.5-4.2,2.3
		C41.3,63.1,39.7,63.1,38.2,63.1z"/>
	<path class="st267" d="M38.1,56.9c-3.7,3.3-5.5-0.9-8.2-2c0.1-0.3,0.2-0.6,0.3-0.9c0.3,0,0.6-0.1,0.9-0.1c-0.2-0.8,2.5,0.9,0.9-1.1
		c0.8-1,1.3-2.3,2.7-2.5c2.2,1.3-0.6,5.3,3.3,5.6C38,56.4,38.1,56.6,38.1,56.9z"/>
	<path class="st268" d="M58,64.1c-0.5,0.1-0.9,0.1-1.4,0.2c-0.8,0-1.7,0-2.5-0.1c-1.1-0.8-1.2-1.9-0.9-3.1c0.3-0.9,0.8-1.5,1.7-1.9
		c1.9-0.5,3.4,0,4.6,1.6C59.8,62.3,60.1,63.8,58,64.1z"/>
	<path class="st269" d="M52,73.9c-1.6,0.1-2.2-2.4-4-1.8c-0.4,0.2-0.8,0.2-1.1,0c-0.2-0.4-0.2-0.8,0.2-1.1c4.1-1.4,6.4,3.4,10.2,2.9
		c0.1,0.2,0.3,0.4,0.4,0.6c0.3,1,0.2,1.9-0.5,2.7C54.7,77.1,53.4,75.4,52,73.9z"/>
	<path class="st270" d="M29,51c-0.1,1-0.1,1.9-0.2,2.9c-1.3,0.4-2.5,0.7-3.8,1.1c-3.4-1.6-0.1-2.6,0.3-3.9c0.9,0,1.7-0.1,2.6-0.1
		C28.3,50.6,28.6,50.6,29,51z"/>
	<path class="st271" d="M32.8,61.9c1.3,2.3,3.7-0.2,5.2,1.2c0,0.7,1.1,2.3-1,1.3c-2.5-1.2-4.2-0.1-5.6,2.4
		C30.8,64.5,32.2,63.3,32.8,61.9z"/>
	<path class="st272" d="M42,73c-0.1-2.6,2.9-3.9,2.1-7.5c2.3,2,0.3,4.2,2,5.3C44.9,72,44.4,74.3,42,73z"/>
	<path class="st273" d="M42,73c1.4-0.7,2.7-1.4,4.1-2.2c0.3,0.1,0.6,0.1,0.9,0.2c0,0.3,0.1,0.6,0.1,0.9c-0.4,0.9-1.4,0.6-2,1
		c-0.1,1.6,0,3.2-0.8,4.7C42.1,76.8,43.5,74.2,42,73z"/>
	<path class="st274" d="M23.9,62c0.4-1.4,0.8-2.9,2.4-3.4c0.3-0.1,1.2,0.7,1.3,1.1c0.2,1.7-0.9,2.6-2.5,3.1
		C24.6,62.7,24.1,62.6,23.9,62z"/>
	<path class="st275" d="M42.9,63.1c0.4-2.6,2.6-1.9,4.2-2.3c0,0.4,0,0.8-0.1,1.2C45.5,61.9,45,65.6,42.9,63.1z"/>
	<path class="st276" d="M40.9,75.9c-0.1,0.6,0.2,1.5-0.7,1.5c-1,0-2-0.6-2-1.7c0-0.4,0.8-1,1.3-1.2C40.6,74.2,40.9,75,40.9,75.9z"/>
	<path class="st277" d="M57.2,73.9c0-0.3,0-0.6,0-0.9c0.5-0.6,1.1-1.2,2-1.3c1.1,0.1,1.8,1,2.6,1.6c0.3,0.3,0.5,0.7,0.6,1.1
		c-0.1,0.5-0.3,0.8-0.7,1.1C60.8,76,59.9,76,59,75.8c-1-0.3-1.5-1.1-1.9-1.9L57.2,73.9z"/>
	<path class="st278" d="M54,60.9c0.1,1.1,0.1,2.2,0.2,3.4c-0.3,0.8-1.1,1.5-1.8,1.1c-0.4-0.2-0.4-1.4-0.5-2.1
		c-0.4-1,0.1-1.8,0.8-2.4C53.1,60.6,53.6,60.6,54,60.9z"/>
	<path class="st279" d="M22,55c0.3,0.3,0.7,0.7,1,1c-0.6,1.4-1.3,2.7-3,3c-0.3-0.3-0.7-0.7-1-1C20,57,21,56,22,55z"/>
	<path class="st280" d="M53,61c-0.4,0.7-0.8,1.4-1.2,2.2c-1-1.2-2.4-1.3-3.8-1.2c0.4-1.9,1.7-1.4,2.9-1.2C51.7,60.5,52.4,60.4,53,61
		z"/>
	<path class="st281" d="M59.1,71.7c-0.3,0.9-1,1.2-1.9,1.2c-0.6-1.3-0.4-2.4,0.8-3.3c0.4,0.1,0.7,0.2,1.1,0.4
		C59.6,70.6,59.6,71.2,59.1,71.7z"/>
	<path class="st282" d="M23.9,62c0.4,0.3,0.8,0.6,1.2,0.9c-1.2,0.9-2.4,0.8-3.5-0.2c-0.1-0.1,0-0.5,0-0.8
		C22.3,61.9,23.1,61.9,23.9,62z"/>
	<path class="st283" d="M25.2,67.9c0.4,0.9-0.2,1-0.6,0.9c-0.4,0-0.9-0.3-1.1-0.6c-0.3-0.5,0.2-0.9,0.7-0.9
		C24.5,67.4,24.9,67.7,25.2,67.9z"/>
	<path class="st284" d="M22.1,42.9c-0.2-1.7,1.4-2.5,1.9-3.9c2-0.7,3.1,0.8,4.3,1.8c0.2,0.4,0.4,0.9,0.5,1.4c0,1.6-0.4,2.9-2,3.7
		c-1.8,0.1-5.1,1.9-2.8-2.6C24.4,42.7,24.2,42.6,22.1,42.9z"/>
	<path class="st285" d="M26.8,46c0.4-1.3,0.9-2.6,1.3-3.9c2.5-1.4,3.8-0.1,4.9,2c-0.1,1.3-0.9,1.9-2.2,1.9c-0.9,0.9-1.7,2-3.2,2
		c-0.6,0-1.2,0-1.8,0C26.2,47.3,26.5,46.6,26.8,46z"/>
	<path class="st286" d="M28,41c-1.7,0.1-2.5-1.6-4-2c0-0.5-0.1-0.9-0.1-1.4c0-0.2,0.1-0.5,0.2-0.7c0.8-0.9,1.7-1.6,3-1.6
		c1.9,0.2,3.6,0.8,5.3,1.7c0.4,0.3,0.7,0.6,1,1c0.3,1.2-0.2,2.2-1,3.1C30.8,41.6,29.4,40.4,28,41z"/>
	<path class="st287" d="M27.7,48c0.6-1.4,1.6-2.2,3.2-2c0.6,2.1-0.6,3.6-1.9,5c-0.4,0-0.7,0-1.1,0C28.5,50,28.3,49,27.7,48z"/>
	<path class="st288" d="M62.2,16c0.2-1,1.2-0.8,1.8-1.2c1.9,1.3,6.1-2.1,6.2,3c0.1,0.2,0.1,0.4-0.1,0.5c-0.4,0.2-0.9,0.2-1.3,0.2
		C66.7,17.4,63.9,18.3,62.2,16z"/>
	<path class="st289" d="M75,17c-0.4,0-0.9,0-1.3,0c-0.3-1.3-1.6-2.6,0-4c1.3-1.2,1.3,1,2.2,0.8c0.6,0.3,1.1,0.7,1.4,1.3
		C77.3,16.7,75.8,16.4,75,17z"/>
	<path class="st290" d="M77,15c-0.4-0.4-0.7-0.8-1.1-1.2c0.1-0.6,0.4-1,1.1-0.7c1.4,1.7,3.3,0.7,5,0.8c1.2,1.4-1.1,0.9-1,1.7
		c-0.1,0.5-0.5,0.7-1,0.8C78.9,16.3,77.8,16,77,15z"/>
	<path class="st291" d="M58,117.9c-1,0.6-2,1.3-3,1.9c-1.7-0.9-3-1.9-2.6-4.1c0.6-1.4,1.8-1.7,3.1-1.8c0.8-0.1,1.5,0,2.2,0.2
		c0.7,0.2,1.3,0.7,1.6,1.4C59.2,116.5,58.9,117.4,58,117.9z"/>
	<path class="st292" d="M53,116c0.7,1.3,1.3,2.5,2,3.8c-0.7,0.6-1.5,1.3-2.3,1.9c-0.9,0.1-1.8,0.1-2.7,0.2c0.7-1,0.6-2-0.1-2.9
		c0,0,0.1,0,0.1,0C51.2,118.2,50.6,115.6,53,116z"/>
	<path class="st293" d="M58,117.9c0.1-0.8,0.1-1.5,1.1-1.8c0.6,0,0.7,0.6,1.1,0.9c0,0,0,0,0,0c0,1.4-0.8,2-2.1,2.1
		C58,118.6,58,118.3,58,117.9z"/>
	<path class="st294" d="M62.2,16c2.1,1.3,5.1-0.5,6.8,1.9c-0.6,1.9-2.2,2.7-3.6,3.8c-1.5,0.7-3,2.5-4.8,0.4c-0.3-0.6-0.4-1.3-0.1-2
		c0.3-0.8,1.2-1.3,1.4-2.2C62,17.3,62.1,16.7,62.2,16z"/>
	<path class="st295" d="M61.1,20.1c0,0.6,0,1.3,0,1.9c0.2,0.8-0.2,1.4-0.7,2c-1.5,0.6-3,3.3-4.4,0c-0.3-0.3-0.6-0.7-0.8-1
		c-0.3-1.5,1.3-1.9,1.9-2.8c1-0.1,2-0.1,3-0.2C60.4,19.6,60.8,19.7,61.1,20.1z"/>
	<path class="st296" d="M61.1,20.1c-0.4-0.1-0.8-0.1-1.2-0.2c0.1-1.2,0.6-2,2-1.9C63.9,19.6,62.1,19.7,61.1,20.1z"/>
	<path class="st297" d="M33,28c2.2,0.1,3.2-0.9,2.9-3.1c0-2.3,1.2-3.8,3.1-4.9c0.9,0.3,1.8,0.6,2.8,1c0.4,0.7,0.8,1.4,1.2,2.1
		c0,0.3,0.1,0.5,0.2,0.8c-0.2,0.4-0.4,0.8-0.8,1.1c-1.3,1.2-3.1,2-2.6,4.2c0.4,2.3,0.9,4.6-2.8,3.4c-1.4,0.8-0.8,2.6-2,3.5
		c-0.8,0.3-1.3-0.1-1.7-0.7C32.1,33,33.2,30.5,33,28z"/>
	<path class="st298" d="M43.3,23.9c2.3,0.1,3.4,0.9,1.8,3.2c-1.2,1.3-1.1,3.3-2.5,4.6c-0.5,0.5-1.1,0.8-1.8,0.4
		c-0.4-1.1-1.1-2-1.3-3.2c-0.4-2.7,2.3-3.2,3.4-4.8L43.3,23.9z"/>
	<path class="st299" d="M42,31.2c0.7-1.6,1.1-3.4,3-4.1c0.7,3.3,3.5,1.4,5.2,2.1c0.4,0.7,0.3,1.4-0.2,2.1c-0.6,0.5-1.3,0.6-2,0.6
		C46.1,31.1,44,32.2,42,31.2z"/>
	<path class="st300" d="M53,29.1c0.3-1.1,0.7-2.1,1-3.2c1.8-1,3.2-0.6,3.9,1.5c0.2,1.4,0.1,2.7-1.1,3.7C55,31.6,53.8,30.7,53,29.1z"
		/>
	<path class="st301" d="M57,28c-0.1-1.9-1.5-2-3-2.1c0.6-0.7,1.3-1.3,1.9-2c2,2.2,2.7-0.8,4.1-1c0.8,0.8,1,1.7,0.9,2.8
		c-0.3,1.4-1,2.3-2.4,2.7C57.9,28.5,57.4,28.4,57,28z"/>
	<path class="st302" d="M53,29.1c1.1,0.6,2.1,1.1,3.2,1.7c0.1,0.5,0,1-0.4,1.3c-0.2,0.1-0.5,0.2-0.7,0.3c-0.2,0-0.5,0-0.7,0
		c-1.6-0.3-3.6,0-4.7-1.7c0.2-0.5,0.5-1.1,0.7-1.6C51.2,29.1,52.1,29.1,53,29.1z"/>
	<path class="st303" d="M47.1,26.9c0.5-0.8,1-2.2,1.4-2.1c1.6,0.2,0.9,1.2,0.3,1.9c-0.3,0.3-0.8,0.5-1.1,0.8
		C47.5,27.3,47.3,27.1,47.1,26.9z"/>
	<path class="st304" d="M39.1,20c-1,1.6-2.1,3.2-3.1,4.9c-1.1-0.7-0.9-1.8-1.1-2.9c1.4-0.6,2.1-1.6,2.1-3.1
		C37.9,19,38.7,19.2,39.1,20z"/>
	<path class="st305" d="M27.1,35.8c-1,0.4-2,0.8-3.1,1.2c-0.1-1-0.4-1.8-1.4-2.2c0.1-0.9,0.2-1.7,0.4-2.6c1.8-0.3,1.5-3.3,3.7-3.1
		c0.4,0.2,0.6,0.6,0.6,1c-0.1,1.3,0.2,2.6,0.4,3.8C27.8,34.7,27.6,35.3,27.1,35.8z"/>
	<path class="st306" d="M26.9,30c0-0.3,0-0.6-0.1-0.9c-0.3-0.7-0.5-1.3-0.8-2c0.6-0.4,1.3-0.8,1.9-1.2c0.4,0,0.8,0,1.2,0
		c1.7,1.4-0.4,2.7-0.1,4C28.2,30.5,27.6,30.5,26.9,30z"/>
	<path class="st307" d="M33,28c2.6,2-0.1,4.8,1,7.1c-4,0-2.1-3.4-3-5.2c0.4-0.6,0.7-1.2,1.1-1.9C32.4,28,32.7,28,33,28z"/>
	<path class="st308" d="M27.1,35.8c0-0.6,0-1.2,0-1.7c0.5-1.4,1.5-2.4,2.9-3c0.3,0,0.7,0,1,0.1c0.3,2.4,2.4,4.4,1.1,7
		C30.4,37.4,28.8,36.6,27.1,35.8z"/>
	<path class="st309" d="M32.1,38.2c-0.6-2.3-1.5-4.6-1.1-7c0-0.4,0-0.8,0-1.2c1.8,1.3,0.5,4.3,3,5.2c0.3,0.3,0.7,0.6,1,1
		c0.1,0.2,0.2,0.5,0.3,0.7c-0.1,0.2-0.2,0.5-0.3,0.7c-0.8,0.6-1.4,1.8-2.6,0.7L32.1,38.2z"/>
	<path class="st309" d="M30,31.1c0,2-1.7,2.3-2.9,3c-0.6-1.3-2.2-2.6-0.2-4c0.7,0,1.4,0,2.1-0.1C29.3,30.3,29.6,30.7,30,31.1z"/>
	<path class="st310" d="M54.9,32c0.3,0,0.6-0.1,0.8-0.1c0.2,0.1,0.4,0.1,0.6,0.2c0.7,0.6,1.1,1.4,1.2,2.2c0.1,1.1-0.6,1.8-0.8,2.8
		c1.1,1.3,3.3,0.8,4,2.5c0.6,2.8,2.4,3.3,4.8,2.4c1.9-0.4,3.7-0.4,5.6-0.1c1.3,0.4,2.7,0.2,3.9,1c-1.2,2.3-1,5.3-3.1,7.2
		c-1.4,0-2.8-0.6-4,0.6c-0.4,0.9-1.2,1.1-2,1.4c-1.6,0.4-2.9,1.6-4.5,2.2c-0.2,0-0.4,0.1-0.6,0.1c-0.4,0-0.9-0.1-1.3-0.2
		c-1.6-1.1-3.8-1.3-4.8-3.2c-0.1-0.7,0.2-1.3,0.5-1.9c0.9-1.6,1.2-3.1-0.6-4.3c-1.2-0.9-1.7-2.4-3.1-3c-0.4-0.2-0.7-0.5-0.9-0.8
		c-0.7-1.3-1.7-1.6-2.9-0.7c-5.8,3.8-7.7,3.2-8.8-2.9c0-0.8,0.2-1.5,0.5-2.2c0.2-0.4,0.6-0.8,0.9-1.1c2.3-1.8,4.7-3.1,7.7-3.1
		c0.5-0.1,1.1-0.2,1.6-0.2C51.3,31.4,53.5,30.2,54.9,32c-0.9,0.8-2.4,0.9-2.9,2.5C53.1,33.6,53.8,32.6,54.9,32z"/>
	<path class="st311" d="M75,43c-1,0.3-2.1,1.6-3-0.1c-1.2-1.9-3.1-1.5-4.9-1.4c-1,0-1.8-0.4-2.5-1c-0.5-0.5-0.9-1-1.2-1.7
		c0.1-2.2-1.8-4.2-0.5-6.5c2.2-2.1,4.5-1,6.8-0.3c1.6,0.5,3,1.7,5,1.4c0-1.4-1.6-1.4-1.9-2.4c-0.1-0.7,0.7-1.1,0.9-1.5
		c0.4-1-0.6-0.4-0.8-0.4c-2.7,0.3-6,1.2-3.2-3.5c0,0-1.5-1.4-1.4-2.7c0.3-1.3,0.7-2.4,2.1-2.8c6.3,0.9,11.4,5.9,12.9,12.1
		c0.5,1.9-0.6,1.9-1.5,2.4c-1.2,0.7-3.1,0.4-3.4,2.6c1.3,1.2,3.7-1.2,4.7,1.5C79.5,38.3,78.7,43.1,75,43z"/>
	<path class="st312" d="M70.3,20c-0.5,1-0.9,2-1.4,2.9c-0.9,1-1.8,1.8-3.2,1.3C64.7,23.3,64,22.4,65,21c1.2-1.2,2.4-2.5,4-3.1
		c0.4,0.1,0.7,0.2,1.1,0.4C70.2,18.9,70.3,19.4,70.3,20z"/>
	<path class="st313" d="M80,15.8c0.4-0.1,0.7-0.1,1.1-0.2c0.1,0.2,0.1,0.4,0,0.6c0.9,0.7,1,1.9,1.9,2.6c0,0.3,0.1,0.6,0.1,1
		c-2.7,1.6-4.6,0.2-6.3-1.8C77,16.1,78,15.2,80,15.8z"/>
	<path class="st314" d="M80.5,43.9c2,1.5,2.6,2.8,2.1,4.9C80.5,47.7,79.9,46.5,80.5,43.9z"/>
	<path class="st315" d="M80,15.8c-1.1,0.6-2.8,0.4-3.3,2.1c-0.6-0.3-1.1-0.6-1.7-0.9c0.7-0.7,1.3-1.3,2-2C78.1,15,79.2,14.8,80,15.8
		z"/>
	<path class="st316" d="M84,68c0,0.3,0,0.7,0,1c-1.7,1.4-4.4,0.1-6,2.1c0.3,2.7,3.1,3.6,4,5.9c-0.8,1-1.8,1.7-3,2
		c-1.2,0.2-2.4,0.2-3.5-0.1c-3.1-1.2-4.1,1.1-5.2,3.2C69,82.7,68,82.2,67,81.4c-0.3-0.4-0.5-0.8-0.5-1.3c0.5-1.7,0.8-3.4,1.2-5.1
		c0.3-0.3,0.6-0.6,1-0.8c0.3-0.3,1.6,0,0.8-1.1c-0.5-0.6-0.9-1.2-0.9-2c0.1-0.7,0.4-1.2,1-1.5c0.9-0.3,1.3-1,1.4-1.9
		c0-0.6,0.1-1.3,0.2-1.9c0.2-0.9,0.5-1.7,1.4-2.1c1.5-0.2,3.1-0.4,4.6-0.5c2,0.1,4.2-0.9,5.9,0.8C83,65.4,81.6,67.2,84,68z"/>
	<path class="st317" d="M81,55c4.7,2,5.2,2.8,3,5c-0.6,0.8-1.3,1.4-2.1,1.8c-2.3,1.1-4.3,1.2-5.6-1.4c-0.4-0.9-0.7-1.8-0.8-2.8
		c0-1.4,0.8-2.2,2.1-2.6C78.6,54.8,79.8,54.8,81,55z"/>
	<path class="st318" d="M77,60c1.1,2.9,3.2,1.1,5,1c1.1,0,2.1,0.3,3,0.9c-0.7,0.7-1.3,1.4-2,2.1c-2,0-4,0-6,0c-1-1.1-2.4-2-1.9-3.7
		C75.3,59.4,76.2,59.4,77,60z"/>
	<path class="st319" d="M81,55c-0.7,1.2-1.9,1-3,0.9c-1-0.8-2.8-0.2-3-2.1C77.1,53.1,79.6,51.4,81,55z"/>
	<path class="st320" d="M74.9,53.9c1,0.7,2,1.4,3,2.1c-1.2,0.2-1.9,0.8-1.9,2.1c-0.3,0.3-0.7,0.3-1.1,0.2c-0.9-0.6-1.6-1.3-2-2.3
		c0-1,0.1-2.1,0.1-3.1C73.7,53.2,74.3,53.5,74.9,53.9z"/>
	<path class="st321" d="M85,61.9c-1.1,0.1-2.3,0.2-3-0.9c0.4-0.8,1.2-0.9,2-1C84.3,60.7,84.6,61.3,85,61.9z"/>
	<path class="st322" d="M72.9,56c1.4,0.1,2.1,0.8,2.1,2.1c0.3,1.6-0.9,2.1-1.9,2.7c-0.5,0.2-0.9,0.3-1.4,0.4c-1.8,0-3.8,1.5-5.5-0.2
		c-0.4-0.3-0.8-0.6-1.2-0.9c0.3-0.3,0.6-0.6,0.9-1c0.9-1,1.9-1.9,3.2-2.1C70.3,56.3,71.6,55.9,72.9,56z"/>
	<path class="st323" d="M65.8,60l-0.4,0c0,0-0.4,0-0.4,0c-0.1-0.2-0.2-0.5-0.2-0.7c-0.3-1.3-0.3-2.7-1.7-3.3
		c-0.4,0.1-0.8,0.1-1.2,0.2c-1.5-0.2-1.6-1-1.1-2.2l0.2,0c1.6-0.5,3.6-0.4,4-2.7c1-0.1,1.9-0.3,2.9-0.4c0,0.7,0.1,1.5,0.1,2.2
		c0,1,0,1.9,0,2.9C68,57.7,66.8,58.8,65.8,60z"/>
	<path class="st324" d="M65.8,60c0.4-1.6,1.1-3,2.2-4.1c0.4,0.4,0.8,0.7,1.2,1.1C68.2,58.2,67.5,59.7,65.8,60z"/>
	<path class="st325" d="M95,74c0-0.3,0-0.7-0.1-1c0.4-0.4,0.7-0.7,1.1-1.1c1.3,0.7,1,2,1.1,3.1C96.4,74.7,95.7,74.3,95,74z"/>
	<path class="st326" d="M92,81.9c-1.5,0.4-2.8-0.2-4-1c0-0.6,0-1.2,0-1.9c0.9-0.7,2.2,0,3-1c0.3,0,0.7,0,1,0
		C92.9,79.3,93,80.6,92,81.9z"/>
	<path class="st327" d="M75,111c-0.3,0.1-0.6,0.1-1,0.2c-1.2,0.8-2.4,1-3.7,0.4c-0.7-0.4-0.9-1.1-0.9-1.9c0.2-1.5,2.3-2.1,2-3.9
		c0.2-1.1-0.8-2.9,1.5-2.8c1,0,2,0,3,0.1c0,0.3,0,0.6-0.1,0.9C73.5,106,77.3,108.9,75,111z"/>
	<path class="st328" d="M75.2,90.1c-1.9,2.3,1.6,6.7-2.9,8c-0.5-0.2-0.8-0.6-1-1.1c-0.7-2.2-0.3-4.5-0.8-6.7c0-0.5,0.1-1,0.3-1.4
		c0.5-0.5,1.2-0.6,1.9-0.5C73.3,89.2,74.2,89.8,75.2,90.1z"/>
	<path class="st329" d="M72.9,89c-0.7,0-1.3,0-2,0c-0.4,0.3-0.9,0.3-1.3,0.1c-1.1-0.8-1.4-1.9-1.1-3.3c0.6-1.5,1.5-2.5,3.2-2.6
		c0.5,0,0.9,0.2,1.4,0.4c1,0.9,2.3,1.7,2,3.4c0,0.3,0,0.6,0,1C74.5,88.5,73.5,88.3,72.9,89z"/>
	<path class="st330" d="M72,96.9c0.1,0.4,0.2,0.8,0.2,1.2c-0.1,0.6-0.2,1.2-0.3,1.8c-1.1,1.2,0.4,3.3-1.3,4.3
		c-4.3-0.4-2.1-3.4-2.2-5.5c0.3-1.2,0.3-2.6,1.1-3.7C71.7,94,71.1,96.5,72,96.9z"/>
	<path class="st331" d="M82,82.2c1.6,3.2-2.2,3.1-3,4.9c-1,0-1.9-0.1-2.9-0.1c-0.6-0.9-0.1-1.6,0.4-2.3c0.8-1,1.7-1.9,2.7-2.7
		c0.4-0.3,0.7-0.4,1.2-0.5C81,81.4,81.6,81.5,82,82.2z"/>
	<path class="st332" d="M71,104.2c0.1-1.5-0.5-3.1,1-4.2c0.3,1,0.7,1.9,1,2.9c-1.6,1-0.3,2.1-0.1,3.1c-0.8,1-1.3,2.4-3,2.2
		c-0.3-0.3-0.5-0.7-0.5-1.2C69.4,105.8,70.1,104.9,71,104.2z"/>
	<path class="st333" d="M77,84.9c-0.3,0.7-0.6,1.4-0.9,2.1c-0.3,0-0.7,0-1,0c-0.7-1-2.2-1.4-2.1-3c-0.2-0.9,0.3-1.2,1.1-1.4
		C75.4,83,77.1,82.8,77,84.9z"/>
	<path class="st334" d="M72.9,89c0-0.6-0.8-1.4,0-1.6c0.6-0.2,1.5,0.4,2.2,0.6c0.9,0.7,0.9,1.5,0,2.2C74.1,90.5,72.9,90.9,72.9,89z"
		/>
	<path class="st335" d="M82,82.2C81.3,82.1,80.7,82,80,82c-0.6-0.7-0.6-1.5-0.1-2.2c1.1-0.6,2.1-0.5,3,0.3c0,0.3,0.1,0.6,0.1,1
		C82.8,81.4,82.4,81.8,82,82.2z"/>
	<path class="st336" d="M75,111c1.1-2.2-3.5-5.3,1-7c-0.9,2.9,3.1,2.8,3.1,5.1c0.3,0.2,0.4,0.4,0.3,0.6c-0.1,0.2-0.2,0.3-0.4,0.3
		C77.6,110.3,76.3,110.6,75,111z"/>
	<path class="st337" d="M79,110c0-0.3,0-0.6,0-0.9c1,0,2,0,3.1,0c0.5,0.8,1,1.5,1.7,2.6c-1.4-0.3-2.6-0.5-3.8-0.7
		C79.6,110.6,79.3,110.3,79,110z"/>
	<path class="st338" d="M78,71.1c-1-1-0.8-1.8,0.6-2c1.8-0.2,3.6-0.1,5.4-0.1C82.6,71.2,80.2,70.9,78,71.1z"/>
	<path class="st339" d="M83,80c-1,0-1.9,0-2.9,0.1c-0.9-0.4-1.6-0.9-1.1-2c1-0.3,2-0.7,3-1C82.3,78,82.7,79,83,80z"/>
	<path class="st340" d="M91,78c-0.6,1.6-1.6,1.8-3,1C87.8,75.3,90.2,79,91,78z"/>
	<path class="st341" d="M52,73.9c2.1,0.2,3.8,1.3,5.1,3c0.5,0.6,0.6,1.3,0.3,2c-0.4,0.4-0.8,0.5-1.3,0.3c-0.3-0.1-0.7-0.2-1-0.3
		c-0.9-1.6-2.4-2.3-4.1-2.6c0,0-0.5-0.2-0.5-0.2s-0.5,0-0.5,0C50.7,75.4,51.3,74.7,52,73.9z"/>
	<path class="st342" d="M45.1,72.9c0.7-0.3,1.3-0.7,2-1c0.3,0.1,0.5,0.2,0.8,0.2C47.6,74.8,46.3,73.5,45.1,72.9z"/>
	<path class="st237" d="M56.1,79.1c0.4-0.1,0.7-0.1,1.1-0.2c0.6-1.4,1.6-1.9,3.1-1.6c1.1,0.4,1.5,1.3,1.5,2.4
		c-0.3,1.4-0.9,2.4-2.6,2.3C58,81.3,56.1,81.2,56.1,79.1z"/>
	<path class="st343" d="M59.2,82.1c1-0.4,1.8-0.9,2.2-2c0.9-0.1,1.2,0.5,1.4,1.2c0.2,1,0,1.8-0.6,2.6c-1,0.3-2,0.6-2.9,0.9
		C58.1,84,58.4,83,59.2,82.1z"/>
	<path class="st344" d="M71,104.2c-0.3,0.7-0.7,1.5-1,2.2c-0.2,0.5-0.4,0.9-0.7,1.2c-3.3,6.4-3.3,6.4-10.1,5.1
		c-0.9-0.4-1.8-0.9-2.4-1.7c-0.4-3,0.6-5.1,3.8-5.7c1.2-0.2,2.3-0.7,2.6-1.9c0.7-2.5,2.9-2.7,4.8-3.4c0-1,0.1-2,0.1-3
		c0-0.5,0.1-1.1,0.6-1c1,0.3,0.8,1.2,0.5,1.9C69.3,100.2,67.3,103,71,104.2z"/>
	<path class="st345" d="M67.9,100c-0.9,1.3-3.1,1.3-3.5,3.2c-0.4,2.4-0.8,4.2-4.3,3.3c-2.5-0.6-1.8,3-3.1,4.3
		c-0.4,0.4-0.8,0.4-1.2,0.2c-0.6-0.8-0.7-1.7-0.5-2.7c0-1.5,1.5-2.7,0.7-4.3c-1-0.9-2.1-2-1.4-3.3c0.6-1.2,2.1-0.8,3.1-0.5
		c2.1,0.5,4.4,2.8,5.8-1.2C63.8,98.4,66.2,100.5,67.9,100z"/>
	<path class="st346" d="M56,108.1c0,0.9,0,1.9,0,2.8c-0.3,0.4-0.7,0.6-1.2,0.7c-2.1-0.1-4.2-0.3-6-1.4c-1.3-1.1-2.7-0.9-4.1-0.6
		c-0.7,0-1.3-0.1-1.9-0.6c-0.7-1.2-0.2-2.3,0.6-3.2c0.7-0.7,1.7-0.9,2.6-0.9c3-0.3,6-1.7,9,0C55.8,105.9,56.7,106.7,56,108.1z"/>
	<path class="st347" d="M44,106c-0.2,0.9-0.5,1.9-0.7,2.8c0.4,1.4,1.3,3.1-1.4,3.2c-0.5,0-1.1,0.1-1.6,0.1c0-0.6-0.1-1.3-0.1-1.9
		c1.3-0.7,0.6-2.1,1-3.1C41.7,106,42.4,104.9,44,106z"/>
	<path class="st348" d="M69.2,98c-0.5-0.2,0.1-1.8-1.2-1c-1.6-0.1-2.9-0.8-4-1.9c1,0,2,0,3-0.1c0.4-0.8,0.9-1.5,1.9-1.6
		c0.4,0,0.8,0.1,1.2,0.4c0.3,0.4,0.3,0.8,0.1,1.2C69.8,96,69.5,97,69.2,98z"/>
	<path class="st349" d="M44,106c-1.3-0.4-2,0.6-2.9,1.1c0.8-2.6,2.2-3.9,4.9-2.1C45.6,105.8,44.8,106,44,106z"/>
	<path class="st350" d="M56,108.1c-0.3-1-0.7-2.1-1-3.1c0.3-0.3,0.7-0.7,1-1C57.5,105.4,57.3,106.7,56,108.1z"/>
	<path class="st351" d="M69.9,94.2c-0.3-0.1-0.6-0.1-0.9-0.2c-1.1-0.5-2.2-1.1-3.1-1.9c-0.3-0.4-0.6-0.7-1-1.1
		c-0.4-1.6,0.8-1.9,1.8-2.4c1.1,0,2.2,0,3.3,0.2c0.3,0,0.6,0.1,0.9,0.2c0.1,0.3,0.2,0.7,0.3,1C71.2,91.6,72.6,93.5,69.9,94.2z"/>
	<path class="st352" d="M67.1,89.2c-0.7,0.6-1.4,1.2-2.2,1.8c-1-0.3-3.3,0.6-1.9-2c0.5-0.7,1.1-1.2,2-1.4c0.4-0.1,0.8,0,1.2,0.1
		C66.7,88.1,67.1,88.5,67.1,89.2z"/>
	<path class="st353" d="M65.1,88c-0.5,0.8-1.2,1-2.1,1c-0.3-0.3-0.6-0.7-1-1c-0.1-1.4-0.2-2.9,1.9-2.9C65,85.8,65.6,86.7,65.1,88z"
		/>
	<path class="st354" d="M65.9,92.1c1.5-0.2,2.5,0.6,3.1,1.9c-0.7,0.3-1.3,0.7-2,1C66.7,94,66.3,93.1,65.9,92.1z"/>
	<path class="st355" d="M65.1,88c-0.4-1-0.8-2-1.1-2.9c0-0.3,0-0.7,0-1c0.1-0.2,0.2-0.4,0.2-0.6c0.5-0.5,1-0.8,1.7-0.7
		c0.4,0.2,0.7,0.5,0.9,0.9c0.6,1,1.4,1.7,1.6,2.9c-0.1,1.4-0.5,2.3-2.2,1.6C65.9,88.1,65.5,88,65.1,88z"/>
	<path class="st356" d="M62.1,84c-0.1-1.1-0.1-2.2-0.2-3.2c0.5-0.3,1-0.3,1.5-0.2c1.5,1,1.4,2.1,0.5,3.4c0,0,0,0,0,0
		C63.4,84,62.7,84,62.1,84z"/>
	<path class="st357" d="M53,116c-1.2,0.7-1.3,2.6-3,3c-0.2-1.8,0.3-3.4,1-5c-0.1-1,0.2-1.9,1.2-2.4c1.3-0.4,2.3,0.3,3.4,0.8
		c0.7,0.8,1.2,1.5,0.3,2.5C54.9,115,53.7,114.8,53,116z"/>
	<path class="st358" d="M41.8,112c1.3-0.7,1.2-2,1.4-3.2c0.6,0,1.1,0.1,1.7,0.1c1-0.6,1.8,0.1,2.6,0.4c0.6,0.4,1,1,0.9,1.8
		c-0.3,0.7-0.6,1.3-1.5,0.9C45.3,110.9,43.6,114,41.8,112z"/>
	<path class="st359" d="M47,112c0.3-0.3,0.7-0.7,1-1c1.7-0.9,3.1-0.7,4,1.2c-0.3,0.6-0.6,1.2-1,1.8C49.4,114,48.1,113.2,47,112z"/>
	<path class="st360" d="M82.9,18.8c-2.2,0.3-1.7-1.4-1.9-2.6c0.9-0.4,1.7-0.5,2.2,0.7C83,17.5,82.9,18.2,82.9,18.8z"/>
	<path class="st361" d="M61.1,118.6c1.3-0.4,2.7-1,2.9,1.2c-1,0.8-2,1.5-3,2.3C61.1,121,61.1,119.8,61.1,118.6z"/>
	<path class="st362" d="M68.9,107.2c0.4-0.2,0.7-0.5,1.1-0.7c0.1,0.5,0.2,1.1,0.2,1.6c0.2,0.2,0.3,0.4,0.2,0.6
		c-0.1,0.2-0.1,0.3-0.2,0.3c-0.1,0.6-0.1,1.3-0.2,1.9c0.3,1,2.6,0.3,2,2.2c-1.3,0.3-3-0.1-3.1,2.1c-0.6-0.7-1.1-1.3-1.7-2
		C67.5,111,66.9,108.7,68.9,107.2z"/>
	<path class="st363" d="M72,113c-0.7-0.7-1.3-1.4-2-2.2c1.3,0.1,2.7,0.2,4,0.3C73.9,112.4,73.4,113.2,72,113z"/>
	<path class="st364" d="M68.9,107.2c-0.9,1.9-0.2,4.2-1.7,5.9c-0.4,0.6-0.7,1.2-1.1,1.8c-2.1-0.5-4.2,0.1-6.2-0.2
		c-0.7-0.2-1.2-0.7-1.4-1.5c0-0.5,0.2-0.9,0.6-1.2C64,113.7,66.6,110.7,68.9,107.2z"/>
	<path class="st365" d="M59.9,113.7c2.2-0.4,4.3,0.1,6.2,1.1c-0.4,0.3-0.7,0.7-1.1,1c-1-0.4-2.1-0.5-3.1,0
		C61.2,115.2,59.2,115.8,59.9,113.7z"/>
	<path class="st366" d="M59.9,113.7c0.7,0.7,1.4,1.4,2,2.1c-0.7,0.2-1.6,0.2-1.9,1.1c-0.4-0.3-0.7-0.6-1.1-0.9
		c-0.3-0.4-0.6-0.7-1-1.1c-0.7-1.2-0.7-2,1.1-1.9C59.4,113.3,59.6,113.5,59.9,113.7z"/>
	<path class="st367" d="M39.8,37.1c0.8,6.3,1.5,6.4,8.2,1.8c1,0.3,1.4,1,1.4,2c-0.5,1.5-1.3,2.8-2,4.2c-0.8,1.2-2,1.8-3.5,1.9
		c-2.2-2.3-5.7,0-8-2C36.7,42.1,36.8,38.9,39.8,37.1z"/>
	<path class="st368" d="M39.8,37.1c-1.3,2.6-1.3,5.9-3.8,8c-0.2,0-0.5,0-0.7,0c-0.5-0.2-0.7-0.5-0.8-0.9c0.3-2.3,0.5-4.7,0.5-7l0,0
		c1.2-0.8,0.8-2.5,2.1-3.3c1.2-0.1,2.3,0.2,3,1.3C40,35.7,39.9,36.4,39.8,37.1z"/>
	<path class="st369" d="M28,41c1.4-2.7,2.8-1.4,4.1,0c2.7-1.1,2.4,0.8,2.3,2.4c-0.1,0.2-0.2,0.5-0.4,0.7c-0.3,0-0.7,0-1,0
		c-1.6-0.7-3-2-4.9-2C28.1,41.7,28,41.4,28,41z"/>
	<path class="st370" d="M46,52.8c-1.9-0.1-4.1,1-5-1.8c0.7-0.3,1.3-0.6,2-0.9c1.2,0,2.3-0.1,3.2,0.8C46.6,51.6,46.6,52.2,46,52.8z"
		/>
	<path class="st371" d="M32,53c1.1,0.2,2.4-0.3,2.8,1.3c0.1,0.3,0,0.8-0.2,0.9c-1.5,0.6-2.3-0.8-3.6-1.1C31,53.4,31.4,53.1,32,53z"
		/>
	<path class="st372" d="M43.9,47c1-0.7,2.1-1.4,3.1-2.1c0.1,0.2,0.3,0.4,0.4,0.5c0.4,1.3,0.2,2.3-1.1,2.9c-0.5,0.1-0.9,0-1.3-0.3
		C44.7,47.8,44.3,47.4,43.9,47z"/>
	<path class="st373" d="M45.1,48.2c0.2,0,0.4,0,0.6,0c0.8,0.3,0.9,1,0.9,1.7c-0.1,0.5-0.3,0.9-0.7,1.2c-1.1,0.1-2.3,0.2-3-1
		C43.7,49.4,44.4,48.8,45.1,48.2z"/>
	<path class="st374" d="M35,44c0.1,0.3,0.2,0.6,0.3,1c-1.6,1.3-1-0.3-1.2-0.9c0,0,0,0,0,0C34.3,43.6,34.7,43.5,35,44z"/>
	<path class="st375" d="M55.1,51c1.5,1.3,4.1,0.7,5,3.1c0.2,0.9-0.2,1.3-1,1.5c-0.5,0.1-0.9,0-1.3-0.1c-1.4-1.3-3.1-1.6-4.9-1.5
		c-0.6,0-1.3,0-1.9,0c-0.6-0.5-0.7-1.2-0.6-1.9c0.4-1.1,1-2,2.2-2.4C53.9,49.2,54,51,55.1,51z"/>
	<path class="st376" d="M51,52.1c0,0.6,0.1,1.2,0.1,1.8c-1.8,0.4-3.6,0.4-5-1c0-0.6,0-1.2,0-1.7c0-0.3,0-0.7,0-1
		c1.4-0.8,2.7-0.6,3.9,0.2C50.6,50.8,50.9,51.3,51,52.1z"/>
	<path class="st377" d="M42.9,55.1c0.4,1.8-0.8,3.3-1.1,5c-0.8-0.9-2.4-0.7-2.8-2.2C41,57.9,40.5,54.6,42.9,55.1z"/>
	<path class="st378" d="M53,61c-0.7-0.1-1.4-0.1-2.1-0.2c0-1.1,2.6-1.4,0.9-3c0.2-1.6,1.3-1.3,2.3-1.1c1.2,0.9,2,1.8,0.7,3.2
		c-0.3,0.3-0.6,0.6-0.9,0.9C53.7,60.8,53.3,60.9,53,61z"/>
	<path class="st379" d="M53.9,57c-0.7,0.3-1.4,0.5-2,0.8c-0.9-0.2-2.4,0.3-2.5-0.8c-0.2-1.4,1.3-0.9,2.2-0.9c1.1-0.1,2.3,0,3.4,0
		c0.3,0.2,0.4,0.4,0.4,0.7c0,0.3-0.1,0.4-0.2,0.4C54.6,57.4,54.2,57.3,53.9,57z"/>
	<path class="st380" d="M55.2,56.9c-0.1-0.3-0.2-0.6-0.3-0.8c0.3-0.3,0.7-0.6,1-1c0.6-0.8,1.4-0.7,2.1-0.3c0.5,0.1,1,0.1,1.5,0.2
		c0.4,1.9-0.4,2.9-2.1,3.5C56.2,58.6,55.5,58,55.2,56.9z"/>
	<path class="st381" d="M58,54.8c-0.7,0.1-1.4,0.2-2.1,0.3c-1-0.4-2.4,0.1-3-1.2C55,52.2,56.6,53,58,54.8z"/>
	<path class="st382" d="M62,74.2c-0.3-0.1-0.7-0.2-1-0.3c-0.7-1.3-0.5-2.6,0-3.9c0-1.4,0.7-2.4,2-3c1.5-1,2.2-0.3,2.5,1.3
		c-1,1.3,0.6,2.5,0.3,3.7c-0.1,0.5-0.2,1-0.5,1.4C64.4,74.4,63.4,75,62,74.2z"/>
	<path class="st383" d="M65.1,68.9C65,67.6,64.2,67,63,67c0.4-1,0.7-1.9,1.1-2.9c3.1-1.4,3.8,1.9,5.7,2.9c0.3,0.4,0.6,0.8,0.8,1.2
		c0.2,0.7,0.1,1.4-0.4,2c-0.4,0.3-0.7,0.5-1.1,0.8c-0.3,0.4-0.8,0.6-1.2,0.7C65.8,71.8,65.4,70.4,65.1,68.9z"/>
	<path class="st384" d="M55.2,56.9c0.6,0.4,1.2,0.7,1.8,1.1c2.1,0.2,6.1-3.1,4.9,2.7c-0.3,0.4-0.6,0.8-0.8,1.3
		c-1.1,0.6-1.5-0.4-2.2-0.9c-1.2-0.9-2.7-1-4.1-1.2c-0.3-1-0.7-2-1-2.9C54.3,57,54.7,57,55.2,56.9z"/>
	<path class="st385" d="M66.2,61c1.9-0.3,3.9-0.6,5.8-0.9c1.2,2.3,0,3.5-1.9,4.4C67.9,64.6,66,63.8,64,63
		C64.8,62.3,65.5,61.6,66.2,61z"/>
	<path class="st386" d="M64,63c2,0.5,4.3-1,6,1.1c0.4,0.3,0.6,0.7,0.6,1.1c0,1.2-0.7,2.1-1.6,2.8c-1.7-1.2-2.5-3.6-4.9-3.9
		C64,63.7,64,63.3,64,63z"/>
	<path class="st278" d="M61.9,60.8c0.4-4.6-3.9-0.7-4.9-2.7c1.5-0.4,2.3-1.5,2.5-3c0.2-0.3,0.4-0.7,0.6-1c0.2,0,0.5,0,0.7-0.1
		c0.3,0.7,0,1.8,1.1,2.2C61.6,57.7,64.3,59.2,61.9,60.8z"/>
	<path class="st387" d="M58.9,61.1c0.7,0.3,1.4,0.6,2.2,0.9c1.7,1.9-0.2,2.7-1.3,3.4c-1.3,0.9-1.6-0.3-1.8-1.3
		C59.1,63.4,59,62.2,58.9,61.1z"/>
	<path class="st388" d="M61,70c1,1.3,0.1,2.6,0,3.9c-1.3-0.2-1.1-1.6-1.9-2.2c0-0.6,0-1.1,0.1-1.7C59.7,70,60.4,70,61,70z"/>
	<path class="st389" d="M63.1,56c3.3-0.3,1.9,1.8,1.7,3.3C64.3,58.2,63.7,57.1,63.1,56z"/>
	<path class="st390" d="M60.1,78c-1,0.3-1.9,0.7-2.9,1c0-0.7-0.1-1.4-0.1-2.1c0-1,0-2,0-3c0.6,0.4,1.2,0.7,1.9,1.1
		C60,75.7,61.1,76.5,60.1,78z"/>
	<path class="st391" d="M60.1,78c-0.4-1-0.7-2-1.1-3c1,0,2,0,3.1,0c1.5-0.5,1.6,0.8,2,1.7c0.2,1,0.2,2.1-0.2,3.1
		c-0.2,0.5-0.5,0.9-1,1.2c-0.3,0-0.6-0.1-0.9-0.3c-0.2-0.2-0.4-0.4-0.6-0.6C61,79.4,61.1,78.4,60.1,78z"/>
	<path class="st392" d="M63,77.1c0-0.9-0.1-1.7-1-2.1c0-0.3,0-0.5,0-0.8c1-0.4,2-0.9,3-1.3c1.6-0.5,2.2,0.5,2.5,1.9
		c0,0.5-0.1,0.9-0.3,1.4C65.7,76.2,64.3,76.3,63,77.1z"/>
	<path class="st393" d="M35,44L34.5,44c0,0-0.5,0.1-0.5,0.1c-0.3-1.3,0.1-3-2-3.1c0.1-0.9,0.2-1.9,0.3-2.8c0.9-0.4,1.7-0.8,2.6-1.2
		C37,39.4,36.6,41.7,35,44z"/>
	<path class="st394" d="M59.1,113.1c-0.9,0.3-1.1,1-1.1,1.9c-0.7,0-1.4,0-2.1,0c0-0.8-0.2-1.6-1-2c-0.5-0.6-0.6-1.2,0.1-1.8
		c0.3-0.1,0.7-0.1,1-0.2c0.3,0,0.7,0,1-0.1c0.7,0.4,1.4,0.7,2.1,1.1C59.1,112.3,59.1,112.7,59.1,113.1z"/>
	<path class="st395" d="M65,21c-0.2,1.2,0.7,2,1.4,2.8c0.6,1.5,0,2.4-1.5,2.8c-1.6-0.1-3.3,0.1-4.9-0.6c0-1,0-2,0-3
		c0.4-0.3,0.7-0.7,1.1-1C62.9,23.4,63.5,20.5,65,21z"/>
	<path class="st307" d="M40.1,35c-1-0.3-2-0.6-3.1-0.9c-1.1-1.3-0.6-2.7-0.1-4c1.4,0,0.7,2.7,2.1,2c1.4-0.6-0.2-2,0-3.1
		c0.3-0.4,0.7-0.4,1,0c0.3,1,0.7,2.1,1,3.1c0.7,1,1.1,2.1-0.4,2.8C40.4,34.8,40.2,34.9,40.1,35z"/>
	<path class="st396" d="M36.9,30.1c0,1.3,0.1,2.7,0.1,4c0.1,1.5,0,2.8-2,2.9c0-0.3,0-0.6,0-0.9C35,33.9,35,31.7,36.9,30.1z"/>
	<path class="st397" d="M40,29c-0.3,0-0.7,0-1,0c-1.1-3.5,1.5-4.2,3.9-5C43.3,26.5,39.6,26.5,40,29z"/>
	<path class="st302" d="M40.6,34.9c0.1-0.9,0.3-1.9,0.4-2.8c0.3-0.3,0.7-0.6,1-0.9c2-0.6,3.9-1.6,6-0.2
		C45.5,32.3,43.1,33.6,40.6,34.9z"/>
	<path class="st398" d="M55.7,32c0.2-0.4,0.3-0.7,0.5-1.1c1-0.7,0.7-1.8,0.8-2.8c0.3,0,0.6,0,0.9,0c0.7,0.5,1.1,1.2,1.4,2
		c0.2,0.4,0.4,0.7,0.5,1.1c0.3,0.8,0.5,1.7-0.5,2.3c-1.5,0.4-2.5-0.4-3.4-1.5C56.1,31.9,55.7,32,55.7,32z"/>
	<path class="st399" d="M59,30.6c-1.3-0.5-0.9-1.7-1-2.6c0.7-0.7,1.4-1.3,2.1-2c1.3-0.4,2.7-1.9,3.9,0.1C64.1,29.6,61,29.5,59,30.6z
		"/>
	<path class="st400" d="M64.1,39c0.3,0.3,0.6,0.7,0.9,1c-1.7,2.6-3.3,2.4-5-0.1c-1.1-1.6-2.7-0.8-4.1-1c-1.2-0.2-2.6-0.4-1-2
		c1.5-0.5,3-1,4.6-0.8C61.4,36.5,63,37.4,64.1,39z"/>
	<path class="st401" d="M60,39.9c1.6,1.4,3.3,1.3,5,0.1c0.6,0.3,1.2,0.7,1.8,1c0.9,1.9-1,1.2-1.6,1.7C61.6,45.2,60.2,43.8,60,39.9z"
		/>
	<path class="st402" d="M65.2,42.7c0.5-0.6,1.1-1.2,1.6-1.7c2.5-1.4,4.6-1.6,5.2,1.9C69.7,42.9,67.4,42.8,65.2,42.7z"/>
	<path class="st403" d="M54.9,32c-0.3,0.5-0.9,1-1,1.6c-0.4,1.7-1.1,3-3,3c-0.9,0-0.8-0.8-0.9-1.4c-0.4-2.4,1.6-2.5,3-3
		C53.6,32,54.3,32.1,54.9,32C55,32.1,54.9,32,54.9,32z"/>
	<path class="st404" d="M50.7,40.9c0.5,0.1,1,0.1,1.5,0.2c0.7,1.3,1.5,2.6,0.5,4.2c-1.2,0.8-2.4,0.8-3.7,0.1
		c-1.3-1.5-0.9-2.8,0.3-4.1C49.7,40.8,50.1,40.7,50.7,40.9z"/>
	<path class="st405" d="M60,37c-1.7,0-3.4-0.1-5.1-0.1c0.8-0.9,2.2-1.4,1.9-3c1.1-0.2,2.3-0.3,3.4,0.1c0.5,0.8,0.5,1.6,0.2,2.5
		C60.3,36.7,60.2,36.9,60,37z"/>
	<path class="st406" d="M54.9,44.1c4.1,1.3,2.4,3.6,1.1,5.9c-0.5-0.3-1.1-0.5-1.4-1.1c-0.2-0.6-0.2-1.2,0-1.8
		c1.3-0.7-0.2-1.3-0.1-1.9C54.4,44.7,54.6,44.4,54.9,44.1z"/>
	<path class="st407" d="M65,51.2c1.2,4.6-1.8,3-4,2.7C62.3,53,63.7,52.1,65,51.2z"/>
	<path class="st408" d="M54.9,44.1c0,0.3,0,0.6,0,0.9c-0.4,0.3-0.8,0.5-1.3,0.4c-0.2-0.1-0.4-0.3-0.6-0.4c-0.1-1.3-1.6-2.4-0.7-3.9
		C54.7,40.6,53.3,43.7,54.9,44.1z"/>
	<path class="st409" d="M50.7,40.9l-0.4,0L50,41c-0.5,0.5-0.9,0.4-1-0.3c-0.3-0.6-0.7-1.2-1-1.8c0.6-1,1.6-1.1,2.4-0.5
		C51.3,39,51,40,50.7,40.9z"/>
	<path class="st410" d="M59.9,34.1c-1,0.6-2,0.4-3-0.1c-0.5-0.6-1.2-1.1-0.8-2c1.3,0.3,2.7,0.7,4,1c0.1,0.2,0.1,0.4,0.2,0.6
		C60.2,33.7,60,33.9,59.9,34.1z"/>
	<path class="st411" d="M55.2,48.7c0.3,0.4,0.5,0.8,0.8,1.2c-0.6,0.1-0.9,0.4-0.8,1c-2,2.8-1.3-1.4-2.4-0.9c-0.1-0.5,0-1,0.3-1.3
		C53.8,48.3,54.5,48.4,55.2,48.7z"/>
	<path class="st412" d="M59,30.6c0.1-3.2,4.5-1.7,5-4.5c1.6,0,2.1-1,2.4-2.3c0.9-0.3,1.7-0.6,2.6-0.8c0.1,1.8,4.8,3.1-1,5.8
		c3.5-0.5,5.8-2.3,7.1,0.2c0.8,1.5-1.9,0.7-2.1,2c-0.4,1.5-1.6,1.9-3,2c-2.4,0.2-4.9-1.9-7.3,0.1c-0.4,0.1-0.8,0.1-1.2-0.2
		c-0.6-0.9-1.3-1.7-2.4-1.8C59.2,30.9,59.1,30.8,59,30.6z"/>
	<path class="st413" d="M70,33c1-0.7,2-1.3,3-2c1.9,0.6,5.1,0.7,4.2,3.3c-0.6,1.7-3.7,0.9-5.7-0.1C70.9,33.9,70.5,33.4,70,33z"/>
	<path class="st414" d="M61.8,32.9c0.3,0.1,0.6,0.1,1,0.2c0.6,1.9,2.2,3.6,1.4,5.8c-1.4-0.6-2.7-1.3-4.1-1.9c0,0,0.1-0.2,0.1-0.2
		c1.2-1.1,0.7-2.4,0.6-3.6C61,32.8,61.3,32.7,61.8,32.9z"/>
	<path class="st415" d="M74,83.1c-0.3,0.3-0.7,0.6-1,0.9c0,0-0.5,0-0.5,0L72,84c-0.5-0.9-2.6-0.1-2-2c-0.1-3.5,0.8-5.8,5-3.9
		c0.5,0.6,0.8,1.2,0.8,2C75.6,81.3,75.1,82.4,74,83.1z"/>
	<path class="st416" d="M72.9,60c1-0.3,1.7-1,2.1-1.9c0.3,0,0.7-0.1,1-0.1c0.8,0.4,0.9,1.2,0.9,2c-3.4,1.3,1.3,2.7,0,4
		c-1.3-0.4-2.7,1.8-4-0.1C72,62.6,72.4,61.3,72.9,60z"/>
	<path class="st417" d="M70,81.9c0.7,0.7,1.3,1.4,2,2c-1.5-0.1-2,1.5-3.1,2c-0.3,0.5-0.6,0.5-0.9,0c-2-0.1-2.1-1.5-2-3
		c0-0.9,0.2-1.6,1-2.1C68,81.3,69,81.6,70,81.9z"/>
	<path class="st418" d="M75,80.1c0-0.7,0-1.4,0-2.1c1.3,0,2.7,0,4,0c0.4,0.7,0.7,1.4,1.1,2c0,0.6,0,1.3-0.1,1.9c0,0,0,0,0,0
		C77.9,82.6,76.1,82.1,75,80.1z"/>
	<path class="st419" d="M67,74.9c-0.7-0.7-1.4-1.3-2-2c0-0.3,0.1-0.5,0.1-0.8c0.6-1.3,2.2-0.1,3-1.2c0.3,0,0.7,0,1,0
		c0.4,0.6,0.8,1.2,1.3,1.7c0.4,1.2-0.3,1.7-1.3,2c-0.3,0.1-0.6,0.2-0.9,0.4C67.6,75.5,67.3,75.4,67,74.9z"/>
	<path class="st420" d="M72.9,60c0,1.3,0,2.6,0,3.9c-0.3,0.7-0.7,1.4-1,2.1c-1.1,0.5-1.5-0.3-2-1c0-0.3,0-0.7,0-1
		c1.3-1,1.9-2.4,2.1-4C72.3,60,72.6,60,72.9,60z"/>
	<path class="st421" d="M67,74.9c0.3,0.1,0.7,0.1,1,0.2c0.5,1.8,1.1,3.7-1,4.9c-0.9,0.3-1.3-0.2-1.5-1c-0.2-1.3,0.7-2.2,1.5-3.1
		C67,75.6,67,75.3,67,74.9z"/>
	<path class="st422" d="M69,74.7c0.4-0.7,0.9-1.3,1.3-2c0.8,0.4,2.4,0.2,2.1,1.4C71.8,75.7,70.1,74.8,69,74.7z"/>
	<path class="st423" d="M70,65c0.7,0.3,1.3,0.7,2,1c0,0.6,0,1.2,0,1.8c-0.4,0.7-1,0.7-1.6,0.3C69.9,68.1,69.4,68,69,68
		C69.3,67,69.7,66,70,65z"/>
	<path class="st424" d="M70.3,68.1c0.5-0.1,1.1-0.2,1.6-0.3c-0.3,1,0.9,3.2-1.8,2.4C70.2,69.5,70.2,68.8,70.3,68.1z"/>
	<path class="st425" d="M66,79c0.3,0.3,0.7,0.7,1,1c0,0.3,0,0.6,0,0.9c0,0.8-0.2,1.6-1,2.1c0,0-0.2,0.1-0.2,0.1
		c-0.8-1.2-1.7-2.3-2.1-3.6C64.3,78.4,65,78.2,66,79z"/>
	<path class="st426" d="M70.2,108.9c-0.2-0.3-0.2-0.6,0-0.9c0.9-0.7,1.8-1.3,2.7-2C72.9,107.8,72.1,108.9,70.2,108.9z"/>
	<path class="st427" d="M69.9,94.2c1.5-1,1-2.7,1.3-4.2c1.5,2.2,0.5,4.6,0.8,6.9c-0.6-0.7-1.2-1.3-1.8-2
		C70.1,94.7,70,94.5,69.9,94.2z"/>
	<path class="st428" d="M68,86c0.3,0,0.6,0,0.9,0c0.4,0.9,0.7,1.9,1.1,2.8c-0.9,0.7-1.8,1.1-2.9,0.4c-0.3-0.4-0.5-0.8-0.8-1.1
		C67.4,87.9,68,87.2,68,86z"/>
	<path class="st429" d="M75,80.1c1.7,0.6,3.3,1.3,5,1.9c-0.7,1.2-1.6,2.4-3,2.9c-1-0.6-2-1.2-3-1.9C74.3,82.1,74.7,81.1,75,80.1z"/>
	<path class="st430" d="M55,111.1c0,0.6,0,1.2,0,1.8c-1-0.3-1.9-0.5-2.9-0.8c-1.2-0.8-2.5-1.3-4-1.2c-0.3-0.3-0.6-0.7-0.9-1
		c-0.1-1.7,0.7-1.7,1.9-0.9C50.6,110.8,53.3,109.5,55,111.1z"/>
	<path class="st431" d="M49,109c-0.8,0-1.6-0.1-1.9,0.9c-0.7-0.3-1.4-0.7-2.1-1C46.3,107.7,47.7,107.4,49,109z"/>
	<path class="st432" d="M64,79.8c1.3,0.7,2.1,1.7,1.8,3.3c-0.6,0.3-1.2,0.6-1.9,0.9c0-1.1,0-2.3-1.1-3c0-0.4,0.1-0.9,0.1-1.3
		C63.4,79.5,63.7,79.5,64,79.8z"/>
	<path class="st433" d="M48.9,40.7c0.3,0.1,0.7,0.2,1,0.3c-0.9,1.2-1.3,2.5-1.1,3.9c-0.2,0.3-0.5,0.5-0.9,0.6
		c-0.4,0-0.7-0.2-0.9-0.6c0,0,0,0,0,0C46.7,43.1,47.5,41.7,48.9,40.7z"/>
	<path class="st434" d="M47,44.9c0.3,0.1,0.6,0.2,0.9,0.2c1.1,0.9,2.3,1.8,2.7,3.2c0.2,1,0.2,1.9-0.7,2.7c-1.3-0.3-2.6-0.7-3.9-1
		c-0.1-0.6-0.2-1.3-0.3-1.9C47.2,47.5,46.9,46.1,47,44.9z"/>
	<path class="st435" d="M50,51.1c0-1,0-2,0-3.1c-0.2-1,0.4-1.3,1.2-1.5c1.4,0.3,2.4,0.9,2,2.6c-0.2,0.3-0.3,0.6-0.5,0.9
		c-0.6,0.7-1.2,1.4-1.8,2C50.6,51.7,50.3,51.4,50,51.1z"/>
	<path class="st436" d="M68,71c-0.6,1.4-1.9,1-3,1.2c0.3-1.1-1.2-2.2,0.1-3.3C66.1,69.6,66.5,71.1,68,71z"/>
	<path class="st437" d="M64,79.8l-0.5,0.1c0,0-0.5-0.1-0.5-0.1c0-0.9,0-1.7,0-2.6c0.9-1.6,2.4-1.6,4-1.2c-0.3,1-0.7,2-1,3
		C65.3,79.3,64.7,79.5,64,79.8z"/>
	<path class="st438" d="M61.8,32.9c-0.3,0-0.5,0-0.7,0.2c-0.4,0.4-0.8,0.4-1-0.2c0,0,0.1,0,0.1,0c-0.3-0.6-0.6-1.3-0.9-1.9
		c0.7-0.3,1.6-0.9,2.2-0.7C62.6,30.8,61.9,32,61.8,32.9z"/>
	<path class="st439" d="M50.8,47c-0.3,0.3-0.6,0.6-0.8,1c-1.3-0.5-1.9-1.5-2-2.8c0.3-0.1,0.6-0.2,0.9-0.2c1.3,0,2.7,0.1,4,0.1
		c0,0,0.5-0.1,0.5-0.1c0.2,0.4,0.1,0.8-0.1,1.2C52.5,46.8,51.5,46.5,50.8,47z"/>
	<path class="st440" d="M60,32.9c0.3,0.1,0.7,0.1,1,0.2c0.3,1.4,2.5,3.3-0.9,3.8c-0.1-0.9-0.1-1.9-0.2-2.8C60,33.7,60,33.3,60,32.9z
		"/>
	<path class="st441" d="M50.8,47c0.4-0.9,1.2-1.1,2-1.1c0.9,0.1,1.8,0.3,2.3,1.2c0,0.6,0,1.1,0.1,1.7c-0.7,0.1-1.3,0.2-2,0.4
		C52.8,48,51.8,47.4,50.8,47z"/>
	<path class="st442" d="M55.1,47.1c-0.9,0-1.8-0.3-2.3-1.2c0.2-0.3,0.3-0.6,0.5-0.9c0.5,0,1,0,1.5,0.1C55.1,45.7,56,46.3,55.1,47.1z
		"/>
</g>
</svg>
