<svg version="1.1" id="beethovenSign" xmlns="http://www.w3.org/2000/svg"  x="0px" y="0px"
	 viewBox="0 0 392 62" style="enable-background:new 0 0 392 62;" xml:space="preserve">

<style>
	


	
	  path{
    fill:none;
    stroke:currentColor;
  }

path
  {fill: none;
  stroke: currentColor;
  stroke-width: 30;
  }



 path
     {
     stroke-width: 1.9;
      stroke-dasharray: 1200;
      stroke-dashoffset: 1200;
      -webkit-animation: dash 7s linear forwards;
      -o-animation: dash 7s linear forwards;
      -moz-animation: dash 7s linear forwards;
      animation: dash 7s linear forwards;

    
      -webkit-animation-delay: 0.5s;
      -o-animation-delay: 0.5s;
      -moz-animation-delay: 0.5s;
      animation-delay: 0.5s;


    }






    @-webkit-keyframes dash {
      from {
        stroke-dashoffset: 1200;
      }
      to {
        stroke-dashoffset: 0;
      }
    }
        @-moz-keyframes dash {
      from {
        stroke-dashoffset: 1200;
      }
      to {
        stroke-dashoffset: 0;
      }
    }
        @-o-keyframes dash {
      from {
        stroke-dashoffset: 1200;
      }
      to {
        stroke-dashoffset: 0;
      }
    }





</style>


<path d="M52.5,17.87c-2.85,4.61-7.02,8.58-10.88,12.32c-9.47,9.2-20.22,17.34-30.67,25.4c-1.17,0.9-5.39,4.85-7.05,3.97
	c-5.51-2.9,10.17-9.65,11.78-10.37c6.32-2.78,12.25-6.09,18.17-9.63c14.24-8.51,29.04-17.43,41.47-28.5
	c0.95-0.85,6.43-5.71,2.95-6.72c-4.05-1.17-10.43,4.84-13.15,6.94c-7.56,5.84-17.87,14.1-20.38,23.82
	c-1.19,4.61,0.47,8.29,5.53,7.67c7.06-0.87,13.65-7.47,18.45-12.15c-0.85-0.14-1.7-0.29-2.55-0.43c-1.62,3.14-4.22,7.5-3.75,11.15
	c0.15,1.19,2.46,0.33,2.82-0.29c0.91-1.58,4.36-2.85,5.9-3.97c2.16-1.57,3.59-3.87,5.59-5.55c-0.88-0.06-1.76-0.12-2.64-0.18
	c-0.44,2.69-5.49,8.37,0.63,8.2c1.55-0.04,2.31-1.91,0.33-1.86c-1.75,0.05,1.84-5.93,1.96-6.64c0.22-1.38-2.18-0.58-2.64-0.18
	c-2.69,2.25-4.46,5.73-8.04,6.89c-1.7,0.55-2.91,1.54-3.8,3.09c0.94-0.1,1.88-0.19,2.82-0.29c-0.42-3.3,2.11-7.32,3.58-10.18
	c0.73-1.42-2-0.97-2.55-0.43c-2.47,2.41-14.54,14.64-18.49,10.16c-2.71-3.08,1.5-9.51,3.28-12.04c5.11-7.26,12.41-13.42,19.62-18.5
	c1.33-0.93,2.7-1.82,4.12-2.59c0.95-0.51,1.65-1.18,1.53-0.55c-0.35,1.82-3.21,3.76-4.49,4.87c-6.3,5.48-13.39,10.15-20.32,14.77
	c-7.5,5-15.15,9.8-22.93,14.37c-7.4,4.34-15.33,7.33-22.84,11.43c-2.41,1.31-5.46,3.16-5.8,6.15c-0.19,1.64,1.25,3.22,2.78,3.48
	c5.1,0.84,11.15-5.69,14.59-8.44c9.67-7.75,19.6-15.26,28.42-23.99c3.37-3.33,6.92-6.95,9.42-11.01
	C56.02,16.79,53.08,16.93,52.5,17.87L52.5,17.87z"/>
<path d="M81.85,33.28c-1.12,1.35-4.4,4.94-3.68,6.95c0.66,1.83,3.01,1.42,4.37,0.57c4.14-2.58,7.3-6.98,10.43-10.62
	c4.05-4.71,9.22-9.31,11.78-15.06c0.93-2.09-0.27-3.29-2.33-3.25c-3.37,0.06-6.95,2.43-9.39,4.53c-2.41,2.08-3.41,6.56-1.54,9.3
	c1.55,2.28,3.5,3.31,3.03,6.42c-0.47,3.12-4.43,8.76-8.15,7.63c-0.64-0.19-2.81,0.37-2.24,1.34c0.46,0.78,3.31,0.8,3.97,0.82
	c3.05,0.09,5.81-0.4,8.63-1.54c4.21-1.71,9.93-6.12,11.38-10.65c0.33-1.03-2.45-0.53-2.8,0.16c-0.65,1.3-0.86,3.04-0.56,4.45
	c0.19,0.89,1.99,1.31,2.6,1.6c0.83,0.39-0.98,1.25-1.62,2.15c-2.2,3.08,5.41,5.68,6.92,0.71c0.31-1.01-2.6-0.6-2.9,0.37
	c-0.57-1.27-0.35-2.12,0.66-2.53c0.2-0.13,0.71-0.48,0.55-0.81c-1.05-2.24-4.63-2.53-2.96-5.9c-0.93,0.05-1.86,0.11-2.8,0.16
	c-0.84,2.61-3.36,4.65-5.37,6.37c-2.33,2-5,3.31-8.09,3.81c0.63-0.1-4.73,0.06-4.94-0.3c-0.75,0.45-1.49,0.9-2.24,1.34
	c3.91,1.19,7.84-1.69,10.27-4.44c1.88-2.12,3.25-5.45,2.44-8.24c-0.31-1.05-1.36-1.94-2.08-2.69c-1.63-1.71-1.86-3.76-1.57-6.01
	c0.38-2.89,3.48-4.53,5.78-5.69c3.23-1.62,2.78,0.72,1.69,2.72c-2.4,4.39-6.43,8.05-9.67,11.81c-3.09,3.59-6.08,7.38-9.67,10.49
	c-0.99,0.86,0.77-3.23,1.13-3.76c0.5-0.74,1.06-1.46,1.63-2.15C85.36,32.35,82.44,32.56,81.85,33.28L81.85,33.28z"/>
<path d="M116.44,34.21c-0.62,1.35-3.05,7.19-0.08,7.68c2.32,0.38,4.41-1.1,6.15-2.46c1.35-1.06,15.54-16.04,12.73-16.82
	c-1.98-0.55-3.5,1.17-4.39,2.64c-0.94,1.54-1.31,3.37-0.98,5.12c0.41,2.15,3.18,2.98,3.55,5.48c0.87,5.69-11.05,13.48-14.9,16.29
	c-1.31,0.95-9.04,5.88-7.13,1.17c0.73-1.8,3.03-3.26,4.59-4.27c1.24-0.81-1.68-0.52-2.24-0.16c-2.14,1.39-4.5,3.14-5.49,5.57
	c-1,2.45,2.41,2.57,3.82,2.33c3.57-0.61,6.91-3.2,9.74-5.26c4.34-3.16,9.33-6.96,12.44-11.37c2.52-3.57,2.71-6.45-0.69-9.37
	c-2.1-1.81-0.47-5.33,0.85-7.08c-1.39,1.85-1.13-0.78-1.86,1.28c-0.29,0.81-0.83,1.55-1.29,2.26c-2.49,3.83-5.82,7.26-9.13,10.39
	c-0.8,0.75-1.64,1.46-2.5,2.13c-1.4,1.09-1.41,1.04-1.73-0.63c-0.32-1.66,0.73-3.92,1.41-5.42
	C119.55,33.17,116.79,33.44,116.44,34.21L116.44,34.21z"/>
<path d="M120.32,28.91c-0.16-1.03-0.27-2.06-0.35-3.1c-0.07-0.83-0.1-1.67-0.07-2.51c0.01-0.3,0.05-0.6,0.1-0.9
	c0.23-1.45,0.5,0.77-1.61-0.09c0.65,0.26,1.47,0.07,2.05-0.28c0.36-0.21,0.91-0.84,0.26-1.11c-0.97-0.39-2.19-0.15-2.96,0.55
	c-0.72,0.66-0.72,1.8-0.75,2.7c-0.04,1.83,0.16,3.69,0.43,5.5C117.57,30.65,120.48,29.97,120.32,28.91L120.32,28.91z"/>
<path d="M83.38,22.68c0.55,0.26-0.06-0.06-0.18-0.16c-0.35-0.25-0.62-0.61-0.86-0.97c-0.98-1.48-0.61-3.54-0.09-5.11
	c0.52-1.57-2.37-1.47-2.76-0.3c-0.99,2.98-1.08,6.89,2.21,8.43C82.85,25.13,85.04,23.46,83.38,22.68L83.38,22.68z"/>
<path d="M150.42,21.35c0.45,1.18,0.11,2.8-0.02,3.99c-0.75,6.86-3.07,13.64-5.25,20.13c-0.51,1.51,1.94,1.37,2.59,0.56
	c7.43-9.26,12.09-20.3,19.4-29.58c0.6-0.76,1.24-1.47,1.89-2.18c0.4-0.44,0.85-0.85,1.32-1.21c-0.73-0.23-1.04,0-0.93,0.68
	c-0.56,3.84-2.95,7.74-4.48,11.27c-0.86,1.99-2.88,4.98-2.98,7.24c-0.05,1.07,1.44,1.02,2.1,0.71c0.4-0.19,0.66-0.47,0.85-0.85
	c0.73-1.45-2.2-1.41-2.76-0.3c-0.2,0.4-0.13-0.13,0.64-0.5c0.7,0.24,1.4,0.47,2.1,0.71c0.01-0.18,0.69-1.71,0.92-2.26
	c1.65-3.95,3.4-7.86,5.06-11.8c0.88-2.08,3.29-8.97-1.69-6.63c-4.73,2.22-8.32,9.44-10.76,13.72c-4,6.99-8.04,13.89-13.1,20.18
	c0.86,0.19,1.73,0.37,2.59,0.56c2.19-6.54,4.33-13.18,5.33-20.02c0.22-1.5,0.64-3.69,0.07-5.19
	C152.83,19.3,149.95,20.12,150.42,21.35L150.42,21.35z"/>
<path d="M163.68,32.95c-1.15,1.06-9.21,8.72-4.56,9.85c6.13,1.5,9.54-7.31,10.88-11.64c0.38-1.24-2.56-0.85-2.92,0.28
	c-0.58,1.83-4.72,14.22,1.07,11.04c2.26-1.24,4.16-3.35,6.1-5.03c0.52-0.46,1.06-0.9,1.61-1.33c1.33-1.04-0.36-1.12-0.72-0.18
	c-0.94,2.44-2.59,4.71-3.97,6.91c-0.83,1.32,2.13,1.11,2.74,0.23c1.27-1.83,2.61-3.6,3.99-5.35c1.01-1.29,2.08-2.53,3.19-3.74
	c0.64-0.69,1.32-1.33,2.07-1.91c-0.4,0.31-0.36-0.29-0.79,0.49c-3.15,5.67,2.54,9.36,7.04,11.85c1,0.55,3.6-0.83,2.26-1.57
	c-4.15-2.3-9.21-5.29-6.37-10.4c0.77-1.39,0.13-2.66-1.6-2.5c-5.24,0.5-9.84,9.02-12.53,12.9c0.91,0.08,1.83,0.15,2.74,0.23
	c0.52-0.83,5.7-7.62,4.21-8.95c-1.43-1.26-3.4,0.28-4.57,1.19c-2.31,1.8-4.33,4.39-6.9,5.8c1.6-0.88,1.11,0.36,1.3-1.66
	c0.11-1.2,0.43-2.38,0.71-3.55c0.38-1.6,0.85-3.18,1.35-4.75c-0.98,0.09-1.95,0.18-2.92,0.28c-0.73,2.35-1.58,4.41-2.84,6.5
	c-0.62,0.99-1.38,1.86-2.28,2.6c-1.08-0.45-1.26-1.01-0.56-1.7c1.13-1.96,3.01-3.67,4.66-5.19
	C167.36,32.46,164.52,32.17,163.68,32.95L163.68,32.95z"/>
<path d="M232.87,23.28c0.62-0.91,6.05-8.68,3.83-9.31c-4.08-1.14-6.33,5.8-7.78,8.28c-4.31,7.36-10.32,14.14-15.93,20.56
	c-1.39,1.59-2.88,3.1-4.52,4.43c-2.65,2.15-2.92-1.66-2.68-3.43c0.31-2.32,1.41-4.68,2.52-6.72c0.37-0.68-2.43-0.42-2.88,0.41
	c-1.28,2.36-5.05,10.02-1.06,11.78c3.96,1.75,8.15-3.11,10.46-5.58c5.74-6.12,11.52-13.12,15.99-20.21
	c1.18-1.87,2.24-3.82,3.34-5.74c0.32-0.56,0.65-1.11,1-1.66c1.05-1.7-0.96-0.01-1.19,0.7c-0.78,2.33-2.38,4.51-3.77,6.53
	C229.5,24.32,232.39,23.98,232.87,23.28L232.87,23.28z"/>
<path d="M216.35,27.9c-7.84-4.91,5.29-16.87,9.09-19.37c5.34-3.51,25.77-10.12,24.31,2.6c-0.66,5.74-4.48,10.9-9.07,14.17
	c-0.83,0.6-1.74,1.07-2.67,1.5c-0.07,0.03-2.61,0.94-0.51,0.03c3.39-1.48,6.44-0.06,6.17,3.8c-0.36,5.23-9.97,15.63-15.5,11.25
	c0.52-0.3,1.04-0.6,1.55-0.9c1.46,0.25,2.91,0.55,4.36,0.88c1.18,0.26,2.38,0.28,3.57,0.33c2.25,0.09,4.75-0.42,6.85-1.22
	c4.14-1.57,10.17-4.07,13.22-7.3c1.67-1.77,1.82-3.36-0.85-3.73c-7.34-1.03-14.18,8.95-11.12,15.32c2.57,5.36,10.47-0.06,13.52-1.87
	c4.45-2.64,13.87-7.72,14.85-13.49c0.32-1.86-1.89-2.65-3.32-2.62c-2.51,0.05-5,1.9-6.41,3.86c-2.56,3.55-5.9,15.34,1.57,15.28
	c7.34-0.06,14.67-8.87,19.15-13.6c8.42-8.92,16.21-19.23,21.9-30.11c2.39-4.58-2.37-2.37-4.13-0.34
	c-5.19,5.99-8.34,13.22-12.35,19.98c-4.73,7.98-10.66,15.75-13.96,24.48c-2.02,5.34,3.12,5.06,5.73,1.79
	c4.35-5.45,5.58-12.23,1.44-18.09c-2.92-4.15-8.51-2.47-8.44,2.55c0.08,6.05,6.02,6.78,10.57,5.11c9.78-3.6,16.48-12.2,23.51-19.45
	c3.27-3.37,6.58-6.74,10.11-9.83c0.97-0.85,1.96-0.91,1.11-1.73c-0.33-0.31,0.3-0.83-0.1-0.49c-1.44,1.2-2.75,2.48-3.98,3.9
	c-10.18,11.67-17.12,26.55-23.85,40.33c-0.66,1.36,2.22,0.99,2.72,0.14c2.93-4.98,6.02-10.02,9.77-14.43
	c0.95-1.11,1.82-2.42,0.75-0.21c-0.7,1.44-1.72,2.76-2.62,4.09c-1.35,1.99-3.25,4.37-3.09,6.91c0.32,5.06,9.96-1.22,11.05-2.06
	c4.72-3.67,8.89-8.22,12.7-12.82c-0.85-0.12-1.69-0.24-2.54-0.36c-1.8,2.37-11.33,15.67-3.15,15.41c7.38-0.24,15.79-14.79,9.34-20.1
	c-1.92-1.58-4.72-0.4-6.38,0.91c-3.61,2.85-1.27,7.89,1.5,10.24c2.84,2.41,7.51,1.52,10.45-0.17c1.57-0.9,7.21-4.52,5.59-7.02
	c-0.29-0.45-1.15-0.3-1.55-0.21c-3.84,0.82-6.31,10.38-5.92,13.5c0.61,4.91,5.01,0.95,6.55-1.1c1.92-2.56,3.51-5.39,5.17-8.12
	c0.73-1.19,1.46-2.37,2.25-3.53c1.37-2.02-0.92-1.81-0.96,0.18c-0.19,8.69,9.28,7.27,15.05,5.28c4.81-1.66,9.83-7.97,2.3-9.78
	c-7.78-1.87-12.04,9.04-13.74,14.54c-1.77,5.72,2.38,9.52,7.44,5.47c3.96-3.17,5.2-8.01,8.35-11.79c0.72-0.86-0.26-0.41-0.27,0.58
	c-0.01,0.82-0.24,1.67-0.41,2.46c-0.73,3.29-2.21,6.46-3.6,9.51c-0.63,1.38,2.23,1,2.72,0.14c2.65-4.73,5.73-9.51,9.71-13.22
	c4.14-3.85,0.25,1.93-0.81,3.34c-1.61,2.14-3.14,4.31-4.11,6.81c-4.13,10.63,19.33,5.33,23.31,4.04c1.71-0.55,1.31-2.16-0.43-1.6
	c-5.5,1.78-13.66,4.26-19.02,1.29c-5.19-2.88,5.26-12.1,6.15-15.21c1.21-4.24-6.49-0.06-7.45,0.74c-4.23,3.55-7.4,8.9-10.08,13.67
	c0.91,0.04,1.81,0.09,2.72,0.14c1.3-2.85,6.15-11.09,3.92-14.28c-1.46-2.09-4.44,0.55-5.36,1.8c-2.24,3.04-3.54,6.6-6.01,9.5
	c-4.98,5.82-4.27-2.38-3.48-4.96c1.09-3.51,4.64-13.07,10.17-10.85c2.02,0.81,1.51,2.9,0.4,4.21c-2.24,2.63-7.21,3.26-10.42,3.22
	c-6.01-0.07-2.02-7.75-5.26-7.91c-2.47-0.12-3.91,3.05-4.98,4.76c-2.31,3.68-4.32,7.83-7.3,11.04c-0.62,0.45-0.39,0.56,0.71,0.32
	c-0.28-0.66-0.38-1.35-0.32-2.06c0-1.27,0.4-2.56,0.73-3.76c0.43-1.52,1.07-2.99,1.74-4.41c0.34-0.72,1.85-2.54,0.97-2.35
	c-0.52-0.07-1.04-0.14-1.55-0.21c1.01,1.56-4.71,4.83-5.4,5.15c-4.29,2.02-8.4-1.99-8.36-6.09c0.03-3.06,3.07-3.73,4.02-0.74
	c0.95,3-0.35,6.8-1.68,9.47c-0.55,1.1-5.23,7.49-6.69,4.72c-0.82-1.56,0.95-4.49,1.58-5.74c1.27-2.49,2.89-4.85,4.58-7.08
	c0.82-1.08-1.98-1.03-2.54-0.36c-3.89,4.68-8.14,9.27-12.95,13.01c-0.83,0.65-4.79,3.86-5.55,1.68c-0.47-1.33,1.28-3.49,1.93-4.53
	c1.46-2.32,3.62-4.59,4.27-7.32c0.32-1.34-1.06-1.89-2.14-1.77c-2.07,0.23-3.64,2.19-4.88,3.65c-3.69,4.34-6.73,9.35-9.61,14.26
	c0.91,0.04,1.81,0.09,2.72,0.14c5.21-10.67,10.67-21.26,17.14-31.22c2.59-3.99,5.38-8.02,8.86-11.3c0.51-0.48,2.52-1.61,1.9-2.52
	c-2.14-3.16-10.92,6.77-11.73,7.57c-3.92,3.86-27.91,32.18-32.82,21.27c-1.81-4,0.81-5.3,3.15-1.98c1.83,2.59,1.85,5.62,1.24,8.59
	c-0.48,2.31-1.66,4.44-3,6.35c-2.12,3.01-1.27,0.6-0.64-1.3c3.06-9.28,10.12-17.75,15.02-26.12c3.77-6.44,6.69-13.72,12.19-18.98
	c-3.04,2.91-0.97-2.03-2.11,0.6c-0.31,0.72-0.71,1.4-1.09,2.09c-1.42,2.57-3.04,5.04-4.64,7.5c-4.18,6.47-8.9,12.57-13.98,18.35
	c-3.82,4.34-7.96,8.53-12.62,11.97c-1.58,1.17-3.69,2.74-5.74,2.76c-2.8,0.02-2.07-6.34-1.92-7.55c0.33-2.66,1.73-5.12,3.61-6.97
	c2.15-2.11,3.61-0.33,2.33,1.76c-2.29,3.72-6.84,6.45-10.38,8.81c-2.1,1.4-8.65,6.64-11.14,4.22c-1.73-1.69-1.23-4.86-0.65-6.88
	c0.67-2.35,2.61-3.9,4.52-5.19c2.22,0.42,2.35,0.96,0.42,1.63c-0.88,0.49-1.74,0.98-2.61,1.49c-3.45,1.99-6.77,3.83-10.79,4.39
	c-3.44,0.48-6.8-1.04-10.22-1.19c-1.64-0.07-4.72,0.55-4.77,2.66c-0.05,2.2,3.61,2.61,5.08,2.7c3.56,0.21,7.58-2.04,10.17-4.27
	c4.03-3.47,11.23-14.37,1.8-15.69c-2.37-0.33-5.02,0.54-7.07,1.65c-1.03,0.56-2.2,2.42-0.29,2.72c6.98,1.11,13.82-7.29,16.4-12.65
	c3.98-8.29,0.36-14.06-8.51-14.42c-9.73-0.39-19.65,4.8-26.03,11.85c-3.22,3.56-8.36,11.94-2.4,15.66
	C214.94,29.92,217.59,28.67,216.35,27.9L216.35,27.9z"/>
</svg>
