<svg version="1.1" id="mozatySign" xmlns="http://www.w3.org/2000/svg" x="0px" y="0px"
	 viewBox="0 0 450 100" style="enable-background:new 0 0 450 100;" xml:space="preserve">
<style type="text/css">

  path{
    fill:none;
    stroke:currentColor;
  }

.st0.v1
  {fill: none;
  stroke: currentColor;
  stroke-width: 14px;
  }



  .svg-line-animate
     {
      stroke-dasharray: 1000;
      stroke-dashoffset: 1000;
      -webkit-animation: dash 7s linear forwards;
      -o-animation: dash 7s linear forwards;
      -moz-animation: dash 7s linear forwards;
      animation: dash 7s linear forwards;

    
      -webkit-animation-delay: 0.5s;
      -o-animation-delay: 0.5s;
      -moz-animation-delay: 0.5s;
      animation-delay: 0.5s;


    }





/*basic svg line drawing:*/
    @-webkit-keyframes dash {
      from {
        stroke-dashoffset: 1000;
      }
      to {
        stroke-dashoffset: 0;
      }
    }
        @-moz-keyframes dash {
      from {
        stroke-dashoffset: 1000;
      }
      to {
        stroke-dashoffset: 0;
      }
    }
        @-o-keyframes dash {
      from {
        stroke-dashoffset: 1000;
      }
      to {
        stroke-dashoffset: 0;
      }
    }



</style>
<path class="st0 svg-line-animate" d="M22.5,32.96c-3.69-1.55-8.47-1.65-12.14-0.01c-4.85,2.17-9.23,7.81-5.86,12.96c2.09,3.2,6.32,4.89,10.03,4.41
	c5.64-0.74,4.27-5.44,1.96-9.09c-1,0.4-2,0.8-3,1.2c1.67,0.15,3.34,0.17,5.02,0.17c1.48,0,2.94-0.15,4.41-0.33
	c0.58-0.1,1.17-0.21,1.75-0.32c1.37-0.42,1.54-0.44,0.5-0.06c0.73,2.62-2.39,5.74,2.23,6c2.91,0.17,7.28-1.18,7.85-4.43
	c0.67-3.83-4.1-5.17-6.91-4.87c-0.56,0.06-3.32,1.4-1.51,1.5c6.01,0.33,12.04-0.82,17.6-3.07c2.07-0.84,6.49-2.94,6.36-5.77
	c-0.09-2.02-1.88-3.23-3.84-3.13c-6.41,0.32-9.96,7.65-7.62,13.45c1.26,3.11,5.03,3.31,6.35,6.66c1.79,4.52,1.51,10.31,0.87,15.01
	c-0.15,1.08,3.28,0.33,3.6-0.51c3.58-9.31,7.44-18.54,11.74-27.54c1.27-2.66,2.62-5.28,4.11-7.83c0.61-1.05,1.27-2.07,2-3.03
	c1.11-1.46,1.57-0.69,0.01-1c1.83,0.36-0.26,4.24-0.67,4.9c-2.79,4.52-8.6,6.24-13.54,6.65c-0.36,0.03-3.64,0.93-2.28,1.48
	c4.36,1.75,14.64,6.65,18.81,2.24c-1.16,0.17-2.32,0.33-3.47,0.5c2,8.19,14.83-2.05,17.14-4.16c0.92-0.83-1.55-0.65-1.81-0.58
	c-2.69,0.67-7.94,4.34-3.54,7.03c2.94,1.8,5.5-2.66,6.16-4.65c-1.21,0.23-2.42,0.46-3.62,0.69c0.72,4.53,0.74,9.35-0.32,13.82
	c-1.04,4.35-3.76,7.64-8.62,6.19c-4.44-1.33,0.84-7.19,2.19-8.64c3.19-3.42,7.11-6.22,11.1-8.62c1.34-0.81,3.95-2.97,4.74-0.7
	c0.15,0.45,0.13,0.96,0.62,1.17c4.32,1.86,6.79-6.85,8.23-7.97c-1.07,0.1-2.15,0.2-3.22,0.3c0.46,0.99,0.58,1.77,1.4,2.61
	c0.96,1,1.86,4.49,3.55,4.64c1.37,0.12,2.92-0.08,4.07-0.92c3.76-2.72,2.9,1.84,5.73,1.8c1.76-0.02,3.52-1.51,4.21-0.01
	c0.57,1.25,1.46,1.68,2.84,1.51c3-0.38,6.89-2.58,7.81-5.65c-1.17,0.28-2.34,0.56-3.51,0.85c1.57,1.27,1.7,4.18,4.34,4.08
	c3.93-0.14,4.93-3,5.81-6.49c-1.21,0.23-2.41,0.46-3.62,0.69c0.39,7.31,0.12,15.55-3.06,22.25c-1.01,2.12-2.86,4.27-5.44,3.42
	c-1.44-0.48-1.92-2.09-1.69-3.45c1-6.01,10.91-8.27,15.5-9.35c2.14-0.5,1.83-1.78-0.31-1.28c-6.31,1.49-15.2,3.77-18.44,10.13
	c-2.05,4.02,2.3,6.19,5.7,5.68c12.11-1.79,11.89-18.84,11.39-28.28c-0.04-0.85-3.42-0.09-3.62,0.69c-0.36,1.42-0.73,2.72-1.34,4.06
	c0.23-0.49,1.03,0.56-0.08-0.75c-0.62-0.73-0.94-1.99-1.7-2.6c-0.67-0.54-3.25-0.04-3.51,0.85c-0.11,0.38-2.7,4.3-3.41,2.75
	c-0.57-1.25-0.98-1.63-2.33-1.76c-0.99-0.09-2.08,0.24-2.99,0.63c-0.95,0.4-1.44-1.48-2.49-2.4c-2.05-1.79-5.71,0.33-7.41,1.49
	c-0.03,0.02-3.44-5.46-3.74-6.09c-0.41-0.88-2.7-0.11-3.22,0.3c-0.81,0.64-1.24,1.76-1.77,2.63c-0.93,1.53-1.93,3.03-3.03,4.44
	c-1.05,1.35,2.82,0.86,2.47-0.57c-0.56-2.28-3.05-2.36-4.99-1.79c-4.59,1.34-8.75,4.1-12.48,7.04c-3.51,2.77-8.88,6.74-9.58,11.55
	c-0.51,3.52,4.66,3.74,6.92,3.76c3.28,0.02,6.53-1.53,8.53-4.1c3.77-4.86,3.36-13.04,2.45-18.79c-0.15-0.93-3.38-0.04-3.62,0.69
	c-0.23,0.69-0.51,1.34-0.81,1.99c-0.72,1.02-0.46,1.01,0.77-0.02c-0.72-1.16-0.27-3.19,1.33-3.59c-0.6-0.19-1.21-0.39-1.81-0.58
	c-1.71,1.56-8.87,8.58-10.19,3.17c-0.24-1-3.06,0.06-3.47,0.5c-1.1,1.16-10.8-3.07-12.52-3.76c-0.76,0.49-1.52,0.99-2.28,1.48
	c7.28-0.6,17.07-3.18,19.81-10.96c1.82-5.16-4.92-3.77-7.02-1.42c-5.29,5.91-8.26,14.73-11.37,21.88
	c-2.49,5.72-4.85,11.49-7.1,17.31c1.2-0.17,2.4-0.34,3.6-0.51c0.65-4.77,0.63-9.61-0.49-14.31c-1.05-4.41-4.6-4.33-6.68-7.73
	c-1.48-2.42-0.26-5.86,0.51-8.29c1.16-3.69,5.32-1.82,2.77,1.49c-3.27,4.24-12,4.95-17.05,4.67c-0.5,0.5-1.01,1-1.51,1.5
	c1.78-0.19,3.05,1.28,3.72,2.66c1.08,2.24-2.81,4.38-3.18,2.38c-0.28-1.49,0.92-2.95,0.51-4.44c-0.24-0.88-2.04-0.58-2.61-0.46
	c-3.44,0.78-6.75,0.99-10.26,0.68c-0.33-0.03-3.48,0.45-3,1.2c0.2,0.31,3.76,6.89,1.68,6.75c-2.67-0.18-5.32-2.22-6.74-4.38
	c-1.99-3.03-0.34-6.39,1.74-8.86c2.46-2.93,6.8-2.59,9.98-1.25C20.35,34.73,23.67,33.46,22.5,32.96L22.5,32.96 M146.44,46.28
	c0.87-5.04,2.21-10.17,4.45-14.78c0.74-1.53,4.75-7.33,5.82-3.08c1.07,4.28-1.88,10.37-3.15,14.32c-0.28,0.88,3.27,2.07,3.55,1.22
	c1.34-4.15,5.1-11.79,2.56-16.12c-1.3-2.22-5.62-3.32-7.92-2.43c-3.68,1.42-5.26,6.45-6.4,9.83c-1.08,3.19-1.89,6.51-2.46,9.83
	C142.72,46.07,146.31,47.03,146.44,46.28L146.44,46.28 M144.99,42.04c3.68-1.47,7.56-1.78,11.39-2.67c1.44-0.33,2.84-0.91,4.25-1.37
	c3.27-1.06,2.94,2.01,2.95,4.52c0,1.13,2.85,2.21,3.49,1.2c0.48-0.75,0.99-1.48,1.52-2.19c0.5-0.68,1.06-1.28,1.68-1.86
	c1-0.57,0.51-0.88-1.47-0.93c0.1,1.07,0.03,2.14-0.2,3.2c-0.15,1.14,2.48,2.5,3.31,1.64c1.13-1.17,2.33-2.25,3.62-3.24
	c1.04-0.43,0.83-0.81-0.62-1.15c-0.07,0.74,0,1.48,0.22,2.19c0.18,0.87,0.85,1.87,1.54,2.41c1.4,1.1,2.9,1.5,4.65,1.35
	c1.3-0.11,9.12-6.55,9.27-5.95c0.85-0.04,1.7-0.09,2.55-0.13c-1.63-1-4-1.82-5.92-1.35c-2.74,0.67-5.83,4.73-4.32,7.62
	c2.46,4.73,11.48,2.23,10.55-3.19c-0.21-1.19-3.71-2.25-3.52-0.95c0.42,2.93,2.22,4.84,5.13,5.27c5.89,0.87,7.1-10.67,12.75-9.47
	c-0.37-0.7-0.74-1.39-1.11-2.09c-2.57,0.35-5.17,1.15-7.07,2.98c-1.94,1.85-1.24,5.07,0.93,6.33c7.67,4.45,11.3-12.48,11.86-16.48
	c-1.15-0.48-2.31-0.96-3.46-1.44c-0.6,4.61-2.44,14.6,2.84,17.15c4.06,1.96,6.74-2.46,9.62-4.56c-1.66-1.56-2.39-1.76-2.2-0.59
	c0,0.36,0.01,0.72,0.03,1.07c0.04,0.97,0.32,1.84,0.75,2.69c0.84,1.67,2.84,2.41,4.48,2.95c2.42,0.79,1.37-1.46-0.25-1.98
	c-2.66-0.86-0.44-4.86-3.1-6.09c-2.87-1.33-5.2,2.13-7.04,3.79c-1.65,1.49-1.34,1.12-1.79-0.96c-0.36-1.71-0.35-3.52-0.35-5.26
	c0.01-2.25,0.18-4.53,0.47-6.77c0.18-1.35-3.31-2.51-3.46-1.44c-0.76,5.42-2.17,11.68-6.37,15.54c-0.18,0.13-0.36,0.27-0.54,0.4
	c-1.02,0.42-1,0.5,0.07,0.25c-0.48-1.73,0.71-2.94,1.96-3.83c1.24-0.88,3.09-1.35,4.59-1.55c1.89-0.26-0.27-1.91-1.11-2.09
	c-3.27-0.7-5.27,0.27-7.49,2.78c-1.54,1.74-2.78,3.69-4.46,5.32c-1.51,1.46-1.93,0.7-2.16-0.97c-1.17-0.32-2.35-0.63-3.52-0.95
	c0.35,2.04-3.57,4.99-3.73,4.14c-0.52-2.69,2.49-6.81,5.36-5.06c0.32,0.2,2.84,1.03,2.55-0.13c-0.48-1.98-2.68-3.08-4.64-3.08
	c-1.86,0.01-3.32,0.59-4.93,1.49c-1.97,1.11-5.93,6.38-6.12,0.92c-0.05-1.54-2.82-2.5-4.03-2.05c-2.22,0.82-4.01,2.65-5.62,4.32
	c1.1,0.55,2.21,1.09,3.31,1.64c0.3-2.24,0.64-6.86-3.15-6.32c-2.44,0.35-4.09,3.29-5.31,5.21c1.16,0.4,2.33,0.8,3.49,1.2
	c0-4.74-1.82-8.78-7.21-8.01c-2.59,0.37-4.94,1.69-7.53,2.1c-3.4,0.54-6.79,1.1-10.01,2.39C140.8,40.58,143.93,42.47,144.99,42.04
	L144.99,42.04 M227.04,31.12c0.44,0.56,0.89,1.11,1.33,1.67c0.44,0.56,1.46,1.23,2.15,0.66c0.7-0.57,0.22-1.68-0.23-2.24
	c-0.44-0.56-0.89-1.11-1.33-1.67c-0.44-0.56-1.46-1.23-2.15-0.66C226.11,29.45,226.6,30.57,227.04,31.12L227.04,31.12 M257.21,32.84
	c-8.84-1.02-16.63,15.17-8.58,20.57c3.61,2.42,8.39-0.71,11.22-2.89c10.29-7.9,18.15-19.15,25.56-29.62
	c-0.99-0.73-1.98-1.46-2.98-2.19c-3.41,9.89-6.68,19.87-9.33,30c1.04,0.64,2.09,1.28,3.13,1.91c1.46-6.97,4.78-12,10.87-15.62
	c5.53-3.28,10.25-8.51,14.3-13.44c-0.94-0.82-1.88-1.65-2.82-2.47c-3.78,6.71-8.37,14.69-9.04,22.48
	c-1.15,13.41,16.66,2.77,22.26,1.38c0.96-0.05,0.6-0.48-1.1-1.29c0.82-0.41,0.94-0.58,0.35-0.52c-1.23-0.02-2.46,0.09-3.68,0.23
	c-1.89,0.22-5.3,0.87-6.05,2.98c-1.43,4.08,3.52,5.01,6.41,4.06c2.48-0.81,4.78-2.02,6.55-3.97c0.67-0.74,0.82-1.64,0.52-1.63
	c0.92-0.05,1.82-0.17,2.72-0.32c4.81-0.79,6.73-3.79,3.24-7.69c-0.22,0.67-0.44,1.34-0.67,2.02c1.27,0.26,2.49,0.64,3.71,1.08
	c3.02,1.08,1.71,2.35-0.09,3.74c-1.88,1.45-4.52,2.93-5.61,5.13c-3.69,7.41,17.24,4.56,18.7,4.4c1.95-0.21-0.21-3.17-1.66-3.02
	c-3.46,0.37-6.91,0.68-10.39,0.73c-1.25,0.02-2.48-0.08-3.71-0.29c-1.04-0.18-0.35,0.96,0.22,0.08c1.29-2.02,3.82-3.44,5.68-4.88
	c6.68-5.15-3.27-9.03-7.75-9.96c-1.36-0.28-1.31,1.29-0.67,2.02c3,3.37-3.49,3.89-5.71,3.97c-0.29,0.01-0.69,0.24-0.74,0.55
	c-0.26,1.78-1.7,2.77-3.14,3.67c-0.83,0.52-1.74,0.88-2.65,1.24c-0.46,0.14-0.93,0.28-1.39,0.42c-0.98,0.06-1.04,0.15-0.17,0.27
	c1.49-2.02,6.14-1.86,8.41-1.79c0.48,0.01,0.8-0.46,0.78-0.89c-0.1-2.49-2.21-3.88-4.55-3.16c-2.65,0.83-5.22,1.97-7.83,2.94
	c-2.43,0.9-4.94,1.92-7.48,2.43c-1.33,0.27-1.24,0.32-1.38-0.9c-0.49-4.49,2.29-9.78,4.05-13.74c1.4-3.16,2.96-6.28,4.65-9.29
	c0.76-1.34-1.77-3.75-2.82-2.47c-4.76,5.77-10.13,11.07-16.71,14.67c-4.97,2.72-7.68,9.68-8.77,14.94c-0.3,1.44,2.69,3.59,3.13,1.91
	c2.65-10.13,5.92-20.11,9.33-30c0.42-1.21-2.09-3.44-2.98-2.19c-6.03,8.51-12.31,16.93-19.64,24.37c-3.19,3.23-7.48,7.69-12.24,8.38
	c-4.45,0.64-0.48-16.26,7.42-15.35C260.36,36.09,258.7,33.01,257.21,32.84L257.21,32.84 M344.11,40.48c-2.42-0.45-4.86-0.1-7,1.14
	c-2.61,1.51-3.74,6.1-1.55,8.39c1.74,1.82,5.18,2.21,7.08,0.28c2.8-2.85,1.39-6,2.1-9.13c-1.01,0.34-2.01,0.67-3.02,1.01
	c-0.97-0.48-0.41,0.01-0.17,0.99c0.29,1.15,0.61,2.28,0.97,3.41c0.61,1.92,1.38,3.76,2.74,5.27c1.1,1.23,2.98,1.26,4.41,0.74
	c0.84-0.31,1.5-0.92,2.08-1.58c2.62-2.91,6.27-2.79,6.7,1.3c0.16,1.52,3.55,1.15,3.69-0.24c0.14-1.34,0.46-2.66,0.82-3.96
	c1.24-4.4,3.43-6.18,7.63-7.64c6.52-2.27,10.55-7.31,15.16-12.13c-1.05-0.34-2.09-0.68-3.14-1.02c-2.29,4.55-4.46,9.17-6.53,13.82
	c-1.21,2.71-6.71,12.06-3.97,14.92c1.3,1.35,3.66-0.08,4.74-0.91c3.23-2.46,5.63-5.81,9.03-8.12c6.86-4.65,9.8-10.83,13.45-18.31
	c-1.18-0.14-2.35-0.27-3.53-0.41c-3.43,8.03-6.81,16.08-10.14,24.15c-2.46,5.97-4.9,11.96-7.23,17.99c-1.15,2.99-3.1,6.6-3.3,9.86
	c-0.11,1.85,3.58,1.63,3.67,0.09c0.18-3.02,1.95-6.33,3.01-9.1c2.27-5.97,4.7-11.89,7.13-17.8c3.45-8.39,6.96-16.76,10.53-25.1
	c0.64-1.51-2.94-1.61-3.53-0.41c-2.76,5.66-5.36,12.88-10.94,16.4c-2.06,1.3-3.98,2.73-5.8,4.35c-1.54,1.37-2.91,2.9-4.38,4.34
	c-0.38,0.37-0.78,0.73-1.22,1.02c2.02-1.34,1.46,1.27,1.59-0.27c0.46-5.15,3.65-10.66,5.76-15.26c1.61-3.53,3.29-7.04,5.04-10.51
	c0.89-1.77-2.26-1.94-3.14-1.02c-2.16,2.27-4.15,4.67-6.44,6.82c-3.56,3.34-7.8,3.79-11.77,6.11c-3.9,2.29-5.75,7.75-6.18,12.01
	c1.23-0.08,2.46-0.16,3.69-0.24c-0.26-2.43-2.18-5.27-4.77-5.69c-3.92-0.65-6.45,1.35-8.98,4.16c-0.76,0.84-3.01-9.48-4.35-10.14
	c-0.89-0.44-2.75-0.13-3.02,1.01c-0.46,2.03,0.22,4.19-0.29,6.3c-1.15,1.91-1.99,1.96-2.5,0.15c-0.21-0.88-0.17-1.76,0.14-2.65
	c0.43-2.03,2.64-2.28,4.14-2C344.24,43.17,346.53,40.93,344.11,40.48L344.11,40.48 M272.42,83.44c8.96,0.89,17.92,2.61,26.58,5
	c5.39,1.49,10.33,4.06,15.64,5.65c4.06,1.22,8.36,1.63,12.58,1.8c15.69,0.65,40.22-3.03,46.98-19.69c0.06-0.14-3.36-0.69-3.74,0.26
	c-7.1,17.51-34.22,20.69-50.23,17.56c-3.98-0.78-7.53-2.66-11.3-4.08c-4.94-1.86-10.1-3.12-15.24-4.26
	c-6.4-1.42-12.92-2.48-19.44-3.12C273.45,82.48,270.06,83.21,272.42,83.44L272.42,83.44 M409.82,25.27
	c-9.93,16.02-17.49,33.79-25,51c-0.76,1.74,2.2,4.02,3.03,2.13c7.51-17.21,15.07-34.98,25-51
	C413.85,25.78,410.92,23.48,409.82,25.27L409.82,25.27 M417.3,16.17c-2.48,1.81-5.55,3.01-8.61,3.16
	c-7.2,0.34-10.89-9.31-4.32-12.91c4.35-2.39,11.8-2.59,15.28,1.4c1.07,1.23,1.74,3.16,3.67,3.15c3.26-0.03,2.11-6.03,5.71-5.45
	c3.14,0.5,1.64,3.76,2.83,5.7c1.48,2.43,4.4,2.64,6.98,2.53c1.03-0.04,5.03-0.07,5.32-1.8c0.13-0.8-0.29-1.38-0.95-1.78
	c-2.03-1.2-5.77-0.56-7.99-0.55c-2.77,0.02-5.55,0.08-8.32,0.16c-2.43,0.07-2.02,3.18,0.21,3.11s4.47-0.11,6.7-0.14
	c1.57-0.02,3.14-0.03,4.71-0.02c0.8,0.01,3.37,0.28,2.96,0.04c-0.32-0.59-0.64-1.19-0.96-1.78c0.14-0.85,1.25-0.88-0.09-0.62
	c-1.17,0.22-5.06,1.2-5.47-0.82c-0.23-1.13,0.01-2.22-0.37-3.34c-0.84-2.47-4.93-4.43-7.38-3.79c-1.83,0.48-2.9,1.31-3.99,2.86
	c-0.39,0.55-0.74,1.64-1.01,2.32c-0.51,1.31,2.29,1.3,1.23-0.24c-2.17-3.17-5.68-5.2-9.54-5.47c-9.04-0.64-21.65,4.26-15.01,15.04
	c4.75,7.71,14.79,6.2,21.12,1.58C421.85,17.17,418.85,15.04,417.3,16.17L417.3,16.17z"/>
</svg>
