<svg version="1.1" id="venus" xmlns="http://www.w3.org/2000/svg" xmlns:xlink="http://www.w3.org/1999/xlink" x="0px" y="0px"
	 viewBox="0 0 202.9 202.7" style="enable-background:new 0 0 202.9 202.7;" xml:space="preserve">
<style type="text/css">
	.st0{fill:#A86327;}
	.st1{fill:#8A451F;}
	.st2{fill:#BF7D2C;}
	.st3{fill:#EBB34F;}
	.st4{fill:#D69837;}
	.st5{fill:#060403;}
</style>
<g>
	<path class="st0" d="M1.1,89.7c0.4-7.3,2.4-14.1,5-20.9c3.6,1.1,9.3-3.1,10.1,5.4c1.8-3.4,0-6.8,2.9-8.5c-0.2,2.3,1.7,3.5,2.3,5.5
		c1-0.9,0.9-1.8,0.8-2.6c1.3,0,2.5,0,1.6-1.8c-0.2-0.9-0.3-1.8-0.5-2.7c2.3-2.7-0.1-3.6-1.8-4.1c-2.4-0.7-2.7-2-3-4.2
		c-0.9-5.8,6-7.1,6.6-11.9l0,0c0.3,1.3,0.7,2.6,1,3.9c0.2,1.4,0.4,2.9,0.7,4.3c0.3,1.2,1.9,1.8,2.1,1.1c1.3-4.8,4.7-2,7.2-2.3
		c-0.6,3.1-4.3,4.4-4.2,7.8c-0.2,0.5-0.1,0.7,0.4,0.4c0.3,3.1-1.5,6.3,1.5,9.5c0.9,1,1.2,2.1,2.9,2.2c2.2,0.2,3.2,1.3,1.2,3
		c-3.4,2.7-0.7,3.7,1.2,5.1c-0.5,3.1,1.7,5.3,2.8,7.9c0.4,1.1,1.1,1,2,0.5c0.8-0.5,1.4-1.1,0.4-1.9c-2.2-1.7-1.9-4.5-3.2-6.6
		c0.2-1.2-0.3-2.6,1-4c2.2,2.2,5.1,2.4,8.1,2.1c1.1-0.1,2.4-0.6,2.9,1.1c1.2,4.4,2.2,2.4,3.6,0c2.2-3.8,4.8-7.5,7.2-11.2
		c0.7-1.1,2.1-1.8,1.8-3.4c-3.1,0.8-3.1-3.7-5.6-3.4c-2.9,0.3-3.1,2.6-2.7,4.9c0.5,3-0.1,4.4-3.3,2.8c0.1-1,0.1-2,0.2-3
		c0.5-3.8-1.1-7.9,3.3-11.1c2.4-1.7,0.3-4.5-2.7-4.3c-2.7,0.1-5.3-0.1-7.9-0.5c-1.5-0.2-2.5-0.7-2.5-2.5c0-2.9,4.5-8.4,6.6-7.4
		c6.1,3.1,7.7-2.4,11.2-4.6c2.2-1.4,3.5-5.3,7.5-3.2c1.1,0.5,1.1-1.7,1.6-2.7c3.1-6.4,8.9-9,15.9-7c3.1,0.9,5.5,0.8,6-3.4
		c0.3-2.3,1-4.7,2.2-6.5c1.3-1.9,2.6-6.4,6.2-1.6c1.7,2.2,5.9,0.2,5.5-2.9c-0.5-4.1,2-3.7,4.4-4.2c4.7-1.1,7.6,2.7,11.4,4.1
		c-1.6,0.3-3.2,0.6-1.5,2.7c1.4,1.7,3.1,2.8,5.3,3.1c-1.9,3.2-1,6.3,0.3,9.4c0.6,1.4,1.9,1.7,3.3,1.7c1.6,0,1.6-1.2,2.1-2.3
		c0.7-1.6,0.3-2.7-1.2-3.2c-2.5-0.8-3.1-2.5-2.9-5c0.1-0.9,0.2-2.6-1.7-2.4c-1.7-1-3.3-2.1-3.7-4.2c1.8,0.1,3.6,0.5,5.4,0.4
		c1.9-0.1,1.6-1.2,0.7-2.3c6.3,0,11.6,3.3,17,5.9c-1,3.4,3.6,2.4,3.8,5.2c-4.6,3-8-1.4-12.2-2c3.4,2.9,5,8.2,10.9,7.3
		c1.9-0.3,2.9,0.9,4.3,1.9c2.6,1.9,5.5,3.5,7.1-1.3c0.2-0.5,1.3-0.7,2-1.1c9.3,6.4,17.3,14.1,22.7,24.2c-4.5,3.2-7.5,2.4-9.4-2.7
		c-0.7-1.8-0.5-3.9-2.2-5.2c0.8-0.3,1.6-0.7,0.9-1.7c-0.2-0.3-0.8-0.2-1.3-0.3c0,0.6,0.1,1.2,0.1,1.8c-2.7-0.8-2.7-4.2-5-5.2
		c-1.3-0.6-3.1-2.3-4.3-0.3c-0.8,1.5,0.5,2.9,2,3.4c3.8,1.3,5.4,5.1,5.8,8.1c0.4,2.5,3,5.4,0.4,8.1c-1.7-0.8-2.4-3.3-5.2-3.1
		c1.2,2.8-0.9,4.7-1.5,7.1c-0.7,0.7-1.4,1.4-2.1,2c-2,0.8-1.5,1.5,0.1,2.1c0,0.6,0,1.2,0,1.9c-5.2,0.8-6.2,5.3-8,9
		c-1.6-1.1-3.6-1.9-4.7-3.4c-2.1-3-3.8-6.4-5-10c-0.8-2.7,1.7-3.2,2.6-4.7c0.8-1.4,1.6-4,0.9-5c-1.1-1.6-3.3-3.1-5.3-3.4
		c-2.2-0.4-0.3,2.9-1.9,3.7c-1.5-0.8-1.8-3-3.7-3.1c-0.5-0.7-0.9-1.4-1.4-2.1c-1-1.7-2.3-4.6-4.2-1.7c-1.2,1.9,2.7,2.8,3.6,4.8
		c-1.5,1-2.9,2-3.7,3.8c-0.8,2-2.9,2.8-4.5,1.5c-1.9-1.5-4.2-2-6-3.5c0-0.3,0-0.6,0-0.9c1-0.3,2.1-0.7,3.1-1c0,0,0.2,0.2,0.2,0.2
		l-0.2-0.2c-0.3-2.5,0.7-6.9-3.6-5.5c-3.6,1.2-7.9,3-9.3,7.6c-0.3,2-0.7,4-1,6c-2,0.7-4.4-1.5-6.1,1c-1.9,0.1-3.4-0.7-4.6-2.1
		c-1.1-1.2-2.2-2.1-3.3,0c-3.6,9.3-1.4,18.6,1.5,27.1c1.7,5.1,3.2,9.2,0.9,14.2c-0.2,0.4-0.3,1-0.3,1.5c0,1.1-0.6,2.7,0.9,3
		c1.5,0.3,2.4-1.1,2.6-2.4c0.2-1.8-0.3-3.6,0-5.4c1.3-6.4,2.4-12.6-2.8-18.1c-1-1-1.9-4.3-0.6-4c3.5,0.6,5.7-2.6,8.9-2
		c0.6,0.1,1.2,0.2,1.8,0.3c0.6,0.3,1.3,0.7,1.9,1c1.7,6.2,2.9,6.9,7.5,5.1c0.2,0,0.4-0.1,0.6-0.1c0.3,0.3,0.7,0.6,1,1
		c-0.3,3.3-2.9,4.7-5.3,6.1c-1.7,1-3.4,2.1-4.7,3.6c-1.8,2.1-1.1,3.9,0,5.9c1.2,2.2,3,2.7,5,1.7c3-1.5,6.1-1.5,9.3-1.6
		c1.1,1.6,3.9,1.6,3.8,4.2c-1.4,2-5.4,0.3-5.7,3.6c-0.3,3.5-2.2,2.9-4.4,2.4c-0.9-1.1-1-3.4-3.4-0.7c-2.5,2.8-4.6,1.7-4.5-2.3
		c0,0,0,0,0,0c-5.8-1.3-5.8-1.3-5.5,5.6c-1.5-0.9-3.3-3.5-3.7,0.6c-0.1,1-0.6,1.9-1.8,2c-0.9,0-1.6-2.4-2.6-0.4
		c-0.7,1.4,0.5,2.5,1.2,3.5c2.4,3.3,5.7,2.8,9,2.2c4.8-0.9,5.1-0.5,3.6,3.9c-0.6,1.9,1.4,1.5,1.8,2.4c-0.7,0.4-1.4,0.7-2,1.1
		c-2,0.4-4,0.9-6,1.3c-0.7-0.4-1.3-0.9-2-1.3c-2.4-2.1-3.2-6.3-7.6-5.8c-1.1,0.1-1.2-0.9-1-1.8c0.9-3.8,0.1-6.1-4.3-7.2
		c-1.9-0.5-3.9-2.8-4.7-4.8c-1.1-2.8-2.7-6.3,2.4-7.9c3.2-1,4.1-4.6,4.6-7.5c0.3-1.8,0.3-4.6-2.2-5.6c-2-0.9-3.8-0.1-5.4,1.6
		c-1.6,1.8-4.1,2.7-4.2,5.8c0,2.2-1.7,1.9-3.3,1.2c-3.5-1.4-6.4,3.6-10.1,1c0,0-0.2,0.2-0.3,0.4c-2,4.3,2.8,6,3.6,9.4
		c0.3,1.5,1.7,1,2.9,0.7c4.8-1.2,7.6,0.6,8.9,5.2c1.2,4.3,0.1,9.4,4.6,12.4c-1.6,2.8-5,2.9-7.1,4.9c-0.8,0.8-1.7,1.8-1.1,3
		c0.5,1.1,1.7,0.6,2.6,0.6c2-0.1,3.9-0.1,5.9-0.2c-1.5,4.7-5.6,4.3-9.3,4.6c-1.9-2-1.8-7.6-6.9-3.8c-2.8,1.7-5.9,0.6-8.8,0.6
		c-1.2-1.3-2.2-2.6-4.1-2.8c-2.8-0.9-3.2,2.4-5.1,3c-0.3,0.3-0.7,0.5-1,0.8c-0.3,0.1-0.6,0.1-1,0.2c-0.2-0.1-0.5-0.1-0.7-0.1
		c-0.3-1.9-0.1-3.9-1.3-5.6c-0.2-2.1-1.3-4.6-0.6-6.2c3-6.8-2-3.8-4.5-4c0-0.3,0.1-0.6,0.2-1c3.9-4.2,1.1-9.5,2.1-14.2
		c0.3-1.2-0.4-2.3-1.5-2.8c-0.3-0.2-1.1,0-1.2,0.3c-0.7,1-0.6,2.1,0,3.2c0.9,1.4,1.9,3.6-0.7,3.7c-3.7,0.1-8.2,1.7-10.5-3.2
		c0-0.3,0-0.6-0.1-0.8c2.5-1.2,1.5-3.4,1.2-5.2C33,86,32.5,83.3,31.9,80c-4.8,3.7-10.9,4.8-14.7,9.7C17,88.1,17,86.3,15,85.6
		c-0.2-1.6,1.5-3.2,0.1-4.6c-1-1-1.9,0.7-3,0.9c0.8-4.5-3.3-5-5.7-7.2C3.8,83,5.1,85.8,11.1,85c0,1,0,1.9-0.1,2.9
		c-0.1,0.3-0.1,0.6-0.2,0.9c-1.3,0.1-3.4-0.1-3.1,1.5c0.5,2.5-0.9,6.2,1.1,7.1c3.2,1.4,2.7,3.5,3.2,5.8c1,4.1-1.2,4.8-4.4,4.8
		c-3.9,0-2.9-3.2-2.7-5c0.4-2.8,0.4-5.2-1.7-7.3C2.5,93.7,1.8,91.7,1.1,89.7z M128,44.9l-0.1-0.2L128,44.9l0.2,0.1
		C128.2,45,128,44.9,128,44.9z M110,12.9c-2.1,1.3-1.1,3.7-1.7,5.5c-1.2,0.6-2,3.2-3.9,1.1c-0.9-1-1.7-3.7-2.8-1.1
		c-0.9,2.1-4.1,5.9-2,6.7c4.6,1.7,2.7,5.6,2.4,7.1c-0.9,4,0.7,3.4,3.2,2.9c2.4-0.5,3.5,0.3,2.9,2.8c-0.4,0.2-0.7,0.4-1.1,0.6
		c0.1,0.1,0.3,0.3,0.4,0.4c0.2-0.4,0.4-0.7,0.6-1.1c5.7,0.3,10-2.7,13.8-6.5c0.6-0.5,0.8-1.3,1.8-1.5c2.8-0.5,3.4-2.3,1.5-4.6
		c-1.1-1.4-2.9-2.2-3.2-4.2c-0.2-2-0.1-4-0.5-5.9c-0.4-1.7-1.6-3.3-3.5-2.8c-2.1,0.6-1.2,2.3-0.6,3.7c0.6,1.4,1.3,2.7,1.9,4
		c-2.9-1.4-6.7,2-9.2-1.8C111.1,16.6,109.8,14.7,110,12.9c0.6-1,1.3-1.9,0.2-3c-0.1-0.1-0.8,0.2-0.8,0.2
		C109.6,11,109.8,11.9,110,12.9z M154,35c-1.2,0-1.7,0.7-1.8,1.8c-2.3,1.9-2.2,4.3-1.2,6.7c0.7,1.8,0.9,4.8,4.1,2.3
		c0.7,0.4,1.3,0.7,2,1.1c0.3,1,0.6,2,0.9,3c-3.4-0.2-5.7,1.4-6.9,4.6c-0.4,1.2-1.2,2.6,0.1,3.7c1.1,1,2.4,0.5,3.8,0.1
		c4.9-1.4,5.6-4.3,3.1-8.3c1.4,0.3,2.7,0.6,4.1,0.9c0.9-3.3,1-6.3-2-8.9c-1.2-1-0.9-2.7-1.1-4.2c-0.2-1.8-1.1-2.8-3-2.8
		c-0.5-1.6-0.9-3.1-1.5-4.7c-0.3-0.8-1.1-1.5-2-1.1c-1.2,0.5-0.6,1.7-0.5,2.6c-1.4-0.4-2.2-1.6-2.4-2.9c-0.5-4.6-4.4-5.3-7.7-6.5
		c-0.8-0.3-1.7-0.5-2.1,0.5c-0.1,0.3,0.1,1.1,0.4,1.3c3.9,1.8,6.8,4.9,9.5,8.1c0.5,0.6,1.6,0.1,2.2-0.4
		C153.5,32.3,153.9,33.6,154,35z M79,61.8c0,0.4,0,0.9,0,1.3c2.1,2.3,4.3,3.2,5.4-0.5c1.6-5.3-0.3-10.3-1.5-15.5
		c-1.5,3.2-1.5,7-5.6,8.4c-1.1,0.4-0.1,2.2-0.3,3.3c-1.9-0.1-3.1-1.2-3.9-2.7c-0.8-1.6-1.8-1.9-3-0.5c-1.1,1.2-1.1,2.5,0.6,3.2
		C73.5,59.9,75.9,61.8,79,61.8L79,61.8z M104.9,47.8l0.1,0.1c0.2,1,0.1,2.2,1.3,2.4c1.4,0.2,1.7-0.5,1.3-1.8c-0.6-2,4.1-2.1,2-4.6
		c-1.8-2.1-3.6,1.2-5.5,0.4c-0.6-0.2-1.3-0.4-1.9-0.5c-1-0.8-3.7-0.5-1.6-3.1c0.9-1.2,0.5-3.2-1.3-3.6c-2.8-0.5-4.7-2.3-7-3.6
		c-2.8-1.5-8.8-0.1-9,1.9c-0.7,4.5,4.9,10.4,9.5,9.9c1.6-0.2,2.9-0.3,4,1.1c2.1,2.6,4.8,2.1,7.5,1.2
		C104.5,47.7,104.7,47.7,104.9,47.8z M62,96.8c-4.5-3-7.3,4.2-11.8,2c-0.5-0.2-1.5,1.6-1.6,2.8c-0.1,1.3,0.8,2.5,1.9,2.6
		c2.5,0.2,4.8,2.4,7.7,0.1c1.3-1,4.5-1.5,5.4,1.8c-2.9-0.5-4.5,0.7-4.6,3.6c-0.6,1.4-1.2,2.8-2.8,3.2c-1.1-1.6-2.4-1.6-2.5,0.4
		c-0.1,2,1,3.8,3.3,4.3c2.1,0.5,4.5-1.4,6.5,0.8c0.4,0.5,1.8-0.9,2-1.8c0.3-1.2-1.1-0.9-1.7-1.2c0.3-0.6,0.6-1.2,0.9-1.8
		c1,0.9,2.1,1.1,3.2,0.2c1.6-9.7,1.6-9.7-5.8-13.1c-0.4-0.2-0.7-0.7-1.1-1c2.7-0.2,5.1-0.9,7-3.4C65.6,95.5,63.9,97,62,96.8z
		 M53.1,95.9c1.1-1.8,2.5-3.5,4.9-4c2.3-0.5,3.2-1.8,0.9-3.7c-1.7-1.5-1.6-2.7,0.5-3.7c0.9-0.5,1.6-1.4,1-2.4
		c-0.7-1.1-1.7-0.3-2.7-0.1c-4.1,1-4.8,6-8.9,7.3c-1.1,0.3,0,2.1,0.8,2.9C50.8,93.2,50.8,95.3,53.1,95.9z M71.4,47
		c0.2-2.1,1.1-4.7-1.8-4.5c-4.1,0.4-5.2,4.1-6.2,7.4c-0.5,1.5,0.5,2.9,2,2.6C68.5,51.8,72.3,51.5,71.4,47z M77.5,66.1
		c-0.9,0.8-1.8,1.3-2,1.9C75,69.3,76,70,77,70.8c2.9,2.2,6.4,0,9.4,1.2c0.8,0.3,1.5,0.8,2.1-0.2c0.6-1.1-0.1-2-1-2.5
		C84.2,67.8,79.9,70.2,77.5,66.1z M126.2,32.4c1.4,1.7,2.8,2.6,4.4,3c1.6,0.4,3.9,1.1,4.4-0.7c0.7-2.4-2.1-1.9-3.4-2.4
		C130.1,31.7,128.4,31.5,126.2,32.4z M71.5,78.3c0.8-0.3,3.1,1.6,3.3-1c0.1-1.4-1.7-2.2-3.3-2.2c-1.7,0-2.9,0.9-2.9,2.6
		C68.6,79.6,70,78.7,71.5,78.3z M72.7,68.6c-0.1-1-0.8-1.5-2-1.6c-0.8,0-1.8-0.1-2,1c-0.2,1.1,0.6,1.8,1.6,2.2
		C71.6,70.6,72.3,69.9,72.7,68.6z"/>
	<path class="st1" d="M186.5,155.7c-5.3,8.6-11.9,16.1-19.8,22.7c-7.1,5.9-14.7,10.6-22.8,14.8c-2.6,1.4-5.8,4.5-7.9-1.4
		c-0.9-2.7-8.9-1.1-9.9,1.7c-1,2.7-2.1,5.3-5.2,6.1c-5.4-1.4-10.6-3.4-15.8-5.5c-7.2-2.9-15.2-3.8-23.3-3.5
		c-4.3,0.2-9.9,0.9-12.7-2.5c-2.7-3.2-6.6-4.6-8.9-8.4c-3.1-5.1-3.9-12.5,0.8-16.3c3.2-2.6,3.5-5.4,1.9-8.8c0.5-0.9,1-1.7,1.6-2.6
		c0.5-0.3,1-0.5,1.5-0.8c1.5-2.8,4.2-2.7,6.8-2.6c5.6,1.8,6.5,1.6,7.1-1.9c5.4-1,10.7-2.1,16.1-3.1c1.7,0.6,3.4,1.3,5.1,1.9
		c1.4,2.9,3.2,6.4,6.2,6.7c3.5,0.4,3.6,1.8,3.6,4.4c0,2.2-0.1,4.9,2.5,5.3c2.7,0.5,3.2-2.4,4.3-4.2c1-1.5,1.1-3.1,0.4-4.8
		c-0.9-2-0.5-3.3,1.2-5.2c3.2-3.6,5.2-9-0.7-12.2c-0.1-1.8,1-3,1.6-4.5c1.5-3.5,5.6-4.5,7-7.9c0,0,0.3-0.1,0.3-0.1l0,0
		c0.5,0.1,1,0.2,1.6,0.4c1.4,0.5,2.6-0.2,3.8-0.8c2.6-0.7,5.3-1.5,7.9-2.2c1.8,0.8,3.6,1.6,5.3,2.4l0.1-0.1c0.2,0.7,0.3,1.3,0.5,2
		c0,0.7,0,1.4,0.1,2c-3.1,1.1-6.4,2-8.5,5.1c3.6-0.3,7,0.1,10.3-0.1c0.1,0.2,0.2,0.5,0.2,0.7c-0.2,3-3.3,0.8-4.8,2.6
		c2.7,0.9,2.3,5.1,6,4.4c3.2-0.7,4.1-2.9,3.8-5.8c1-0.4,1.9-0.7,2.9-1.1c0.3,0,0.7,0.1,1,0.1c0,0.7,0,1.4-0.1,2.1c0,1.9,0,3.9,0,5.8
		c-0.1,0.1-0.2,0.2-0.2,0.3c0,0,0.1,0.2,0.2,0.2c0.1,0,0.2-0.1,0.3-0.2c4.9-0.7,9-0.3,10.8,5.6c0.6,2.1,2,4,2.1,6.3
		c0,0.8,0.4,1.8,1.4,1.6c0.5-0.1,1.1-0.8,1.3-1.3c1.9-7.4,8.8-5.5,13.7-7.3c1.2-0.4,2.2,0.6,2.6,1.8c-2.5-0.1-4.2,1-4.9,3.4
		c-0.7,2.2-2.4,4.7-4,4.6c-6.6-0.5-6.2,6.5-10.1,8.7c-1.1,0.6-0.8,2.3,0.6,3.3c1.6,1.2,2.3,0.4,3.6-0.8
		C179,163.4,181.3,158.1,186.5,155.7z M117,167.9l-0.1-0.1L117,167.9c0.3,1,0,2.4,1.7,2.4c0.7,0,1.1-0.7,1-1.4
		C119.4,167.1,118,168,117,167.9z M126,185.8c7.2-1.5,13.2-5.6,20.1-10.7c-5.9-0.8-6.4-6.8-10.6-9.2c-1,1.5-0.1,2,0.2,2.7
		c0.8,1.7,2.7,4,0.9,5.3c-2.2,1.6-5.2,4.5-7.9,2.8c-4.2-2.5-9.3-0.9-13.7-4.5c0.5,3.5,1.5,6.2,4,6.1
		C124.6,178.2,125.4,181.7,126,185.8L126,185.8z M161.2,165.7c-2,1.6-3.7,2.8-5.2,4.3c-1,1-1.2,2.5-0.1,3.6c1.3,1.4,2.5,0.3,3.3-0.7
		C160.7,171,162.8,169.3,161.2,165.7z M81.2,165c0.9-0.3,2.7,0.5,2.5-1.4c-0.2-1.4-1.4-2.2-2.8-2.4c-1.3-0.2-2.4,0.4-2.5,1.8
		C78.3,164.8,79.9,164.8,81.2,165z M122.7,166.2c-1.8,1.7-1.5,2.9-0.3,4.8C123,169.1,123.9,167.9,122.7,166.2z M124.8,164.2
		c0.3-0.1,0.4-0.2,0.6-0.3c-0.1-0.1-0.3-0.2-0.4-0.1C125,163.8,124.9,164,124.8,164.2z"/>
	<path class="st1" d="M123,6.8c-3.8-1.4-6.7-5.2-11.4-4.1c-2.4,0.5-4.9,0.1-4.4,4.2c0.4,3.1-3.9,5.1-5.5,2.9
		C98,5,96.8,9.5,95.4,11.4c-1.3,1.8-2,4.3-2.2,6.5c-0.5,4.2-2.9,4.3-6,3.4c-7-2-12.8,0.6-15.9,7c-0.5,1-0.5,3.2-1.6,2.7
		c-4-2-5.3,1.8-7.5,3.2c-3.5,2.2-5.1,7.7-11.2,4.6c-2.1-1.1-6.6,4.5-6.6,7.4c0,1.7,1,2.3,2.5,2.5c2.6,0.3,5.2,0.6,7.9,0.5
		c3-0.1,5.1,2.6,2.7,4.3c-4.5,3.2-2.8,7.3-3.3,11.1c-0.1,1-0.1,2-0.2,3c-2.4,2.6-3.7,5.7-3.8,9.2c-3,0.3-5.8,0.1-8.1-2.1
		c-1.3,1.4-0.8,2.8-1,4c-0.7,0-1.3,0.1-2,0.1c-1.9-1.3-4.6-2.3-1.2-5.1c2.1-1.7,1-2.8-1.2-3c-1.7-0.1-2-1.2-2.9-2.2
		c-3-3.2-1.2-6.4-1.5-9.5c-0.1-0.1-0.3-0.3-0.4-0.4c-0.1-3.4,3.7-4.7,4.2-7.8c1.2-1.5,0.9-3.2,0.9-5c0.1-1.9,0.6-3.5,2.3-4.7
		c1.1-0.8,2.1-2.5,0.6-3.3c-1.6-0.9-3.8-1.4-5.6-1.1c-1.7,0.3-1.2,2.4-1.3,3.9c-0.1,2,0.9,3.5,1.9,5c-3.3-0.8-5.4,3.8-8.9,2
		c-0.3-1.3-0.7-2.6-1-3.9c0.3-0.3,0.7-0.7,1-1c0,0,0.2-0.1,0.2-0.1L26,42.9c-0.3,0.3-0.7,0.7-1,1c-0.6,4.8-7.4,6.1-6.6,11.9
		c0.3,2.2,0.6,3.5,3,4.2c1.7,0.5,4.2,1.4,1.8,4.1c-1.4,0.6-2.8,1.1-4.2,1.7c-2.9,1.7-1.1,5.1-2.9,8.5c-0.8-8.5-6.5-4.3-10.1-5.4
		c2-6.1,4.2-12,8.2-17.3c3.5-4.6,5.6-10.3,9.6-14.8c0.9,1.9,1.5,2.5,3.9,0.9c2.9-2,1.6-3.2,0.3-5c1.6-4.5,5.7-6.8,9.1-9.5
		c6.2-5.1,12.5-10.3,20.6-12.4c1.9,1.1,4.4-1.8,5.4,0c1.7,3.2,3.4,1.6,5.2,0.6c2.4-1.4,1.8-3.5,0.8-5.6c3.1-1.9,6.7-2.3,10.1-2.8
		c7.8,0.8,15.4-0.9,23.2-0.5c0-0.4,0-0.8,0-1.2c-3.1-0.2-6.1-0.3-9.2-0.5c12.3-1.5,24.4-1.2,35.9,4.1c0.9,1.1,1.3,2.2-0.7,2.3
		C126.6,7.3,124.8,7,123,6.8C123,6.8,123,6.8,123,6.8z M53.6,24.6c3.2-2.3,7.6-1.6,11.5-2.9c2-0.7,3.3-3.2,2.5-4.5
		c-1.1-1.9-3.6-1.5-5.3,0c-2.8,2.6-5.9,4.3-9.8,4.1c-1-0.1-2.1,0.5-1.7,1.8C51.1,24.1,52.1,24.5,53.6,24.6z M43.3,70
		c1.8-0.6,4.8,0.8,5.1-1.7c0.3-2.4-2.2-3.4-4.4-3.5c-1.4-0.1-1.8-0.9-2.6-1.7c-0.7-0.8-1.8-0.4-2.8-0.1c-0.7,0.2-1.3,1.2-1,1.4
		C40.2,65.7,39.2,70.6,43.3,70z"/>
	<path class="st2" d="M157.9,134.9c0-0.7,0-1.4,0.1-2.1c0,0,0,0,0,0c1.1-0.8,1.5-3.4,3.2-2.1c3.1,2.2,3.7-0.2,4.9-1.9
		c1.9,1.3,3.8-1.2,5.4,0.3c1.9-5.8-3.6-5.4-6.1-7.5c-0.7-0.6-1.5-0.4-2.2,0.4c-1.7,1.9,0.5,3.3,0.6,5c-2,0.3-3.9,0.6-5.9,0.9l0,0
		c-0.3-4.5-4.6-0.9-6.1-3.1c0-1,0.1-2,0.1-3c1-0.3,2-0.6,3-1l0,0c1.9-1.6,2.1-2.7-0.9-2.3c-2.2,0.3-3.9,0.5-4.1-2.4
		c-0.3-1.8-0.7-3.5-1-5.3c1-1.3,2.1-2.6,3.1-3.9c1.3,0,2.6,0,3.9,0c0.9,0.8,1.6,1.8,2.9,2c1.8,3,4.5,4.5,8,4.5
		c1.6,0.6,3.2,1.2,2.5,3.5c-0.4,1.4-0.2,2.8,1.5,3.2c1.9,0.4,3.5-0.9,3.7-2.5c0.6-4.6,4.3-8.2,3.9-13.1c-0.1-1,0.2-2.1-0.7-2.6
		c-1.5-0.8-1.9,0.6-2.6,1.5c-1.7,2.2-1.2,6.1-5.2,6.4c-2-0.4-1.7-1.5-0.8-2.8c1.9-1.1,3.3-2.6,2.3-4.8c-0.5-1.1-1.7-0.2-2.5,0.4
		c-0.7,0.4-1.4,0.9-2.1,1.3c-3.2,1.3-5.1-1.1-6.8-3c-2.2-2.3-3.2-1.3-4.4,0.7c-2.2,1.3-3.9,1.3-4.5-1.7c2.1-0.7,3.5-2.2,5-3.8
		c1.6-1.6,3.7-3.3,5.7-0.2c0.8,1.2,1.1,3.3,2.9,2.8c1.8-0.5,0.7-2.6,1.2-3.9c0.2-0.6,0.5-1.2,0.8-1.8c0.2,1.5,0.2,3.2,1.8,4.4
		c0.3-3.8,1.2-6.5,5.7-3.7c1.1,0.7,2.5,0.9,3.8,1c2.5,0.4,2.2-1.2,1.6-2.7c1.2-0.7,2.3-1.6,1.2-3.1c-1.1-1.5-2.4-2.3-4.1-0.7
		c-1.9,1.4-3.9,2.1-6.3,2c-1.4-0.1-3.5-0.9-3.6,1.8c-1.9,0-2.8-0.9-2.9-2.7c0.7-0.4,1.4-0.7,2.1-1.1c-2.8-2.9-0.2-6.3-1-9.4
		c0-0.2-0.1-0.4-0.1-0.6l0-0.1c3.3-0.3,3-2.8,2.9-5.1l0,0c0.6-0.4,1.2-0.8,1.9-1.2c1.8-0.3,3.6-0.7,5.4-1c-1.1,1.7,2.3,4.1-0.9,5.5
		c-1.8,0.8-4.6,8.2-3.3,9.5c2.3,2.6,4,0.9,5.4-1.2c0.1-0.2,0.8-0.2,0.9,0c3,3,5.9-0.4,8.8-0.2c-0.6,3.1,0,6,0.9,8.9
		c-0.3,1.4-1.7,1.8-2.6,2.8c-1.4,1.6-0.2,3.2,0.8,4.2c1.3,1.3,2.3,0.2,2.8-1.2c0.4,0.3,1,0.9,1.2,0.8c3-1.3,3.6,0.8,4.6,2.8
		c1.4,2.8-0.5,3.4-2.4,4.3c-0.8,0.4-2.2,1.1-0.5,2c1.9,1,1,1.8,0.4,3.1c-1.1,2.3,0.7,4.3,1.4,6.4c0.2,0.6,1.3,0.9,1.6,0.3
		c1-1.7,1.3-3.7,1.3-5.7c0-1.5-1.5-4,0.7-4.2c2.5-0.3,1.3,2.8,2.1,4.3c0.6,1.2-0.5,2.1-0.9,3.1c-1.4,3.6-1.5,7.3,0.4,10.9
		c0,0.3,0,0.7-0.1,1c-2.1,0.6-1.7,2.6-2.1,4.1c-0.5,1.7-1.5,3.1-3.4,3c-1.9-0.2-1.2-2-1.6-3.2c-0.2-0.9-0.3-2-1.9-2.2
		c1.3,4.8-6.8,5.9-2.7,11.9c-0.6-0.1-1.1-0.2-1.7-0.3c-1.5-2-3-4-4.5-6c-1.8-2.3-4.3-2.8-7-2.3c-1.1-0.6-2.3-0.9-3.1,0.2
		C166.4,137.4,162.2,136.2,157.9,134.9z M177,125.9c-1.2-0.5-0.9-3.6-3-2.1c-1.5,1-1,3.2,0.3,3.8c1.2,0.6,3.4,2.2,4.5-0.5
		c1.2-0.3,2.1-1,2.4-2.3c0.5-1.7,0.1-3.3-1.8-3.3C176.2,121.3,177.4,124.2,177,125.9z M189,125.7c0.2,0.3,0.5,0.6,0.7,0.9
		c0.1-0.3,0.3-0.6,0.4-0.8c2,1.1,1.1,4.7,5.3,5.3c-2.2-2.7-0.9-5.3-1.2-8.4c-1.9,1-3.4,2.6-5.2,1.2c0-3.4,2.8-7-1-10
		c-1.6-5.3-3.3-1.9-5,0l0,0c-1.3,0-2.6,0-4,0c0.3,1.4,1.8,1.6,2.1,3.3c0.5,2.8,0.6,7.6,6,6.6c0.7,0,1.3,0,2,0.1
		C189,124.5,189,125.1,189,125.7z"/>
	<path class="st0" d="M62.9,154.7c1.6,3.4,1.3,6.2-1.9,8.8c-4.7,3.8-4,11.2-0.8,16.3c2.3,3.8,6.2,5.2,8.9,8.4
		c2.9,3.4,8.4,2.7,12.7,2.5c8.1-0.3,16.1,0.6,23.3,3.5c5.2,2.1,10.4,4.1,15.8,5.5c-7.9,3.4-16.2,3.3-24.4,2.8
		c-9.4-0.5-18.8-2-27.7-5.6c-0.7-2.1-2.2-2-4-1.4c-0.2,0-0.4-0.1-0.5-0.2c0.3-1.5-0.7-1.9-1.8-2.5c-5.6-3.1-11.2-6.1-16.4-9.8
		c-1.7-1.2-3.5-3.3-6.2-1.8c-1.7-0.3-2.7-1.4-3.5-2.8c2.3-5.6,1-10.4-3.1-14.6c-1.3-1.4-3-2.6-3.4-4.7c-0.4-0.4-0.7-0.8-1.1-1.2
		c0,0,0,0.1,0,0.1c0.2-3.1-0.8-5.7-3.3-7.8c-1.8-1.5-3.5-3.2-1.6-5.9c0.6-0.3,1.2-0.8,1.9-0.3c-0.3,5.7,5,7,8.1,9.9
		c0.3,0.1,0.5,0.2,0.8,0.3c0.4,2.1-5.5,3.3-2,4.3c4.5,1.2,6.2,2.8,6.6,7.1c0.1,1.2,2.3,2.2,3.5,3.3c0.7,0.6,1.4,1.3,2.1,1.9
		c-1.6,0.4-4.4-1.9-4.5,1.3c-0.1,1.7,2,4.2,4,4.5c1.3,0.2,3.9,0.9,4.8-1.3c1-2.3-1.9-2.8-2.4-4.4c3.1-1.1,7-1.1,7-5.8
		c0.1-1.2,0-2.3-1-3.1l0.1,0c-2.4-7.9,8.4-2.6,8.3-8.3c0.4,0.3,0.8,0.6,1.2,0.9C62.7,154.5,62.8,154.6,62.9,154.7z M51.5,179.8
		c1.4,1.4,2.6,2.2,4.1,1.5c0.2-0.1,0.4-1,0.3-1.2C54.9,178.7,53.5,178.7,51.5,179.8z"/>
	<path class="st0" d="M198,126.8c-2-3.5-1.8-7.2-0.4-10.9c0.4-1,1.5-1.9,0.9-3.1c-0.8-1.5,0.4-4.6-2.1-4.3c-2.2,0.2-0.7,2.7-0.7,4.2
		c0,2-0.4,4-1.3,5.7c-0.3,0.6-1.5,0.3-1.6-0.3c-0.6-2.1-2.5-4.1-1.4-6.4c0.6-1.3,1.5-2.1-0.4-3.1c-1.7-0.9-0.3-1.6,0.5-2
		c1.8-0.9,3.8-1.5,2.4-4.3c-1-2-1.6-4.1-4.6-2.8c-0.2,0.1-0.8-0.5-1.2-0.8c0,0,0,0,0,0c0-0.3,0-0.6,0-0.9c-0.7-1.5,2.1-3.8-1.1-4.8
		c-0.8-2.9-1.4-5.9-0.9-8.9c1.1-2.4,2.1-5.2,4.9-1.2c-1,3.1,0.8,5.4,1.9,8c0.5,1.3,0.5,3.5,2.5,3c1.7-0.4,1.4-2.4,1.2-3.9
		c-0.2-1.6-0.2-3.4-2.1-4.1c1.7-3.8,3.1-7.7,1.3-12c-0.1-0.7-0.2-1.3-0.2-2c-0.2-0.3-0.4-0.6-0.7-0.9c0-0.7-0.1-1.4-0.1-2.1
		c0.7,0,1.5,0,2.2,0c6.6,18.6,8.1,37.4,2.2,56.4C199,125.9,198.4,126.3,198,126.8z"/>
	<path class="st0" d="M157.9,134.9c4.3,1.3,8.5,2.5,12-1.9c0.8-1.1,2-0.7,3.1-0.2c2.2,3.1,1,6.8,2.3,10.1c0.6-2.3,1.3-4.7,1.9-7
		c0.3-0.3,0.6-0.5,0.9-0.8c0.6,0,1.3,0,1.9,0c1.5,2,3,4,4.5,6c0.6,0.1,1.1,0.2,1.7,0.3c-4.1-5.9,4-7.1,2.7-11.9
		c1.6,0.3,1.7,1.3,1.9,2.2c0.3,1.2-0.3,3,1.6,3.2c1.9,0.2,2.9-1.3,3.4-3c0.5-1.5,0-3.4,2.1-4.1c-0.1,7.5-3.5,13.8-6.7,20.2
		c-0.4-0.1-0.8-0.1-1.2-0.2l0,0c-0.4-1.2-1.4-2.2-2.6-1.8c-4.9,1.8-11.8-0.1-13.7,7.3c-0.1,0.5-0.8,1.3-1.3,1.3
		c-1,0.1-1.3-0.8-1.4-1.6c-0.1-2.4-1.5-4.3-2.1-6.3c-1.8-6-5.9-6.3-10.8-5.6l-0.3-0.3C157.9,138.8,157.9,136.9,157.9,134.9z"/>
	<path class="st2" d="M171.7,50.8c2.6-2.7,0-5.6-0.4-8.1c-0.4-3-2-6.7-5.8-8.1c-1.5-0.5-2.8-2-2-3.4c1.2-2,2.9-0.3,4.3,0.3
		c2.3,1.1,2.3,4.4,5,5.2l0.2,0.2c1.8,1.3,1.6,3.4,2.2,5.2c1.9,5.1,4.9,5.9,9.4,2.7c1.4,1.8,3.2,3.3,3.4,5.8
		c-2.1,2.7-2.9,5.2,0.9,6.8c0-2,0-4.1,0-6.2c2.3,2.5,3.6,5.5,4.7,8.7c-2.9,0.4-2.6,3.2-3.6,5c-1.5-1.9-3.1-3.7-5.9-2.9
		c-0.4-0.8-0.2-3-1.8-1.1c-1.1,1.3-1.3,3.4-3.4,3.9c0-4.4-1.7-4.1-4.2-1.6c-1.3,1.3-3,3.6-4,0.9c-1-2.7-3.6-4.3-3.9-7.1
		C172.5,58.1,171.3,53.8,171.7,50.8z"/>
	<path class="st1" d="M30,159c0.4,2.1,2,3.3,3.4,4.7c4.1,4.2,5.4,9.1,3.1,14.6C30.1,174,24.9,168.6,21,162c0.7-1.8,1.3-3.6,2-5.4
		c2,0.4,3.8,1.7,6,1.2c0,0,0-0.1,0-0.1C29.3,158.2,29.7,158.6,30,159z M26.2,161.3c0.1-0.1,0.2-0.2,0.4-0.2
		c-0.1-0.2-0.3-0.4-0.5-0.6c0,0-0.2,0.1-0.3,0.2C25.9,160.9,26,161.1,26.2,161.3z"/>
	<path class="st2" d="M29,157.9c-2.2,0.5-4-0.9-6-1.2c-1.9-1.7-4.1-0.3-6.1-0.8c-0.7-0.5-0.5-1-0.1-1.5c1.1-3.3-0.7-5.8-2.7-7.9
		c-2.8-2.9-3.9-5.1,1.5-5.9c1.4-0.2,1.9-1.7,2.6-2.8c2,2.2,4,4.3,5.9,6.5c-1.9,2.6-0.1,4.4,1.6,5.9C28.2,152.2,29.2,154.8,29,157.9z
		"/>
	<path class="st1" d="M162,20.7c-0.7,0.4-1.9,0.6-2,1.1c-1.6,4.9-4.5,3.3-7.1,1.3c-1.4-1-2.4-2.2-4.3-1.9c-5.9,0.9-7.5-4.4-10.9-7.3
		c4.2,0.6,7.6,5,12.2,2c-0.2-2.8-4.8-1.8-3.8-5.2C152,13.2,157,16.9,162,20.7z"/>
	<path class="st0" d="M18.1,137.7c-0.6,1.1-1.1,2.6-2.6,2.8c-5.4,0.8-4.3,3-1.5,5.9c2.1,2.2,3.8,4.6,2.7,7.9
		c-5.8-5.7-8.1-13.2-10.7-20.6c0.9-1.1,1-2.4,1.1-3.7c0.3-0.1,0.5-0.3,0.8-0.4c1.7,0.4,3.3,0.7,5,1.1
		C14.7,133.2,16.4,135.4,18.1,137.7z"/>
	<path class="st0" d="M186.5,155.7c-5.2,2.3-7.5,7.6-11.4,11.3c-1.3,1.2-1.9,2-3.6,0.8c-1.4-1-1.7-2.7-0.6-3.3
		c3.9-2.2,3.5-9.2,10.1-8.7c1.6,0.1,3.4-2.4,4-4.6c0.7-2.3,2.4-3.5,4.9-3.4c0,0,0,0,0,0c0.3,0.3,0.6,0.6,0.9,0.9
		C189.4,151.1,188,153.4,186.5,155.7z"/>
	<path class="st3" d="M7.9,129.8c-0.3,0.1-0.5,0.3-0.8,0.4c-1.3-2.1-2.6-4.1-3.9-6.2c-1.7-4.4-2.3-9.1-2.4-13.8
		c1.2-2-2.3-5.5,2.1-6.4c0,0.7,0,1.3,0,2c-0.3,1-1.9,2,0,2.9C5.8,115.5,4.9,123.1,7.9,129.8z"/>
	<path class="st1" d="M40,181.1c2.6-1.5,4.4,0.5,6.2,1.8c5.2,3.7,10.9,6.7,16.4,9.8c1.1,0.6,2.1,1.1,1.8,2.5
		C55.4,192,47,187.8,40,181.1z"/>
	<path class="st0" d="M93.2,0.8c3.1,0.2,6.1,0.3,9.2,0.5c0,0.4,0,0.8,0,1.2C94.6,2.1,86.9,3.9,79.1,3C83.7,1.5,88.4,0.8,93.2,0.8z"
		/>
	<path class="st0" d="M69,5.8c1,2,1.6,4.2-0.8,5.6c-1.7,1-3.4,2.5-5.2-0.6c-1-1.8-3.5,1.1-5.4,0C60.8,7.8,65.1,7.2,69,5.8z"/>
	<path class="st4" d="M190.1,64.9c1-1.8,0.7-4.6,3.6-5c1.2,3,2.8,5.8,3.3,9c-0.7,0-1.4,0-2.2,0c-1.8-0.3-3.7-0.6-5.5-0.9
		c-0.1-0.4-0.2-0.7-0.3-1.1C189.3,66.1,189.7,65.5,190.1,64.9z"/>
	<path class="st4" d="M3,103.8c-4.4,0.9-1,4.4-2.1,6.4c-1.6-6.9-0.5-13.7,0.3-20.5c0.7,2,1.4,4,2.1,6C3.1,98.4,3.1,101.1,3,103.8z"
		/>
	<path class="st0" d="M28,32.8c1.3,1.7,2.6,3-0.3,5c-2.3,1.6-3,1-3.9-0.9C25.1,35.3,25.8,33.2,28,32.8z"/>
	<path class="st0" d="M16.9,155.9c2,0.5,4.3-1,6.1,0.8c-0.7,1.8-1.3,3.6-2,5.3C19.6,160,18.2,157.9,16.9,155.9z"/>
	<path class="st2" d="M3.2,124c1.3,2.1,2.6,4.1,3.9,6.2c-0.1,1.3-0.2,2.6-1.1,3.7C4.3,130.8,3.5,127.5,3.2,124z"/>
	<path class="st4" d="M189,51.2c0,2.1,0,4.2,0,6.2c-3.8-1.6-3-4.1-0.9-6.8C188.4,50.8,188.7,51,189,51.2z"/>
	<path class="st1" d="M64.9,195.5c1.7-0.6,3.2-0.7,4,1.4C67.3,197,66,196.4,64.9,195.5z"/>
	<path class="st1" d="M190.9,148.8c-0.3-0.3-0.6-0.6-0.9-0.9c0.4,0.1,0.8,0.1,1.2,0.2C191.2,148.3,191.1,148.6,190.9,148.8z"/>
	<path class="st3" d="M48.9,119c1.2,1.7,1,3.7,1.3,5.6c0.1,0.5,0.4,0.5,0.7,0.1c0.3,0,0.7-0.1,1-0.2c0.3-0.3,0.7-0.5,1-0.8
		c1.9-0.6,2.3-3.9,5.1-3c-1.8,1.4-1.7,3.1-1,5l-0.1,0.1c-0.6,0.3-1.3,0.6-1.9,1l0,0c-1.4,0.4-3.3,1-2.4,2.8c0.9,1.8,2.9-0.1,4.4,0.3
		c0,0,0,0,0,0c-0.1,2.2-1.5,3-3.4,3.6c-1.8,0.6-4-0.1-5.6,1.2c-3.1-0.1-5.3,2-8,3.2c-0.5-1-0.9-2.1-1.4-3.1c0.5-2,2.1-2.7,4-3.2
		c2.5-0.6,4.4-1.7,0.9-3.9c-0.6-0.4-1.2-1.1-1.5-1.8c-1.4-3.3-4.2-2-6.4-1.6c-2.8,0.5-2.7,2.9-2.5,5.1c0.1,1.5,0.4,2.9,0.6,4.4
		c-0.3,0.1-0.6,0.2-0.8,0.3c-2.4-0.3-1.1-3.7-3.2-4.1c-2.1,0.7-0.5,3.4-2.6,4c-7.3-4.6-7.3-4.6-5.7-13.4c0.1-0.8,0.8-1.6,0.6-2.4
		c-0.3-2-1.5-3.3-3.5-3.8c-2.4-0.6-2.9,1.3-2.9,2.9c-0.1,1.5-0.7,2.5-1.6,3.5c-4.4-5.6-3.7-9.1,2.8-14.3c1.3,0,4.3,2.5,3.4-0.6
		c-0.8-2.6-0.4-5.9-2.7-8.1c0.1-0.9,0.2-1.9,0.3-2.8c-0.3-1.3-0.5-2.5-0.8-3.8c1.5,0.3,1.9,1.4,1.9,2.7c0.2,5,1.4,9.2,7.3,10.4
		c1.5,0.3,4,1.8,3.9,2.6c-0.5,5.3,2.9,2.8,5,2.8c0.7,0.3,1.5,0.7,2.2,1c-0.4,0.9-2.9,1.3-1.9,1.7c3.9,1.3,1,3.8,1.5,5.5
		c-0.6,0.2-1.2,0.4-1.7,0.6c0.2,0.2,0.3,0.6,0.5,0.6c0.8,0,1-0.7,1.2-1.3c1.7-2.1,4.8-3.5,3.8-7.1c0.3-1.7,0.7-3.5,1-5.2
		c0.7,0.1,1.4,0.2,2.2,0.2c0,0.7,0,1.4,0,2c-0.1,0.3-0.2,0.6-0.2,1c-0.1,0.6-0.3,1.2-0.4,1.8c-0.2,1.3,0,2.8-0.7,3.7
		c-2.8,3.5-0.6,4.1,2.4,4.4C46.4,118.8,47.7,118.9,48.9,119z M48.8,129.3c-0.1,0.1-0.2,0.2-0.3,0.3c0.2,0.1,0.3,0.2,0.5,0.2
		c0-0.1,0.1-0.3,0.1-0.4C49,129.4,48.9,129.4,48.8,129.3z"/>
	<path class="st2" d="M121.9,46.7c1.8,1.4,4.1,2,6,3.5c1.6,1.3,3.6,0.5,4.5-1.5c0.7-1.9,2.1-2.9,3.7-3.8c0.7-0.3,1.3-0.7,2-1
		c1.9,0.2,2.2,2.3,3.7,3.1c1.6-0.8-0.3-4,1.9-3.7c2,0.3,4.2,1.8,5.3,3.4c0.7,1.1-0.1,3.6-0.9,5c-0.9,1.5-3.4,2.1-2.6,4.7
		c1.1,3.6,2.8,7,5,10c1,1.5,3.1,2.3,4.7,3.4c0,1,0,2,0,3c-0.3,1.4-2.8,2.5-0.4,4.1c-3.7,3,0,4.1,1.4,5.8c-3.3-0.2-5.6,1.1-7.3,3.9
		c-0.7,1.1-2,3.6-3.6,1c-2.4-3.9-6.6-3.5-10.1-4.9c-0.7-2.6-1.4-5.3-2.1-7.9c-0.7-2.3,5.4-1.8,2.2-4.9c-4.2-4-4.3-4,1.6-6.6
		c-3.2-0.4-4-2.2-3.8-4.6c0.2-0.3,0.5-0.5,0.7-0.8c1.5-0.2,2.9-0.1,4.3,0.7c1.6,0.9,3,0.3,3.8-1.2c1-1.7-2.7-5,1.8-5.7
		c-0.1-0.3-0.1-0.8-0.3-0.9c-1.8-1-3.7-2.6-5.6-2.6c-1.8,0-2.5,2.6-2.5,4.3c0.1,2.1-0.3,3.2-2.6,3.2c-5.5-4.2-12.2-3.1-18.5-4.6
		C117.9,51.3,118.2,46.4,121.9,46.7z M143.7,69.6c0.4,3.2-0.1,5.7-1.3,8.1c-0.6,1.2-0.5,2.8,1.1,3.3c1.5,0.4,1.8-1,2.2-2.1
		c0.5-1.3,0.2-3,1.8-3.8c1.2-0.6,3.2-0.7,2.4-2.9c-0.6-1.6-2-1.3-3.3-1.3C145.8,70.8,145,70.2,143.7,69.6z"/>
	<path class="st2" d="M87,113.8c-4.5-3-3.5-8.1-4.6-12.4c-1.3-4.6-4.1-6.4-8.9-5.2c-1.2,0.3-2.5,0.8-2.9-0.7c-0.7-3.3-5.6-5-3.6-9.4
		c0.1-0.1,0.3-0.4,0.3-0.4c3.7,2.6,6.6-2.4,10.1-1c1.6,0.6,3.3,1,3.3-1.2c0.1-3.1,2.6-4,4.2-5.8c1.5-1.6,3.3-2.4,5.4-1.6
		c2.4,1,2.5,3.9,2.2,5.6c-0.5,2.9-1.4,6.4-4.6,7.5c-5.1,1.6-3.5,5.1-2.4,7.9c0.8,2,2.8,4.3,4.7,4.8c4.3,1.1,5.1,3.4,4.3,7.2
		c-0.2,0.8-0.1,1.9,1,1.8c4.5-0.5,5.2,3.7,7.6,5.8c-1.4-0.1-2.9-0.6-4.2,0.5c-1.9-1.3-4.1-1.1-6.2-1.4c-1.3-0.6-2.2-2-3.8-1.8
		C88.2,114,87.6,113.9,87,113.8z"/>
	<path class="st4" d="M133,58.8c-0.2,2.4,0.6,4.1,3.8,4.6c-5.9,2.6-5.7,2.6-1.6,6.6c3.3,3.1-2.9,2.6-2.2,4.9c-2.1-2.7-4.3-5.4-5-9
		c0.7-1.6,3.4-3.9,0.9-4.8c-2-0.8-4.1-3.8-6.5-1.8c-1.9,1.6-3,4.1-4.5,6.2c-0.6,0.9-0.3,1.7,0.3,2.2c1.2,1.1,1.9,0,2.2-0.8
		c1.1-3.4,3-1.1,4.7-0.9c-2.7,3.6-2.5,6.5,2.1,8.2c0.8,0.3,1.2,1,1.3,1.8c-3.3,1-5.1-1.8-7.6-3c-0.3-0.3-0.7-0.6-1-1
		c-0.3-0.4-0.5-0.4-0.6,0.1c-4.6,1.8-5.7,1.1-7.5-5.1c-0.6-0.3-1.3-0.7-1.9-1c-0.6-0.1-1.2-0.2-1.8-0.3c0.1-3-0.6-5.8-3.4-7.2
		c-3.2-1.6-5.3-4.2-7.6-6.8c1.1-2.1,2.3-1.2,3.3,0c1.2,1.4,2.7,2.2,4.6,2.1c3.1,2.1,5.7,5,9.9,4.9c1,0,2.1-0.1,2.3-1.3
		c0.2-1.1-0.5-1.9-1.4-2.3c-1.6-0.7-3.7-0.4-4.7-2.3c0.3-2,0.7-4,1-6c3.2-0.6,6.4-1.3,9.8-1.1c0,0.3,0,0.6,0,0.9
		c-3.6-0.4-3.9,4.6-7.5,4.5c6.3,1.5,13.1,0.4,18.5,4.6c0,0.7,0.1,1.3,0.1,2l0,0c-0.1,0.1-0.3,0.2-0.3,0.3
		C132.8,58.4,132.9,58.6,133,58.8L133,58.8z"/>
	<path class="st1" d="M110.1,18.4c2.4,3.8,6.3,0.4,9.2,1.8c0.1,0.4,0.2,0.8,0.4,1.3l0,0.3l0.1-0.3c0.8-0.1,1.5-0.3,2.3-0.4
		c0.3,2,2.1,2.8,3.2,4.2c1.9,2.3,1.2,4-1.5,4.6c-1,0.2-1.2,0.9-1.8,1.5c-3.8,3.8-8.1,6.7-13.8,6.5l0,0c0.5-2.5-0.6-3.4-2.9-2.8
		c-2.4,0.5-4.1,1.1-3.2-2.9c0.3-1.5,2.2-5.3-2.4-7.1c-2.1-0.8,1.1-4.6,2-6.7c1.1-2.6,2,0.1,2.8,1.1c1.9,2.2,2.7-0.4,3.9-1.1
		C108.9,18.4,109.5,18.4,110.1,18.4z"/>
	<path class="st4" d="M78,126.8c3.7-0.3,7.8,0.1,9.3-4.6c0.1-0.6,0.2-1.2,0.3-1.8l0-0.1c1.2-0.8,2.4-1.5,3.6-2.3
		c0.4-0.1,0.8-0.1,1.2-0.2c3.4,0.5,3.8,1.9,3.7,5.6c-0.1,3.2-4.5,5.2-1.8,8.6c0,1.6,0,3.1,0,4.7c0,0.4,0,0.8,0,1.1
		c0.1,1,0.2,1.9,0.3,2.9c-3.4,2.7-6.6,4.2-10.1-0.1c-1-1.3-3.1-1.8-4.6-2.7c-0.2-0.1-0.4-0.2-0.7-0.4c-0.1-0.6-0.2-1.1-0.3-1.7
		c0.8-0.4,2-0.9,0.7-2c-1-0.8-2.1-1.4-2.6-2.7C76.8,129.7,77.1,128.2,78,126.8z M83.6,132.3c0.2-0.3,0.7-0.6,0.8-1
		c0.2-0.6-0.3-1-0.8-0.8c-0.4,0.1-0.8,0.6-1,1C82.4,132,82.8,132.4,83.6,132.3z"/>
	<path class="st2" d="M17.9,95c-0.1,0.9-0.2,1.9-0.3,2.8c-2.6,2.7,0.6,5.9-0.7,8.7c-6.5,5.1-7.2,8.7-2.8,14.3
		c0.4,2.4,1.9,4.9-1.6,6.6c-2,1-0.4,2.4,0.5,3.4c-1.7-0.4-3.3-0.7-5-1.1c-3-6.7-2.2-14.3-4.9-21.1c0-1,0-1.9,0-2.9c0-0.7,0-1.3,0-2
		c0.1-2.7,0.2-5.4,0.2-8.1c2.1,2.1,2.1,4.5,1.7,7.3c-0.2,1.9-1.2,5,2.7,5c3.3,0,5.4-0.7,4.4-4.8c-0.5-2.3,0-4.5-3.2-5.8
		c-2-0.9-0.6-4.6-1.1-7.1c-0.4-1.6,1.8-1.4,3.1-1.5c0.4,0,0.8,0,1.2,0l0,0C12.3,92.4,14.2,94.6,17.9,95z"/>
	<path class="st1" d="M113,115.7c-0.5-0.9-2.5-0.5-1.8-2.4c1.5-4.4,1.1-4.8-3.6-3.9c-3.3,0.6-6.6,1.1-9-2.2
		c-0.8-1.1-1.9-2.2-1.2-3.5c1-2.1,1.7,0.4,2.6,0.4c1.2,0,1.7-1,1.8-2c0.4-4.2,2.2-1.6,3.7-0.6c-0.4-6.9-0.4-6.9,5.5-5.6l0,0
		c-0.1,4,2,5.1,4.5,2.3c2.4-2.7,2.5-0.4,3.4,0.7c-0.2,1.9,1.2,2.8,2.3,3.9c-0.8,1.2-1.6,2.4-0.1,3.6c0.1,0.5,0.2,1,0.3,1.5
		c-2.3-0.1-5.2-0.6-5.8,2.2c-0.5,2.6,2.4,2.3,4.1,2.9c0.4,1.2-0.6,2-1,2.9C116.9,116.1,115,117.8,113,115.7z"/>
	<path class="st2" d="M97,51.8c2.3,2.5,4.4,5.2,7.6,6.8c2.8,1.4,3.5,4.2,3.4,7.2c-3.2-0.6-5.4,2.6-8.9,2c-1.3-0.2-0.4,3,0.6,4
		c5.2,5.4,4.1,11.7,2.8,18.1c-0.3,1.7,0.2,3.6,0,5.4c-0.2,1.3-1.1,2.7-2.6,2.4c-1.4-0.3-0.8-1.9-0.9-3c0-0.5,0.1-1,0.3-1.5
		c2.3-5,0.8-9.1-0.9-14.2C95.6,70.4,93.4,61.1,97,51.8z"/>
	<path class="st2" d="M120.9,72.9c2.5,1.2,4.3,4,7.6,3c2.1,1.6,2.3,3.6,1.5,5.9c-0.2,2.3,1.6,6.2-3.7,4.8c-0.2,0-0.7,1.3-1.1,2
		c-3.2,0.1-6.3,0.1-9.3,1.6c-2.1,1-3.8,0.5-5-1.7c-1.1-2-1.8-3.8,0-5.9c1.4-1.6,3-2.6,4.7-3.6C118,77.6,120.6,76.2,120.9,72.9z
		 M115.6,83.9c-1.4,0-2.1,0.8-2.2,2c-0.1,1.2,0.7,1.7,1.8,1.7c1.3,0,2.2-0.6,2.3-1.9C117.5,84.6,116.6,84.1,115.6,83.9z"/>
	<path class="st4" d="M113,115.7c1.9,2.1,3.9,0.4,5.9,0.1c1.8,2.4-0.6,5.1,0.5,7.7c3.7-3.9,3.7-3.9,7.9-0.1c-1.4,3.4-5.5,4.4-7,7.9
		c-0.6,1.5-1.8,2.8-1.6,4.5c-0.3,0-0.5,0-0.8,0.1c-1.8,0.3-4.6-2-5,1.9c-1.3-0.1-2.5-0.1-3.8-0.2c-0.6-1.5-1.6-2.5-3.3-2.6
		c-0.4-0.6-0.8-1.3-1.2-1.9c0.4-0.9,0.9-2.2,2-1.9c4.6,1.2,3.3-1.9,3.2-4.2c1.1-0.2,2.5,0,2.7-1.5c0.2-1-0.8-1.3-1.6-1.6
		c0.9-1.7,2.3-3.2,1.9-5.3c-0.7-0.6-1.3-1.2-2-1.7C111.7,116.4,112.4,116.1,113,115.7z M116.1,130.9c2.3-1.8,2.5-3.5-0.1-5
		c0.9,1.6-0.2,3.2-0.1,4.8c-0.5,0.2-1.6,0-1.3,0.7C114.7,132,115.6,131.3,116.1,130.9z"/>
	<path class="st2" d="M104.2,47.7c-2.7,0.9-5.4,1.4-7.5-1.2c-1.1-1.4-2.4-1.3-4-1.1c-4.6,0.5-10.2-5.4-9.5-9.9c0.3-2,6.3-3.5,9-1.9
		c2.3,1.3,4.2,3.1,7,3.6c1.8,0.4,2.3,2.3,1.3,3.6c-2,2.6,0.6,2.4,1.6,3.1C102.8,45.1,103.5,46.4,104.2,47.7z"/>
	<path class="st4" d="M35.1,109.6c-2.1,0-5.5,2.5-5-2.8c0.1-0.8-2.4-2.3-3.9-2.6c-5.9-1.2-7-5.4-7.3-10.4c2.1-4.8,5.3-3,8.3-1.2
		c1.2-1.5,0.4-4.6,2.8-4.3c2.1,0.3,1.3,3,1.8,4.6c0.1,0.3,0.1,0.6,0.2,1c0,0.3,0.1,0.6,0.1,0.8c-0.3,1.4-1.4,2.8-0.4,4.2
		C34,102.2,33.9,106.1,35.1,109.6z"/>
	<path class="st3" d="M111,116.8c0.7,0.6,1.3,1.2,2,1.7c-1.8,0.2-3.2,1.1-3.9,2.7c-0.9,1.9-0.7,3.3,2,2.7c0.8,0.3,1.8,0.5,1.6,1.6
		c-0.2,1.5-1.6,1.4-2.7,1.5c-3.8-0.1-6.4,3.4-10.1,3.7c-0.6,0.4-1.2,0.8-1.8,1.2c-0.4,0.3-0.7,0.6-1.1,0.9c-0.9-0.2-1.8-0.5-2.7-0.7
		c-2.7-3.4,1.7-5.5,1.8-8.6c0.2-3.7-0.3-5.1-3.7-5.6c0.1-0.6,0.1-1.2,0.2-1.9c2.1,0.2,4.3,0.1,6.2,1.3c1.8,2.3,3.5,5.2,6.3,0.8
		C107,117.7,109,117.3,111,116.8z"/>
	<path class="st1" d="M64.7,113.7c-0.3,0.6-0.6,1.2-0.9,1.8c-2.4-1.4-5.7-0.1-7.6-2.6c1.6-0.5,2.2-1.9,2.8-3.2
		c1.1-1.8,7.8,3.5,4.6-3.6c-0.9-3.3-4.1-2.9-5.4-1.8c-2.9,2.3-5.2,0.2-7.7-0.1c-1.1-0.1-2-1.3-1.9-2.6c0.1-1.2,1.1-3,1.6-2.8
		c4.5,2.2,7.3-5,11.8-2c-0.3,1-0.7,2-1,3c0.4,0.3,0.7,0.8,1.1,1c7.4,3.4,7.4,3.4,5.8,13.1C66.9,113.5,66,109.5,64.7,113.7z"/>
	<path class="st2" d="M35.1,109.6c-1.3-3.5-1.1-7.4-3.4-10.7c-1-1.4,0.2-2.8,0.4-4.2c2.3,4.9,6.8,3.3,10.5,3.2
		c2.6-0.1,1.6-2.2,0.7-3.7c-0.7-1.1-0.8-2.2,0-3.2c0.2-0.3,0.9-0.4,1.2-0.3c1.1,0.6,1.8,1.6,1.5,2.8c-1,4.7,1.8,9.9-2.1,14.2
		c0-0.7,0-1.4,0-2c0-0.7,0.2-1.8-0.8-1.9c-0.9-0.1-1.1,0.9-1.3,1.6c-0.3,1.7-0.7,3.5-1,5.2c-1.1,0-2.3-0.1-3.4-0.1
		C36.6,110.3,35.9,110,35.1,109.6z"/>
	<path class="st3" d="M166.8,57.1c0.3,2.9,2.9,4.5,3.9,7.1c1,2.7,2.8,0.3,4-0.9c2.5-2.5,4.3-2.8,4.2,1.6c-3.6,0.4-1.6,4.4-3.7,5.8
		c-1.8,0.3-3.6,0.7-5.4,1c-1-0.2-2.7-1.4-1.9,1.2c0,0,0,0,0,0c-2,0-4,0-6.1,0c1.7-3.9,1-8,1.2-12c0-0.6,0-1.2,0-1.9
		c0-0.7-0.1-1.4-0.1-2.1c0.7-0.7,1.4-1.4,2.1-2C165.6,55.5,166.2,56.3,166.8,57.1z M166.7,66.6c-0.2-0.2-0.6-0.4-0.9-0.7
		c-0.2,0.2-0.5,0.5-0.4,0.7c0.1,0.4,0.4,1,0.7,1C166.6,67.8,166.7,67.3,166.7,66.6z"/>
	<path class="st2" d="M50,76.8c0.2-3.5,1.4-6.6,3.8-9.2c3.2,1.6,3.8,0.2,3.3-2.8c-0.4-2.3-0.2-4.6,2.7-4.9c2.5-0.3,2.5,4.3,5.6,3.4
		c0.2,1.6-1.1,2.3-1.8,3.4c-2.4,3.7-5,7.4-7.2,11.2c-1.4,2.4-2.4,4.3-3.6,0C52.4,76.2,51.1,76.7,50,76.8z"/>
	<path class="st2" d="M32.1,93.9c0-0.3,0-0.7-0.2-1c-0.6-1.6,0.3-4.3-1.8-4.6c-2.4-0.3-1.6,2.8-2.8,4.3c-3-1.8-6.2-3.6-8.3,1.2
		c0-1.3-0.4-2.4-1.9-2.7c0-0.5,0.1-1,0.1-1.5c3.8-4.9,9.9-6.1,14.7-9.7c0.6,3.3,1.1,6,1.4,8.8C33.6,90.5,34.6,92.7,32.1,93.9z"/>
	<path class="st2" d="M53.1,95.9c-2.3-0.6-2.3-2.7-3.4-3.8c-0.8-0.8-1.8-2.6-0.8-2.9c4-1.2,4.8-6.3,8.9-7.3c0.9-0.2,2-1,2.7,0.1
		c0.6,1-0.1,2-1,2.4c-2.1,1-2.2,2.3-0.5,3.7c2.3,1.9,1.4,3.2-0.9,3.7C55.6,92.4,54.2,94.1,53.1,95.9z"/>
	<path class="st2" d="M77.1,58.8c0.1-1.1-0.8-2.9,0.3-3.3c4.1-1.4,4.2-5.2,5.6-8.4c1.1,5.1,3.1,10.2,1.5,15.5
		c-1.1,3.7-3.4,2.9-5.4,0.5c0.1-0.1,0.2-0.3,0.2-0.4c0-0.3-0.2-0.6-0.2-0.9c0,0,0.1,0.1,0.1,0.1C79.8,59.9,78.8,59.1,77.1,58.8z"/>
	<path class="st2" d="M157.9,49.9c-0.3-1-0.6-2-0.9-3c-0.2-0.7-0.2-1.7-0.7-2.1c-0.7-0.5-1,0.4-1.2,1c-3.2,2.5-3.3-0.5-4.1-2.3
		c-1-2.5-1.1-4.8,1.2-6.7c0.6,0,1.3,0,1.9,0l0,0c0.3,1.6-0.7,4,1.6,4.6c2.6,0.7,1.1-2.5,2.5-3.2c0.3-0.1,0.6-0.3,0.9-0.4
		c0.1,1.5-0.1,3.2,1.1,4.2c2.9,2.5,2.9,5.6,2,8.9l0,0C160.6,50.5,159.3,50.2,157.9,49.9L157.9,49.9z"/>
	<path class="st2" d="M78,126.8c-0.9,1.4-1.2,2.9-1.1,4.6c-0.6,0.1-1.2,0.1-1.8,0.2c-1.6-3.5-4.1-3.9-6.4-1.1
		c-3.5,4.2-4.6,1.8-5.7-1.6c1.3-1.9,3-2.1,5.1-1.7c2.5,0.5,3.9-1.5,4.7-3.4c0.4-0.9-1-0.8-1.8-0.8C76.2,119.2,76.1,124.8,78,126.8z"
		/>
	<path class="st1" d="M163.1,60.8c-0.2,4,0.6,8.2-1.2,12c-1,0.4-2,0.7-2.9,1.1c-1.1-1.1-2.5-1.1-3.9-1.1c0-1,0-2,0-3
		C156.9,66,157.9,61.5,163.1,60.8z"/>
	<path class="st2" d="M71.4,47c0.9,4.4-2.9,4.8-6,5.6c-1.5,0.4-2.5-1-2-2.6c1-3.3,2.1-7,6.2-7.4C72.5,42.3,71.5,44.9,71.4,47z"/>
	<path class="st2" d="M121.9,45.9c-3.3-0.2-6.5,0.5-9.8,1.1c1.3-4.6,5.7-6.4,9.3-7.6c4.3-1.4,3.4,2.9,3.6,5.5l-0.1,0.1
		C123.9,45.2,122.9,45.5,121.9,45.9z"/>
	<path class="st1" d="M157.9,49.9c2.5,4.1,1.8,7-3.1,8.3c-1.3,0.4-2.6,0.9-3.8-0.1c-1.3-1.1-0.5-2.5-0.1-3.7
		C152.2,51.3,154.5,49.7,157.9,49.9C157.9,49.9,157.9,49.9,157.9,49.9z"/>
	<path class="st1" d="M11.1,85c-6,0.8-7.3-2-4.6-10.2c2.3,2.2,6.4,2.7,5.7,7.2C11.8,83,11.5,84,11.1,85z"/>
	<path class="st3" d="M71.1,122.9c0.7,0,2.2-0.1,1.8,0.8c-0.8,1.9-2.1,3.9-4.7,3.4c-2.2-0.4-3.9-0.2-5.1,1.7c-1.1,0-2.6-1.1-3.1,1
		l0,0c-1,0-2,0-3,0c0,0,0,0,0,0c-0.7-1-1.3-2-2-3c0,0,0,0,0,0c0.6-0.3,1.3-0.6,1.9-1c0,0,0.1-0.1,0.1-0.1c2.1,0.2,3.6-1.1,5.2-2.2
		C65.2,123.6,68.2,124.7,71.1,122.9z"/>
	<path class="st1" d="M91.2,118c-1.2,0.8-2.4,1.5-3.6,2.3c0,0-0.4,0-0.4,0l0.4,0c-0.1,0.6-0.2,1.2-0.3,1.8c-2,0.1-3.9,0.1-5.9,0.2
		c-1,0.1-2.1,0.6-2.6-0.6c-0.6-1.2,0.3-2.2,1.1-3c2.1-2.1,5.5-2.2,7.1-4.9c0.6,0.1,1.2,0.2,1.8,0.3C89,115.7,90.1,116.8,91.2,118z"
		/>
	<path class="st2" d="M126.7,11c1.9-0.2,1.8,1.5,1.7,2.4c-0.2,2.4,0.4,4.1,2.9,5c1.5,0.5,1.9,1.6,1.2,3.2c-0.5,1-0.5,2.3-2.1,2.3
		c-1.4,0-2.7-0.3-3.3-1.7c-1.4-3.1-2.3-6.2-0.3-9.4C126.8,12.1,126.7,11.5,126.7,11z"/>
	<path class="st2" d="M36.9,45.9c0,1.7,0.3,3.5-0.9,5c-2.5,0.3-5.9-2.5-7.2,2.3c-0.2,0.7-1.8,0.1-2.1-1.1c-0.3-1.4-0.5-2.8-0.7-4.3
		c3.5,1.8,5.6-2.8,8.9-2C35.6,45.8,36.3,45.9,36.9,45.9z"/>
	<path class="st1" d="M166.8,57.1c-0.6-0.8-1.2-1.5-1.8-2.3c0.6-2.3,2.6-4.3,1.5-7.1c2.8-0.2,3.5,2.3,5.2,3.1
		C171.3,53.8,172.5,58.1,166.8,57.1z"/>
	<path class="st1" d="M77.5,66.1c2.4,4.2,6.7,1.8,9.9,3.3c0.9,0.4,1.6,1.4,1,2.5c-0.5,1-1.2,0.5-2.1,0.2c-3-1.2-6.5,1-9.4-1.2
		c-1-0.7-2-1.5-1.5-2.8C75.7,67.3,76.6,66.9,77.5,66.1z"/>
	<path class="st2" d="M111.1,52.9c1,1.9,3.1,1.6,4.7,2.3c1,0.4,1.6,1.3,1.4,2.3c-0.2,1.2-1.4,1.3-2.3,1.3c-4.2,0.1-6.8-2.8-9.9-4.9
		C106.7,51.4,109.1,53.6,111.1,52.9z"/>
	<path class="st4" d="M125.2,88.6c0.4-0.7,0.9-2.1,1.1-2c5.3,1.5,3.5-2.4,3.7-4.8c4.6,2.8,1.2,7.6,2.8,11.2
		c-1.2-0.3-2.5-0.7-3.8-0.2l0,0C129.1,90.2,126.3,90.2,125.2,88.6z"/>
	<path class="st2" d="M152,31.8c-0.7,0.6-1.7,1.1-2.2,0.4c-2.8-3.2-5.6-6.3-9.5-8.1c-0.3-0.1-0.6-0.9-0.4-1.3c0.4-1,1.3-0.8,2.1-0.5
		c3.3,1.3,7.2,1.9,7.7,6.5C149.8,30.3,150.6,31.4,152,31.8C152,31.8,152,31.8,152,31.8z"/>
	<path class="st2" d="M56.2,112.9c2,2.5,5.3,1.2,7.6,2.6c0.7,0.3,2,0,1.7,1.2c-0.2,0.9-1.6,2.2-2,1.8c-2.1-2.2-4.4-0.3-6.5-0.8
		c-2.3-0.5-3.4-2.3-3.3-4.3C53.8,111.3,55.1,111.4,56.2,112.9z"/>
	<path class="st2" d="M119.6,21.5c-0.1-0.4-0.2-0.8-0.4-1.3c-0.6-1.4-1.3-2.7-1.9-4c-0.6-1.4-1.5-3.1,0.6-3.7c1.9-0.5,3.1,1,3.5,2.8
		c0.4,1.9,0.4,3.9,0.5,5.9C121.1,21.3,120.4,21.4,119.6,21.5C119.6,21.5,119.6,21.5,119.6,21.5z"/>
	<path class="st2" d="M43.5,110.6c0.1-0.6,0.3-1.2,0.4-1.8c2.5,0.1,7.5-2.8,4.5,4c-0.7,1.7,0.4,4.1,0.6,6.2
		c-1.3-0.1-2.5-0.2-3.8-0.3C46.2,115.7,47.1,112.7,43.5,110.6z"/>
	<path class="st4" d="M121.3,102.7c-1.1-1.1-2.5-2-2.3-3.9c2.2,0.5,4.1,1,4.4-2.4c0.3-3.3,4.3-1.6,5.7-3.6c0,0,0,0,0,0
		c0,1.1,0,2.2,0,3.3c-0.1,0.6-0.1,1.2-0.2,1.9c-2.8-1.6-3.8-0.5-3.6,2.4c-1.4,0.4-2.9,0.6-3.3,2.4
		C121.8,102.7,121.5,102.7,121.3,102.7z"/>
	<path class="st1" d="M104.2,47.7c-0.7-1.3-1.4-2.5-2.1-3.8c0.6,0.2,1.3,0.3,1.9,0.5c2,0.8,3.8-2.5,5.5-0.4c2.2,2.5-2.6,2.5-2,4.6
		c0.4,1.3,0.1,2-1.3,1.8c-1.2-0.2-1.1-1.5-1.3-2.4c0,0,0.2-0.3,0.2-0.3l-0.3,0.2C104.7,47.7,104.5,47.7,104.2,47.7z"/>
	<path class="st1" d="M77.1,58.8c1.7,0.3,2.8,1.1,2,3.1c-3.2,0-5.6-1.9-8.4-3.1c-1.6-0.7-1.7-2-0.6-3.2c1.2-1.4,2.2-1.1,3,0.5
		C74,57.6,75.2,58.7,77.1,58.8z"/>
	<path class="st4" d="M17.2,89.7c0,0.5-0.1,1-0.1,1.5c0.3,1.3,0.5,2.5,0.8,3.8c-3.7-0.4-5.5-2.5-5.9-6.2c2.1-0.1,3-1.2,3-3.2
		C17,86.3,17,88.1,17.2,89.7z"/>
	<path class="st2" d="M126.2,32.4c2.2-0.9,3.9-0.7,5.4-0.1c1.3,0.5,4.1,0,3.4,2.4c-0.5,1.8-2.9,1.1-4.4,0.7
		C129,35,127.6,34.1,126.2,32.4z"/>
	<path class="st2" d="M15,85.6c-0.1,2-1,3.1-3,3.2c0,0,0,0,0,0c-0.3-0.3-0.7-0.6-1-1c0-1,0-1.9,0.1-2.9c0.4-1,0.7-2,1.1-3
		c1.1-0.2,2-1.9,3-0.9C16.5,82.4,14.8,84.1,15,85.6z"/>
	<path class="st5" d="M19.1,65.7c1.4-0.6,2.8-1.1,4.2-1.7c0.2,0.9,0.3,1.8,0.5,2.7c-0.9,0.3-1.9,0.5-1.6,1.8
		c0.1,0.8,0.3,1.7-0.8,2.6C20.8,69.3,18.9,68,19.1,65.7z"/>
	<path class="st4" d="M159,37.8c-0.3,0.1-0.6,0.3-0.9,0.4c-1.4,0.7,0.1,3.9-2.5,3.2c-2.3-0.6-1.3-2.9-1.6-4.6c1-0.2,1.8-0.7,2-1.8
		C157.9,35,158.8,36,159,37.8z"/>
	<path class="st2" d="M39,78.8c0.7,0,1.3-0.1,2-0.1c1.3,2.1,1,5,3.2,6.6c1,0.8,0.4,1.4-0.4,1.9c-0.9,0.5-1.5,0.5-2-0.5
		C40.7,84.1,38.5,82,39,78.8z"/>
	<path class="st2" d="M71.5,78.3c-1.5,0.4-2.9,1.3-2.9-0.7c0-1.7,1.3-2.6,2.9-2.6c1.6,0,3.4,0.9,3.3,2.2
		C74.6,79.8,72.3,78,71.5,78.3z"/>
	<path class="st2" d="M63.6,106.1c3.1,7.2-3.5,1.9-4.6,3.6C59.2,106.7,60.8,105.6,63.6,106.1z"/>
	<path class="st1" d="M138,43.8c-0.7,0.3-1.3,0.7-2,1c-0.8-2-4.8-2.9-3.6-4.8c1.9-2.9,3.2,0,4.2,1.7C137.1,42.5,137.5,43.1,138,43.8
		z"/>
	<path class="st4" d="M62.2,123.6c-1.6,1.1-3.1,2.3-5.2,2.2c-0.7-1.9-0.8-3.6,1-5C60,121,61.1,122.3,62.2,123.6z"/>
	<path class="st1" d="M126.7,11c0,0.5,0,1.1,0,1.6c-2.2-0.3-3.9-1.4-5.3-3.1c-1.7-2.1,0-2.4,1.5-2.7c0,0,0,0,0,0
		C123.5,8.9,125,10,126.7,11z"/>
	<path class="st4" d="M105,118.1c-2.7,4.3-4.4,1.5-6.3-0.8c1.3-1.1,2.8-0.6,4.2-0.5C103.7,117.3,104.4,117.7,105,118.1z"/>
	<path class="st2" d="M61,99.8c0.3-1,0.7-2,1-3c1.9,0.2,3.6-1.4,6-0.4C66.1,98.9,63.7,99.6,61,99.8z"/>
	<path class="st2" d="M156,35c-0.2,1.1-1,1.6-2,1.8c0,0,0,0,0,0c0-0.6,0-1.2,0-1.9c-0.1-1.4-0.5-2.7-2-3.2c0,0,0,0,0,0
		c0-0.9-0.7-2.1,0.5-2.6c0.9-0.4,1.6,0.3,2,1.1C155.1,31.9,155.5,33.4,156,35z"/>
	<path class="st1" d="M72.7,68.6c-0.4,1.3-1.1,1.9-2.3,1.6c-1-0.3-1.8-1-1.6-2.2c0.2-1.1,1.2-1,2-1C71.9,67.1,72.6,67.7,72.7,68.6z"
		/>
	<path class="st2" d="M110.1,18.4c-0.6,0-1.2,0-1.8-0.1c0.7-1.8-0.4-4.2,1.7-5.5l0,0C109.8,14.7,111.1,16.6,110.1,18.4z"/>
	<path class="st2" d="M64.7,113.7c1.3-4.2,2.1-0.3,3.2,0.2C66.8,114.8,65.8,114.6,64.7,113.7z"/>
	<path class="st2" d="M110,12.9c-0.2-0.9-0.4-1.8-0.6-2.8c0,0,0.7-0.3,0.8-0.2C111.3,10.9,110.7,11.9,110,12.9
		C110,12.8,110,12.9,110,12.9z"/>
	<path class="st2" d="M172.8,36.7c0-0.6-0.1-1.2-0.1-1.8c0.4,0.1,1.1,0,1.3,0.3c0.8,1-0.1,1.4-0.9,1.7
		C173.1,36.9,172.8,36.7,172.8,36.7z"/>
	<path class="st1" d="M22.2,68.6c-0.3-1.3,0.7-1.5,1.6-1.8C24.7,68.6,23.5,68.6,22.2,68.6z"/>
	<path class="st4" d="M155,45.8c0.2-0.6,0.6-1.5,1.2-1c0.5,0.4,0.5,1.4,0.7,2.1C156.3,46.6,155.7,46.2,155,45.8z"/>
	<path class="st4" d="M154,35c0,0.6,0,1.2,0,1.9c-0.6,0-1.3,0-1.9,0C152.3,35.7,152.8,35,154,35z"/>
	<path class="st1" d="M163,56.8c0,0.7,0.1,1.4,0.1,2.1C161.5,58.3,161,57.6,163,56.8z"/>
	<path class="st1" d="M108,37.8c-0.2,0.4-0.4,0.7-0.6,1.1c-0.1-0.1-0.3-0.3-0.4-0.4C107.3,38.3,107.6,38.1,108,37.8
		C108,37.9,108,37.8,108,37.8z"/>
	<path class="st2" d="M109.9,66c0.6,0.3,1.3,0.7,1.9,1C111.2,66.6,110.6,66.3,109.9,66z"/>
	<polygon class="st2" points="128,44.9 128.2,45 128,44.8 	"/>
	<path class="st1" d="M111,95.8C111,95.8,111,95.8,111,95.8C111,95.8,111,95.8,111,95.8z"/>
	<polygon class="st2" points="125,44.8 125.2,45 125,44.9 	"/>
	<polygon class="st2" points="128,44.8 127.9,44.7 128,44.9 	"/>
	<path class="st2" d="M53,123.8c-0.3,0.3-0.7,0.5-1,0.8C52.3,124.3,52.6,124.1,53,123.8z"/>
	<path class="st2" d="M50.9,124.7c-0.3,0.4-0.5,0.4-0.7-0.1C50.5,124.6,50.7,124.7,50.9,124.7z"/>
	<path class="st2" d="M119.3,72.1c0.1-0.5,0.3-0.5,0.6-0.1C119.7,72,119.5,72,119.3,72.1z"/>
	<path class="st1" d="M79,61.8c0.1,0.3,0.2,0.6,0.2,0.9c0,0.1-0.2,0.3-0.2,0.4C79,62.6,79,62.2,79,61.8z"/>
	<path class="st1" d="M32.2,59.1c-0.5,0.2-0.7,0.1-0.4-0.4C31.9,58.8,32.1,58.9,32.2,59.1z"/>
	<path class="st4" d="M11,87.9c0.3,0.3,0.7,0.6,1,1c-0.4,0-0.8,0-1.2,0C10.9,88.5,11,88.2,11,87.9z"/>
	<path class="st3" d="M128.8,97.9c0.1-0.6,0.1-1.2,0.2-1.9c0.4,0,0.9-0.1,1.3-0.1c0.2-0.2,0.5-0.4,0.7-0.7c1.1-0.3,3-0.1,1.7-2.3
		c-1.6-3.6,1.8-8.4-2.8-11.2c0.8-2.3,0.7-4.4-1.5-5.9c-0.1-0.9-0.5-1.5-1.4-1.8c-4.6-1.7-4.8-4.6-2.1-8.2c1,0,1.9,0,2.9,0
		c0.7,3.5,2.9,6.2,5,9c0.7,2.6,1.4,5.3,2.1,7.9c0.8,5.2,5.1,7.3,9.1,8.5c3.1,0.9,4.5,1,2,4.1c-2.3,2.9-1.4,4.1,2.1,4
		c1,0,2,0.3,2.9,0.5c0.6,3,2.3,3,4.5,1.7c3.4,1.7-0.7,3.6,0.1,5.3c-1.3,0-2.6,0-3.9,0c-2.7-0.1-5.3-0.2-8-0.3c0,0-0.4-0.1-0.4-0.1
		l0.1,0.4c-0.1,1.4-0.4,2.7-2.2,2.7c-0.5,0-1.5-0.5-1.6-0.8c-0.2-2.4-0.6-5.2-3.4-5.3c-3.1-0.1-0.9,4.2-3.3,5.2
		c-0.7-1.1-0.9-2.8-2.8-2.9c-0.7,1.5-0.7,2.9,0.2,4.3c0,0.2,0.1,0.5,0.2,0.7c0.1,0.6,0.1,1.2,0.2,1.8c0,0.4-0.1,0.8-0.1,1.2
		c0,1.9-4,3.3-1.9,4.9c2.8,2.2-0.2,3.3,0,4.8c-0.5-0.1-1-0.2-1.6-0.4c0,0-0.3,0.1-0.3,0.1c-4.2-3.8-4.2-3.8-7.9,0.1
		c-1.1-2.5,1.2-5.3-0.5-7.7c0.4-1,1.3-1.7,1-2.9c4,0.2,4.8-1.6,2.9-4.9c0.1-1.5,1.6-3.1-0.5-4.3c-0.1-0.3-0.2-0.7-0.2-1
		c0.4-1.8,1.9-2,3.3-2.4C127.2,100.6,129.9,102,128.8,97.9z"/>
	<path class="st0" d="M118,135.8c0.2-0.1,0.5-0.1,0.8-0.1c5.8,3.2,3.9,8.6,0.7,12.2c-1.6,1.8-2,3.2-1.2,5.2c0.7,1.7,0.6,3.3-0.4,4.8
		c-1.1,1.7-1.6,4.7-4.3,4.2c-2.6-0.5-2.6-3.2-2.5-5.3c0-2.6-0.1-4-3.6-4.4c-3-0.3-4.8-3.8-6.2-6.7c6.4,1.5,10-2.9,13.8-6.8
		C116.7,138.6,117.7,137.5,118,135.8z"/>
	<path class="st2" d="M78.9,136c0.1,0.6,0.2,1.1,0.3,1.7c-5.4-0.5-8.7,1.8-10.3,7.3c-3.9,0.8-2.4,4.1-2.8,6.4
		c-0.5,0.3-1,0.5-1.5,0.8c-1.2-1.2-1.1-2.7-1.3-4.2c-0.3-2.8-1.8-3.3-4.1-2c-0.3-4.4-4-2-6-3c-6.1-3.3-6.5-3.2-9.2,2.9
		c-1.8-1.4-3.8-2.6-5.4-4.2c-2.2-2.1-1.2-3.4,1.5-3.8c2.6-1.1,4.9-3.2,8-3.2c4.7-0.2,8.7,1.1,11.8,4.8c1.3,1.5,2.7,0.7,4.1,0.4
		c0,0.6-0.5,1.5,0.3,1.5c1,0.1,1.2-0.7,0.8-1.5c0-0.4,0-0.8,0-1.1c1.1-0.2,1.9-0.7,2-1.9l0,0.1l0.5,0.1l0.5-0.1
		c2.2-1.5,4.6-1.8,7.1-1.3C76.4,135.7,77.6,135.9,78.9,136z"/>
	<path class="st0" d="M126,185.8c-0.6-4.1-1.4-7.7-7.1-7.4c-2.5,0.1-3.5-2.6-4-6.1c4.4,3.7,9.5,2,13.7,4.5c2.7,1.6,5.7-1.2,7.9-2.8
		c1.8-1.3,0-3.6-0.9-5.3c-0.3-0.7-1.2-1.2-0.2-2.7c4.2,2.3,4.6,8.4,10.6,9.2C139.1,180.2,133.2,184.3,126,185.8L126,185.8z"/>
	<path class="st4" d="M59.1,145.9c2.3-1.3,3.8-0.8,4.1,2c0.2,1.5,0,3,1.3,4.2c-0.5,0.9-1,1.7-1.6,2.6c-0.1-0.1-0.3-0.2-0.4-0.3
		c-0.4-0.3-0.8-0.6-1.2-0.9c0.1,5.6-10.7,0.3-8.3,8.3c-0.5,0.1-0.9,0.2-1.4,0.3c-0.2-0.1-0.5-0.2-0.7-0.3c0-0.3,0-0.6,0-0.9
		c0.1-0.1,0.2-0.3,0.2-0.4c0-0.3-0.1-0.5-0.2-0.8c0,0,0,0.1,0,0.1c-0.1-2.5-1.5-4.2-3.3-5.7c1.1-1.4,3-2.2,3.2-4.3c0.7,0,1.3,0,2,0
		c0,0.3,0.1,0.7,0.1,1c1.3,1,2.6,1.1,3.9,0c0.4-0.6,0.7-1.3,1.1-1.9C58.4,147.9,58.8,146.9,59.1,145.9z"/>
	<path class="st0" d="M68.9,145c1.6-5.5,4.9-7.8,10.3-7.3c0.2,0.1,0.4,0.3,0.7,0.4c0.1,3-3.3,6,0.2,8.9c-0.7,3.4-1.5,3.6-7.1,1.9
		C72.6,146.4,70.4,146,68.9,145z"/>
	<path class="st2" d="M129.2,123.6c-0.2-1.5,2.8-2.6,0-4.8c-2.1-1.6,1.8-3,1.9-4.9c0.9-0.3,1.1-0.7,0.1-1.2
		c-0.1-0.6-0.1-1.2-0.2-1.8c3.3,0,6.6,0.3,9,3c0.5,3.3,2.5,4.8,5.8,4.9c0.1,0.7,0.2,1.4,0.3,2.2c0.1,0.7,0.2,1.4,0.3,2.1
		c-1.8-0.8-3.6-1.6-5.3-2.4c-1.3-2.3-3.5-3.3-5.9-3.9c0,0-0.3-0.1-0.3-0.1l0.2,0.3c-0.9,1.9-2.4,3.6-1.9,5.9
		C131.8,123.5,130.6,124.1,129.2,123.6z"/>
	<path class="st2" d="M80,146.9c-3.5-2.9-0.1-5.9-0.2-8.9c1.6,0.9,3.6,1.4,4.6,2.7c3.5,4.3,6.7,2.8,10.1,0.1
		c0.9,0.4,1.3,1.2,1.5,2.2c0,0.3,0.1,0.5,0.1,0.8C90.7,144.8,85.4,145.8,80,146.9z"/>
	<path class="st4" d="M96.1,143.7c0-0.3,0-0.5-0.1-0.8c5.8-0.7,11.7-1.2,16.9-4.3c0.7,0.1,1.4,0.1,2.1,0.2
		c-3.8,3.9-7.4,8.3-13.8,6.8C99.5,145,97.8,144.4,96.1,143.7z"/>
	<path class="st0" d="M154,133.8c0.3,2.9-0.6,5.2-3.8,5.8c-3.7,0.7-3.2-3.4-6-4.4c1.5-1.8,4.6,0.4,4.8-2.6
		C150.7,133.1,152.6,132.7,154,133.8z"/>
	<path class="st0" d="M151.9,124.8c1.5,2.2,5.8-1.5,6.1,3.1c-0.8,0.8-1,1.8-1,2.8c-2.3-0.8-4.6-0.1-6.9-0.1c0.1-2.2-1.7-2.7-3.1-3.6
		c0-0.7,0-1.4-0.1-2c0.7,0,1.3,0,2,0C150,127.5,150.9,123.8,151.9,124.8z"/>
	<path class="st2" d="M147,126.9c1.4,0.9,3.2,1.5,3.1,3.6c-0.4,0.5-0.8,0.9-1.3,1.4c-3.4,0.2-6.8-0.2-10.3,0.1
		C140.6,129,143.9,128.1,147,126.9z"/>
	<path class="st0" d="M161.2,165.7c1.7,3.6-0.4,5.3-2,7.1c-0.8,1-2,2.1-3.3,0.7c-1.1-1.1-0.9-2.6,0.1-3.6
		C157.5,168.5,159.2,167.3,161.2,165.7z"/>
	<path class="st0" d="M135.1,116.7c2.4,0.6,4.6,1.7,5.9,3.9c-2.6,0.7-5.3,1.5-7.9,2.2c-0.5-2.3,1-4,1.9-5.9L135.1,116.7z"/>
	<path class="st4" d="M68.9,145c1.5,1,3.7,1.4,4,3.8c-2.7-0.1-5.3-0.2-6.8,2.6C66.5,149,65,145.8,68.9,145z"/>
	<path class="st0" d="M81.2,165c-1.4-0.2-2.9-0.1-2.8-2.1c0.1-1.4,1.1-2,2.5-1.8c1.4,0.2,2.7,1.1,2.8,2.4
		C83.9,165.4,82.2,164.7,81.2,165z"/>
	<path class="st4" d="M148.9,132c0.4-0.5,0.8-0.9,1.3-1.4c2.3,0,4.6-0.7,6.9,0.1c0,0.7,0,1.4,0,2.1c-1,0.4-1.9,0.7-2.9,1.1
		c-1.5-1.1-3.3-0.7-5-1.1C149,132.5,148.9,132.2,148.9,132z"/>
	<path class="st0" d="M122.7,166.2c1.2,1.7,0.4,2.8-0.3,4.8C121.2,169.1,120.8,167.9,122.7,166.2z"/>
	<path class="st0" d="M117,167.9c1,0.1,2.4-0.7,2.7,1c0.1,0.7-0.3,1.3-1,1.4C117,170.2,117.3,168.8,117,167.9L117,167.9z"/>
	<path class="st2" d="M156.9,132.8c0-0.7,0-1.4,0-2.1c0-1.1,0.2-2.1,1-2.8c0,0,0,0,0,0c0,1.7,0,3.3,0,5c0,0,0,0,0,0
		C157.6,132.8,157.3,132.8,156.9,132.8z"/>
	<path class="st0" d="M146.3,123c-0.1-0.7-0.2-1.4-0.3-2.1c1,0.4,1.9,0.7,2.9,1.1c-0.3,0.3-0.6,0.6-0.9,0.8c-0.5,0-1,0-1.5,0
		L146.3,123z"/>
	<path class="st2" d="M146.5,122.9c0.5,0,1,0,1.5,0c0.3,0.7,0.6,1.3,0.9,2c-0.7,0-1.3,0-2,0C146.8,124.2,146.6,123.5,146.5,122.9z"
		/>
	<path class="st0" d="M124.8,164.2c0.1-0.2,0.1-0.4,0.3-0.5c0.1,0,0.3,0.1,0.4,0.1C125.3,164,125.1,164.1,124.8,164.2z"/>
	<polygon class="st0" points="117,167.8 116.9,167.7 117,167.9 	"/>
	<path class="st0" d="M126,185.8C126,185.8,126,185.8,126,185.8C126,185.8,126,185.8,126,185.8z"/>
	<path class="st0" d="M158.1,141c-0.1,0.1-0.2,0.2-0.3,0.2c0,0-0.2-0.1-0.2-0.2c0-0.1,0.1-0.2,0.2-0.3
		C157.9,140.7,158.1,141,158.1,141z"/>
	<path class="st0" d="M53.6,24.6c-1.5-0.1-2.5-0.5-2.8-1.5c-0.4-1.3,0.7-1.9,1.7-1.8c4,0.2,7-1.5,9.8-4.1c1.7-1.5,4.2-1.9,5.3,0
		c0.8,1.4-0.5,3.9-2.5,4.5C61.2,23,56.8,22.3,53.6,24.6z"/>
	<path class="st5" d="M43.3,70c-4.2,0.5-3.2-4.4-5.7-5.6c-0.3-0.2,0.3-1.2,1-1.4c0.9-0.3,2.1-0.7,2.8,0.1c0.7,0.9,1.2,1.7,2.6,1.7
		c2.2,0.1,4.8,1.1,4.4,3.5C48.1,70.9,45.1,69.4,43.3,70z"/>
	<path class="st0" d="M36.9,45.9c-0.7,0-1.3-0.1-2-0.1c-1-1.5-2-3.1-1.9-5c0.1-1.5-0.3-3.6,1.3-3.9c1.8-0.3,4,0.2,5.6,1.1
		c1.4,0.8,0.5,2.5-0.6,3.3C37.5,42.4,37,44,36.9,45.9z"/>
	<path class="st0" d="M25,43.8c0.3-0.3,0.7-0.7,1-1l0,0C25.6,43.2,25.3,43.5,25,43.8C25,43.8,25,43.8,25,43.8z"/>
	<polygon class="st0" points="26,42.9 26.1,42.7 26,42.8 	"/>
	<path class="st4" d="M175.2,70.6c2.1-1.3,0.1-5.4,3.7-5.8c2.1-0.5,2.3-2.6,3.4-3.9c1.6-1.8,1.4,0.3,1.8,1.1c-0.2,1.6,0,3.1,0.9,4.5
		c1.8,2.5-0.6,4.5-1.2,6.7c1.6,0.7,2.8-0.4,4-0.5c0.2,1.5,0,3,1.2,4.2c0.6,1.7,1.6,3.4,3.7,3.1c1.7-0.2,2.2-1.7,2.2-3.3
		c0.3-1,0.6-1.9,0.8-2.9c1.7,4.2,0.4,8.1-1.3,12c-2.1,0.1-2.5-1.8-3.5-3c-2.7-4-3.7-1.2-4.9,1.2c-2.9-0.2-5.8,3.2-8.8,0.2
		c-0.2-0.2-0.8-0.1-0.9,0c-1.4,2.1-3.1,3.8-5.4,1.2c-1.2-1.4,1.5-8.7,3.3-9.5C177.6,74.7,174.1,72.3,175.2,70.6z M186,75.9
		c-0.6,0.2-1.3,0.4-1.1,1.2c0,0.2,0.4,0.3,0.7,0.5C185.7,77,185.8,76.4,186,75.9l0.1-0.2L186,75.9z"/>
	<path class="st4" d="M151.4,99.9c-1-0.2-2-0.5-2.9-0.5c-3.5,0.1-4.4-1.2-2.1-4c2.4-3.1,1.1-3.2-2-4.1c-4-1.2-8.4-3.2-9.1-8.5
		c3.5,1.4,7.7,1,10.1,4.9c1.6,2.6,2.9,0.1,3.6-1c1.7-2.8,4.1-4.2,7.3-3.9c2.1,0.7,3.8-0.6,5.7-1c-1,3.5-3.9,1.9-6.1,2.3
		c-0.4,0.1-1.6-0.3-0.9,0.9c0.2,0.4,0.8,0.5,1.2,0.8c-1.1,0.7-2.3,1.3-3.4,2c-1.3,0.8-2.6,1.9-1.9,3.6c0.5,1.2,1.7,2.1,3.1,2.2
		c1.7,0,2.7-1.3,3.1-2.8c0.4-1.6,0.3-3.3,0.4-4.9c4.2-2.8,3.8,3.6,6.7,3.4c0.1,1.9,1,2.8,2.9,2.7c0,0.4,0,0.7,0,1.1
		c-0.3,0.6-0.5,1.2-0.8,1.8c-0.5,1.3,0.6,3.4-1.2,3.9c-1.8,0.5-2.2-1.6-2.9-2.8c-2-3.1-4.1-1.4-5.7,0.2
		C154.9,97.6,153.5,99.2,151.4,99.9z"/>
	<path class="st4" d="M170.1,109.8c4-0.3,3.5-4.3,5.2-6.4c0.7-0.9,1.1-2.3,2.6-1.5c1,0.5,0.6,1.6,0.7,2.6c0.4,4.9-3.3,8.5-3.9,13.1
		c-0.2,1.6-1.8,2.9-3.7,2.5c-1.6-0.3-1.9-1.7-1.5-3.2c0.7-2.3-0.9-2.9-2.5-3.5C167,111.3,170.1,111.9,170.1,109.8z"/>
	<path class="st4" d="M140,113.9c-2.4-2.7-5.7-3-9-3c-0.1-0.2-0.2-0.4-0.2-0.7c0.9-0.5,1.8-0.9,2.7-1.4c2.4-1,0.2-5.3,3.3-5.2
		c2.7,0.1,3.2,2.9,3.4,5.3c0,0.3,1,0.8,1.6,0.8c1.8,0,2-1.3,2.2-2.7l0.3-0.3c2.7,0.1,5.3,0.2,8,0.3c-1,1.3-2.1,2.6-3.1,3.9
		C145.8,111.3,144,115.8,140,113.9z"/>
	<path class="st4" d="M156,106.9c-0.9-1.7,3.2-3.6-0.1-5.3c1.2-2,2.2-3,4.4-0.7c1.7,1.8,3.5,4.2,6.8,3c0.3,3.5-0.2,6-4.8,4.2
		c-0.9-0.3-2.2,0.5-3.3,0.8C157.6,108.7,156.9,107.7,156,106.9z"/>
	<path class="st3" d="M166.9,92.9c0-0.4,0-0.7,0-1.1c0.1-2.7,2.2-1.9,3.6-1.8c2.4,0.1,4.5-0.6,6.3-2c0,2,1.3,3,2.9,3.8
		c0.6,1.6,0.9,3.1-1.6,2.7c-1.3-0.2-2.7-0.4-3.8-1c-4.5-2.9-5.4-0.2-5.7,3.7C167.1,96.1,167.2,94.4,166.9,92.9z"/>
	<path class="st4" d="M163.9,127c-0.1-1.7-2.3-3.1-0.6-5c0.6-0.7,1.5-1,2.2-0.4c2.4,2.2,7.9,1.7,6.1,7.5c-1.5-1.5-3.5,0.9-5.4-0.3
		C165.4,128.2,164.6,127.6,163.9,127z"/>
	<path class="st3" d="M164.1,89.1c-2.9,0.2-2.5-6.2-6.7-3.4c-0.4,0-0.9-0.1-1.3-0.1c-0.4-0.3-1-0.4-1.2-0.8
		c-0.7-1.2,0.5-0.8,0.9-0.9c2.2-0.4,5.1,1.2,6.1-2.3c0.1-1.3,0.2-2.5,0.3-3.8c1,0.2,2,0.5,3,0.7c0.8,3.1-1.8,6.5,1,9.4
		C165.5,88.4,164.8,88.7,164.1,89.1z"/>
	<path class="st3" d="M158.9,108.9c1.1-0.3,2.4-1.1,3.3-0.8c4.5,1.7,5.1-0.7,4.8-4.2c0.7-0.4,1.4-0.9,2.1-1.3c0.1,1.5,0.1,3,0.2,4.5
		c-0.9,1.3-1.2,2.3,0.8,2.8c0,2.1-3.1,1.5-3.1,3.6C163.4,113.4,160.8,111.9,158.9,108.9z"/>
	<path class="st0" d="M187,123.8c-5.4,0.9-5.5-3.8-6-6.6c-0.3-1.8-1.8-2-2.1-3.3c1.4,0,2.7,0,4.1,0
		C183.7,117.4,188.5,119.3,187,123.8z"/>
	<path class="st0" d="M140,113.9c4,1.9,5.8-2.5,9-3.1c0.3,1.8,0.7,3.5,1,5.3c-2.2-0.4-3.5,0.7-4.2,2.7
		C142.5,118.7,140.5,117.2,140,113.9z"/>
	<path class="st1" d="M187,123.8c1.5-4.5-3.4-6.4-4.1-10c0,0,0,0,0,0c1.7,2.1,3.3,1,5,0c3.8,3,1,6.6,1,10l0,0
		C188.4,123.8,187.7,123.8,187,123.8z"/>
	<path class="st4" d="M165.2,78.6c-1-0.2-2-0.5-3-0.7c-0.2-1.8-1.6-2-3-2.2c0-0.6-0.1-1.2-0.1-1.8c1-0.4,2-0.7,2.9-1.1
		c2,0,4,0,6.1,0c0.1,2.3,0.4,4.7-2.9,5.1c-0.1-0.8-0.2-1.5-0.3-2.3c-0.1,0.1-0.4,0.1-0.4,0.2c-0.4,0.9,0.1,1.6,0.7,2.2
		C165.1,78.2,165.2,78.4,165.2,78.6z"/>
	<path class="st4" d="M145.8,118.8c0.7-1.9,2-3,4.2-2.7c0.2,2.8,1.9,2.7,4.1,2.4c2.9-0.4,2.7,0.7,0.9,2.3c-2.4-1.7-4.3-0.6-6,1.2
		c-1-0.4-1.9-0.7-2.9-1.1C145.9,120.2,145.9,119.5,145.8,118.8z"/>
	<path class="st4" d="M180,135.1c-0.6,0-1.3,0-1.9,0c-0.3,0.3-0.6,0.5-0.9,0.8c-0.6,2.3-1.3,4.7-1.9,7c-1.3-3.3-0.1-7.1-2.3-10.1
		C175.7,132.3,178.2,132.8,180,135.1z"/>
	<path class="st0" d="M163.9,127c0.7,0.6,1.5,1.2,2.2,1.8c-1.2,1.8-1.9,4.2-4.9,1.9c-1.7-1.2-2.1,1.4-3.2,2.1c0-1.7,0-3.3,0-5
		C160,127.6,161.9,127.3,163.9,127z"/>
	<path class="st3" d="M189,125.7c0-0.6,0-1.2,0-1.8c0,0,0,0,0,0c1.8,1.4,3.3-0.1,5.2-1.2c0.3,3.1-1.1,5.6,1.2,8.4
		c-4.2-0.7-3.3-4.2-5.3-5.3C189.7,125.7,189.4,125.7,189,125.7z"/>
	<path class="st0" d="M177,125.9c0.4-1.7-0.8-4.5,2.4-4.5c1.9,0,2.3,1.6,1.8,3.3c-0.3,1.3-1.2,1.9-2.4,2.3
		C178.2,126.6,177.6,126.2,177,125.9z"/>
	<path class="st4" d="M187,93c3.2,1,0.4,3.3,1.1,4.8c-0.1,0.1-0.3,0.2-0.3,0.3c0,0.2,0.2,0.4,0.3,0.6c0,0,0,0,0,0
		c-0.5,1.4-1.5,2.6-2.8,1.2c-1-1-2.2-2.6-0.8-4.2C185.2,94.9,186.7,94.5,187,93z"/>
	<path class="st3" d="M148.9,122c1.7-1.8,3.6-2.8,6-1.2c0,0,0,0,0,0c-1.1,0-2.2,0.1-3,1c0,1-0.1,2-0.1,3c-1-0.9-1.9,2.7-3,0.1
		c-0.3-0.7-0.6-1.3-0.9-2C148.3,122.6,148.6,122.3,148.9,122z"/>
	<path class="st3" d="M177,125.9c0.6,0.4,1.2,0.7,1.9,1.1c-1.2,2.7-3.3,1.1-4.5,0.5c-1.3-0.6-1.8-2.8-0.3-3.8
		C176.1,122.3,175.8,125.3,177,125.9z"/>
	<path class="st4" d="M179.8,91.8c-1.6-0.8-2.9-1.8-2.9-3.8c1.7-1.6,3-0.8,4.1,0.7C182.2,90.2,181.1,91.1,179.8,91.8z"/>
	<path class="st0" d="M188,113.8c-1.7,0.9-3.4,2-5,0C184.7,112,186.4,108.5,188,113.8z"/>
	<path class="st4" d="M169.3,107c-0.1-1.5-0.1-3-0.2-4.5c0.8-0.5,2-1.5,2.5-0.4C172.5,104.4,171.1,105.9,169.3,107z"/>
	<path class="st4" d="M168,72.8c-0.8-2.6,0.9-1.4,1.9-1.2C169.2,72,168.6,72.4,168,72.8z"/>
	<path class="st4" d="M152,121.8c0.8-0.8,1.9-1,3-1C154,121.1,153,121.4,152,121.8z"/>
	<path class="st0" d="M189,125.7c0.4,0,0.7,0.1,1.1,0.1c-0.1,0.3-0.3,0.6-0.4,0.8C189.5,126.3,189.2,126,189,125.7z"/>
	<path class="st4" d="M40,137.8c-2.7,0.4-3.7,1.7-1.5,3.8c1.6,1.6,3.6,2.8,5.4,4.2c0.8,1.3,1.8,2.4,3.2,2.9c-0.4,1-0.7,2.9-2.1,1.8
		c-3.7-2.9-4,0.2-4.9,2.5c-0.1,0.6-0.2,1.2-0.3,1.8c-2.5-1.7-1.6-3.9-0.9-6.2c0.4-1.2,1.1-2.6-0.5-3.5c-1.2-0.7-2.4-1-3.6,0.2
		c-1,1.2-1.8,2.3-0.8,3.9c0.9,1.5,2.3,3,0.8,4.9c-0.3-0.1-0.5-0.2-0.8-0.3c-1.4-4.3-2.4-9.1-8.1-9.9c-0.7-0.5-1.3,0.1-1.9,0.3
		c-2-2.2-4-4.3-5.9-6.5c-1.7-2.3-3.4-4.6-5.2-6.9c-0.9-1.1-2.5-2.4-0.5-3.4c3.5-1.7,1.9-4.2,1.6-6.6c0.9-1,1.5-2,1.6-3.5
		c0.1-1.7,0.5-3.5,2.9-2.9c1.9,0.5,3.2,1.8,3.5,3.8c0.1,0.7-0.5,1.6-0.6,2.4c-1.6,8.8-1.6,8.8,5.7,13.4c-0.2,1.6-1.4,2.6-2.1,3.8
		c-1,1.8,0.4,2.7,1.6,3.6c0.9,0.6,3,1.2,3,0.8c-0.5-3.5,4.7-4.5,3.3-8.2c0.3-0.1,0.6-0.2,0.8-0.3c1.3,2,2.8,3.2,5,1
		C39.1,135.7,39.6,136.8,40,137.8z"/>
	<path class="st2" d="M34.8,154.1c1.5-1.9,0.1-3.4-0.8-4.9c-1-1.6-0.2-2.8,0.8-3.9c1.1-1.3,2.4-0.9,3.6-0.2c1.6,0.9,0.9,2.3,0.5,3.5
		c-0.7,2.2-1.6,4.4,0.9,6.2c1.1,2.7,3.3,3.4,6,3.2c0.9,3,3.1,2.3,5.2,1.9c0,0,0-0.1,0-0.1c0,0.4,0,0.8,0,1.1c0,0.3,0,0.6,0,0.9
		c-0.2,1,0.3,0.5,0.7,0.3c0.5-0.1,0.9-0.2,1.4-0.3c0,0-0.1,0-0.1,0c0,1.2,0.2,2.2,1,3.1c-0.1,4.7-4,4.7-7,5.8c-0.6,0-1.3,0-1.9-0.1
		c-0.7-0.6-1.4-1.3-2.1-1.9c-1.2-1.1-3.4-2.1-3.5-3.3c-0.5-4.3-2.1-5.8-6.6-7.1C29.3,157.4,35.2,156.2,34.8,154.1z M44.1,161.9
		c-1.2,0.1-2.6,0-2.3,1.7c0.1,1,0.9,1.8,2.1,1.7c1.1-0.1,2.6,0,2.7-1.6C46.6,162.1,45.3,162,44.1,161.9z"/>
	<path class="st1" d="M45.1,170.7c0.6,0,1.3,0,1.9,0.1c0.5,1.6,3.4,2.2,2.4,4.4c-0.9,2.2-3.5,1.5-4.8,1.3c-2-0.4-4.1-2.8-4-4.5
		C40.7,168.8,43.5,171.1,45.1,170.7z"/>
	<path class="st2" d="M26,143.9c5.7,0.9,6.6,5.6,8.1,9.9C30.9,150.8,25.7,149.6,26,143.9z"/>
	<path class="st1" d="M51.5,179.8c2-1.2,3.4-1.1,4.4,0.3c0.2,0.2,0,1.1-0.3,1.2C54.1,182,53,181.3,51.5,179.8z"/>
	<path class="st4" d="M54,165c-0.8-0.9-1-2-1-3.1C54,162.7,54.1,163.8,54,165z"/>
	<path class="st2" d="M30,159c-0.4-0.4-0.7-0.8-1.1-1.2C29.3,158.2,29.7,158.6,30,159z"/>
	<path class="st3" d="M195.8,73.9c-0.3,1-0.6,1.9-0.8,2.9c-2,0.1-3.9,0.1-5.9,0.2c-1.2-1.2-1-2.8-1.2-4.2c1.2-1.4,1.1-3.2,1.4-4.8
		c1.8,0.3,3.7,0.6,5.5,0.9c0,0.7,0.1,1.4,0.1,2.1c0.2,0.3,0.4,0.6,0.7,0.9C195.7,72.6,195.7,73.2,195.8,73.9z"/>
	<path class="st2" d="M191,82.9c1,1.2,1.4,3.1,3.5,3c2,0.7,2,2.5,2.1,4.1c0.2,1.5,0.5,3.5-1.2,3.9c-2,0.5-2-1.7-2.5-3
		C191.8,88.3,190,85.9,191,82.9z"/>
	<path class="st2" d="M188.1,98.8c-0.1-0.2-0.2-0.4-0.3-0.6c0-0.1,0.2-0.2,0.3-0.3C188.1,98.2,188.1,98.5,188.1,98.8z"/>
	<path class="st4" d="M195.6,71.9c-0.2-0.3-0.4-0.6-0.7-0.9C195.1,71.3,195.4,71.6,195.6,71.9z"/>
	<path class="st2" d="M177.2,135.9c0.3-0.3,0.6-0.5,0.9-0.8C177.8,135.4,177.5,135.6,177.2,135.9z"/>
	<path class="st1" d="M185.1,66.5c-0.9-1.4-1.1-2.9-0.9-4.5c2.8-0.8,4.4,0.9,5.9,2.9c-0.4,0.6-0.7,1.3-1.1,1.9
		C187.7,66,186.4,65.7,185.1,66.5z"/>
	<path class="st2" d="M26.2,161.3c-0.2-0.2-0.3-0.4-0.4-0.6c0.1-0.1,0.3-0.2,0.3-0.2c0.2,0.2,0.3,0.4,0.5,0.6
		C26.4,161.1,26.3,161.2,26.2,161.3z"/>
	<path class="st4" d="M3,105.9c0,1,0,1.9,0,2.9C1.1,107.8,2.7,106.8,3,105.9z"/>
	<path class="st0" d="M185.1,66.5c1.4-0.8,2.6-0.5,3.9,0.3c0.1,0.4,0.2,0.7,0.3,1.1c-0.3,1.7-0.1,3.4-1.4,4.8
		c-1.2,0.1-2.4,1.2-4,0.5C184.4,70.9,186.9,69,185.1,66.5z"/>
	<path class="st4" d="M63.9,139.8c-1.4,0.3-2.8,1.1-4.1-0.4c-3.1-3.7-7.1-5-11.8-4.8c1.7-1.3,3.8-0.6,5.6-1.2
		c1.8-0.6,3.3-1.4,3.4-3.6c1,0,2,0,3,0c0,0,0,0,0,0c0.5-2,1.9-1,3.1-1c1.1,3.4,2.2,5.8,5.7,1.6c2.3-2.8,4.8-2.4,6.4,1.1
		c-1.2,1.3-0.4,2.7,0,4c-2.6-0.5-5-0.3-7.1,1.3c-0.2-0.9,0-2-1.1-2.4c-0.2-0.1-0.7,0.3-1,0.5c0.4,0.7,0.8,1.3,1.2,2c0,0,0-0.1,0-0.1
		c-1,0.3-1.7,0.9-2,1.9c0,0.4,0,0.8,0,1.1C64.6,139.9,64.3,139.8,63.9,139.8z"/>
	<path class="st2" d="M38.7,134.7c-2.2,2.2-3.6,1-5-1c-0.2-1.5-0.5-2.9-0.6-4.4c-0.2-2.2-0.3-4.6,2.5-5.1c2.2-0.4,5-1.7,6.4,1.6
		c0.3,0.7,0.9,1.4,1.5,1.8c3.6,2.2,1.6,3.3-0.9,3.9C40.7,132,39.2,132.7,38.7,134.7z"/>
	<path class="st2" d="M32.9,134c1.4,3.7-3.8,4.7-3.3,8.2c0.1,0.4-2.1-0.2-3-0.8c-1.2-0.9-2.6-1.8-1.6-3.6c0.7-1.3,2-2.2,2.1-3.8
		c2.1-0.5,0.5-3.2,2.6-4C31.7,130.3,30.5,133.8,32.9,134z"/>
	<path class="st4" d="M43.5,110.6c3.6,2.1,2.7,5.1,1.6,8.2c-2.9-0.3-5.1-0.9-2.4-4.5C43.4,113.4,43.2,111.8,43.5,110.6z"/>
	<path class="st4" d="M16.8,106.5c1.3-2.8-1.9-6,0.7-8.7c2.3,2.2,1.9,5.5,2.7,8.1C21.2,109,18.2,106.6,16.8,106.5z"/>
	<path class="st4" d="M37.4,110.6c1.1,0,2.3,0.1,3.4,0.1c1,3.6-2.1,4.9-3.8,7.1l0,0c-0.6-1.8,2.4-4.2-1.5-5.5
		C34.4,112,37,111.6,37.4,110.6z"/>
	<path class="st4" d="M55,126.8c0.7,1,1.3,2,2,3c-1.5-0.3-3.5,1.5-4.4-0.3C51.7,127.8,53.6,127.2,55,126.8z"/>
	<path class="st4" d="M41.8,105.6c0.2-0.7,0.4-1.7,1.3-1.6c1,0.1,0.8,1.1,0.8,1.9C43.3,105.7,42.6,105.7,41.8,105.6z"/>
	<path class="st4" d="M37,117.8c-0.2,0.6-0.4,1.3-1.2,1.3c-0.2,0-0.3-0.4-0.5-0.6C35.8,118.3,36.4,118.1,37,117.8
		C37,117.8,37,117.8,37,117.8z"/>
	<path class="st4" d="M48.8,129.3c0.1,0.1,0.3,0.1,0.3,0.2c0,0.1,0,0.2-0.1,0.4c-0.2-0.1-0.3-0.2-0.5-0.2
		C48.6,129.5,48.7,129.4,48.8,129.3z"/>
	<path class="st4" d="M56.9,125.9c-0.6,0.3-1.3,0.6-1.9,1C55.6,126.5,56.3,126.2,56.9,125.9z"/>
	<path class="st0" d="M133,57.9c0-0.7-0.1-1.3-0.1-2c2.3,0.1,2.6-1.1,2.6-3.2c0-1.7,0.7-4.3,2.5-4.3c1.9,0,3.8,1.6,5.6,2.6
		c0.2,0.1,0.2,0.6,0.3,0.9c-4.6,0.7-0.8,4-1.8,5.7c-0.9,1.4-2.2,2.1-3.8,1.2c-1.4-0.8-2.8-0.9-4.3-0.7C133.5,58,133.2,57.9,133,57.9
		z"/>
	<path class="st1" d="M159.1,75.7c1.4,0.1,2.8,0.4,3,2.2c-0.1,1.3-0.2,2.5-0.3,3.8c-1.9,0.5-3.6,1.7-5.7,1c-1.4-1.7-5.1-2.8-1.4-5.8
		C156.2,76.5,157.7,76.1,159.1,75.7z"/>
	<path class="st4" d="M143.7,69.6c1.3,0.6,2.1,1.2,2.9,1.3c1.3,0.1,2.8-0.2,3.3,1.3c0.8,2.2-1.2,2.3-2.4,2.9
		c-1.6,0.8-1.4,2.5-1.8,3.8c-0.4,1.1-0.7,2.5-2.2,2.1c-1.6-0.5-1.7-2.1-1.1-3.3C143.6,75.3,144.1,72.8,143.7,69.6z"/>
	<path class="st0" d="M159.1,75.7c-1.5,0.4-2.9,0.8-4.4,1.2c-2.4-1.6,0-2.8,0.4-4.1c1.4,0.1,2.8,0.1,3.9,1.1
		C159.1,74.5,159.1,75.1,159.1,75.7z"/>
	<path class="st4" d="M133,57.9c0.3,0.1,0.5,0.1,0.8,0.2c-0.2,0.3-0.5,0.5-0.7,0.8c0,0,0,0,0,0C133,58.5,133,58.2,133,57.9L133,57.9
		z"/>
	<path class="st0" d="M91.2,118c-1-1.1-2.2-2.2-2.4-3.9c1.6-0.1,2.6,1.2,3.8,1.8c-0.1,0.6-0.1,1.2-0.2,1.9
		C92,117.9,91.6,117.9,91.2,118z"/>
	<path class="st2" d="M128,65.9c-1,0-1.9,0-2.9,0c-1.7-0.2-3.6-2.5-4.7,0.9c-0.3,0.9-1,1.9-2.2,0.8c-0.6-0.6-0.9-1.4-0.3-2.2
		c1.5-2.1,2.6-4.6,4.5-6.2c2.4-1.9,4.5,1.1,6.5,1.8C131.4,62,128.7,64.2,128,65.9z"/>
	<path class="st2" d="M133,57.9c0,0.3,0.1,0.7,0,1c-0.1-0.2-0.2-0.5-0.3-0.7C132.7,58.1,132.9,58,133,57.9z"/>
	<polygon class="st0" points="119.6,21.5 119.6,21.5 119.5,21.8 	"/>
	<path class="st0" d="M112.9,138.6c-5.2,3.1-11.1,3.6-16.9,4.3c-0.2-0.9-0.6-1.7-1.5-2.2c-0.1-1-0.2-1.9-0.3-2.9c0-0.4,0-0.8,0-1.1
		c0-1.6,0-3.1,0-4.7c0.9,0.2,1.8,0.5,2.7,0.7c0.4,0,0.7,0.1,1.1,0.1c0-0.3,0-0.7,0-1c0.6-0.4,1.2-0.8,1.8-1.2
		c1.6,0.8,3.3,1.6,4.9,2.4c0.4,0.6,0.8,1.3,1.2,1.9c0.1,2.1,1.1,3,3.3,2.6c1.3,0.1,2.5,0.1,3.8,0.2
		C112.9,138,112.9,138.3,112.9,138.6z"/>
	<path class="st3" d="M75.1,135.6c-0.4-1.3-1.2-2.7,0-4c0.6-0.1,1.2-0.1,1.8-0.2c0.5,1.3,1.6,1.9,2.6,2.7c1.3,1,0.2,1.5-0.7,2
		C77.6,135.9,76.4,135.7,75.1,135.6z"/>
	<path class="st3" d="M83.6,132.3c-0.8,0-1.2-0.3-1-0.9c0.1-0.4,0.6-0.9,1-1c0.6-0.2,1,0.3,0.8,0.8C84.3,131.7,83.8,132,83.6,132.3z
		"/>
	<path class="st2" d="M94.2,136.8c0,0.4,0,0.8,0,1.1C94.2,137.5,94.2,137.1,94.2,136.8z"/>
	<polygon class="st0" points="87.6,120.4 87.2,120.4 87.6,120.3 	"/>
	<path class="st2" d="M122.8,108c1.9,3.3,1.1,5-2.9,4.9c-1.7-0.5-4.6-0.3-4.1-2.9c0.6-2.8,3.5-2.3,5.8-2.2
		C122,107.8,122.4,107.9,122.8,108z"/>
	<path class="st4" d="M122.8,108c-0.4-0.1-0.8-0.1-1.2-0.2c-0.1-0.5-0.2-1-0.3-1.5c0.3-0.9,0.7-1.7,1-2.6
		C124.4,104.9,122.9,106.5,122.8,108z"/>
	<path class="st2" d="M122.2,103.7c-0.3,0.9-0.7,1.7-1,2.6c-1.5-1.2-0.7-2.4,0-3.6c0.2,0,0.5,0,0.7,0
		C122.1,103.1,122.2,103.4,122.2,103.7z"/>
	<path class="st3" d="M115.6,83.9c1.1,0.2,1.9,0.7,1.8,1.8c-0.1,1.4-1,2-2.3,1.9c-1.1,0-1.9-0.5-1.8-1.7
		C113.5,84.7,114.2,83.9,115.6,83.9z"/>
	<path class="st2" d="M104.7,133c-1.6-0.8-3.3-1.6-4.9-2.4c3.7-0.3,6.3-3.7,10.1-3.7c0.1,2.3,1.3,5.4-3.2,4.2
		C105.6,130.8,105.1,132.1,104.7,133z"/>
	<path class="st2" d="M111.1,123.9c-2.7,0.6-2.9-0.8-2-2.7c0.7-1.5,2.2-2.4,3.9-2.7C113.4,120.7,111.9,122.2,111.1,123.9z"/>
	<path class="st2" d="M112.9,138.6c0-0.3,0.1-0.6,0.1-0.9c0.4-3.9,3.2-1.7,5-1.9c-0.3,1.7-1.2,2.7-2.9,3
		C114.3,138.8,113.6,138.7,112.9,138.6z"/>
	<path class="st3" d="M115.8,130.6c0-1.6,1.1-3.2,0.2-4.8c2.6,1.5,2.4,3.2,0.1,5L115.8,130.6z"/>
	<path class="st2" d="M109.2,137.5c-2.1,0.4-3.2-0.5-3.3-2.6C107.6,135.1,108.6,136.1,109.2,137.5z"/>
	<path class="st3" d="M116.1,130.9c-0.5,0.4-1.3,1.1-1.6,0.5c-0.3-0.8,0.8-0.5,1.3-0.7C115.8,130.6,116.1,130.9,116.1,130.9z"/>
	<path class="st2" d="M98,132.8c-0.4,0-0.7-0.1-1.1-0.1c0.4-0.3,0.7-0.6,1.1-0.9C98,132.2,98,132.5,98,132.8L98,132.8z"/>
	<path class="st4" d="M166.7,66.6c0.1,0.7-0.1,1.2-0.6,1.1c-0.3-0.1-0.6-0.6-0.7-1c-0.1-0.2,0.3-0.5,0.4-0.7
		C166.1,66.2,166.4,66.4,166.7,66.6z"/>
	<path class="st0" d="M130.3,96c-0.4,0-0.9,0.1-1.3,0.1c0-1.1,0-2.2,0-3.3c1.3-0.5,2.5-0.1,3.8,0.2c1.3,2.2-0.6,1.9-1.7,2.3
		C130.8,95.5,130.6,95.7,130.3,96z"/>
	<path class="st2" d="M128.8,97.9c1,4.1-1.7,2.7-3.6,2.4C125.1,97.5,126,96.3,128.8,97.9z"/>
	<polygon class="st0" points="104.9,47.8 105.2,47.6 105.1,47.9 	"/>
	<path class="st2" d="M133.5,108.8c-0.9,0.5-1.8,0.9-2.7,1.4c-0.9-1.4-0.8-2.8-0.2-4.3C132.6,106,132.8,107.7,133.5,108.8z"/>
	<path class="st4" d="M131.2,112.7c1,0.5,0.8,0.9-0.1,1.2C131.1,113.5,131.2,113.1,131.2,112.7z"/>
	<path class="st4" d="M130.3,96c0.2-0.2,0.5-0.4,0.7-0.7C130.8,95.5,130.6,95.7,130.3,96z"/>
	<polygon class="st4" points="143.9,106.9 143.7,106.6 144.1,106.7 	"/>
	<path class="st0" d="M47.2,148.7c-1.5-0.5-2.5-1.6-3.2-2.9c2.7-6.2,3.1-6.3,9.2-2.9c2,1.1,5.7-1.4,6,3c-0.3,1-0.7,2-1,3
		c-2-1.1-3.8-1.4-5.1,0.9c-0.7,0-1.3,0-2,0C49.9,148.8,48.6,148.8,47.2,148.7z"/>
	<path class="st3" d="M67.1,136.9c-0.4-0.7-0.8-1.3-1.2-2c0.4-0.2,0.8-0.6,1-0.5c1.1,0.4,0.9,1.5,1.1,2.4c0,0-0.5,0.1-0.5,0.1
		L67.1,136.9z"/>
	<path class="st3" d="M63.9,139.8c0.4,0,0.7,0,1.1,0c0.4,0.9,0.2,1.7-0.8,1.5C63.4,141.3,63.9,140.4,63.9,139.8z"/>
	<path class="st3" d="M65,138.7c0.3-1,1.1-1.6,2-1.9C66.9,138,66.1,138.5,65,138.7z"/>
	<path class="st2" d="M47.2,148.7c1.4,0,2.7,0.1,3.8,1.1c-0.3,2-2.1,2.9-3.2,4.3c-0.5,0.1-1,0.2-1.5,0.4c-1.8-1.5-3.9-1.7-6.1-1.5
		c0.9-2.2,1.2-5.4,4.9-2.5C46.5,151.6,46.8,149.8,47.2,148.7z"/>
	<path class="st1" d="M46.3,154.5c0.5-0.1,1-0.2,1.5-0.4c1.8,1.5,3.2,3.2,3.3,5.7c-2.1,0.4-4.3,1.2-5.2-1.9
		C46,156.8,46.1,155.6,46.3,154.5z"/>
	<path class="st2" d="M53,149.9c1.3-2.3,3.2-2,5.1-0.9c-0.4,0.6-0.7,1.3-1.1,1.9c-1.3,0-2.6,0-3.9,0C53,150.5,53,150.2,53,149.9z"/>
	<path class="st0" d="M53.1,150.9c1.3,0,2.6,0,3.9,0C55.7,152,54.4,151.9,53.1,150.9z"/>
	<path class="st0" d="M51.7,162.1c-0.4,0.2-0.9,0.7-0.7-0.3C51.3,161.9,51.5,162,51.7,162.1z"/>
	<path class="st0" d="M51,160.9c0-0.4,0-0.8,0-1.1c0.1,0.3,0.2,0.5,0.2,0.8C51.2,160.7,51.1,160.8,51,160.9z"/>
	<polygon class="st0" points="134.9,116.9 134.8,116.6 135.1,116.7 	"/>
	<path class="st2" d="M189.1,77c2-0.1,3.9-0.1,5.9-0.2c-0.1,1.6-0.5,3.1-2.2,3.3C190.7,80.3,189.7,78.7,189.1,77z"/>
	<path class="st3" d="M186,75.8c-0.1,0.6-0.3,1.2-0.4,1.8c-0.2-0.2-0.6-0.3-0.7-0.5C184.7,76.2,185.4,76,186,75.8
		C186,75.9,186,75.8,186,75.8z"/>
	<polygon class="st3" points="186,75.9 186.1,75.7 186,75.8 	"/>
	<path class="st2" d="M156.1,85.6c0.4,0,0.9,0.1,1.3,0.1c-0.1,1.6,0.1,3.3-0.3,4.9c-0.4,1.4-1.4,2.8-3.1,2.8c-1.4,0-2.6-0.9-3.1-2.2
		c-0.6-1.7,0.6-2.8,1.9-3.6C153.8,86.9,154.9,86.3,156.1,85.6z"/>
	<path class="st3" d="M165.1,78c-0.6-0.6-1.1-1.3-0.7-2.2c0-0.1,0.3-0.1,0.4-0.2C164.9,76.4,165,77.1,165.1,78
		C165.1,77.9,165.1,78,165.1,78z"/>
	<path class="st0" d="M46.3,154.5c-0.2,1.2-0.3,2.3-0.5,3.5c-2.7,0.1-4.9-0.5-6-3.2c0.1-0.6,0.2-1.2,0.3-1.8
		C42.4,152.8,44.5,152.9,46.3,154.5z"/>
	<path class="st0" d="M44.1,161.9c1.2,0.1,2.5,0.2,2.4,1.8c-0.1,1.6-1.6,1.5-2.7,1.6c-1.2,0.1-2-0.7-2.1-1.7
		C41.5,161.9,42.9,162,44.1,161.9z"/>
	<path class="st3" d="M60,129.8C60,129.8,60,129.8,60,129.8C60,129.8,60,129.8,60,129.8z"/>
</g>
</svg>
