
<svg version="1.1" id="LineSeven" xmlns="http://www.w3.org/2000/svg" xmlns:xlink="http://www.w3.org/1999/xlink" x="0px" y="0px" viewBox="0 0 294 418" >
<style type="text/css">
<![CDATA[
	.st0{fill-rule:evenodd;clip-rule:evenodd;}
]]>
</style>
<g>
	<path class="st0" d="M229.5,303.1c1,2.2,1.7,3.6,2.9,6c-3.2-1.4-5.6-2.5-9.2-4.1c3.2-2.9,5.4-6.3,8.6-7.5
		c6.9-2.8,14.2-5.6,21.5-6.5c5.4-0.7,10.1,3.1,12.7,8.5c1.4,2.8,3.5,5.3,4.7,8.2c8,17.9,8.5,35.5-2.1,52.6
		c-4.5,7.2-8.7,14.6-14.2,21c-3.5,4.1-8.7,7.1-13.6,9.7c-12,6.5-25.2,9.1-38.7,9c-8.6-0.1-16.7-1.9-24.4-7.1
		c-8.9-6.1-16.8-13.1-22.5-21.9c-6.8-10.6-13.7-21.4-13.7-35.1c0-7.2-2.3-14.4-2.7-21.7c-0.5-9.6,2.8-18.6,7.6-26.5
		c4.9-8,11.3-15.1,16.9-22.6c6.2-8.4,12.4-16.9,18.2-25.6c3.3-5-0.8-9.1-2.9-13.3c-0.5-0.9-1.5-1.6-2.4-2.7
		c6.5,0,11.2,4.9,10.5,10.6c-0.8,6.7-4.4,12-8.5,17.1c-8.5,10.6-17.4,20.8-25.2,31.9c-8,11.4-11.6,24-7.5,38.2
		c1.9,6.5,1.7,13.6,3.7,20c5.7,18.7,15.9,34.3,32.7,45.4c10.4,6.8,20.9,7.9,33,6.7c9.4-0.9,17.4-4,25.2-8.1
		c10.3-5.5,18.3-13.6,22.9-24.7c2.4-5.8,5.5-11.3,7.4-17.2c3.9-12,1.4-23.3-5-33.8c-1.1-1.8-2.4-3.6-3.6-5.4
		c-6.6-9.5-12.3-11-22.6-6.8C236.1,299,233.1,301.1,229.5,303.1z"/>
	<path class="st0" d="M72.5,58.1C58.8,46.5,45.1,34.9,31.4,23.3c-0.7,0.5-1.3,1-2,1.5c0.7,1.5,1,3.5,2.1,4.6
		c13.5,13.5,27.2,26.7,40.8,40.2c11.2,11.1,22.3,22.3,33.3,33.6c1,1,1,3,1.5,4.6c-2-0.1-4.6,0.5-5.8-0.5c-4.3-3.7-8-7.9-12-11.9
		c-11-10.8-21.9-21.5-32.9-32.2c-0.8-0.8-1.6-1.8-2.6-2.3c-13.2-6.3-20-19-29.1-29.3C22,28.6,25.2,17.3,29,16.1
		c1.1-0.4,3,0.6,4.1,1.5C42,25.5,51,33.3,59.5,41.7c5,4.9,9.1,10.6,13.7,15.9C72.9,57.8,72.7,58,72.5,58.1z"/>
	<path class="st0" d="M79.1,120c-5.3-2.3-11.5-3.6-15.8-7.1C56.5,107,51,99.6,44.8,93c-2.1-2.3-4.3-5.1-7-6
		c-2.2-0.8-5.3,0.6-7.8,1.6c-0.7,0.3-1.4,3.1-0.8,3.8c4,5.2,5.2,12.6,12.1,15.7c2.1,0.9,3.9,2.6,5.8,3.8
		c11.1,7.1,22.6,13.1,35.4,16.3c2.4,0.6,5.2-0.5,7.8-0.8l0.4-2.6C86.9,123.2,83,121.6,79.1,120z M47.1,103.9
		c-4.6-2.9-9.6-5.3-12.4-10.4c0.5-0.6,1.1-1.1,1.6-1.7c3.9,3.6,7.9,7.3,11.8,10.9C47.8,103.1,47.4,103.5,47.1,103.9z"/>
	<path class="st0" d="M155.3,198.3c3.4-0.8,6.9-1.5,10.3-2.5c1.6-0.5,3.6-1.2,4.4-2.4c0.5-0.8-0.7-3.2-1.8-4.2
		c-1.7-1.5-3.9-2.4-5.9-3.5c-6.9-3.7-13.8-7.3-20.6-11.1c-2.9-1.6-5.5-3.8-8.2-5.7c-2-1.4-3.9-2.8-5.9-4.2c-0.3,0.3-0.5,0.7-0.8,1
		c4,3.4,7.9,6.9,11.9,10.3c3.8,3.3,7.6,6.5,12.2,10.5c-8.8,0-33.4-22.2-36.8-32.6c2.8,0.6,5.2,0.7,7.2,1.7c3.1,1.6,6.1,3.5,8.8,5.7
		c11.9,9.5,25.6,15.8,38.7,23.2c3.2,1.8,4.9,6.3,7.1,9.6c0.2,0.4-0.3,1.6-0.8,2.1c-2.9,3.3-15,5.3-19.5,3.4
		C155.5,199.2,155.4,198.8,155.3,198.3z"/>
	<path class="st0" d="M69.6,157.7c-0.9-0.6-1.2-1.1-1.6-1.1c-2.9-0.2-5.8-0.3-8.7-0.2c-0.2,0-0.9,2.5-0.4,3.2c2,2.9,2.1,7.8,7.6,7.1
		c1.9-0.2,3.9-0.1,5.9,0.1c8.4,1,16.3-1.5,24.3-3.2c2.5-0.5,7.5-0.4,7.7,0.5c1.3,4.5-2.9,4.9-5.8,5.4c-8.9,1.7-17.9,3.5-26.9,4.4
		c-4.3,0.4-8.9-0.8-13.2-1.8c-0.9-0.2-1.8-2.1-2.2-3.4c-0.7-2.2-0.4-4.8-1.4-6.8c-2.3-4.7-2.1-6.4,2.6-8.6c2.2-1,4.7-1.6,7.1-1.8
		C68.8,151.2,69.6,152.2,69.6,157.7z"/>
	<path class="st0" d="M116.5,189.5c-13,9.1-25.9,18.2-38.9,27.3c-0.3-0.2-0.6-0.3-1-0.5c1-2,2.1-3.9,2.8-5.2
		c-1.5-1.6-4.5-3.6-4.2-4.7c0.9-3.4,0.4-8,5.1-9.4c2.4-0.7,4.9-1.4,7.3-2.1c0.2,0.6,0.4,1.2,0.7,1.8c-2,1-4.1,1.8-5.9,3.2
		c-1.2,0.9-2.2,2.5-2.8,4c-0.3,0.7,0.7,1.9,1.1,2.9c1.4-0.7,2.9-1.2,4.2-2c7.8-5,15.5-10.2,23.4-15c2.1-1.3,5-1.3,7.6-1.9
		C116.1,188.4,116.3,189,116.5,189.5z"/>
	<path class="st0" d="M113.6,233.3c-1.5-13.9,6.6-21.2,15.8-27.8c-3.1,7.1-11.4,10.9-13.5,20.6c9.9-6.4,15-17.1,25.8-19.8
		c0.5,0.6,0.9,1.1,1.4,1.7C133.2,216.4,123.4,224.9,113.6,233.3z"/>
	<path class="st0" d="M192.9,178.2c-4-3.3-7.9-6.8-12.1-9.8c-3.3-2.4-7.2-4-10.6-6.4c-6.9-4.8-14-9.3-20.3-14.8
		c-5.5-4.8-10.1-10.7-15-16.1c0.4-0.4,0.8-0.9,1.2-1.3c1.7,1.5,3.9,2.7,5.1,4.5c6.7,10,17.2,15.8,26,23.3c4.3,3.6,10.2,5.4,15.1,8.5
		c3.4,2.2,6.5,5,9.5,7.8c1,0.9,1.3,2.5,1.9,3.8C193.4,177.9,193.1,178,192.9,178.2z"/>
	<path class="st0" d="M154.3,235.4c2.1-0.7,4.2-1.4,6.8-2.2c-0.5,4.2-3.2,5.5-6.2,6.3c-4.4,1.2-6.6-1.6-8.9-4.3
		c4.6-3.7,9-7.2,13.3-10.7c0.4,0.4,0.8,0.8,1.2,1.2c-2.3,3-4.6,6-6.9,9C153.8,234.9,154,235.1,154.3,235.4z"/>
	<path class="st0" d="M202.9,186.6c1.8,1.9,3.9,3.7,5.4,5.8c3.9,5.8,3.8,5.9,10.4,2.9c5,6.6-4.6,8.5-4.6,13.7
		c-1.6-8.6-6-15.6-12.9-21.1C201.8,187.4,202.3,187,202.9,186.6z"/>
	<path class="st0" d="M174.8,214c-2.5,2-5,4-7.4,5.9c-0.5-0.6-0.9-1.2-1.4-1.8c2.5-2,5-3.9,7.5-5.9
		C173.8,212.8,174.3,213.4,174.8,214z"/>
</g>
</svg>
