<?xml version="1.0" encoding="utf-8"?>
<!-- Generator: Adobe Illustrator 16.0.4, SVG Export Plug-In . SVG Version: 6.00 Build 0)  -->
<!DOCTYPE svg PUBLIC "-//W3C//DTD SVG 1.1//EN" "http://www.w3.org/Graphics/SVG/1.1/DTD/svg11.dtd">
<svg version="1.1" id="Layer_1" xmlns="http://www.w3.org/2000/svg" xmlns:xlink="http://www.w3.org/1999/xlink" x="0px" y="0px"
	 width="307.4px" height="418.4px" viewBox="0 0 307.4 418.4" style="enable-background:new 0 0 307.4 418.4;" xml:space="preserve"
	>
<style type="text/css">
<![CDATA[
	.st0{fill-rule:evenodd;clip-rule:evenodd;}
	.st1{fill-rule:evenodd;clip-rule:evenodd;fill:#FFFFFF;}
]]>
</style>
<g>
	<path class="st0" d="M254.5,347.9c5.3-15-4.6-33.2-21.9-37.7c2.7-3,4.7-5.8,7.3-8c6.5-5.7,14.8-7.6,23-9.6c1.5-0.4,3.7-0.2,4.8,0.7
		c4.3,3.5,10.2,5.1,12.2,11.6c1.3,4.3,5.2,7.8,6.7,12.1c4.1,11.6,4.1,23.4,0.2,35.3c-1.1,3.5-1.5,7.1-2.2,10.7c-0.5,0-0.9,0-1.4,0
		c0.8,0.9,1.7,1.8,2.7,2.8c-0.5,0.4-0.9,0.7-1.3,1c-1.9,1.2-4.3,1.9-5.7,3.6c-7,8.4-11.9,18.7-22.8,23.3c-1.9,0.8-3.6,2.5-5,4
		c-4.6,4.8-11.4,2.5-16.7,5.5c-2.5,1.4-6.7-0.3-9.3,1.1c-6,3.2-11.6,1-17.3,0.1c-3.8-0.6-7.9,2.2-11.4-1.5c-1.5-1.6-3.6-2.7-5.5-3.9
		c-2.3-1.5-4.7-2.9-7-4.4c-1.3-0.9-2.7-1.8-3.8-2.9c-4.8-4.6-9.5-9.3-14.2-14c-0.2-0.2-0.7-0.4-0.7-0.6c0.5-8.5-7.3-12.7-10.2-19.6
		c-3-7.2-3.4-14.2-4.1-21.5c-0.7-7.8-2-15.5-2.4-23.3c-0.2-2.9,0.9-6.2,2.1-8.8c3.1-6.4,6.6-12.5,10-18.8c0.2-0.3,0.6-0.5,0.6-0.8
		c1.5-9.7,10.7-13.4,15.8-20.2c4.5-6,9-12.1,13.7-18c4.7-5.9,2.8-13.6-4.8-16.5c-0.9-0.3-1.8-0.7-2.7-1c-0.1-0.5-0.1-0.9-0.2-1.4
		c2.5-0.3,5.1-1.2,7.5-0.9c6.2,0.8,11.1,9.7,8.4,15.4c-2.2,4.6-5.1,9-7.7,13.4c-2.2,3.7-4.4,7.4-6.9,10.8c-1.9,2.6-4.6,4.7-6.7,7.2
		c-4.6,5.5-10,10.7-13.4,16.9c-3.6,6.5-5.7,13.9-7.4,21.2c-0.8,3.6,0.7,7.8,1.3,11.7c1,6.7,2.3,13.4,3.2,20.1
		c0.9,6.9,3.5,12.8,7.9,18.1c1.8,2.2,2.7,5.2,4.2,7.7c6.2,10.1,14.2,18.7,25.1,23.6c7.8,3.5,16,8.1,25.1,3.2c0.3-0.2,0.7-0.3,1-0.2
		c9,2.1,16-2.7,23.9-5.6c7.6-2.8,12.5-8,17.3-13.5c7.2-8.3,12.7-17.9,15.3-28.7c3.2-13.8,1.3-26.8-7.7-37.9
		c-6.4-7.9-15.1-11.8-25.2-5.1c-1.3,0.9-2.9,1.5-4.3,2.3c1.6,6.1,3.4,7.4,8.1,6.2c0.8,2.2,1.3,4.3,2.2,6.2c2.1,4.6,4.6,9,6.6,13.6
		c0.6,1.4,0.3,3.2,0,4.8c-0.5,2.7-1.1,5.6-2.3,8.1C257.8,346.9,255.7,347.2,254.5,347.9L254.5,347.9z"/>
	<path class="st0" d="M118.6,107.9c-4.9-5.4-10.1-10.5-15.1-15.8c-4.6-4.7-9.1-9.6-13.8-14.1c-5.5-5.4-11.3-10.4-16.8-15.8
		c-1.2-1.1-1.8-2.9-2.7-4.3c0.5-0.3,0.9-0.6,1.4-0.9c11.2,3,15,14.2,22.6,21.2c0.5-0.3,1-0.7,1.4-1c-2-3.3-4.3-6.4-5.8-9.9
		c-0.8-1.9,0.5-4.7-0.2-6.5c-0.5-1.2-3.5-1.1-4.7-2.2c-4.6-4.4-8.8-9.2-13.4-13.6c-7.8-7.4-15.7-14.6-23.6-21.9
		c-1-0.9-1.8-1.9-2.7-3c-3.4-4.2-7.7-4.1-9.5,1.1c-2.1,6-2.9,12.4-4.3,18.6c0.7-0.1,1.4-0.2,2.1-0.3c1.4,2,2.6,4.2,4.2,6.1
		c1.3,1.5,3,2.9,4.7,4c2.4,1.5,6.2,2.1,7.2,4.1c1.2,2.5,1.3,6.3-2,8.8c-1,0.8-1.2,2.6-2.3,5.4c5.5-1.4,9.6-2.5,13.7-3.5
		c0.9-0.2,2.1-0.7,2.7-0.3c2.8,1.9,5.9,3.6,8,6.1c9.5,11.5,20.1,21.8,31.7,31.2c2.5,2,4.1,5.3,6.5,7.4c2.3,2,5,3.7,7.8,4.8
		c1,0.4,3.3-0.7,4.2-1.8C120.1,111.1,119.4,108.8,118.6,107.9z M53.8,42c-2.2-2.2-4.1-4.8-6.1-7.2c0.3-0.2,0.7-0.5,1-0.7
		c2.6,2,5.1,4.1,8.4,6.7C55.8,41.3,54.1,42.3,53.8,42z"/>
	<path class="st0" d="M221.3,370.8c-1.4,0.3-3.4,1.4-4,0.8c-7.7-6.7-19.4-7.3-25.4-16.4c-4.1-6.2-8.9-12.2-11.6-18.9
		c-1.5-3.8,0.6-9,0.9-13.6c0.7-11.6,4.5-21.7,12.2-30.6c4.5-5.3,8.1-11.4,12.1-17.1c0.4-0.5,0.7-1.3,1.3-1.5
		c9.7-4.3,11.8-14.6,17.5-22.1c4.3-5.7,2.7-12,2.2-18c-0.6-7.5-0.8-15.2-3.1-22.3c-2-6.1-6.5-11.5-10-17.1c-1-1.6-2.4-2.9-3.7-4.2
		c-9.5-10-19.3-19.4-32.5-24.8c-4.8-2-8.8-6.1-13-9.5c-4.1-3.3-7.9-7.1-12-10.4c-2.2-1.8-4.5-3.1-7.4-0.4c-2.1,2-4.7,1.1-5.2-2
		c-0.6-3.9-0.8-7.9-0.5-11.9c0.1-1.5,1.8-3.3,3.2-4.1c0.7-0.4,2.8,1.2,3.8,2.3c5.8,6.3,11.4,12.8,17.3,19c2,2.1,4.8,3.5,7.1,5.3
		c2.3,1.8,4.4,3.8,6.6,5.7c0.9,0.8,1.5,2.2,2.4,2.4c10.5,2.9,18.4,10,26.5,16.6c3.8,3.1,6.5,7.6,9.9,11.4c2.3,2.6,4.7,5.2,7.4,7.3
		c1.5,1.2,3.6,1.9,5.5,2c3.4,0.2,5.2,1.4,3.9,5c-1,2.6-2.3,5.1-3.5,7.7c-0.5-0.1-1-0.2-1.5-0.2c1.3,3.3,2.9,6.5,3.9,9.9
		c0.5,1.8,0.7,4.1,0.1,5.9c-1.6,5.2-1.5,10.2-0.7,15.6c0.5,3.4-1.4,7.6-3.2,11c-5.1,9.5-12.7,17.1-20.4,24.6
		c-4,3.9-7.2,8.7-10.3,13.4c-3.8,5.8-8.4,11.4-10.3,17.8c-2.3,7.8-2.4,16.4-3.1,24.7c-0.1,1.5,0.6,3.4,1.4,4.7
		c3.8,5.8,7.5,11.7,11.9,17.1c2,2.4,5.2,4.3,8.2,5.1C211.5,362.9,216.7,366.5,221.3,370.8L221.3,370.8z"/>
	<path class="st0" d="M40,90.4c3-1.4,5.7-2.6,8.3-3.8c0.3-0.4,0.7-0.8,1-1.2c2.7,3.9,5.3,7.9,8.3,11.6c3.3,4,7,7.7,10.6,11.5
		c2,2.2,3.7,4.7,6,6.4c2.8,2.1,6,3.9,9.3,5.4c4.5,2.1,9.4,3.5,13.9,5.6c2.1,1,3.6,3.2,5.4,4.9c-2.6,1-5.7,3.3-7.8,2.7
		c-12.6-3.5-24.7-8.1-35.4-16c-2.4-1.8-5.8-2.2-8.3-4c-2.8-2-5.1-4.8-7.5-7.3c-0.6-0.7-0.8-1.8-1.4-2.5C38.9,99.7,37,95.4,40,90.4z"
		/>
	<path class="st0" d="M163.3,203.5c5.6-4.2,10.3-7.7,17.4-6.4c-8.1-8.3-18.2-12.8-27.8-17.9c-0.4,0.5-0.7,1-1.1,1.5
		c4.3,3.1,8.5,6.3,12.8,9.4c-4.6,3.1-10,2.1-14.1-2.7c-1.4,0.3-2.9,0.7-5.2,1.3c4.4-8.4-4-8.7-6.8-12.4c-3.9-5-8.5-9.5-12.5-14.4
		c-2.1-2.6-1-4.2,2.2-4.8c1-0.2,2-1,3-1.1c1.4,0,3.5-0.1,4.1,0.7c6.6,9.2,15.9,14.9,25.7,20c7.5,3.8,15.1,7.6,22,12.4
		c2.7,1.9,3.8,6.3,5.4,9.7c0.2,0.5-0.4,1.7-1,2.1c-5.8,4.1-12.6,5.5-19.5,6.1C166.4,207.1,165,204.9,163.3,203.5z"/>
	<path class="st0" d="M116.4,165c-2.5-0.6-5.3-0.3-7.8,0.2c-5.9,1.2-11.7,3.2-17.6,4.3c-4.6,0.8-7-1.4-7.6-6.1
		c-1.3-9.1-4.9-11.5-13.6-8.6c-2.2,0.7-4.2,1.8-6,2.6c-0.7,6.1,6.4,11.3-0.3,18.1c7.6,1.4,13.1,5.6,20.2,3.8c4-1,8.1-1.3,12.2-2.1
		c5.4-1,10.9-1.9,16.2-3.2c2-0.5,4-2,5.2-3.6C118.5,168.8,120,165.9,116.4,165z M77.8,168.3c-0.6,0.2-1.3,0.5-1.9,0.8
		c-1.8-2.1-3.6-4.3-5.3-6.4c0.1-0.6,0.3-1.3,0.5-1.9c2.2,0,5.8-0.7,6.2,0.1C78.2,163,77.7,165.8,77.8,168.3z"/>
	<path class="st0" d="M83,212.5c1.1-3.2,2.6-7.6,4.1-12c0.1-0.4,0.6-1,0.9-1.1c3.4-0.7,7.6-2.8,10-1.5c6.9,3.4,11.7-0.7,17-3.1
		c2.7-1.2,5.1-3.2,7.8-4.3c1.4-0.5,4.3-0.3,4.7,0.5c0.7,1.4,0.5,3.8-0.3,5.1c-0.9,1.6-2.8,2.6-4.5,3.6c-5.2,3.3-10.5,6.5-15.7,9.8
		c-1,0.6-2,1-2.9,1.7c-1.8,1.3-3.5,2.5-5.2,4c-2.4,2.1-4.4,4.8-7,6.6c-3.3,2.2-5.5,0.7-6.2-3.2C85.4,216.8,84.2,215.2,83,212.5z"/>
	<path class="st0" d="M146,212.1c3.5-4.9,3.7-4.9,10.6-3.3c-0.8,1.6-1.1,3.5-2.3,4.5c-9.1,8.1-18.2,16.3-27.8,23.8
		c-5.6,4.4-6.6-2.3-9.8-5.3c6.3-1.7,8-6,9-11.3c0.3-1.4,2.3-2.5,3.5-3.8c2-2.2,3.6-5.5,6.1-6.5C138.8,208.6,143.2,206.2,146,212.1z"
		/>
	<path class="st0" d="M154.9,239.1c11.3-9.4,22.2-18.4,33.4-27.7c1.3,3.6,0.9,5.7-2.1,8.2c-5.5,4.5-10.2,10-15.5,15.4
		c2.8,1.9,3.6,4.3,0.8,7.4c-3,3.3-6.5,3.2-10,1.5C159.1,242.7,157,240.6,154.9,239.1z"/>
	<path class="st0" d="M33.2,67.8c1.3,0.5,2.4,0.8,3.4,1.3c2.4,1.3,2.8,3,0.1,4.3c-2.8,1.3-5.8,2.4-8.8,3.1c-0.9,0.2-2.7-1.2-3.1-2.3
		c-0.7-1.8-0.6-3.9-0.9-6.2C26.7,70.7,30.2,75.8,33.2,67.8z"/>
	<path class="st0" d="M221.4,370.9c2.9-0.6,5.9-1,8.7-1.9c2.8-0.9,5.4-2.3,8-3.5c1.9-0.9,3.8-1.8,6.9-3.3
		C241.3,369.8,229.6,373.4,221.4,370.9C221.3,370.8,221.4,370.9,221.4,370.9z"/>
	<path class="st0" d="M15.7,39.7c5.2,1.7,6.2-1.1,5.9-5c1.8,0.4,3.3,0.6,4.6,1.2c0.7,0.3,1.2,1.3,1.7,2c-1.6,1.3-3.1,3.1-5,3.7
		c-2.2,0.6-4.8,0.2-7.2,0.2C15.7,41,15.7,40.4,15.7,39.7z"/>
	<path class="st0" d="M254.4,347.9c-1.9,4.5-3.7,9-5.6,13.4c-0.9-0.5-1.7-0.9-2.6-1.4C248.9,355.9,251.7,351.9,254.4,347.9
		C254.5,347.9,254.4,347.9,254.4,347.9z"/>
	<path class="st0" d="M19.5,79.8c-1.6,0.7-3.2,1.4-4.8,2.1c-0.2-0.9-0.8-2.5-0.6-2.6c1.5-0.7,3.2-1.2,4.8-1.7
		C19.1,78.4,19.3,79.1,19.5,79.8z"/>
	<path class="st1" d="M48.7,34.1c2.6,2,5.1,4.1,8.4,6.7c-1.3,0.5-3,1.5-3.3,1.2c-2.2-2.2-4.1-4.8-6.1-7.2
		C48,34.5,48.3,34.3,48.7,34.1z"/>
</g>
</svg>
