<?xml version="1.0" encoding="utf-8"?>
<!-- Generator: Adobe Illustrator 16.0.4, SVG Export Plug-In . SVG Version: 6.00 Build 0)  -->
<!DOCTYPE svg PUBLIC "-//W3C//DTD SVG 1.1//EN" "http://www.w3.org/Graphics/SVG/1.1/DTD/svg11.dtd">
<svg version="1.1" id="Layer_1" xmlns="http://www.w3.org/2000/svg" xmlns:xlink="http://www.w3.org/1999/xlink" x="0px" y="0px"
	 width="999.2px" height="1000px" viewBox="0 0 999.2 1000" style="enable-background:new 0 0 999.2 1000;" xml:space="preserve">
<g>
	<path style="fill-rule:evenodd;clip-rule:evenodd;" d="M786.3,708.2c-5.2-9.2-12.7-16.8-23.4-17.8c-10.8-1-22.1-0.2-32.9,1.5
		c-9.2,1.5-18.1,5.1-27,8.2c-12.2,4.2-24.4,8.5-36.3,13.5c-11.8,5-23.1,10.9-34.6,16.4c-15.4,7.2-30.8,14.3-46.2,21.5
		c-2.1,1-4.1,2.5-6.3,2.8c-5.9,1-11.4,2.4-13.8,7.7c-2-0.4-3.6-1.2-4.8-0.8c-9.7,3.9-19.1,8.4-28.9,11.9c-8.1,2.9-16.4,5.4-24.8,6.7
		c-6.1,0.9-9.6-4.1-8-10.1c1.3-4.9,4.2-9.5,5.1-14.4c0.9-4.8,2.3-8.3,7.2-10.2c2.3-0.9,3.2-3,0.8-5.1c-2.6-2.2-9.4-1.6-12,0.6
		c-8.6,7.3-10.4,17.3-11.2,27.8c-0.1,1.5,0.1,3,0.6,4.4c4.1,11.7,15.9,19.9,28.2,18.8c5.7-0.5,11.7-1.4,16.9-3.5
		c10.2-4.2,19.9-9.5,29.8-14.4c11.3-5.5,22.5-11.1,33.9-16.5c10.5-5,21-9.8,31.6-14.6c4.5-2.1,9.2-3.8,13.7-5.9
		c11.4-5.3,22.5-11.5,34.2-16c22.5-8.8,45.8-14.7,70-16.3c6.5-0.4,13-0.2,19.5-0.1c2.3,0,4.9,0.8,3.7,3.8
		c-2.6,6.3-5.4,12.7-12.1,15.9c-11.5,5.5-22.8,11.4-34.7,15.9c-18.5,6.9-37.3,13.1-56.1,18.9c-12,3.8-24.6,5.9-36.6,9.7
		c-15.3,4.9-30.6,10.2-45.4,16.3c-12,5-23.4,11.6-35.2,17.1c-8.7,4-15.7,9.8-21.3,17.4c1.1-0.1,2.8-0.7,3.3-0.1
		c3.4,3.4,6,1.9,8.3-1.3c1.1,2.6-5.5,16.2-9.8,19.8c0.6-5.4,1-9.9,1.6-14.8h-4.9c0.5-1.3,0.8-2.3,1.1-3.3c-7.5,7.3-7.9,12.4-1,17.6
		c-2,0.2-3.6,0.5-4,0.5c0,3.4-0.1,6.1,0.1,8.8c0.1,1,0.9,2.1,1.4,3c3.6,6.6,10.7,8.4,16.8,11.1c4.8,2.1,10.4,3.2,15.7,3.5
		c6.6,0.3,13.3-0.3,19.8-1.2c16.6-2.4,33.5-4,49.6-8.4c14.2-3.9,28.2-10.2,41.1-17.4c14.1-7.9,28.8-12.4,44.5-14.8
		c11.8-1.8,23.2-0.5,34.6,2c4.8,1.1,5.5,3.3,3,7.1c-4.2,6.3-8.5,12.6-12.7,19c-6.1,9.4-12.2,18.9-18.2,28.4c-1.8,2.8-3.7,5.5-5,8.6
		c-3.5,7.9-7.3,15.7-9.6,23.9c-1.6,5.7-0.6,11.9,4.9,16.2c6,4.7,8.8,11.3,11.3,18.3c3.4,9.7,9.8,16.5,20.5,18.1
		c8.5,1.3,16.2-0.3,22.3-6c-8,0-16,0.8-23.8-0.3c-5.5-0.7-13.1-11.2-13-19.9c4.2,1.2,8.3,2.5,12.5,3.5c7.4,1.6,9.4,1.3,11.4-1.3
		c-5.2-1.7-10.2-3.8-15.5-5c-7.9-1.8-12.1-5.1-12.8-14.3c-1.1-17.1,2.5-32.8,11.5-47c8-12.6,17.8-24,26.6-36.1
		c5.7-7.8,4.2-14.6-4.7-18.6c-6.7-3-14-5.1-21.2-6.8c-10.2-2.4-20.4-1-30.5,1.7c-14.3,3.9-28.8,6.9-43.1,10.8
		c-19.2,5.2-38.3,11-57.5,16.4c-9.6,2.7-19.3,5.2-29,7.2c-9.7,2-19.5,3.9-29.4,4.8c-6.1,0.6-10.5-5.9-9.6-12
		c1.4-8.6,5.7-15.8,11.7-21.6c9.6-9.3,21.7-15.1,33.9-20.4c10.9-4.8,22.1-9,33.4-12.8c14.3-4.9,28.7-9.5,43.2-13.8
		c17-5,34.6-8.5,51.2-14.5c18.2-6.6,35.9-14.8,53.3-23.2c7.4-3.5,13.8-9.1,20.3-14.2C787.9,717.3,788.7,712.4,786.3,708.2z
		 M713.3,906.9c1.1,6,2,10.9,2.9,16.2C709.5,920.8,708.4,915.1,713.3,906.9z M649.1,838.7c0.1,0.5,0.3,1,0.4,1.5
		c-16.7,7.5-34.3,11.3-52.3,14c-0.2-0.5-0.3-1-0.5-1.5C614.2,848,631.6,843.3,649.1,838.7z"/>
	<path style="fill-rule:evenodd;clip-rule:evenodd;" d="M927.6,283.6c0-0.3-0.1-0.6-0.1-0.9c0.8-0.4,1.6-0.7,3.3-1.5
		c-1.7,0-2.6,0-3.4,0c-23.7,0.6-47.3,1.2-71,1.9c-10.5,0.3-20.9,0.9-31.4,1.1c-13.6,0.2-27.2-0.8-40.7,0.3
		c-19.1,1.5-38.1,3.3-57.3,2.9c-14.9-0.3-29.9,0.3-44.8,1.6c-19.3,1.7-38.6,3.1-58.1,2.2c-10.1-0.5-20.3,0-30.4,0.2
		c-24.7,0.6-49.5,1.6-74.2,2.1c-21.4,0.4-42.9,0.5-64.3,0.7c-22.1,0.2-44.2,0.4-66.3,0.6c-18.3,0.2-36.6,0.4-54.9,0.6
		c-13.9,0.2-27.9,0.4-41.8,0.6c-13.5,0.3-26.9,0.8-40.4,0.9c-11.6,0.1-23.2-0.5-34.9-0.4c-11.5,0.1-22.9,0.9-34.4,1.3
		c-4.1,0.1-8.4-0.8-12.4-0.1c-11.6,2.1-22.7-2.7-34.3-1.3c-7.1,0.9-14.6-1.6-21.9-2.2c-4.6-0.4-9.4,0.5-13.9-0.2
		c-3.5-0.5-5.9-0.3-6.6,2.1c-4.9,1.1-8.9,2.5-13.1,2.9c-6.4,0.6-12.9,0.4-19.4,0.8c-10.9,0.6-21.8,1.5-32.8,2.1
		c-3.3,0.2-6.6-0.3-9.9,0.1c-1,0.1-2.5,2.4-2.4,3.6c0,0.2,0.1,0.3,0.1,0.5c2.7,0.4,5.4,0.8,8.2,1.2c0.8,0.1,1.5,0.2,2.3,0.3
		c2.7-1.1,5.7-1.5,8.8-1.6c13.9-0.5,27.9-0.8,41.8-1.2c9.4-0.2,18.8-0.4,28.1-0.6c1.3,0,2.6,0.4,3.9,0.4c6.5,0.1,13.1-0.3,19.6,0.3
		c4.8,0.5,10.3-2.4,13.8,1.3c3.6-1,6.7-2.7,9.7-2.6c4.6,0.2,9.2,1.7,13.9,2.4c3.1,0.4,6.3,0.3,9.4,0.3c6.7,0,13.3,0,20,0
		c4.8,0,9.6,0.2,14.5,0.3c4.3,0.1,8.6,0,12.9,0.1c7.2,0.2,14.5,0.8,21.7,0.6c6.5-0.1,12.9-1.3,19.4-1.5c6.3-0.2,12.7,0.7,18.9,0.1
		c6.3-0.6,11.7,3.3,18.2,1.9c4.7-1,10.1,1.2,15.2,1.6c1.9,0.1,3.8-0.7,5.7-1.1c2.8-0.7,5.5-1.8,8.4-2.2c4.9-0.6,9.8-0.7,14.6-1
		c0.9,0,1.8,0.5,2.7,0.8c1.2,0.4,2.8,1.4,3.7,1c10.1-4.2,20.3-2.6,30.7-1.7c4.8,0.4,9.6,0,14.4-0.4c9-0.6,18-1.8,27-2.1
		c9.8-0.3,19.5,0.3,29.3,0.1c11.3-0.3,22.6-1.1,33.9-1.5c12.6-0.4,25.3-0.4,37.9-0.7c17.9-0.5,35.8-1,53.7-1.7
		c11.1-0.5,22.2-1.3,33.2-2c6.6-0.4,13.1-1.6,19.7-1.5c11.2,0.1,22.5,1.2,33.7,1.2c14.8,0,29.5-0.7,44.3-1.1
		c13.8-0.4,27.5-0.5,41.3-1.3c12.4-0.7,24.8-2.6,37.2-3c29.6-1,59.2-1.4,88.7-2.2c10-0.3,19.9-1.2,29.9-1.4
		c3.7-0.1,7.5,1.4,10.7-1.8c0.2-0.2,1.2,0.3,1.8,0.5c5.9,1.9,11.5,0.6,17.2-1.7C933.1,284.2,930.4,283.9,927.6,283.6z"/>
	<path style="fill-rule:evenodd;clip-rule:evenodd;" d="M517.4,417c-4.6,0.5-9.2,0.9-13.8,1.5c-5.4,0.7-10.7,1.5-16.1,2.1
		c-6.6,0.8-13.2,1.5-19.8,2.3c-19.8,2.4-39.7,4.5-59.4,7.2c-12.3,1.7-24.5,4.7-36.8,6.4c-15.6,2.2-31.3,3.9-47.1,5.4
		c-16,1.5-32.1,2.7-48.2,3.5c-19.1,1-38.2,1-57.2-2.6c-10.9-2-22-3.6-32.8-6c-5.6-1.2-11.2-3.3-16.2-6c-11.3-6.1-13.7-20.8-5.7-30.9
		c6.8-8.6,15-15.4,25.8-18.7c14.6-4.5,29.1-9.3,43.8-13.6c7.8-2.3,16-3.1,23.7-5.6c19.3-6.3,39.4-7.7,59.2-10.9
		c14.1-2.2,28.2-4.4,42.4-6c14.1-1.5,28.3-2.1,42.5-3.4c6.7-0.6,13.3-2.6,20-3c14.1-0.7,28.3-0.6,42.4-1.3c9.5-0.5,19-2.1,28.5-2.5
		c17.1-0.8,34.2-1,51.3-1.5c11.7-0.3,23.4-0.8,35.2-1.1c9.7-0.2,19.4-0.4,29.1-0.1c5.5,0.1,10.9,1.2,16.3,1.9c0.5,0.1,1,0.2,1.5,0.1
		c12.1-3.9,24.3-0.1,36.5-0.2c17.7-0.2,35.4,0.7,53.1,1.2c1.3,0,2.9-0.2,3.9,0.4c1.1,0.6,1.7,2,2.5,3.1c-1.1,0.7-2.2,1.9-3.3,1.9
		c-8,0.1-15.9,0-23.9-0.2c-8.3-0.3-16.5-0.9-24.8-1.2c-7.8-0.2-15.6-0.2-23.3-0.2c-34.9,0-69.9-0.1-104.8,0.3
		c-13.6,0.2-27.2,1.8-40.7,2.6c-17.9,1.1-35.9,1.9-53.8,3.1c-15.5,1-31,2.5-46.5,3.7c-5.4,0.4-10.9,0.2-16.4,0.7
		c-13.5,1.4-27,2.9-40.5,4.7c-13.1,1.7-26.3,3.5-39.3,5.9c-15.8,2.9-31.6,6.2-47.3,9.9c-16.6,3.9-33.2,8-49.6,12.7
		c-13.9,4-27.6,8.6-37.6,20.3c-9.7,11.4-5.8,20.5,7.2,24.5c22.3,6.8,45.2,10.7,68.7,11.1c25.4,0.4,50.8,0.2,76.1-2.7
		c19.9-2.3,39.8-4.9,59.7-7.7c25.3-3.5,50.6-7.6,75.9-10.7c11.5-1.4,23.2-0.8,34.8-1.6c5.2-0.4,10.3-2.3,15.5-2.9
		c3-0.3,6.2,0.6,9.3,1C517.4,415,517.4,416,517.4,417z"/>
	<path style="fill-rule:evenodd;clip-rule:evenodd;" d="M687.1,532.2c0.6-16.6-1.1-33.3-5.4-49.4c-2.7-10.1-6.4-20.1-16.5-25.7
		c-4-2.2-9-3.1-12.2-6c-4.8-4.5-8.5-10.2-12.7-15.4c2.2-1.9,3.8-3.2,6.4-5.4c-2.4-0.7-4.2-1.8-5-1.3c-1.5,0.8-2.4,2.7-3.7,4.3
		c-1.1-1-2.2-2.7-3.6-3.1c-2-0.5-4.3-0.1-6.5,0c0.5,1.6,0.6,3.5,1.6,4.7c4,5.2,8.5,10.1,12.4,15.4c2.9,4,5.2,8.5,7.4,12.9
		c4.1,8.2,8.6,16.3,11.5,24.9c2.6,7.8,3.4,16.2,4.7,24.4c2.3,14.2,4.7,28.4,4,43.1c-0.5,10,0.9,20.2,2.2,30.3
		c1,7.8,3.5,15.4,4.7,23.2c0.6,4-0.2,8.3-0.2,12.4c0.1,6.3,0.4,12.6,0.6,18.9c0.5,0,1.1,0.1,1.7,0.1c0.5-2,1.4-4,1.6-6.1
		c0.7-7.3,1.2-14.6,1.8-21.9c0.1-1.6,0.1-4,1-4.7c3.9-2.6,2.9-4.9,0.4-7.7c-0.6-0.7-0.8-1.9-0.8-2.8c0.3-6.3,0.5-12.6,1-18.9
		C684.8,563,686.6,547.6,687.1,532.2z M655.1,455.7c13.3,3.7,23.9,26.3,23,48.5C670.6,488.3,662.9,472.2,655.1,455.7z M678.7,521.3
		c-0.4-4-0.9-7.9-1.3-11.9c0.6-0.1,1.2-0.1,1.8-0.2c0.4,4,0.7,8,1.1,12C679.8,521.2,679.2,521.3,678.7,521.3z"/>
	<path style="fill-rule:evenodd;clip-rule:evenodd;" d="M624.9,614.4c-4.5-6.8-9.3-13.3-13.8-20.1c-1.6-2.5-3-5.2-4-7.9
		c-4.4-12.7-8.3-25.6-13-38.2c-3.1-8.4-7.1-16.8-15.7-21.1c-3.8-1.9-6-4.7-6.2-8.3c-0.6-10.5-1.1-21.1-0.8-31.7
		c0.2-6,0.9-5.9-5.1-5.3c-1,0.1-2.2-0.5-3.3-0.9c-2.8-0.9-4.2,0.1-4.1,3c0.1,4.3,0.6,8.7,0.4,13c-0.2,3.8-0.5,7.9-2,11.4
		c-4,9.5-7,19-4.8,29.4c0.5,2.4,0.4,4.9,0.6,7.3c0.5,0.1,1,0.3,1.5,0.4c4-3.7,8-7.4,12.3-11.4c3.2,6.2,6.5,11.3,8.6,16.8
		c6,15.6,14.8,29.5,25.1,42.6c2.6,3.3,4.5,7.4,6.1,11.4c2.3,5.8,4.1,11.9,6.2,17.8c0.7,2,1.5,3.9,2.3,5.9c0.3-0.1,0.7-0.2,1-0.3
		c-0.4-3.7-0.8-7.4-1.1-11.1c0.4-0.2,0.8-0.5,1.3-0.7c2,1.6,3.9,3.4,6,4.9c2.7,1.9,4.2,0.5,4.2-2.2
		C626.6,617.4,625.8,615.8,624.9,614.4z M558.9,529.6c0.8-3.2,1.5-5.6,2.3-8.6C565.4,525.6,565,527.3,558.9,529.6z M587.7,556
		c-3.5-6.8-7-13.5-10.5-20.3c0.8-0.4,1.5-0.8,2.3-1.2c3.4,6.9,6.8,13.8,10.2,20.8C589.1,555.5,588.4,555.8,587.7,556z"/>
	<path style="fill-rule:evenodd;clip-rule:evenodd;" d="M628,699.3c4.3-2.7,9.2-5.5,13.8-8.9c4.1-3.1,8.1-6.4,12.3-9.4
		c5.3-3.8,8.6-10.8,11.9-17c1.8-3.5-0.4-6-4.4-5.3c-15.4,2.7-31.4,3.8-44.9,13.2c-3.9,2.8-7.7,5.8-11.2,9.1c-4.4,4-5.2,4-7.1-1.9
		c-2,0-4.2,0.3-6.2-0.1c-3.1-0.6-4.2-4.1-2.1-6c4.1-3.9,8.3-7.9,12.6-11.7c8.3-7.5,18.1-11.2,29-13.4c8.5-1.7,16.7-1.8,25.3-0.9
		c13.6,1.4,24.7,10.7,27.3,24.2c1.3,6.5-4,9.9-8,12.4c-7.3,4.7-15.5,8-23.5,11.6C644.5,698.9,636.2,701.2,628,699.3z"/>
	<path style="fill-rule:evenodd;clip-rule:evenodd;" d="M563.3,685.2c-6-1.3-12.4-1.7-17.7-4.3c-6.9-3.3-12.8-8.5-19.2-12.7
		c-3-2-6-4.2-9.3-5.7c-15.8-7-26.9-18.7-34.3-34.1c-4-8.2-7.2-16.8-10.8-25.2c-1.5-3.3-4.1-6.4-0.1-10.2c-3.8-2.6-6.9-2.6-8.9,0.6
		c-2.1,3.4-4.7,3.5-8.1,3.2c-4.3-0.4-8.7-0.1-12.9-0.9c-5.3-1.1-10.3-3.1-15.5-4.6c-1.9-0.5-5.1-1.6-5.6-0.9
		c-1.2,1.6-1.5,4.2-1.3,6.3c0.1,1.2,1.8,2.3,3,3.2c16.1,13.3,32.2,26.5,48.4,39.7c11.2,9.1,22.4,18.2,33.9,27
		c6.2,4.7,12.4,10,19.5,12.8c10.8,4.2,22.3,6.8,33.7,9.3c4,0.8,9.1,3,13.6-2.1C568.4,686,565.8,685.7,563.3,685.2z M475.5,635.4
		c-11.7-9.6-23.3-19.1-35.1-28.8c1.2-1.1,1.4-1.5,1.7-1.5c6.4-0.2,12.7-0.5,19.1-0.4c1.3,0,3.1,1.2,3.7,2.3
		c3.9,7.5,7.6,15.1,11.3,22.7c0.7,1.4,0.9,2.9,1.3,4.4C476.7,634.5,476.1,635,475.5,635.4z"/>
	<path style="fill-rule:evenodd;clip-rule:evenodd;" d="M962.7,113.6c1.1-6.5-4.4-11.1-12.1-10c1.6,2.8,2.3,6,4.2,7.1
		c3.8,2.1,4.3,5.2,2.7,7.9c-3.3,5.5-7,10.9-11.3,15.6c-3.3,3.7-9.1,3.7-12.3,0.8c-7.4-6.5-10.8-14.6-9.2-24.4c0.8-5,4.3-6.5,8.8-4.3
		c1.2,0.6,2.8,1.4,3.7,1c1-0.4,2.2-3,2.1-3.1c-2.6-2.1-5.3-5.2-8.3-5.6c-2.2-0.3-5.9,2.1-7.4,4.4c-8.5,12.5-3.6,26.5,5.3,37
		c2,2.3,2,3.6,0.8,6c-2.5,5.2-5.1,10-9.7,13.9c-3.8,3.2-2.4,6.5,2.6,7.6c2.7,0.6,5.3,1.1,8.8,1.8c-3.2,5.8-6.6,10.7-3.9,16.9
		c1.4-1.4,2.3-2.9,3-4.5c2.8-7.6,10.5-11.7,18.2-10.1c2.7,0.6,5.6,0.7,8.4,0.5c1.3-0.1,2.4-1.6,3.6-2.4c-1.1-0.9-2-2-3.2-2.5
		c-4-1.6-8.1-3-11.9-4.4c0.9-6.4,4.9-6.7,8.5-6.5c0.5-4.3,2.7-9.1,1.2-11.8c-3.8-6.9,0.1-11.2,2.7-16.5
		C960.1,123.2,961.9,118.4,962.7,113.6z M931.2,159.4c2.6-4,5.3-6.2,9.9-5C939.7,160.7,938.2,161.5,931.2,159.4z"/>
	<path style="fill-rule:evenodd;clip-rule:evenodd;" d="M424,543.7c0.9-3.5,1.3-7.2,2.8-10.5c3.8-8.4,7.6-16.9,12.3-24.9
		c9.7-16.6,21.4-31.6,37.1-43c14.5-10.5,28.9-21.1,43.6-31.2c7.6-5.3,15.8-9.8,23.9-14.4c1.4-0.8,3.6-0.2,5.4-0.3
		c-0.6,1.5-0.8,3.5-2,4.3c-8.9,6.4-18,12.7-27.1,18.9c-17.4,11.9-35,23.5-50.4,38.1c-14.1,13.4-25,29.1-34.7,45.8
		c-2.5,4.3-4.2,9-6.4,13.4c-0.8,1.5-1.9,2.9-2.8,4.3C425.1,544.2,424.5,543.9,424,543.7z"/>
	<path style="fill-rule:evenodd;clip-rule:evenodd;" d="M930.6,192c-3.1,4.7-6.3,9.5-10.3,15.6c5.2-0.3,8.9-0.2,12.3-1
		c1.2-0.3,1.9-2.9,2.9-4.4c0.7-1,1.5-2.5,2.5-2.6c0.9-0.1,2.5,1,2.8,2c1.1,3.5,3.6,3.2,6.4,3c5.1-0.4,10.2-0.6,15.3-0.5
		c1.2,0,2.3,1.7,3.5,2.6c-1.4,0.8-2.7,2.1-4.2,2.4c-5.8,0.9-11.7,1.3-17.5,2.5c-1.4,0.3-2.4,3.1-3.1,4.9c-1.2,2.7-0.2,6.4-5.1,8.3
		c0.4-2.6,0.6-4.4,0.9-6.3c0.7-5.1-0.5-6.4-5.5-6c-5.4,0.4-10.8,0.8-16.2,1.2C914.6,206.1,923.4,194.2,930.6,192z"/>
	<path style="fill-rule:evenodd;clip-rule:evenodd;" d="M774,337.8c4.8-0.8,9.7-2.6,14.3-2.2c10.1,0.9,20.2-0.6,30.2-0.3
		c0.7,0,1.6-0.3,1.9,0c1.3,1.2,2.5,2.6,3.7,3.9c-1.3,0.8-2.5,2.1-3.8,2.2c-6.3,0.4-12.6,0.4-18.9,0.5c-7,0.2-13.9,0.6-20.9,0.4
		c-2.4-0.1-4.7-1.7-7.1-2.6C773.8,339.1,773.9,338.4,774,337.8z"/>
	<path style="fill-rule:evenodd;clip-rule:evenodd;" d="M724.5,339c-0.6-2,0.3-3.8,3.7-3.8c8.1,0,16.3-0.1,24.4,0.2
		c1.1,0,3.1,1.9,3.1,2.9c0,1.1-1.7,3.2-2.8,3.2c-5.3,0.1-10.5-0.1-15.8-0.5C733.3,340.6,729.5,339.8,724.5,339z"/>
	<path style="fill-rule:evenodd;clip-rule:evenodd;" d="M851.1,335c0.4,4.8,0,7-5,5.8c-3.3-0.8-7.1,0.5-10.7,0.7
		c-1.7,0.1-3.4-0.1-5.3-1.1C835.5,332.3,843.7,336.7,851.1,335z"/>
	<path style="fill-rule:evenodd;clip-rule:evenodd;" d="M878.7,334.5c-2.5,6.6-3,6.9-10.5,6.1C867,334.2,868.1,333.5,878.7,334.5z"
		/>
	<path style="fill-rule:evenodd;clip-rule:evenodd;" d="M937.2,184.9c0.7,2.3,1.1,3.8,1.7,5.8c0.8-0.5,1.5-0.9,3.4-2.1
		c-0.3,2.7-0.6,4.6-0.8,6.5c-2.2-1.2-4.8-2.1-6.6-3.8C932.2,188.7,934.3,187,937.2,184.9z"/>
	<path style="fill-rule:evenodd;clip-rule:evenodd;" d="M865.3,336.8c-0.2,1-0.4,2.2-0.6,3.4c-9.6-1.1-9.6-1.1-9.7-2.3
		C858.2,337.5,861.4,337.2,865.3,336.8z"/>
	<path style="fill-rule:evenodd;clip-rule:evenodd;" d="M885.5,334.3c2,0.3,3.9,0.6,5.9,0.9c-0.2,0.9-0.4,2.5-0.6,2.5
		c-1.9-0.1-3.8-0.4-5.8-0.7C885.2,336.1,885.4,335.2,885.5,334.3z"/>
</g>
</svg>
