<?xml version="1.0" encoding="utf-8"?>
<!-- Generator: Adobe Illustrator 16.0.4, SVG Export Plug-In . SVG Version: 6.00 Build 0)  -->
<!DOCTYPE svg PUBLIC "-//W3C//DTD SVG 1.1//EN" "http://www.w3.org/Graphics/SVG/1.1/DTD/svg11.dtd">
<svg version="1.1" id="Layer_1" xmlns="http://www.w3.org/2000/svg" xmlns:xlink="http://www.w3.org/1999/xlink" x="0px" y="0px"
	 width="1000px" height="1000px" viewBox="0 0 1000 1000" style="enable-background:new 0 0 1000 1000;" xml:space="preserve">
<g>
	<path style="fill:#FFFFFF;" d="M414.5,541.6L414.5,541.6c0,0-0.1,0-0.1,0C414.4,541.6,414.4,541.6,414.5,541.6
		C414.5,541.7,414.6,541.7,414.5,541.6c0.2,0.1,0.2,0,0.3,0C414.8,541.6,414.6,541.6,414.5,541.6z M378.7,544.2
		C378.8,544.2,378.8,544.2,378.7,544.2c5.5-0.5,10.8-1.1,16.2-1.6C389.5,543.2,384.1,543.7,378.7,544.2z M378.6,544.2
		C378.6,544.2,378.6,544.2,378.6,544.2c0,0-0.1,0-0.1,0C378.5,544.2,378.5,544.2,378.6,544.2C378.6,544.2,378.6,544.2,378.6,544.2
		c0,0.1,0.1,0.1,0.1,0.1C378.7,544.2,378.6,544.2,378.6,544.2z M374.1,542.8c1.3-0.3,2.7,0,4.4,1.4c0,0,0,0,0,0
		C376.8,542.8,375.4,542.5,374.1,542.8z"/>
	<path style="fill-rule:evenodd;clip-rule:evenodd;" d="M946.2,472.4c-3.3-3.5-6.8-6.8-10.4-10c-2-1.7-4.3-3.1-6.7-4.3
		c-19.9-9.7-41.7-9.5-63-11.1c-21.1-1.5-42.2-0.5-63.1,2.6c-1.1,0.2-2.3-0.7-3.3-1.1c-2.9,1-5.9,2.4-9.1,3.2
		c-3.6,0.9-7.5,0.9-11.1,1.9c-7,2.1-13.9,4.7-20.9,7c-2,0.7-4.1,1.3-6.2,1.8c-7.8,2-15.8,3.6-23.5,6c-5.5,1.7-10.5,4.5-15.9,6.4
		c-7.4,2.6-14.8,5-22.3,7c-11.5,3.1-23.1,5.7-34.6,8.6c-9.8,2.5-19.5,5.1-29.4,7.5c-17.1,4.3-34.1,8.4-51.2,12.7
		c-5.8,1.5-11.5,3.3-17.3,4.8c-11,2.9-22.1,5.7-33.2,8.3c-3.4,0.8-7,0.8-10.3,1.8c-7.1,2.1-14,4.9-21.2,6.7
		c-13.5,3.4-27.3,5.9-40.8,9.4c-11.7,3.1-23.1,7.5-34.8,10.8c-23.8,6.8-48.3,9.2-72.8,11.8c-13.2,1.4-26.5,2-39.7,3
		c0.3-0.5,0.5-1,0.8-1.5c-2.9-2.4-5.5-5.3-8.8-7.1c-4.2-2.3-8.8-4.1-13.4-5.5c-7.5-2.1-15.1-3.8-22.7-5.4c-1.2-0.2-2.8,1.1-4.2,1.7
		c0.7,1.4,1.2,3,2.2,4.2c0.5,0.7,1.7,0.9,2.7,1.2c11.4,3.9,22.9,7.8,34.3,11.8c0.4,0.1,0.7,0.5,2.1,1.6c-4.4,0.6-7.7,1.1-11.1,1.5
		c-22,2.5-44.1,3.2-65.5,9.7c-15,4.5-30.1,8.5-45.4,12c-9.3,2.1-19,3-28.5,3.9c-11.7,1.1-23.6,0.9-35.2,2.7
		c-13.6,2.1-27.2,3.7-40.6,1.4C63,598,53.8,595,45.4,591c-11.2-5.3-15.2-13.7-12.2-23.2c1.6-5,4.2-9.7,6.8-14.3
		c4.1-7.4,8.2-14.9,13.1-21.8c3.7-5.2,8.5-9.6,12.8-14.4c-0.3,2-0.6,3.9-0.8,5.8c0.5,0.9-0.2,1.4-0.7,2c-0.6,0.7-0.9,1.6-2,3.4
		c2.6-0.3,4.4-0.4,6-0.8c16.2-3.8,32.2-4.6,48.6,0.5c16.1,5,32.6,9.3,49.1,13c24.7,5.5,49.8,9,75.1,9.7c3.7,0.1,7.5-1.6,11.5-2.5
		c-3.9-7.2-5.1-7.7-10.4-4.9c-5.6-4-11-7.8-18.3-4.5c-1,0.5-2.6,0-3.8-0.4c-2.6-0.8-5-2.4-7.6-2.8c-3.2-0.5-6.6,0.4-9.8-0.2
		c-8.2-1.5-16.3-3.4-24.4-5.2c-16.1-3.6-32.2-7.1-48.2-11c-10.3-2.5-20.5-5.6-30.7-8.6c-5.7-1.7-11.8-3-16.6-6.2
		c-8.4-5.5-16-5.4-24.1-0.2c-0.5,0.4-1.4,0.3-1.9,0.7c-3.8,2.9-8.1,5.3-11,8.8c-4.5,5.5-8,11.8-11.9,17.7
		c-6.7,10.1-13.3,20.1-20,30.2c0,0-0.1-0.1-0.1-0.1c-1.2,4.6-3.6,9-6.6,12.7c1.5,3.2,2.6,6.6,2.8,10.1c0.3-0.1,0.6-0.3,0.9-0.4
		c2.2,1.6,4.8,2.9,6.6,4.8c8.8,9.3,19.5,14.8,31.8,18.6c16.8,5.2,33.9,6.8,51.2,5.1c16.2-1.5,32.1-5.6,48.5-4.8
		c5.8,0.3,11.8,0.5,17.4-0.7c17.7-3.8,35.3-8,52.8-12.7c14.1-3.8,28.1-7.8,42.8-9.2c23.6-2.2,47.3-4.5,70.9-7
		c16.5-1.7,33.1-3.6,49.5-6c14.4-2.1,28.8-4.6,42.9-7.8c10.5-2.4,20.6-6.6,31-9.3c10.6-2.8,21.5-4.5,32.1-7.1
		c9.8-2.4,19.5-5.3,29.3-7.9c23-6.1,45.9-12.2,68.9-18.1c18-4.6,36.1-8.6,54.1-13c26.4-6.5,53-12.7,79.2-19.8
		c21.5-5.8,42.5-13.1,63.9-19.2c10.6-3,21.6-5.9,32.6-6.7c18-1.4,36.2-2,54.2-1.1c14.2,0.6,28.6,2.5,42.2,6.4
		c16.4,4.7,19.1,8.9,12.1,25.5c-8.1,19.2-19.4,36.7-32.8,52.7c-10.8,12.9-22,25.4-32.5,38.4c-8.1,10.1-16.3,20.2-23,31.2
		c-8.3,13.8-12.9,29.1-12.8,45.4c0,8.1,0.5,16.6,3.1,24.1c5.8,17,20.7,22.9,37.2,19.6c14.8-2.9,27.8-11.1,38.5-21.1
		c8.8-8.2,15-19.2,22-29.2c0.7-1,0.1-4.1-0.9-4.8c-2.2-1.6-4-5.8-7.9-2.9c-1.7,1.3-3.1,3-4.6,4.6c-6.4,7.1-12.3,14.8-19.3,21.3
		c-9.3,8.7-20.9,14-33,17.9c-4.3,1.4-9.4,1.5-12.3-2.8c-3.6-5.2-5.7-11-6.3-17.6c-0.8-7.8-0.1-15.4,1.6-22.9
		c1.5-6.7,2.8-13.7,5.9-19.7c4.1-8,9.5-15.5,15.1-22.6c10.1-12.7,20.9-24.9,31.3-37.3c6.6-7.8,13.4-15.5,19.6-23.5
		c6-7.7,11.5-15.8,17.1-23.7c0.4-0.5,0.9-1.2,0.9-1.8c0-4.3,2.2-7.2,5.5-9.9c1.3-1,1.7-3.2,2.4-4.9c2.1-5,4.6-10,6.2-15.1
		C947.8,484,951.6,478.1,946.2,472.4z M65.9,516.9c0.1,0,0.1,0,0.2-0.1c0,0,0,0,0,0c0.1-0.1,0.1-0.3,0.2-0.4
		c0.2-0.4,0.4-0.8,0.7-1.2c0.1-0.2,0.2-0.3,0.3-0.4c0.1-0.1,0.2-0.3,0.3-0.4c0.1-0.1,0.2-0.3,0.3-0.4c0.1-0.1,0.1-0.2,0.2-0.3
		c0.2-0.2,0.3-0.4,0.5-0.5c0.3-0.3,0.7-0.5,1.1-0.7c0.1,0,0.1,0,0.2-0.1c0.1,0,0.1,0,0.2,0c0,0,0.1,0,0.1,0s0.1,0,0.1,0
		c0.1,0,0.3,0,0.4,0c0,0,0.1,0,0.1,0c0.1,0,0.2,0,0.2,0c0,0,0,0,0,0c0.1,0,0.2,0,0.3,0.1c0.1,0,0.1,0,0.2,0c0.3,0.1,0.5,0.2,0.8,0.3
		c0.1,0,0.2,0.1,0.4,0.2c0.1,0.1,0.3,0.1,0.4,0.2c0.3,0.2,0.7,0.4,1,0.6c0.2,0.1,0.4,0.2,0.5,0.4c0.2,0.1,0.4,0.3,0.6,0.4
		c-0.7,0.2-1.3,0.3-1.9,0.5c-0.7,0.2-1.3,0.3-1.9,0.4c-0.8,0.2-1.5,0.4-2.3,0.6c-0.3,0.1-0.6,0.1-0.9,0.2c-0.4,0.1-0.7,0.2-1,0.2
		c-0.4,0.1-0.7,0.2-1,0.2c0,0,0,0,0,0c0,0.1-0.1,0.1-0.1,0.2c0,0.1-0.1,0.1-0.2,0.2C65.8,517.2,65.9,517,65.9,516.9z"/>
	<path style="fill-rule:evenodd;clip-rule:evenodd;" d="M4,129.2c-0.9,6.5-0.9,13.3-0.3,19.9c0.5,5.8-2.5,11.5,0.5,17.3
		c0.9,1.8-0.2,4.8-0.6,7.2C2.7,179.8,1.9,185.9,1,192V72c0.5,1.5,1.2,3,1.4,4.6c0.9,9.1,1.7,18.3,2.4,27.4c0.1,1.3-0.1,2.6-0.3,3.9
		c-0.2,1.1-1.2,2.3-1,3.3C4.8,117.2,4.8,123,4,129.2z"/>
	<path style="fill-rule:evenodd;clip-rule:evenodd;" d="M2,1c-0.3,9-0.7,18-1,27c0-8.3,0-16.7,0-25C1,2.3,1.7,1.7,2,1z"/>
	<path style="fill-rule:evenodd;clip-rule:evenodd;" d="M1,61V40C2.3,47,4.6,54,1,61z"/>
	<path style="fill-rule:evenodd;clip-rule:evenodd;" d="M989.3,496.8c-2.5,18.4-6.5,35-17.9,49c-10.9,13.3-22.2,26.4-32.8,40
		c-4.6,6-7.8,13-11.8,19.6c-1.1,1.8-2.1,4.2-3.8,4.9c-1.8,0.8-5.1,0.6-6.2-0.5c-1.1-1.3-1.1-4.7-0.1-6.3c4.4-7.2,9-14.3,14-21
		c5.5-7.2,11.6-14,17.3-21c8.1-10,16.9-19.7,24-30.4c7-10.7,9.8-23.2,9.5-36.1c-0.1-2.5-2.1-4.9-3.1-7.4c-0.4-1.1-1.1-2.9-0.7-3.4
		c3.4-3.5,0.8-7.1-1.1-8.9c-6.4-6.2-9.1-15.4-17.2-20.2c-6.7-4-12.8-9.1-19.8-12.2c-4.6-2.1-10.4-1.5-15.6-2.1
		c-4.5-0.5-8.9-1-13.4-1.3c-3.1-0.2-5.8-1.2-4.7-4.6c0.9-2.6,3.9-6.6,5.4-6.4c15,2.5,30.6,2.4,44.4,10.3c15.3,8.8,25.8,21.3,30,38.6
		C987.4,483.9,988.2,490.8,989.3,496.8z"/>
	<path style="fill-rule:evenodd;clip-rule:evenodd;" d="M378.7,544.2c-0.1,0-0.1,0-0.2,0c0,0,0-0.1,0-0.1c0,0,0,0,0,0
		C378.6,544.2,378.7,544.2,378.7,544.2z"/>
	<path style="fill-rule:evenodd;clip-rule:evenodd;" d="M414.4,541.6c-3.4,0.5-6.8,1.1-10.2,1.7c-3.5,0.6-6.9,1.1-10.4,1.5
		c-4.1,0.5-8.2,0.5-12.3,0.5c-0.1,0-0.2,0-0.3,0c-0.1,0-0.1,0-0.2,0c-0.7-0.2-1.4-0.7-2.1-1c0,0,0,0-0.1,0
		c5.4-0.5,10.8-1.1,16.2-1.6c5.4-0.5,10.9-1.1,16.3-1.6c0.2,0,0.5,0,0.7,0c0.1,0,0.2,0,0.3,0c0.2,0,0.5,0.1,0.7,0.1c0,0,0,0,0.1,0
		C413.5,541.4,414,541.5,414.4,541.6z"/>
	<path style="fill-rule:evenodd;clip-rule:evenodd;" d="M414.6,541.7c-0.1,0-0.1,0-0.2-0.1c0,0,0,0,0,0c0,0,0.1,0,0.1,0L414.6,541.7
		L414.6,541.7z"/>
	<path style="fill-rule:evenodd;clip-rule:evenodd;" d="M414.9,541.6c-0.1,0-0.1,0-0.2,0.1l-0.1-0.1
		C414.6,541.6,414.8,541.6,414.9,541.6z"/>
	<path style="fill-rule:evenodd;clip-rule:evenodd;" d="M435.1,540.2c-5.7,0.6-11.4,1.6-17.2,1.6c-0.6,0-1.1,0-1.6,0
		c-0.5,0-0.9,0-1.4-0.1c6.6-1.4,13.2-2.8,19.8-4.2C434.9,538.4,435,539.3,435.1,540.2z"/>
	<path style="fill-rule:evenodd;clip-rule:evenodd;" d="M344.2,548.2h-17.1C333.8,543.1,339,546.1,344.2,548.2z"/>
	<path style="fill-rule:evenodd;clip-rule:evenodd;" d="M453.1,537.6c-2.1,0.2-4.1,0.5-6.2,0.6c-2.4,0.1-4.9,0-7.4,0
		c0-0.2-0.1-0.4-0.1-0.7c4.4-0.7,8.9-1.3,13.3-2C452.9,536.2,453,536.9,453.1,537.6z"/>
	<path style="fill-rule:evenodd;clip-rule:evenodd;" d="M361.9,545.8c0,0.7,0,1.3,0,1.9h-8.5c0-0.8,0-1.6-0.1-2.3
		C356.1,545.5,359,545.7,361.9,545.8z"/>
	<path style="fill-rule:evenodd;clip-rule:evenodd;" d="M378.5,544.2C378.5,544.2,378.5,544.2,378.5,544.2c-3.3,1.1-6.5,2.2-9.7,3.3
		c-0.1-0.5-0.3-1-0.4-1.5c0.3-0.1,0.5-0.3,0.8-0.5c0.4-0.2,0.8-0.5,1.2-0.8c0.3-0.2,0.5-0.4,0.8-0.5c0.8-0.5,1.6-1,2.5-1.3
		c0.1,0,0.3-0.1,0.4-0.1C375.4,542.5,376.8,542.8,378.5,544.2z"/>
	<path style="fill-rule:evenodd;clip-rule:evenodd;" d="M378.6,544.2C378.6,544.2,378.6,544.2,378.6,544.2
		C378.6,544.2,378.6,544.2,378.6,544.2c-0.1,0.1-0.1,0-0.1,0C378.5,544.2,378.6,544.2,378.6,544.2z"/>
	<path style="fill-rule:evenodd;clip-rule:evenodd;fill:#FFFFFF;" d="M65.9,516.9c0.1,0,0.1,0,0.2,0c0,0.1-0.1,0.1-0.1,0.2
		C66,517.1,65.9,516.9,65.9,516.9z"/>
	<path style="fill-rule:evenodd;clip-rule:evenodd;fill:#FFFFFF;" d="M66.3,516.5c0.2-0.4,0.4-0.8,0.7-1.2
		C66.8,515.7,66.5,516.1,66.3,516.5z"/>
	<path style="fill-rule:evenodd;clip-rule:evenodd;fill:#FFFFFF;" d="M68.5,513.2c-0.2,0.2-0.3,0.3-0.5,0.5
		C68.2,513.6,68.4,513.4,68.5,513.2z"/>
	<path style="fill-rule:evenodd;clip-rule:evenodd;fill:#FFFFFF;" d="M68.5,513.2c0.3-0.3,0.7-0.6,1.1-0.7
		C69.2,512.7,68.9,512.9,68.5,513.2z"/>
</g>
</svg>
