<?xml version="1.0" encoding="utf-8"?>
<!-- Generator: Adobe Illustrator 16.0.4, SVG Export Plug-In . SVG Version: 6.00 Build 0)  -->
<!DOCTYPE svg PUBLIC "-//W3C//DTD SVG 1.1//EN" "http://www.w3.org/Graphics/SVG/1.1/DTD/svg11.dtd">
<svg version="1.1" id="Layer_1" xmlns="http://www.w3.org/2000/svg" xmlns:xlink="http://www.w3.org/1999/xlink" x="0px" y="0px"
	 width="102px" height="886px" viewBox="0 0 102 886" style="enable-background:new 0 0 102 886;" xml:space="preserve">
<g>
	<path style="fill:#FFFFFF;" d="M38.9,470c-0.2-1.5-0.4-2.2-0.4-3c-0.1-3.4-0.2-6.9-0.2-10.3c-0.1-4.7-0.7-9.5-0.1-14.1
		c1.5-10.9,1.3-21.7,0.5-32.6c-0.5-7.3-1.1-14.5-1.6-21.8c-0.3-4.8-0.7-9.7-0.8-14.5c-0.1-6.3-0.2-12.7,0.1-19
		c0.2-5.2,1-10.4,1.1-15.6c0.2-12.1,0.2-24.3,0.2-36.4c0-6.8-0.2-13.6-0.4-20.5c-0.1-3.1-0.4-6.2-0.3-9.3c0.2-7-0.5-14.2,1.3-21.1
		c0.1-0.4,0-0.7,0.1-1.1c0.6-7.4,1.2-14.8,1.8-22.2c0.4-5.3,0.8-10.6,1.2-15.9c0.1-0.8-0.3-1.6-0.4-2.5c-0.7,0.8-0.9,1.5-0.9,2.3
		c-0.1,3.2,0.1,6.5-0.2,9.7c-0.8,9.5-1.8,18.9-2.8,28.4c-0.3,3.4-1,6.9-1.1,10.3c-0.1,6.9,0,13.9,0.2,20.8
		c0.4,17.8,0.5,35.7,0.1,53.5c-0.1,7.4-1.2,14.8-1.3,22.2c-0.1,8.8-0.9,17.6,1.1,26.3c0.2,0.8,0.3,1.8,0.2,2.6
		c-1,5.6,0,11.1,0.4,16.7c0.4,4.7,1,9.4,0.8,14.1c-0.3,8.8,0.8,17.6-1,26.3c-0.1,0.4-0.1,0.7,0,1.1c0.2,7.2,0.4,14.3,0.6,21.5
		c0.1,3.2,0,6.4,0.2,9.6c0,0.7,0.8,1.3,1.3,1.9c0.5-0.4,1.5-0.8,1.5-1.3c0.5-3.7,2.5-6.7,4.3-9.8c0.6-1,0.9-2.3,1-3.5
		c0.8-6,1.6-12.1,2-18.1c0.7-9.4,3.4-18,8.6-25.8c1.6-2.5,3.6-3.2,6.4-2.3c2.9,0.8,3.5,0.6,3.9-2.4c0.5-3.2,0.8-6.4,1.1-9.6
		c0.2-1.9-0.8-3.2-2.6-3.5c-2.3-0.4-4.7-0.8-7-0.8c-2.6,0-5.2,0.3-7.8,0.5c-4.5,0.2-6.1-1.2-6.5-5.7s0.1-8.9,1.2-13.3
		c0.8-3,2.7-4.3,5.5-4.9c1-0.2,2-0.1,3-0.1c6.2,0,9.6-3,10.6-9.1c1.1-6.4-0.5-12.6-1.5-18.8c-0.1-0.6-0.7-1.4-1.3-1.7
		c-1.9-0.8-4-1.9-6-1.9c-5.1,0-9.2-1.6-11.9-6.1c0,0-0.2,0-0.4,0c-0.1,0.2-0.4,0.4-0.4,0.6c0.7,3.4,3.9,6.6,7.2,7.1
		c2,0.3,4,0.3,5.9,0.5c4,0.5,5.2,1.7,6.1,5.6c0.2,0.7,0.5,1.4,0.6,2.1c1.1,4.9,1.1,9.8-0.7,14.7c-1,2.8-3,5-7,4.8
		c-2.5-0.1-5.1,0.8-7.6,1.5c-2.2,0.6-3.4,2.3-3.9,4.5c-1.3,6-1.2,12.1-0.1,18.1c0.6,3.1,2,4,5.3,3.9c1,0,2-0.2,3-0.2
		c3.5,0.1,6.9,0.1,10.4,0.3c1.5,0.1,3.2,0.5,3.5,2.3c0.4,2.1,0.6,4.4-0.6,6.6c-0.6-0.1-1.1,0-1.5-0.2c-3.2-1.1-5.5,0.5-7,2.8
		c-2.4,3.7-4.6,7.6-6.4,11.7c-2.9,6.4-3.5,13.4-4,20.3c-0.4,4.9-1.1,9.8-2,14.7C43.2,464.2,41.7,467,38.9,470z M36.5,652
		c-0.4,0-0.7,0-1.1,0c0,2.3,0,4.6,0,6.9c0,1.7,0.1,3.5-0.1,5.2c-1.4,14.3-3.7,28.5-2.8,43c0.5,7.4,0.9,14.9,3.2,22
		c0.4,1.1,0.6,2.3,1,4.1c-1.5-0.8-2.4-1.1-3.2-1.6c-0.8-0.5-1.6-1.2-2.4-1.7c-1.9-1.2-3.8-0.8-4.3,1c-0.4,1.6-0.5,3.5,0,5.1
		c0.6,2.1,0.9,4.6,4,6.3c-0.4-3.2-0.8-5.8-1.1-8.3c0.3-0.2,0.6-0.5,0.9-0.7c3.3,2.1,7.1,3.3,9.7,6.6c3.1,3.8,6.3,7.7,9.7,11.2
		c1.4,1.4,3.5,2.3,5.5,2.9c1.8,0.5,3.1-1,2.3-2.6c-1.5-2.8-1.9-6.1-4.8-8.1c-2.2-1.5-2.7-3.7-2.4-6.5c0.3-3.7-0.2-7.4-0.6-11.1
		c-0.2-1.8-0.9-3.5-3.3-3.6c0.6,5,1.1,9.7,1.6,14.4c0.2,1.5,0.3,3-1.3,3.9c-5.3-2.5-8.5-6.6-9.6-12.2c-2.1-10-3.3-20.1-3.4-30.3
		c0-2.5,0.6-4.9,0.8-7.4c0.4-4.7,0.8-9.4,1-14.1c0.4-7.4,0.7-14.9,0.9-22.3C37,653.4,36.6,652.7,36.5,652z M25.6,754.5
		c4.4,2.4,8.9,4.1,12.4,7.6c1.1,1.1,2.4,2.2,3.5,3.3c3.8,3.6,7.8,6.9,10.6,11.4c4.5,7.1,11.3,12.1,17.3,17.7
		c1.2,1.1,2.6,1.9,4.1,2.6c0.5,0.3,1.7,0.2,2-0.2c0.4-0.6,0.6-1.6,0.3-2.3c-0.4-1-1.1-2-1.9-2.7c-2.3-2.3-4.6-4.5-7-6.7
		c-3.9-3.6-7.9-7.2-11.8-10.8c-2.7-2.5-5.2-5.4-8-7.7c-5.7-4.7-11-10-17.9-13.2c-0.9-0.4-1.6-1.2-2.4-1.7c-0.6-0.4-1.3-0.8-2-1
		c-1.7-0.5-2.9,0.2-3.5,1.9c-0.8,2.5-0.1,4.8,2.6,7C24.6,758,25.1,756.5,25.6,754.5z M43.8,601.8c-1.9,4.8-2.7,9.3-3.4,13.7
		c-0.5,3.2,1,4,4.3,3.5c2.2-0.3,4.5-0.5,6.6-0.1c3.8,0.8,5.1,3.7,3.7,7.4c-1.2,3.3-2.6,6.4-5.1,9c-2.3,2.5-4.5,5.3-5.1,8.9
		c-0.4,2.5-0.3,3.3,1.9,4.6c1.5,0.9,3.1,1.5,4.7,2.1c5.6,2.2,7.6,7.8,4.7,13c-2.3,4-4.7,7.9-7,11.8c-4.7,7.7-4,13.6,0.2,21.3
		c0,0.1,0.4,0,1.1,0c-0.7-2.2-1.2-4.3-1.9-6.3c-1.5-4.1-1.1-8.1,1.2-11.8c2.9-4.9,6-9.7,8.9-14.6c2.4-4,2.1-7.7-0.8-11.4
		c-1.7-2.1-3.9-3.3-6.4-4.2c-4-1.4-5-4.2-2.9-7.9c0.9-1.6,2-3.2,3.3-4.5c3.1-3.3,4.2-7.5,5.8-11.5c0.7-1.8,0.7-3.7-0.8-5.2
		c-2.3-2.4-4.9-4.3-8.5-3.6c-0.8,0.2-1.7,0.3-2.6,0.3c-2.9,0.1-4-0.9-3.5-3.7c0.3-2.1,1.1-4.1,1.7-6.1
		C44.3,605.2,44.9,603.9,43.8,601.8z M71.3,757c-0.1,0.1-0.2,0.2-0.3,0.3c-1.6-1.5-3.2-3-4.7-4.5c-1.2-1.2-2.4-2.5-3.6-3.7
		c-0.8-0.8-1.8-0.9-2.6,0c-1,1-0.8,2.1,0.1,2.9c0.5,0.5,1.3,0.8,1.9,1.2c1.1,0.8,2.2,1.6,3.2,2.5c3.6,3.2,7.2,6.4,10.7,9.7
		c1.3,1.2,2.5,2.4,3.6,3.7c1.6,1.7,3,3.6,4.6,5.3c1.5,1.6,3,1.7,4.1,0.5c1-1.2,0.8-2.5-1-3.7c-2.5-1.7-4.1-4-5.1-6.7
		c-1.6-4.6-5.5-7.3-8.5-10.6c-0.7-0.8-1.8-1.4-3.1-0.1C70.7,754.8,71,755.9,71.3,757z M62.2,265.5c-3.7,1.2-7.4,2.6-9.7,5.8
		c-2,2.8-3.8,5.8-5.5,8.8c-1.8,3.3-1.3,4.2,2.4,5.1c4.2,1,8.4,2,12.6,3.2c3.6,1,5.6,3.7,4.8,7.3c-1.5,6.5-4.7,11.9-11.2,14.8
		c-1.8,0.8-3.9,1.7-4.9,3.2c-3.1,4.3-6,8.8-7.5,14c-0.4,1.3-0.9,2.7,0.1,4.7c0.5-1.7,0.9-2.8,1.1-3.8c0.9-5.1,4.3-8.9,7.2-12.8
		c1.1-1.5,3.2-2.1,4.9-3.1c1.1-0.6,2.4-0.9,3.2-1.7c3.8-4.2,7.4-8.7,8.8-14.4c0.5-1.9,0.3-3.6-0.5-5.4c-1-2.2-2.6-3.6-4.9-4.2
		c-3.8-1-7.7-2-11.5-2.9c-3.1-0.8-4.2-2.1-2.9-4.3c2.2-3.8,4.1-7.9,8.5-10C59.1,268.6,61.1,267.6,62.2,265.5z M35.5,648.4
		c0.2,0,0.4,0,0.6,0c0.1-0.6,0.2-1.1,0.2-1.7c0-4.3,0-8.7,0.1-13c0-5.8-0.1-11.6,0.2-17.5c0.2-4.1,0.9-8.1,1.5-12.2
		c0.6-4,0.6-8.1,2.5-11.9c1.2-2.4,1.4-5.3,2.2-8.6c-2.1,1.8-1.7,4.2-4.1,5.7c-0.1-1.5-0.2-2.6-0.1-3.6c0.2-3.7,0.4-7.4,0.5-11.1
		c0.1-1.6-0.3-3-3-2.7c0.1,1.7,0.1,3.4,0.3,5c0.3,3.8,1.3,7.7,0.8,11.4c-0.5,3.4-0.1,6.6-0.1,9.9c0,1.6,0,3.2-0.2,4.8
		c-1.1,7.6-2.3,15.2-2,22.9c0.2,5.7-0.1,11.4,0,17.1C34.8,644.8,35.2,646.6,35.5,648.4z M50.7,213.9c0,0.9-0.1,1.7,0,2.3
		c0.5,3.2,1,6.3,1.4,9.5c0.6,4.2,1.5,8.2,4.6,11.5c1.5,1.6,2.3,4,3,6.2c0.9,2.5,2.9,5.7,5.8,7.7c-1-2-1.6-3.2-2.2-4.5
		c-0.6-1.2-1.2-2.4-1.8-3.6c-1.2-2.4-2-5.2-3.8-7.1c-4-4.2-4.6-9.4-5-14.7C52.6,218.6,52.3,216.2,50.7,213.9z M44.4,599.1
		c0.4-0.1,0.7-0.2,0.8-0.3c0.3-0.7,0.7-1.4,0.8-2.1c0.9-6.9,1.8-13.8,2.6-20.6c0.1-0.6-0.7-1.3-1.1-2c-0.6,0.5-1.6,0.9-1.8,1.6
		c-0.3,0.8,0,1.9,0.1,2.8c0.2,1.7,0.9,3.4,0.8,5.1c-0.4,3.8-1.2,7.6-1.9,11.3C44.5,596.3,43.4,597.6,44.4,599.1z M40.7,204.2
		c1.5-3.1,2.8-27.9,1.2-30.3C41.5,184,41.1,194.1,40.7,204.2z M52,709.8c-0.8,0.7-1.3,1-1.7,1.4c-2,2.3-4.1,4.6-6.1,7
		c-0.6,0.7-1.3,1.2-1.6,2c-0.7,1.4-0.5,2.6,1,3c2.7-3.1,5.2-5.9,7.7-8.8C52.3,713.2,53,712,52,709.8z M44.6,139
		c-0.4,0-0.7-0.1-1.1-0.1c-0.1,3.3-0.2,6.6-0.2,9.9c0,2.2,0,4.4,0,6.6c0,1.1-0.2,2.3,1.2,3.8C44.6,152,44.6,145.5,44.6,139z
		 M47.5,28.4c-1,3.8-1.1,12-0.1,14.1C48.5,40.4,48.5,32,47.5,28.4z M39.6,561.2c0.2,0,0.3,0,0.5-0.1c-0.2-3.6-0.4-7.3-0.6-10.9
		c-0.1-1.3-0.3-2.6-0.4-3.9c-0.4,4.7-0.2,9.3,0.1,14C39.2,560.6,39.5,560.9,39.6,561.2z M50,65.2c-1-0.9-1.5-1.6-2.1-1.8
		c-1.2-0.3-2.9,1.3-2.6,2.4c0.2,0.7,1.4,1.8,1.8,1.7C48,67.1,48.8,66.2,50,65.2z M44,131.6c0.3,0,0.6-0.1,0.9-0.1
		c-0.2-3.4-0.4-6.8-0.6-10.2c-0.6,2.4-0.6,4.7-0.5,7.1C43.8,129.4,43.9,130.5,44,131.6z M44.1,162.1c-0.3,0-0.6,0-0.9,0
		c-0.2,2.7-1.1,5.5,0.4,8.3C43.8,167.6,44,164.9,44.1,162.1z M35.6,519.9c0-3-1.6-5.1-3.6-6.9c0.5,1.5,1.1,2.9,1.9,4.3
		C34.4,518.2,35,519,35.6,519.9z M46.8,21.4c0.4,0,0.7,0,1.1,0c-0.2-2.8-0.4-5.7-0.6-8.5c-0.2,0-0.4,0-0.5,0
		C46.8,15.7,46.8,18.6,46.8,21.4z M38.2,542.1c0.3,0,0.5,0,0.8-0.1c-0.1-1.9-0.3-3.7-0.4-5.6c-0.2,0-0.5,0-0.7,0.1
		C38,538.3,38.1,540.2,38.2,542.1z M51.8,141c0.3-0.1,0.5-0.1,0.8-0.2c-0.2-1.2-0.4-2.4-0.6-3.6c-0.2,0-0.5,0.1-0.7,0.1
		C51.5,138.6,51.7,139.8,51.8,141z M53.2,180c-0.2,0-0.3,0-0.5,0c0,1.1,0,2.1,0,3.2c0.2,0,0.3,0,0.5,0C53.2,182.1,53.2,181,53.2,180
		z M39.1,568.7c0.5-1.1,0.7-1.4,0.7-1.7c0-0.3-0.3-0.7-0.4-1c-0.2,0.1-0.4,0.1-0.6,0.2C38.9,566.8,39,567.3,39.1,568.7z M12.6,314.9
		c0.2-0.6,0.4-0.9,0.3-1.2c-0.1-0.2-0.5-0.3-0.7-0.4c-0.1,0.2-0.3,0.4-0.2,0.6C12,314.2,12.3,314.4,12.6,314.9z M52.2,194
		c0.1,0,0.2,0,0.3,0c0-0.8,0-1.6,0-2.3c-0.1,0-0.2,0-0.3,0C52.2,192.5,52.2,193.3,52.2,194z M45.5,81c0-0.1-0.1-0.2-0.2-0.3
		c-0.1,0.1-0.3,0.3-0.4,0.4c0,0,0.1,0.2,0.2,0.3C45.2,81.2,45.4,81.1,45.5,81z M44.1,107.8c-0.3,0.3-0.5,0.4-0.6,0.6
		c0.2,0.2,0.3,0.4,0.5,0.5C44.1,108.5,44.1,108.2,44.1,107.8z M48.9,842.8C48.9,842.8,48.9,842.8,48.9,842.8
		C48.9,842.8,48.9,842.9,48.9,842.8C48.9,842.9,48.9,842.9,48.9,842.8C48.9,842.9,48.9,842.9,48.9,842.8z M59.6,851.9
		c-1-1.8-2.3-3.5-3.6-5.1c-0.2-0.2-0.6-0.3-1-0.4c-0.6,0.7-1.2,1.4-1.9,2.1c-0.1-0.1-0.3-0.2-0.4-0.3c-0.2-0.2-0.5-0.4-0.7-0.5
		c-0.7-0.5-1.2-1.1-1.7-1.8c-0.1-0.2-0.2-0.3-0.3-0.5c-0.3-0.4-0.5-0.9-0.7-1.4c-0.1-0.1-0.1-0.2-0.1-0.4c0,0,0,0,0,0
		c-0.1-0.2-0.2-0.5-0.2-0.8c-0.1,0.1-0.3,0.1-0.4,0.2c-0.1,0.1-0.3,0.1-0.4,0.2c-0.2,0.1-0.4,0.3-0.6,0.5c-0.2,0.2-0.3,0.4-0.4,0.6
		c0,0.1-0.1,0.2-0.1,0.3c-0.1,0.5,0,1,0.3,1.6c2.1,4,5.4,6.7,9.4,8.6c0.7,0.3,2.1,0.1,2.6-0.4C59.8,854,59.9,852.6,59.6,851.9z
		 M66.2,843.1c-0.4-1.4-1.3-2.7-2.2-3.8c-1.8-2.2-3.7-4.4-5.6-6.5c-5-5.6-10.1-11.2-15.1-16.9c-3.3-3.8-6.7-7.7-9.5-11.9
		c-3.7-5.6-8.3-10.2-12.9-14.9c-0.9-1-1.8-2.3-3.4-1.6c-1.7,0.7-1.6,2.4-1.5,3.9c0.1,1.7,0.4,3.5,0.8,5.1c0.7,2.9,1.5,5.8,2.2,8.7
		c0.2,1,0.3,2.1,0.5,3.3c-1.4,0.2-2.5,0-3.3,0.4c-0.9,0.4-2.1,1.3-2.2,2.1c-0.4,3.7,0.1,7.2,2.4,10.2c0.3,0.5,1.4,0.4,2.2,0.7
		c0.3-3.3-2-5.9-0.8-9.1c1,0.5,1.9,0.9,2.6,1.5c3.9,3.3,7.9,6.4,11.5,10c4.2,4.1,8,8.4,11.9,12.8c1.7,1.9,3.3,3.9,4.9,5.9
		c0.1,0,0.1,0.1,0.2,0.1c0.1,0.1,0.3,0.2,0.4,0.2c0.5,0.4,1,0.8,1.5,1c0.1,0.1,0.3,0.2,0.4,0.2c0.1,0,0.2,0,0.2,0.1
		c0.1,0,0.1,0,0.2,0.1c0.5,0.1,1,0.1,1.6-0.1c0.1-2.2-1.4-3.3-2.5-4.5c-4.1-4.5-8.3-8.9-12.5-13.3c-3-3.1-6.2-6-9.2-9.1
		c-1.5-1.6-3-3.3-4.1-5.1c-0.8-1.3-1.3-2.9-1.7-4.5c-1.3-4.3-2.5-8.6-3.7-12.9c-0.2-0.7,0.2-1.5,0.3-2.5c0.7,0.2,1.1,0.3,1.3,0.5
		c2.9,3.2,5.8,6.4,8.7,9.6c0.8,0.9,1.4,2,2.1,3c2.2,3.1,4.2,6.4,6.6,9.4c3.4,4.2,7.1,8.2,10.7,12.4c0.5,0.6,1.1,1.4,1.3,2.2
		c0.5,2.2,1.9,3.7,3.3,5.3c1.9,2.1,4,4,5.1,6.8c0.6,1.5,2.1,2.7,3.5,3.8c0.6,0.5,2.2,0.6,2.6,0.2C65.9,845.3,66.4,843.9,66.2,843.1z
		 M48.6,850.7c-0.6-0.9-1.5-1.7-2.3-2.4c-0.8-0.7-2-1.2-2.7-2c-4-4.4-7.8-9-12-13.2c-2.9-3-6.3-5.5-9.6-8c-0.7-0.5-2.3-0.7-3-0.2
		c-0.6,0.4-0.9,1.9-0.8,2.9c0.3,3.7,2.7,6.6,4.5,9.6c0.9,1.5,1.2,2.6,0.5,4.1c-0.4,0.9-0.5,1.9-0.9,2.8c-0.9,1.9-0.6,3.6,0.4,5.3
		c1.7,2.9,1.8,3.1-0.4,5.4c-2.2,2.5-4.7,4.7-7.2,6.9c-1.4,1.2-1.6,2.3-0.7,3.8c1.6,2.6,3.9,4.2,7,4.2c2.7,0,5.4-0.2,8.1-0.4
		c2.6-0.3,5.2-0.6,7.7-1.1c2.4-0.5,3.2-2.5,1.6-4.1c-1.5-1.5-3.2-2.8-5-3.9c-0.8-0.5-2-0.3-3.7-0.5c0.5,2,0.8,3.2,1,4.2
		c-4.2,2.2-9.4,2.4-12.9,0.1c3.9-3.3,7.4-6.9,11.5-9.7c1.8-1.2,3.9-2,5.5-3.5c2.1-1.8,3-1.8,5.2,0c1.5,1.1,2.9,2.3,4.4,3.4
		c1.2,0.9,2.5,1.3,3.7,0.2C49.7,853.6,49.5,852.1,48.6,850.7z M26.4,846.5c1.7,0,2.4,1,3.8,2.5C27.7,849,26.7,848.4,26.4,846.5z
		 M32.7,844.9c-3.7-3.4-6.6-7.5-8.8-12c-0.1-0.2,0-0.5,0-1.8c5.4,4.8,9,10.1,13.9,14.8C35.4,847,33.9,846,32.7,844.9z M70.7,823.8
		c-0.8-1.1-1.4-2.3-2.1-3.5c-2-3.4-3.7-7.1-6.1-10.2c-5.3-6.9-10.8-13.6-16.4-20.2c-2.1-2.5-4.3-4.8-6.8-6.9
		c-6-5-12.1-9.8-18.2-14.6c-1-0.8-2-1.7-3.3-1c-1.5,0.8-1.5,2.1-1.2,3.6c1.4,5.7,3.6,11.1,6.2,16.3c0.3,0.6,1.1,1,1.6,1.5
		c0.2-0.2,0.5-0.3,0.8-0.4c-0.4-1.5-0.8-3-1.3-4.4c-1.1-3.1-2.3-6.3-3.4-9.4c-0.2-0.7,0-1.5,0-2.7c0.8,0.4,1.3,0.5,1.6,0.9
		c4.5,4.6,10.2,7.8,14.6,12.6c2.8,3,6.6,5.2,9.1,8.7c2.1,2.9,5.2,5.2,5.6,9c0.2,2.1,0.8,3,2.9,3.6c3,1,5,3.3,5.8,6.5
		c-1.1-1.1-2.2-2.2-3.3-3.3c-0.2,0.2-0.4,0.3-0.7,0.5c0.1,0.7,0.1,1.5,0.4,2c4.2,5.4,8.6,10.8,12.8,16.1
		C72.2,826.2,72.2,826,70.7,823.8z"/>
	<path style="fill-rule:evenodd;clip-rule:evenodd;" d="M38.9,470c2.8-3,4.3-5.8,4.9-9c0.9-4.9,1.6-9.8,2-14.7
		c0.5-7,1.1-13.9,4-20.3c1.8-4,4-8,6.4-11.7c1.5-2.3,3.8-3.9,7-2.8c0.4,0.2,0.9,0.1,1.5,0.2c1.2-2.2,1-4.4,0.6-6.6
		c-0.3-1.7-2-2.2-3.5-2.3c-3.4-0.2-6.9-0.3-10.4-0.3c-1,0-2,0.1-3,0.2c-3.3,0.1-4.7-0.8-5.3-3.9c-1.1-6-1.2-12.1,0.1-18.1
		c0.5-2.3,1.7-3.9,3.9-4.5c2.5-0.7,5.1-1.6,7.6-1.5c4,0.2,6-2,7-4.8c1.8-4.8,1.7-9.7,0.7-14.7c-0.2-0.7-0.5-1.4-0.6-2.1
		c-0.9-3.9-2.1-5.1-6.1-5.6c-2-0.2-4-0.2-5.9-0.5c-3.4-0.5-6.6-3.7-7.2-7.1c0-0.2,0.2-0.4,0.4-0.6c0.1,0,0.3-0.1,0.4,0
		c2.7,4.5,6.7,6.1,11.9,6.1c2,0,4,1.1,6,1.9c0.6,0.2,1.2,1,1.3,1.7c1,6.2,2.5,12.4,1.5,18.8c-1,6.1-4.4,9.1-10.6,9.1
		c-1,0-2-0.1-3,0.1c-2.7,0.6-4.7,1.9-5.5,4.9c-1.1,4.4-1.5,8.8-1.2,13.3s2,5.9,6.5,5.7c2.6-0.1,5.2-0.5,7.8-0.5c2.3,0,4.7,0.4,7,0.8
		c1.9,0.3,2.8,1.6,2.6,3.5c-0.3,3.2-0.6,6.4-1.1,9.6c-0.5,3-1.1,3.3-3.9,2.4c-2.8-0.8-4.7-0.2-6.4,2.3c-5.1,7.8-7.9,16.5-8.6,25.8
		c-0.4,6.1-1.3,12.1-2,18.1c-0.2,1.2-0.4,2.5-1,3.5c-1.8,3.1-3.8,6.1-4.3,9.8c-0.1,0.5-1,0.9-1.5,1.3c-0.5-0.6-1.3-1.3-1.3-1.9
		c-0.2-3.2-0.1-6.4-0.2-9.6c-0.2-7.2-0.4-14.3-0.6-21.5c0-0.4,0-0.8,0-1.1c1.8-8.7,0.8-17.5,1-26.3c0.1-4.7-0.5-9.4-0.8-14.1
		c-0.4-5.5-1.3-11.1-0.4-16.7c0.1-0.8,0-1.7-0.2-2.6c-1.9-8.7-1.2-17.5-1.1-26.3c0.1-7.4,1.2-14.8,1.3-22.2
		c0.4-17.8,0.2-35.7-0.1-53.5c-0.1-6.9-0.3-13.9-0.2-20.8c0.1-3.5,0.7-6.9,1.1-10.3c0.9-9.5,1.9-18.9,2.8-28.4
		c0.3-3.2,0.1-6.4,0.2-9.7c0-0.7,0.2-1.4,0.9-2.3c0.1,0.8,0.5,1.7,0.4,2.5c-0.4,5.3-0.8,10.6-1.2,15.9c-0.6,7.4-1.2,14.8-1.8,22.2
		c0,0.4,0,0.8-0.1,1.1c-1.8,7-1.1,14.1-1.3,21.1c-0.1,3.1,0.3,6.2,0.3,9.3c0.2,6.8,0.4,13.6,0.4,20.5c0,12.1,0,24.3-0.2,36.4
		c-0.1,5.2-1,10.4-1.1,15.6c-0.2,6.3-0.2,12.7-0.1,19c0.1,4.8,0.5,9.7,0.8,14.5c0.5,7.3,1,14.5,1.6,21.8c0.8,10.9,0.9,21.7-0.5,32.6
		c-0.6,4.6,0,9.4,0.1,14.1c0.1,3.4,0.1,6.9,0.2,10.3C38.5,467.8,38.7,468.5,38.9,470z M63.1,413c-0.3-0.2-0.6-0.4-0.9-0.4
		c-0.2,0-0.4,0.4-0.5,0.7c0.3,0.1,0.7,0.2,1,0.3C62.8,413.5,62.9,413.2,63.1,413z"/>
	<path style="fill-rule:evenodd;clip-rule:evenodd;" d="M48.6,850.7c-0.6-0.9-1.5-1.7-2.3-2.4c-0.8-0.7-2-1.2-2.7-2
		c-4-4.4-7.8-9-12-13.2c-2.9-3-6.3-5.5-9.6-8c-0.7-0.5-2.3-0.7-3-0.2c-0.6,0.4-0.9,1.9-0.8,2.9c0.3,3.7,2.7,6.6,4.5,9.6
		c0.9,1.5,1.2,2.6,0.5,4.1c-0.4,0.9-0.5,1.9-0.9,2.8c-0.9,1.9-0.6,3.6,0.4,5.3c1.7,2.9,1.8,3.1-0.4,5.4c-2.2,2.5-4.7,4.7-7.2,6.9
		c-1.4,1.2-1.6,2.3-0.7,3.8c1.6,2.6,3.9,4.2,7,4.2c2.7,0,5.4-0.2,8.1-0.4c2.6-0.3,5.2-0.6,7.7-1.1c2.4-0.5,3.2-2.5,1.6-4.1
		c-1.5-1.5-3.2-2.8-5-3.9c-0.8-0.5-2-0.3-3.7-0.5c0.5,2,0.8,3.2,1,4.2c-4.2,2.2-9.4,2.4-12.9,0.1c3.9-3.3,7.4-6.9,11.5-9.7
		c1.8-1.2,3.9-2,5.5-3.5c2.1-1.8,3-1.8,5.2,0c1.5,1.1,2.9,2.3,4.4,3.4c1.2,0.9,2.5,1.3,3.7,0.2C49.7,853.6,49.5,852.1,48.6,850.7z
		 M26.4,846.5c1.7,0,2.4,1,3.8,2.5C27.7,849,26.7,848.4,26.4,846.5z M32.7,844.9c-3.7-3.4-6.6-7.5-8.8-12c-0.1-0.2,0-0.5,0-1.8
		c5.4,4.8,9,10.1,13.9,14.8C35.4,847,33.9,846,32.7,844.9z"/>
	<path style="fill-rule:evenodd;clip-rule:evenodd;" d="M48.9,842.9c-1.6-2-3.2-4-5-6c-3.9-4.3-7.8-8.7-11.9-12.7
		c-3.6-3.5-7.6-6.7-11.5-10c-0.7-0.6-1.6-0.9-2.7-1.5c-1.2,3.2,1,5.8,0.8,9.1c-0.9-0.2-1.9-0.2-2.3-0.6c-2.3-3-2.8-6.6-2.4-10.2
		c0.1-0.8,1.3-1.7,2.2-2.1c0.8-0.4,1.9-0.3,3.3-0.4c-0.2-1.2-0.2-2.3-0.5-3.3c-0.7-2.9-1.5-5.8-2.2-8.7c-0.4-1.7-0.6-3.4-0.8-5.1
		c-0.1-1.5-0.2-3.1,1.5-3.9c1.6-0.7,2.5,0.7,3.4,1.6c4.5,4.7,9.2,9.3,12.9,14.9c2.8,4.2,6.2,8.1,9.5,11.9
		c4.9,5.7,10.1,11.3,15.1,16.9c1.9,2.1,3.8,4.3,5.6,6.5c0.9,1.2,1.8,2.5,2.2,3.8c0.2,0.8-0.3,2.2-1,2.9c-0.4,0.4-2,0.3-2.6-0.2
		c-1.4-1-2.9-2.3-3.5-3.8c-1.1-2.8-3.2-4.7-5.1-6.8c-1.4-1.6-2.8-3.1-3.3-5.3c-0.2-0.8-0.7-1.6-1.3-2.2c-3.5-4.1-7.3-8.2-10.7-12.4
		c-2.4-3-4.4-6.3-6.6-9.4c-0.7-1-1.3-2.1-2.1-3c-2.9-3.2-5.8-6.4-8.7-9.6c-0.2-0.2-0.6-0.3-1.3-0.5c-0.1,0.9-0.5,1.8-0.3,2.5
		c1.2,4.3,2.4,8.6,3.7,12.9c0.5,1.5,0.9,3.1,1.7,4.5c1.2,1.8,2.6,3.5,4.2,5.1c3,3.1,6.2,6,9.2,9.1c4.2,4.4,8.4,8.8,12.5,13.3
		c1.1,1.2,2.6,2.3,2.5,4.5C51.4,845.2,50.3,843.6,48.9,842.9L48.9,842.9z"/>
	<path style="fill-rule:evenodd;clip-rule:evenodd;" d="M36.5,652c0.2,0.7,0.5,1.4,0.5,2.1c-0.3,7.4-0.5,14.9-0.9,22.3
		c-0.2,4.7-0.6,9.4-1,14.1c-0.2,2.5-0.8,4.9-0.8,7.4c0.1,10.2,1.3,20.3,3.4,30.3c1.2,5.5,4.3,9.6,9.6,12.2c1.6-0.9,1.4-2.4,1.3-3.9
		c-0.6-4.7-1.1-9.5-1.6-14.4c2.3,0,3.1,1.8,3.3,3.6c0.4,3.7,1,7.5,0.6,11.1c-0.3,2.8,0.2,5,2.4,6.5c2.9,2,3.4,5.4,4.8,8.1
		c0.8,1.5-0.5,3.1-2.3,2.6c-2-0.6-4.1-1.5-5.5-2.9c-3.5-3.5-6.6-7.4-9.7-11.2c-2.7-3.3-6.4-4.5-9.7-6.6c-0.3,0.2-0.6,0.5-0.9,0.7
		c0.3,2.5,0.7,5.1,1.1,8.3c-3-1.7-3.3-4.2-4-6.3c-0.5-1.5-0.4-3.5,0-5.1c0.5-1.9,2.3-2.2,4.3-1c0.8,0.5,1.6,1.2,2.4,1.7
		c0.8,0.5,1.7,0.9,3.2,1.6c-0.4-1.8-0.6-3-1-4.1c-2.3-7.2-2.7-14.6-3.2-22c-1-14.5,1.4-28.7,2.8-43c0.2-1.7,0.1-3.5,0.1-5.2
		c0-2.3,0-4.6,0-6.9C35.7,652,36.1,652,36.5,652z"/>
	<path style="fill-rule:evenodd;clip-rule:evenodd;" d="M56.7,809.7c1.1,1.1,2.2,2.2,3.3,3.3c-0.8-3.3-2.8-5.6-5.8-6.5
		c-2-0.6-2.6-1.5-2.9-3.6c-0.4-3.8-3.5-6.1-5.6-9c-2.5-3.4-6.3-5.6-9.1-8.7c-4.4-4.8-10.1-8-14.6-12.6c-0.3-0.3-0.8-0.4-1.6-0.9
		c0,1.1-0.2,2,0,2.7c1.1,3.2,2.3,6.3,3.4,9.4c0.5,1.4,0.9,2.9,1.3,4.4c-0.3,0.1-0.5,0.3-0.8,0.4c-0.6-0.5-1.3-0.9-1.6-1.5
		c-2.6-5.2-4.8-10.6-6.2-16.3c-0.4-1.4-0.3-2.8,1.2-3.6c1.3-0.7,2.3,0.2,3.3,1c6.1,4.9,12.2,9.7,18.2,14.7c2.5,2.1,4.7,4.4,6.8,6.9
		c5.6,6.6,11.1,13.3,16.4,20.2c2.4,3.1,4.1,6.8,6.1,10.2c0.7,1.2,1.4,2.3,2.1,3.5c1.5,2.3,1.5,2.4-1.4,4.5
		c-4.3-5.4-8.6-10.7-12.8-16.1c-0.4-0.5-0.3-1.3-0.4-2C56.2,810,56.4,809.9,56.7,809.7z"/>
	<path style="fill-rule:evenodd;clip-rule:evenodd;" d="M25.6,754.5c-0.6,2-1,3.5-1.5,5.1c-2.6-2.2-3.4-4.5-2.6-7
		c0.6-1.7,1.7-2.4,3.5-1.9c0.7,0.2,1.4,0.6,2,1c0.8,0.5,1.6,1.3,2.4,1.7c6.8,3.2,12.1,8.5,17.9,13.2c2.9,2.3,5.3,5.2,8,7.7
		c3.9,3.6,7.9,7.2,11.8,10.8c2.4,2.2,4.7,4.4,7,6.7c0.8,0.8,1.5,1.7,1.9,2.7c0.2,0.7,0.1,1.7-0.3,2.3c-0.3,0.4-1.5,0.4-2,0.2
		c-1.4-0.7-2.9-1.5-4.1-2.6c-6.1-5.6-12.8-10.6-17.3-17.7c-2.8-4.5-6.8-7.8-10.6-11.4c-1.2-1.1-2.4-2.2-3.5-3.3
		C34.6,758.7,30.1,757,25.6,754.5z"/>
	<path style="fill-rule:evenodd;clip-rule:evenodd;" d="M43.8,601.8c1.1,2.1,0.5,3.4,0.1,4.8c-0.5,2-1.3,4-1.7,6.1
		c-0.5,2.8,0.6,3.9,3.5,3.7c0.9,0,1.7-0.1,2.6-0.3c3.7-0.8,6.2,1.2,8.5,3.6c1.5,1.5,1.5,3.5,0.8,5.2c-1.6,4-2.7,8.3-5.8,11.5
		c-1.3,1.3-2.4,2.9-3.3,4.5c-2.1,3.7-1.1,6.5,2.9,7.9c2.5,0.9,4.8,2.1,6.4,4.2c2.9,3.6,3.2,7.4,0.8,11.4c-3,4.9-6,9.7-8.9,14.6
		c-2.2,3.7-2.6,7.7-1.2,11.8c0.7,2.1,1.3,4.2,1.9,6.3c-0.6,0-1,0.1-1.1,0c-4.2-7.7-4.9-13.6-0.2-21.3c2.4-3.9,4.8-7.8,7-11.8
		c2.9-5.2,0.8-10.8-4.7-13c-1.6-0.6-3.3-1.2-4.7-2.1c-2.2-1.3-2.4-2.1-1.9-4.6c0.6-3.6,2.8-6.3,5.1-8.9c2.4-2.6,3.9-5.7,5.1-9
		c1.3-3.7,0-6.6-3.7-7.4c-2.1-0.5-4.4-0.2-6.6,0.1c-3.3,0.4-4.8-0.4-4.3-3.5C41.1,611.1,41.9,606.6,43.8,601.8z"/>
	<path style="fill-rule:evenodd;clip-rule:evenodd;" d="M71.3,757c-0.3-1.1-0.7-2.2-1-3.2c1.3-1.3,2.4-0.7,3.1,0.1
		c3.1,3.3,6.9,6,8.5,10.6c1,2.7,2.6,5,5.1,6.7c1.8,1.2,2,2.6,1,3.7c-1.1,1.3-2.6,1.2-4.1-0.5c-1.6-1.7-3-3.6-4.6-5.3
		c-1.2-1.3-2.4-2.5-3.6-3.7c-3.5-3.3-7.1-6.5-10.7-9.7c-1-0.9-2.1-1.7-3.2-2.5c-0.6-0.4-1.3-0.7-1.9-1.2c-0.9-0.9-1.1-1.9-0.1-2.9
		c0.9-0.9,1.8-0.7,2.6,0c1.3,1.2,2.4,2.5,3.6,3.7c1.5,1.5,3.1,3,4.7,4.5C71.1,757.2,71.2,757.1,71.3,757z"/>
	<path style="fill-rule:evenodd;clip-rule:evenodd;" d="M62.2,265.5c-1.1,2.2-3.1,3.2-5.1,4.1c-4.4,2-6.3,6.1-8.5,10
		c-1.2,2.2-0.1,3.5,2.9,4.3c3.8,1,7.7,1.9,11.5,2.9c2.3,0.6,3.9,2.1,4.9,4.2c0.8,1.8,1,3.4,0.5,5.4c-1.4,5.8-4.9,10.2-8.8,14.4
		c-0.8,0.8-2.1,1.1-3.2,1.7c-1.7,1-3.9,1.7-4.9,3.1c-2.9,4-6.3,7.7-7.2,12.8c-0.2,1.1-0.6,2.1-1.1,3.8c-1.1-2-0.5-3.5-0.1-4.7
		c1.5-5.2,4.4-9.7,7.5-14c1.1-1.5,3.1-2.4,4.9-3.2c6.5-2.9,9.7-8.3,11.2-14.8c0.8-3.6-1.1-6.2-4.8-7.3c-4.2-1.2-8.4-2.1-12.6-3.2
		c-3.8-0.9-4.3-1.8-2.4-5.1c1.7-3,3.5-6,5.5-8.8C54.8,268,58.5,266.7,62.2,265.5z"/>
	<path style="fill-rule:evenodd;clip-rule:evenodd;" d="M35.5,648.4c-0.3-1.8-0.7-3.6-0.7-5.4c-0.1-5.7,0.2-11.4,0-17.1
		c-0.3-7.7,0.9-15.3,2-22.9c0.2-1.6,0.2-3.2,0.2-4.8c0-3.3-0.4-6.5,0.1-9.9c0.5-3.7-0.5-7.6-0.8-11.4c-0.1-1.7-0.2-3.3-0.3-5
		c2.7-0.3,3.1,1.1,3,2.7c-0.1,3.7-0.4,7.4-0.5,11.1c0,1,0.1,2.1,0.1,3.6c2.4-1.5,2-3.9,4.1-5.7c-0.8,3.3-1,6.3-2.2,8.6
		c-2,3.8-1.9,7.9-2.5,11.9c-0.6,4-1.3,8.1-1.5,12.2c-0.3,5.8-0.1,11.6-0.2,17.5c0,4.3,0,8.7-0.1,13c0,0.6-0.1,1.1-0.2,1.7
		C35.9,648.4,35.7,648.4,35.5,648.4z"/>
	<path style="fill-rule:evenodd;clip-rule:evenodd;" d="M48.8,842.8c0.6,2.4,1.9,4.2,4.3,5.7c0.6-0.7,1.2-1.4,1.9-2.1
		c0.4,0.1,0.8,0.2,1,0.4c1.2,1.7,2.6,3.3,3.6,5.1c0.4,0.7,0.2,2.1-0.3,2.7c-0.5,0.5-2,0.8-2.7,0.4c-4-1.9-7.3-4.7-9.4-8.6
		C46.4,844.7,47.3,843.5,48.8,842.8C48.9,842.9,48.8,842.8,48.8,842.8z"/>
	<path style="fill-rule:evenodd;clip-rule:evenodd;" d="M50.7,213.9c1.6,2.3,1.9,4.7,2.1,7.2c0.4,5.3,1.1,10.5,5,14.7
		c1.8,1.9,2.6,4.7,3.8,7.1c0.6,1.2,1.2,2.4,1.8,3.6c0.6,1.3,1.3,2.5,2.2,4.5c-2.9-1.9-4.9-5.2-5.8-7.7c-0.8-2.2-1.5-4.6-3-6.2
		c-3.1-3.3-4-7.3-4.6-11.5c-0.5-3.2-1-6.3-1.4-9.5C50.6,215.6,50.7,214.8,50.7,213.9z"/>
	<path style="fill-rule:evenodd;clip-rule:evenodd;" d="M44.4,599.1c-1-1.5,0.1-2.8,0.3-4.2c0.6-3.8,1.5-7.5,1.9-11.3
		c0.2-1.6-0.5-3.4-0.8-5.1c-0.1-0.9-0.4-2-0.1-2.8c0.2-0.7,1.1-1.1,1.8-1.6c0.4,0.7,1.2,1.4,1.1,2c-0.8,6.9-1.7,13.8-2.6,20.6
		c-0.1,0.7-0.5,1.4-0.8,2.1C45.1,598.9,44.8,598.9,44.4,599.1z"/>
	<path style="fill-rule:evenodd;clip-rule:evenodd;" d="M40.7,204.2c0.4-10.1,0.8-20.2,1.2-30.3C43.5,176.3,42.2,201.1,40.7,204.2z"
		/>
	<path style="fill-rule:evenodd;clip-rule:evenodd;" d="M52,709.8c1,2.2,0.3,3.4-0.7,4.6c-2.5,2.9-5,5.7-7.7,8.8
		c-1.5-0.4-1.7-1.6-1-3c0.4-0.8,1.1-1.3,1.6-2c2-2.3,4-4.7,6.1-7C50.7,710.8,51.2,710.5,52,709.8z"/>
	<path style="fill-rule:evenodd;clip-rule:evenodd;" d="M44.6,139c0,6.5,0,12.9,0,20.1c-1.4-1.5-1.2-2.6-1.2-3.8
		c0-2.2-0.1-4.4,0-6.6c0-3.3,0.1-6.6,0.2-9.9C43.9,139,44.3,139,44.6,139z"/>
	<path style="fill-rule:evenodd;clip-rule:evenodd;" d="M47.5,28.4c1,3.6,1,12-0.1,14.1C46.4,40.4,46.5,32.2,47.5,28.4z"/>
	<path style="fill-rule:evenodd;clip-rule:evenodd;" d="M39.6,561.2c-0.1-0.3-0.4-0.6-0.4-0.9c-0.3-4.6-0.6-9.3-0.1-14
		c0.1,1.3,0.3,2.6,0.4,3.9c0.2,3.6,0.4,7.3,0.6,10.9C39.9,561.2,39.8,561.2,39.6,561.2z"/>
	<path style="fill-rule:evenodd;clip-rule:evenodd;" d="M50,65.2c-1.2,1-2,1.9-2.9,2.2c-0.4,0.1-1.6-1-1.8-1.7
		c-0.3-1.1,1.4-2.7,2.6-2.4C48.5,63.6,49,64.3,50,65.2z"/>
	<path style="fill-rule:evenodd;clip-rule:evenodd;" d="M44,131.6c-0.1-1.1-0.2-2.2-0.3-3.3c0-2.3,0-4.7,0.5-7.1
		c0.2,3.4,0.4,6.8,0.6,10.2C44.6,131.5,44.3,131.5,44,131.6z"/>
	<path style="fill-rule:evenodd;clip-rule:evenodd;" d="M44.1,162.1c-0.2,2.7-0.3,5.5-0.5,8.2c-1.5-2.8-0.6-5.5-0.4-8.3
		C43.5,162.1,43.8,162.1,44.1,162.1z"/>
	<path style="fill-rule:evenodd;clip-rule:evenodd;" d="M35.6,519.9c-0.6-0.9-1.2-1.7-1.8-2.6c-0.8-1.4-1.4-2.8-1.9-4.3
		C34,514.8,35.6,516.9,35.6,519.9z"/>
	<path style="fill-rule:evenodd;clip-rule:evenodd;" d="M46.8,21.4c0-2.8,0-5.7,0-8.5c0.2,0,0.4,0,0.5,0c0.2,2.8,0.4,5.7,0.6,8.5
		C47.6,21.4,47.2,21.4,46.8,21.4z"/>
	<path style="fill-rule:evenodd;clip-rule:evenodd;" d="M38.2,542.1c-0.1-1.9-0.2-3.7-0.3-5.6c0.2,0,0.5,0,0.7-0.1
		c0.1,1.9,0.3,3.7,0.4,5.6C38.8,542,38.5,542.1,38.2,542.1z"/>
	<path style="fill-rule:evenodd;clip-rule:evenodd;" d="M51.8,141c-0.2-1.2-0.3-2.5-0.5-3.7c0.2,0,0.5-0.1,0.7-0.1
		c0.2,1.2,0.4,2.4,0.6,3.6C52.4,140.9,52.1,141,51.8,141z"/>
	<path style="fill-rule:evenodd;clip-rule:evenodd;" d="M53.2,180c0,1.1,0,2.1,0,3.2c-0.2,0-0.3,0-0.5,0c0-1.1,0-2.1,0-3.2
		C52.9,180,53,180,53.2,180z"/>
	<path style="fill-rule:evenodd;clip-rule:evenodd;" d="M39.1,568.7c-0.1-1.4-0.2-2-0.3-2.6c0.2-0.1,0.4-0.1,0.6-0.2
		c0.1,0.3,0.4,0.7,0.4,1C39.9,567.3,39.6,567.6,39.1,568.7z"/>
	<path style="fill-rule:evenodd;clip-rule:evenodd;" d="M12.6,314.9c-0.3-0.5-0.6-0.7-0.6-1c0-0.2,0.1-0.4,0.2-0.6
		c0.2,0.1,0.7,0.2,0.7,0.4C13,314,12.8,314.3,12.6,314.9z"/>
	<path style="fill-rule:evenodd;clip-rule:evenodd;" d="M52.2,194c0-0.8,0-1.6,0-2.3c0.1,0,0.2,0,0.3,0c0,0.8,0,1.6,0,2.3
		C52.4,194,52.3,194,52.2,194z"/>
	<path style="fill-rule:evenodd;clip-rule:evenodd;" d="M45.5,81c-0.1,0.2-0.3,0.3-0.4,0.4c-0.1-0.1-0.2-0.2-0.2-0.3
		c0.1-0.2,0.3-0.3,0.4-0.4C45.4,80.8,45.5,80.9,45.5,81z"/>
	<path style="fill-rule:evenodd;clip-rule:evenodd;" d="M44.1,107.8c0,0.5-0.1,0.8-0.1,1.1c-0.2-0.2-0.3-0.4-0.5-0.5
		C43.7,108.2,43.8,108,44.1,107.8z"/>
	<path style="fill-rule:evenodd;clip-rule:evenodd;fill:#FFFFFF;" d="M63.1,413c-0.2,0.2-0.3,0.5-0.5,0.5c-0.3,0-0.7-0.2-1-0.3
		c0.2-0.2,0.4-0.7,0.5-0.7C62.5,412.6,62.8,412.9,63.1,413z"/>
</g>
</svg>
