<?xml version="1.0" encoding="utf-8"?>
<!-- Generator: Adobe Illustrator 16.0.4, SVG Export Plug-In . SVG Version: 6.00 Build 0)  -->
<!DOCTYPE svg PUBLIC "-//W3C//DTD SVG 1.1//EN" "http://www.w3.org/Graphics/SVG/1.1/DTD/svg11.dtd">
<svg version="1.1" id="Layer_1" xmlns="http://www.w3.org/2000/svg" xmlns:xlink="http://www.w3.org/1999/xlink" x="0px" y="0px"
	 width="1000px" height="1000px" viewBox="0 0 1000 1000" style="enable-background:new 0 0 1000 1000;" xml:space="preserve">
<g>
	<path style="fill:#FFFFFF;" d="M583.2,525.5c-2.5,1.5-4.5,2.6-6.5,3.8c1,0.8,1.9,2.4,2.8,2.4C582.6,531.7,583.8,529.8,583.2,525.5z
		 M480.6,66.2c-0.2,0.8-0.4,1.6-0.6,2.4c4,0.9,8,1.8,12,2.7c0.2-0.6,0.4-1.3,0.5-1.9C488.6,68.4,484.6,67.3,480.6,66.2z M680,354.9
		c4.4,1,10.2,2.4,16,3.7C690.9,352.7,684.8,352.9,680,354.9z M296.7,309.4c0,0.5,0,1.1,0,1.6c5.1,2.1,10.3,1.7,12.8-1.2
		C305.1,309.6,300.9,309.5,296.7,309.4z M819.6,152.3c-0.6-1.1-2.9-1.5-4.5-1.9c-0.5-0.1-1.3,0.7-1.9,1.1c0.9,0.9,1.9,1.7,2.7,2.7
		c0.8,0.9,1.5,2,2.3,3c1.1,1.4,2.3,2.8,3.5,4.1c0.3-0.2,0.5-0.4,0.8-0.6C821.6,157.9,821,154.9,819.6,152.3z M298.9,304.2
		c-6.9-1.6-11-0.3-12.1,3.8c-0.4,1.6,0.8,3.5,1.3,5.3c0.6,0.1,1.3,0.1,1.9,0.2C286.8,304.5,294.1,306.3,298.9,304.2z M745.6,489.1
		c-0.7,6.1-1.4,12.3-2.1,18.5c0.8,0.1,1.6,0.2,2.4,0.2c0.6-6.2,1.1-12.4,1.7-18.5C746.9,489.2,746.2,489.1,745.6,489.1z
		 M585.8,517.8c-0.8,0.1-1.6,0.8-2.3,1.3c0.5,0.8,0.9,2.1,1.6,2.4c4.5,2.2,8,0.7,11.1-4.5C592.6,517.3,589.2,517.4,585.8,517.8z
		 M463.2,357.5c-2.1-2.2-9.9-1.6-12.9,1.4c4.2,0.8,7.8,1.5,11.4,2c0.7,0.1,1.8-0.6,2.3-1.3C464.2,359.3,463.7,358.1,463.2,357.5z
		 M619.4,485.9c-0.4-0.4-1.8-0.3-2.6,0.1c-0.3,0.2-0.5,1.7-0.2,2.2c2,2.8,4.1,5.5,6.3,8.2c0.4,0.4,1.6,0.6,2.2,0.4
		c0.6-0.2,0.9-1.2,1.5-1.9C624.1,491.8,621.9,488.8,619.4,485.9z M451.5,370.4c-3.1-2-6.4-3.9-9.7-5.9c-1,1.3-1.8,1.9-1.8,2.5
		c0,0.6,0.6,1.5,1.2,1.8c2.4,1.4,4.9,2.7,7.4,3.9c0.7,0.3,1.9,0.3,2.6-0.1C451.6,372.3,451.8,370.5,451.5,370.4z M475.6,298.7
		c-2.2,6.2-3.9,11-5.7,15.9c0.5,0.1,0.9,0.3,1.4,0.5C476.1,311.3,478.2,304.9,475.6,298.7z M282.5,230.7c-4.1-1.5-6.3-4.2-7.2-8.3
		c0.7,7.4,1.4,14.8,2,22.2c0.4,0,0.9-0.1,1.3-0.1c-0.2-4.5-0.3-9.1-0.5-13.6C279.9,230.8,281.2,230.7,282.5,230.7z M280.8,267.8
		c6.5-9.8,9-19.4,9.9-29.7C287.6,247.5,284.4,256.9,280.8,267.8z M499.3,403.6c-1.3,0.7-2.2,0.9-2.6,1.5c-1.9,3.1-3.9,4.1-7,1.1
		c-0.7-0.6-2.4-0.1-4.6-0.1c2.9,4.3,5.8,6.4,9.7,5.3C498,410.5,500.2,408.2,499.3,403.6z M782.7,452.1c-0.5,0.1-0.9,0.2-1.4,0.4
		c0.5,12.2,3.3,24,7.2,35.6C786.5,476.1,784.6,464.1,782.7,452.1z M643.1,682.2c1.9,12.2,5.9,17.1,11.1,14.8
		C650.3,691.8,646.7,687,643.1,682.2z M500.9,393.4c-1-0.8-2.9-0.3-5.4-0.5c5,5.4,8.6,9.4,12.3,13.4c0.4-0.3,0.8-0.6,1.2-0.9
		C508.6,400.1,504.9,396.6,500.9,393.4z M481.3,330.1c-0.2-0.3-2-0.1-2.5,0.4c-3.7,3.7-7.3,7.6-10.9,11.5c-0.5,0.5-0.4,1.8-0.3,2.6
		c0.1,0.6,0.7,1.1,0.7,1.2c1.2-0.5,1.6-0.6,1.9-0.8c4-3.9,8-7.8,11.7-11.9C482.3,332.7,481.8,331,481.3,330.1z M456.6,414.9
		c3.5,5.9,3.7,12.8,9.6,17.6C466.5,425.6,461.3,415.5,456.6,414.9z M482.6,312.6c-0.9,0.5-2.1,0.8-2.7,1.5c-2,2.8-3.8,5.8-5.7,8.6
		c-1.4,2.1-2.8,4.1-4.3,6.3c0.9,0.4,1.4,0.8,1.5,0.7c4.2-4.8,8.4-9.5,12.4-14.4C484.1,314.9,483,313.5,482.6,312.6z M506.8,310
		c4.6,6.3,2.1,15.6,8.7,21C514.6,319.9,511.4,312.2,506.8,310z M726.5,463.5c-0.2,8.4-0.4,16.8-0.7,25.2c-0.6,0-1.1,0.1-1.7,0.1
		c-1-1.1-2-2.3-3.2-3.6c0.1,1.1,0,2,0.3,2.7c0.8,1.6,1.7,3.2,2.6,4.8c1.2-1.4,3.4-2.6,3.5-4.1c0.5-8.3,0.6-16.7,0.8-25
		C727.6,463.6,727,463.5,726.5,463.5z M612.9,358.4c-8.7,7.3-10.6-1.3-14.1-6.1c-0.5,0.2-1.1,0.5-1.6,0.7c0.2,1.5-0.1,3.3,0.6,4.5
		c2,3.7,4.1,8.1,9.5,6.9c2.3-0.5,4.1-2.7,6.2-4.2C613.3,359.6,613.1,359,612.9,358.4z M670.5,304.2c-4.5,9.1-1.7,32.7,4.1,35.9
		C669.3,328.4,671.7,316.6,670.5,304.2z M303.9,288.8c-2.3-1.2-3.8-2.8-5.1-2.6c-5.5,0.9-11,2.3-16.5,3.5c3.1,2.2,6.6,2.8,10.7,1.5
		c2-0.6,4.4-0.5,6.5,0c3.4,0.7,5.1,0.2,7.3-3.6C305.5,288.2,304.2,288.7,303.9,288.8z M636,340.4c1.1-3.3,2.7-6.5,4-9.5
		c-5.3,3.3-9.3,13.6-6.5,19c1.1,2,3.8,3.9,6,4.4c1.8,0.4,4.1-1.3,6.1-2.1C636.3,352.6,633.1,349,636,340.4z M471.5,306
		c-2.5-1-4.4-2.4-5.8-2.1c-1.1,0.2-2.2,2.6-2.5,4.1c-0.5,3.2-1.1,6.7-0.5,9.8c0.5,3,2.4,5.9,3.6,8.8c0.7-0.3,1.3-0.5,2-0.8
		c-0.9-3-1.9-6-2.5-9.1C464.3,309.8,465,308.4,471.5,306z M483.6,415.6c-1.2,0.7-2.5,1.5-4.8,2.8c-2.1-3.7-3.8-7-5.9-10.1
		c-0.6-0.9-2-1.3-3-1.9c-0.2,1.1-0.9,2.6-0.4,3.4c1.7,3.2,3.5,6.4,5.9,9.1c1.3,1.5,4.1,2.9,5.6,2.5c1.6-0.4,2.5-3.2,3.7-5
		C484.4,416.1,484,415.9,483.6,415.6z M517.6,392.7c-1.9-2.7-3.8-5.4-6.2-7.6c-0.9-0.8-3.3-0.3-4.9,0.2c-0.7,0.2-0.9,1.9-1.4,2.9
		c1.2,0.3,2.5,0.4,3.6,0.9c1.4,0.6,3,1.3,3.8,2.4c1.7,2.5,2.7,5.3,4.3,7.8c0.5,0.7,1.9,1,2.9,1.1c0.3,0,0.7-1.5,0.8-1.9
		C519.5,396.2,518.8,394.3,517.6,392.7z M432.5,204.9c-0.6,1.1-1.3,2.2-1.9,3.3c-1.9,3.3-3.8,6.6-5.8,9.9c-4.6,7.6-7.5,9-14.6,6.6
		c0.6,3.8,3.9,5.2,7.7,3.8c0.1-0.1,0.3-0.1,0.5-0.2c0,0,0,0,0,0c0.1,0,0.1-0.1,0.2-0.1c0.1-0.1,0.3-0.2,0.5-0.2
		c0.2-0.1,0.4-0.2,0.6-0.3c0.2-0.1,0.4-0.3,0.6-0.5c0.2-0.1,0.4-0.3,0.6-0.4c0.6-0.5,1.3-1.1,2-1.8c0.4-0.4,0.7-0.8,1.1-1.2
		c0.2-0.2,0.3-0.4,0.5-0.6c0.3-0.4,0.7-0.8,1-1.2c0.3-0.4,0.6-0.9,1-1.3c0.2-0.4,0.5-0.7,0.7-1.1c0.2-0.4,0.5-0.7,0.7-1.1
		c0.2-0.2,0.3-0.5,0.5-0.8c0.2-0.4,0.4-0.8,0.7-1.1c0.2-0.3,0.3-0.6,0.5-0.9c0.2-0.5,0.5-0.9,0.7-1.4c0.2-0.4,0.4-0.8,0.5-1.2
		c0.1-0.2,0.2-0.4,0.2-0.6c0.1-0.2,0.2-0.5,0.3-0.7c0.1-0.3,0.2-0.6,0.3-0.9c0.2-0.6,0.4-1.1,0.5-1.7c0.1-0.3,0.1-0.6,0.2-0.9
		c0.1-0.3,0.1-0.6,0.2-0.8c0.1-0.5,0.1-0.9,0.2-1.4C432.6,205.6,432.6,205.3,432.5,204.9C432.6,204.9,432.5,204.9,432.5,204.9z
		 M401.2,374.4c3.3,4.9,5.8,8.9,8.6,12.7c2.2,2.9,4.6,5.5,7.3,8c0.9,0.8,2.9,1.3,3.9,0.9c0.8-0.3,1-2.3,1.6-3.9
		C411,391.1,411.3,377.8,401.2,374.4z M316.2,352.8c-0.9,3.7-0.1,5,3.7,6.5c8.1,3.3,20.3-1.6,25.4-12.8
		C336.4,353,328.8,364.4,316.2,352.8z M314,312.2c-0.8,2.1-1,5.1-2.4,5.8c-4.3,2.1-8.9,3.7-13.5,4.6c-3.5,0.7-7.1,0.1-5.1-5.3
		c0.4-1-0.2-2.3-0.5-4.5c-0.7,1.4-1,1.7-1.1,2.1c-0.2,0.6-0.1,1.3-0.3,1.9c-1.8,6.1,0,8.6,6.4,8.4c6.4-0.2,12.4-2.2,17.4-6.5
		C318.4,315.6,317.9,313.5,314,312.2z M406.1,406.9c-1.3-5.7-2.7-11.3-3.9-17c-0.3-1.3,0.2-2.8,0.3-4.2c0.1-1.2,0.7-2.7,0.3-3.7
		c-0.3-0.7-1.9-0.9-2.9-1.3c-0.5,1.4-1.5,2.9-1.3,4.3c1.2,7.2,2.6,14.4,4.1,21.5c0.4,1.8,1.6,3.4,2.4,5.1c0.5-0.2,1.1-0.4,1.7-0.5
		C406.5,409.6,406.4,408.2,406.1,406.9z M510.1,69.8c0.3-0.4,0.6-0.8,0.8-1.2c-1.9-1.5-3.7-3.3-5.9-4.3c-0.6-0.3-2.3,1.6-4,2.9
		c-1-1.1-2-2.6-3.4-3.7c-0.8-0.7-2.2-0.7-3.3-1c0.4,1,0.7,2.2,1.3,3.1c2,3.2,4.4,6.3,6.1,9.7c1.8,3.6,2.8,7.6,4.1,11.4
		c0.6-0.1,1.2-0.2,1.8-0.4c1.9-6-5.8-11.8-1.5-17.9C507.6,68.9,508.9,69.4,510.1,69.8z M325.4,297.5c-6.1-4.9-10.5-10.8-12.4-18.6
		c-1-4.4-8.5-7.3-12.7-5.3c-0.8,0.4-1.3,1.5-1.9,2.3c-0.1,0.5-0.2,0.9-0.3,1.4c8.7-3,11.6,1.3,14.2,8.2c2.5,6.5,6.9,12.4,14.8,14.3
		C326.6,299,326.1,298.1,325.4,297.5z M730.8,274.5c-0.9,0.2-2.2,2.1-2.3,3.2c-0.3,9.1-3.9,18.2,0.4,27.3c0.4,0.9,0.4,2,0.5,2.9
		c1,9.2,1.9,18.4,2.8,27.6c1-4.5,1.4-9,1-13.5c-1.2-13.3-5.7-26.2-3-39.9c0.6-3.1,0.8-5.4,4.8-4.7c0.1-0.5,0.2-1,0.3-1.6
		C733.8,275.4,732.2,274.3,730.8,274.5z M445.8,340.2c-2.7-0.3-6.8,1.8-8.5,4.1c-2,2.6-3.6,6.7-0.4,10.8c1.1-3.8,2-7.1,2.9-10.3
		c0.4,0.2,0.9,0.3,1.3,0.5c0.4,1.8,0.4,3.8,1.3,5.2c1.2,1.9,3.2,4.7,4.7,4.7c2-0.1,4.8-2.1,5.8-4.1
		C456.3,344,454.7,341.3,445.8,340.2z M448.1,352.7c-1.5-1-3-2.1-5.2-3.6c1.4-2.5,2.5-4.3,3.5-6.1c1.6,1.2,4.6,2.4,4.6,3.5
		C451,348.6,449.2,350.7,448.1,352.7z M429.2,389.2c-2.9-4.5-6.2-8.8-9.1-13.3c-1.5-2.2-2.8-3.7-5.1-1.7c0.7,2.1,1.3,3.8,1.8,5.5
		c-0.7,0.2-1.4,0.4-2.2,0.6c-0.5-2.1-0.9-4.2-1.4-6.3c-0.2-1.1-0.6-2.1-0.9-3.2c-1,0.9-2.6,1.6-2.9,2.6c-1.2,4.2,1.9,10,6.4,10.1
		c5.9,0.1,7.6,4.1,10.2,7.9c0.7,1,2.5,1.2,3.8,1.7C429.7,391.9,429.9,390.3,429.2,389.2z M389.8,309.8c-2.8,0.6-5.1,1.5-7.4,1.5
		c-2.6,0.1-5.3-0.9-7.9-0.7c-1.7,0.1-4.1,0.9-5,2.2c-2.4,3.9-1.8,8.7-4.2,13c-2,3.5-0.5,8.9-0.5,13.5c0.4,0.1,0.8,0.3,1.2,0.4
		c1.5-5.9,4.2-11.9,4.3-17.8c0.1-8.5,0.6-9.6,9.1-8.2c4.7,0.8,9.5,1.1,14.3,0.9c2.1-0.1,4-1.9,6.4-3.2
		C396,307.5,391.4,315.5,389.8,309.8z M445.7,433.4c-8.9-9.3-22.2-7.8-32.9-13c-0.5-0.2-1.8,1-2.7,1.6c0.6,0.8,1.1,2.1,1.9,2.3
		c3,0.9,6.1,1.8,9.2,2.2c12.2,1.8,22.5,6.7,29.1,17.7c0.7,1.1,2.1,1.7,3.2,2.6c0.5-0.5,1-1.1,1.5-1.6
		C451.9,441.2,449.2,437,445.7,433.4z M431,375.8c1-1,2-1.9,2.8-2.8c3.1-3.7,3.8-9.9,1.6-12.4c-3.1-3.6-7.5-4.2-11.1-1.5
		c-3.5,2.6-4.1,6.4-1.6,10.6c1.8,2.9,3.5,5.9,6.1,10.1c1.7,1,5,2.8,8.3,4.7c0.5-0.7,0.9-1.3,1.3-2C436,380.3,433.6,378.1,431,375.8z
		 M425,366.7c-0.7-2.7-0.7-5.9,2.8-6.2c2-0.2,4.2,1.7,8,3.4c-2.6,3.5-3.8,6.8-5.9,7.6C426.7,372.7,425.6,369.3,425,366.7z
		 M619.2,495.6c-1.1-2-2.7-3.8-4.3-5.4c-0.8-0.8-2.3-1.7-3.4-1.6c-4.8,0.5-8.1,7.4-5.4,11.5c-0.4,0.4-0.9,0.8-1.4,1.2
		c-3.4,2.5-3.5,8.4-9,8.6c0.3,1.3,0.6,2.6,0.9,4c2-1,4.3-1.6,5.9-3c2.2-1.9,3.4-5.2,5.8-6.4c3-1.6,3.3-3.1,2.5-5.9
		c-0.5-1.5-0.4-3.2-0.5-4.9c0.7-0.1,1.3-0.2,2-0.3c1.3,1.7,2.3,3.6,3.9,5.1c0.8,0.8,2.4,0.8,3.6,1.1
		C619.6,498.3,619.8,496.7,619.2,495.6z M886.3,275.4c-0.5-1.8-0.8-2.3-1.2-2.4c-0.8-0.2-1.7-0.4-2.5-0.2c-8.6,2.2-13.3-3-17.5-9.1
		c-0.9-1.4-1.7-2.9-2.8-4.1c-2.9-3.3-5.8-6.5-8.8-9.8c-0.4,0.4-0.8,0.8-1.2,1.1c7.1,11,14.1,22.1,21.2,33.1c0.5-0.2,0.9-0.4,1.3-0.7
		c-0.5-2.4-1-4.8-1.4-6.5C878,276.5,882.2,276,886.3,275.4z M256.5,156.5c-0.1-8.3,2.6-15.8,12-18.6c-0.2-0.6-0.4-1.1-0.6-1.7
		c-2.7,0.7-6.5,0.6-7.8,2.4c-4.1,5.4-7.4,11.7-6.4,18.8c1.3,9.3,4.5,18,10.2,25.6c1,1.3,2.7,2.1,4.5,3.4c-0.4-4.3-0.7-7.4-1.1-11.6
		C258.7,172.7,256.5,164.8,256.5,156.5z M691.8,721.9c-1.4-6.1-4.1-11.2-9-15c-1.3-1-3.3-1.1-4.9-1.7c-0.1,2,0.2,3,0.9,3.5
		c7.2,4.3,10,11,11.1,19c1.4,10.9,2.4,21.7,0.2,32.7c-0.9,4.5-0.7,9.1-1,13.7c0.5,0.2,1,0.3,1.5,0.5c0.5-1.4,1.4-2.7,1.6-4.2
		C695.1,754.1,695.4,738,691.8,721.9z M566.3,419.8c-6.5,1-13,2.1-19.5,3.2c-15.5,2.8-27.1,11.3-36.7,23.6c-5,6.5-5.3,12.8-2.6,19.9
		c1.7,4.5,3.9,5.6,8,3.8c-6.9-3.6-8-14.3-5.2-18.8c8.1-12.8,19-22,34.1-25.4c8.5-2,17.1-3.8,25.6-5.6c0-0.2,0-0.4,0-0.6
		C568.8,419.9,567.5,419.6,566.3,419.8z M884.8,309.1c-0.2-0.9-1.2-1.7-1.9-2.5c-0.9,0.8-2.5,1.6-2.5,2.4c-0.2,3.7-2.5,4.6-5.6,5.3
		c-0.8,0.2-1.3,1.4-2,2.2c0.9,0.5,2.1,1.6,2.8,1.3c2.4-0.8,4.7-2,8-3.5c0.3,2.8,1.3,5.5,0.6,7.8c-4,14.5-3.8,29.5-5.1,44.3
		c-0.1,1.4-0.7,2.7-1.2,4c-0.3,1-1,1.8-1.1,2.8c0,0.4,1.5,1.4,1.8,1.2c1-0.6,2.2-1.5,2.5-2.5c1-3.2,1.9-6.4,2.2-9.7
		c0.8-10.4,1.2-20.7,2.1-31.1c0.2-1.8,1.8-3.5,2.9-5.6C887.3,320.4,886.1,314.7,884.8,309.1z M782.9,405.3
		c-0.2-11.6-0.8-23.2-1.4-34.8c-0.4-8.8-1-17.6-1.7-26.3c-0.1-1.4-1.1-2.8-1.7-4.2c-0.5,0.1-0.9,0.3-1.4,0.4
		c-2.7,12.6-1.4,25.3,0.6,37.9c-0.2-10-0.4-20-0.5-30c0.7,0,1.4,0,2.1,0c1,33.1,2,66.2,3,99.2c0.4,0,0.8,0,1.2,0
		C783,433.4,783.1,419.4,782.9,405.3z M328,190.1c-5.4,2.8-11.1,5.4-16.9,6.9c-4.1,1-9.4,1-13-0.8c-9.7-4.9-18.1-0.5-28,1.5
		c1.3,0.8,1.8,1.3,2.3,1.4c13.3,2.1,17.7,7.7,17,21.4c-0.2,3.4,0.2,6.9,0.3,10.4c0.6-0.1,1.2-0.2,1.7-0.3c1-12.1,3.5-24.7-10.8-32.4
		c5.4-3.6,9.9-1.7,14,0c8.1,3.3,15.6,2.3,23.8-0.2c8-2.5,14.1-10.6,25-7.1C337.9,186,335.1,186.4,328,190.1z M757.3,599.4
		c-4.3-21.8-3.8-43.6-0.2-65.4c0.4-2.7,0.2-5.6,0.3-8.3c-0.4,0-0.9,0-1.3,0c-1.4,9.9-2.8,19.9-4,28.5c-1.3-5.7-3.1-12.6-4.2-19.6
		c-1.1-7.2-1.5-14.4-2.2-21.6c-0.6,0-1.2,0-1.8,0.1c0.3,6.6,0.2,13.3,1,19.8c1.8,14.7,4.1,29.3,6.1,43.9c1.3,9.4,2.3,18.8,3.7,28.2
		c0.2,1.3,1.7,2.4,2.6,3.6c0.3-1.5,1-3.1,1-4.6C758.3,602.3,757.6,600.9,757.3,599.4z M748,401.1c1.3,2.8,2.7,5.6,4,8.3
		c0.6-1,0.5-1.6,0.3-2.2c-2.2-6.7-5.9-13.3-6.5-20.1c-1.3-16.5-1-33.2-1.4-49.8c-0.1-5.3-0.5-10.5-0.8-15.8c-0.5,0-1,0-1.5,0.1
		c0.1,3.4,0.2,6.8,0.3,10.2c0.2,17.1,0.2,34.2,0.9,51.3c0.3,7.6,0.9,14.9-3.1,21.7c-0.6,1-0.4,2.4-0.7,3.6c0.3,0.1,0.5,0.2,0.8,0.2
		c1.2-2.4,2.5-4.9,3.7-7.3c1.8,12.6,2.6,25.2,5.6,37.4c2.9,12.3,8,24.1,12.1,36.1c0.8-0.2,1.5-0.5,2.3-0.7
		C754.1,450.7,746.4,427,748,401.1z M549.2,317.5c-1.5-2.8-5.9-3.4-9.1-1.7c2.4,2.3,4.9,4.7,7.6,7.4c-2.9,2.4-4.9,4-7.2,5.8
		c1.1,1.5,2,2.6,3.2,4.3c-8.1,0.9-6.6,4.4-2.3,8.4c-9.8,1.5-9.8,1.5-6.3,10.2c-2.5,0.5-4.9,1-7.2,1.6c-5.4,1.3-6.3,3.4-3.5,8.2
		c0.4,0.8,1,1.5,1.7,2.6c-3.3,0.4-6.1,0.6-8.8,1.2c-1.3,0.3-3,1.5-3.2,2.6c-0.2,0.9,1.2,2.4,2.2,3.4c2.2,2.3,4.6,4.5,6.8,6.6
		c-0.5,1.1-0.6,1.4-0.8,1.7c-1.1,2.2-5.9,2.2-3.9,6.4c2.4-1.1,4.8-2.1,7-3.5c2.4-1.5,2.7-3.6,0.8-5.9c-1.9-2.2-3.7-4.6-6.1-7.7
		c3.9-0.4,6.4-0.5,8.8-0.9c1.3-0.3,3.2-0.9,3.6-1.8c0.4-0.9-0.8-2.5-1.5-3.7c-0.9-1.5-2-2.8-3.6-5.1c2.7-0.4,4.4-0.8,6.1-0.9
		c8-0.9,8.5-1.8,4.9-8.7c-0.1-0.2,0.1-0.6,0.2-0.9c6.7-0.5,6.7-0.5,6.2-8.7c7.1-0.9,4.3-5.2,2.8-8.9
		C553.2,325.6,553.3,324.9,549.2,317.5z M618.9,605.5c-3.5-1.4-7.1-2.9-10.7-4.1c-13-4.4-26.1-8.5-39-13c-2.9-1-7-3-7.6-5.4
		c-1.3-4.8-3.6-6.4-8.1-6.2c-2,0.1-4-0.5-5.9-0.9c-9.6-1.9-15.8-10.2-13.4-18.6c1.4-4.8,3.6-9.3,5.2-13.9c0.4-1.2,0.2-2.5,0.2-3.8
		c-0.9-0.1-1.8-0.2-2.8-0.3c-2.2,7.3-4.8,14.6-6.4,22.1c-0.9,4.4,0.6,8.6,4.5,11.9c6.2,5.3,13.3,7.2,21.5,7.1
		c-0.3,4.9,2.3,8.5,7.3,10.1c9,2.9,18.2,5.3,27.1,8.5c12.8,4.6,27.3,6.4,34.7,20.3c0,0.1,0.3,0,0.5,0
		C627.6,614.2,624.4,607.8,618.9,605.5z M343.4,232.4c-6.1,3.5-6.1,3.3-7.8-0.7c8.4-5.2,8.4-5.2,8.5-9c-11.2,6-27.6,1.9-27.7-7
		c-2.3-0.7-4.6-1.4-6.9-2.2c3-6.3,7.9-7.9,31.3-11.9c-2.1-0.5-4.2-1.8-6.2-1.5c-5.9,0.9-11.8,2.2-17.5,3.8
		c-9.2,2.5-13.9,12.1-10.2,20.8c1.8,4.4,4.3,8.5,6.5,12.6c0.3,0.5,1,0.9,1.6,1.1c9.2,4,18.3,3.7,26.8-1.5c4-2.4,8.4-5,10.6-11.4
		C348.6,228.6,346.2,230.8,343.4,232.4z M315.2,231.2c-4.6-3.5-6.4-7.8-6.4-13.7C313.5,218.9,315.6,223.8,315.2,231.2z M318.3,233.9
		c-0.1-3-0.1-5-0.2-8.4c4.4,1.2,7.9,2.2,11.3,3.2c0,0.4,0.1,0.9,0.1,1.3C326.1,231.2,322.6,232.4,318.3,233.9z M633.7,457.9
		c-6.1-1.1-12.3-1.4-18.6-2.1c7.1-6.4,19.7-5.3,33,3.7c-0.6-2.3-0.6-3.9-1.4-4.6c-1.4-1.4-3.1-2.6-4.9-3.3
		c-10.5-4.5-20.7-3.3-30.4,2.4c-0.8,0.5-1.7,2.2-1.4,2.6c0.6,1,1.9,2,3,2.2c4.3,0.5,8.6,0.4,12.9,1.1c4.5,0.8,9,2.2,13.4,3.3
		c-0.1,0.4-0.2,0.8-0.4,1.2c-6.8-0.6-13.6-1.2-20.5-1.8c-2-0.2-4.1-0.5-5.9,0c-1.1,0.3-1.9,1.9-2.8,2.9c1.1,0.6,2.2,1.7,3.4,1.8
		c2,0.2,4-0.5,6-0.4c4.9,0.1,9.5,1.2,12.2,4.9c-5.2,0.3-10.8,0.5-16.3,1.1c-1.1,0.1-2,2.1-3,3.3c1.4,0.6,2.7,1.4,4.1,1.7
		c2.1,0.4,4.3,0.3,5.7,0.4c-0.4,2.5-1.2,5.1-0.8,5.3c2.1,1,4.5,1.4,6.8,2c-0.4-3.4-0.8-6.9-1.3-10.6c1.5,1.1,3.4,2.6,5.4,4.1
		c1.1,0.8,2.2,1.7,3.2,2.5c0.6-1.4,1.9-2.9,1.6-4.1c-0.7-3.3-2-6.5-3-9.8c6.5,0,9.8,2.6,10.9,8.8c0.2,1.3,0.2,2.7,0.7,3.9
		c0.3,0.8,1.2,1.4,1.8,2c0.7-0.8,1.8-1.5,1.9-2.4C650.7,470.7,643,459.5,633.7,457.9z M675.5,413.9c-2.6,0.8-5.1,2.7-7.7,3.1
		c-9.1,1.1-18.2,2.5-27.3,2.4c-12.1-0.1-19.5,7.9-28,14.1c-2.6,1.9-2.1,3.9,1.1,5c2.3,0.8,4.5,1.9,6.8,3c4,1.9,8.6,0.2,9-3.4
		c13.8-1,23.7,7.3,27.5,17.9c1.4,3.9,2.2,8,3.5,11.9c0.4,1.1,1.9,1.8,2.9,2.6c0.5-1.1,1.6-2.4,1.3-3.3c-2.9-9.1-5.7-18.2-13.3-25.1
		c-8-7.2-17.2-7.3-26.9-6.4c-2.3,0.2-4.6,0.2-6.9,0.3c0-0.6-0.1-1.2-0.2-1.8c3.9-3.5,8.2-5.8,13.8-4.6c2.3,0.5,4.5,1.2,6.8,1.6
		c9.5,1.3,19,2.6,28.5,3.8c1.2,0.1,2.6-1,3.9-1.5c-0.9-0.9-1.8-2.5-2.9-2.6c-7.4-1.1-14.8-2-22.1-2.9c-5-0.6-10.1-1.3-15.1-1.9
		c0.9-1.5,1.6-1.9,2.4-1.9c7.4-0.8,14.9-1.3,22.3-2.4c7.7-1.1,15.3-2.7,22.9-4.3c0.8-0.2,1.3-2.1,1.9-3.3
		C678.1,414,676.7,413.5,675.5,413.9z M496.5,310.3c-0.1-1.8-2.5-4.7-4.1-4.9c-4.6-0.5-5.6-3.6-7.4-7c-2.2-4.2-5-8.1-8.1-11.6
		c-0.9-1.1-4.3-1.2-5.7-0.4c-3.7,2.1-5.3,11.4-3.2,15.7c0.6,0.1,1.1,0.1,1.7,0.2c0.3-2.8,0.4-5.6,1.1-8.3c0.4-1.6,1.5-3.9,2.8-4.3
		c1.3-0.4,3.8,0.8,4.6,2c2,2.8,4.2,5.9,4.7,9.2c0.7,4.7,2,7.3,7.2,7.6c1.3,0.1,3.6,2.9,3.4,4.2c-1.7,14-5.1,27.2-16.9,36.7
		c-2.6-2.7-9.9-2.1-12.5,1.2c3.3,0.6,6.4,1.2,11.3,2.2c-5.7,4.8-9.9,9.5-15.1,12.2c-4.1,2.2-5.8,3.8-5.1,8.5
		c0.7,4.8-3.2,9.8-6.6,8.7c-6.1-1.9-6.4,1.5-6.5,5.8c-0.1,6.4-1.9,7.8-8,7.9c-1.5,0-3.3,1.1-4.6,2.2c-1.3,1.1-2.2,2.8-3.4,4.2
		c-1.2-0.5-2.1-1.2-3-1.3c-1.1,0-2.3,0.4-3.4,0.7c0.6,1,0.9,2.6,1.8,3c3.3,1.6,6.8,3.4,9-1.8c0.5-1.3,2.7-2.8,3.9-2.7
		c7.9,1.1,9.8-4.3,11.8-10.1c0.5-1.6,2.1-3.5,3.7-4c6.4-1.8,8.9-6.4,9.9-12.4c0.3-1.5,0.9-3.3,1.9-4.4c7.5-7.7,15.1-15.2,22.7-22.8
		C494.4,336.6,497.3,324,496.5,310.3z M680.1,815.7c-1,1.1-2.5,2-2.8,3.2c-0.6,3.3-0.8,6.6-0.8,9.9c0.1,11-2,21.9,0.2,33.2
		c1.5,8.2-0.1,17.2-1.7,25.7c-0.7,3.7-4,8.4-7.3,9.8c-8.5,3.6-17.6,6-26.7,8.1c-2.8,0.6-7.4-0.2-9-2.2c-7.8-9.4-17.4-6.6-26.7-4.6
		c-8.5,1.8-9.5,8.7-9.6,15.9c0,0.3-0.2,0.7-0.1,1c0.4,1.5,0.8,3,1.5,4.3c0.3,0.4,2.5,0.3,2.6,0c0.4-1.3,0.6-2.7,0.4-4
		c-1.1-7.2,0.1-9.8,6.9-12.2c3.2-1.2,6.8-2.1,10.2-2.1c2.7,0,6.2,0.7,8,2.4c5.8,5.7,11.8,9.4,17.9,5.8c9.5-2.5,16.9-4.7,24.3-6.4
		c5.4-1.3,8.3-4.9,10.4-9.8c4.7-11.3,4.2-23.3,2.8-34.9c-1.5-13.3-1.2-26.1,1.1-39.1C681.9,818.5,680.7,817.1,680.1,815.7z
		 M371.9,187.2c-10.1-6.6-19.5-14.4-29-21.7c-12.4-9.6-25.1-18.7-40.8-22.1c-1.3-0.3-2.6-0.4-3.9-0.7c-1.2-0.2-2.4-0.6-3.6-0.9
		c13.4-1,25.1,3.4,35.2,11.5c13.7,11.1,27.7,21.8,44.3,28.1c11.8,4.5,23.7,8,36.1,1.6c-11.3,3.7-22.1,0.8-32.6-3
		c-16.4-6.1-30.5-15.9-43.9-27c-11-9.1-23.8-15.1-38.8-14.6c-5.5,0.2-10.9-0.6-16.4-0.9c-0.9,0-1.9,0.1-2.8,0.2c0,0.3,0,0.6,0,0.9
		c2.1,0.8,4.3,1.5,7.5,2.7c-5.4,2.4-11.2,0.4-14.5,6.1c11.4-3.6,22.2-3.5,33-1.4c15.4,3,27.4,12.3,39.5,21.3
		c12.2,9.1,22.6,20.6,37.3,26.2c9.9,3.8,19.2,3.4,28-2.7c1.1-0.8,1.6-2.3,2.4-3.6c-0.3-0.2-0.7-0.5-1-0.8
		C395.9,195.1,383.6,195,371.9,187.2z M841.7,387.7c0.8-13.1,2.7-26.1,4.2-39.2c-1.5,2.2-3.2,4.8-3.4,7.5c-1.1,16-2.1,32-2.8,48.1
		c-0.3,7.3,0,14.6-0.2,21.9c-0.1,5.3-2.8,9.3-7.5,12.9c-2.1-4.5-3.8-9.1-4.9-13.8c-4.7-20.5-5.6-41.5-7.1-62.4
		c-0.1-1.7-1.3-3.4-2.3-5.8c-2.8,5.9-5.2,10.3-7,14.9c-1.5,3.7-2.9,7.5-3.2,11.4c-0.8,10.7-1.5,21.5-1.4,32.2
		c0.1,19.8-0.1,39.6,1.6,59.2c1.3,16,5.2,31.8,8,47.7c0.7,4.2,1.5,8.5,2.2,12.7c1,6.2,1.9,12.4,2.9,18.6c0.3,2,0.9,4,1.3,6
		c0.8-0.1,1.5-0.2,2.3-0.3c-0.4-4.4-0.4-9-1.2-13.3c-1.9-10.1-4.4-20.1-6.4-30.3c-2-10.4-4.6-20.9-5.3-31.5
		c-1.7-26-2.6-52.1-3.5-78.1c-0.5-13.8,0.2-27.6,9.6-40.8c0.6,5.9,1,10.5,1.6,15.1c2.5,18.3,5,36.5,8,54.7c0.4,2.4,3.1,4.3,4.7,6.5
		c2.2-1.7,4.8-3,6.5-5.1c4.8-6.1,4-13.4,3.8-20.5C841.8,406.6,841.1,397.1,841.7,387.7z M452.2,283.9c-0.2-3.3-0.9-6.5-1.4-9.7h-2.1
		c1,8.9,1.6,17.6-5.4,24.9c-2.4-22.7-10.9-46.8-18.2-49.5c0.7,2,1,3.5,1.8,4.8c6.2,11.3,10.5,23.3,12.2,36.2
		c0.8,6,1.3,12.1-2.1,17.5c-4.1,6.4-8.3,12.8-13.1,18.6c-4.2,5-9,9.8-14.2,13.7c-4.1,3.1-9.3,4.9-14.1,7.2c0.2,0.4,0.4,0.9,0.6,1.3
		c2.2-0.6,4.4-1.3,6.6-1.9c-4.3,4.1-8.7,8.5-13.9,10.4c-4.9,1.7-10.7,0.7-16.1,0.9c1.4,1.7,2.9,2.7,4.6,3
		c11.2,1.9,22.2,2.7,31.7-5.7c1-0.9,2.5-1,3.5-1.8c6.9-5.1,14.8-9.4,20.4-15.6C446.4,322.9,453.7,304.8,452.2,283.9z M391.6,359
		c10-7,20.2-13.7,29.8-21.2c8-6.3,14.3-14,17.4-24.1c1.8-5.8,5.4-11.1,8.6-17.3C455.3,313.8,414.4,359.6,391.6,359z M571.6,535.1
		c0.9-4.3,1.9-8.1,2.5-12.1c0.2-1.4-0.5-2.9-0.8-4.4c-1.6,0.5-3.8,0.6-4.8,1.7c-3.8,4.2-7.2,8.7-10.7,13.1c-3,3.9-6,7.9-9,11.9
		c-0.7-0.3-1.4-0.7-2.1-1c1.9-5.5,3.4-11.2,5.7-16.5c5.2-11.8,11-23.4,16.2-35.2c0.7-1.5-0.5-3.8-0.8-5.7c-2.1,0.4-5.1,0-6.2,1.3
		c-5.2,5.8-10.3,11.6-14.6,18.1c-3.7,5.6-6.2,12-9.2,18c-1.2-12.1,3.8-22.3,9-32.4c2.9-5.7,5.9-11.4,8.6-17.2c0.5-1,0.3-3.1-0.4-3.5
		c-1-0.7-3.1-1-4-0.4c-4.8,3.5-9.6,7-13.8,11.1c-3.7,3.6-6.7,7.9-10.1,12c-0.7-1-1-1.2-1.1-1.5c-0.1-0.5-0.1-1-0.2-1.5
		c-0.7-9.8,3.7-17.7,9.5-25c2.1-2.6,4.3-5.1,6-7.9c0.5-0.8-0.5-2.5-0.8-3.8c-1,0.5-2.3,0.7-2.8,1.4c-3.7,5.6-7.3,11.3-10.8,17.1
		c-4,6.8-5.7,14.1-4.4,22c0.2,1.4,1.4,3.3,2.6,3.8c0.8,0.3,2.8-1.2,3.7-2.3c3.2-3.6,6-7.5,9.3-11c3.7-3.9,7.7-7.5,11.6-11.2
		c0.7,0.5,1.4,1,2.2,1.5c-3.3,6.4-6.6,12.8-10,19.1c-5.2,9.6-8,19.9-8.2,30.9c0,1.5,1.5,3,2.2,4.5c1.2-1,2.8-1.7,3.5-2.9
		c4.1-7.5,7.7-15.4,12.2-22.7c3.1-5,7.5-9.3,11.4-13.9c0.6,0.3,1.2,0.7,1.8,1c-0.1,1.3,0.1,2.8-0.4,3.9c-4,8.8-7.8,17.5-12.2,26.1
		c-3.5,7-7.9,13.5-8,21.7c0,2.1,1.2,4.2,1.8,6.2c1.9-0.9,4.1-1.5,5.6-2.9c1.7-1.5,2.7-3.7,4.1-5.6c4.4-6,8.8-12.1,13.3-18.1
		c0.4,0.3,0.9,0.5,1.3,0.8c-1.1,4.5-2.5,8.9-3.2,13.4c-0.2,1.4,1.2,3,1.9,4.6c1.4-0.7,2.9-1.2,4.1-2.2c0.8-0.6,1.1-1.9,1.8-3.2
		C573.8,535.8,572.7,535.4,571.6,535.1z M693.5,468c-2.1-5.9-3.8-12-6.3-17.8c-1.3-2.9-4.1-5-6.4-7.6c2.9-2.9,5.5-5.1,7.4-7.7
		c2-2.6,3.5-5.7,4.8-8.7c3.1-7.5-0.1-17.5-10.2-18.7c-6.2-0.7-12.4-2.3-18.6-2.8c-10.3-1-20.3,0.4-28.8,7c-1,0.8-2.3,2.8-1.9,3.6
		c0.5,1.3,2.3,2.1,3.5,3.1c-0.1-0.6-0.2-1.2-0.2-1.8c1.9-1.7,3.6-4,5.9-5.1c2.9-1.4,6.3-1.9,9.5-2.7c10.5-2.7,20.4,1.6,30.6,2.5
		c5.6,0.5,9.1,6,7.4,11.4c-1.6,4.9-4.8,9.3-7.6,13.6c-0.5,0.7-3.1,0-4.8-0.1c-1.7-0.1-3.4-0.3-5-0.4c0.5,1.5,0.7,3.4,1.7,4.5
		c6.1,7.4,12.9,14.4,14.5,24.5c0.2,1.4,0.8,2.9,1.5,4.2c1.9,3.5,1.4,5.4-2.6,7.3c-2.7,1.3-5.2,4.7-6.1,7.6
		c-1.9,6.1-2.5,12.6-3.9,18.9c-0.3,1.4-1.8,3.3-2.9,3.5c-10.1,1.3-13.5,8.6-14.7,17c-1.6,11.2-5.2,21.5-11,31.2
		c-7,11.8-11.3,24.5-10.5,38.4c0.6,11.1,2.2,22.1,3.2,33.2c0.6,6.5,0.8,13.1,1.2,19.7c-0.6,0.2-1.2,0.5-1.8,0.7
		c-3.2-4.2-6.4-8.3-9.6-12.5c-0.5,0.1-1,0.2-1.4,0.3c0.2,2-0.2,4.5,0.8,5.9c2.3,3.2,5.2,5.9,8.1,8.5c1.5,1.4,3.7,2,5.5,3
		c0.5-2.1,1.7-4.3,1.5-6.3c-1.1-14.6-2.2-29.2-3.9-43.7c-1.7-13.5,0.2-26.4,6.3-38.2c6.8-13,13.2-26,15.2-40.8
		c1.1-8.2,5-11.5,13.3-13c2.6-0.5,4-1.5,4.4-4.4c1-6.8,2.3-13.6,3.7-20.4c0.3-1.4,1.5-3.1,2.7-3.6C694.7,478.4,697,477.7,693.5,468z
		 M874.6,378.3c-4.7-3.6-6.6-8.4-4.9-12.8c-5.8,2-6,3.1-2.1,8.2c4.9,6.2,4.1,8.9-3.3,11.3c3.2-6.9,3.2-6.9-0.3-8.4
		c-2.8,5.5-5.5,10.5-8.1,15.7c-7.9,16.3-11.7,33.5-12.1,51.5c-0.1,6.5,0,12.9-0.1,19.4c-0.1,4.6-1,9.2-0.9,13.9
		c0.2,18.9,0.5,37.8,0.8,56.8c0.2,15.6,1.2,31.1,4.6,46.4c1.6,7.4,4.2,14,9.8,19.6c2.6,2.6,3.4,7.1,4.9,10.5
		c-3.2,0.9-5.2,1.3-7.1,2.2c-2.9,1.3-4.9,1.4-6.2-2.2c-1.9-5.1-4.2-10.1-6.5-15.1c-0.4-0.9-1.1-1.6-2.1-2.9
		c-0.1,1.8-0.2,2.7-0.2,4.3c-4-9.5-7.6-18.3-11.3-27.1c-0.9,1.7-0.9,3.1-0.4,4.3c2.5,6.7,5.1,13.3,7.7,20c2.6,6.8,5.4,13.6,8,20.4
		c2.9,7.6,5.9,15.2,8.7,22.9c1.5,4.1-0.6,6.5-4,8.5c-3.7,2.1-4.9-1.2-6.1-3.2c-3-4.9-5.7-10-8.2-15.2c-2.4-5.1-4.4-10.4-6.6-15.5
		c-0.8,0.4-1.6,0.7-2.5,1.1c5,10.5,9.9,21,15.1,31.4c1.3,2.5,3.8,6.4,5.6,6.3c3.2-0.1,6.7-2.3,9.4-4.5c1.3-1.1,1.9-4.3,1.5-6.2
		c-1.6-6.2-3.8-12.3-5.8-18.5c0.8-0.6,1.6-0.9,2-1.6c3.3-4.8,6.8-5.5,10.9-0.8c0.7,0.7,2.3,0.6,3.5,0.8c0.1-1.4,0.7-2.9,0.4-4.1
		c-1.6-5.5-5.2-10.5-3.6-15.2c-2.3-3.1-4.4-5.1-5.3-7.5c-1.8-4.8-3.3-9.8-4.3-14.8c-2.6-13.4-5.2-26.8-7.1-40.3
		c-1.1-8-1-16.2-1.3-24.3c0-1.3,0.1-2.6,0.2-3.9c0.7-5.5,2.2-11,2.2-16.5c0-7.1-1.8-14.2-1.6-21.3c0.5-20.7,2.2-41.3,7.2-61.6
		c2-8.3,4.9-15.8,11.8-21.1c1.9-1.5,4.4-2.2,6.5-3.5c1.5-1,3-2.4,4-4C877.3,381,875.7,379.1,874.6,378.3z M595.8,295.8L595.8,295.8
		L595.8,295.8C595.8,295.8,595.8,295.8,595.8,295.8z M595.8,295.8L595.8,295.8L595.8,295.8C595.8,295.8,595.8,295.8,595.8,295.8z
		 M595.8,295.8L595.8,295.8L595.8,295.8C595.8,295.8,595.8,295.8,595.8,295.8z M595.8,295.8L595.8,295.8L595.8,295.8
		C595.8,295.8,595.8,295.8,595.8,295.8z M595.8,295.8L595.8,295.8L595.8,295.8C595.8,295.8,595.8,295.8,595.8,295.8z M595.8,295.8
		L595.8,295.8L595.8,295.8C595.8,295.8,595.8,295.8,595.8,295.8z M595.8,295.8L595.8,295.8L595.8,295.8
		C595.8,295.8,595.8,295.8,595.8,295.8z M874.6,323.1c1,4.1,3.5,8.3-0.6,12.7c-1.3-1.8-2.8-3.1-3.5-4.8
		c-6.2-15.2-12.9-30.3-18.2-45.9c-4.5-13-8.1-26.4-10.9-39.9c-2.6-12.6-3.4-25.6-5.2-38.4c-2-13.9-6-27.2-12.9-39.6
		c-3.9-6.9-12.2-11-20.5-9.6c1,4.8-1.9,7.5-4.8,10.9c-3.2,3.8-7.3,2.5-10.7,4.2c-15.9,8.4-31,17.9-45.2,29
		c-13,10.2-26.1,20.3-39.8,29.5c-12.3,8.3-25.4,15.5-38.2,23.1c-5.4,3.2-10.8,6.4-16.3,9.5c-7.3,4.2-13.7,9.7-22.1,12
		c-4.3,1.2-8.1,3.7-12.2,5.6c-1.9,0.9-3.9,1.4-6,2.2c-0.8-5.5-1.5-6.2-4.2-5c-9.9,4.7-19.8,9.2-29.8,13.8c-0.9,0.4-2.1,0.8-2.8,0.4
		c-5.5-3.1-9.1,0.4-12.1,3.9c-2.6,3.1-5,4.6-9.3,3.5c-9-2.2-17.3,1.8-25.9,3.4c-1,0.2-1.7,1.7-2.6,2.5c1.1,0.6,2.1,1.5,3.2,1.7
		c1.1,0.2,2.3-0.5,3.4-0.4c4.6,0.4,9.2,0.9,13.8,1.4c0,0.4-0.1,0.8-0.2,1.2c-2.8,1.3-5.7,2.6-8.5,4c0.2,0.6,0.3,1.1,0.5,1.7
		c4.1-0.9,8.2-2.6,12.4-2.5c4.3,0.1,8.6,1.9,12.9,2.9c0-0.6,0.1-1.8,0.2-2.9c1.1,3.5,0.5,7.3,1.8,10.4c3.3,8.3,9.3,15.7,9.3,25.3
		c0,0.6,1.2,1.3,1.9,1.9c0.6-0.7,1.5-1.2,1.9-2c0.9-1.9,1.6-3.9,2.4-5.8c0,0,0,0,0,0c0.5-0.9,0.8-2.4,1.6-2.7
		c1.6-0.5,8.9,4.8,9.5,6.6c2.4,6.2,4.7,12.4,7.3,18.5c0.6,1.5,2.3,2.6,3.5,3.9c-6.3-12.1-6.9-25.3-10.7-37.8
		c1.9-0.2,3.1-0.4,4.2-0.4c10.6,0.2,19.1-5.2,26.6-11.3c8.5-7,15.6-15.7,23.6-23.4c4.2-4,9-7.4,13.6-11.1c0.4,0.4,0.8,0.9,1.2,1.3
		c-0.5,0.8-0.9,1.7-1.4,2.5c-5.6,8.8-11.6,17.4-16.8,26.4c-2.4,4.2-6.2,8.3-4.3,14.2c6.9-18.2,20-32.4,29.1-49.3
		c-3,0.5-6.1,1-8.1,2.8c-11.4,10-22.6,20.3-33.8,30.6c-8.3,7.7-17.3,13.8-29.3,14.3c-8.3,0.4-13.7-3-15.7-10.8
		c-0.2-0.9,0.2-2.5,0.8-2.9c4.4-2.9,9-5.7,13.5-8.4c5.4-3.2,11.1-6,16.3-9.6c10.4-7.1,20-15.4,30.9-21.8
		c19.6-11.5,39.5-22.7,59.9-32.7c22.4-11,41-27.6,62.2-40.3c12-7.2,22.8-16.5,34.1-24.8c1.2-0.9,3.5-0.7,4.4-1.8
		c1.9-2.2,3.2-5,4.7-7.5c0.4,0.3,0.9,0.5,1.3,0.8c-3.2,5.7-6.3,11.4-9.5,17c-2.4,4.2-1.5,7.7,2.1,9.6c0.2-2.8-0.3-6,0.8-8.5
		c2.7-6.4,6-12.5,9.3-18.6c1.7-3.1,1.6-5.4-3.2-7.4c12.5,0.9,19.9,7.6,19.3,16.7c-2.1-1.5-4-3.2-6.1-4.4c-6.3-3.6-10.6-2.1-9.4,4
		c5.6-6,9.2-0.9,13.3,2c6.4,4.4,8.9,11,10.2,18.2c2.1,12.5,4.2,25,5.9,37.5c1.4,10.4,1.5,20.9,3.5,31.2c2.2,11.7,5.8,23.2,8.9,34.8
		c2.8,10.4,5.8,20.8,8.5,31.2c2,7.9,3.5,15.8,5.5,23.7c0.5,1.9,1.5,3.9,2.9,5.1c1,0.9,3.1,0.5,4.7,0.7c0.1-0.5,0.3-1.1,0.4-1.6
		c-6.3-1.8-5.9-7.3-7-11.8c-1.9-7.9-2.5-16.1-4.6-23.9c-3.3-12.8-7.3-25.5-11.1-38.3c5.4,11.8,9.9,23.8,14.7,35.8
		c2.3,5.7,5.1,11.2,8.2,16.4c0.6,1,4.6,1.6,5.2,0.8C879.9,334.5,880.8,325.6,874.6,323.1z M558.2,310.9c-6.5-1.8-13.1-3.7-19.6-5.5
		c8.3-4.6,14.3-0.6,20.1,3.8C558.6,309.8,558.4,310.4,558.2,310.9z M567.3,330.5c-0.4,0.1-0.9,0.1-1.3,0.2
		c-1.4-4.8-2.9-9.7-4.6-15.3C566,316.9,568.4,324.7,567.3,330.5z M578.8,331c0.2-0.6,1.1-1.7,1.4-1.6c1,0.4,2.3,1,2.5,1.7
		c0.9,3.2,1.5,6.5,2.5,10.8C579.9,339.5,577.7,335,578.8,331z M597,291.6c-0.2,0.6-0.4,1.2-0.5,1.8c-0.2,0.8-0.4,1.5-0.6,2.2
		c-0.7,0.4-1.4,0.7-2.1,1.1c-0.7,0.4-1.5,0.8-2.2,1.1c-1.3,0.7-2.5,1.4-3.9,2.1C585.3,294.2,587.8,292,597,291.6z M574.3,334.6
		c-0.4,0.4-3-0.4-3.1-0.9c-0.3-2.3-0.2-4.8-0.2-7.4C574.8,327.5,576.5,332.5,574.3,334.6z M573.2,310c2.9-2.1,5.3-3.9,8.5-6.2
		C581,309.5,580.2,310,573.2,310z M585.6,306.8c-0.3-0.5-0.6-0.9-1-1.4c3.7-3.2,7.5-6.5,11.2-9.7c0,0,0,0.1,0,0.1v0l0,0
		c0.5-0.2,1-0.4,1.5-0.6c0.2-0.1,0.5-0.2,0.7-0.3c0.2-0.1,0.5-0.2,0.7-0.3c0.1-0.1,0.3-0.2,0.4-0.2c0.1-0.1,0.2-0.2,0.4-0.2
		c0,0,0,0,0.1,0c0.1,0,0.2-0.1,0.2-0.2c0.1-0.1,0.2-0.1,0.3-0.2c0,0,0.1,0,0.1-0.1c0.1-0.1,0.2-0.3,0.3-0.4c0.1-0.1,0.2-0.2,0.2-0.3
		c0.1-0.1,0.1-0.2,0.2-0.3c0.1-0.2,0.2-0.5,0.3-0.8c0-0.1,0-0.1,0.1-0.2c0.1-0.3,0.1-0.7,0.2-1.1c0-0.5,1-1.2,1.8-1.5
		c6.8-2.9,13.7-5.7,20.5-8.5c0.2,0.4,0.5,0.8,0.7,1.2C611.4,289.9,598.5,298.3,585.6,306.8z M689.3,242.6
		c8.3-5.5,16.8-10.8,24.9-16.6c10-7.1,19.8-14.5,29.4-22.1c11.2-8.9,22.7-17.2,35.9-23.1c3.3-1.5,6.3-3.5,9.4-5.2
		C756.3,198.9,726,225.5,689.3,242.6z M595.8,295.8L595.8,295.8L595.8,295.8C595.8,295.8,595.8,295.8,595.8,295.8z M595.8,295.8
		L595.8,295.8L595.8,295.8C595.8,295.8,595.8,295.8,595.8,295.8z M595.8,295.8L595.8,295.8L595.8,295.8
		C595.8,295.8,595.8,295.8,595.8,295.8z M595.8,295.8L595.8,295.8L595.8,295.8C595.8,295.8,595.8,295.8,595.8,295.8z M595.8,295.8
		L595.8,295.8L595.8,295.8C595.8,295.8,595.8,295.8,595.8,295.8z M595.8,295.8L595.8,295.8L595.8,295.8
		C595.8,295.8,595.8,295.8,595.8,295.8z M582.5,373.5c-0.1-0.2-2.7,1.2-5.3,2.4c0.4-6.9,0.8-13.5,1.3-20.1c0.2-3.3,0.9-6.6,0.9-9.8
		c0-0.3,0-0.6-0.1-0.9c0-0.1,0-0.2,0-0.3c0-0.1,0-0.1,0-0.2c0,0,0-0.1,0-0.1c0,0,0,0,0-0.1c0-0.1-0.1-0.2-0.1-0.4c0,0,0,0,0,0
		c0-0.1-0.1-0.2-0.1-0.3c0-0.1-0.1-0.2-0.2-0.3c0-0.1-0.1-0.2-0.2-0.2c0,0-0.1-0.1-0.1-0.1c-0.1-0.1-0.2-0.1-0.3-0.2
		c-0.1,0-0.1-0.1-0.2-0.1c-0.1,0-0.1-0.1-0.2-0.1c-0.1,0-0.2,0-0.2,0c-0.3,0-0.6,0-1,0.1c-0.2,0.1-0.5,0.2-0.8,0.3
		c-0.1,0.9-0.1,1.9-0.1,2.8c0,1.1-0.1,2.2-0.1,3.3c0,0.1,0,0.2,0,0.4c0,0.4,0,0.7-0.1,1.1c0,0.4-0.1,0.9-0.2,1.3
		c-0.1,0.4-0.1,0.8-0.2,1.2c-1.8,8.3-1.2,16.5,0.6,24.6c0.3,1.3,2.1,2.9,3.5,3.1c1.8,0.3,3.7-0.6,6.5-1.3
		C584.6,377.6,583.8,375.4,582.5,373.5z M575.7,343.1C575.7,343.1,575.7,343.1,575.7,343.1l0.1-0.1C575.7,343,575.7,343,575.7,343.1
		z M493.9,80.3c-9.8,2.1-13.3-3.5-15.5-11.7c-1.2-4.6-6-6.4-10-5.8c-2.2,0.3-4,4.4-5.9,6.7c-0.4,0.7-1.8,0.1-3.2-0.2
		c-1.3-0.3-2.7-0.2-5.3-0.4c12.2,5.6,12.6,4.5,9,9.4c-10.6-10.8-24.1-11.4-38-10.6c-4.1,0.2-8.4,0.6-12.5,0.1
		c-9.8-1.2-19.7-2.4-29.2,0.8c-9.7,3.3-20.4,5.8-28.2,11.9C340.9,91.6,324,94,306.5,98.9c1.6-1.3,2.2-1.8,2.8-2.3
		c17.2-13.1,37.1-20.8,57.5-26.9c11.5-3.4,23.2-5.8,34.8-9c7.9-2.2,15.7-4.9,23.5-7.3c-2.7-0.4-5.9-0.9-8.8-0.1
		c-9.5,2.6-18.8,5.8-28.2,8.5c-5.8,1.6-11.8,2.5-17.4,4.3c-9,2.9-18,5.9-26.6,9.7c-10.1,4.5-20.1,9.5-29.8,14.8
		c-8.3,4.5-16.2,9.8-24.2,14.8c-3,1.9-5.9,4-7.6,5.2c1.5,3,3,4.9,3.1,6.9c0,1-2.7,2-4.1,3.1c-3,2.3-6.3,4.3-9,7
		c-1.1,1.1-0.7,3.6-1,5.4c0.6,0.3,1.2,0.7,1.7,1c1.7-9.1,8.9-10.5,15.8-11.9c-0.1-1.1-0.1-1.6-0.2-2.1c-0.6-2.6-1.3-5.2-1.9-7.9
		c3.4-0.2,6.8-0.5,10.1-0.5c1.1,0,2.2,0.7,3.2,1.4c7.6,5.1,15.1,10.3,22.6,15.5c-4.7-2.3-9.3-4.7-14.1-6.9c-6-2.9-11.2-7.5-18.7-6.9
		c1.5,1.8,3.2,3,5.2,3.9c1.6,0.7,3.7,0.7,5.2,1.6c6.8,3.8,13.8,7.4,20.2,11.8c8,5.6,15,12.7,23.3,17.7c11.3,6.8,23.2,12.8,35.2,18.2
		c10.8,4.9,22.4,7.6,34.4,6.6c4.1-0.3,5.1,1.6,5.9,4.9c0.3,1.4,1.3,3.2,2.5,3.8c3.8,1.8,7.9,3.2,12.4,4.9c-6.3,5.6-13,6.3-20.4,3.4
		c3.8,3.9,8.2,4.9,13.3,3c3.4-1.3,6.6-3.1,9.9-4.6c3.3,4.2,10,5.7,14,2.4c1.9-1.5,3.1-4.2,3.7-6.7c0.2-0.6-2.8-2.2-4.3-3.2
		c-1.4-0.9-2.8-1.6-3.5-2c0.6-3.5,2.1-6.7,1.5-9.4c-2.3-9.9-5.5-19.5-7.9-29.4c-0.8-3.2-1.7-7.5-0.3-10.1c4.1-7.8,9.2-14.9,14-22.3
		c1.3-1.9,2.5-4.1,4.3-5.4c7.2-5.6,9.4-11.7,7-20.2c-0.4-1.3,0.7-3,1.1-4.6c1.4,1.1,3.3,1.9,4.1,3.3c1.1,2.2,1,5,2.3,7
		c1.1,1.7,3.8,3.9,5.1,3.6c1.8-0.5,3-3.2,4.5-5c1.1-1.3,2-3.3,3.4-3.8c3-1.1,6.3-1.5,10.3-2.4C495,80.9,494.4,80.2,493.9,80.3z
		 M305.2,112.6c4.8-0.2,11.3,3.9,20.2,13.7C318.6,121.7,311.8,117.1,305.2,112.6z M371.5,161.5c-11-5.6-22.6-10.3-31.8-19.2
		c-3.8-3.7-8.5-6.3-12.7-9.6c-0.3-0.2-0.5-0.5-0.8-0.7c0,0-0.1-0.1-0.1-0.1c-0.1-0.1-0.3-0.3-0.4-0.5c-0.5-0.7-1-1.4-1.6-2.1
		c0.5,0.4,1.1,0.7,1.6,1.1c0.5,0.4,1.1,0.7,1.6,1.1c0.6,0.4,1.2,0.8,1.8,1.2c0.7,0.5,1.4,1,2.1,1.5c0.8,0.6,1.7,1.1,2.5,1.7
		c0.3,0.2,0.7,0.4,1,0.6c1.1,0.7,2.3,1.4,3.4,2.1c13.2,7.6,26.6,14.9,39.9,22.3c1,0.5,2,1.2,2.6,2.8
		C377.7,163.1,374.3,162.9,371.5,161.5z M447.2,184.3c1.3,0,2.6,0.4,4.2,1.3c-1.2,6-2.6,6.9-8,5.7c-2-0.5-4.1-0.9-6.2-1.4
		c0.9-0.6,1.7-1.3,2.6-2c0.1-0.1,0.2-0.2,0.3-0.3c0.2-0.1,0.4-0.3,0.6-0.5c0.2-0.1,0.4-0.3,0.6-0.4c0,0,0,0,0,0
		c0.3-0.2,0.6-0.4,0.9-0.7c0.1-0.1,0.2-0.1,0.3-0.2c0.1-0.1,0.2-0.1,0.3-0.2c0.2-0.1,0.4-0.2,0.6-0.4s0.4-0.2,0.6-0.3
		c0.2-0.1,0.4-0.2,0.6-0.3c0.2-0.1,0.4-0.2,0.7-0.2c0.2-0.1,0.5-0.1,0.7-0.1c0.2,0,0.4-0.1,0.6-0.1
		C446.9,184.3,447.1,184.3,447.2,184.3z M440.5,126.6c-3.8,4.9-3.9,9.9-2.2,15.5c2.8,9.2,5.2,18.5,7.9,27.8c1.1,3.6,1,5.9-3.6,6.9
		c-3.4,0.8-6.4,3.5-9.9,4.3c-4,0.9-8.4,1-11-3.4c-1.4-2.3-1.1-4,1.8-4.9c2.5-0.8,4.8-2.1,7.3-3c1.6-0.6,3.4-0.8,6-1.4
		c0,0.3,0.3-0.7,0-1.4c-2.1-4.3-1.9-8.1,1.6-11.9c2.2-2.4,0.3-8.8-3-12.2c-2.2-2.2-4.5-4.4-6.8-6.6c-3.7-3.5-4.4-7.8-0.5-11.2
		c7.2-6.4,15-12.1,22.6-18.1c0.7,0.7,1.4,1.4,2.1,2.1C448.7,114.9,444.9,120.9,440.5,126.6z M460.3,93.7c-4.8,2.3-9.7,4.4-14.8,5.6
		c-9.7,2.3-19.4,4.5-26.2,12.3c-3.5,4-6.4,8.8-8.5,13.7c-2.4,5.8-4.8,7.3-11,6c-3.9-0.8-8.1-0.4-12.1,0c-3.4,0.3-3.3,2.8-2.1,5.2
		c3,6,8.6,8.5,14.3,10.9c2.2,1,4.7,1.4,7.1,2c0.2-0.5,0.3-1.1,0.5-1.6c-3.6-1.5-7.4-2.8-10.9-4.6c-2.5-1.3-4.8-3-6.9-4.9
		c-1-1-2.1-3.2-1.7-4.1c0.5-1.1,2.7-2.2,4.1-2.1c3.1,0.3,6.2,1.3,9.2,2c5.7,1.3,9.3-0.6,11-6.2c3.9-13.2,12.9-21,26-24.1
		c6.2-1.5,12.5-2.8,18.8-4.1c0.2,0.3,0.4,0.5,0.6,0.8c-5.4,3.7-10.9,7.2-16.2,11.1c-5.5,4-11,8-16.1,12.5
		c-3.4,2.9-1.3,11.5,3.2,15.6c1.7,1.6,3.6,3,5.1,4.8c3.1,3.8,4.5,7.7,0.8,12.1c-1.1,1.3-1.7,3.3-2,5c-0.6,4.5-5.2,9.2-9.6,9.3
		c-0.6,0-1.2-1-1.2-1.1c-11.8,4.7-22.7,1.5-33.8-1.4c7.8-0.6,15.6-0.5,23-2c7.2-1.5,15.5-1.6,20.9-9.9c-5.5,2.5-9.9,4.5-15.8,7.1
		c1.3-2.9,1.9-4.4,2.5-5.8c-6.4,6.8-13.8,9.1-23.3,6.2c5.8-1.3,11-2.4,16.2-3.6c-0.1-0.4-0.2-0.8-0.3-1.2c-3.5,0.5-6.9,0.8-10.4,1.4
		c-14.5,2.3-26.9-3.3-38.3-11.2c-13.7-9.6-26.9-19.9-40.1-30.2c-8-6.2-16-12.1-27-10.9c-0.2-0.5-0.3-1-0.5-1.5
		c2.7-1.5,5.2-3.5,8.1-4.3c9.6-2.7,19.5-4.5,29-7.5c5.9-1.9,11.6-4.8,16.9-8.1c15.4-9.5,31.6-16.5,49.9-17.2
		c7.9-0.3,15.9,0.3,23.4,3.4c2.2,0.9,4.6,1.2,7.1,1c-2-1-4.1-2-6.9-3.3c14-2.1,26.4-1.3,37.4,7.4c2.7,2.1,1.2,4.1-0.3,6
		c-1.5,1.8-3,3.5-3.8,5.9c2-1.8,4-3.7,6.3-5.8C464.5,88.3,464.3,91.7,460.3,93.7z M476.3,90.3c-2.4-5.9-4.8-11.9-7.5-18.6
		c-0.2,1.9-0.4,3.2-0.5,4.5c-0.3,0.1-0.6,0.1-0.9,0.2c-0.3-2.3-1-4.6-0.9-6.9c0.1-2.9,2.1-4.2,4.8-3.4c1.5,0.4,2.9,1.6,4.1,2.7
		C480.1,72.9,481.7,84.8,476.3,90.3z M748.1,699.3c-4.2-7.3-13.9-8.8-20.5-3.4c-3.2,2.6-6.4,5.3-9.8,7.7c-1,0.7-3,1.1-3.8,0.6
		c-2.4-1.8-5-3.7-6.5-6.2c-7.6-13.5-17.5-25.9-21.1-41.5c-1.2-5.2-3.9-10.2-6.6-15c-1.8-3.2-2.7-6.1-1.9-9.9
		c1.3-5.9,0.9-11.8-4-16.1c-4.4-3.8-6.6-8-6.1-13.9c0.2-1.9-0.4-3.8-0.7-5.7c-0.6,0-1.1,0-1.7,0c-0.5,1.8-1.1,3.6-1.4,5.5
		c-0.2,1.7-0.1,3.5-0.1,5.3c-3.5-15-0.1-29.3,3.9-43.6c0.9-3.3,2.3-6.8,4.6-9.2c5.9-6.1,12.5-11.6,18.8-17.3
		c5.4-4.9,10.5-10.1,12.8-18.6c-1.7,1.5-2.6,2-3.1,2.8c-4.5,6.8-10.4,12.1-16.7,17.2c-7,5.7-14.7,11.1-18,20.2
		c-1.4,3.8-2.3,7.9-3.2,11.9c-3.1,12.5-6.4,25.1-2.5,38c0.7,2.4,2.6,4.9,4.7,6.2c5.4,3.2,10.8,11,8.3,15.5
		c-2.8,4.8-0.9,7.9,0.7,11.8c0.6,1.5,0.4,3.3,0.5,4.9c0.3,11.5,5.9,21.4,10.4,31.4c3.7,8,9.3,15.2,14.1,22.7
		c1.9,3.1,3.6,6.4,5.6,9.4c1.8,2.7,4.2,3.8,7.8,2.8c2-0.6,4.5-0.1,6.6,0.6c5.5,1.8,10.2,0.5,13.3-4.4c1.4-2.3,2.6-4.6,4.6-8.1
		c0.2,2.5,0.3,3.6,0.3,4.7c-0.3,23.3-6.2,45.6-12.3,67.9c-5.4,19.5-10.2,39.2-16,58.6c-1.8,6-2.2,11.6-0.8,17.5
		c0.3,1.2,0.2,2.7-0.1,3.9c-2.8,10.6-5.8,21.1-8.5,31.7c-1.1,4.2-2.2,8.5-3.2,12.8c-1,4.2-2.1,8.3-3.1,12.4c1.1-1.5,2.6-2.8,3.2-4.5
		c2.8-7.8,5.4-15.7,7.8-23.6c3.3-10.8,6.3-21.7,9.5-32.5c0.8-2.9,1.8-5.7,3.1-9.6c-2.8,1.3-4.6,2.1-7.1,3.2
		c2.2-10.2,3.8-19.8,6.4-29.1c5.8-21,12.3-41.7,17.9-62.7c2.6-9.6,4.1-19.5,5.5-29.3c1.1-7.3,1.2-14.8,1.8-22.5
		c1.5,0.9,2.8,2,4.3,2.5c0.7,0.2,1.9-0.2,2.5-0.8C748.6,701.2,748.5,699.9,748.1,699.3z M680,649.9c5,12.3,10.1,24.6,14.9,36.3
		C687.3,675.7,681.5,663.7,680,649.9z M709.8,708.5c-2.1-2.2-4.2-4.3-6.2-6.5c0.5-0.4,1-0.7,1.5-1c1.9,2.2,3.8,4.5,5.7,6.7
		C710.5,708,710.1,708.2,709.8,708.5z M718.5,708c4.9-3.7,9.2-6.8,14-10.5C731.4,707.8,726.7,711.4,718.5,708z M693.4,911.7
		c-0.1-0.3-0.2-0.6-0.2-0.8c-0.2,0.2-0.3,0.4-0.5,0.6c-0.2,0.2-0.4,0.5-0.6,0.7c-0.4,0.5-0.7,1-1.1,1.4c-0.7,0.9-1.4,1.8-2,2.6
		c-4.3-1.7-3,4-5.7,4.9c-2.2,0.4-7.9-1.3-5.5,3.8c3.1,6.8,2,11.6-1.8,17.4c-4.4,6.9-12.4,9.3-19.6,5.2c-4.4-2.5-9.2-4.4-13.9-6.1
		c-2.7-1-4.2-2.1-4.3-5.2c-0.1-1.8-1.3-3.6-2.1-5.4c-1.4,1.4-3,2.7-4.3,4.2c-1.4,1.7-2.3,4.7-4,5.2c-4.9,1.5-10,2.6-15.1,3
		c-3.4,0.3-5.9-2.1-6.3-5.8c-0.2-1.4,0.1-2.8,0.2-4.4c-3.6,0-4.2,2-4.7,4.8c-1,5.1-3.8,6.8-8,5.3c-8.3-3-10.1-6.5-7.2-14.9
		c1.3-3.7,3.3-7.2,4.8-10.8c0.3-0.7,0.2-1.7,0.3-3.1c-1.2,0.6-1.8,0.8-2.3,1.2c-6.2,5.9-6.9,14.2-8.8,21.8c-0.6,2.3,1.1,6.3,3.1,8
		c2.9,2.6,7,4,10.7,6c0.9-2.5,2.8-3.6,6-0.9c0.8,0.7,2.4,0.4,3.7,0.5c2.6,0.1,5.2-0.2,7.8,0.1c2.9,0.3,5.7,0.8,7.3-2.5
		c0.3-0.7,1-1.7,1.6-1.8c7.8-1.2,15.9-4,23,1.9c5.4,4.5,11.8,6.1,18.5,6.3c7.9,0.3,21.8-8.4,24.1-15.8c2.8-8.8,4.8-17.8,7.1-26.7
		C693.6,912.3,693.5,912,693.4,911.7z M693.3,910.4c-0.1,0.1-0.1,0.1-0.2,0.2c0,0.1,0,0.1,0,0.2c0,0,0,0,0,0c0,0,0-0.1,0.1-0.1
		C693.3,910.6,693.3,910.5,693.3,910.4C693.3,910.4,693.3,910.4,693.3,910.4z M722.8,381.5c-3-3.1-2.9-5.6,0.2-8.4
		c6.2-5.5,7.2-12.9,7.6-20.6c-1.2,2.4-2,5-2.5,7.6c-1.2,5.6-3.6,10.4-8.5,13.5c-1,0.6-3,0.5-4.1-0.1c-3.3-2-6.4-4.5-9.6-6.8
		c3.1,3.3,6.3,6.6,9.4,10c-2.7,3-8.3,3.5-10.4,0.3c-2-3.1-3.3-6.9-4-10.5c-0.5-3,1.8-2.3,3.6-1.4c-1.7-1.8-3.4-3.5-5.5-5.8
		c-0.3,1.6-0.5,2.1-0.4,2.6c0.7,3.9,1.4,7.9,2.3,11.8c1.7,7,4.9,9.1,11.8,7.9c1.7-0.3,3.3-1.3,4.9-2c3.1,3.7,6.3,7.1,9,10.8
		c6.1,8.4,5,20-2.2,27.2c-3,3-6,6.2-8.7,9.5c-2.9,3.5-5.1,7.3-2.8,12.3c2.2,4.8,5.3,9.8,5.5,14.7c0.3,9.3-0.5,18.8-2.3,27.9
		c-2,10-5.8,19.5-8.8,29.3c-0.5,1.7-0.6,3.5-0.8,5.3c0.6,0.1,1.2,0.2,1.8,0.3c2.6-6.9,6-13.5,7.8-20.6c2.8-11.6,5-23.3,6.5-35.1
		c0.6-4.6-0.5-10-2.6-14.1c-4-7.7-7.1-15.6,1.4-22c2-1.5,4.1-3,5.5-4.9c2.4-3.2,5.6-6.5,6.4-10.2
		C735.6,398.5,730.4,389.4,722.8,381.5z M799.5,558c0.9,4.2,3.1,7.3,6.6,10.8c-2.9-10.4-5.5-19.6-8.3-29.4c-0.7,0-2.2-0.1-3.9-0.2
		c-0.2,8.5-0.6,17-0.7,25.4c-0.1,5,0.3,10,0.5,15.1c0.7,0.2,1.3,0.3,1.7,0.3c0.1,0,0.2,0,0.3,0c0.1,0,0.2,0,0.3-0.1
		c0.1,0,0.1,0,0.2,0c0.1,0,0.2-0.1,0.3-0.1c0,0,0.1-0.1,0.1-0.1c0.2-0.1,0.3-0.3,0.4-0.5c0-0.1,0.1-0.2,0.1-0.2c0,0,0-0.1,0-0.1
		c0-0.1,0-0.1,0-0.2c0-0.1,0-0.2,0-0.3c0.1-0.7,0-1.6-0.1-2.6c-0.9-9.9-1.4-19.9-2.1-29.8c0.6-0.1,1.1-0.1,1.7-0.2
		C797.7,549.7,798.7,553.8,799.5,558z M793.6,579.7C793.6,579.7,793.6,579.7,793.6,579.7c0,0.1,0.1,0.1,0.1,0.1v0
		C793.7,579.7,793.7,579.7,793.6,579.7z M792.9,579.8c-0.2,0-0.5,0-0.7,0.1c-0.1,0-0.2,0-0.4,0c-0.5,0-1.1,0.1-1.6,0.2
		c-0.2,0-0.3,0-0.5,0c-0.6,0-1.1,0-1.6,0c-0.1,0-0.3,0-0.4-0.1c0,0,0,0,0,0c-0.1,0-0.3-0.1-0.4-0.1c-0.1,0-0.2-0.1-0.2-0.1
		c-0.1-0.1-0.2-0.1-0.3-0.2c-2.7-2.7-5.8-6.4-6.1-9.9c-0.7-7.5,0-15.1,0.8-22.7c0.8-7.6,2.4-15.1,3.7-22.7
		c-4.2,7.1-8.9,36.5-6.7,43.6c1.6,5,1.4,10.7,6.4,14.1c0.4,0.3,0.8,0.5,1.2,0.7c0.1,0,0.3,0.1,0.4,0.1c0.1,0,0.2,0.1,0.3,0.1
		c0.2,0.1,0.4,0.1,0.6,0.2c0.1,0,0.2,0,0.2,0c0,0,0,0,0,0c0.1,0,0.2,0,0.3,0c0.1,0,0.3,0,0.4,0c0.1,0,0.3,0,0.4,0
		c0.3,0,0.7-0.1,1-0.2c0.2,0,0.3-0.1,0.5-0.2c1-0.4,1.9-1.2,2.8-2.3c0.1-0.1,0.1-0.2,0.2-0.3c0.1-0.2,0.2-0.3,0.4-0.5
		C793.3,579.8,793.1,579.8,792.9,579.8z"/>
	<path style="fill-rule:evenodd;clip-rule:evenodd;" d="M874.6,323.1c1,4.1,3.5,8.3-0.6,12.7c-1.3-1.8-2.8-3.1-3.5-4.8
		c-6.2-15.2-12.9-30.3-18.2-45.9c-4.5-13-8.1-26.4-10.9-39.9c-2.6-12.6-3.4-25.6-5.2-38.4c-2-13.9-6-27.2-12.9-39.6
		c-3.9-6.9-12.2-11-20.5-9.6c1,4.8-1.9,7.5-4.8,10.9c-3.2,3.8-7.3,2.5-10.7,4.2c-15.9,8.4-31,17.9-45.2,29
		c-13,10.2-26.1,20.3-39.8,29.5c-12.3,8.3-25.4,15.5-38.2,23.1c-5.4,3.2-10.8,6.4-16.3,9.5c-7.3,4.2-13.7,9.7-22.1,12
		c-4.3,1.2-8.1,3.7-12.2,5.6c-1.9,0.9-3.9,1.4-6,2.2c-0.8-5.5-1.5-6.2-4.2-5c-9.9,4.7-19.8,9.2-29.8,13.8c-0.9,0.4-2.1,0.8-2.8,0.4
		c-5.5-3.1-9.1,0.4-12.1,3.9c-2.6,3.1-5,4.6-9.3,3.5c-9-2.2-17.3,1.8-25.9,3.4c-1,0.2-1.7,1.7-2.6,2.5c1.1,0.6,2.1,1.5,3.2,1.7
		c1.1,0.2,2.3-0.5,3.4-0.4c4.6,0.4,9.2,0.9,13.8,1.4c0,0.4-0.1,0.8-0.2,1.2c-2.8,1.3-5.7,2.6-8.5,4c0.2,0.6,0.3,1.1,0.5,1.7
		c4.1-0.9,8.2-2.6,12.4-2.5c4.3,0.1,8.6,1.9,12.9,2.9c0-0.6,0.1-1.8,0.2-2.9c1.1,3.5,0.5,7.3,1.8,10.4c3.3,8.3,9.3,15.7,9.3,25.3
		c0,0.6,1.2,1.3,1.9,1.9c0.6-0.7,1.5-1.2,1.9-2c0.9-1.9,1.6-3.9,2.4-5.8c0,0,0-0.1,0.1-0.1l-0.1,0.1c0.5-0.9,0.8-2.4,1.6-2.7
		c1.6-0.5,8.9,4.8,9.5,6.6c2.4,6.2,4.7,12.4,7.3,18.5c0.6,1.5,2.3,2.6,3.5,3.9c-6.3-12.1-6.9-25.3-10.7-37.8
		c1.9-0.2,3.1-0.4,4.2-0.4c10.6,0.2,19.1-5.2,26.6-11.3c8.5-7,15.6-15.7,23.6-23.4c4.2-4,9-7.4,13.6-11.1c0.4,0.4,0.8,0.9,1.2,1.3
		c-0.5,0.8-0.9,1.7-1.4,2.5c-5.6,8.8-11.6,17.4-16.8,26.4c-2.4,4.2-6.2,8.3-4.3,14.2c6.9-18.2,20-32.4,29.1-49.3
		c-3,0.5-6.1,1-8.1,2.8c-11.4,10-22.6,20.3-33.8,30.6c-8.3,7.7-17.3,13.8-29.3,14.3c-8.3,0.4-13.7-3-15.7-10.8
		c-0.2-0.9,0.2-2.5,0.8-2.9c4.4-2.9,9-5.7,13.5-8.4c5.4-3.2,11.1-6,16.3-9.6c10.4-7.1,20-15.4,30.9-21.8
		c19.6-11.5,39.5-22.7,59.9-32.7c22.4-11,41-27.6,62.2-40.3c12-7.2,22.8-16.5,34.1-24.8c1.2-0.9,3.5-0.7,4.4-1.8
		c1.9-2.2,3.2-5,4.7-7.5c0.4,0.3,0.9,0.5,1.3,0.8c-3.2,5.7-6.3,11.4-9.5,17c-2.4,4.2-1.5,7.7,2.1,9.6c0.2-2.8-0.3-6,0.8-8.5
		c2.7-6.4,6-12.5,9.3-18.6c1.7-3.1,1.6-5.4-3.2-7.4c12.5,0.9,19.9,7.6,19.3,16.7c-2.1-1.5-4-3.2-6.1-4.4c-6.3-3.6-10.6-2.1-9.4,4
		c5.6-6,9.2-0.9,13.3,2c6.4,4.4,8.9,11,10.2,18.2c2.1,12.5,4.2,25,5.9,37.5c1.4,10.4,1.5,20.9,3.5,31.2c2.2,11.7,5.8,23.2,8.9,34.8
		c2.8,10.4,5.8,20.8,8.5,31.2c2,7.9,3.5,15.8,5.5,23.7c0.5,1.9,1.5,3.9,2.9,5.1c1,0.9,3.1,0.5,4.7,0.7c0.1-0.5,0.3-1.1,0.4-1.6
		c-6.3-1.8-5.9-7.3-7-11.8c-1.9-7.9-2.5-16.1-4.6-23.9c-3.3-12.8-7.3-25.5-11.1-38.3c5.4,11.8,9.9,23.8,14.7,35.8
		c2.3,5.7,5.1,11.2,8.2,16.4c0.6,1,4.6,1.6,5.2,0.8C879.9,334.5,880.8,325.6,874.6,323.1z M558.2,310.9c-6.5-1.8-13.1-3.7-19.6-5.5
		c8.3-4.6,14.3-0.6,20.1,3.8C558.6,309.8,558.4,310.4,558.2,310.9z M567.3,330.5c-0.4,0.1-0.9,0.1-1.3,0.2
		c-1.4-4.8-2.9-9.7-4.6-15.3C566,316.9,568.4,324.7,567.3,330.5z M578.8,331c0.2-0.6,1.1-1.7,1.4-1.6c1,0.4,2.3,1,2.5,1.7
		c0.9,3.2,1.5,6.5,2.5,10.8C579.9,339.5,577.7,335,578.8,331z M574.3,334.6c-0.4,0.4-3-0.4-3.1-0.9c-0.3-2.3-0.2-4.8-0.2-7.4
		C574.8,327.5,576.5,332.5,574.3,334.6z M573.2,310c2.9-2.1,5.3-3.9,8.5-6.2C581,309.5,580.2,310,573.2,310z M585.6,306.8
		c-0.3-0.5-0.6-0.9-1-1.4c3.7-3.2,7.5-6.5,11.2-9.7c0,0,0,0,0,0v0c-0.7,0.4-1.4,0.7-2.1,1.1c-0.7,0.4-1.5,0.8-2.2,1.1
		c-1.3,0.7-2.5,1.4-3.9,2.1c-2.4-5.7,0.1-8,9.3-8.4c-0.2,0.6-0.4,1.2-0.5,1.8c-0.2,0.8-0.4,1.5-0.6,2.2c0,0,0,0,0.1,0
		c0,0-0.1,0-0.1,0.1c0,0,0,0.1,0,0.1c0,0,0,0,0,0c0.5-0.2,1-0.4,1.5-0.6c0.2-0.1,0.5-0.2,0.7-0.3c0.2-0.1,0.5-0.2,0.7-0.3
		c0.1-0.1,0.3-0.2,0.4-0.2c0.1-0.1,0.2-0.2,0.4-0.2c0,0,0,0,0.1,0c0.1,0,0.2-0.1,0.2-0.2c0.1-0.1,0.2-0.1,0.3-0.2c0,0,0.1,0,0.1-0.1
		c0.1-0.1,0.2-0.3,0.3-0.4c0.1-0.1,0.2-0.2,0.2-0.3c0.1-0.1,0.1-0.2,0.2-0.3c0.1-0.2,0.2-0.5,0.3-0.8c0-0.1,0-0.1,0.1-0.2
		c0.1-0.3,0.1-0.7,0.2-1.1c0-0.5,1-1.2,1.8-1.5c6.8-2.9,13.7-5.7,20.5-8.5c0.2,0.4,0.5,0.8,0.7,1.2
		C611.4,289.9,598.5,298.3,585.6,306.8z M689.3,242.6c8.3-5.5,16.8-10.8,24.9-16.6c10-7.1,19.8-14.5,29.4-22.1
		c11.2-8.9,22.7-17.2,35.9-23.1c3.3-1.5,6.3-3.5,9.4-5.2C756.3,198.9,726,225.5,689.3,242.6z"/>
	<path style="fill-rule:evenodd;clip-rule:evenodd;" d="M493.9,80.3c-9.8,2.1-13.3-3.5-15.5-11.7c-1.2-4.6-6-6.4-10-5.8
		c-2.2,0.3-4,4.4-5.9,6.7c-0.4,0.7-1.8,0.1-3.2-0.2c-1.3-0.3-2.7-0.2-5.3-0.4c12.2,5.6,12.6,4.5,9,9.4c-10.6-10.8-24.1-11.4-38-10.6
		c-4.1,0.2-8.4,0.6-12.5,0.1c-9.8-1.2-19.7-2.4-29.2,0.8c-9.7,3.3-20.4,5.8-28.2,11.9C340.9,91.6,324,94,306.5,98.9
		c1.6-1.3,2.2-1.8,2.8-2.3c17.2-13.1,37.1-20.8,57.5-26.9c11.5-3.4,23.2-5.8,34.8-9c7.9-2.2,15.7-4.9,23.5-7.3
		c-2.7-0.4-5.9-0.9-8.8-0.1c-9.5,2.6-18.8,5.8-28.2,8.5c-5.8,1.6-11.8,2.5-17.4,4.3c-9,2.9-18,5.9-26.6,9.7
		c-10.1,4.5-20.1,9.5-29.8,14.8c-8.3,4.5-16.2,9.8-24.2,14.8c-3,1.9-5.9,4-7.6,5.2c1.5,3,3,4.9,3.1,6.9c0,1-2.7,2-4.1,3.1
		c-3,2.3-6.3,4.3-9,7c-1.1,1.1-0.7,3.6-1,5.4c0.6,0.3,1.2,0.7,1.7,1c1.7-9.1,8.9-10.5,15.8-11.9c-0.1-1.1-0.1-1.6-0.2-2.1
		c-0.6-2.6-1.3-5.2-1.9-7.9c3.4-0.2,6.8-0.5,10.1-0.5c1.1,0,2.2,0.7,3.2,1.4c7.6,5.1,15.1,10.3,22.6,15.5c-4.7-2.3-9.3-4.7-14.1-6.9
		c-6-2.9-11.2-7.5-18.7-6.9c1.5,1.8,3.2,3,5.2,3.9c1.6,0.7,3.7,0.7,5.2,1.6c6.8,3.8,13.8,7.4,20.2,11.8c8,5.6,15,12.7,23.3,17.7
		c11.3,6.8,23.2,12.8,35.2,18.2c10.8,4.9,22.4,7.6,34.4,6.6c4.1-0.3,5.1,1.6,5.9,4.9c0.3,1.4,1.3,3.2,2.5,3.8
		c3.8,1.8,7.9,3.2,12.4,4.9c-6.3,5.6-13,6.3-20.4,3.4c3.8,3.9,8.2,4.9,13.3,3c3.4-1.3,6.6-3.1,9.9-4.6c3.3,4.2,10,5.7,14,2.4
		c1.9-1.5,3.1-4.2,3.7-6.7c0.2-0.6-2.8-2.2-4.3-3.2c-1.4-0.9-2.8-1.6-3.5-2c0.6-3.5,2.1-6.7,1.5-9.4c-2.3-9.9-5.5-19.5-7.9-29.4
		c-0.8-3.2-1.7-7.5-0.3-10.1c4.1-7.8,9.2-14.9,14-22.3c1.3-1.9,2.5-4.1,4.3-5.4c7.2-5.6,9.4-11.7,7-20.2c-0.4-1.3,0.7-3,1.1-4.6
		c1.4,1.1,3.3,1.9,4.1,3.3c1.1,2.2,1,5,2.3,7c1.1,1.7,3.8,3.9,5.1,3.6c1.8-0.5,3-3.2,4.5-5c1.1-1.3,2-3.3,3.4-3.8
		c3-1.1,6.3-1.5,10.3-2.4C495,80.9,494.4,80.2,493.9,80.3z M305.2,112.6c4.8-0.2,11.3,3.9,20.2,13.7
		C318.6,121.7,311.8,117.1,305.2,112.6z M371.5,161.5c-11-5.6-22.6-10.3-31.8-19.2c-3.8-3.7-8.5-6.3-12.7-9.6
		c-0.3-0.2-0.5-0.5-0.8-0.7c0,0-0.1-0.1-0.1-0.1c-0.1-0.1-0.3-0.3-0.4-0.5c-0.5-0.7-1-1.4-1.6-2.1c0.5,0.4,1.1,0.7,1.6,1.1
		c0.5,0.4,1.1,0.7,1.6,1.1c0.6,0.4,1.2,0.8,1.8,1.2c0.7,0.5,1.4,1,2.1,1.5c0.8,0.6,1.7,1.1,2.5,1.7c0.3,0.2,0.7,0.4,1,0.6
		c1.1,0.7,2.3,1.4,3.4,2.1c13.2,7.6,26.6,14.9,39.9,22.3c1,0.5,2,1.2,2.6,2.8C377.7,163.1,374.3,162.9,371.5,161.5z M447.2,184.3
		c1.3,0,2.6,0.4,4.2,1.3c-1.2,6-2.6,6.9-8,5.7c-2-0.5-4.1-0.9-6.2-1.4c0.9-0.6,1.7-1.3,2.6-2c0.1-0.1,0.2-0.2,0.3-0.3
		c0.2-0.1,0.4-0.3,0.6-0.5c0.2-0.1,0.4-0.3,0.6-0.4c0,0,0,0,0,0c0.3-0.2,0.6-0.4,0.9-0.7c0.1-0.1,0.2-0.1,0.3-0.2
		c0.1-0.1,0.2-0.1,0.3-0.2c0.2-0.1,0.4-0.2,0.6-0.4s0.4-0.2,0.6-0.3c0.2-0.1,0.4-0.2,0.6-0.3c0.2-0.1,0.4-0.2,0.7-0.2
		c0.2-0.1,0.5-0.1,0.7-0.1c0.2,0,0.4-0.1,0.6-0.1C446.9,184.3,447.1,184.3,447.2,184.3z M440.5,126.6c-3.8,4.9-3.9,9.9-2.2,15.5
		c2.8,9.2,5.2,18.5,7.9,27.8c1.1,3.6,1,5.9-3.6,6.9c-3.4,0.8-6.4,3.5-9.9,4.3c-4,0.9-8.4,1-11-3.4c-1.4-2.3-1.1-4,1.8-4.9
		c2.5-0.8,4.8-2.1,7.3-3c1.6-0.6,3.4-0.8,6-1.4c0,0.3,0.3-0.7,0-1.4c-2.1-4.3-1.9-8.1,1.6-11.9c2.2-2.4,0.3-8.8-3-12.2
		c-2.2-2.2-4.5-4.4-6.8-6.6c-3.7-3.5-4.4-7.8-0.5-11.2c7.2-6.4,15-12.1,22.6-18.1c0.7,0.7,1.4,1.4,2.1,2.1
		C448.7,114.9,444.9,120.9,440.5,126.6z M460.3,93.7c-4.8,2.3-9.7,4.4-14.8,5.6c-9.7,2.3-19.4,4.5-26.2,12.3
		c-3.5,4-6.4,8.8-8.5,13.7c-2.4,5.8-4.8,7.3-11,6c-3.9-0.8-8.1-0.4-12.1,0c-3.4,0.3-3.3,2.8-2.1,5.2c3,6,8.6,8.5,14.3,10.9
		c2.2,1,4.7,1.4,7.1,2c0.2-0.5,0.3-1.1,0.5-1.6c-3.6-1.5-7.4-2.8-10.9-4.6c-2.5-1.3-4.8-3-6.9-4.9c-1-1-2.1-3.2-1.7-4.1
		c0.5-1.1,2.7-2.2,4.1-2.1c3.1,0.3,6.2,1.3,9.2,2c5.7,1.3,9.3-0.6,11-6.2c3.9-13.2,12.9-21,26-24.1c6.2-1.5,12.5-2.8,18.8-4.1
		c0.2,0.3,0.4,0.5,0.6,0.8c-5.4,3.7-10.9,7.2-16.2,11.1c-5.5,4-11,8-16.1,12.5c-3.4,2.9-1.3,11.5,3.2,15.6c1.7,1.6,3.6,3,5.1,4.8
		c3.1,3.8,4.5,7.7,0.8,12.1c-1.1,1.3-1.7,3.3-2,5c-0.6,4.5-5.2,9.2-9.6,9.3c-0.6,0-1.2-1-1.2-1.1c-11.8,4.7-22.7,1.5-33.8-1.4
		c7.8-0.6,15.6-0.5,23-2c7.2-1.5,15.5-1.6,20.9-9.9c-5.5,2.5-9.9,4.5-15.8,7.1c1.3-2.9,1.9-4.4,2.5-5.8c-6.4,6.8-13.8,9.1-23.3,6.2
		c5.8-1.3,11-2.4,16.2-3.6c-0.1-0.4-0.2-0.8-0.3-1.2c-3.5,0.5-6.9,0.8-10.4,1.4c-14.5,2.3-26.9-3.3-38.3-11.2
		c-13.7-9.6-26.9-19.9-40.1-30.2c-8-6.2-16-12.1-27-10.9c-0.2-0.5-0.3-1-0.5-1.5c2.7-1.5,5.2-3.5,8.1-4.3c9.6-2.7,19.5-4.5,29-7.5
		c5.9-1.9,11.6-4.8,16.9-8.1c15.4-9.5,31.6-16.5,49.9-17.2c7.9-0.3,15.9,0.3,23.4,3.4c2.2,0.9,4.6,1.2,7.1,1c-2-1-4.1-2-6.9-3.3
		c14-2.1,26.4-1.3,37.4,7.4c2.7,2.1,1.2,4.1-0.3,6c-1.5,1.8-3,3.5-3.8,5.9c2-1.8,4-3.7,6.3-5.8C464.5,88.3,464.3,91.7,460.3,93.7z
		 M476.3,90.3c-2.4-5.9-4.8-11.9-7.5-18.6c-0.2,1.9-0.4,3.2-0.5,4.5c-0.3,0.1-0.6,0.1-0.9,0.2c-0.3-2.3-1-4.6-0.9-6.9
		c0.1-2.9,2.1-4.2,4.8-3.4c1.5,0.4,2.9,1.6,4.1,2.7C480.1,72.9,481.7,84.8,476.3,90.3z"/>
	<path style="fill-rule:evenodd;clip-rule:evenodd;" d="M748.1,699.3c-4.2-7.3-13.9-8.8-20.5-3.4c-3.2,2.6-6.4,5.3-9.8,7.7
		c-1,0.7-3,1.1-3.8,0.6c-2.4-1.8-5-3.7-6.5-6.2c-7.6-13.5-17.5-25.9-21.1-41.5c-1.2-5.2-3.9-10.2-6.6-15c-1.8-3.2-2.7-6.1-1.9-9.9
		c1.3-5.9,0.9-11.8-4-16.1c-4.4-3.8-6.6-8-6.1-13.9c0.2-1.9-0.4-3.8-0.7-5.7c-0.6,0-1.1,0-1.7,0c-0.5,1.8-1.1,3.6-1.4,5.5
		c-0.2,1.7-0.1,3.5-0.1,5.3c-3.5-15-0.1-29.3,3.9-43.6c0.9-3.3,2.3-6.8,4.6-9.2c5.9-6.1,12.5-11.6,18.8-17.3
		c5.4-4.9,10.5-10.1,12.8-18.6c-1.7,1.5-2.6,2-3.1,2.8c-4.5,6.8-10.4,12.1-16.7,17.2c-7,5.7-14.7,11.1-18,20.2
		c-1.4,3.8-2.3,7.9-3.2,11.9c-3.1,12.5-6.4,25.1-2.5,38c0.7,2.4,2.6,4.9,4.7,6.2c5.4,3.2,10.8,11,8.3,15.5
		c-2.8,4.8-0.9,7.9,0.7,11.8c0.6,1.5,0.4,3.3,0.5,4.9c0.3,11.5,5.9,21.4,10.4,31.4c3.7,8,9.3,15.2,14.1,22.7
		c1.9,3.1,3.6,6.4,5.6,9.4c1.8,2.7,4.2,3.8,7.8,2.8c2-0.6,4.5-0.1,6.6,0.6c5.5,1.8,10.2,0.5,13.3-4.4c1.4-2.3,2.6-4.6,4.6-8.1
		c0.2,2.5,0.3,3.6,0.3,4.7c-0.3,23.3-6.2,45.6-12.3,67.9c-5.4,19.5-10.2,39.2-16,58.6c-1.8,6-2.2,11.6-0.8,17.5
		c0.3,1.2,0.2,2.7-0.1,3.9c-2.8,10.6-5.8,21.1-8.5,31.7c-1.1,4.2-2.2,8.5-3.2,12.8c-1,4.2-2.1,8.3-3.1,12.5c0,0,0,0,0,0
		c1.1-1.5,2.6-2.8,3.2-4.5c2.8-7.8,5.4-15.7,7.8-23.6c3.3-10.8,6.3-21.7,9.5-32.5c0.8-2.9,1.8-5.7,3.1-9.6c-2.8,1.3-4.6,2.1-7.1,3.2
		c2.2-10.2,3.8-19.8,6.4-29.1c5.8-21,12.3-41.7,17.9-62.7c2.6-9.6,4.1-19.5,5.5-29.3c1.1-7.3,1.2-14.8,1.8-22.5
		c1.5,0.9,2.8,2,4.3,2.5c0.7,0.2,1.9-0.2,2.5-0.8C748.6,701.2,748.5,699.9,748.1,699.3z M680,649.9c5,12.3,10.1,24.6,14.9,36.3
		C687.3,675.7,681.5,663.7,680,649.9z M709.8,708.5c-2.1-2.2-4.2-4.3-6.2-6.5c0.5-0.4,1-0.7,1.5-1c1.9,2.2,3.8,4.5,5.7,6.7
		C710.5,708,710.1,708.2,709.8,708.5z M718.5,708c4.9-3.7,9.2-6.8,14-10.5C731.4,707.8,726.7,711.4,718.5,708z M693.2,910.7
		C693.2,910.7,693.2,910.7,693.2,910.7c0.1,0,0.1-0.1,0.2-0.2C693.3,910.5,693.2,910.6,693.2,910.7z"/>
	<path style="fill-rule:evenodd;clip-rule:evenodd;" d="M864,376.5c3.5,1.5,3.5,1.5,0.3,8.4c7.3-2.3,8.1-5,3.3-11.3
		c-3.9-5-3.6-6.1,2.1-8.2c-1.7,4.4,0.2,9.2,4.9,12.8c1,0.8,2.7,2.7,2.4,3.1c-1,1.5-2.4,2.9-4,4c-2,1.4-4.5,2.1-6.5,3.5
		c-6.9,5.3-9.7,12.8-11.8,21.1c-4.9,20.3-6.7,40.9-7.2,61.6c-0.2,7.1,1.6,14.2,1.6,21.3c0,5.5-1.4,11-2.2,16.5
		c-0.2,1.3-0.3,2.6-0.2,3.9c0.4,8.1,0.2,16.3,1.3,24.3c1.9,13.5,4.5,26.9,7.1,40.3c1,5,2.5,10,4.3,14.9c0.9,2.4,3.1,4.4,5.3,7.5
		c-1.6,4.6,2,9.7,3.6,15.2c0.4,1.2-0.2,2.7-0.4,4.1c-1.2-0.2-2.9-0.1-3.5-0.8c-4.1-4.6-7.6-4-10.9,0.8c-0.4,0.6-1.3,1-2,1.6
		c2,6.2,4.2,12.3,5.8,18.5c0.5,1.9-0.1,5.1-1.5,6.2c-2.7,2.2-6.2,4.4-9.4,4.5c-1.8,0.1-4.3-3.8-5.6-6.3
		c-5.2-10.4-10.1-20.9-15.1-31.4c0.8-0.4,1.6-0.7,2.5-1.1c2.2,5.2,4.2,10.5,6.6,15.5c2.5,5.2,5.2,10.3,8.2,15.2
		c1.2,2,2.3,5.3,6.1,3.2c3.4-1.9,5.5-4.4,4-8.5c-2.8-7.6-5.8-15.2-8.7-22.9c-2.6-6.8-5.4-13.6-8-20.4c-2.6-6.6-5.2-13.3-7.7-20
		c-0.5-1.2-0.5-2.6,0.4-4.3c3.7,8.8,7.4,17.6,11.3,27.1c0.1-1.6,0.1-2.5,0.2-4.3c1,1.3,1.8,2,2.1,2.8c2.2,5,4.6,10,6.5,15.1
		c1.3,3.6,3.3,3.5,6.2,2.2c1.9-0.8,4-1.2,7.1-2.2c-1.5-3.4-2.3-7.8-4.9-10.4c-5.6-5.6-8.2-12.2-9.8-19.6
		c-3.4-15.3-4.4-30.8-4.6-46.4c-0.2-18.9-0.6-37.8-0.8-56.8c0-4.6,0.8-9.2,0.9-13.9c0.2-6.5,0-12.9,0.1-19.4
		c0.4-18,4.2-35.2,12.1-51.5C858.5,387.1,861.2,382,864,376.5z"/>
	<path style="fill-rule:evenodd;clip-rule:evenodd;" d="M680.8,442.6c2.2,2.6,5.1,4.8,6.4,7.6c2.6,5.7,4.2,11.9,6.3,17.8
		c3.5,9.7,1.2,10.4-5.7,13.3c-1.2,0.5-2.4,2.2-2.7,3.6c-1.4,6.8-2.7,13.6-3.7,20.4c-0.4,2.9-1.8,3.9-4.4,4.4
		c-8.3,1.5-12.3,4.8-13.3,13c-1.9,14.9-8.3,27.8-15.2,40.8c-6.2,11.8-8,24.7-6.4,38.2c1.8,14.5,2.8,29.1,4,43.7
		c0.2,2.1-1,4.2-1.5,6.3c-1.9-1-4-1.7-5.5-3c-2.9-2.6-5.8-5.4-8.1-8.5c-1-1.4-0.6-3.9-0.8-5.9c0.5-0.1,1-0.2,1.4-0.3
		c3.2,4.2,6.4,8.3,9.6,12.5c0.6-0.2,1.2-0.5,1.7-0.7c-0.4-6.6-0.6-13.1-1.2-19.7c-1-11.1-2.6-22.1-3.2-33.2
		c-0.8-13.8,3.6-26.6,10.5-38.4c5.7-9.7,9.3-20,10.9-31.2c1.2-8.4,4.6-15.7,14.7-17c1.1-0.1,2.6-2.1,2.9-3.5
		c1.4-6.3,2.1-12.8,3.9-18.9c0.9-3,3.4-6.3,6.1-7.6c4-1.9,4.4-3.8,2.6-7.3c-0.7-1.3-1.3-2.8-1.5-4.2c-1.7-10.1-8.4-17.1-14.6-24.4
		c-1-1.2-1.1-3-1.7-4.5c1.7,0.1,3.4,0.3,5,0.4c1.7,0.1,4.3,0.8,4.8,0.1c2.9-4.3,6-8.8,7.6-13.7c1.8-5.4-1.8-10.9-7.3-11.4
		c-10.2-0.9-20.1-5.2-30.6-2.5c-3.2,0.8-6.5,1.3-9.5,2.7c-2.3,1.1-3.9,3.3-5.9,5.1c0.1,0.6,0.2,1.2,0.2,1.8c-1.2-1-3-1.8-3.5-3.1
		c-0.3-0.8,0.9-2.8,1.9-3.6c8.5-6.6,18.5-7.9,28.8-7c6.2,0.6,12.4,2.1,18.6,2.8c10.1,1.2,13.2,11.2,10.2,18.6
		c-1.3,3-2.8,6.1-4.8,8.7C686.3,437.5,683.7,439.7,680.8,442.6z"/>
	<path style="fill-rule:evenodd;clip-rule:evenodd;" d="M693.2,910.7c0.1,0.6,0.5,1.4,0.3,1.9c-2.3,8.9-4.3,17.9-7.1,26.7
		c-2.3,7.3-16.2,16.1-24.1,15.8c-6.7-0.3-13.1-1.8-18.5-6.4c-7.1-5.9-15.2-3.1-23-1.9c-0.6,0.1-1.3,1.1-1.6,1.8
		c-1.6,3.3-4.4,2.8-7.3,2.5c-2.6-0.3-5.2,0-7.8-0.1c-1.2,0-2.9,0.2-3.7-0.5c-3.1-2.7-5-1.6-6,0.9c-3.7-2-7.7-3.3-10.7-6
		c-2-1.8-3.7-5.7-3.1-8c1.9-7.6,2.6-15.8,8.8-21.8c0.4-0.4,1.1-0.6,2.3-1.2c-0.1,1.4,0,2.3-0.3,3.1c-1.6,3.6-3.5,7.1-4.8,10.8
		c-2.9,8.3-1.1,11.9,7.2,14.9c4.2,1.5,7-0.2,8-5.3c0.5-2.7,1.2-4.8,4.7-4.8c-0.1,1.6-0.3,3-0.2,4.4c0.4,3.7,2.8,6.1,6.3,5.8
		c5.1-0.4,10.3-1.4,15.1-3c1.7-0.5,2.6-3.5,4-5.2c1.3-1.5,2.8-2.8,4.3-4.2c0.7,1.8,2,3.6,2.1,5.4c0.1,3.1,1.6,4.2,4.3,5.2
		c4.8,1.7,9.5,3.6,13.9,6.1c7.2,4,15.2,1.6,19.6-5.2c3.8-5.8,4.8-10.7,1.8-17.4c-2.3-5.1,3.4-3.4,5.5-3.8c2.7-0.9,1.4-6.6,5.7-4.9
		c1.2-1.6,2.7-3.5,4.2-5.5C693.2,910.7,693.2,910.7,693.2,910.7z"/>
	<path style="fill-rule:evenodd;clip-rule:evenodd;" d="M550.1,474c-3.9,3.7-7.9,7.3-11.6,11.2c-3.3,3.5-6.1,7.4-9.3,11
		c-1,1.1-2.9,2.6-3.7,2.3c-1.2-0.5-2.3-2.4-2.6-3.9c-1.4-7.8,0.3-15.2,4.4-22c3.4-5.8,7.1-11.5,10.8-17.1c0.5-0.8,1.8-1,2.8-1.4
		c0.3,1.3,1.3,3,0.8,3.8c-1.7,2.8-4,5.3-6,7.9c-5.8,7.3-10.2,15.2-9.5,25c0,0.5,0,1,0.2,1.5c0.1,0.3,0.4,0.5,1.1,1.5
		c3.4-4.1,6.4-8.4,10.1-12c4.2-4.1,9-7.6,13.8-11.1c0.9-0.6,3-0.3,4,0.4c0.7,0.4,0.8,2.6,0.4,3.5c-2.7,5.8-5.7,11.5-8.6,17.2
		c-5.2,10.1-10.2,20.4-9,32.4c3-6,5.5-12.4,9.2-18c4.3-6.4,9.4-12.3,14.6-18.1c1.1-1.3,4.1-0.9,6.2-1.3c0.3,1.9,1.5,4.2,0.8,5.7
		c-5.2,11.8-11,23.4-16.2,35.2c-2.3,5.3-3.8,11-5.7,16.5c0.7,0.3,1.4,0.7,2.1,1c3-4,5.9-8,9-11.9c3.5-4.4,6.9-8.9,10.7-13.1
		c1-1.1,3.2-1.2,4.8-1.7c0.3,1.5,1,3,0.8,4.4c-0.6,3.9-1.6,7.8-2.5,12c1.1,0.3,2.2,0.7,3.7,1.1c-0.7,1.3-1,2.6-1.8,3.2
		c-1.2,1-2.7,1.5-4.1,2.2c-0.7-1.5-2.2-3.2-1.9-4.6c0.7-4.5,2.1-8.9,3.2-13.4c-0.4-0.3-0.9-0.5-1.3-0.8c-4.4,6-8.9,12-13.3,18.1
		c-1.4,1.9-2.4,4.1-4.1,5.6c-1.5,1.4-3.7,1.9-5.6,2.9c-0.6-2.1-1.8-4.2-1.8-6.2c0.1-8.1,4.5-14.7,8-21.7c4.3-8.6,8.2-17.4,12.1-26.1
		c0.5-1.1,0.3-2.6,0.4-3.9c-0.6-0.3-1.2-0.7-1.8-1c-3.8,4.6-8.2,8.8-11.4,13.9c-4.5,7.3-8.1,15.2-12.2,22.7c-0.7,1.2-2.3,2-3.5,2.9
		c-0.8-1.5-2.3-3-2.3-4.5c0.2-10.9,3-21.2,8.2-30.9c3.4-6.3,6.7-12.7,10-19.1C551.5,475,550.8,474.5,550.1,474z"/>
	<path style="fill-rule:evenodd;clip-rule:evenodd;" d="M452.2,283.9c-0.2-3.3-0.9-6.5-1.4-9.7h-2.1c1,8.9,1.6,17.6-5.4,24.9
		c-2.4-22.7-10.9-46.8-18.2-49.5c0.7,2,1,3.5,1.8,4.8c6.2,11.3,10.5,23.3,12.2,36.2c0.8,6,1.3,12.1-2.1,17.5
		c-4.1,6.4-8.3,12.8-13.1,18.6c-4.2,5-9,9.8-14.2,13.7c-4.1,3.1-9.3,4.9-14.1,7.2c0.2,0.4,0.4,0.9,0.6,1.3c2.2-0.6,4.4-1.3,6.6-1.9
		c-4.3,4.1-8.7,8.5-13.9,10.4c-4.9,1.7-10.7,0.7-16.1,0.9c1.4,1.7,2.9,2.7,4.6,3c11.2,1.9,22.2,2.7,31.7-5.7c1-0.9,2.5-1,3.5-1.8
		c6.9-5.1,14.8-9.4,20.4-15.6C446.4,322.9,453.7,304.8,452.2,283.9z M391.6,359c10-7,20.2-13.7,29.8-21.2c8-6.3,14.3-14,17.4-24.1
		c1.8-5.8,5.4-11.1,8.6-17.3C455.3,313.8,414.4,359.6,391.6,359z"/>
	<path style="fill-rule:evenodd;clip-rule:evenodd;" d="M817.6,365.3c-9.4,13.3-10.1,27-9.6,40.8c0.9,26.1,1.8,52.1,3.5,78.1
		c0.7,10.6,3.3,21,5.3,31.5c2,10.1,4.5,20.1,6.4,30.3c0.8,4.4,0.8,8.9,1.2,13.3c-0.8,0.1-1.5,0.2-2.3,0.3c-0.4-2-1-4-1.3-6
		c-1-6.2-1.9-12.4-3-18.6c-0.7-4.2-1.5-8.5-2.2-12.7c-2.8-15.9-6.6-31.7-8-47.7c-1.7-19.7-1.5-39.5-1.6-59.2
		c-0.1-10.7,0.6-21.5,1.4-32.2c0.3-3.9,1.7-7.7,3.2-11.4c1.8-4.6,4.2-8.9,7-14.9c1,2.4,2.2,4,2.3,5.8c1.5,20.9,2.4,41.9,7.1,62.4
		c1.1,4.7,2.8,9.2,4.9,13.8c4.7-3.6,7.4-7.6,7.5-12.9c0.2-7.3-0.2-14.6,0.2-21.9c0.8-16,1.7-32.1,2.8-48.1c0.2-2.7,1.9-5.3,3.4-7.5
		c-1.4,13.1-3.3,26.1-4.2,39.2c-0.6,9.4,0.2,18.9,0.4,28.4c0.2,7.1,1,14.4-3.8,20.5c-1.7,2.1-4.3,3.4-6.5,5.1
		c-1.6-2.2-4.3-4.1-4.7-6.5c-2.9-18.2-5.4-36.5-8-54.7C818.6,375.9,818.2,371.3,817.6,365.3z"/>
	<path style="fill-rule:evenodd;clip-rule:evenodd;" d="M410.1,183c-12.4,6.5-24.3,3-36.1-1.6c-16.7-6.4-30.6-17-44.3-28.1
		c-10.1-8.2-21.8-12.6-35.2-11.6c1.2,0.3,2.4,0.7,3.6,0.9c1.3,0.3,2.6,0.4,3.9,0.7c15.7,3.4,28.4,12.6,40.8,22.1
		c9.6,7.4,19,15.1,29,21.7c11.8,7.8,24,8,35.8-0.9c0.3,0.2,0.7,0.5,1,0.8c-0.8,1.2-1.3,2.8-2.4,3.5c-8.8,6.1-18,6.5-28,2.7
		c-14.7-5.6-25.1-17.1-37.3-26.2c-12.1-9.1-24.1-18.3-39.5-21.3c-10.9-2.1-21.6-2.2-33,1.4c3.3-5.7,9.1-3.7,14.5-6.1
		c-3.2-1.1-5.3-1.9-7.5-2.7c0-0.3,0-0.6,0-0.9c0.9-0.1,1.9-0.2,2.8-0.2c5.5,0.3,11,1.1,16.4,0.9c15-0.5,27.8,5.4,38.8,14.5
		c13.5,11.1,27.5,21,43.9,27C387.9,183.8,398.7,186.7,410.1,183z"/>
	<path style="fill-rule:evenodd;clip-rule:evenodd;" d="M643.1,909.9c-6.1,3.6-12-0.1-17.9-5.8c-1.8-1.8-5.3-2.5-8-2.4
		c-3.4,0-7,1-10.2,2.1c-6.7,2.4-8,5-6.8,12.2c0.2,1.3,0,2.8-0.4,4.1c-0.1,0.3-2.3,0.4-2.6,0c-0.8-1.3-1.1-2.8-1.5-4.3
		c-0.1-0.3,0.2-0.6,0.2-1c0.1-7.2,1.1-14.1,9.6-15.9c9.3-1.9,18.9-4.8,26.7,4.6c1.6,2,6.2,2.8,9,2.2c9-2.1,18.2-4.5,26.7-8.1
		c3.3-1.4,6.6-6.1,7.3-9.8c1.6-8.4,3.3-17.5,1.7-25.7c-2.1-11.3,0-22.1-0.1-33.2c0-3.3,0.2-6.7,0.8-9.9c0.2-1.2,1.8-2.2,2.8-3.2
		c0.6,1.3,1.8,2.8,1.6,4c-2.3,13-2.7,25.9-1.1,39.1c1.3,11.5,1.8,23.5-2.8,34.9c-2,4.9-4.9,8.5-10.4,9.8
		C659.9,905.3,652.6,907.4,643.1,909.9z"/>
	<path style="fill-rule:evenodd;clip-rule:evenodd;" d="M468,302.2c-2.1-4.3-0.5-13.6,3.2-15.7c1.4-0.8,4.8-0.7,5.7,0.4
		c3.1,3.5,6,7.4,8.1,11.6c1.7,3.3,2.7,6.5,7.4,7c1.6,0.2,4,3.1,4.1,4.9c0.8,13.7-2.1,26.3-12.2,36.5c-7.6,7.6-15.2,15.1-22.7,22.8
		c-1,1.1-1.6,2.8-1.9,4.3c-1,6-3.5,10.6-9.9,12.4c-1.5,0.4-3.1,2.4-3.7,4c-2,5.8-3.9,11.1-11.8,10.1c-1.2-0.2-3.3,1.4-3.9,2.7
		c-2.2,5.2-5.7,3.4-9,1.8c-0.9-0.4-1.2-2-1.8-3c1.1-0.3,2.3-0.7,3.4-0.7c0.9,0,1.8,0.7,3,1.3c1.2-1.5,2.1-3.1,3.4-4.2
		c1.3-1.1,3-2.2,4.6-2.2c6.1-0.1,7.8-1.5,8-7.9c0.1-4.4,0.4-7.7,6.5-5.8c3.4,1.1,7.3-3.9,6.6-8.7c-0.7-4.7,1-6.4,5.1-8.5
		c5.2-2.7,9.4-7.4,15.1-12.2c-4.9-0.9-8-1.5-11.3-2.2c2.6-3.3,9.9-3.9,12.5-1.2c11.7-9.4,15.2-22.7,16.9-36.6
		c0.2-1.3-2.2-4.2-3.4-4.2c-5.2-0.3-6.5-2.9-7.2-7.6c-0.5-3.2-2.7-6.4-4.7-9.2c-0.9-1.2-3.4-2.4-4.6-2c-1.3,0.4-2.4,2.6-2.8,4.3
		c-0.7,2.7-0.8,5.5-1.1,8.3C469.1,302.3,468.5,302.2,468,302.2z"/>
	<path style="fill-rule:evenodd;clip-rule:evenodd;" d="M617.4,436c2.3-0.1,4.6-0.1,6.9-0.3c9.7-0.9,18.9-0.8,26.9,6.4
		c7.6,6.9,10.4,16,13.3,25.1c0.3,0.9-0.8,2.2-1.3,3.3c-1-0.9-2.5-1.5-2.9-2.6c-1.4-3.9-2.1-8-3.5-11.9
		c-3.8-10.6-13.6-18.8-27.5-17.9c-0.4,3.6-5,5.3-9,3.4c-2.2-1.1-4.4-2.2-6.8-3c-3.2-1.2-3.7-3.1-1.1-5c8.5-6.2,15.9-14.3,28-14.1
		c9.1,0.1,18.2-1.3,27.3-2.4c2.7-0.3,5.1-2.2,7.7-3.1c1.2-0.4,2.6,0.1,3.9,0.2c-0.6,1.1-1.1,3.1-1.9,3.3c-7.6,1.6-15.2,3.2-22.9,4.3
		c-7.4,1.1-14.8,1.6-22.3,2.4c-0.8,0.1-1.6,0.5-2.4,1.9c5.1,0.6,10.1,1.3,15.2,1.9c7.4,0.9,14.8,1.8,22.1,2.9
		c1.1,0.2,1.9,1.7,2.9,2.6c-1.3,0.5-2.7,1.7-3.9,1.5c-9.5-1.1-19-2.4-28.5-3.8c-2.3-0.3-4.5-1.1-6.8-1.6c-5.6-1.2-9.9,1.1-13.8,4.6
		C617.3,434.8,617.3,435.4,617.4,436z"/>
	<path style="fill-rule:evenodd;clip-rule:evenodd;" d="M648.2,459.5c-13.4-9-26-10.1-33-3.7c6.2,0.7,12.5,1.1,18.6,2.1
		c9.3,1.6,17,12.7,15.4,22c-0.2,0.9-1.3,1.6-1.9,2.4c-0.6-0.7-1.5-1.2-1.8-2c-0.4-1.2-0.4-2.6-0.7-3.9c-1.1-6.2-4.4-8.9-10.9-8.8
		c1,3.2,2.3,6.4,3,9.8c0.2,1.2-1,2.8-1.6,4.1c-1.1-0.8-2.2-1.6-3.2-2.5c-1.9-1.5-3.9-3-5.4-4.1c0.4,3.7,0.9,7.1,1.3,10.5
		c-2.3-0.6-4.7-1-6.8-2c-0.4-0.2,0.4-2.9,0.8-5.3c-1.4-0.1-3.6,0-5.7-0.4c-1.4-0.2-2.7-1.1-4.1-1.7c1-1.1,1.9-3.1,3-3.3
		c5.5-0.7,11-0.8,16.3-1.2c-2.8-3.7-7.3-4.8-12.3-4.9c-2,0-4,0.6-6,0.4c-1.2-0.1-2.3-1.2-3.4-1.8c0.9-1,1.7-2.6,2.8-2.9
		c1.9-0.5,4-0.2,5.9,0c6.8,0.6,13.6,1.2,20.5,1.8c0.1-0.4,0.2-0.8,0.4-1.2c-4.5-1.1-8.9-2.5-13.4-3.3c-4.2-0.7-8.6-0.6-12.9-1.1
		c-1.1-0.1-2.4-1.2-3-2.2c-0.3-0.4,0.6-2.2,1.4-2.6c9.7-5.8,19.9-7,30.4-2.4c1.8,0.8,3.5,2,4.9,3.3
		C647.6,455.6,647.5,457.1,648.2,459.5z"/>
	<path style="fill-rule:evenodd;clip-rule:evenodd;" d="M343.4,232.4c-6.1,3.5-6.1,3.3-7.8-0.7c8.4-5.2,8.4-5.2,8.5-9
		c-11.2,6-27.6,1.9-27.7-7c-2.3-0.7-4.6-1.4-6.9-2.2c3-6.3,7.9-7.9,31.3-11.9c-2.1-0.5-4.2-1.8-6.2-1.5c-5.9,0.9-11.8,2.2-17.5,3.8
		c-9.2,2.5-13.9,12.1-10.2,20.8c1.8,4.4,4.3,8.5,6.5,12.6c0.3,0.5,1,0.9,1.6,1.1c9.2,4,18.3,3.7,26.8-1.5c4-2.4,8.4-5,10.6-11.4
		C348.6,228.6,346.2,230.8,343.4,232.4z M315.2,231.2c-4.6-3.5-6.4-7.8-6.4-13.7C313.5,218.9,315.6,223.8,315.2,231.2z M318.3,233.9
		c-0.1-3-0.1-5-0.2-8.4c4.4,1.2,7.9,2.2,11.3,3.2c0,0.4,0.1,0.9,0.1,1.3C326.1,231.2,322.6,232.4,318.3,233.9z"/>
	<path style="fill-rule:evenodd;clip-rule:evenodd;" d="M733.3,409.9c-0.8,3.7-3.9,7-6.4,10.2c-1.5,1.9-3.6,3.4-5.5,4.9
		c-8.5,6.4-5.4,14.3-1.4,22c2.1,4.1,3.1,9.5,2.6,14.1c-1.5,11.8-3.7,23.6-6.5,35.1c-1.7,7.1-5.1,13.8-7.8,20.6
		c-0.6-0.1-1.2-0.2-1.8-0.3c0.3-1.8,0.3-3.6,0.8-5.3c2.9-9.8,6.8-19.4,8.8-29.3c1.9-9.1,2.6-18.6,2.3-27.9c-0.2-5-3.3-9.9-5.5-14.7
		c-2.2-5-0.1-8.7,2.8-12.3c2.7-3.3,5.7-6.4,8.7-9.5c7.2-7.2,8.3-18.8,2.2-27.2c-2.7-3.7-5.9-7.1-9-10.8c-1.6,0.7-3.2,1.7-4.9,2
		c-6.9,1.2-10.1-0.9-11.8-7.9c-1-3.9-1.6-7.8-2.3-11.8c-0.1-0.4,0.2-0.9,0.4-2.6c2.2,2.3,3.9,4.1,5.5,5.8c-1.8-1-4.2-1.6-3.6,1.4
		c0.7,3.6,2,7.4,4,10.5c2.1,3.2,7.7,2.6,10.4-0.3c-3.1-3.3-6.3-6.7-9.4-10c3.2,2.3,6.3,4.7,9.6,6.8c1,0.6,3.1,0.7,4.1,0.1
		c4.9-3.1,7.4-7.9,8.5-13.5c0.5-2.6,1.4-5.2,2.5-7.6c-0.4,7.6-1.4,15.1-7.6,20.6c-3.2,2.8-3.2,5.3-0.2,8.4
		C730.4,389.4,735.6,398.5,733.3,409.9z"/>
	<path style="fill-rule:evenodd;clip-rule:evenodd;" d="M556.4,580.5c-8.2,0.1-15.3-1.8-21.5-7.1c-3.9-3.3-5.5-7.5-4.5-11.9
		c1.6-7.5,4.2-14.7,6.4-22.1c0.9,0.1,1.8,0.2,2.8,0.3c0,1.3,0.2,2.7-0.2,3.8c-1.7,4.7-3.9,9.2-5.2,13.9c-2.4,8.3,3.7,16.7,13.4,18.6
		c2,0.4,4,0.9,5.9,0.9c4.6-0.2,6.8,1.3,8.1,6.2c0.6,2.3,4.7,4.3,7.6,5.4c12.9,4.6,26,8.7,39,13c3.6,1.2,7.2,2.6,10.7,4.1
		c5.5,2.2,8.8,8.7,7.1,13.8c-0.2,0-0.4,0-0.5,0c-7.4-13.9-21.9-15.7-34.7-20.3c-8.9-3.2-18.1-5.6-27.1-8.4
		C558.8,589,556.2,585.4,556.4,580.5z"/>
	<path style="fill-rule:evenodd;clip-rule:evenodd;" d="M519.9,368.8c2.5,3.1,4.2,5.5,6.1,7.7c1.9,2.3,1.7,4.4-0.7,5.9
		c-2.2,1.4-4.7,2.3-7,3.5c-2-4.1,2.8-4.1,3.9-6.4c0.2-0.3,0.3-0.6,0.8-1.7c-2.1-2-4.5-4.2-6.8-6.6c-1-1-2.4-2.5-2.2-3.4
		c0.3-1.1,2-2.2,3.3-2.5c2.7-0.7,5.5-0.8,8.8-1.2c-0.7-1.1-1.3-1.8-1.7-2.6c-2.7-4.8-1.9-6.9,3.5-8.2c2.4-0.6,4.8-1.1,7.2-1.6
		c-3.5-8.6-3.5-8.6,6.3-10.2c-4.2-4-5.7-7.5,2.3-8.4c-1.2-1.6-2-2.8-3.2-4.3c2.2-1.8,4.2-3.4,7.2-5.8c-2.8-2.7-5.3-5.1-7.6-7.4
		c3.3-1.7,7.6-1,9.1,1.7c4.1,7.4,4,8.1-1.7,11.5c1.5,3.7,4.3,8.1-2.8,8.9c0.5,8.1,0.5,8.1-6.2,8.7c-0.1,0.3-0.3,0.7-0.2,0.9
		c3.6,7,3.1,7.9-4.9,8.7c-1.7,0.2-3.4,0.5-6.1,0.9c1.6,2.3,2.7,3.6,3.5,5.1c0.7,1.2,1.9,2.8,1.5,3.7c-0.4,1-2.3,1.6-3.6,1.8
		C526.3,368.3,523.8,368.4,519.9,368.8z"/>
	<path style="fill-rule:evenodd;clip-rule:evenodd;" d="M761.5,474.8c-4.1-12-9.1-23.8-12.1-36.1c-2.9-12.1-3.8-24.8-5.6-37.4
		c-1.2,2.4-2.4,4.9-3.7,7.3c-0.3-0.1-0.5-0.2-0.8-0.3c0.2-1.2,0.1-2.6,0.7-3.6c4-6.9,3.4-14.2,3.1-21.7c-0.7-17.1-0.6-34.2-0.9-51.3
		c-0.1-3.4-0.2-6.8-0.3-10.2c0.5,0,1-0.1,1.5-0.1c0.3,5.2,0.6,10.5,0.8,15.7c0.4,16.6,0.2,33.2,1.4,49.8c0.5,6.8,4.2,13.4,6.5,20.1
		c0.2,0.6,0.3,1.2-0.3,2.2c-1.3-2.7-2.6-5.5-4-8.3c-1.6,25.9,6.2,49.6,15.9,73C763.1,474.3,762.3,474.5,761.5,474.8z"/>
	<path style="fill-rule:evenodd;clip-rule:evenodd;" d="M745.7,512.9c0.7,7.2,1.1,14.5,2.2,21.6c1.1,7,3,13.9,4.2,19.6
		c1.2-8.6,2.6-18.5,4-28.5c0.4,0,0.9,0,1.3,0c-0.1,2.8,0.1,5.6-0.3,8.4c-3.5,21.8-4.1,43.6,0.2,65.4c0.3,1.5,1.1,2.9,1.1,4.3
		c0,1.5-0.6,3.1-1,4.6c-0.9-1.2-2.4-2.3-2.6-3.6c-1.4-9.4-2.4-18.8-3.7-28.2c-2-14.6-4.3-29.2-6.1-43.9c-0.8-6.5-0.7-13.2-1.1-19.8
		C744.5,512.9,745.1,512.9,745.7,512.9z"/>
	<path style="fill-rule:evenodd;clip-rule:evenodd;" d="M343.6,190.8c-10.9-3.5-17,4.6-25,7.1c-8.1,2.5-15.7,3.6-23.8,0.2
		c-4.2-1.7-8.7-3.7-14,0c14.4,7.7,11.8,20.3,10.8,32.4c-0.6,0.1-1.2,0.2-1.7,0.3c-0.1-3.5-0.5-6.9-0.3-10.4
		c0.7-13.6-3.7-19.2-17-21.4c-0.5-0.1-1-0.6-2.3-1.4c9.8-2,18.3-6.3,28-1.5c3.6,1.8,8.9,1.8,13,0.8c5.9-1.4,11.5-4,16.9-6.9
		C335.1,186.4,337.9,186,343.6,190.8z"/>
	<path style="fill-rule:evenodd;clip-rule:evenodd;" d="M781.8,447.5c-1-33.1-2-66.2-3-99.2c-0.7,0-1.4,0-2.1,0
		c0.2,10,0.4,20,0.6,30c-2-12.7-3.2-25.3-0.6-38c0.5-0.1,0.9-0.3,1.4-0.4c0.6,1.4,1.6,2.8,1.7,4.3c0.7,8.8,1.3,17.5,1.7,26.3
		c0.6,11.6,1.2,23.2,1.4,34.8c0.3,14,0.1,28.1,0.2,42.1C782.6,447.5,782.2,447.5,781.8,447.5z"/>
	<path style="fill-rule:evenodd;clip-rule:evenodd;" d="M883.6,314.2c-3.3,1.5-5.6,2.7-8,3.5c-0.7,0.2-1.8-0.8-2.8-1.3
		c0.7-0.8,1.2-2,2-2.2c3-0.6,5.3-1.6,5.6-5.3c0.1-0.9,1.6-1.6,2.5-2.4c0.7,0.8,1.7,1.6,1.9,2.5c1.4,5.6,2.6,11.3,3.7,16.3
		c-1.1,2.1-2.8,3.8-2.9,5.6c-0.9,10.4-1.3,20.7-2.1,31.1c-0.3,3.3-1.2,6.5-2.1,9.7c-0.3,1-1.5,1.9-2.5,2.5c-0.3,0.2-1.8-0.8-1.8-1.2
		c0-0.9,0.8-1.8,1.1-2.8c0.5-1.3,1-2.7,1.2-4c1.3-14.8,1.1-29.8,5.1-44.3C884.9,319.7,883.9,317,883.6,314.2z"/>
	<path style="fill-rule:evenodd;clip-rule:evenodd;" d="M570,420.5c-8.5,1.9-17.1,3.7-25.6,5.7c-15.1,3.5-26,12.7-34.1,25.4
		c-2.8,4.5-1.7,15.2,5.1,18.8c-4.1,1.8-6.3,0.7-8-3.8c-2.7-7.1-2.4-13.4,2.6-19.9c9.5-12.3,21.2-20.8,36.7-23.6
		c6.5-1.2,13-2.2,19.5-3.2c1.2-0.2,2.5,0.1,3.8,0.1C570,420.1,570,420.3,570,420.5z"/>
	<path style="fill-rule:evenodd;clip-rule:evenodd;" d="M689.1,773.9c0.3-4.6,0.1-9.2,1-13.7c2.2-11,1.1-21.8-0.2-32.7
		c-1-7.9-3.8-14.7-11.1-19c-0.7-0.4-1-1.5-0.9-3.5c1.7,0.5,3.7,0.7,4.9,1.7c4.8,3.8,7.6,8.9,9,15c3.6,16.1,3.3,32.2,0.5,48.4
		c-0.2,1.4-1.1,2.8-1.6,4.2C690.1,774.3,689.6,774.1,689.1,773.9z"/>
	<path style="fill-rule:evenodd;clip-rule:evenodd;" d="M268.4,137.9c-9.4,2.8-12.1,10.4-12,18.6c0.1,8.2,2.2,16.2,10.8,18.4
		c0.4,4.1,0.7,7.2,1.1,11.6c-1.8-1.3-3.5-2.1-4.5-3.4c-5.7-7.6-8.9-16.3-10.2-25.6c-1-7.1,2.3-13.4,6.4-18.8
		c1.3-1.8,5.1-1.6,7.8-2.4C268,136.8,268.2,137.4,268.4,137.9z"/>
	<path style="fill-rule:evenodd;clip-rule:evenodd;" d="M853.5,249.9c2.9,3.2,5.9,6.4,8.8,9.8c1.1,1.2,1.8,2.8,2.8,4.1
		c4.2,6.1,8.9,11.3,17.5,9.1c0.8-0.2,1.7,0,2.5,0.2c0.4,0.1,0.7,0.6,1.2,2.4c-4.2,0.5-8.3,1-12.9,1.6c0.4,1.7,0.9,4.1,1.4,6.5
		c-0.4,0.2-0.9,0.4-1.3,0.7c-7.1-11-14.1-22.1-21.2-33.1C852.7,250.7,853.1,250.3,853.5,249.9z"/>
	<path style="fill-rule:evenodd;clip-rule:evenodd;" d="M793.7,579.7c-0.2-5-0.6-10.1-0.5-15.1c0.1-8.4,0.5-16.9,0.7-25.4
		c1.7,0.1,3.2,0.1,3.9,0.2c2.7,9.7,5.4,19,8.3,29.4c-3.6-3.4-5.8-6.6-6.6-10.8c-0.9-4.1-1.8-8.2-2.7-12.4c-0.6,0.1-1.1,0.1-1.7,0.2
		c0.7,9.9,1.2,19.9,2.1,29.8c0.3,3.1,0.4,5.1-3.6,4.1L793.7,579.7z"/>
	<path style="fill-rule:evenodd;clip-rule:evenodd;" d="M610.3,493.7c0.2,1.6,0.1,3.3,0.5,4.9c0.9,2.8,0.6,4.3-2.4,5.9
		c-2.4,1.2-3.6,4.5-5.8,6.4c-1.6,1.4-3.9,2.1-5.9,3c-0.3-1.3-0.6-2.6-0.9-3.9c5.5-0.2,5.7-6.1,9-8.6c0.5-0.4,0.9-0.8,1.4-1.2
		c-2.6-4.1,0.6-11,5.4-11.5c1.1-0.1,2.5,0.7,3.4,1.6c1.6,1.6,3.1,3.5,4.3,5.5c0.6,1.1,0.4,2.6,0.5,4c-1.2-0.3-2.8-0.3-3.6-1.1
		c-1.5-1.4-2.6-3.4-3.9-5.1C611.6,493.5,610.9,493.6,610.3,493.7z"/>
	<path style="fill-rule:evenodd;clip-rule:evenodd;" d="M431,375.8c1-1,2-1.9,2.8-2.8c3.1-3.7,3.8-9.9,1.6-12.4
		c-3.1-3.6-7.5-4.2-11.1-1.5c-3.5,2.6-4.1,6.4-1.6,10.6c1.8,2.9,3.5,5.9,6.1,10.1c1.7,1,5,2.8,8.3,4.7c0.5-0.7,0.9-1.3,1.3-2
		C436,380.3,433.6,378.1,431,375.8z M425,366.7c-0.7-2.7-0.7-5.9,2.8-6.2c2-0.2,4.2,1.7,8,3.4c-2.6,3.5-3.8,6.8-5.9,7.6
		C426.7,372.7,425.6,369.3,425,366.7z"/>
	<path style="fill-rule:evenodd;clip-rule:evenodd;" d="M453.5,446.8c-1.1-0.9-2.6-1.5-3.2-2.6c-6.6-11-16.9-15.9-29.1-17.7
		c-3.1-0.5-6.2-1.3-9.2-2.2c-0.8-0.2-1.2-1.5-1.9-2.3c0.9-0.6,2.2-1.8,2.7-1.6c10.6,5.2,24,3.7,32.9,13c3.5,3.6,6.3,7.9,9.3,11.8
		C454.5,445.7,454,446.3,453.5,446.8z"/>
	<path style="fill-rule:evenodd;clip-rule:evenodd;" d="M364.8,339.3c0-4.6-1.5-10,0.5-13.5c2.4-4.3,1.8-9.1,4.2-13
		c0.8-1.3,3.2-2.1,5-2.2c2.6-0.1,5.3,0.8,7.9,0.7c2.3-0.1,4.5-0.9,7.4-1.5c1.6,5.7,6.3-2.3,10.2,1.5c-2.3,1.2-4.3,3.1-6.4,3.2
		c-4.7,0.2-9.6-0.1-14.3-0.9c-8.5-1.4-9-0.3-9.1,8.2c0,5.9-2.8,11.9-4.3,17.8C365.6,339.5,365.2,339.4,364.8,339.3z"/>
	<path style="fill-rule:evenodd;clip-rule:evenodd;" d="M575.6,343.1c3.1-1.4,3.7,1.1,3.7,2.9c0,3.3-0.6,6.5-0.9,9.8
		c-0.5,6.6-0.9,13.2-1.3,20.1c2.6-1.2,5.2-2.6,5.3-2.4c1.3,1.9,2.1,4.1,3.1,6.1c-2.8,0.6-4.8,1.5-6.5,1.3c-1.3-0.2-3.2-1.8-3.5-3.1
		c-1.8-8.1-2.4-16.3-0.6-24.6c0.7-3.3,0.5-6.8,0.7-10.3L575.6,343.1z"/>
	<path style="fill-rule:evenodd;clip-rule:evenodd;" d="M416.8,379.8c-0.6-1.7-1.1-3.4-1.8-5.5c2.3-2,3.6-0.6,5.1,1.7
		c2.9,4.5,6.2,8.8,9.1,13.3c0.7,1.1,0.5,2.6,0.7,4c-1.3-0.5-3.2-0.7-3.8-1.7c-2.6-3.8-4.2-7.7-10.2-7.9c-4.5-0.1-7.6-5.9-6.4-10.1
		c0.3-1.1,1.9-1.8,2.9-2.6c0.3,1.1,0.6,2.1,0.9,3.2c0.5,2.1,0.9,4.2,1.4,6.3C415.4,380.2,416.1,380,416.8,379.8z"/>
	<path style="fill-rule:evenodd;clip-rule:evenodd;" d="M445.8,340.2c-2.7-0.3-6.8,1.8-8.5,4.1c-2,2.6-3.6,6.7-0.4,10.8
		c1.1-3.8,2-7.1,2.9-10.3c0.4,0.2,0.9,0.3,1.3,0.5c0.4,1.8,0.4,3.8,1.3,5.2c1.2,1.9,3.2,4.7,4.7,4.7c2-0.1,4.8-2.1,5.8-4.1
		C456.3,344,454.7,341.3,445.8,340.2z M448.1,352.7c-1.5-1-3-2.1-5.2-3.6c1.4-2.5,2.5-4.3,3.5-6.1c1.6,1.2,4.6,2.4,4.6,3.5
		C451,348.6,449.2,350.7,448.1,352.7z"/>
	<path style="fill-rule:evenodd;clip-rule:evenodd;" d="M793.6,579.7c-2.3,3.8-5.7,4.6-8.8,2.4c-5-3.5-4.8-9.2-6.4-14.1
		c-2.2-7.1,2.5-36.4,6.7-43.6c-1.3,7.6-2.9,15.1-3.7,22.7c-0.8,7.5-1.4,15.2-0.8,22.6c0.3,3.5,3.4,7.2,6.1,9.9
		c1.2,1.2,4.6,0.2,7,0.2C793.7,579.7,793.6,579.7,793.6,579.7z"/>
	<path style="fill-rule:evenodd;clip-rule:evenodd;" d="M735,277.5c-4-0.6-4.2,1.6-4.8,4.7c-2.7,13.7,1.8,26.6,3,39.9
		c0.4,4.5,0,9-1,13.5c-0.9-9.2-1.9-18.4-2.8-27.6c-0.1-1-0.1-2.1-0.5-2.9c-4.2-9-0.7-18.2-0.4-27.3c0-1.2,1.4-3.1,2.3-3.2
		c1.4-0.2,3,0.9,4.5,1.4C735.2,276.4,735.1,277,735,277.5z"/>
	<path style="fill-rule:evenodd;clip-rule:evenodd;" d="M327.2,299.7c-7.9-1.9-12.3-7.8-14.8-14.3c-2.6-6.9-5.5-11.2-14.2-8.2
		c0.1-0.5,0.2-0.9,0.3-1.4c0.6-0.8,1.1-1.9,1.9-2.3c4.1-2,11.6,0.9,12.7,5.3c1.8,7.9,6.2,13.7,12.4,18.6
		C326.1,298.1,326.6,299,327.2,299.7z"/>
	<path style="fill-rule:evenodd;clip-rule:evenodd;" d="M501.2,67.2c1.7-1.3,3.4-3.2,4-2.9c2.1,1.1,3.9,2.8,5.9,4.3
		c-0.3,0.4-0.6,0.8-0.8,1.2c-1.3-0.5-2.5-0.9-4-1.4c-4.2,6.1,3.4,11.9,1.5,17.9c-0.6,0.1-1.2,0.2-1.8,0.4c-1.3-3.8-2.4-7.8-4.1-11.4
		c-1.6-3.4-4.1-6.4-6.1-9.7c-0.6-0.9-0.9-2.1-1.3-3.1c1.1,0.3,2.5,0.3,3.3,1C499.1,64.6,500.2,66.1,501.2,67.2z"/>
	<path style="fill-rule:evenodd;clip-rule:evenodd;" d="M405.1,411.5c-0.8-1.7-2-3.3-2.4-5.1c-1.5-7.1-2.9-14.3-4.1-21.5
		c-0.2-1.3,0.8-2.8,1.3-4.3c1,0.4,2.6,0.6,2.9,1.3c0.4,1-0.1,2.5-0.3,3.7c-0.1,1.4-0.6,2.9-0.3,4.2c1.2,5.7,2.6,11.3,3.9,17
		c0.3,1.3,0.4,2.7,0.6,4.1C406.2,411.2,405.6,411.3,405.1,411.5z"/>
	<path style="fill-rule:evenodd;clip-rule:evenodd;" d="M292.5,312.8c0.3,2.1,0.8,3.5,0.5,4.5c-1.9,5.4,1.7,6,5.1,5.3
		c4.6-0.9,9.3-2.5,13.5-4.6c1.4-0.7,1.6-3.8,2.4-5.8c3.9,1.4,4.4,3.5,0.8,6.6c-5,4.3-10.9,6.3-17.4,6.6c-6.4,0.2-8.2-2.3-6.4-8.4
		c0.2-0.6,0.1-1.3,0.3-2C291.5,314.5,291.8,314.2,292.5,312.8z"/>
	<path style="fill-rule:evenodd;clip-rule:evenodd;" d="M345.3,346.5c-5.1,11.2-17.3,16.1-25.4,12.8c-3.8-1.5-4.6-2.8-3.7-6.5
		C328.8,364.4,336.4,353,345.3,346.5z"/>
	<path style="fill-rule:evenodd;clip-rule:evenodd;" d="M422.6,392.1c-0.6,1.6-0.8,3.5-1.6,3.9c-1.1,0.4-3-0.1-3.9-0.9
		c-2.6-2.5-5.1-5.1-7.3-8c-2.8-3.7-5.2-7.7-8.6-12.7C411.3,377.8,411,391.1,422.6,392.1z"/>
	<path style="fill-rule:evenodd;clip-rule:evenodd;" d="M410.2,224.7c7,2.5,10,1.1,14.6-6.6c2.6-4.4,5.2-8.8,7.7-13.2
		c0.3,7.2-8.3,21.1-14.6,23.5C414.1,229.9,410.9,228.5,410.2,224.7z"/>
	<path style="fill-rule:evenodd;clip-rule:evenodd;" d="M520.6,398.5c-0.2,0.4-0.6,1.9-0.8,1.9c-1-0.1-2.4-0.4-2.9-1.1
		c-1.6-2.5-2.6-5.4-4.3-7.8c-0.8-1.2-2.4-1.8-3.8-2.4c-1.1-0.5-2.4-0.6-3.6-0.9c0.4-1,0.7-2.7,1.4-2.9c1.5-0.5,4-1,4.9-0.2
		c2.4,2.2,4.3,4.9,6.2,7.6C518.8,394.3,519.5,396.2,520.6,398.5z"/>
	<path style="fill-rule:evenodd;clip-rule:evenodd;" d="M478.9,418.4c2.3-1.4,3.5-2.1,4.8-2.8c0.4,0.2,0.8,0.5,1.2,0.7
		c-1.2,1.8-2.1,4.6-3.7,5c-1.6,0.4-4.3-1-5.6-2.5c-2.4-2.7-4.2-5.9-5.9-9.1c-0.4-0.8,0.3-2.2,0.4-3.4c1,0.6,2.4,1,3,1.9
		C475,411.4,476.8,414.7,478.9,418.4z"/>
	<path style="fill-rule:evenodd;clip-rule:evenodd;" d="M466.3,326.7c-1.3-2.9-3.1-5.7-3.6-8.8c-0.5-3.2,0-6.6,0.5-9.8
		c0.3-1.6,1.4-3.9,2.5-4.1c1.5-0.3,3.3,1.1,5.9,2.1c-6.5,2.4-7.2,3.8-5.8,10.8c0.6,3.1,1.7,6.1,2.5,9.1
		C467.6,326.1,467,326.4,466.3,326.7z"/>
	<path style="fill-rule:evenodd;clip-rule:evenodd;" d="M639.9,330.9c-1.3,3-2.8,6.2-4,9.5c-2.9,8.6,0.3,12.3,9.6,11.8
		c-2.1,0.8-4.4,2.5-6.1,2.1c-2.3-0.5-5-2.4-6-4.4C630.6,344.5,634.6,334.2,639.9,330.9z"/>
	<path style="fill-rule:evenodd;clip-rule:evenodd;" d="M303.9,288.8c0.2-0.1,1.6-0.6,3-1.2c-2.2,3.7-3.9,4.3-7.3,3.6
		c-2.1-0.5-4.5-0.6-6.5,0c-4.2,1.3-7.7,0.7-10.7-1.5c5.5-1.2,10.9-2.6,16.5-3.5C300.1,286,301.6,287.6,303.9,288.8z"/>
	<path style="fill-rule:evenodd;clip-rule:evenodd;" d="M674.6,340c-5.8-3.2-8.6-26.8-4.1-35.9C671.7,316.6,669.3,328.4,674.6,340z"
		/>
	<path style="fill-rule:evenodd;clip-rule:evenodd;" d="M598.9,352.3c3.5,4.9,5.3,13.4,14.1,6.1c0.2,0.6,0.4,1.2,0.6,1.8
		c-2.1,1.4-3.9,3.6-6.2,4.2c-5.4,1.3-7.5-3.1-9.5-6.9c-0.7-1.2-0.4-3-0.6-4.5C597.8,352.8,598.3,352.5,598.9,352.3z"/>
	<path style="fill-rule:evenodd;clip-rule:evenodd;" d="M720.9,485.2c1.2,1.3,2.2,2.5,3.2,3.6c0.6,0,1.1-0.1,1.7-0.1
		c0.2-8.4,0.4-16.8,0.6-25.2c0.6,0,1.1,0,1.7,0.1c-0.2,8.3-0.2,16.7-0.8,25c-0.1,1.4-2.3,2.7-3.5,4.1c-0.9-1.6-1.9-3.1-2.6-4.8
		C720.9,487.2,721,486.3,720.9,485.2z"/>
	<path style="fill-rule:evenodd;clip-rule:evenodd;" d="M515.5,331c-6.6-5.4-4.1-14.7-8.7-21C511.3,312.2,514.6,319.9,515.5,331z"/>
	<path style="fill-rule:evenodd;clip-rule:evenodd;" d="M469.9,329c1.5-2.1,2.9-4.2,4.3-6.3c1.9-2.9,3.7-5.8,5.7-8.6
		c0.5-0.8,1.8-1,2.7-1.5c0.4,0.9,1.5,2.4,1.2,2.7c-4,4.9-8.2,9.6-12.4,14.4C471.3,329.7,470.8,329.4,469.9,329z"/>
	<path style="fill-rule:evenodd;clip-rule:evenodd;" d="M466.1,432.5c-5.9-4.8-6-11.7-9.5-17.6C461.3,415.5,466.5,425.6,466.1,432.5
		z"/>
	<path style="fill-rule:evenodd;clip-rule:evenodd;" d="M468.3,345.9c0,0-0.6-0.6-0.7-1.2c-0.1-0.9-0.2-2.1,0.3-2.6
		c3.5-3.9,7.1-7.8,10.9-11.5c0.5-0.5,2.4-0.7,2.5-0.4c0.5,0.9,1,2.5,0.5,3c-3.8,4.1-7.8,8-11.7,11.9
		C469.9,345.3,469.5,345.3,468.3,345.9z"/>
	<path style="fill-rule:evenodd;clip-rule:evenodd;" d="M495.5,392.9c2.5,0.2,4.4-0.2,5.4,0.5c4,3.2,7.7,6.7,8.2,12
		c-0.4,0.3-0.8,0.6-1.2,0.9C504.2,402.3,500.5,398.3,495.5,392.9z"/>
	<path style="fill-rule:evenodd;clip-rule:evenodd;" d="M654.2,697c-5.2,2.3-9.2-2.5-11.1-14.8C646.7,687,650.3,691.8,654.2,697z"/>
	<path style="fill-rule:evenodd;clip-rule:evenodd;" d="M782.6,452.1c1.9,12,3.9,23.9,5.8,35.9c-3.9-11.6-6.7-23.3-7.2-35.6
		C781.7,452.4,782.2,452.3,782.6,452.1z"/>
	<path style="fill-rule:evenodd;clip-rule:evenodd;" d="M499.3,403.6c0.9,4.7-1.3,6.9-4.5,7.8c-4,1.1-6.8-1-9.7-5.3
		c2.2,0,4-0.5,4.6,0.1c3,3,5,2,7-1.2C497.1,404.4,498,404.2,499.3,403.6z"/>
	<path style="fill-rule:evenodd;clip-rule:evenodd;" d="M280.8,267.7c3.6-10.8,6.8-20.2,9.9-29.7
		C289.8,248.3,287.3,257.9,280.8,267.7z"/>
	<path style="fill-rule:evenodd;clip-rule:evenodd;" d="M275.3,222.4c0.9,4.2,3.1,6.8,7.2,8.3c-1.3,0-2.6,0.1-4.4,0.2
		c0.2,4.5,0.3,9,0.5,13.6c-0.4,0-0.9,0.1-1.3,0.1C276.7,237.1,276,229.7,275.3,222.4z"/>
	<path style="fill-rule:evenodd;clip-rule:evenodd;" d="M475.6,298.7c2.6,6.1,0.5,12.6-4.3,16.3c-0.5-0.2-1-0.3-1.4-0.5
		C471.7,309.8,473.4,304.9,475.6,298.7z"/>
	<path style="fill-rule:evenodd;clip-rule:evenodd;" d="M441.8,364.5c3.4,2,6.6,3.9,9.7,5.9c0.3,0.2,0.1,1.9-0.3,2.1
		c-0.7,0.4-1.9,0.5-2.6,0.1c-2.5-1.1-5-2.5-7.4-3.8c-0.6-0.3-1.3-1.2-1.2-1.8C440,366.4,440.8,365.8,441.8,364.5z"/>
	<path style="fill-rule:evenodd;clip-rule:evenodd;" d="M626.6,494.9c-0.5,0.8-0.9,1.7-1.5,1.9c-0.6,0.2-1.8,0.1-2.2-0.4
		c-2.2-2.6-4.3-5.4-6.3-8.2c-0.3-0.5-0.2-2,0.2-2.2c0.7-0.4,2.2-0.5,2.6-0.1C621.9,488.8,624.1,491.8,626.6,494.9z"/>
	<path style="fill-rule:evenodd;clip-rule:evenodd;" d="M450.3,358.9c3-3,10.8-3.6,12.9-1.4c0.5,0.5,1,1.7,0.8,2.1
		c-0.5,0.7-1.6,1.4-2.3,1.3C458,360.4,454.5,359.7,450.3,358.9z"/>
	<path style="fill-rule:evenodd;clip-rule:evenodd;" d="M596.2,517c-3.1,5.1-6.6,6.7-11.1,4.5c-0.8-0.4-1.1-1.6-1.7-2.4
		c0.8-0.4,1.5-1.2,2.3-1.3C589.2,517.4,592.6,517.3,596.2,517z"/>
	<path style="fill-rule:evenodd;clip-rule:evenodd;" d="M747.5,489.2c-0.6,6.2-1.1,12.4-1.7,18.5c-0.8-0.1-1.6-0.2-2.4-0.2
		c0.7-6.2,1.4-12.3,2.1-18.5C746.2,489.1,746.9,489.2,747.5,489.2z"/>
	<path style="fill-rule:evenodd;clip-rule:evenodd;" d="M298.9,304.2c-4.7,2.1-12.1,0.2-8.9,9.3c-0.6-0.1-1.3-0.1-1.9-0.2
		c-0.5-1.8-1.7-3.8-1.3-5.3C287.8,304,292,302.7,298.9,304.2z"/>
	<path style="fill-rule:evenodd;clip-rule:evenodd;" d="M821.7,161.3c-1.2-1.4-2.3-2.7-3.5-4.1c-0.8-1-1.5-2.1-2.3-3
		c-0.8-1-1.8-1.8-2.7-2.7c0.6-0.4,1.4-1.2,1.9-1.1c1.6,0.4,3.9,0.8,4.5,1.9c1.4,2.6,2,5.6,2.9,8.4
		C822.3,160.9,822,161.1,821.7,161.3z"/>
	<path style="fill-rule:evenodd;clip-rule:evenodd;" d="M296.7,309.4c4.2,0.1,8.4,0.2,12.8,0.4c-2.5,2.9-7.6,3.4-12.8,1.2
		C296.7,310.4,296.7,309.9,296.7,309.4z"/>
	<path style="fill-rule:evenodd;clip-rule:evenodd;" d="M696,358.7c-5.8-1.3-11.6-2.7-16-3.7C684.8,352.9,690.9,352.7,696,358.7z"/>
	<path style="fill-rule:evenodd;clip-rule:evenodd;" d="M492.1,71.3c-4-0.9-8-1.8-12-2.7c0.2-0.8,0.4-1.6,0.6-2.4
		c4,1.1,8,2.2,12,3.2C492.4,70.1,492.2,70.7,492.1,71.3z"/>
	<path style="fill-rule:evenodd;clip-rule:evenodd;" d="M583.2,525.5c0.6,4.3-0.7,6.2-3.7,6.2c-0.9,0-1.9-1.6-2.8-2.4
		C578.7,528.1,580.7,526.9,583.2,525.5z"/>
	<path style="fill-rule:evenodd;clip-rule:evenodd;fill:#FFFFFF;" d="M595.8,295.7C595.8,295.6,595.8,295.6,595.8,295.7
		C595.9,295.6,595.8,295.7,595.8,295.7C595.8,295.8,595.8,295.8,595.8,295.7C595.8,295.7,595.8,295.7,595.8,295.7z"/>
	<path style="fill-rule:evenodd;clip-rule:evenodd;fill:#FFFFFF;" d="M595.9,295.6c0,0-0.1,0.1-0.1,0.1c0,0,0,0,0,0
		C595.8,295.7,595.8,295.7,595.9,295.6C595.8,295.7,595.8,295.6,595.9,295.6c-0.8,0.4-1.5,0.8-2.2,1.1
		C594.4,296.4,595.1,296,595.9,295.6C595.8,295.6,595.9,295.6,595.9,295.6z"/>
	<path style="fill-rule:evenodd;clip-rule:evenodd;fill:#FFFFFF;" d="M324.2,129.4c-0.1-0.1-0.2-0.2-0.4-0.3l0.1-0.1
		C324,129.1,324.1,129.2,324.2,129.4z"/>
	<path style="fill-rule:evenodd;clip-rule:evenodd;fill:#FFFFFF;" d="M437.2,189.8c0,0,0.1,0,0.1,0
		C437.3,189.9,437.3,189.9,437.2,189.8L437.2,189.8z"/>
</g>
</svg>
