<svg version="1.1" id="star" xmlns="http://www.w3.org/2000/svg" xmlns:xlink="http://www.w3.org/1999/xlink" x="0px" y="0px"
	 viewBox="0 0 198.7 181.3" style="enable-background:new 0 0 198.7 181.3;" xml:space="preserve">
<style type="text/css">
	.st0{fill:#170C0D;}
	.st1{fill:#E65726;} 
	.st2{fill:#821818;}
	.st3{fill:#E76D27;}
	.st4{fill:#ED8030;}
	.st5{fill:#F49C4F;}
</style>
<g>
	<path class="st0" d="M186.4,51.6c-0.6-4.5-4-7.6-6.3-11.1c-4.4-6.4-8.9-13.3-15-17.6c-8.3-6-17.8-10.9-27.5-14.1
		c-9.1-3-18.1-6.4-28-7.7c-15.4-2-30-1.8-44,5.1c-3.1,1.5-6.9,0.7-9.4,2.9c-7.4,6.7-17.1,8.9-25.9,12.1c-6.2,2.2-8.3,5.7-10.6,11
		c-2.2,5.2-3.8,11.1-10.1,13.5c-1.9,0.7-2.7,2.6-3.5,4.6C1,63.8,2.2,78.1,0.4,92c-1.5,11.6,2.1,22.9,6.3,34
		c1.9,5.1,5.5,9.7,5.6,15.5c0,1.1,0.8,1.7,1.5,2.4c5.7,6,11.4,12,17.1,18c1.2,1.3,1.4,3.3,3.5,4c4.8,1.4,9,4.2,14.3,5
		c12.7,1.8,24.5,7,37,9.9c9.2,2.1,17.3-2.1,26-0.6c1.9,0.3,3.1-1.7,4.4-3c0.7-0.3,1.5-0.5,2.2-0.8c9.2-0.3,18.6-0.4,25.3-8.3
		c1.4-1.6,3.5-2.1,5.5-1.9c4.2,0.3,7.3-1.5,10.1-4.3c1.6-1.6,4.1-2.7,5.4-4.3c4.2-5.2,10.8-8.3,13.3-14.9c1.2-3.2,3.5-5.6,5.7-8.1
		c1.2-1.3,2-2.4,2.5-4c2.2-7.1,3.1-14.4,4.3-21.7c0.9-6,1.2-12.1,3.1-18c2.1-6.7,3.2-13.8,4.8-20.6c0.6-2.5,0.7-5.2-1-7.2
		C194,58.8,191,54.4,186.4,51.6z"/>
	<path class="st1" d="M118.3,176.3c-0.7,0.3-1.5,0.5-2.2,0.8c-1.9-2.1-4.5-1.1-6.5-0.7c-9,1.6-18,1.3-26.9,0.1
		c-6.7-0.9-13.3-2.1-18.9-6.3c0.4-1.5,0.2-3.3,2-4.2c0.9-0.4,2.6-0.6,2.2-2.1c-0.5-1.6-2.3-0.8-3.5-1.1c-1.1-0.3-1.9,0.2-2.7,0.7
		c-1.8,1-3.2,0.2-4.3-1.2c-1.4-1.6,0.1-2.3,1.1-3.1c1.5-1.2,0.7-2.7,0.4-4.1c-1.3-1.7-2.6-3.3-3.9-5c0-0.7,0-1.3,0.1-2
		c0.9-0.1,1.8-0.1,2.7-0.2c6.3,2.7,12.6,5.3,17.5,10.4c1.2,1.3,2.9,1.3,4.5,1.7c4,1,7.7-2,11.6-0.3c3.5,1.5,7.1,0.8,10.6-0.6
		c4.4-3.3-1.5-7.6,1-11.2c-1.1,0.7-2.1,1.4-3.2,2.2c-0.2,0-0.4,0-0.6,0c-0.1-0.3-0.1-0.6-0.2-0.9c-0.1-0.9,0.4-2.1-0.7-2.4
		c-0.4-0.1-1.4,0.7-1.7,1.3c-0.6,1.3,0.6,1,1.2,1.2c-1.4,1.2-1.8,3.4-3.8,4.1c-2.7-0.6-5.3-5.7-8-0.1c-2-0.1-3.4-1-4.6-2.6
		c-1.6-2.2-3.5-4.1-6.5-4.2c-1.1-0.1-2.1-0.2-2.9,0.8c-1.4-1.3-2.8-2.6-4.7-3.1c-0.1-0.2-0.2-0.5-0.2-0.7c1.2-1.9,4.6,1.3,4.7-1.7
		c0.1-2.2-1.9-3.7-4.5-3.4c-0.5-0.1-0.9-0.1-1.4-0.2c0.1-0.3,0.1-0.6,0.2-0.9c1.2-1.1,3.7-1.4,2.9-4c-0.8-2.5-2.3-4.1-5.2-4
		c0.1,1.8,0.2,3.3,0.2,4.8c-0.6,0.4-1.3,0.8-1.9,1.2c-2.2,0.1-4.3,0.2-5.9,2c-0.3,0-0.7,0-1,0c-1.4-0.1-2.6-0.5-3-2.1
		c0.8-1.9,3.9-2.5,2.8-5.6c-0.8-2.3-0.7-5-1.6-7.2c-1.3-3.1,0.1-3.9,2.8-4.1c0.3,0,0.7,0.1,1,0.1c0.6,2.6,2.1,4,4.9,3.7
		c1.6-0.2,3-0.6,2.1-2.7c1-1.1,2-2.1,3.1-3.2c0-0.6,0-1.2,0-1.8c0-1,0-2,0.1-3c0.3,0,0.6,0,0.9,0c-1.4,5.4,2,5.9,6,5.9
		c0,0.3,0,0.6-0.1,1c-1.6,0.9-3.1,1.8-4.7,2.6c-2,1-1.5,2.2-0.3,3.4c-0.1,2.3,3.4,0.8,3.3,3.1c2.4,3.2,4.6,0.3,6.9-0.1
		c0.4,0,0.7,0,1.1,0c1.3,0,2.5,0,1.9-1.9c1-0.3,1.9-0.7,2.9-1c0,1.3,0,2.6,0.1,3.8c0.1,0.6,0.4,1.4,1.2,1.2c1-0.3,0.8-1.2,0.9-2
		c1.5,0.3,3.1,0.6,5.4,1c-2.4,1.3-2,3.1-1.5,4.8c-2.1,1.5-3.4,3,0.1,4.3c1.2,0.4,2,0.4,0.7,1.7c-0.9,0.9-2.3,2-0.3,3.1
		c1.8,1,3.4-0.2,3.4-1.6c-0.1-4,3.2-5.6,5-8.3c1.8,0.5,3.1,2.1,5.2,1.9c1.2,1.5,2.5,3,4.2,5c0.6-2.8,4-3.7,2.6-6.8
		c-0.1-1.1-0.5-1.9-1.8-1.8c-1-0.7-2.1-1.5-3.1-2.2c-0.7-2.7-0.5-6.8-5.3-3.2c-1.7,1.3-2-0.8-2.7-1.7c1.7-1,2.3-3.6,5-3
		c3.3,1.2,6.6,2.3,8,6l0,0c0.4,1.2,1.1,2.1,2.4,1.8c1.3-0.3,1.2-1.3,0.6-2.2c-0.3-1.4-0.9-2.6-1.9-3.5c0-0.5,0.1-1.1,0.1-1.6
		c0.3-0.1,0.5-0.3,0.8-0.4c0.7,0,1.3,0,2,0c0,0.3,0.1,0.7,0.1,1c0.6,1.7,1.3,0.8,2,0.1c1.3-1.1,1-2.6,0.9-4.1
		c-0.1-0.3-0.3-0.5-0.4-0.8c-0.2,0.2-0.4,0.5-0.5,0.7c-0.3,0-0.6,0.1-0.9,0.2c-0.7-0.7-1.4-1.5-2.1-2.2c1.6-2.1-0.7-2-1.5-2.7
		c1.4-1.9,2-4.4,4.6-5.1c0.7,0.6,1.3,1.3,2,1.9c0.1,0.3,0.1,0.6,0.1,0.9c0.2,0.4,0.5,0.7,0.7,1.1c0.4,0.7,0.8,1.4,1.1,2.1
		c2.3,0.8,1,7.3,6,3.9c2.2-0.2,2.6,4.6,4.2,2.6c2.1-2.6-1.5-3.9-3.3-5.4c-0.3-0.2-0.5-0.4-0.8-0.6c-0.7-1.8-2.7-1.7-4-2.5
		c-0.1-0.7-0.2-1.4-0.3-2.1c-0.4-2.8,0.8-4.5,3.5-4.8c3-0.3,2.9,2.2,2.9,4.1c0.1,3.3,2.5,3.3,4.8,3.7c2.3,0.9,0.7,3.5,2.2,5.4
		c1.1-3,4.1-3.4,5.7-5.4c0.3,0,0.6-0.1,0.9-0.2c0.7-0.3,1.3-0.6,2-0.9c0.8,0.3,1.6,0.7,2.3,1c0,1.6,1,3.3-0.4,4.8
		c-1.5,0.8-2.8,1.9-3,3.7c-0.1,1.9-1.2,2.6-2.5,1.3c-3.1-2.9-2.6,0.9-3.9,1.4c1.6,1,3.2,0.5,4.4,1.7l0,0c-0.3,0.7-0.7,1.3-1,2l0,0
		c-2.9,0.5-4.3,2.1-4,5c-0.4,0.9-0.7,1.8-1.1,2.8c-0.4,0-0.7,0.1-1.1,0.1c-0.2,0-0.4,0-0.6,0c1-3.9,1.7-7.7-4.2-8
		c-0.8-1.2-1.9-1.1-3.1-0.9c0.5-0.9,1.8-1.9-0.1-2.7c-1-0.4-2.3,0-2,1.2c0.5,2.6-2.4,3.4-2.7,5.5c-1.4,0.6-2.8,1.3-4.3,1.9
		c-1-1.3-2.1-2.3-4-1.2c1.1,1.8,2.7,1,4,1.3c-5.6,2.3-5.6,2.3-1.1,6.7c0.6,0.6,1.3,0.9,2,1.3c-0.2,1-0.4,2-0.6,3
		c-1.5,0-2.8,0.4-3.3,2c-2.1,0.4-4.1,0.8-6.2,1.3c-1.1,0.2-1.7,1-1.7,2.1c0,0.3,0.5,0.8,0.9,0.9c2.7,1,6.3-1.1,7.1-4.3
		c1.4-0.1,2.8-0.1,4.3-0.2c2,1.4,4.2,0.9,6.4,1c2-0.4,3.4,0.4,4.4,2.2c-0.1,2.7-2.1,2.9-4.1,3c-0.3,0-0.5-0.1-0.8-0.1
		c-1.1-0.3-2.2-0.4-3.2-0.9c-0.8-0.3-1.4-1.5-2.2,0c-0.5,0.9-0.8,1.8,0.3,2.5c1,0.6,2,1,3,1.5c-0.1,4.4,9,11.4,13,9.4
		c2.7-1.4,5.3-1.4,8-1.3c-2.1,3.9-7.8,4.1-9.2,8.8c-0.1,0.2-1.6-0.3-2.3-0.1C128.3,172.2,122.4,171.9,118.3,176.3z M119.2,155.1
		c-1.4-0.6-2.8-1.6-4.3-1.6c-2.3,0-3.4,2.3-3.8,3.9c-0.5,1.8,1.6,1.6,2.9,1.5C116.2,158.6,118.2,157.9,119.2,155.1z M63.9,153.1
		c-0.2-0.1-0.5-0.3-0.7-0.4c-0.1,0.2-0.2,0.5-0.3,0.7c0,0.1,0.3,0.3,0.4,0.2C63.5,153.5,63.7,153.2,63.9,153.1z M113.5,142.8
		c-0.1-0.1-0.2-0.1-0.4-0.2c-0.1,0.1-0.2,0.3-0.1,0.3c0,0.1,0.2,0.1,0.3,0.2C113.4,143,113.4,142.9,113.5,142.8z"/>
	<path class="st2" d="M63.7,170.1c5.6,4.2,12.2,5.4,18.9,6.3c9,1.2,17.9,1.5,26.9-0.1c2-0.4,4.6-1.4,6.5,0.7c-1.3,1.3-2.4,3.3-4.4,3
		c-8.7-1.5-16.8,2.7-26,0.6c-12.5-2.9-24.4-8.1-37-9.9c-5.3-0.8-9.4-3.6-14.3-5c-2.2-0.6-2.3-2.7-3.5-4c-5.7-6-11.3-12-17.1-18
		c-0.7-0.7-1.5-1.4-1.5-2.4c-0.1-5.8-3.7-10.4-5.6-15.5c-4.2-11.1-7.8-22.4-6.3-34C2.2,78.1,1,63.8,6.1,50.4c0.7-2,1.6-3.9,3.5-4.6
		c6.3-2.4,7.9-8.4,10.1-13.5c2.2-5.2,4.4-8.7,10.6-11c8.9-3.2,18.5-5.5,25.9-12.1c2.5-2.2,6.3-1.4,9.4-2.9c14-6.9,28.7-7.1,44-5.1
		c9.9,1.3,18.9,4.7,28,7.7c9.7,3.2,19.2,8.2,27.5,14.1c6.1,4.4,10.7,11.3,15,17.6c2.4,3.4,5.7,6.5,6.3,11.1
		c-0.2,0.3-0.5,0.5-0.7,0.8c-3.8,0.2-6.9-0.6-8-5c-0.3-1.1-1.1-2.1-1.9-2.9c-7-6.3-11.2-15.3-18.4-21.1c-4.9-4-10.4-8.2-17.5-8.4
		c-0.9-0.3-1.7-0.7-2.6-1c-3.3-3.7-8.1-4.5-12.5-5.9c-23.3-7.6-46.1-6-68.2,4.9c-5.3,2.6-10.2,6.2-15.7,8.6
		c-3.7,1.6-7.1,3.8-9.7,6.5c-7,7.1-12.4,15.5-17.3,24.1C10,59.3,8.2,67.5,7.8,75.9C7.6,79,8.1,82.2,7,85.3c-2,5.7-1.9,11.6-0.2,17.2
		c3,10.3,4.5,21.1,9.4,30.7c2.2,4.3,3.1,10.1,9.6,10.9c0.1,0.1,0.2,0.3,0.4,0.4c-0.5,3.1,0.6,5.4,3.1,7.3c5,3.8,10,7.6,14.8,11.5
		c2.9,2.4,6,3.4,9.7,2.7l0.5,0l0.5,0C57.4,168,60,170.2,63.7,170.1z"/>
	<path class="st2" d="M118.3,176.3c4.2-4.3,10-4.1,15.2-5.6c0.7-0.2,2.2,0.3,2.3,0.1c1.5-4.7,7.1-4.9,9.2-8.8c0,0,0,0,0,0
		c4.8-0.8,9.4-2,12.9-5.7c4.7-5,10.2-9,13.7-15.5c4.7-8.7,11.7-16.5,13.2-26.5c1-6.3,3.2-12.5,2.9-19.1c-0.3-5.6-0.1-11.1,3.8-16.1
		c2.2-2.8,3.1-6.8,4.3-10.3c0.7-2,0.1-3.8-1.5-5.4c-2-1.9-2.4,0.5-3.6,1c-1,0.5-2.6,0.1-2.2-0.8c2-4.6-2.6-7.3-2.9-11.2
		c0.2-0.3,0.5-0.5,0.7-0.8c4.6,2.8,7.6,7.2,10.9,11.3c1.6,2,1.5,4.6,1,7.2c-1.6,6.9-2.7,13.9-4.8,20.6c-1.8,5.9-2.1,12-3.1,18
		c-1.2,7.3-2.1,14.6-4.3,21.7c-0.5,1.7-1.3,2.8-2.5,4c-2.2,2.4-4.5,4.9-5.7,8.1c-2.5,6.7-9.1,9.7-13.3,14.9
		c-1.3,1.6-3.8,2.6-5.4,4.3c-2.8,2.8-6,4.6-10.1,4.3c-2-0.1-4.1,0.3-5.5,1.9C136.8,175.9,127.5,175.9,118.3,176.3z"/>
	<path class="st3" d="M74,117c-3.9,0-7.4-0.5-6-5.9c-0.3-1.7-0.6-3.4-0.9-5.1c0.2,0,0.4,0.1,0.6,0.1c0.7,0,1.6,0.4,2-0.6
		c-0.6-0.2-1.1-0.4-1.7-0.5c-0.3,0.3-0.6,0.7-1,1c-0.7-0.3-1.3-0.6-2-0.9c2.6-3.3,3.3-7,3.1-11.1c2.3,1.4,4.6-0.2,6.9,0
		c0.2,4.5,4,2.9,6.3,3.6c0.6,0.2,1.3-0.6,1.1-1.3c-0.1-0.6-0.7-1.5-0.9-1.5c-2.8,0.3-4-2.9-6.5-2.8c-1-2.8,1.9-5.2,0.9-7.8
		c-2.5-6.4,1.6-9.2,6.5-11.4C80.6,70.5,77,70.4,77,67c1.5-1.3-0.2-3.9,2.1-4.9c0.7,1.8-0.5,3.9,0.9,6.1c1.8-2.1,0.8-4.3,1.1-6.2
		c0-0.3,0-0.6,0-0.9c3.9-4.6-2-3.4-3-5.1c-0.2-1.2-0.4-2.6-2-1.6c-2,1.3-3.7,2.9-1.2,5.4c1.4,1.3,1.5,3.2-0.6,4
		c-1.3,0.5-3.4,3.6-4.3-0.5c-1.4-5.5-5.1-2.5-8.1-2.1c-0.4-1-0.7-2-1.1-3c2.1-1.9,2.3-4,0.3-5.9c-2.6-2.4-3.3,1.5-5,1.9
		c-0.4-0.7-0.7-1.4-1.1-2.1l0,0c0-0.3,0-0.7,0-1c2.6-0.7,3.3-2.3,2.2-4.7c-0.8-1.7-1.4-3.5-2.2-5.3c0.6-2.7-3-0.9-3.1-2.8
		c-2.2-5.3-4.8,0-7.1,0c-0.3-1.8-0.6-3.4-0.8-4.9c3.8-3.1,9-0.7,13-3.2c-0.5,0.6-0.9,1.4-1.5,1.9c-0.8,0.7-1.5,1.4-1.2,2.5
		c0.5,1.7,1.9,0.8,2.9,1c1.6,0.3,2.9,0.1,3.9-1.4c0.7-0.3,1.4-0.7,2.1-1c1.7-0.9,3.2-0.7,4.5,0.6c3,2.8,4.7-0.7,5-1.9
		c0.4-1.7-1.1-3.8-1.7-5.8c-5.3,2.2-1.1-3.2-3-3.7c0.5-1.5,1.2-3.1,3-2.6c3.3,0.9,5.8-0.8,8.5-2.1c2.2-1.1,4-1.1,6.5-0.4
		c6.8,1.9,14-0.8,21.5,2.7c-0.9-3.5-2.9-5.1-2.7-7.6c4.7,1.8,8.1,9.4,6.5,13.9c-3-3.7-4.9,0.2-7.3,1c-1.2-3.5-4.8-6.3-6.2-4.9
		c-0.8,1.7,2.1,2.1,1.2,4.1c-5.3-0.8-6.2,7.1-13.2,5.3c5.2,3,5.8,3,8.9-0.5c0.9-1,2-2.1,3.3-1.8c1.5,0.2,0.9,1.9,1.1,2.9l0,0
		c-0.8,0.3-2.1-0.4-2,1.2c0.6-0.1,1.2-0.2,1.8-0.3c0.8,2.9,3.7,0.9,5.2,2.2c0,0,0,0.5,0,0.5c0.2,1.7,1,2.6,2.8,1.6
		c0.8-0.3,1.5-0.7,2.3-1c4-1.3,7.4-3.1,9.7-6.9c1.6-2.8,9.5-1.3,11.2,1.8c-2-1.2-3.5-0.5-5,1c-3.1-0.1-5.2,0.9-6.5,4
		c-1.3,3.3,1.4,4.6,2.8,6c1.6,1.6,3.1,3.3,4.7,4.9c-1.3,2-6.1,1.7-4.1,6c-1.2,3.4-3.5,4.6-6.9,3.9c-1.2-0.9-1.5-3.9-4.1-2
		c-0.8-2.1,1-5.8-2.1-6.2c-2.6-0.3-0.1,3.4-1.8,4.7c-0.7,0.5-1.4,1.4-1.1,2.6c0.5,0.5,1.4,1.3,1.3,1.3c-4.4,5.4-0.1,7.4,3.6,9.7
		c0.4,0.2,0.7,0.7,1.1,1c-2.9,2.6-2,6.1-2.2,9.3c-1.2,2.5,1.1,3.3,2.2,4.7c-1.3,2.3-3.2,4.2-3.5,7c-1.7-1.1-3.2-1.3-4,1
		c-0.1,0.2-0.2,0.4-0.5,0.5c-0.4,0.5-0.9,1-1.3,1.6c-2.3-0.7-4.4,3.6-6.8,0.3c1.5-2.4,5.1-3.6,4.1-7.4c1,0.2,2.1,0.5,3.1,0.7
		c-1.4,0.1-2.3,0.6-1.9,2.2c0.4,0.4,0.7,0.8,1.1,1.2c0.3-0.3,0.5-0.7,0.8-1c0.1-0.7,0.2-1.5,0.3-2.2c1.3-0.5,3.4-0.4,2.8-2.5
		c-0.5-1.6-2.3-1.9-3.8-1.4c-1.7,0.6-3.2,0.1-4.8,0c-1.8-1.8-4.4-0.8-6.4-1.9c-0.7-0.3-1.7-0.5-2.2,0.3c-0.6,1.1,0.7,1.6,1,2.5
		c-1.2,0.4-2.5,0.7-3.7,1.1c-0.4-1.7-1-3.2-3.2-3.1c-1.2,0.1-2.4,0.1-2.8,1.5c-0.5,1.8,0.5,2.8,1.9,3.6c0.6,0.7,1.2,1.3,1.9,2
		c0.2,1,0.8,1.7,1.8,2c-0.7,2.1,0,3.5,2.2,4.1c4.2,2.2,4.8,4.8,1.2,8.1c-0.2,0.2-0.2,0.6-0.3,0.9c-0.5-0.2-1.4-0.8-1.5-0.1
		c-0.2,1,0.9,0.9,1.7,0.9l0,0c-0.6,1.2-1.2,2.3-1.8,3.5c-1.8,3.2-5,4.8-8.1,6.4C76.7,113.8,76.4,117.1,74,117z M81.9,33.7
		c-0.4,0.1-1.1,0-1.1,0.2c-0.2,0.8,0.5,1,1,1.2c0.4,1.1,1.1,1.2,2.1,0.8c0.2-0.2,0.4-0.5,0.6-0.7C83.9,34.1,82.9,33.9,81.9,33.7z
		 M85,40.9c-0.8,1.4,0.1,2.3,1,3.1c0.2,0.9,0.9,2,0.6,2.8c-0.5,1.6-0.3,2.6,1.2,3.1c1.4,0.5,2.2-0.4,2.8-1.4
		c0.5-0.8,0.9-1.7,1.4-2.6c3.1,0,6.2,0,8.9-1.8c1.9-0.2,1.6,2.7,3.7,2.7c0.1-3.1-0.9-5.4-3.7-6.8c-1.9-2.4-4.7-2.3-7.3-2.6
		c-2.6,0-5.6-2.3-7.5,1.5C85.8,39.5,85.4,40.2,85,40.9z M76.1,47c0.9,0.7,1.4,2,2.8,1.8c1.5-0.2,4,1.6,4.3-1.4
		c0.3-2.4-1.2-3.5-3.7-3.2c-0.5,0.1-1-0.1-1.5-0.2c0-1,1-3-0.1-2.9c-2.5,0.1-1.4,3.8-3.7,4.8C73.6,46.1,75.2,46.8,76.1,47z
		 M98.1,57.8c-0.7,0.1-1.4,0.2-2.1,0.3c-4.9,0-4.9,0-6.6,5.5c1.8,0.8,4.4-0.3,5.5,2.3c-1.7,1.4-5.3-2.6-5.9,2.1
		c-4.1,0.4-2.7,3.2-1.8,5.1c1.5,3.2,3.2,0.5,4.9-0.1c0.8,0.2,1.9,0.7,1.6,1.5c-1.8,5.1,2.7,4.1,4.6,4.2c3.4,0.1,2.6-2.8,2.7-5.1
		c0.3-3.8-3.4-2.9-4.9-4.5c1.9-1.2,4.2-2.1,3.9-5c0.3-1.8,0.6-3.5,0.9-5.3c0.3-1.6,2.2-0.4,2.8-1.6c-0.6-1.8-3.1-2.5-3-4.9
		c0.1-1.6-0.2-3.3-2.4-2.9c-2,0.4-2.3,2.1-2.3,3.9C96.1,55.1,97.1,56.4,98.1,57.8z M76.7,102.4c-1.3,0.3-3.2-0.1-3.5,1.9
		c-0.3,1.6-0.5,3.4,0.7,4.7c1.1,1.2,2.8,0.8,4.2,1c0-3.5,3.9-2.3,5.1-4.1c0.7-1.1,0.3-2.4-1.1-2.7C80.4,102.8,78.5,102.7,76.7,102.4
		z M63.8,47.7c3.3-0.3,5.3-0.3,7.2-1.8C67.6,45,67.6,45,63.8,47.7z M108.5,41.6c0.6,2.4,2.4,2.5,4,2.8
		C111.7,42.9,111.1,41.2,108.5,41.6z"/>
	<path class="st4" d="M143,124.9c-1.2-1.2-2.8-0.6-4.4-1.7c1.3-0.4,0.8-4.3,3.9-1.4c1.3,1.2,2.4,0.6,2.5-1.3c0.1-1.8,1.4-2.9,3-3.7
		c0.4,1.4,0.3,3,2.6,2.5c1.9-0.4,1.3,1.4,1.7,2.2c-2.9,4.8-0.4,12.3,4.9,13.8c-2.5-4.4-1.3-9.7-4.2-13.7c1.7-0.9,3-2,5.3-0.5
		c2.7,1.8,7.7-1,8.6-4.3c1.1-4.4-0.1-8.3-2.6-12c1.7-0.3,3.3-0.7,5-1c0,0,0,0,0,0c0.3,1.7,1.5,2.6,3,3.1c0.3,0,0.6,0.1,0.9,0.1
		c-0.2,0.6-0.9,1.5-0.1,1.6c1,0.2,1-1,1.2-1.7c0.8-1.6,1.7-3.2,2.4-4.9c2.7-6.1,2.1-6.9-4.6-7.4c-3.3-2.6-6.5-2.1-9.6,0.4
		c1.3-1.9-5-4.8,0.8-6.1c2.1,0.4,3,4.3,6,2c1-0.7,2.1-1.5,3.1-2.2c0.6,0,1.2,0.1,1.8,0.1c-0.7,3.3,1.4,3.9,4,4c3,0.2,4-1.4,4-4.2
		c0-2.3,0.3-4.5,0.5-6.8c1.2,8.6,0.8,17-2.6,25.1c-0.8-0.7-0.3-2.6-1.7-2.5c-0.6,0-1.3,1.3-1.6,2.2c-0.3,0.8-0.5,2.3-0.1,2.7
		c1.1,0.9,2.3-0.3,3.5-0.5c0.9,3.4-0.2,6.2-2,9c-1.5-2.5-2.9-3.2-4.3,0.1c-0.6,1.3-1.2,2.7-1.8,4c-3.4-0.7-4.5,1.4-5.6,4.2
		c4.1,1.1,5.9-0.2,5.5-4.2c2.9,0,2.9-4.3,6-3.9c-1.1,5-2.5,10-6.1,13.9c-3.5-0.4-7.3,1.7-10.4-1.3c-0.8-0.7-0.8-3.2-2.5-1.7
		c-1.3,1.1-0.3,2.9,0.7,4c2.3,2.5,4.2,5.5,7.4,7c-2.9,3.1-4.3,7.7-9,9.1c0-0.7,0-1.5-0.1-2.2c0.8-0.6,1.6-1.2,2.3-1.9
		c1.4-1.3,1.9-2.7,0.6-4.3c-1.4-1.8-2.5-1.9-3.5,0.4c-0.3,0.6-1.1,0.4-1.8,0.1c-2.7-1.3-5.7-2.3-5.7-6.1c-0.3-0.4-0.7-0.8-1-1.2
		c0.3-1.4,0.5-2.9,0.8-4.5c-4.5,2.8-5.4,2.3-6-2.6C143.7,126.1,143.3,125.5,143,124.9z"/>
	<path class="st3" d="M143,124.9c0.3,0.6,0.7,1.2,0.8,1.8c0.6,4.9,1.5,5.4,6,2.6c-0.3,1.6-0.5,3-0.8,4.5c-0.5,0.9-1.5,1.8-0.4,2.9
		c0.5-0.6,1-1.2,1.5-1.8c0,3.8,3,4.9,5.7,6.1c0.7,0.3,1.5,0.5,1.8-0.1c1-2.2,2.1-2.2,3.5-0.4c1.3,1.7,0.8,3.1-0.6,4.3
		c-0.7,0.7-1.5,1.3-2.3,1.9c-0.8,0-1.6,0-2.4,0c-1.3-0.1-2.8-0.5-2.9,1.5c-0.1,1.6,1.4,1.6,2.5,1.7c0.6,0.1,1.3,0.1,2,0.1
		c-0.3,0.6-0.7,1.3-1,1.9c-5.7,0.9-5.7,0.9-5,4l0,0c-1.4,0.5-3.3,0.6-3.1,2.9c-1,1-2,2.1-2.9,3.1c0,0,0,0,0,0c-2.7,0-5.3,0-8,1.3
		c-4,2-13.1-4.9-13-9.4c1.2-0.7,1.9-1.8,2.1-3.1c0.3,0,0.5,0,0.8,0.1c4.6,6.3,9.9,1.6,14.9,0.9c2.5,0.9,5-1.9,5.3-6
		c-1.1,0.7-2.2,1.4-3.2,2.1c-4.3-1.8-4.5-4.1-0.9-6.9c0.2-3.5-4.1-2.6-4.9-5c-0.4-0.4-0.7-0.8-1.1-1.3c0.4-0.9,0.7-1.8,1.1-2.8
		c3.3-0.1,4.1-2.2,4-5c0,0,0,0,0,0C142.3,126.3,142.7,125.6,143,124.9L143,124.9z"/>
	<path class="st5" d="M163.1,89c-5.7,1.4,0.5,4.2-0.8,6.1c-0.8,1.2-1.1,2.5-1,3.9c-0.7,0.3-1.8,1-0.8,1.6c1.9,1,2.4,2.9,3.6,4.3
		c2.5,3.6,3.7,7.6,2.6,12c-0.8,3.3-5.8,6.1-8.6,4.3c-2.3-1.5-3.6-0.4-5.3,0.5c-0.2,0-0.5,0-0.7-0.1c-0.4-0.9,0.2-2.7-1.7-2.2
		c-2.3,0.5-2.3-1.1-2.6-2.5c1.5-1.5,0.4-3.2,0.4-4.8c1.4,0.5,2.7,1.2,4.1,1.6c3.6,1,5.3-2,7.2-4c1.5-1.5-0.7-2-1.6-2.7
		c-0.1-1.8-1.3-3-2.4-4.2c-0.8-0.9-1.5-1.9-0.4-3c2.6-2.7,1.2-5.8,0.8-8.8c0.1-1,0.1-1.9,0.2-2.9c1.4-1.7,3-2.2,5-1.2
		C161.7,87.6,162.4,88.3,163.1,89z"/>
	<path class="st3" d="M84.8,124.1c-1,0.3-1.9,0.7-2.9,1c-3.6-1-6.5,1.6-9.8,2c0.1-2.3-3.4-0.8-3.3-3.1c3.6-0.7,6.6-2.4,8.2-5.9
		c2-1,3.9-2.1,5.9-3.1c1.4,0.9,3,3.6,3.7-0.6c0.2-1.4,1.5-0.6,2.4-0.3c-1.3,3.1,5,6.2-1.4,9.4c3.2,0,5.1,0,7.8,0
		c-3.5-3.5-0.9-8.4-4.4-11.4c0.1-1.1-0.2-2.5,1.2-2.9c1.3-0.3,1.5,0.9,1.6,1.9c0.2,2,1.5,2.3,3.1,2c-0.2,3.5-1.7,7.2,2,9.9l0.1,0.1
		c0.7,0.9,1,3,2.7,1.7c4.7-3.6,4.5,0.5,5.3,3.2c-1.6,1.6-1.8,3.7-1.9,5.9c-2,0.3-3.4-1.3-5.2-1.9c-0.1-1.9-0.5-4-2.6-4.2
		c-2.3-0.2-3.3,1.4-3.5,3.8c-0.2,1.6-1.6,2-2.8,1.4c-0.5-1.8-0.9-3.5,1.5-4.8c-2.3-0.4-3.9-0.7-5.4-1
		C86.6,125.9,87.9,123.3,84.8,124.1z M84.6,120.7c-0.1-0.3-0.2-0.5-0.3-0.8c-0.2,0.1-0.6,0.2-0.7,0.4c-0.1,0.2,0.2,0.5,0.3,0.8
		C84.1,121,84.3,120.8,84.6,120.7z"/>
	<path class="st3" d="M67.4,143.9c1.9,0.5,3.3,1.8,4.7,3.1c1.7,1.3,0.4,4.5,3.2,5.1c3.9,2.9,8.4,3.5,13,3.7c1.9,1.3,3.9,1.9,6,0.3
		c2.3,1.7,6.7-2.3,7.8,2.9c-3.5,1.5-7.1,2.1-10.6,0.6c-4-1.7-7.7,1.4-11.6,0.3c-1.6-0.4-3.3-0.4-4.5-1.7
		c-4.9-5.1-11.2-7.7-17.5-10.4c0.7-1.3,1.3-2.7,2-4C62.3,144.4,64.8,146.8,67.4,143.9z"/>
	<path class="st4" d="M118,107c-2.6,0.7-3.2,3.3-4.6,5.1c-1-0.6-1.2,0-1.4,0.8c-1,1.2-1,2.7-1,4.1c0.5,1.2,0.9,2.5,2.1,3.3
		c0,0.5-0.1,1.1-0.1,1.6c-0.4,1.3-0.7,2.7-1.1,4c-1.3-3.7-4.7-4.8-8-6c2.4-0.9,1.1-2.6,0.9-4.1c0-1.4,1.1-3.3-0.4-4.2
		c-3.3-1.9-2.3-5.6-1.1-6.6c1.7-1.4,3.1-6.5,7-2.7c0.2,0.1,0.9-0.3,1.3-0.5c2.8,0.4,5.8,0,8.1,2C119.3,105,118.7,106,118,107z"/>
	<path class="st3" d="M56,118c-2.6,0.2-4,1-2.8,4.1c0.9,2.3,0.8,4.9,1.6,7.2c1.1,3.1-2.1,3.6-2.8,5.6c-0.4,0-0.7,0-1.1,0.1
		c-4.9-2.4-7.8-6.1-7.1-11.8c0-1.7,0-3.4,0.1-5.1c0.4,0,0.8-0.1,1.2-0.1c1.1,1.2,0.7,3.6,3.5,4.2c-1.8-3.5,1.2-6.1,1-8.8
		c-0.4-4.4,3.3-5,5.1-7.3c1.4,1.4,1.1,3.2,1.2,5c-1,1.7,0,3.4,0,5.1C56,116.8,56,117.4,56,118z"/>
	<path class="st4" d="M135.1,112c-2.2-0.4-4.7-0.3-4.8-3.7c-0.1-1.9,0.1-4.4-2.9-4.1c-2.7,0.3-4,2.1-3.5,4.8
		c-0.6-0.4-1.3-0.7-1.9-1.1c-0.3-1.4-0.6-2.7-0.9-4.1c0.7-0.7,1.3-1.4,2-2c2.2,0.1,2.9-1.1,2.9-3c3.1,0.2,6.2,1.9,9.2,0
		c0.3,0.5,1,1.5,1,1.5c3.1-2,2.6,0.8,3,2.3C137,105.4,136.4,108.9,135.1,112z"/>
	<path class="st4" d="M143,141.1c-3.5,2.8-3.4,5.2,0.9,6.9c-0.7,1.3-1.3,2.6-2,3.9c-5,0.7-10.3,5.3-14.9-0.9c2-0.1,4-0.3,4.1-3
		c1.7-2.6,3.4-5.2,6-7.1C139,142.2,141,140.7,143,141.1z"/>
	<path class="st4" d="M63.7,170.1c-3.7,0.1-6.3-2.1-9-4.1c0.8-3.1-0.4-5.6-2.6-7.6c-0.2-6.1,3.9-3.5,6.9-3.4
		c0.3,1.4,1.2,2.8-0.4,4.1c-1,0.8-2.5,1.5-1.1,3.1c1.1,1.4,2.5,2.2,4.3,1.2c0.9-0.5,1.6-1,2.7-0.7c1.2,0.3,3-0.5,3.5,1.1
		c0.5,1.5-1.2,1.7-2.2,2.1C63.8,166.8,64,168.5,63.7,170.1z"/>
	<path class="st4" d="M51,135c0.4,0,0.7,0,1.1-0.1c0.4,1.5,1.6,2,3,2.1c-1.5,1.7,4.3,5.7-1.9,6c-1.1-1.7-2.2-3.3-3.5-5.3
		c-0.2,3.7-0.2,3.7,3.4,5.3c1.4,1.6,0.4,1.9-1,1.9c-0.4-0.1-0.9-0.1-1.3-0.2c-2.8-0.3-5.1-3.4-8.6-1c-1.8,1.3,0.3,4-2.4,4.3
		c-2.6-2.6-1.4-6-1.9-9c0.7,0.2,1.5,0.3,2.2,0.6c0.9,0.4-0.3,2.8,1.7,2.1c1.8-0.7,2-2.3,1.2-4C45.3,135.8,48.7,137.1,51,135z"/>
	<path class="st3" d="M135.1,112c1.3-3.1,1.9-6.6,4.1-9.4c0.9,0,1.8,0.1,2.7,0.1c1.2,1.4,2.3,2.7,4.2,3.2c0.7,1.7,0,3.3-0.1,5
		c-0.7,0.3-1.3,0.6-2,0.9c-0.1-0.7,0.1-1.9-1.1-1.4c-0.8,0.3-0.3,1.1,0.2,1.6c-1.7,2-4.6,2.3-5.7,5.4
		C135.8,115.6,137.4,113,135.1,112z"/>
	<path class="st4" d="M91,132.8c1.2,0.7,2.6,0.3,2.8-1.4c0.3-2.4,1.3-4,3.5-3.8c2.1,0.2,2.5,2.3,2.6,4.2c-1.8,2.6-5.1,4.3-5,8.3
		c0,1.4-1.6,2.6-3.4,1.6c-2-1.1-0.6-2.1,0.3-3.1c1.2-1.3,0.4-1.2-0.7-1.7C87.6,135.9,88.9,134.3,91,132.8z"/>
	<path class="st5" d="M55.9,116.2c0.1-1.7-0.9-3.4,0-5.1c0.7,0.1,1.4,0.1,2.1,0.2c0.6,0,1.3-0.1,1.9-0.1c1,0.6,2,1.2,3,1.8
		c1.3,0.4,2.7,0.7,4,1.1c0,0.6,0,1.2,0,1.8c-1.5,0.6-2.9-1.5-4.7-0.4c0.6,1.2,1.1,2.4,1.6,3.5c1,2.2-0.4,2.6-2.1,2.7
		c-2.8,0.3-4.3-1.1-4.9-3.7c0.8-0.7,2.4-1.3,1.4-2.6C57.8,114.5,56.9,116.1,55.9,116.2z"/>
	<path class="st3" d="M58.9,155c-2.9-0.2-7-2.8-6.9,3.4c-1.3-0.3-2.6-0.6-3.9-0.9c-2.8-3.1-0.6-6.3-0.1-9.5c0-0.3,0-0.6,0-0.9
		c0.7,0,1.4-0.1,2-0.1l0,0c0.6,1.4,0.2,3.7,2.9,3.2c0.4-0.1,0.8-0.1,1.2-0.2l0.5,0l0.5,0C56.3,151.7,57.6,153.3,58.9,155z"/>
	<path class="st4" d="M145.9,111c0.1-1.7,0.8-3.3,0.1-5c0.3-1,1-1.7,2-2.1c0.3,1.1,1,1.7,2,2l0,0c0,0.9,0,1.9,0,2.8
		c0.6,0.9,1.5,1.2,2.6,1.1l0.1-0.1c0.5,0.4,1,1.2,1.4,1.1c1-0.2,0.9-1.2,1-2c1-0.7,2-1.3,3-2c0.9,0.7,3.1,1.1,1.6,2.7
		c-1.9,2-3.6,5-7.2,4c-1.4-0.4-2.7-1-4.1-1.6C147.5,111.7,146.7,111.4,145.9,111z"/>
	<path class="st3" d="M120,140c-0.7-0.4-1.4-0.8-2-1.3c-4.6-4.4-4.6-4.4,1.1-6.7l0,0c1.4-0.6,2.8-1.3,4.3-1.9
		c-1.1,2.8-1.3,5.3,2.4,6.3c0.2,0.1,0.3,0.5,0.5,0.8C124.5,139,121.5,137.9,120,140z"/>
	<path class="st4" d="M88.2,155.8c-4.6-0.2-9.1-0.8-13-3.7c-0.1-2-0.2-4-0.3-6c3,0.1,4.9,2,6.5,4.2c1.2,1.6,2.6,2.5,4.6,2.6
		C87.2,153.5,87.9,154.5,88.2,155.8z"/>
	<path class="st4" d="M102,158.9c-1-5.2-5.4-1.2-7.8-2.9c-0.1-1-0.2-2-0.3-3c2-0.7,2.4-2.9,3.8-4.1c0.4,0,0.8,0,1.2-0.1
		c0.1,0.3,0.2,0.6,0.2,0.9c-0.2,1.1-1,2.2,0.4,3c0.2,0.1,0.7-0.1,0.8-0.3c0.5-1-0.3-1.9-0.6-2.7c1.1-0.7,2.1-1.4,3.2-2.2
		C100.5,151.3,106.4,155.6,102,158.9z"/>
	<path class="st5" d="M120,140c1.6-2.1,4.5-1.1,6.2-2.8c0.2,0,0.4,0,0.5-0.1c0.1,0.6,0.3,1.2,0.4,1.8c-0.1,2.3-0.3,4.6-0.4,6.8
		c-2.2-0.1-4.4,0.4-6.4-1c-0.3-0.6-0.6-1.2-1-1.9C119.5,142,119.7,141,120,140z"/>
	<path class="st3" d="M126.7,145.8c0.1-2.3,0.3-4.6,0.4-6.8c3.1,1.8,6.8,0.1,9.9,1.9c-2.5,1.9-4.3,4.4-6,7.1
		C130.1,146.2,128.7,145.5,126.7,145.8z"/>
	<path class="st4" d="M63,113c-1-0.6-2-1.2-3-1.8c0.5-1.1,0.6-2.1,0-3.2c-0.2-4.2,1.9-4.3,5-2.9c0.7,0.3,1.3,0.6,2,0.9
		c0,0,0,0.1,0,0.1c0.3,1.7,0.6,3.4,0.9,5.1c-0.3,0-0.6,0-0.9,0C64.2,108.6,64.5,112.7,63,113z"/>
	<path class="st4" d="M105.1,133.8c0.1-2.1,0.3-4.2,1.9-5.9c1,0.7,2.1,1.5,3.1,2.2c0.1,1.1,0.8,1.6,1.8,1.8c1.3,3.1-2.1,4-2.6,6.8
		C107.6,136.8,106.4,135.3,105.1,133.8z"/>
	<path class="st3" d="M52,145c1.5,0,2.5-0.3,1-1.9l0.1-0.1c6.2-0.3,0.4-4.3,1.9-6c0.3,0,0.7,0,1,0c1.9,1.1,3.2-0.9,4.9-0.8
		c0,0.9,0,1.8-0.1,2.7c-0.5,0.2-1.5,0-1.3,0.7c0.2,0.6,1-0.1,1.5-0.4c1.9,2.1,1.4,3.4-1.3,4.1c-1.7-0.9-2.2,0.8-3.1,1.6
		C55.2,145.9,53.7,146.7,52,145z"/>
	<path class="st4" d="M126.7,137.1c-0.2,0-0.4,0.1-0.5,0.1c-0.2-0.3-0.3-0.8-0.5-0.8c-3.7-1-3.5-3.5-2.4-6.3
		c0.2-2.1,3.1-2.9,2.7-5.5c-0.2-1.2,1-1.6,2-1.2c1.9,0.8,0.5,1.8,0,2.7c0,0.4-0.1,0.7-0.1,1.1C125.2,130.2,127,133.8,126.7,137.1z"
		/>
	<path class="st4" d="M60.9,138.8c0-0.9,0-1.8,0.1-2.7c0.5-0.2,1.1-0.4,1-1.1c0.6-0.4,1.3-0.8,1.9-1.2c0.7,1.1,1.4,2.1,2.1,3.2
		c0,0.3-0.1,0.6-0.2,0.9c-0.8-0.2-1.8-0.9-2.2,0.2c-0.5,1.2,0.6,2.1,1.4,3c0.7,0.7,1.4,1.4,2,2.1c0.1,0.2,0.2,0.5,0.2,0.7
		c-2.5,2.9-5,0.5-7.5-0.1c0-0.2,0-0.4,0-0.6c2.7-0.7,3.2-2,1.3-4.1L60.9,138.8z"/>
	<path class="st5" d="M94,153.1c0.1,1,0.2,2,0.3,3c-2.1,1.6-4.1,1-6-0.3c-0.3-1.3-1.1-2.2-2.3-2.8C88.7,147.4,91.3,152.5,94,153.1z"
		/>
	<path class="st4" d="M131.1,127c6,0.2,5.2,4,4.2,8c-0.5,0.1-0.9,0.1-1.4,0.2c-0.5-2.7-4.1-1.8-4.9-4.2c0.6-0.4,1.5-0.5,1.4-1.4
		c0-0.2-0.8-0.2-1.3-0.3c-0.1-0.4-0.2-0.7-0.4-1.1C129.6,127.7,130.4,127.3,131.1,127z"/>
	<path class="st4" d="M119.2,155.1c-1,2.8-3,3.5-5.2,3.8c-1.2,0.2-3.3,0.3-2.9-1.5c0.4-1.6,1.5-3.9,3.8-3.9
		C116.3,153.5,117.8,154.5,119.2,155.1z"/>
	<path class="st3" d="M66,137c-0.7-1.1-1.4-2.1-2.1-3.2c-0.1-1.5-0.2-3-0.2-4.8c3-0.1,4.4,1.5,5.2,4C69.8,135.6,67.2,135.8,66,137z"
		/>
	<path class="st4" d="M77.1,118.1c-1.6,3.5-4.5,5.2-8.2,5.9c-1.2-1.2-1.7-2.4,0.3-3.4c1.6-0.8,3.2-1.7,4.7-2.6
		C74.9,118,76,118,77.1,118.1z"/>
	<path class="st3" d="M116,145c-0.8,3.1-4.4,5.3-7.1,4.3c-0.4-0.1-0.9-0.6-0.9-0.9c0-1.1,0.7-1.8,1.7-2.1
		C111.9,145.8,113.9,145.4,116,145C116,145,116,145,116,145z"/>
	<path class="st3" d="M105,115.9c0.1,1.5,1.5,3.2-0.9,4.1c-2.6-0.6-3.3,2.1-5,3c0,0-0.1-0.1-0.1-0.1c0-2.4,0.4-4.8,1.2-7
		C101.8,117,103.4,116.3,105,115.9z"/>
	<path class="st5" d="M59.8,143.2c0,0.2,0,0.4,0,0.6c-0.7,1.3-1.3,2.7-2,4c-0.9,0.1-1.8,0.1-2.7,0.2c-0.3,0.7-0.7,1.3-1,2
		c-0.4,0.1-0.8,0.1-1.2,0.2c0-1.9-1-2.9-2.9-3.2c0,0,0,0,0,0c-0.1-0.4-0.1-0.7-0.2-1.1c0.3-0.3,0.6-0.6,0.9-1
		c0.4,0.1,0.9,0.1,1.3,0.2c1.7,1.7,3.2,0.9,4.7-0.3C57.6,144,58.1,142.3,59.8,143.2z"/>
	<path class="st3" d="M128,117c-5.1,3.4-3.7-3.1-6-3.9c0.7-0.6,1.4-1.2,2.1-1.9c1.3,0.9,3.3,0.7,4,2.5
		C126.6,114.8,126.2,115.9,128,117z"/>
	<path class="st5" d="M67.1,143.2c-0.7-0.7-1.4-1.4-2-2.1c1.1-0.7,1.9-1.6,2.2-2.9c2.6-0.4,4.6,1.1,4.5,3.4
		C71.7,144.5,68.3,141.3,67.1,143.2z"/>
	<path class="st4" d="M128,117c-1.8-1.1-1.4-2.2,0.1-3.3c0.3,0.2,0.6,0.4,0.8,0.6c1.8,1.4,5.4,2.7,3.3,5.4
		C130.6,121.6,130.2,116.8,128,117z"/>
	<path class="st4" d="M72.1,127c3.3-0.4,6.2-3,9.8-2c0.6,1.8-0.6,1.9-1.9,1.9c-0.4,0-0.7,0-1.1,0C76.7,127.3,74.5,130.2,72.1,127z"
		/>
	<path class="st5" d="M77.1,118.1c-1.1,0-2.1-0.1-3.2-0.1c0.1-0.3,0.1-0.6,0.1-1c2.4,0.1,2.8-3.2,5.2-3.1c1.3,0.3,2.8-0.3,3.8,1
		C81,116,79,117,77.1,118.1z"/>
	<path class="st4" d="M126.2,150.9c-0.3,1.3-1,2.4-2.1,3.1c-1-0.5-2-0.9-3-1.5c-1.1-0.7-0.8-1.5-0.3-2.5c0.8-1.5,1.4-0.3,2.2,0
		C124,150.5,125.1,150.6,126.2,150.9z"/>
	<path class="st3" d="M111.1,117.1c-0.1-1.5-0.1-2.9,1-4.1c0.4,1.5,1.3,2.2,2.9,1.9c0.7,0.7,1.4,1.5,2.1,2.2c-0.4,1-0.8,1.9-1.1,2.9
		c-0.7,0-1.3,0-2,0C114.7,117.4,112.7,117.4,111.1,117.1z"/>
	<path class="st4" d="M142,127c0.2,2.9-0.7,4.9-4,5C137.7,129,139.1,127.4,142,127z"/>
	<path class="st4" d="M84.8,124.1c3.1-0.8,1.7,1.8,2.3,3c-0.1,0.7,0,1.7-0.9,2c-0.8,0.2-1.2-0.5-1.2-1.2
		C84.8,126.6,84.9,125.3,84.8,124.1z"/>
	<path class="st5" d="M124.1,111.2c-0.7,0.6-1.4,1.2-2.1,1.9c-0.4-0.7-0.8-1.4-1.1-2.1c-0.2-0.4-0.5-0.7-0.7-1.1
		c0-0.3,0-0.6-0.1-0.9c0.6-0.3,1.3-0.6,1.9-0.9c0.6,0.4,1.3,0.7,1.9,1.1C123.9,109.8,124,110.5,124.1,111.2z"/>
	<path class="st5" d="M74.9,146.1c0.1,2,0.2,4,0.3,6c-2.8-0.6-1.5-3.8-3.2-5.1C72.8,145.9,73.8,146,74.9,146.1z"/>
	<path class="st3" d="M122,108.1c-0.6,0.3-1.3,0.6-1.9,0.9c-0.7-0.6-1.3-1.3-2-1.9c0.7-1,1.3-2,2-3c0.3,0,0.7,0,1,0
		C121.3,105.4,121.6,106.7,122,108.1z"/>
	<path class="st3" d="M63,113c1.5-0.3,1.2-4.4,4-1.9c0,1,0,2-0.1,3C65.7,113.7,64.3,113.3,63,113z"/>
	<path class="st3" d="M67.3,138.1c-0.3,1.3-1.1,2.3-2.2,2.9c-0.8-0.9-1.8-1.7-1.4-3c0.4-1,1.4-0.4,2.2-0.2
		C66.3,138,66.8,138.1,67.3,138.1z"/>
	<path class="st4" d="M116,120c0.4-1,0.8-1.9,1.1-2.9c0.3-0.1,0.6-0.1,0.9-0.2c0.3,0,0.7,0.1,1,0.1c0.1,1.5,0.3,3-0.9,4.1
		c-0.7,0-1.3-0.1-2-0.1C116,120.7,116,120.3,116,120z"/>
	<path class="st5" d="M62,135c0.1,0.8-0.5,0.9-1,1.1c-1.7-0.1-3,2-4.9,0.8C57.7,135.2,59.8,135.1,62,135z"/>
	<path class="st3" d="M63.9,119.1c-0.5-1.2-1.1-2.3-1.6-3.5c1.8-1.1,3.1,1,4.7,0.4C66,116.9,65,118,63.9,119.1z"/>
	<path class="st5" d="M115,114.9c-1.6,0.3-2.5-0.4-2.9-1.9c0.2-0.8,0.4-1.4,1.4-0.8C114.2,112.9,116.5,112.8,115,114.9z"/>
	<path class="st3" d="M119,132c-1.3-0.2-2.9,0.6-4-1.3C116.9,129.7,118,130.6,119,132C119,132,119,132,119,132z"/>
	<path class="st3" d="M112,126c0.4-1.3,0.7-2.7,1.1-4c1,1,1.7,2.1,1.9,3.5C114,125.7,113,125.9,112,126L112,126z"/>
	<path class="st3" d="M119.3,143c0.3,0.6,0.6,1.2,1,1.9c-1.4,0.1-2.8,0.1-4.3,0.2c0,0,0,0,0,0C116.6,143.4,117.8,143,119.3,143z"/>
	<path class="st4" d="M55.9,116.2c0.9-0.1,1.8-1.7,2.5-0.8c1,1.3-0.6,1.9-1.4,2.6c-0.3,0-0.7,0-1-0.1C56,117.4,56,116.8,55.9,116.2z
		"/>
	<path class="st3" d="M99,148.9c-0.4,0-0.8,0-1.2,0.1c-0.7-0.2-1.9,0.1-1.2-1.2c0.3-0.6,1.3-1.4,1.7-1.3
		C99.4,146.9,98.9,148.1,99,148.9z"/>
	<path class="st5" d="M111.1,117.1c1.7,0.3,3.6,0.3,2.9,2.9c-0.3,0.1-0.5,0.3-0.8,0.4C112,119.6,111.6,118.3,111.1,117.1z"/>
	<path class="st4" d="M137,134.8c0.4,0.4,0.7,0.8,1.1,1.3c-1.4,1-2.7,2.9-4-0.1c0.6-0.4,1.3-0.7,1.9-1.1
		C136.2,134.9,136.6,134.8,137,134.8z"/>
	<path class="st4" d="M112,126c1-0.2,2-0.3,3-0.5c0.5,1,0.7,1.9-0.6,2.2C113.1,128.1,112.4,127.2,112,126z"/>
	<path class="st3" d="M99.8,149.9c0.4,0.9,1.1,1.7,0.6,2.7c-0.1,0.2-0.6,0.4-0.8,0.3c-1.4-0.8-0.6-2-0.4-3
		C99.4,149.9,99.6,149.9,99.8,149.9z"/>
	<path class="st3" d="M63.9,153.1c-0.2,0.2-0.4,0.4-0.6,0.5c-0.1,0-0.4-0.2-0.4-0.2c0-0.3,0.2-0.5,0.3-0.7
		C63.4,152.8,63.7,152.9,63.9,153.1z"/>
	<path class="st5" d="M131.1,127c-0.7,0.4-1.5,0.8-2.2,1.1c-0.3-0.3-0.6-0.6-1-0.9c0-0.4,0.1-0.7,0.1-1.1
		C129.2,125.9,130.4,125.7,131.1,127z"/>
	<path class="st5" d="M112,132c-1-0.2-1.7-0.7-1.8-1.8C111.4,130.1,111.9,130.9,112,132z"/>
	<path class="st5" d="M143,112.1c-0.4-0.5-0.9-1.3-0.2-1.6c1.3-0.5,1,0.7,1.1,1.4C143.7,112,143.3,112.1,143,112.1z"/>
	<path class="st3" d="M113.5,142.8c-0.1,0.1-0.1,0.2-0.2,0.4c-0.1-0.1-0.3-0.1-0.3-0.2c0-0.1,0.1-0.2,0.1-0.3
		C113.2,142.6,113.3,142.7,113.5,142.8z"/>
	<path class="st3" d="M116.1,121c0.7,0,1.3,0.1,2,0.1C117.3,121.8,116.6,122.7,116.1,121z"/>
	<path class="st4" d="M54.1,150c0.3-0.7,0.7-1.3,1-2c0,0.7,0,1.3-0.1,2c0,0-0.5,0-0.5,0L54.1,150z"/>
	<path class="st3" d="M119,117c-0.3,0-0.7-0.1-1-0.1c0.2-0.2,0.4-0.5,0.5-0.7C118.7,116.5,118.8,116.7,119,117z"/>
	<path class="st4" d="M143,125c-0.3,0.7-0.7,1.3-1,2C142.3,126.3,142.7,125.6,143,125z"/>
	<path class="st3" d="M135.9,134.9c-0.6,0.4-1.3,0.7-1.9,1.1c0-0.3,0-0.6,0-0.9c0.5-0.1,0.9-0.1,1.4-0.2
		C135.5,134.9,135.7,134.9,135.9,134.9z"/>
	<path class="st3" d="M120.1,109.9c0.2,0.4,0.5,0.7,0.7,1.1C120.6,110.6,120.4,110.2,120.1,109.9z"/>
	<path class="st3" d="M79,126.9c0.4,0,0.7,0,1.1,0C79.7,126.9,79.3,126.9,79,126.9z"/>
	<path class="st1" d="M63.2,32.9c-0.7,0.3-1.4,0.7-2.1,1c-2.3-0.4-0.6-4.8-4.1-4c-4,2.5-9.1,0.1-13,3.2c-1.1,1-1.8,3.1-4,1.8
		c-1-0.6-2.2-1.2-2.2-2.5c0-2,1.9-1.9,3.3-2.4c1.8-0.7,1.4-2,0.9-3.3c-0.5-1.5-1.8-1.6-2.7-0.7c-4.7,4.9-11.3,8.3-13.4,15.5
		c-2.4,2.3-4,5.1-4.9,8.4c-1.3,2.1-2.6,4.2-3.1,6.7c-3,3.7-2.7,8.5-4.4,12.5c-3.1,7.3-2.3,15-3.7,22.3c-1.5,8,2.8,14.1,3.8,21.2
		c1.1,8.3,7.1,15.2,10.2,23c1.1,2.8,2.5,5.2,1.9,8.3c-6.4-0.8-7.4-6.7-9.6-10.9c-4.9-9.6-6.4-20.4-9.4-30.7C5.1,96.9,4.9,91,7,85.3
		c1.1-3.1,0.6-6.3,0.8-9.4C8.2,67.5,10,59.3,14,52.1c4.8-8.6,10.3-17,17.3-24.1c2.7-2.7,6-4.8,9.7-6.5c5.4-2.4,10.3-6,15.7-8.6
		C78.7,2,101.5,0.4,124.8,8c4.4,1.4,9.2,2.2,12.5,5.9c0,3.3,0.7,7.2-4.9,6c-0.5-0.4-1-0.8-1.5,0c-1.6,0-3.2,0.1-4.9,0.1
		c-1.2,1.7-1.3,3.1,1,3.8c0.6,0.1,1.3,0.1,1.9,0.2c0.9,2.3,2.7,1,4.1,0.9c0.5,0.7,0.5,1.5-0.1,2.2c-0.2,0.1-0.5,0.3-0.7,0.4
		c0.3,0.1,0.5,0.2,0.8,0.3l0.1,0.1c-0.4,1.6-1.1,3.1-2.3,4.2c-0.3-0.4-0.7-0.7-1-1.1c-1.7-3.1-9.6-4.6-11.2-1.8
		c-2.3,3.9-5.7,5.7-9.7,6.9c-0.8,0.3-1.5,0.6-2.3,1c-0.3-0.1-0.6-0.1-0.8-0.2c-0.3-0.3-0.6-0.6-0.9-1c-0.3-0.1-0.7-0.3-1-0.4
		c0,0,0-0.5,0-0.5c0-1,0.1-2,0.1-3c1.3,0,2.6-0.1,3.9-0.1c3.3-0.8,2-4,3.1-5.9c1.6-4.5-1.7-12.1-6.5-13.9c-0.1,2.5,1.9,4.1,2.7,7.6
		C100,16.2,92.8,18.9,86,17c-2.5-0.7-4.3-0.7-6.5,0.4c-2.6,1.3-5.2,3-8.5,2.1c-1.8-0.5-2.6,1.1-3,2.6c-2.6,0.2-4.3,0.9-3,4
		c0.3,0.8,1.1,2.6,0.1,2.5C60.4,28.4,63.6,31.4,63.2,32.9z M118.1,14.9l-0.2-0.1L118,15c1.2,2.3-1.9,3.6-1.4,6.2
		c2.1-0.5,4-1.1,4.5-3.3C121.4,16,119.9,15.1,118.1,14.9z"/>
	<path class="st1" d="M156.1,152c0.3-0.6,0.7-1.3,1-1.9c0.3-0.4,0.7-0.7,1-1.1c4.6-1.4,6.1-6,9-9.1c2.8-2,6.6-3.3,4.8-8
		c3.7-3.9,5-8.9,6.1-13.9c0,0,0.1-0.1,0.1-0.1c1.7-2.8,2.9-5.6,2-9c0-0.6-0.1-1.3-0.1-1.9c3.4-8.1,3.7-16.5,2.6-25.1
		c-0.5-6-1-12.6-4-17.4c-4.2-7-4.2-16.3-11.7-21.4c0.1-2.3-0.5-4.2-2.8-5.2c-1.8-4-4.4-7.4-8.1-10c-1.5-2.7-4.4-3.5-6.9-4.9
		c-0.3,0-0.7-0.1-1-0.1l0,0c-3.2-2.2-7-3.8-8.1-8c7,0.2,12.5,4.4,17.5,8.4c7.3,5.9,11.4,14.8,18.4,21.1c0.8,0.8,1.6,1.8,1.9,2.9
		c1.1,4.3,4.2,5.2,8,5c0.3,3.9,4.8,6.6,2.9,11.2c-0.4,0.9,1.2,1.3,2.2,0.8c1.1-0.5,1.6-2.9,3.6-1c1.6,1.6,2.2,3.4,1.5,5.4
		c-1.2,3.5-2.1,7.4-4.3,10.3c-3.9,5-4.1,10.5-3.8,16.1c0.3,6.6-1.9,12.8-2.9,19.1c-1.6,10-8.6,17.7-13.2,26.5
		c-3.5,6.6-9,10.5-13.7,15.5c-3.5,3.7-8.1,4.9-12.9,5.7c1-1,2-2.1,2.9-3.1c1.5-0.4,2.7-1.2,3.1-2.9c0,0,0,0,0,0
		C153.3,155.3,155.2,154.4,156.1,152z"/>
	<path class="st5" d="M25.7,144.1c0.6-3.1-0.8-5.5-1.9-8.3c-3.1-7.8-9.1-14.7-10.2-23c-1-7.1-5.3-13.2-3.8-21.2
		c1.4-7.4,0.6-15.1,3.7-22.3c1.7-4,1.4-8.9,4.4-12.5c1.3,1.5,1.6,3.6,1.1,5.1c-1.1,3.5,0.6,5.8,2.5,8.2c-0.5,1.3-1,2.7-1.5,4
		c-0.8,0.2-1.8,0.4-1.6,1.4c0.2,0.9,1,0.2,1.6,0c0.2,0.5,0.4,1,0.5,1.4c-0.6,1-1.2,2.8-1.9,2.8c-4.1,0.2-4.5,2.4-4.1,5.8
		c0.2,1.5-0.4,3.7,1.3,3.8c1.8,0.1,3.2-1.5,3.2-3.7c1,0.1,1.9,0.2,2.9,0.3c0.1,1.6-2.8,3.2-1.1,4.3c2.7,1.7,1,2.6,0.1,4.1
		c-2,3.4-1.6,5.4,0.8,7.2c-0.1-6.4,0.2-7,4.3-9.1c0.4,0.5,0.8,1,1.2,1.6c-3.8,1.5,0.3,3.4-0.3,5c0.4,1.7,0.6,3.5,1.2,5.2
		c0.6,1.8,3.2,3.4,1.9,5.2c-2.9,4,0.4,5,2.6,6.7c-0.7,2.3,2.7,7-3.6,5.9c-1.1-0.2-1.5,1-1.5,2.2c0.1,5.4,3.4,1.7,5.3,1.9
		c0,2.7,3.8,5.4-0.2,8c-1.3,0.7-2.6,1.4-3.9,2c-1.4,0.7-1,2.1-0.3,2.3c2.7,0.7,5.2,3.6,8.4,1.2c0.3-0.1,0.5-0.2,0.8-0.3
		c0.5,3-0.7,6.4,1.9,9c0.7,0.6,1.5,1.2,2.2,1.8c-1.3,2.8-4.3,0.2-5.9,2c-2.1-0.9-3.9-2.1-5-4.3c-1-2-2.7-3.2-5.1-3.2
		C25.9,144.3,25.8,144.2,25.7,144.1z M26.1,112.7c-1.3,3.5-3.8,3.5-5.6,4.9c-1.5,1.2-1.1,2.6-0.4,4c0.5,0.9,0.9,2,2.1,1.8
		c0.5-0.1,1.4-1.1,1.3-1.2c-3.6-6.4,2.6-2.2,3.8-3.3C27.1,117.1,26.7,115.5,26.1,112.7z"/>
	<path class="st3" d="M155.9,28c3.7,2.5,6.3,5.9,8.1,10c-1.1,1.9-0.6,3.5,0.8,5c-0.3,0.7-0.6,1.4-0.8,2.1c0,0.3,0,0.6,0,1
		c-0.1,0.3-0.1,0.7-0.2,1c-0.3,0.3-0.6,0.5-0.8,0.8c-0.3,0.1-0.6,0.2-0.9,0.3c-1.4-3.6-0.3-8.6-5.6-9.9c-1.2,1.4-0.5,2.7-0.1,4.2
		c0.8,2.5-1.2,1.6-2.4,1.7c-0.2-2.4-1.5-3-3.7-2.8c-2,0.2-4-0.5-4.4-2.4c-0.6-2.7-2.7-3.8-4.5-3.7c-2.3,0.1-2.1,2.9-2.5,4.7
		c-1.6,1.1-3.2,2.1-4.9,3.2c-0.6,0.2-1.2,0.5-1.9,0.6c-2.2,0.2-5.3,1.5-6.2-0.8c-1.2-2.9,3.1-1.9,4.2-4.1c-1.3-0.9-2.5-2.4-3.9-2.5
		c-3.3-0.2-1.7-1.8-1.3-3.2c1.8-1.4,4.2,1.3,5.9-0.9c1.2-1.2,1.9-2.6,2.3-4.2c1.6-0.5,3.8,0.3,4.8-1.7c0.3-0.6-0.1-1.8-0.6-2.2
		c-1.7-1.3-3-0.1-4.3,1c-1.5,0.1-3.2,1.4-4.1-0.9c1-0.9,2-1.9,3.1-2.8c0.1-0.4,0.3-0.8,0.4-1.2c5.6,1.2,4.9-2.7,4.9-6
		c0.9,0.3,1.7,0.7,2.6,1c1.2,4.2,4.9,5.8,8.1,8c-2.5,0.3-3.4,1.1-1,3l0,0C149.2,30.2,153.1,26.9,155.9,28z M146.4,29.2
		c-0.5,0.1-1,0.1-1.1,0.3c-0.6,1.3-1.8,3.6-1.6,3.7c2.2,1.5,4.6,2.6,7,3.8c0.8,0.4,1.7,0.5,2.1-0.5c0.2-0.6,0.5-1.6,0.2-1.9
		C150.8,32.7,148.5,30.9,146.4,29.2z M138.3,34.1c0-1.7,0-3.2-1.9-3.2c-1.8,0-2.7,1.2-3.1,2.7c-0.3,1.1,0.4,2.1,1.6,2
		C136.3,35.5,138.1,36,138.3,34.1z"/>
	<path class="st1" d="M26,144.5c2.4,0,4.1,1.2,5.1,3.2c1.1,2.2,2.8,3.4,5,4.3c3,3.5,6.5,6.2,10.6,8c0.1,0.1,0.3,0.2,0.4,0.3
		c0.2,0.3,0.4,0.5,0.7,0.6c1.4,2.3,4.7,2.6,5.9,5.1c-3.7,0.6-6.8-0.4-9.7-2.7c-4.9-3.9-9.9-7.7-14.8-11.5
		C26.7,149.9,25.5,147.6,26,144.5z"/>
	<path class="st5" d="M53.7,166c-1.2-2.6-4.4-2.8-5.8-5.1c-0.2-0.3-0.4-0.5-0.7-0.6c-0.2-0.1-0.3-0.2-0.4-0.3
		c0.5-0.8,0.9-1.7,1.3-2.5c1.3,0.3,2.6,0.6,3.9,0.9c2.3,2.1,3.5,4.5,2.6,7.6c0,0-0.5,0-0.5,0L53.7,166z"/>
	<path class="st1" d="M82.9,115c-1-1.4-2.5-0.7-3.8-1c3.1-1.6,6.2-3.2,8.1-6.4c1.6,0.8,2.5-0.1,3.1-1.4c0.6-1.4-0.4-1.7-1.3-2.1
		c0,0,0,0,0,0c0-0.3-0.1-0.5-0.1-0.8c0.1-0.3,0.1-0.7,0.3-0.9c3.7-3.3,3-6-1.2-8.1c2.3-0.9,5.4,0.6,7.2-2.1c0.2,0.1,0.4,0.2,0.7,0.3
		c2.4,3.4,4.5-1,6.8-0.3c0.3,0.4,0.8,0.9,1.1,0.3c0.3-0.5,0.1-1.2,0.2-1.9c0.2-0.1,0.4-0.3,0.5-0.5c1.8,1.4,3.2,1.4,4-1
		c0.3-2.8,2.2-4.8,3.5-7c0,0,0,0,0,0c0.3,0,0.7,0,1,0c1.6,2.3-0.5,4-1,6c-0.5,1-1.6,2.4-0.1,2.8c1.5,0.4,0.9-1.6,1.3-2.6
		c1.7-0.3,2-1.8,2-3c0-2.7,1.6-3.3,3.8-3.3c2.2,0.7,4.2,1.8,5.1,4.1c0,0,0,0,0,0c-1.3,0.7-2.5,1.3-3.8,2c-0.5-0.9-0.5-2.5-2.3-2
		c-3.1,3-0.7,6,0.1,8.9c0,0.7-0.1,1.4-0.1,2.1c-1.7,2.1-5.5,1.5-6.1,5c-0.5,0.2-1.2,0.6-1.3,0.5c-4-3.8-5.3,1.3-7,2.7
		c-1.2,1-2.2,4.7,1.1,6.6c1.5,0.9,0.4,2.8,0.4,4.2c-1.6,0.4-3.2,1.1-4.8,0c0.3-0.6,0.6-1.3,0.9-1.9c0-0.3,0-0.7,0-1
		c-1.4,0-2.7,0.1-4.1,0.1c-1.6,0.3-2.9,0.1-3.1-2c-0.1-0.9-0.3-2.2-1.6-1.9c-1.4,0.3-1,1.8-1.2,2.9c-0.3,1-1,1.7-2.1,2
		c-0.9-0.3-2.2-1.1-2.4,0.3C86,118.6,84.4,115.9,82.9,115z M94.9,101.9c3.1-0.8,6-1.6,9.3-2.5C96.5,95.8,96.5,95.8,94.9,101.9z
		 M111.2,93.3c-0.6,0-1.4,0-1.3,0.9c0,0.3,0.6,0.7,1,0.9c0.6,0.3,1.4,0.3,1.5-0.6C112.6,93.8,112,93.4,111.2,93.3z"/>
	<path class="st4" d="M25.9,41.6c2-7.2,8.7-10.6,13.4-15.5c0.9-0.9,2.2-0.9,2.7,0.7c0.5,1.3,0.9,2.6-0.9,3.3
		c-1.3,0.5-3.2,0.4-3.3,2.4c0,1.2,1.2,1.9,2.2,2.5c2.2,1.3,2.8-0.7,4-1.8c0.3,1.6,0.5,3.2,0.8,4.9c2.4,0,4.9-5.3,7.1,0
		c-2.5,1.5-2.8,5.1-5.9,5.9c-1.1,0-2.8-0.4-3.3,0.1c-2.9,3.6-4.9-1.3-7.7-0.9c-1.1,0.2,1.7-2.2,1.3-3.9C36.3,39,36.1,38.5,36,38
		L36,38c-1.4-3.7-2.9-2-3.8,0.2c-0.7,1.8-1.4,3.2-3.3,3.8C27.9,41.8,26.9,41.7,25.9,41.6z"/>
	<path class="st4" d="M75,94c-2.3-0.2-4.6,1.3-6.9,0c0,0,0,0,0,0c0.1-0.4,0.1-0.8,0.2-1.2c0.2-0.1,0.5-0.3,0.7-0.4
		c-0.3-0.1-0.5-0.3-0.8-0.4c-0.4-0.3-0.8-0.6-1.2-0.9c3.3-0.8,6.4-1.8,5-6.3c-0.1-4.1-1.4-7.8-3-11.5c1.8-1.5,0.9-3.4,0.9-5.2
		c2.4-0.4,4.7-0.8,7.1-1.2c-0.1,3.4,3.6,3.5,5.3,5.8c-4.9,2.3-9,5-6.5,11.4c1,2.7-1.8,5.1-0.9,7.8C75,92.7,75,93.3,75,94z"/>
	<path class="st1" d="M46.1,44c3.1-0.8,3.4-4.5,5.9-5.9c0.1,1.9,3.7,0.1,3.1,2.9c-3.1,0.9-1.6,4.9-4.2,6.1c-1.7,4.1,0.8,3.4,3.2,2.9
		c0.3,0.3,0.7,0.7,1,1c0,0.3,0,0.7,0,1c0,0-0.1,0.2-0.1,0.2L55,52c0.4,0.7,0.7,1.4,1.1,2c1.1,1.6-1.5,3.6,0.5,5
		c-0.2,0.6-0.5,1.3-0.7,1.9c-0.1,0.1-0.2,0.2-0.1,0.3c0.1,0.2,0.2,0.4,0.3,0.6c0,0-0.1,0.1-0.1,0.1c-2,1-4,0.3-5.7-0.5
		c-1.6-0.7-4.2-2-0.4-3.7c2.9-1.3,1.7-2.6-0.1-3.8c-0.9-1.3-1.9-2.7-2.8-4C46.7,48,46.4,46,46.1,44z"/>
	<path class="st1" d="M125,33c-0.4,1.4-2.1,3,1.3,3.2c1.3,0.1,2.6,1.6,3.9,2.5c-1.1,2.2-5.4,1.2-4.2,4.1c1,2.4,4.1,1.1,6.2,0.8
		c0.6-0.1,1.2-0.4,1.9-0.6c-0.4,1.3-0.7,2.6-1.1,4c-2-0.7-4.2-1.7-5.5,1.1c-0.4-0.1-0.8-0.1-1.3-0.2c-0.1-0.3-0.1-0.6-0.2-0.9
		c-1.6-1.6-3.2-3.3-4.7-4.9c-1.4-1.5-4.2-2.7-2.8-6c1.3-3.2,3.4-4.2,6.5-4C125,32.3,125,32.7,125,33z"/>
	<path class="st1" d="M65,105c-3.1-1.4-5.2-1.2-5,2.9c-1.5,0.6-2,1.8-2,3.3c-0.7-0.1-1.4-0.1-2.1-0.2c-0.1-1.7,0.3-3.6-1.2-5
		c-0.3-0.3-0.6-0.6-0.9-0.9c-1-3,0.5-4.4,3.1-5.2c2.5,0.1,5.4,1.9,7.3-1.5c-1.1-1.4-3.5-0.4-4-2.4c2.6-0.7,5.5-0.2,7.8-2.1
		c0,0,0,0,0,0C68.3,98,67.6,101.8,65,105z"/>
	<path class="st5" d="M89.1,68c0.5-4.7,4.2-0.7,5.9-2.1c1,0.8,1.2,2,1.2,3.2c1.5,1.6,5.2,0.7,4.9,4.5c-0.2,2.3,0.6,5.2-2.7,5.1
		c-1.9-0.1-6.5,1-4.6-4.2c0.3-0.8-0.8-1.3-1.6-1.5C90.9,71.4,88.4,70.6,89.1,68z"/>
	<path class="st4" d="M111,54.9c2.6-1.9,2.8,1,4.1,2c0,0.4,0,0.7,0,1.1c-2.8-0.1-2.9,2.6-4.1,4.1c0,0.1,0.7,1.1,1.2,1.2
		c2.1,0.4,3.1-1.3,4.4-2.6c0.2-0.2,0.3-0.5,0.5-0.8c1.2-0.5,1.5,0.5,2,1.1c-0.5,4.1-3.6,5.7-7,7l0,0c-0.3-0.3-0.6-0.8-1.1-1
		c-3.8-2.3-8-4.4-3.6-9.7c0,0-0.9-0.9-1.3-1.3c0.3,0,0.7,0,1,0c1.1,0.1,2.1-0.2,2.9-0.9C110.3,55,110.6,54.9,111,54.9z"/>
	<path class="st4" d="M63.2,32.9c0.4-1.5-2.8-4.5,1.9-4.3c1,0,0.2-1.7-0.1-2.5c-1.3-3.1,0.4-3.9,3-4c1.9,0.5-2.4,5.9,3,3.7
		c0.7,1.9,2.1,4.1,1.7,5.8c-0.3,1.3-2,4.7-5,1.9C66.3,32.2,64.8,32,63.2,32.9z"/>
	<path class="st1" d="M77,67c-2.4,0.4-4.7,0.8-7.1,1.2c-1.2-0.5-2.5-0.9-3.7-1.4c0.6-1.9,1.9-3.1,3.8-3.6c0.9,4.1,3,1,4.3,0.5
		c2-0.8,1.9-2.6,0.6-4c-2.6-2.5-0.9-4.1,1.2-5.4c1.6-1,1.8,0.4,2,1.6c-0.6,1-2,2.3,0.3,2.6c1.7,0.2,1.7,1.7,2.7,2.4
		c0,0.3,0,0.6,0,0.9c-0.6,0-1.3,0.1-1.9,0.1C76.8,63,78.5,65.7,77,67z"/>
	<path class="st1" d="M99,32c-0.2-1.1,0.4-2.7-1.1-2.9c-1.3-0.2-2.4,0.8-3.3,1.8c-3.1,3.5-3.6,3.6-8.9,0.5c7,1.8,7.9-6,13.2-5.3
		c0.9-2-2.1-2.3-1.2-4.1c1.4-1.4,5,1.3,6.2,4.9c-0.4,0.6-0.7,1.2-1.1,1.8C101.6,29.9,100.3,31,99,32z"/>
	<path class="st1" d="M76.7,102.4c1.8,0.3,3.7,0.4,5.4,0.8c1.4,0.3,1.8,1.6,1.1,2.7c-1.2,1.9-5.1,0.6-5.1,4.1
		c-1.4-0.2-3.1,0.2-4.2-1c-1.2-1.3-1-3.1-0.7-4.7C73.5,102.3,75.4,102.8,76.7,102.4z"/>
	<path class="st4" d="M96.2,69c-0.1-1.2-0.3-2.3-1.2-3.2c-1-2.6-3.7-1.4-5.5-2.3c1.7-5.5,1.7-5.5,6.6-5.5c-2.5,4.6,1.8,4.6,4,5.9
		C100.4,66.9,98.2,67.9,96.2,69z M92.7,59.6c-0.2,0.7-0.5,1.2-0.5,1.6c0.1,0.3,0.6,0.5,1,0.8c0.2-0.4,0.5-0.8,0.5-1.2
		C93.7,60.4,93.2,60.2,92.7,59.6z"/>
	<path class="st1" d="M98.1,57.8c-1-1.3-2-2.7-2-4.5c0-1.8,0.3-3.5,2.3-3.9c2.2-0.4,2.4,1.3,2.4,2.9c-0.1,2.3,2.4,3,3,4.9
		c-0.6,1.2-2.5,0-2.8,1.6C100,58.4,99.1,58.1,98.1,57.8z"/>
	<path class="st4" d="M56.6,59.1c-2.1-1.5,0.5-3.5-0.5-5c1.8-0.4,2.4-4.3,5-1.9c2.1,1.9,1.8,4-0.3,5.9C59.4,58,57.9,58.1,56.6,59.1z
		"/>
	<path class="st4" d="M50.8,47.1c2.6-1.2,1.1-5.2,4.2-6.1c0.7,1.8,1.4,3.6,2.2,5.3c1.1,2.4,0.4,4-2.2,4.7c-0.3-0.3-0.7-0.7-1-1
		C53.7,48.2,52.6,47.2,50.8,47.1z"/>
	<path class="st1" d="M86.3,84c1.2-0.4,2.5-0.7,3.7-1.1c0.4,0.2,0.8,0.5,1.2,0.7C90.4,85.3,90,87,90,88.8c-0.3,0.4-0.6,0.8-0.9,1.1
		c-0.4,0.3-0.7,0.7-1.1,1c-0.2-2.6-1.9-3-4-2.9c-0.6-0.7-1.2-1.3-1.9-2C82.5,83.3,85.3,85.4,86.3,84z"/>
	<path class="st5" d="M119,61c-0.5-0.7-0.8-1.7-2-1.1c-0.6-0.7-1.3-1.3-1.9-2c0-0.4,0-0.7,0-1.1c3.4,0.6,5.8-0.6,6.9-4
		c1.5,0.1,2.4,0.9,3.1,2.1C123.1,57.1,122.3,60.3,119,61z"/>
	<path class="st4" d="M109.9,77.3c0.1-3.2-0.8-6.7,2.2-9.3c0,0,0,0,0,0c2.6,3.1,2,6.6,0.9,10.1C111.9,77.8,110.9,77.6,109.9,77.3z"
		/>
	<path class="st1" d="M97.5,82c1.6,0.1,3.1,0.6,4.8,0c1.4-0.5,3.3-0.3,3.8,1.4c0.6,2.1-1.5,2-2.8,2.5l-0.2-0.2
		c-1-0.2-2.1-0.5-3.1-0.7c-0.4,0-0.7,0-1.1,0c-1.2-0.1-2.3-0.3-2.8-1.7C96.6,82.9,97.1,82.4,97.5,82z"/>
	<path class="st4" d="M70,63.2c-2,0.5-3.2,1.6-3.8,3.6c-0.7-0.4-1.5-0.8-2.2-1.2c-0.3-0.6-0.7-1.2-1-1.7c-0.3-0.9-0.7-1.9-1-2.8
		C64.9,60.7,68.6,57.7,70,63.2z"/>
	<path class="st4" d="M102.8,28.8c0.4-0.6,0.7-1.2,1.1-1.8c2.4-0.8,4.3-4.7,7.3-1c-1.2,1.9,0.2,5.1-3.1,5.9c-0.3-3.2-3.2-2-4.9-2.8
		L102.8,28.8z"/>
	<path class="st5" d="M89.1,89.9c0.3-0.4,0.6-0.8,0.9-1.1c0.7,0.1,1.4,0.2,2,0.2c0.9,1.2,1.8,2.5,3.3,3c-1.8,2.7-4.9,1.1-7.2,2.1
		c-2.2-0.5-2.9-2-2.2-4.1c1.6-0.3,1.1,1.7,2.1,2.1c1,0,2.1,0.2,2.5-1C90.6,90.3,89.7,90.1,89.1,89.9z"/>
	<path class="st1" d="M75,94c0-0.7,0-1.3,0-2c2.6-0.1,3.8,3.1,6.5,2.8c0.3,0,0.8,0.9,0.9,1.5c0.1,0.7-0.5,1.5-1.1,1.3
		C79,96.9,75.2,98.5,75,94z"/>
	<path class="st5" d="M78,43.9c0.5,0.1,1,0.3,1.5,0.2c2.4-0.3,4,0.8,3.7,3.2c-0.3,3-2.8,1.2-4.3,1.4C77.5,49,77,47.6,76.1,47
		C76.7,45.9,77.4,44.9,78,43.9z"/>
	<path class="st5" d="M61.9,61.1c0.3,0.9,0.7,1.9,1,2.8c-2.2-1.1-5.1,0.6-6.9-1.8c0,0,0.1-0.1,0.1-0.1c0-0.3-0.1-0.6-0.1-1
		c0.2-0.6,0.5-1.3,0.7-1.9c1.2-1,2.7-1.1,4.2-1.1C61.2,59,61.6,60,61.9,61.1z"/>
	<path class="st4" d="M92,45.9c-0.5,0.9-0.9,1.8-1.4,2.6c-0.6,1-1.4,2-2.8,1.4c-1.5-0.6-1.8-1.6-1.2-3.1c0.3-0.8-0.4-1.8-0.6-2.8
		c0.8,0,1.5-0.1,2.3-0.1c0.9,0,1.8,0,2.7,0C91.3,44.6,91.7,45.3,92,45.9z"/>
	<path class="st4" d="M57,30c3.5-0.8,1.9,3.6,4.1,4c-0.9,1.5-2.3,1.7-3.9,1.4c-1-0.2-2.4,0.6-2.9-1c-0.3-1.1,0.4-1.8,1.2-2.5
		C56.1,31.4,56.5,30.6,57,30z"/>
	<path class="st4" d="M95.3,92.1c-1.5-0.6-2.4-1.8-3.3-3c2.7-0.7,5.3-1.5,6.9-4c0.4,0,0.7,0,1.1,0c1,3.8-2.6,5-4.1,7.4
		C95.7,92.3,95.5,92.2,95.3,92.1z"/>
	<path class="st1" d="M111,54.9c-0.3,0-0.7,0.1-1,0.1c-1,0.3-2,0.6-2.9,0.9c-0.3,0-0.7,0-1,0c-0.3-1.1,0.3-2,1.1-2.6
		c1.7-1.3-0.7-5,1.8-4.7C112,49.1,110.2,52.8,111,54.9z"/>
	<path class="st5" d="M98.1,57.8c1,0.3,1.9,0.6,2.9,1c-0.3,1.8-0.6,3.5-0.9,5.3c-2.3-1.4-6.6-1.3-4-5.9C96.7,58,97.4,57.9,98.1,57.8
		z"/>
	<path class="st5" d="M92,45.9c-0.4-0.7-0.7-1.3-1.1-2c0.6-1,1.2-1.9,1.8-2.9c0,0,0.5,0,0.5,0l0.5,0c0.4,1.9,0.5,4.2,3.4,2
		c0.6,0,1.3,0,1.9,0c0.6,0.3,1.3,0.7,1.9,1C98.2,45.9,95.1,45.9,92,45.9z"/>
	<path class="st1" d="M89.1,68c-0.7,2.7,1.8,3.4,3,5c-1.6,0.6-3.4,3.3-4.9,0.1C86.3,71.1,85,68.4,89.1,68z"/>
	<path class="st4" d="M99,43c-0.6,0-1.3,0-1.9,0c-0.3-1.5-0.9-2.8-2.8-2.7l-0.1-0.1c-0.1-0.9-0.3-1.9-0.4-2.8
		c2.6,0.4,5.4,0.2,7.3,2.6C100.3,41,99.7,42,99,43z"/>
	<path class="st4" d="M125.1,55c-0.7-1.2-1.6-2-3.1-2.1c-2-4.3,2.8-4,4.1-6c0.1,0.3,0.1,0.6,0.2,0.9c-1,1.4-0.8,2.7,0,4.1
		C127.1,53.4,126.7,54.5,125.1,55z"/>
	<path class="st1" d="M99,43c0.7-1,1.3-2,2-3.1c2.8,1.4,3.8,3.7,3.7,6.8c-2.1,0-1.8-2.8-3.7-2.7C100.3,43.7,99.7,43.4,99,43z"/>
	<path class="st5" d="M86.3,84c-1,1.4-3.7-0.7-4.1,2c-1.4-0.8-2.4-1.8-1.9-3.6c0.4-1.4,1.6-1.4,2.8-1.5C85.3,80.8,85.9,82.3,86.3,84
		z"/>
	<path class="st5" d="M97.5,82c-0.4,0.4-0.9,0.8-1.3,1.3c-1.6,0.4-3.3,0.8-5,0.4c-0.4-0.2-0.8-0.5-1.2-0.7c-0.3-0.9-1.6-1.4-1-2.5
		c0.4-0.8,1.5-0.6,2.2-0.3C93.2,81.2,95.8,80.2,97.5,82z"/>
	<path class="st5" d="M93.7,37.3c0.1,0.9,0.3,1.9,0.4,2.8c-2.8,0.8-5.2-1.3-7.9-1.4C88.1,35,91.1,37.3,93.7,37.3z"/>
	<path class="st4" d="M99,32c1.3-1.1,2.5-2.1,3.8-3.2c0,0,0.3,0.3,0.3,0.3c0.3,1,0.7,2,1,2.9c0,1-0.1,2-0.1,3
		c-1.5-1.3-4.4,0.8-5.2-2.2C98.9,32.6,99,32.3,99,32L99,32z"/>
	<path class="st4" d="M78,43.9c-0.6,1-1.3,2-1.9,3.1c-0.8-0.2-2.5-0.9-1.9-1.2c2.4-1,1.2-4.8,3.7-4.8C79,40.9,78,42.9,78,43.9z"/>
	<path class="st4" d="M63.8,47.7c3.7-2.7,3.7-2.7,7.2-1.8C69.1,47.5,67.2,47.5,63.8,47.7z"/>
	<path class="st4" d="M81,61.1c-0.9-0.7-1-2.2-2.7-2.4C76,58.3,77.5,57,78,56C79,57.7,84.9,56.5,81,61.1z"/>
	<path class="st4" d="M86.3,38.8c2.7,0,5,2.1,7.9,1.4c0,0,0.1,0.1,0.1,0.1c-0.2,0.3-0.4,0.5-0.6,0.7l-0.5,0c0,0-0.5,0-0.5,0
		c-0.9,0.3-1.8,0.5-2.7,0.8c-1.5-1.1-3.4-0.6-5.1-0.9C85.4,40.2,85.8,39.5,86.3,38.8z"/>
	<path class="st4" d="M79.1,62.1c0.6,0,1.3-0.1,1.9-0.1c-0.2,2,0.7,4.2-1.1,6.2C78.6,66,79.8,63.9,79.1,62.1z"/>
	<path class="st4" d="M125,33c0-0.3,0-0.7-0.1-1c1.4-1.4,3-2.2,5-1c0.3,0.4,0.7,0.7,1,1.1C129.3,34.4,126.8,31.7,125,33z"/>
	<path class="st5" d="M85,40.9c1.7,0.4,3.5-0.2,5.1,0.9c-0.6,0.7-1.2,1.4-1.8,2.1C87.5,44,86.7,44,86,44
		C85.1,43.2,84.2,42.3,85,40.9z"/>
	<path class="st4" d="M108.5,41.6c2.6-0.3,3.2,1.3,4,2.8C110.9,44.1,109.2,44,108.5,41.6z"/>
	<path class="st1" d="M109.9,77.3c1,0.3,2.1,0.5,3.1,0.8c-0.3,1.3-0.6,2.6-1,3.9c0,0,0,0,0,0C111,80.6,108.6,79.8,109.9,77.3z"/>
	<path class="st5" d="M89,104c0.9,0.4,2,0.7,1.3,2.1c-0.6,1.3-1.5,2.2-3.1,1.4C87.8,106.3,88.4,105.1,89,104z"/>
	<path class="st4" d="M87.9,92.1c-1-0.4-0.4-2.3-2.1-2.1c-1-0.4-1.5-1.1-1.8-2c2.1,0,3.8,0.4,4,2.9C88,91.3,87.9,91.7,87.9,92.1z"/>
	<path class="st5" d="M108.5,89c-0.8,2.5-2.2,2.4-4,1C105.3,87.7,106.8,87.9,108.5,89z"/>
	<path class="st1" d="M99.1,32c-0.1,0.3-0.1,0.6-0.2,0.9c-0.6,0.1-1.2,0.2-1.8,0.3C97,31.6,98.3,32.3,99.1,32z"/>
	<path class="st5" d="M83.9,35.9c-1,0.4-1.7,0.4-2.1-0.8c0-0.5,0.1-0.9,0.1-1.4c1,0.2,2,0.4,2.6,1.4C84.2,35.3,84,35.6,83.9,35.9z"
		/>
	<path class="st4" d="M81.9,33.7c0,0.5-0.1,0.9-0.1,1.4c-0.5-0.3-1.2-0.4-1-1.2C80.8,33.7,81.5,33.7,81.9,33.7z"/>
	<path class="st4" d="M106,37c0.3,0.1,0.6,0.1,0.8,0.2c-1.8,1-2.5,0.2-2.8-1.6c0.3,0.1,0.7,0.3,1,0.4C105.4,36.3,105.7,36.6,106,37z
		"/>
	<path class="st5" d="M103.3,85.9c-0.1,0.7-0.2,1.5-0.3,2.2c-0.6-0.1-1.2-0.1-1.9-0.2c-0.4-1.7,0.5-2.2,1.9-2.2
		C103.1,85.7,103.3,85.9,103.3,85.9z"/>
	<path class="st5" d="M88.9,103.2c0.1,0.3,0.1,0.5,0.1,0.8c-0.7,0-1.8,0.1-1.7-0.9C87.5,102.3,88.4,103,88.9,103.2z"/>
	<path class="st4" d="M101.2,88c0.6,0.1,1.2,0.1,1.9,0.2c-0.3,0.3-0.5,0.7-0.8,1C101.9,88.8,101.5,88.4,101.2,88z"/>
	<path class="st5" d="M68,105c0.6,0.2,1.1,0.4,1.7,0.5c-0.4,1-1.3,0.6-2,0.6C67.8,105.8,67.9,105.4,68,105z"/>
	<path class="st4" d="M104,90.5c0,0.6,0.1,1.4-0.2,1.9c-0.3,0.6-0.8,0.1-1.1-0.3C103.2,91.6,103.6,91.1,104,90.5z"/>
	<path class="st4" d="M83.9,35.9c0.2-0.3,0.4-0.5,0.6-0.8C84.3,35.4,84.1,35.6,83.9,35.9z"/>
	<path class="st4" d="M68,105c-0.1,0.4-0.2,0.8-0.3,1.2c-0.2,0-0.4-0.1-0.6-0.1c0,0,0-0.1,0-0.1C67.3,105.6,67.6,105.3,68,105z"/>
	<path class="st5" d="M162.1,48.1c0.3-0.1,0.6-0.2,0.9-0.3c0.3,0.1,0.7,0.1,1,0.2c0.4,0.3,0.3,1.4,1.2,0.7c-0.4-0.2-0.8-0.4-1.3-0.7
		c-0.1-0.3-0.1-0.7-0.2-1c0.1-0.3,0.1-0.7,0.2-1c0.1-0.1,0.3-0.2,0.2-0.3c0-0.2-0.2-0.4-0.2-0.7c0.3-0.7,0.6-1.4,0.8-2.1
		c0.7,0.1,1.3,0.1,2,0.2c7.5,5.1,7.4,14.4,11.7,21.4c3,4.9,3.4,11.4,4,17.4c-0.2,2.3-0.5,4.5-0.5,6.8c0,2.8-1.1,4.3-4,4.2
		c0-1.3,0.1-2.6,0.1-3.9c0.6,0.1,1.8,0.4,1.5-0.5c-1.2-4.8-2.7-9.5-4.3-15c-1.3,2.4-3.9,2.2-4.3,4.6c-1-0.1-2-0.2-3.1-0.2
		c-0.9,0-1.8,0-2.8,0.1c-0.7-3.1-0.8-6.1,0.8-9c3.9-2.3,6.9-4.7,3.2-9.6c-0.9-1.2-0.3-2.9-0.1-4.3c0.3-3.8-2.3-4-5-4.1c0,0,0,0,0,0
		c-0.7-0.6-1.3-1.3-2-1.9C162.1,48.7,162.1,48.4,162.1,48.1z"/>
	<path class="st3" d="M171.9,132c1.8,4.7-2,6-4.8,8c-3.2-1.5-5.1-4.5-7.4-7c-1-1.1-2-2.9-0.7-4c1.7-1.5,1.7,1,2.5,1.7
		C164.6,133.6,168.4,131.5,171.9,132z"/>
	<path class="st1" d="M161.4,99c-0.2-1.4,0.1-2.7,1-3.9c3.1-2.6,6.2-3.1,9.6-0.4c-0.1,0.8-0.2,1.6-0.2,2.3c-3.3,1.4-0.7,4.9-2.5,6.8
		c0,0,0,0,0,0C169,98.3,164.5,99.6,161.4,99z"/>
	<path class="st5" d="M171.6,97c0.1-0.8,0.2-1.6,0.2-2.3c6.8,0.5,7.3,1.3,4.6,7.4c-0.7,1.7-1.6,3.2-2.4,4.9c-0.3,0-0.7,0.1-1,0.1
		c-0.3,0-0.6-0.1-0.9-0.1C172.4,103.6,172.4,100.3,171.6,97z"/>
	<path class="st3" d="M152.2,121.6c0.2,0.1,0.5,0.1,0.7,0.1c3,4.1,1.7,9.3,4.2,13.7C151.8,133.9,149.3,126.4,152.2,121.6z"/>
	<path class="st1" d="M163.1,89c-0.7-0.7-1.3-1.4-2-2.1c0.3-1,0.6-1.9,1-2.9c0,0,0-0.1,0-0.1c0.9-0.3,1.9-0.6,2.8-0.9
		c0.7,1,1.4,2,2.1,2.9c-0.9,0.3-1,0.7,0,1c0.3,0.3,0.7,0.7,1,1c0.3,1,0.7,2,1,3C166,93.3,165.1,89.4,163.1,89z"/>
	<path class="st3" d="M161.4,99c3.2,0.7,7.7-0.7,7.7,4.9c-1.7,0.3-3.3,0.7-5,1c-1.2-1.4-1.7-3.3-3.6-4.3
		C159.6,100,160.7,99.3,161.4,99z"/>
	<path class="st3" d="M169,91c-0.3-1-0.7-2-1-3c1.4-3.4,1.1-6.8-0.1-10.1c1,0.1,2,0.2,3.1,0.2c-0.8,2.3-1.3,4.6,0.1,6.9
		c0.4,1.3,0.7,2.5,1.1,3.8C171.1,89.5,170.1,90.3,169,91z"/>
	<path class="st5" d="M172.2,88.8c-0.4-1.3-0.7-2.5-1.1-3.8c0.9-0.6,0.8-2.7,2.2-2.1c2.1,0.9,3,2.8,2.7,5.1c-0.7,0.3-1.4,0.6-2,0.9
		C173.4,88.9,172.8,88.8,172.2,88.8z"/>
	<path class="st3" d="M171.6,97c0.8,3.3,0.7,6.6,0.5,9.9c-1.5-0.6-2.7-1.4-3-3.1C171,101.9,168.3,98.4,171.6,97z"/>
	<path class="st5" d="M172,122c0.4,4-1.4,5.3-5.5,4.2C167.5,123.4,168.6,121.3,172,122L172,122z"/>
	<path class="st5" d="M158.1,149c-0.3,0.4-0.7,0.7-1,1.1c-0.7,0-1.3,0-2-0.1c-1.1-0.2-2.6-0.1-2.5-1.7c0.1-2,1.6-1.6,2.9-1.5
		c0.8,0.1,1.6,0,2.4,0C158,147.5,158.1,148.3,158.1,149z"/>
	<path class="st5" d="M179.9,107c0,0.6,0.1,1.3,0.1,1.9c-1.2,0.2-2.4,1.4-3.5,0.5c-0.4-0.4-0.2-1.9,0.1-2.7c0.3-0.9,1-2.2,1.6-2.2
		C179.6,104.5,179.1,106.3,179.9,107z"/>
	<path class="st3" d="M174,88.9c0.7-0.3,1.4-0.6,2-0.9c0.7,0.3,1.3,0.7,2,1c0,1.3-0.1,2.6-0.1,3.9C175.4,92.9,173.3,92.3,174,88.9z"
		/>
	<path class="st5" d="M172,122c0.6-1.3,1.2-2.6,1.8-4c1.4-3.3,2.8-2.5,4.3-0.1c0,0-0.1,0.1-0.1,0.1C174.9,117.6,174.9,122,172,122
		C172,122,172,122,172,122z"/>
	<path class="st5" d="M150,135c-0.5,0.6-1,1.2-1.5,1.8c-1-1.2,0-2,0.4-2.9C149.3,134.2,149.6,134.6,150,135z"/>
	<path class="st3" d="M173,107.1c0.3,0,0.7-0.1,1-0.1c-0.2,0.8-0.2,2-1.2,1.7C172.1,108.6,172.8,107.6,173,107.1z"/>
	<path class="st1" d="M134,135.1c0,0.3,0,0.6,0,0.9c1.3,3,2.7,1.1,4,0.1c0.9,2.4,5.1,1.6,4.9,5c-2-0.4-4,1.1-6-0.2
		c-3.1-1.8-6.8-0.1-9.9-1.9c-0.1-0.6-0.3-1.2-0.4-1.8c0.2-3.3-1.5-6.9,1.2-10c0.3,0.3,0.6,0.6,1,0.9c0.1,0.4,0.2,0.7,0.4,1.1
		c-0.1,0.6-0.1,1.2-0.2,1.7C129.9,133.3,133.5,132.4,134,135.1z"/>
	<path class="st1" d="M141.9,151.9c0.7-1.3,1.3-2.6,2-3.9c1-0.7,2.1-1.4,3.2-2.1C146.9,150,144.4,152.8,141.9,151.9z"/>
	<path class="st4" d="M156.1,152c-0.9,2.3-2.8,3.3-5,4C150.4,152.9,150.4,152.9,156.1,152z"/>
	<path class="st4" d="M151,156c-0.4,1.6-1.5,2.5-3.1,2.9C147.8,156.6,149.6,156.5,151,156z"/>
	<path class="st3" d="M162,84c-0.3,1-0.6,1.9-1,2.9c-2-1-3.6-0.5-5,1.2c-1.2-1.9-2.1-4.3-5-4l-0.1-0.1c-0.1-3.2-3-2.8-4.8-3.9
		c-0.1-0.4-0.1-0.7-0.2-1.1c0,0,0.3-0.1,0.3-0.1c1.9-1.4,5.5-0.1,5.7-3.9c1.7,0,2.7,2.1,5.1,1.6c-1.2-1.8-2.1-3.2-3-4.7
		c0.4,0,0.7,0.1,1.1,0.1c2.5,1.7,2.7-1.1,3.8-2c1,1.2,1.9,2.1,2.9,0c1.2-1.1,2.4-2.2,4.1-1.1c-1.5,2.9-1.5,5.9-0.8,9
		c0,0-0.4,0.1-0.4,0.1c-0.6,0-1.1,0-1.7,0c-2.8-1.6-2.9-1.6-4.3,2c1.4,0,2.9,0,4.3,0c0.7,0,1.3,0,2,0c0.8,1.1,0.3,2.1-0.2,3.1
		C164,83.4,163,83.7,162,84c0-0.5-0.1-0.9-0.2-1.4c-0.2,0.1-0.3,0.2-0.5,0.2C161.6,83.3,161.8,83.7,162,84z"/>
	<path class="st3" d="M150,108.8c0-0.9,0-1.9,0-2.8c0.3,0,0.7,0,1,0c0,0,0.2,0.1,0.2,0.1L151,106c-0.4-1-0.7-0.9-1,0
		c-1.1-0.3-1.7-1-2-2c0-0.3,0-0.6,0-0.9c1-0.2,2.1-0.5,2.2-1.6c0.1-1.2-1-0.9-1.8-1.1c-1.6-0.4-3.2-0.7-4.8-1.1
		c0.1-2.3,1.7-1.7,3.1-1.6c2.8,0.2,3.5-1.1,2-3.5c1.9-2.1,3.8-4.2,7.1-3.2c0.4,3,1.8,6-0.8,8.8c-1.1,1.1-0.4,2.1,0.4,3
		c1.1,1.2,2.4,2.4,2.4,4.2c-1,0.7-2,1.3-3,2c-0.8,0.3-1.6,0.6-2.4,0.9c0,0-0.1,0.1-0.1,0.1C151.7,109.6,150.8,109.2,150,108.8z"/>
	<path class="st1" d="M155.9,91c-3.3-1-5.2,1.1-7.1,3.2c-0.9-0.7-1.3-2-2.7-1.9c2.1-2.4-3.5-2.3-1.5-4.7c1.8-2.2,1.3-4.9,1.6-7.5
		c1.8,1,4.7,0.7,4.8,3.9c0,0-0.1,0.2-0.1,0.2l0.2-0.1c3-0.3,3.8,2.2,5,4C156,89,156,90,155.9,91z"/>
	<path class="st4" d="M89.1,114.1c1.1-0.3,1.7-1,2.1-2c3.5,3,0.9,7.9,4.4,11.4c-2.7,0-4.6,0-7.8,0C94.1,120.2,87.8,117.1,89.1,114.1
		z"/>
	<path class="st4" d="M101.1,114c-0.3,0.6-0.6,1.3-0.9,1.9c-0.8,2.3-1.2,4.6-1.2,7c-3.8-2.7-2.2-6.4-2-9.9c1.4,0,2.7-0.1,4.1-0.1
		C101.1,113.3,101.1,113.6,101.1,114z"/>
	<path class="st4" d="M84.6,120.7c-0.3,0.1-0.5,0.3-0.7,0.4c-0.1-0.3-0.3-0.6-0.3-0.8c0-0.2,0.4-0.3,0.7-0.4
		C84.3,120.2,84.5,120.4,84.6,120.7z"/>
	<path class="st5" d="M111.9,102c0.6-3.4,4.4-2.9,6.1-5c0.4,0.3,0.8,0.7,1.1,1c2.1,4.1,2-1.4,3.6-0.6c0.7,1.3,0.4,2.9,0.3,4.5
		c-0.7,0.7-1.3,1.4-2,2c-0.3,0-0.7,0-1,0C117.6,102,114.6,102.4,111.9,102z"/>
	<path class="st5" d="M51,135c-2.2,2.1-5.7,0.8-8,2.9c-2-0.5-4.1-1-6.1-1.5c-0.6-0.5-1.2-0.9-1.9-1.4c1.4-1,4.2-0.9,3.1-3.8
		c0.3-0.4,0.6-0.8,0.8-1.2c1-0.3,2-0.6,3-1c0,0.9-0.8,2.1,0.7,3.2c0.4-1.9,0.4-3.1-0.7-4.2c0-0.7,0-1.3-0.1-2c0.2-1.3,0.4-2.5,2-2.9
		C43.2,128.9,46,132.6,51,135z"/>
	<path class="st5" d="M53.9,105.2c0.3,0.3,0.6,0.6,0.9,0.9c-1.8,2.3-5.5,2.9-5.1,7.3c0.2,2.7-2.8,5.3-1,8.8c-2.8-0.6-2.4-3-3.5-4.2
		c1-3,2-6,2.9-9C49.7,107.2,50.8,104.7,53.9,105.2z"/>
	<path class="st4" d="M43.9,123.2c-1.5,0.4-1.7,1.6-2,2.9c-2.3-0.5-5.5,0.1-5-3.9c1.2-1.7,3.6-3.3,0.1-5.1c0.5-2.1,1.2-3.3,2.8-0.6
		c0.9,1.6,0.9,1.6,2.1,1.6c0.3,0,0.7-0.1,1-0.1c0.3,0,0.6,0,0.9,0.1l0,0C44,119.8,43.9,121.5,43.9,123.2z"/>
	<path class="st1" d="M48.1,109c-1,3-2,6-2.9,9c-0.4,0-0.8,0.1-1.2,0.1c0,0,0,0,0,0C44.7,114.7,43.6,110.6,48.1,109z"/>
	<path class="st3" d="M112,82c0.3-1.3,0.6-2.6,1-3.9c1.1-3.5,1.7-6.9-0.9-10.1c3.3-1.3,6.4-2.9,7-7c3.3-0.8,4.1-3.9,6.1-6
		c1.6-0.5,2-1.6,1.2-3c-0.8-1.4-1-2.7,0-4.1c0.4,0.1,0.8,0.1,1.3,0.2c2.7,1.4,1.6,5.5,4.7,6.8c-3.4,1.7-3.4,1.7,0.9,6.2
		c-0.8,1-2,0.8-3.1,0.8c-0.3-0.3-0.7-0.6-1-0.8c0,0-0.2,0.2-0.2,0.3c0.4,0.2,0.7,0.5,1.1,0.7c-0.5,2.9-4.9,3.7-3.4,8
		c1.8,5.2,5.6,6.3,10,6.2c3.2-0.1,3.6,1.2,3.2,3.7c-0.8,0.2-1.6,0.5-2.5,0.7c-2.7,0.9-3.5,3.7-5.3,5.5c-1.2,1.1-1.9,2.5-0.3,4.2
		c1.5,1.6,2.7,2.3,4.5,0.8c1.4-0.4,3-1.4,3.8,0.9c-0.3,1.3-3.4,1.8-1,3.7c0,0.4,0,0.9,0,1.3c-1.5,0.1-3.3-0.2-3.9,1.9
		c-3.1,2-6.2,0.3-9.2,0c-0.4-1-0.9-2-0.2-3c0.6,0.1,1.4,0.6,1.6-0.2c0.2-0.9-0.7-1.3-1.3-1.7c-0.6-2.7,2-6.2-2-8
		c-0.9-2.3-2.9-3.4-5.1-4.1c0.9-1.6,1.5-3.3,0.2-4.9c-1-1.3-2.1-1.2-3.2,0c-0.3,0.3-0.7,0.6-1,0.8c-0.7,1.4-0.6,3.1-2,4.2
		C112.7,82,112.4,82,112,82z M128,78L128,78c-0.1-1.1-0.8-1.6-1.9-1.7c-1.6-1.2-2.9-0.7-3.7,0.9c-0.7,1.6,0.3,2.5,1.8,2.9
		C127.6,83.1,126.7,78.5,128,78z"/>
	<path class="st1" d="M125.8,95.9c-0.7,1-0.3,2,0.2,3c0,2-0.8,3.2-2.9,3c0.1-1.6,0.5-3.2-0.3-4.5c-1.6-0.8-1.5,4.7-3.6,0.6
		c1-1.7,1.3-3.2-1.1-3.9c0.6-1.1,1.2-2.5,2.5-2.7c3.1-0.6,3.7-2.7,3.4-5.4c0,0,0,0,0,0c4,1.8,1.4,5.4,2,8
		C126,94.7,125.9,95.3,125.8,95.9z"/>
	<path class="st5" d="M135.2,98.9c0.6-2.1,2.3-1.8,3.9-1.9c1.2,0.8,2.4,1.1,3.1-0.6c1.2-0.4,1.9-1.2,1.9-2.5
		c0.1-0.1,0.2-0.3,0.3-0.3c0.1,0,0.3,0,0.4,0.1c0.4,0.5,0.2,2,1.3,1.3c0.4-0.2,0-1.7,0-2.7c1.4-0.1,1.9,1.2,2.7,1.9
		c1.5,2.4,0.8,3.7-2,3.5c-1.4-0.1-3-0.7-3.1,1.6c-0.3,0.9-0.5,1.7-0.8,2.6c-0.3,0.3-0.7,0.6-1,1c-0.9,0-1.8-0.1-2.7-0.1
		c-0.4-1.5,0.1-4.3-3-2.3C136.2,100.4,135.5,99.4,135.2,98.9z"/>
	<path class="st1" d="M42,150c-0.7-0.6-1.5-1.2-2.2-1.8c2.7-0.2,0.6-3,2.4-4.3c3.5-2.4,5.8,0.7,8.6,1c-0.3,0.3-0.6,0.6-0.9,1
		c-0.6,0-1.2,0.1-1.8,0.1c-0.3-0.1-0.4-0.8-0.8-0.2c0.2,0.1,0.5,0.2,0.7,0.3c0,0.3,0,0.6,0.1,1c0,0.3,0,0.6,0,0.9
		C45.8,148,43.9,149,42,150z"/>
	<path class="st3" d="M36.9,136.3c2,0.5,4.1,1,6.1,1.5c0.8,1.7,0.6,3.4-1.2,4c-2,0.7-0.8-1.7-1.7-2.1c-0.7-0.3-1.5-0.4-2.2-0.6
		c-0.3,0.1-0.5,0.2-0.8,0.3C37,138.4,36.9,137.4,36.9,136.3z"/>
	<path class="st5" d="M53.1,143.1c-3.6-1.6-3.6-1.6-3.4-5.3c1.3,1.9,2.4,3.6,3.5,5.3C53.2,143,53.1,143.1,53.1,143.1z"/>
	<path class="st1" d="M141.9,102.8c0.3-0.3,0.7-0.6,1-1c1.8,0.2,3.6-0.2,5.1,1.2c0,0.3,0,0.6,0,0.9c-1,0.4-1.7,1-2,2.1
		C144.2,105.5,143,104.1,141.9,102.8z"/>
	<path class="st3" d="M58,111.3c0-1.5,0.5-2.7,2-3.3c0.6,1.1,0.4,2.1,0,3.2C59.3,111.2,58.7,111.2,58,111.3z"/>
	<path class="st4" d="M42,150c1.9-1,3.8-2,6-2c-0.5,3.2-2.7,6.4,0.1,9.5c-0.4,0.8-0.9,1.7-1.3,2.5c-4.2-1.8-7.7-4.6-10.6-8
		C37.7,150.1,40.8,152.7,42,150z"/>
	<path class="st4" d="M50.1,146.9c1.8,0.3,2.9,1.3,2.9,3.2C50.3,150.6,50.6,148.4,50.1,146.9z"/>
	<path class="st4" d="M48,145.9c0.6,0,1.2-0.1,1.8-0.1c0.1,0.4,0.1,0.7,0.2,1.1c-0.7,0-1.4,0.1-2,0.1c-0.1-0.3-0.1-0.6-0.1-1
		L48,145.9z"/>
	<path class="st5" d="M152.7,109.9c0.8-0.3,1.6-0.6,2.4-0.9c-0.1,0.8,0,1.8-1,2C153.7,111.1,153.1,110.3,152.7,109.9z"/>
	<path class="st5" d="M150,108.8c0.9,0.4,1.7,0.8,2.6,1.1C151.5,110,150.6,109.7,150,108.8z"/>
	<path class="st4" d="M61.1,139.1c-0.5,0.3-1.3,1-1.5,0.4c-0.3-0.7,0.8-0.5,1.3-0.7C60.9,138.8,61.1,139.1,61.1,139.1z"/>
	<path class="st5" d="M129.1,130.9c0.1-0.6,0.1-1.2,0.2-1.7c0.4,0.1,1.2,0.1,1.3,0.3C130.7,130.5,129.7,130.5,129.1,130.9z"/>
	<path class="st4" d="M21.6,70.1c-1.9-2.4-3.6-4.7-2.5-8.2c0.5-1.5,0.2-3.6-1.1-5.1c0.5-2.5,1.8-4.6,3.1-6.7
		c1.7-0.3,3.4-0.6,5.1-0.9c-0.9,5.7-3,11.3-0.8,17.4C26.1,68.8,23.7,69.8,21.6,70.1z"/>
	<path class="st5" d="M26.1,49.1c-1.7,0.3-3.4,0.6-5.1,0.9c0.9-3.2,2.5-6,4.9-8.4c1,0.1,2,0.2,3,0.3c-0.1,0.4-0.1,0.9-0.2,1.3
		c-3.8,0.5-0.9,3.2-1.5,4.8C26.8,48.4,26.4,48.8,26.1,49.1z"/>
	<path class="st3" d="M118.1,14.9c1.9,0.2,3.3,1.1,2.9,3c-0.4,2.1-2.3,2.7-4.5,3.3c-0.5-2.6,2.6-3.9,1.4-6.2L118.1,14.9z"/>
	<path class="st4" d="M133.1,24.9c1.3-1.1,2.6-2.3,4.3-1c0.5,0.4,0.8,1.7,0.6,2.2c-1,2-3.2,1.2-4.8,1.7c0,0-0.1-0.1-0.1-0.1
		c0-0.3,0-0.5,0-0.8C133.6,26.4,133.6,25.7,133.1,24.9z"/>
	<path class="st4" d="M132.1,21.1c-1,0.9-2,1.9-3.1,2.8c-0.6-0.1-1.3-0.1-1.9-0.2c-0.3-1.3-0.7-2.5-1-3.8c1.6,0,3.2-0.1,4.9-0.1
		C131.3,20.3,131.7,20.7,132.1,21.1z"/>
	<path class="st3" d="M104.2,32.1c-0.3-1-0.7-2-1-2.9c1.7,0.8,4.6-0.4,4.9,2.8C106.8,32,105.5,32,104.2,32.1z"/>
	<path class="st3" d="M126.1,20c0.3,1.3,0.7,2.5,1,3.8C124.8,23.1,124.8,21.7,126.1,20z"/>
	<path class="st5" d="M132.1,21.1c-0.4-0.4-0.8-0.8-1.1-1.2c0.5-0.8,1-0.4,1.5,0C132.3,20.3,132.2,20.7,132.1,21.1z"/>
	<path class="st3" d="M133.1,27.1c0,0.3,0,0.5,0,0.8c-0.3-0.1-0.5-0.2-0.8-0.4C132.6,27.3,132.8,27.2,133.1,27.1z"/>
	<polygon class="st3" points="118,15 117.8,14.8 118.1,14.9 	"/>
	<path class="st3" d="M106,37c-0.3-0.3-0.6-0.6-0.9-1C105.4,36.3,105.7,36.6,106,37z"/>
	<path class="st4" d="M147,26c-2.3-1.9-1.5-2.7,1-3c0,0,0,0,0,0c0.3,0,0.7,0.1,1,0.1c2.5,1.4,5.4,2.2,6.9,4.9
		C153.1,26.9,149.2,30.2,147,26C147,26,147,26,147,26z"/>
	<path class="st4" d="M166.8,43.1c-0.7-0.1-1.3-0.1-2-0.2c-1.4-1.5-1.9-3.1-0.8-5C166.3,38.9,167,40.8,166.8,43.1z"/>
	<path class="st3" d="M149,23.1c-0.3,0-0.7-0.1-1-0.1C148.4,23,148.7,23,149,23.1z"/>
	<path class="st3" d="M28.7,43.3c0.1-0.4,0.1-0.9,0.2-1.3c1.9-0.6,2.6-2,3.4-3.8c0.9-2.2,2.4-3.9,3.8-0.2c0,0-0.2-0.1-0.2-0.1L36,38
		c0.1,0.5,0.3,0.9,0.4,1.4c0.4,1.6-2.4,4.1-1.3,3.9c2.8-0.4,4.8,4.5,7.7,0.9c0.5-0.6,2.2-0.1,3.3-0.1c0.3,2,0.6,4,0.9,6
		c-3,0.4-4.1,2.9-2.9,4.8c1.6,2.5,4,0.9,5.7-0.8c1.8,1.2,3,2.6,0.1,3.8c-3.8,1.7-1.2,3,0.4,3.7C52,62.3,54,63,56,62
		c1.8,2.5,4.7,0.8,6.9,1.8c0.3,0.6,0.7,1.2,1,1.7c-0.7,0-1.4,0.1-2.1,0.1c-1.4-0.6-2.2,0-2.6,1.3c-0.4,1.5,0.1,2.6,1.7,2.9
		c0.3,0,0.7,0.1,1,0.1c0.1,0.4,0.1,0.8,0.2,1.2c0,1,2.1,2.6-1.2,2.7c-3.1,0.1-2,1.6,0,2.5c0.5,0.8,0.8,0.5,1.1-0.1
		c2.8,0.2,4-3.4,6.9-2.9c1.6,3.7,2.9,7.4,3,11.5c-2.1,1.5-4.8,2-6.2,4.4c-1,1.6-0.4,2,1.2,1.8c0.4,0.3,0.8,0.6,1.2,0.9
		c0,0.3,0,0.5,0.1,0.8c-0.1,0.4-0.1,0.8-0.2,1.2c-2.3,1.8-5.2,1.3-7.8,2.1c-0.7,0-1.4,0-2.1-0.1c1.9-2.9,1.6-6.5,3.7-9.4
		c1.3-1.8-0.1-2.2-1.8-1.5c-0.7-0.5-1.5-1.2-2.1-0.2c-0.4,0.8,0.6,1,1.1,1.3c-1.3,1.4-0.7,3.3-1.2,4.9c-1.2-0.7-2.5-0.6-3.7,0
		c-0.3-1.2,0.2-2.2,0.9-3.2c0.9-1.1,1.3-2.6,0.4-3.6c-1.3-1.5-2.6-0.1-3.8,0.7c-1.3-0.5-3.5,0.3-3.9-1.3c-0.5-1.9,1.4-2.2,2.9-2.6
		c0.6-0.2,1.5-0.6,0.8-1.3c-0.5-0.5-1.5-0.6-2.2-0.8c-0.5-1.3-0.9-2.6-1.4-3.9c0.6-2.6-0.6-3.4-3-3c-1.5-1.1-2.9-2-2.8,1.1
		c0,1.6,1.1,3.1,0.5,4.8c-0.6,0.4-1.2,0.8-1.8,1.3c-1.1,0.5-2.1,0.3-3-0.5c0-1.1,0-2.3,0-3.4c0,0,0.2-0.4,0.2-0.4
		c0.6,0.5,1.1,1.4,1.7,1.5c0.8,0.1,0.8-0.8,0.7-1.4c-0.1-1.4-0.3-2.9-0.4-4.3c0.1-4.1,0-8.1-5.5-8.8c0.7-0.6,1.3-1.6,2.1-1.9
		c1.9-0.7,3.8-1.3,4.5-3.3c0.1-0.4-0.6-1.5-0.9-1.5c-2.3-0.1-3.8,1.4-5.2,2.9c-7,0.7-8,2.4-5.4,8.9c-0.1,0.7-0.2,1.3-0.3,2
		c-2.6,2.9,0.8,5,0.5,7.4c2.3,0.8,0.8-5,4-1.7c0.1,1.2,0.5,2,1.9,2.1c0.1,0.8,0.2,1.6,0.3,2.5c-0.4,0.3-0.7,0.6-1.1,0.9
		c-2.6-0.1-5.3-0.1-7.9-0.2c-0.2-2.1,1.4-4.2,0.2-6.3c-0.5-0.9-0.8-2-2.1-1.1c1.8,2.4-3.5,5.5,0.7,7.6c0,2,0,4,0,6
		c-1.3,0-2.6-0.1-3.9-0.1c-1-0.1-1.9-0.2-2.9-0.3c0.2-2.9,2.5-5.5,1.5-8.7c-0.2-0.5-0.4-1-0.5-1.4c0-0.5,0-0.9,0-1.4
		c0.5-1.3,1-2.7,1.5-4c2.2-0.3,4.5-1.3,3.7-3.6c-2.2-6-0.1-11.6,0.8-17.4c0.4-0.3,0.7-0.7,1.1-1c1.4-0.1,3.1,0.2,3.7-1.5
		C31.5,44.8,29.2,44.6,28.7,43.3z M30,56c1.3-0.2,3,0.5,3.7-1.3c0.1-0.2-0.7-1.1-1.2-1.2C30.5,53,30.2,54.4,30,56
		c-1,0.6-3,0-2.8,2.3C28.9,58.3,29.5,57.2,30,56z"/>
	<path class="st3" d="M48.1,109c-4.5,1.6-3.4,5.7-4.2,9c-0.3,0-0.6,0-0.9-0.1c0-0.9,0.1-2.5-1-2.2c-1.4,0.3-0.1,1.5,0,2.3
		c-1.3,0-1.2,0-2.1-1.6c-1.5-2.7-2.2-1.5-2.8,0.6c-0.3,1.1-0.9,1.8-2,2c-0.7-1-1.5-2-2.2-3c-2.3-1.6-5.5-2.7-2.6-6.7
		c1.3-1.8-1.2-3.4-1.9-5.2c-0.6-1.7-0.8-3.5-1.2-5.2c2-0.8,4.1-2,5.8,0.5c-1.6,2.1-1.6,4,0.3,6c2.2,2.3,3-0.7,4.5-0.8
		c1.6,1.4,3.4,3.4,5.5,2.4c2.2-1,0.3-3.5,0.7-5.3c0.1-0.3,0-0.6,0-1l-0.1,0c1.4,0.2,2.9,0.8,4.3,0.6c1.3-0.2,2.7-1.3,0.7-2.6
		c-5.3-3.7-1-4.1,1.7-5c0.4,1.2-1.1,2.4-0.1,3.8c1.8-1.8,4.8-1.4,6.3-3.7c0.1,0.9,0.2,1.9,0.2,2.8c0,1-0.1,2.1-0.1,3.1
		c-2.6,0.8-4.1,2.2-3.1,5.2C50.8,104.7,49.7,107.2,48.1,109z"/>
	<path class="st3" d="M27.5,94c-0.4-0.5-0.8-1-1.2-1.6c0.3-1.6,0.5-3.2,0.8-4.7c5-0.1-0.4-3.9,1.8-4.9c1.9-0.9,4.5,2.4,5.9-1
		c0.8-0.3,1.6-0.7,2.4-1c0.6,0.8,1.3,1.5,1.9,2.3c3,2,6,3.9,9,5.9c-0.2,3.2-3.2,2.7-5,3.9c-4.7,0.5-4.7,0.5-4.9,2.1
		c-0.5,0.1-1,0.1-1.4,0.2c-0.5,0-1.1-0.1-1.6-0.1C32.5,95.4,30,94.9,27.5,94z"/>
	<path class="st4" d="M27,87.7c-0.3,1.6-0.5,3.2-0.8,4.7c-4.1,2.1-4.4,2.7-4.3,9.1c-2.5-1.9-2.8-3.8-0.8-7.2
		c0.9-1.5,2.5-2.4-0.1-4.1c-1.8-1.1,1.1-2.7,1.1-4.3c1.3,0,2.6,0.1,3.9,0.1C26.3,86.5,26.7,87.1,27,87.7z"/>
	<path class="st3" d="M37,122.1c-0.5,4,2.7,3.4,5,3.9c0,0.7,0,1.3,0.1,2c0,0.3,0,0.7,0,1c-1,0.3-2,0.6-3,1c-0.3,0.4-0.6,0.8-0.8,1.2
		c1.1,3-1.7,2.8-3.1,3.8c-0.7-0.3-1.4-0.7-2.2-1c4-2.6,0.2-5.3,0.2-8c1.4-0.5,2.4-1.6,3-2.9C36.2,122.6,36.1,121.9,37,122.1z"/>
	<path class="st4" d="M20.6,76.9c1.1,3.2-1.3,5.7-1.5,8.7c0,2.2-1.4,3.9-3.2,3.7c-1.7-0.1-1.1-2.4-1.3-3.8c-0.5-3.4,0-5.6,4.1-5.8
		C19.4,79.7,20,77.9,20.6,76.9z"/>
	<path class="st4" d="M36.1,123.1c-0.7,1.3-1.6,2.4-3,2.9c-1.9-0.2-5.2,3.5-5.3-1.9c0-1.1,0.4-2.4,1.5-2.2c6.4,1.1,2.9-3.6,3.6-5.9
		c0.7,1,1.5,2,2.2,3C34.1,120.7,34.1,122.1,36.1,123.1z"/>
	<path class="st4" d="M26.1,112.7c0.6,2.8,0.9,4.4,1.3,6.2c-1.2,1.1-7.5-3.1-3.8,3.3c0.1,0.1-0.8,1.1-1.3,1.2
		c-1.2,0.2-1.6-0.9-2.1-1.8c-0.8-1.4-1.2-2.8,0.4-4C22.3,116.2,24.9,116.2,26.1,112.7z"/>
	<path class="st4" d="M32.8,134c0.7,0.3,1.4,0.7,2.2,1c0.6,0.5,1.2,0.9,1.9,1.4c0.1,1,0.1,2.1,0.2,3.1c-3.2,2.4-5.7-0.5-8.4-1.2
		c-0.8-0.2-1.2-1.6,0.3-2.3C30.3,135.3,31.5,134.6,32.8,134z"/>
	<path class="st4" d="M27.5,94c2.5,0.9,5,1.4,7.6,1.1c-0.4,1.3-0.7,2.6-1.1,3.9c0,0.3,0,0.6,0,0.9c-0.3-0.1-0.7-0.3-1-0.4
		c-1.7-2.5-3.8-1.3-5.8-0.5C27.7,97.4,23.7,95.4,27.5,94z"/>
	<path class="st4" d="M20.1,74.1c0,0.5,0,0.9,0,1.4c-0.6,0.2-1.4,0.9-1.6,0C18.2,74.5,19.3,74.3,20.1,74.1z"/>
	<path class="st5" d="M130,61.9c1.1,0,2.3,0.2,3.1-0.8c-0.2-1.7,0.8-2.6,2.3-3c2.5-1.2,1.7-4.5,3.7-6c1.8-0.6,3.6-1.1,5.4-1.7
		c-2.3-0.6-0.8-5-4.4-4.3c-2.3,0.4-2.1,2.1-2.2,3.7c-0.7-0.3-1.4-0.7-2.1-1c-0.6-0.6-1.2-1.2-1.8-1.8c-0.4,0-0.7-0.1-1.1-0.1l0,0
		c0.4-1.3,0.7-2.6,1.1-4c1.6-1.1,3.2-2.1,4.9-3.2c1.3,2,3.1,2,5.1,1.2c1.6,4.5,3.5,9,4.6,13.6c0.8,3.4,2.5,2,4.3,1.5
		c1,2.7,2.4,4.7,5.7,4.4c1.1-0.1,2,0.4,1.3,1.8c-1.6,3.1,0.4,5.3,1.8,7.7c-1,2.1-1.9,1.2-2.9,0c-1.2-1.7-2.5-4.5-4.6-3.3
		c-2.9,1.6,0.8,3.5,0.8,5.4c-0.4,0-0.7-0.1-1.1-0.1c-2.8-1.3-5.4-1.7-7.1,1.6c-0.8-0.4-1.3-3.6-2.5-0.3c-1.7,2.2,0,3,1.6,3.8
		c0.1,0.6,0.2,1.2,0.3,1.8c0,0-0.3,0.1-0.3,0.1c-2.6,1.3-1.6,5.7-5.3,6c-3-2.5-4.1-1.2-4.3,2.1c-0.1,1.3-0.1,2.7-0.2,4
		c-1.8,1.5-3,0.9-4.5-0.8c-1.6-1.7-0.9-3.1,0.3-4.2c1.8-1.8,2.6-4.5,5.3-5.5c1,0.4,2.2,1.4,2.5-0.7c0.4-2.5-0.1-3.8-3.2-3.7
		c-4.4,0.1-8.1-1-10-6.2c-1.5-4.3,2.9-5.1,3.4-8L130,61.9z M146.7,59.7c-0.6-2.7,1.4-7.5-4.7-5.9C143.1,56.2,144.4,58.3,146.7,59.7z
		 M141,60.4c-0.2-0.3-0.3-0.6-0.5-0.7c-0.2-0.1-0.5,0.1-0.8,0.2c0.1,0.2,0.2,0.6,0.5,0.7C140.4,60.6,140.7,60.4,141,60.4z"/>
	<path class="st4" d="M162.1,48.1c0,0.3,0,0.6,0,0.9c-1,0.3-2,0.7-3,1c-0.9-0.2-1.8-0.6-2.8-0.7c-4.9-0.7-5-1.1-2.3-5.3l0,0
		c1.1-0.1,3.1,0.9,2.4-1.7c-0.4-1.5-1.1-2.8,0.1-4.2C161.8,39.5,160.7,44.5,162.1,48.1z"/>
	<path class="st4" d="M144.1,41c-2,0.8-3.8,0.8-5.1-1.2c0.4-1.8,0.2-4.6,2.5-4.7c1.8-0.1,3.9,1,4.5,3.7c0.4,1.9,2.4,2.6,4.4,2.4
		c2.2-0.2,3.5,0.4,3.7,2.8c0,0,0,0,0,0C150.8,42.7,146.9,43.7,144.1,41z"/>
	<path class="st4" d="M146.4,29.2c2.1,1.7,4.4,3.5,6.6,5.3c0.3,0.2,0,1.3-0.2,1.9c-0.4,1-1.3,0.9-2.1,0.5c-2.4-1.2-4.8-2.3-7-3.8
		c-0.2-0.1,1-2.4,1.6-3.7C145.4,29.3,145.9,29.3,146.4,29.2z"/>
	<path class="st4" d="M138.3,34.1c-0.2,1.9-2,1.5-3.4,1.5c-1.2,0.1-1.9-0.9-1.6-2c0.4-1.5,1.3-2.8,3.1-2.7
		C138.3,30.9,138.3,32.3,138.3,34.1z"/>
	<path class="st4" d="M163.8,47c0.1,0.3,0.1,0.7,0.2,1l0,0c-0.3-0.1-0.7-0.1-1-0.2C163.3,47.5,163.5,47.2,163.8,47z"/>
	<path class="st4" d="M164,45c0.1,0.2,0.2,0.4,0.2,0.7c0,0.1-0.2,0.2-0.2,0.3C164,45.7,164,45.3,164,45z"/>
	<path class="st4" d="M47.2,160.3c0.3,0.1,0.5,0.3,0.7,0.6C47.6,160.8,47.3,160.6,47.2,160.3z"/>
	<path class="st5" d="M113,82c1.4-1.1,1.3-2.8,2-4.2c0.3-0.3,0.7-0.6,1-0.8c1.1-1.2,2.2-1.3,3.2,0c1.3,1.7,0.7,3.3-0.2,4.9
		c-2.2,0-3.8,0.6-3.8,3.3c0,1.2-0.2,2.7-2,3c-0.4-0.1-0.8-0.2-1.2-0.2C112.6,86,114.7,84.3,113,82z"/>
	<path class="st3" d="M124,86c0.3,2.7-0.3,4.8-3.4,5.4c-1.4,0.3-1.9,1.6-2.5,2.7c0,0.3,0,0.5,0,0.8c-0.9-3-3.3-5.9-0.1-8.9
		c0.3,1.1,1.1,1.8,2.3,2C121.5,87.3,122.8,86.7,124,86z"/>
	<path class="st4" d="M94.9,101.9c1.6-6.1,1.6-6.1,9.3-2.5C100.8,100.2,98,101,94.9,101.9z"/>
	<path class="st4" d="M111.2,93.3c0.8,0.2,1.4,0.5,1.3,1.3c-0.1,0.8-0.9,0.9-1.5,0.6c-0.4-0.2-1-0.6-1-0.9
		C109.9,93.3,110.6,93.3,111.2,93.3z"/>
	<path class="st4" d="M112,88c0.4,0.1,0.8,0.1,1.2,0.2c-0.4,0.9,0.2,2.9-1.3,2.6C110.4,90.4,111.5,89,112,88z"/>
	<path class="st4" d="M118.1,94.9c0-0.3,0-0.5,0-0.8c2.4,0.7,2,2.3,1.1,3.9c-0.4-0.3-0.8-0.7-1.1-1C118,96.3,118.1,95.6,118.1,94.9z
		"/>
	<path class="st4" d="M120.2,88c-1.2-0.2-1.9-0.9-2.3-2C119.8,85.5,119.7,87,120.2,88z"/>
	<path class="st3" d="M101.1,114c0-0.3,0-0.7,0-1C101.1,113.3,101.1,113.6,101.1,114z"/>
	<path class="st5" d="M61,76.4c-2-0.9-3.1-2.3,0-2.5c3.3-0.2,1.2-1.7,1.2-2.7c0.5-0.3,1.3-0.4,1-1.2c0-0.1-0.8,0.1-1.2,0.1
		c-0.3,0-0.7-0.1-1-0.1c-1-1.7,0.9-2.7,0.9-4.2c0.7,0,1.4-0.1,2.1-0.1c0.7,0.4,1.5,0.8,2.2,1.2c1.2,0.5,2.5,0.9,3.7,1.4
		c-0.1,1.8,0.9,3.7-0.9,5.2c-2.9-0.4-4.1,3.2-6.9,2.9C61.7,76.3,61.4,76.4,61,76.4z"/>
	<path class="st5" d="M67,91.1c-1.6,0.2-2.2-0.2-1.2-1.8c1.4-2.4,4.1-3,6.2-4.4C73.3,89.3,70.3,90.3,67,91.1z"/>
	<path class="st5" d="M68.2,92.8c0-0.3-0.1-0.5-0.1-0.8c0.3,0.1,0.5,0.3,0.8,0.4C68.7,92.5,68.5,92.7,68.2,92.8z"/>
	<path class="st4" d="M49.8,54c-1.7,1.7-4.1,3.3-5.7,0.8C42.9,52.9,44,50.4,47,50C47.9,51.3,48.9,52.7,49.8,54z"/>
	<path class="st3" d="M50.8,47.1c1.8,0.1,2.9,1.1,3.2,2.9C51.6,50.5,49.1,51.2,50.8,47.1z"/>
	<path class="st4" d="M55.9,61c0.1,0.3,0.1,0.6,0.1,1c-0.1-0.2-0.2-0.4-0.3-0.6C55.8,61.2,55.9,61.1,55.9,61z"/>
	<polygon class="st3" points="55,52 54.9,52.1 55,52 	"/>
	<path class="st5" d="M132.2,54.9c-3-1.3-1.9-5.4-4.7-6.8c1.3-2.8,3.5-1.8,5.5-1.1c0,0,0,0,0,0c-1.9,3,2.5,6,0,9
		C132.8,55.6,132.5,55.2,132.2,54.9z"/>
	<path class="st4" d="M57,100c0-1,0.1-2.1,0.1-3.1c0.3-0.3,0.7-0.6,1-0.9c0.7,0,1.4,0,2.1,0.1c0.5,2,2.9,1,4,2.4
		C62.4,101.8,59.5,100,57,100z"/>
	<path class="st3" d="M115,57.9c0.6,0.7,1.3,1.3,1.9,2c-0.2,0.3-0.3,0.6-0.5,0.8c-1.3,1.2-2.3,2.9-4.4,2.6c-0.5-0.1-1.2-1.2-1.2-1.2
		C112.2,60.6,112.2,57.8,115,57.9z"/>
	<path class="st3" d="M107,55.9c1-0.3,2-0.6,2.9-0.9C109.1,55.8,108.1,56,107,55.9z"/>
	<path class="st1" d="M92.7,59.6c0.5,0.5,0.9,0.8,1,1.1c0,0.4-0.3,0.8-0.5,1.2c-0.3-0.3-0.9-0.5-1-0.8
		C92.2,60.8,92.5,60.4,92.7,59.6z"/>
	<path class="st3" d="M91.2,83.7c1.7,0.4,3.3,0.1,5-0.4c0.4,1.4,1.5,1.6,2.8,1.7c-1.6,2.5-4.3,3.3-6.9,4c-0.7-0.1-1.4-0.2-2-0.2
		C90,87,90.4,85.3,91.2,83.7z"/>
	<path class="st3" d="M87.9,92.1c0.1-0.4,0.1-0.8,0.2-1.2c0.4-0.3,0.7-0.7,1.1-1c0.6,0.2,1.4,0.4,1.2,1.2
		C90,92.4,88.9,92.1,87.9,92.1z"/>
	<path class="st1" d="M88.2,43.9c0.6-0.7,1.2-1.4,1.8-2.1c0.9-0.3,1.8-0.5,2.7-0.8c-0.6,1-1.2,1.9-1.8,2.9
		C90,43.9,89.1,43.9,88.2,43.9z"/>
	<path class="st1" d="M93.7,41c0.2-0.2,0.4-0.5,0.6-0.7c1.9-0.1,2.5,1.2,2.8,2.7C94.2,45.2,94.1,42.9,93.7,41z"/>
	<path class="st4" d="M161.8,70.1c-1.4-2.4-3.4-4.6-1.8-7.7c0.7-1.4-0.2-1.9-1.3-1.8c-3.3,0.3-4.7-1.7-5.7-4.4
		c-0.6-5.9,3.8-2.4,5.9-3.1c1.7-0.7,3.4-1.4,5.1-2.1c0,0,0,0,0,0c-0.4,3.9,1.2,5.3,5,4.1c-0.1,1.5-0.8,3.1,0.1,4.3
		c3.7,4.9,0.7,7.3-3.2,9.6C164.2,67.9,163,69,161.8,70.1z"/>
	<path class="st4" d="M178,89c-0.7-0.3-1.3-0.7-2-1c0.2-2.3-0.7-4.3-2.7-5.1c-1.4-0.6-1.3,1.5-2.2,2.1c-1.4-2.3-0.9-4.6-0.1-6.9
		c0.3-2.5,3-2.3,4.3-4.6c1.6,5.5,3.1,10.2,4.3,15C179.8,89.4,178.6,89.1,178,89z"/>
	<path class="st4" d="M164.9,83c0.5-1,1-2,0.2-3.1c-0.1-0.6-0.2-1.3-0.3-1.9c0,0,0.4-0.1,0.4-0.1c0.9,0,1.8,0,2.8-0.1
		c1.1,3.4,1.5,6.7,0.1,10.1c-0.3-0.3-0.7-0.7-1-1c0-0.3,0-0.7,0-1C166.3,85,165.6,84,164.9,83z"/>
	<path class="st3" d="M169,55c-3.8,1.2-5.4-0.2-5-4.1C166.7,51.1,169.3,51.3,169,55z"/>
	<path class="st1" d="M164.1,50.9c-1.7,0.7-3.4,1.4-5.1,2.1c0-1,0.1-2,0.1-3.1c1-0.3,2-0.7,3-1C162.7,49.6,163.4,50.3,164.1,50.9z"
		/>
	<path class="st4" d="M164,48c0.4,0.2,0.8,0.4,1.3,0.7C164.3,49.4,164.4,48.2,164,48C164,48,164,48,164,48z"/>
	<path class="st3" d="M167,86c0,0.3,0,0.7,0,1C166,86.6,166.1,86.3,167,86z"/>
	<path class="st4" d="M136.2,91c0.1-1.3,0.1-2.7,0.2-4c0.6,0.3,1.2,0.6,1.8,0.9c0.8-0.2,1.4-0.6,1.5-1.6c0.3-0.5,0.6-0.9,1-1.4
		c3.7-0.3,2.7-4.7,5.3-6c0.1,0.4,0.1,0.7,0.2,1.1c-0.3,2.6,0.2,5.3-1.6,7.5c-2,2.4,3.7,2.3,1.5,4.7c0,0.9,0.4,2.4,0,2.7
		c-1.1,0.7-0.9-0.8-1.3-1.3c-0.1-0.1-0.3-0.1-0.4-0.1c-0.1,0.1-0.2,0.2-0.3,0.3c-1,0-2,0-3.1,0c0.3-0.8,1.2-1.6,0.6-2.6
		c0-0.1-1,0.4-1.6,0.6C139.2,89.6,137.7,90.7,136.2,91z"/>
	<path class="st4" d="M146.9,73.6c1.8-3.3,4.3-2.9,7.1-1.6c0.9,1.4,1.9,2.9,3,4.7c-2.3,0.5-3.4-1.6-5.1-1.6c-1.4-1.2-3.1-1-4.8-0.9
		l-0.3-0.4L146.9,73.6z"/>
	<path class="st4" d="M155.1,72.1c0-1.9-3.6-3.8-0.8-5.4c2.1-1.1,3.5,1.6,4.6,3.3C157.8,71,157.6,73.8,155.1,72.1z"/>
	<path class="st1" d="M147.2,74.2c1.7-0.2,3.4-0.3,4.8,0.9c-0.2,3.8-3.9,2.5-5.7,3.9c-0.1-0.6-0.2-1.2-0.3-1.8
		C146.3,76.1,146.8,75.1,147.2,74.2z"/>
	<path class="st4" d="M163.1,80c-1.4,0-2.9,0-4.3,0c1.5-3.5,1.5-3.6,4.3-2C163.1,78.7,163.1,79.4,163.1,80z"/>
	<path class="st1" d="M163.1,80c0-0.7,0-1.3,0-2c0.6,0,1.1,0,1.7,0c0.1,0.6,0.2,1.3,0.3,1.9C164.4,80,163.7,80,163.1,80z"/>
	<path class="st4" d="M162,84c-0.2-0.4-0.5-0.7-0.7-1.1c0.2-0.1,0.3-0.2,0.5-0.2C161.9,83.1,162,83.5,162,84C162.1,84,162,84,162,84
		z"/>
	<path class="st4" d="M148,103c-1.5-1.3-3.4-1-5.1-1.2c0.3-0.9,0.5-1.7,0.8-2.6c1.6,0.4,3.2,0.8,4.7,1.1c0.7,0.2,1.9-0.1,1.8,1.1
		C150.1,102.6,149,102.8,148,103z"/>
	<path class="st4" d="M150,106c0.3-1,0.7-1,1,0l0,0C150.7,106,150.3,106,150,106C150,106,150,106,150,106z"/>
	<polygon class="st4" points="151,106 151.2,106.1 151,106 	"/>
	<polygon class="st3" points="151.1,84 150.8,84.2 151,83.9 	"/>
	<path class="st4" d="M42,129c0-0.3,0-0.7,0-1c1,1.1,1,2.3,0.7,4.2C41.2,131,42,129.9,42,129z"/>
	<path class="st4" d="M38.1,131.1c0.3-0.4,0.6-0.8,0.8-1.2C38.7,130.4,38.4,130.7,38.1,131.1z"/>
	<path class="st5" d="M36.1,123.1c-1.9-1-2-2.4-1-4.1c1.1-0.2,1.8-0.9,2-2c3.4,1.8,1,3.4-0.1,5.1C36.1,121.9,36.2,122.6,36.1,123.1z
		"/>
	<path class="st5" d="M42,118c-0.2-0.8-1.4-2,0-2.3c1.1-0.3,1,1.3,1,2.2C42.7,118,42.3,118,42,118z"/>
	<path class="st1" d="M132.2,54.9c0.3,0.4,0.6,0.7,0.9,1.1c0.8,0.7,1.6,1.4,2.4,2.1c-1.6,0.4-2.5,1.2-2.3,3
		C128.8,56.6,128.8,56.6,132.2,54.9z"/>
	<path class="st1" d="M124.3,80c-1.5-0.4-2.5-1.3-1.8-2.9c0.7-1.6,2.1-2.1,3.7-0.9C125.6,77.5,124.9,78.7,124.3,80z"/>
	<path class="st5" d="M124.3,80c0.6-1.3,1.2-2.5,1.8-3.8c1.1,0.1,1.7,0.7,1.8,1.8l0,0C126.7,78.5,127.6,83.1,124.3,80z"/>
	<path class="st5" d="M140,92c0.5-0.2,1.5-0.7,1.6-0.6c0.6,1-0.3,1.7-0.6,2.6c-0.4,0.3-0.8,0.6-1.2,1c-0.3,0.3-0.5,0.5-0.8,0.8
		C136.6,93.7,139.7,93.2,140,92z"/>
	<path class="st4" d="M139,95.7c0.3-0.3,0.5-0.5,0.8-0.8c0.8,0.5,1.5,1,2.3,1.5c-0.7,1.7-1.9,1.3-3.1,0.6
		C139,96.6,139,96.1,139,95.7z"/>
	<path class="st4" d="M125.8,95.9c0.1-0.6,0.2-1.3,0.3-1.9c0.7,0.4,1.5,0.8,1.3,1.7C127.1,96.5,126.3,96.1,125.8,95.9z"/>
	<path class="st4" d="M139.7,79.9c-0.3,2.1-1.5,1.1-2.5,0.7C138.1,80.3,138.9,80.1,139.7,79.9z"/>
	<path class="st4" d="M129.8,62c-0.4-0.2-0.7-0.5-1.1-0.7c0.1-0.1,0.2-0.3,0.2-0.3c0.3,0.3,0.7,0.5,1,0.8
		C130,61.9,129.8,62,129.8,62z"/>
	<path class="st5" d="M128,78C128,78,128,78,128,78C128,78,128,78,128,78z"/>
	<path class="st4" d="M116,77c-0.3,0.3-0.7,0.6-1,0.8C115.3,77.5,115.7,77.3,116,77z"/>
	<path class="st1" d="M142.1,96.4c-0.8-0.5-1.5-1-2.3-1.5c0.4-0.3,0.8-0.6,1.2-1c1,0,2,0,3.1,0C144,95.2,143.4,96,142.1,96.4z"/>
	<path class="st4" d="M48,146.1c-0.2-0.1-0.5-0.2-0.7-0.3c0.4-0.6,0.6,0.1,0.8,0.2C48,145.9,48,146.1,48,146.1z"/>
	<path class="st4" d="M28.7,43.3c0.5,1.3,2.8,1.5,2.2,3.3c-0.6,1.7-2.3,1.4-3.7,1.5C27.8,46.5,24.9,43.8,28.7,43.3z"/>
	<path class="st3" d="M147,26C147,26,147,26,147,26C147,26,147,26,147,26z"/>
	<path class="st4" d="M48,89.1c-3-2-6-3.9-9-5.9c0.4-0.1,0.8-0.2,1.2-0.2c0.6-0.2,1.4-0.3,1.7-0.7c0.5-0.8-0.3-1.1-0.9-1.4
		c0-0.5-0.1-1.1-0.1-1.6c0.6-0.4,1.2-0.8,1.8-1.3c0.5,0.9,1.2,1.4,1.4-0.1c0.2-1.6,0.1-3.2,1-4.7c0.4,0.5,0.7,1,1.1,1.6
		c1.4,1.2-0.8,5.1,3.3,4.3c0.8,0.3,1.7,0.3,2.2,0.8c0.6,0.7-0.2,1.1-0.8,1.3c-1.4,0.4-3.4,0.8-2.9,2.6c0.5,1.6,2.6,0.8,3.9,1.3
		c-0.3,1.3-0.5,2.7-0.8,4C50,89,49,89,48,89.1z"/>
	<path class="st5" d="M27,87.7c-0.3-0.6-0.7-1.2-1-1.7c0-2,0-4,0-6c0.4,0,0.8-0.1,1.1-0.1c2.6,0.1,5.3,0.1,7.9,0.2
		c-0.1,0.6-0.2,1.2-0.3,1.8c-1.5,3.4-4.1,0-5.9,1C26.6,83.9,32,87.6,27,87.7z"/>
	<path class="st4" d="M29.7,67c-2.6-6.6-1.6-8.2,5.4-8.9c-0.4,1.3-0.7,2.6-1.1,3.9l0,0C33.1,64.1,32.2,66.2,29.7,67z"/>
	<path class="st4" d="M33.9,74.6c-3.2-3.2-1.7,2.5-4,1.7c0.4-2.4-3.1-4.5-0.5-7.4c1.8,0.9,3.4,2.4,5.6,2.1c1,0.7,2,1.4,3,2
		c0,0.6,0,1.2,0,1.8c0,0-0.2,0.4-0.2,0.4c-0.6-0.1-1.1-0.2-1.7-0.3C35.5,74.9,34.7,74.7,33.9,74.6z"/>
	<path class="st5" d="M35.1,71.1c-2.2,0.3-3.8-1.2-5.6-2.1c0.1-0.7,0.2-1.3,0.3-2c2.5-0.8,3.3-2.9,4.3-5c1,2.3,2,4.7,3,7
		C36.4,69.7,35.7,70.4,35.1,71.1z"/>
	<path class="st4" d="M56.9,94c-1.5,2.3-4.5,1.8-6.3,3.7c-1-1.5,0.5-2.6,0.1-3.8c0.4-0.6,0.8-1.1,1.2-1.7c1,0,1.8-0.3,2.3-1.2
		c1.2-0.7,2.5-0.7,3.7,0C57.9,92.1,57.7,93.1,56.9,94z"/>
	<path class="st4" d="M37.1,69c-1-2.3-2-4.7-3-7c0,0,0,0,0,0c0.2-0.1,0.4-0.1,0.6-0.1c5.5,0.7,5.6,4.6,5.5,8.8
		c-0.5,0.4-1,0.8-1.5,1.3C38.1,71,37.6,70,37.1,69z"/>
	<path class="st5" d="M54.2,91c-0.5,0.9-1.3,1.2-2.3,1.2c-0.1-1.1,0.1-2.3-0.9-3.2c0.3-1.3,0.5-2.7,0.8-4c1.2-0.8,2.4-2.2,3.8-0.7
		c0.9,1,0.4,2.5-0.4,3.6C54.4,88.8,53.9,89.8,54.2,91z"/>
	<path class="st5" d="M56.9,94c0.8-0.9,1-1.9,1-3.1c0.5-1.6-0.1-3.5,1.2-4.9c0.3-0.3,0.6-0.7,0.9-1c1.7-0.7,3.1-0.3,1.8,1.5
		c-2.1,2.9-1.8,6.6-3.7,9.4c-0.3,0.3-0.7,0.6-1,0.9C57.1,95.9,57,94.9,56.9,94z"/>
	<path class="st5" d="M34.6,61.9c-0.2,0-0.4,0-0.6,0.1c0.4-1.3,0.7-2.6,1.1-3.9c1.4-1.5,2.9-3,5.2-2.9c0.3,0,1,1.1,0.9,1.5
		c-0.7,2.1-2.6,2.7-4.5,3.3C35.9,60.3,35.3,61.3,34.6,61.9z"/>
	<path class="st4" d="M27.1,79.8c-0.4,0-0.8,0.1-1.1,0.1c-4.3-2.1,1.1-5.2-0.7-7.6c1.4-0.8,1.6,0.3,2.1,1.1
		C28.5,75.7,26.9,77.7,27.1,79.8z"/>
	<path class="st4" d="M30,56c0.1-1.6,0.5-3,2.5-2.5c0.5,0.1,1.3,1,1.2,1.2C33,56.5,31.3,55.8,30,56L30,56z"/>
	<path class="st5" d="M38.6,71.9c0.5-0.4,1-0.8,1.5-1.3c0.1,1.4,0.2,2.9,0.4,4.3c0.1,0.7,0.1,1.6-0.7,1.4c-0.6-0.1-1.1-1-1.7-1.5
		c0-0.6,0-1.2,0-1.8C38.3,72.7,38.4,72.3,38.6,71.9z"/>
	<path class="st5" d="M40.9,79.2c0,0.5,0.1,1.1,0.1,1.6c0,0-0.2,0.2-0.2,0.2c-0.2,0.3-0.4,0.7-0.6,1c0,0.3,0,0.6,0.1,0.8
		c-0.4,0.1-0.8,0.2-1.2,0.2c-0.6-0.8-1.3-1.5-1.9-2.3c0-0.6,0-1.1,0-1.7c0.3-0.1,0.5-0.3,0.8-0.5C38.8,79.5,39.8,79.6,40.9,79.2z"/>
	<path class="st4" d="M61.9,65.7c0.1,1.5-1.9,2.5-0.9,4.2c-1.6-0.4-2.1-1.4-1.7-2.9C59.7,65.7,60.5,65.1,61.9,65.7z"/>
	<path class="st5" d="M45,73.1c-0.8,1.5-0.8,3.1-1,4.7c-0.2,1.5-0.8,1-1.4,0.1c0.6-1.7-0.6-3.1-0.5-4.8C43.1,73.1,44,73.1,45,73.1
		C44.9,73,45,73.1,45,73.1z"/>
	<path class="st1" d="M46.1,74.6c-0.4-0.5-0.7-1-1.1-1.6c0,0,0,0,0,0c0-0.3,0-0.7,0-1c2.4-0.4,3.6,0.4,3,3
		C47.3,74.9,46.7,74.8,46.1,74.6z"/>
	<path class="st5" d="M46.1,74.6c0.6,0.1,1.2,0.3,1.9,0.4c0.5,1.3,0.9,2.6,1.4,3.9C45.3,79.8,47.4,75.8,46.1,74.6z"/>
	<path class="st4" d="M30,56c-0.5,1.3-1.1,2.4-2.8,2.3C27,56,29,56.6,30,56C30,56,30,56,30,56z"/>
	<path class="st1" d="M37.9,78.7c-0.2,0.2-0.5,0.3-0.8,0.5c-0.4,0-0.7,0-1.1,0c-0.1-0.8-0.2-1.6-0.3-2.5c0.1-0.6,0.3-1.1,0.4-1.7
		c0.6,0.1,1.1,0.2,1.7,0.3C37.9,76.4,37.9,77.6,37.9,78.7z"/>
	<path class="st4" d="M44.9,72c0,0.3,0,0.7,0,1c-0.9,0-1.9,0.1-2.8,0.1C42,70.1,43.4,70.9,44.9,72z"/>
	<path class="st1" d="M60.1,85c-0.3,0.3-0.6,0.7-0.9,1c-0.6-0.3-1.6-0.5-1.1-1.3C58.6,83.8,59.4,84.5,60.1,85z"/>
	<path class="st5" d="M36.2,75c-0.1,0.6-0.3,1.1-0.4,1.7c-1.3-0.1-1.8-0.9-1.9-2.1C34.7,74.7,35.5,74.9,36.2,75z"/>
	<path class="st4" d="M62,70c0.4,0,1.2-0.2,1.2-0.1c0.3,0.9-0.5,0.9-1,1.2C62.2,70.8,62.1,70.4,62,70z"/>
	<path class="st4" d="M36.1,79.2c0.4,0,0.7,0,1.1,0c0,0.6,0,1.1,0,1.7c-0.8,0.3-1.6,0.7-2.4,1c0.1-0.6,0.2-1.2,0.3-1.8
		C35.4,79.7,35.7,79.4,36.1,79.2z"/>
	<path class="st4" d="M61,76.4c0.4,0,0.7-0.1,1.1-0.1C61.8,76.9,61.5,77.2,61,76.4z"/>
	<polygon class="st4" points="36,38 35.9,37.8 36,38 	"/>
	<path class="st5" d="M33,99.5c0.3,0.1,0.7,0.3,1,0.4c0.2,0.7,0.3,1.4,0.5,2c0.2,0.4,0.3,0.8,0.5,1.2c0-0.4,0-0.8-0.1-1.3
		c0.4-0.3,0.8-0.6,1.2-0.9c1.6-0.5,3.1-1.3,4.2-2.6c0.7-0.7,2.6-1,2.1-2.1c-0.6-1.3-2.2,0.1-3.4-0.3c-0.3-0.3-0.5-0.6-0.8-0.9
		c0.2-1.6,0.2-1.6,4.9-2.1c1.9,2.5,1.1,5.3,0.9,8c0,0,0.1,0,0.1,0c-2.5,0.6-4.8,1.5-6.2,3.8c-1.5,0.1-2.4,3.2-4.5,0.8
		C31.4,103.5,31.4,101.6,33,99.5z"/>
	<path class="st1" d="M43.9,100.9c0.2-2.7,1-5.5-0.9-8c1.8-1.1,4.8-0.6,5-3.9c1,0,2-0.1,3-0.1c0.9,0.9,0.8,2.1,0.9,3.2
		c-0.4,0.6-0.8,1.1-1.2,1.7c-2.7,0.9-7,1.3-1.8,5c1.9,1.4,0.6,2.4-0.7,2.6C46.8,101.7,45.3,101.1,43.9,100.9z"/>
	<path class="st1" d="M37.8,104.7c1.4-2.3,3.7-3.2,6.2-3.8c0,0.3,0.1,0.7,0,1c-0.4,1.8,1.5,4.3-0.7,5.3
		C41.2,108.1,39.4,106.1,37.8,104.7z"/>
	<path class="st4" d="M40.2,98.4c-1.1,1.4-2.6,2.1-4.2,2.6c0-0.7,0-1.3,0-2c0.2-1.3,0.5-2.5,0.7-3.8c0.5-0.1,1-0.1,1.4-0.2
		c0.3,0.3,0.5,0.6,0.8,0.9C39.4,96.7,39.8,97.5,40.2,98.4z"/>
	<path class="st5" d="M36.7,95.2c-0.2,1.3-0.5,2.5-0.7,3.8c-0.7,0-1.3,0-2,0c0.4-1.3,0.7-2.6,1.1-3.9C35.6,95.1,36.2,95.2,36.7,95.2
		z"/>
	<path class="st3" d="M34,99c0.7,0,1.3,0,2,0c0,0.7,0,1.3,0,2c-0.4,0.3-0.8,0.6-1.2,0.9c0,0-0.4,0-0.4,0c-0.2-0.7-0.3-1.4-0.5-2
		C34,99.6,34,99.3,34,99z"/>
	<path class="st3" d="M159,50c0,1-0.1,2-0.1,3.1c-2.2,0.7-6.5-2.9-5.9,3.1c-1.8,0.5-3.5,1.9-4.3-1.5c-1.1-4.6-3-9.1-4.6-13.6
		c2.8,2.7,6.7,1.7,9.9,3c-2.8,4.2-2.6,4.6,2.3,5.3C157.2,49.5,158.1,49.8,159,50z"/>
	<path class="st4" d="M135.4,58.1c-0.8-0.7-1.6-1.4-2.4-2.1c2.5-3-2-6,0-9c0.4,0,0.7,0.1,1.1,0.1c0.2,1,0.8,1.6,1.8,1.8
		c0.7,0.3,1.4,0.7,2.1,1c0.4,0.7,0.8,1.5,1.2,2.2C137.1,53.6,137.9,56.9,135.4,58.1z"/>
	<path class="st3" d="M139.1,52.1c-0.4-0.7-0.8-1.5-1.2-2.2c0.2-1.6-0.1-3.3,2.2-3.7c3.6-0.7,2,3.7,4.4,4.3
		C142.7,51,140.9,51.6,139.1,52.1z"/>
	<path class="st4" d="M146.7,59.7c-2.3-1.4-3.6-3.6-4.7-5.9C148.1,52.2,146.2,57,146.7,59.7z"/>
	<path class="st3" d="M140.7,85c-0.3,0.5-0.6,0.9-1,1.4c-0.5,0.5-1,1.1-1.5,1.6c-0.6-0.3-1.2-0.6-1.8-0.9
		C136.6,83.8,137.7,82.4,140.7,85z"/>
	<path class="st4" d="M147.2,74.2c-0.4,1-0.8,1.9-1.2,2.9c-1.6-0.8-3.3-1.6-1.6-3.8c0.8,0.2,1.7,0.4,2.5,0.5L147.2,74.2z"/>
	<path class="st3" d="M146.8,73.8c-0.8-0.2-1.7-0.4-2.5-0.5c1.3-3.2,1.7-0.1,2.5,0.3C146.9,73.6,146.8,73.8,146.8,73.8z"/>
	<path class="st4" d="M141,60.4c-0.3,0.1-0.6,0.3-0.8,0.2c-0.2-0.1-0.3-0.5-0.5-0.7c0.3-0.1,0.6-0.3,0.8-0.2
		C140.7,59.7,140.8,60.1,141,60.4z"/>
	<path class="st3" d="M135.9,48.9c-1-0.2-1.6-0.8-1.8-1.8C134.7,47.7,135.3,48.3,135.9,48.9z"/>
	<path class="st5" d="M138.2,87.9c0.5-0.5,1-1.1,1.5-1.6C139.7,87.3,139.1,87.7,138.2,87.9z"/>
	<path class="st1" d="M40.2,82.9c0-0.3,0-0.6-0.1-0.8c0.2-0.3,0.4-0.7,0.7-1c0,0,0.2-0.2,0.2-0.2c0.6,0.3,1.4,0.6,0.9,1.4
		C41.6,82.6,40.8,82.7,40.2,82.9z"/>
	<path class="st3" d="M38.6,71.9c-0.2,0.4-0.3,0.8-0.5,1.2c-1-0.7-2-1.4-3-2c0.7-0.7,1.3-1.4,2-2.1C37.6,70,38.1,71,38.6,71.9z"/>
	<path class="st4" d="M40.8,81c-0.2,0.3-0.4,0.7-0.7,1C40.4,81.7,40.6,81.4,40.8,81z"/>
	<path class="st3" d="M40.2,98.4c-0.4-0.8-0.9-1.6-1.3-2.4c1.1,0.4,2.8-1,3.4,0.3C42.8,97.3,40.9,97.6,40.2,98.4z"/>
	<path class="st4" d="M34.5,102c0,0,0.4,0,0.4,0c0,0.4,0,0.8,0.1,1.3C34.8,102.8,34.6,102.4,34.5,102z"/>
</g>
</svg>
