<svg version="1.1" id="selfDualGraph" xmlns="http://www.w3.org/2000/svg" x="0px" y="0px"
	 viewBox="0 0 937 966.4"  >
<style type="text/css">
	.st0{fill:#0081CC;}
	.st1{fill:#0382CD;}
	.st2{fill:#0181CC;}
	.st3{fill:#060304;}
	.st4{fill:#030405;}
	.st5{fill:#020304;}
	.st6{fill:#020405;}
	.st7{fill:#020404;}
	.st8{fill:#C13156;}
	.st9{fill:#C02D53;}
	.st10{fill:#C13257;}
	.st11{fill:#C13055;}
	.st12{fill:#BE264D;}
	.st13{fill:#BD254C;}
	.st14{fill:#BC274F;}
	.st15{fill:#BF2B51;}
	.st16{fill:#BE284F;}
	.st17{fill:#BF2950;}
	.st18{fill:#BE274E;}
	.st19{fill:#BB264E;}
	.st20{fill:#BE274F;}
	.st21{fill:#BE264E;}
	.st22{fill:#BD234B;}
	.st23{fill:#BE2950;}
	.st24{fill:#BD244B;}
	.st25{fill:#BD244C;}
	.st26{fill:#BE254D;}
	.st27{fill:#BA254D;}
	.st28{fill:#BD254D;}
	.st29{fill:#BC224A;}
	.st30{fill:#BC2149;}
	.st31{fill:#BB244C;}
	.st32{fill:#FEFEFE;}
	.st33{fill:#BB274F;}
	.st34{fill:#BD264E;}
	.st35{fill:#BC264D;}
	.st36{fill:#BB1E47;}
	.st37{fill:#0080CC;}
	.st38{fill:#0282CD;}
	.st39{fill:#BF2A50;}
	.st40{fill:#C02E54;}
	.st41{fill:#BF2A51;}
	.st42{fill:#B6456B;}
	.st43{fill:#050304;}
	.st44{fill:#BD4B6E;}
	.st45{fill:#B82A52;}
	.st46{fill:#BD274E;}
	.st47{fill:#050303;}
	.st48{fill:#BC254D;}
	.st49{fill:#B72F57;}
	.st50{fill:#B64361;}
	.st51{fill:#BC244C;}
	.st52{fill:#B92D54;}
</style>
<g>
	<path class="st0" d="M469,60.4c51.7-20,103.8-38.6,158-50.7c28.8-6.4,57.9-10.4,87.6-9.7C779.5,1.7,826.5,31.7,857,88.6
		c19.2,35.9,30.1,74.5,38,114.1c9.5,47.8,14.3,96.1,17.2,144.7c2.3,37.4,3.2,74.9,3.7,112.4c-1.2,2.1-2.9,1.7-4.7,1
		c-2-1.8-1.7-4.3-1.6-6.5c0.4-18.2-0.8-36.3-1.3-54.4c-0.7-22.4-1.9-44.9-3.5-67.3c-2.5-34.1-5.9-68-11.3-101.7
		c-6.3-39.6-15.4-78.5-30.9-115.6c-10.6-25.3-24.3-48.5-44-67.9c-18.9-18.4-41.3-30.1-66.8-36.2c-22.3-5.3-44.9-5.5-67.6-3.7
		c-40.6,3.1-79.7,13.6-118.5,25.5c-30.2,9.2-59.5,20.5-89.2,31.2C473.5,64,470.4,64,469,60.4z"/>
	<path class="st0" d="M915.9,506.7c-0.5,44.3-1.7,88.6-5,132.8c-4.1,54.8-10.5,109.3-24.9,162.6c-9.7,36-22.7,70.6-45.1,101
		c-27.8,37.8-65.4,58-111.9,62.3c-37.5,3.4-74-2.1-110.3-10.6c-50.6-11.9-99.4-29.4-147.8-48.1c-0.6-0.2-1.3-0.4-1.9-0.6
		c1.4-3.5,4.5-3.5,7.6-3.6c14.1,4.6,27.8,10.2,41.8,15.2c44,15.6,88.4,29.7,134.6,37.7c22.7,3.9,45.7,5.7,68.7,4.4
		c30.2-1.8,58.4-10.1,82.9-28.5c18.9-14.1,33.2-32.1,44.7-52.5c17.3-30.6,27.5-63.8,35.5-97.8c9-38,13.9-76.7,17.6-115.5
		c2.1-21.5,3.5-43.1,4.4-64.7c0.8-19.5,1.5-38.9,2.1-58.4c0.3-10.3,0.7-20.6,0.8-30.9c0-2-0.1-4.1,1.6-5.6
		C913,505,914.7,504.6,915.9,506.7z"/>
	<path class="st0" d="M334.9,630.5c26.8-6.9,53.6-13.8,80.4-20.7c14.3-3.7,28.5-7.5,42.8-11.2c2.8-1.6,6.7,1.2,9-2.3
		c52.1-13.5,104.3-26.9,156.4-40.4c88-22.8,176-45.7,264-68.5c0.8-0.2,1.6-0.3,2.5-0.5c1.9,1,2.2,2.6,1.5,4.4
		c-2.6,3.1-6.5,3.3-9.9,4.2c-19.2,5-38.3,10-57.5,14.9c-67.4,17.4-134.7,34.9-202.1,52.4c-45.6,11.8-91.2,23.6-136.8,35.6
		c-1.8,0.5-3.5,1-5.4,1.1c-2.9-0.2-5.8-0.4-8,1.9c-13.4,4.4-27.3,7.4-40.9,11c-29.1,7.6-58.3,15.1-87.4,22.7
		c-2.4,0.6-4.8,1.7-7.3,0.7C334.5,634.3,333.5,632.7,334.9,630.5z"/>
	<path class="st0" d="M890,479.5c-38.1-9.8-76.3-19.7-114.4-29.5c-92.2-23.9-184.4-47.8-276.6-71.7c-10.6-2.8-21.2-5.5-31.9-8.2
		c-2.3-3.2-6.2-0.8-9-2.5c-39.6-10.3-79.2-20.5-118.8-30.7c-1.4-0.4-2.9-0.7-4.4-1c-1.4-2.1-0.4-3.7,1.2-5.1
		c1.8-0.8,3.6-0.2,5.4,0.2c42.6,10.7,85,22,127.5,32.9c1,0.2,1.9,0.6,2.8,1.1c2.1,2.5,5,2.3,7.9,2.1c23.9,5.4,47.5,12,71.2,18.1
		c31,7.9,61.9,16.1,92.9,24.1c74.3,19.3,148.6,38.6,223,57.8c8.4,2.2,16.9,3.9,25.1,6.7C893.1,476.3,892.1,478.1,890,479.5z"/>
	<path class="st1" d="M310.2,815.9c0-37.1,0-74.3,0-111.4c0-1.5-0.1-3-0.2-4.5c-1.4-1.7-1.5-3.5,0-5.2c0.1-10.8,0.1-21.5,0.2-32.3
		c1.7-1.8,3.4-1.6,5.3-0.2c1.3,1.9,1.2,4.1,1.2,6.2c0,11.1,0.2,22.2-0.1,33.3c0.2,1.3,0.2,2.6,0,3.9c0.3,34.8,0.1,69.7,0.1,104.5
		c0,2,0,4-1.1,5.8C313.7,817.6,311.9,817.8,310.2,815.9z"/>
	<path class="st1" d="M309.9,266.4c0.1-17.3,0.2-34.6,0.2-52c0-21.3,0-42.6,0-64c1.7-1.8,3.5-1.6,5.3-0.1c1.1,1.8,1.1,3.8,1.1,5.8
		c-0.1,34.8,0.2,69.6-0.1,104.4c0.2,1.3,0.2,2.6,0,3.9c0.2,10.8,0.1,21.6,0.1,32.3c0,2.5,0.3,5-1.1,7.3c-1.8,1.5-3.6,1.7-5.3-0.2
		c-0.1-10.8-0.1-21.6-0.2-32.4C308.5,269.8,308.6,268.1,309.9,266.4z"/>
	<path class="st2" d="M333.3,115.5c30.7-12.6,61.4-25.3,92.2-37.9c12.8-5.2,25.6-10.1,38.5-15.2c1.8,1,4.5,1.2,4,4.3
		c-1.4,1.5-3.4,2.1-5.2,2.8c-39.9,15.7-79.6,32.1-119.2,48.7c-2.6,1.1-5.1,2.6-8,2.4C333.4,119.4,332.5,117.8,333.3,115.5z"/>
	<path class="st2" d="M463.9,904c-42-16.2-83.5-33.6-125-50.9c-1.8-0.8-3.7-1.5-5.6-2.2c-0.8-2.3,0.2-3.9,2.1-5.2
		c2.5-0.4,4.5,0.9,6.6,1.8c40,17,80.2,33.4,120.6,49.4c1.9,0.7,3.8,1.4,5.2,2.8C468.3,902.8,465.6,902.9,463.9,904z"/>
	<path class="st3" d="M0,483.3c0-12.6,11.5-24.5,23.7-24.4c9.5,0.1,24.1,12,23.9,19.6c-0.2,7.1-0.1,14.6-5.4,20
		c-4.8,5-11.3,8.4-18.4,8.9C11.9,508.3,0,495.9,0,483.3z"/>
	<path class="st4" d="M315.1,662.5c-1.7,0-3.3,0-5,0c-11.8-2.4-18.7-9.1-20.6-20c-1.6-9,2.8-18.3,10.9-23.4
		c11-6.8,25.4-3.4,32.3,7.6c0.8,1.3,1.5,2.6,2.2,3.8c0.4,1.6,0.8,3.2,1.2,4.8c2.1,3.5,1.2,7.1,0.5,10.6c-0.7,2-1.6,4-2.6,5.8
		c-3.5,4.7-7.5,8.8-13.2,10.6C318.9,663,317,663.8,315.1,662.5z"/>
	<path class="st5" d="M890,479.5c0.5-1.6,1.1-3.2,1.6-4.8c-0.4-1.3-0.3-2.5,0.4-3.6c1.1-1.7,2.2-3.3,3.6-4.8
		c4.3-4.1,8.7-7.8,15.3-6.6c1.7,0,3.3,0,5,0c13,2.6,21,11.4,21,23.2c0.1,12.1-7.9,21.1-21,23.7c-1.7,0-3.3,0-5,0
		c-6.5,1.2-10.9-2.4-15.1-6.4c-1.3-1.3-2.4-2.8-3.3-4.4c-0.6-1.4-1.7-2.5-1.6-4.1c0.4-1.8-0.3-3.3-1-4.9
		C890,484.4,890,481.9,890,479.5z"/>
	<path class="st6" d="M310.2,303.9c1.7,0,3.3,0,5,0c5.1-1.7,8.8,1.3,12.5,3.9c2.5,1.8,4.7,4.1,6.4,6.8c1.1,1.9,1.9,3.8,2.6,5.8
		c0.8,3.6,1.7,7.2-0.5,10.6c-0.4,1.6-0.8,3.2-1.2,4.7c-6.6,11.4-15.1,16.5-25.2,14.9c-11.9-1.9-20.2-11.1-20.6-22.7
		c-0.4-11,7.3-20.7,18.5-23.6C308.5,304.2,309.3,304.1,310.2,303.9z"/>
	<path class="st7" d="M335.4,846.1c-0.7,1.6-1.4,3.2-2,4.7c-5.4,8.4-13,12.9-23,11.8c-9.6-1-16.3-6.4-19.6-15.5
		c-5.2-14.2,3.4-28,19.5-31.3c1.7,0,3.3,0,5,0c4.7-1.7,8.3,1,11.7,3.3c3.5,2.4,6.5,5.5,8.3,9.6c0.9,2,1.3,4.1,1.9,6.1
		C337.2,838.7,338.6,842.8,335.4,846.1z"/>
	<path class="st4" d="M333.3,115.5c0.7,1.6,1.4,3.2,2,4.8c3.4,3.3,1.8,7.4,1.7,11.2c-0.6,2.1-1,4.2-1.9,6.1
		c-3.3,6-7.9,10.5-14.4,12.8c-1.8,0.6-3.8,1.4-5.7,0.1c-1.7,0-3.3,0-5,0c-12-2.4-19-9.4-20.7-20.5c-1.4-9,3.5-18.7,11.8-23.5
		C312.3,100.3,324.8,103.7,333.3,115.5z"/>
	<path class="st8" d="M21.7,427.5c0-1.3,0-2.6,0-4c0-1.7,0.9-2.2,2.5-2.2c1.6,0,2.6,0.5,2.5,2.2c-0.1,2.6-0.2,5.3-0.2,7.9
		c0,1.9-1.1,2.5-2.9,2.5c-2.2,0-2.3-1.4-2.2-3c0.1-1.2,0-2.3,0-3.5C21.6,427.5,21.6,427.5,21.7,427.5z"/>
	<path class="st9" d="M22.7,390.4c1.4-1.5-2.3-6.2,2.8-5.8c4.6,0.3,1.6,4.4,2.1,6.7c0.2,0.9-0.2,2-0.2,2.9c0,2-0.8,3-3,2.8
		c-2.2-0.2-2.1-1.6-2-3.2C22.5,392.8,22.6,391.8,22.7,390.4z"/>
	<path class="st10" d="M21.6,538.6c-0.1-1.3-0.1-2.6-0.2-4c-0.1-1.8,1.1-2.2,2.6-2.2c1.3,0,2.4,0.3,2.4,1.8c0.1,3,0.3,5.9,0.3,8.9
		c0,1.9-1.5,1.9-2.8,1.9c-1.5,0.1-2.1-0.6-2.1-2c0-1.5,0-3,0-4.5C21.7,538.6,21.6,538.6,21.6,538.6z"/>
	<path class="st9" d="M29.3,612.8c0.1,1.3,0.3,2.6,0.3,4c0.1,1.9-1.3,2-2.7,2.2c-1.4,0.2-2.2-0.4-2.3-1.8c-0.2-2.5-0.4-5-0.6-7.4
		c-0.1-1.8-0.1-3.2,2.4-3.4c2.5-0.2,2.7,1.2,2.7,3C29.1,610.5,29.2,611.7,29.3,612.8z"/>
	<path class="st11" d="M22.7,575.2c-0.1-0.8-0.1-1.7-0.2-2.5c-0.2-1.9,0-3.2,2.4-3.3c2.1-0.1,2.5,1,2.6,2.7c0.1,2.3,0.2,4.6,0.4,6.9
		c0.2,2.1-0.6,3-2.8,3c-2.3,0.1-2.3-1.4-2.3-2.9c0-1.3,0-2.6,0-4C22.8,575.2,22.7,575.2,22.7,575.2z"/>
	<path class="st12" d="M37.9,707.4c0.5,2,0,3.4-2.5,3.7c-2.7,0.3-2.3-1.6-2.5-3.2c-0.3-2.3-0.6-4.6-0.9-6.8
		c-0.3-1.8,0.9-2.2,2.3-2.4c1.6-0.3,2.5,0.1,2.7,1.9C37.2,702.7,37.6,705,37.9,707.4z"/>
	<path class="st13" d="M102.5,463.5c0.7,1.6-0.6,1.8-1.5,2.1c-2.7,0.8-5.5,1.3-8.1,2.2c-1.8,0.6-2.4-0.2-2.8-1.7
		c-0.3-1.3-0.6-2.6,1.3-3.1c2.9-0.7,5.8-1.5,8.6-2.2C102.7,460.2,101.8,462.7,102.5,463.5z"/>
	<path class="st14" d="M467.1,596.3c-1.3,7.2-5.9,1.9-9,2.3c-1.6-0.8-4.8,0.1-3.8-3.6c0.9-3.5,3.3-1.9,5.1-1.4
		C461.9,594.5,464.9,594.3,467.1,596.3z"/>
	<path class="st15" d="M29.3,353.5c-0.1,1.5-0.2,3-0.2,4.5c0,1.8-0.9,2.3-2.5,2.1c-1.5-0.1-2.7-0.4-2.5-2.2c0.2-2.5,0.3-5,0.5-7.5
		c0.1-1.8,0.3-3.3,2.8-3c2.5,0.3,2.4,1.8,2.2,3.6C29.4,351.8,29.3,352.6,29.3,353.5z"/>
	<path class="st16" d="M347.3,564.6c2.9,0.7,5.8,1.5,8.7,2.2c1.8,0.4,1.8,1.5,1.3,3c-0.4,1.3-0.5,2.6-2.6,2
		c-2.7-0.9-5.4-1.6-8.2-2.2c-1.9-0.4-1.8-1.6-1.5-3C345.4,565.4,345.7,564.3,347.3,564.6z"/>
	<path class="st16" d="M145.7,24.8c-1.5-0.2-1.7-1.5-2.3-2.5c-0.7-1.1-0.2-1.8,0.8-2.4c2.7-1.4,5.3-2.7,7.9-4.2
		c1.3-0.7,1.8-0.1,2.3,0.9c0.5,1,1.6,2.3,0.4,3.1C151.9,21.7,148.7,23.2,145.7,24.8z"/>
	<path class="st16" d="M220.2,966.2c-1.3,0-2.6,0-4,0c-1.8,0-2.2-0.9-2.1-2.5c0.1-1.5,0.5-2.5,2.3-2.5c2.5,0.1,4.9,0.2,7.4,0.2
		c2.1,0,3,0.8,2.9,2.9c-0.1,2.3-1.6,2.1-3.1,2.1c-1.2,0-2.3,0-3.5,0C220.2,966.3,220.2,966.2,220.2,966.2z"/>
	<path class="st17" d="M220.7,0c1.3,0,2.6,0,4,0c1.8,0,2.2,1,2.1,2.5c0,1.6-0.7,2.4-2.3,2.5c-2.6,0-5.3,0.1-7.9,0.3
		c-1.8,0.1-2.3-0.8-2.3-2.4c-0.1-1.5,0.2-2.6,2-2.6c1.5,0,3,0,4.4,0C220.7,0.2,220.7,0.1,220.7,0z"/>
	<path class="st18" d="M50.9,781.5c0.4,2.1-1.5,1.8-2.5,2.3c-1.4,0.5-2.1,0-2.4-1.5c-0.5-2.6-1.2-5.2-1.8-7.7
		c-0.5-1.9,0.5-2.7,2.2-3.1c1.6-0.4,2.4,0,2.8,1.8C49.6,776.1,50.3,778.8,50.9,781.5z"/>
	<path class="st19" d="M458.1,367.6c1.3-0.2,2.7-0.1,3.8-0.7c3.5-1.7,4.6,0.2,5.2,3.2c-2.7,2.2-6.2,1.8-9.2,3
		c-1.4,0.5-2.8,0.9-3.5-1.2c-0.7-2.1-0.2-3.1,1.9-3.6C456.9,368.2,457.5,367.8,458.1,367.6z"/>
	<path class="st18" d="M256.1,965.4c-2-0.3-4.8,1.3-5-2.4c-0.1-3.4,2.5-2.3,4.3-2.6c1.8-0.3,3.7-0.1,5.5-0.5
		c2.2-0.4,2.5,0.9,2.8,2.5c0.4,2-0.9,2.2-2.3,2.4C259.5,965,257.7,965.2,256.1,965.4z"/>
	<path class="st18" d="M393.9,388.1c0.2,1.2-0.5,1.8-1.6,2.1c-2.7,0.7-5.5,1.3-8.2,2.1c-1.9,0.5-2.2-0.8-2.7-2
		c-0.7-1.7,0.1-2.5,1.7-2.8c2.6-0.7,5.1-1.4,7.7-2C393.2,384.7,393.6,386.4,393.9,388.1z"/>
	<path class="st12" d="M373.1,389.9c2.2-0.6,2,1.3,2.5,2.4c0.6,1.3,0.1,2.2-1.3,2.6c-2.9,0.7-5.8,1.4-8.6,2.2
		c-1.6,0.4-2-0.6-2.4-1.8c-0.4-1.3-0.8-2.6,1.2-3.1C367.4,391.4,370.2,390.6,373.1,389.9z"/>
	<path class="st20" d="M201.7,439.5c-1.8,0.7-1.9-0.8-2.2-1.8c-0.4-1.1-0.9-2.3,0.8-2.8c3-0.9,6-1.7,9.1-2.5c2-0.5,2,1.3,2.4,2.4
		c0.5,1.3,0.3,2.2-1.3,2.5C207.5,438,204.6,438.8,201.7,439.5z"/>
	<path class="st21" d="M401.9,578.7c3.3,0.9,5.8,1.7,8.4,2.3c2.2,0.5,2,1.8,1.6,3.3c-0.4,1.7-1.3,2-2.9,1.5
		c-2.5-0.8-5.1-1.4-7.6-2.1c-1.5-0.4-2.3-0.9-1.6-2.7C400.2,579.4,400.5,578,401.9,578.7z"/>
	<path class="st12" d="M365.8,569.3c2.7,0.7,5.7,1.5,8.7,2.4c1.6,0.4,1.5,1.5,1,2.7c-0.4,0.9-0.2,2.5-2.1,2.1
		c-3-0.8-6.1-1.6-9.1-2.3c-1.7-0.4-1.3-1.6-1-2.8C363.6,570.3,363.8,569.1,365.8,569.3z"/>
	<path class="st18" d="M302.9,554.8c-0.2,0.8-0.5,2.8-1.4,2.6c-3.7-0.6-7.4-1.5-11-2.8c-1.2-0.4,0-2.1,0.2-3.1
		c0.3-1.3,1.2-1.4,2.3-1.1c2.7,0.7,5.4,1.4,8.1,2.2C302.1,552.9,303.2,553.1,302.9,554.8z"/>
	<path class="st22" d="M272,963.6c-1.1,0.4-2.1-0.2-2.4-2.4c-0.3-2.2,0.8-2.5,2.4-2.8c2.3-0.3,4.6-0.6,6.8-1
		c1.8-0.3,2.8,0.1,3.1,2.1c0.2,1.8-0.2,2.7-2.2,2.9C277.4,962.6,275.2,963.1,272,963.6z"/>
	<path class="st12" d="M74,472.7c-1.2,0.4-1.8-0.4-2-1.8c-0.2-1.3-0.9-2.6,1-3.2c2.9-0.8,5.8-1.5,8.6-2.3c1.5-0.4,2.2,0.3,2.3,1.7
		c0.1,1.1,1.3,2.6-1,3.1C80.1,471,77.3,471.8,74,472.7z"/>
	<path class="st18" d="M89.8,885c0.1,1.6-1.3,1.7-2.2,2.3c-1,0.7-1.8,0.6-2.4-0.5c-1.6-2.7-3.1-5.4-4.7-8.1
		c-0.8-1.3,0.2-1.9,1.1-2.2c1-0.4,2.1-1.8,3-0.4C86.5,878.9,88.1,882,89.8,885z"/>
	<path class="st18" d="M128.4,507.8c3.8,1,6.3,1.8,8.9,2.3c1.8,0.4,1.9,1.4,1.6,2.9c-0.4,1.8-1.2,2.5-3.1,1.9
		c-2.3-0.7-4.8-1.2-7.1-1.8c-1.6-0.4-2.8-0.8-2-3C127.1,508.5,127.8,507.6,128.4,507.8z"/>
	<path class="st17" d="M257.4,6.2c-1.6-1.4-6.6,2.3-6.1-3c0.4-4.3,4.5-1.3,6.8-1.9c1.1-0.2,2.3,0.1,3.4,0.3c1.5,0.2,2.4,0.8,2.1,2.6
		c-0.3,1.6-0.8,2.8-2.8,2.3C259.9,6.3,258.9,6.3,257.4,6.2z"/>
	<path class="st17" d="M37.9,259c-0.3,2.3-0.7,4.4-0.9,6.5c-0.2,1.4-0.3,2.7-2.3,2.4c-1.8-0.3-3.2-0.8-2.8-3.1
		c0.4-2.1,0.7-4.2,0.9-6.4c0.2-1.6-0.1-3.4,2.6-3.1C38.1,255.6,38.3,257.2,37.9,259z"/>
	<path class="st23" d="M44.2,191.5c0.6-2.4,1.2-4.8,1.7-7.2c0.3-1.7,1.1-2.3,2.7-1.8c1.6,0.5,2.8,1,2.2,3.1
		c-0.7,2.4-1.3,4.8-1.7,7.3c-0.3,2-1.1,2.5-3,2C44.2,194.3,43.6,193.4,44.2,191.5z"/>
	<path class="st18" d="M83.5,91c-0.8-1.3-4.5-0.5-2.7-3.8c1.3-2.5,2.8-4.8,4.2-7.3c0.7-1.2,1.5-1.7,2.7-0.7c0.8,0.7,2.7,0.9,2,2.3
		c-1.5,3.1-3.4,6-5.2,9C84.4,90.7,84,90.8,83.5,91z"/>
	<path class="st21" d="M79.7,522.1c3.2,2.5,6.2,4.8,8.9,7.3c0.8,0.8-0.9,1.9-1.4,2.8c-0.8,1.3-1.7,0.5-2.5,0c-2.3-1.6-4.5-3.3-6.7-5
		c-0.8-0.6-1.5-1.3-0.7-2.4C78.1,523.9,78.8,523.2,79.7,522.1z"/>
	<path class="st12" d="M183.5,522.1c3.2,0.9,5.6,1.6,8,2.2c1.9,0.4,2.3,1.2,1.8,3.2c-0.6,2.1-1.7,2.1-3.3,1.6
		c-2.2-0.6-4.5-1.3-6.7-1.7c-1.8-0.3-2.7-1.1-2.2-3C181.6,522.4,182.5,521.7,183.5,522.1z"/>
	<path class="st12" d="M94.2,533.6c0.9-0.1,9.8,6.6,9.6,7.1c-0.5,1-1.1,2-1.8,2.9c-0.9,1.1-1.7,0.3-2.5-0.3
		c-2.1-1.6-4.2-3.2-6.3-4.7c-0.8-0.6-1.7-1.3-1-2.4C92.7,535.2,93.6,534.4,94.2,533.6z"/>
	<path class="st13" d="M245.3,543.3c-2.6-0.7-5.7-1.4-8.7-2.2c-1.7-0.5-0.8-1.8-0.7-2.9c0.1-1.4,0.8-2.2,2.3-1.8
		c2.9,0.7,5.8,1.5,8.6,2.3c1.4,0.4,1.5,1.5,1.2,2.8C247.8,542.7,247.3,543.6,245.3,543.3z"/>
	<path class="st24" d="M264.3,548.2c-3.2-0.8-6.3-1.5-9.3-2.4c-1.5-0.4-1.2-1.8-1-2.9c0.2-1.4,1-2.1,2.4-1.8
		c2.9,0.7,5.8,1.4,8.7,2.2c1.6,0.4,1.4,1.5,1.1,2.7C265.9,547.2,265.9,548.5,264.3,548.2z"/>
	<path class="st12" d="M118.7,552.2c-1.5,1-1.4,4.5-4.4,2.3c-2.1-1.6-4.2-3.2-6.4-4.8c-1.5-1-1.4-2.1-0.4-3.3
		c0.7-0.8,1.3-2.1,2.8-1.1c2.6,1.9,5.1,3.8,7.6,5.7C118.2,551.2,118.4,551.7,118.7,552.2z"/>
	<path class="st18" d="M162.2,16.8c-1.6,0.5-1.4-1.2-1.9-2.1c-0.6-1.1-0.7-2.2,0.9-2.8c2.8-1,5.6-2,8.4-3.1c1.6-0.6,2.1,0.5,2.3,1.7
		c0.2,1,1.3,2.2-0.6,2.9C168.4,14.5,165.5,15.6,162.2,16.8z"/>
	<path class="st18" d="M133.7,562.9c-0.8,1.2-1.3,2-1.9,2.8c-0.8,1-1.7,0.6-2.6-0.1c-2.1-1.6-4.2-3.3-6.4-4.8
		c-1.4-0.9-1.7-1.9-0.6-3.2c1-1.3,2-2.2,3.6-0.8C128.4,558.9,131,560.8,133.7,562.9z"/>
	<path class="st18" d="M66.3,834.7c0.6,1.9-1.2,1.7-2,2.2c-1.1,0.7-2.2,0.7-2.8-0.8c-1-2.8-1.9-5.6-2.9-8.4
		c-0.6-1.6,0.5-2.1,1.7-2.3c1-0.2,2.2-1.3,2.8,0.5C64.2,828.8,65.3,831.7,66.3,834.7z"/>
	<path class="st12" d="M148.5,574.1c-0.9,1.3-1.5,2.3-2.3,3.1c-1,1.1-1.7-0.1-2.4-0.6c-2-1.5-3.9-3-5.9-4.4c-1.5-1-2-1.9-0.7-3.5
		c1.1-1.4,2-2,3.6-0.7C143.2,570.1,145.8,572,148.5,574.1z"/>
	<path class="st13" d="M175.3,521.6c-0.4,0.9,0,2.8-1.2,2.8c-3.8-0.1-7.4-1.3-10.8-2.8c-1.1-0.5-0.3-2.1,0-3.2
		c0.2-0.9,1-1.4,1.9-1.1c3.2,0.8,6.3,1.7,9.5,2.7C175.2,520.2,175.7,520.7,175.3,521.6z"/>
	<path class="st12" d="M74.2,518.8c-1.6,0.9-1.4,4.5-4.4,2.3c-2.3-1.7-4.4-3.4-6.7-5c-1.6-1.2-0.8-2.2,0-3.3
		c0.9-1.3,1.8-1.8,3.2-0.6c2.2,1.8,4.5,3.4,6.7,5.1C73.4,517.6,73.7,518.2,74.2,518.8z"/>
	<path class="st12" d="M120.9,507.1c-0.6,1.8-0.6,3.9-3.4,3.1c-2.5-0.7-5.1-1.4-7.6-1.9c-1.4-0.3-2.1-0.9-1.7-2.3
		c0.3-1,0.4-2.9,1.7-2.6c3.5,0.6,7,1.7,10.4,2.7C120.6,506.1,120.7,506.8,120.9,507.1z"/>
	<path class="st12" d="M59,508c-1.2,0.6-1.1,4.2-4.1,1.8c-2.1-1.6-4.2-3.2-6.4-4.7c-1.4-0.9-1.7-1.8-0.6-3.2c1-1.2,1.8-2.4,3.5-0.9
		c2,1.7,4.2,3.2,6.3,4.8C58.5,506.3,59.2,506.8,59,508z"/>
	<path class="st25" d="M102.7,502.2c-0.7,2-0.5,4.3-3.5,3.2c-2.3-0.9-4.8-1.5-7.2-1.9c-2-0.4-2.3-1.3-1.9-3.1
		c0.5-1.9,1.4-2.3,3.2-1.7c2.4,0.8,4.8,1.2,7.2,1.9C101.6,500.8,102.9,501,102.7,502.2z"/>
	<path class="st12" d="M84.3,497.8c-0.5,1.6-0.1,4-3.2,2.9c-2.3-0.8-4.8-1.2-7.2-1.9c-1.5-0.4-2.7-0.8-2.1-3
		c0.5-1.9,1.2-2.5,3.1-1.9c2.5,0.8,5.1,1.3,7.7,2C83.5,496.2,84.7,496.3,84.3,497.8z"/>
	<path class="st26" d="M55.8,488.9c3.5,0.9,6.1,1.7,8.6,2.3c1.8,0.5,1.7,1.7,1.4,3.1c-0.3,1.7-1.3,2.1-2.9,1.7
		c-2.6-0.7-5.1-1.3-7.7-2c-1.6-0.4-2.1-1.1-1.7-2.9C54.1,489.4,54.9,488.5,55.8,488.9z"/>
	<path class="st12" d="M50.3,466.2c-1.7-0.4-2.1-1.6-2.8-2.5c-0.9-1.2,0.1-1.8,0.8-2.3c2.2-1.7,4.5-3.4,6.7-5
		c0.8-0.6,1.7-1.1,2.5,0.1c0.6,0.9,2.2,2,1.3,2.9C56.1,461.9,53.1,464.1,50.3,466.2z"/>
	<path class="st20" d="M154.6,446.6c1.6-0.5,2.1,0.4,2.3,1.7c0.2,1.2,0.9,2.6-1.2,3.1c-2.9,0.7-5.8,1.5-8.6,2.3
		c-1.7,0.5-1.9-0.6-2.2-1.8c-0.3-1.3-0.9-2.6,1.1-3.1C148.8,448.1,151.7,447.4,154.6,446.6z"/>
	<path class="st12" d="M70.8,444.5c1.7,0.3,2,1.5,2.7,2.4c0.9,1.1,0.1,1.8-0.7,2.4c-2.2,1.7-4.5,3.4-6.7,5.1c-0.8,0.6-1.7,1.2-2.5,0
		c-0.6-0.9-2.2-2.1-1.4-2.8C65,448.9,68.1,446.7,70.8,444.5z"/>
	<path class="st18" d="M43.5,744.8c0.5,1.9-0.3,2.4-1.7,2.5c-1.2,0.1-2.7,1-3.1-1.2c-0.5-2.9-1.1-5.9-1.6-8.8c-0.3-1.6,0.7-2,2-2.1
		c1.3-0.1,2.7-0.5,2.9,1.5C42.5,739.6,43.1,742.4,43.5,744.8z"/>
	<path class="st15" d="M47.1,763.7c0.4,1.3-0.9,1.6-2.3,2c-1.6,0.5-2.5,0.2-2.8-1.6c-0.4-2.6-0.9-5.2-1.5-7.8
		c-0.4-1.7,0.2-2.5,1.8-2.8c1.7-0.4,2.8-0.2,3.2,1.9C45.8,757.9,46.4,760.5,47.1,763.7z"/>
	<path class="st12" d="M293.6,689.1c-2.7-2.2-5.8-4.4-8.5-7c-0.9-0.9,0.7-1.9,1.3-2.9c0.8-1.2,1.6-0.6,2.5,0c2.3,1.7,4.5,3.3,6.7,5
		c0.8,0.6,1.7,1.2,0.7,2.4C295.7,687.5,295.3,688.7,293.6,689.1z"/>
	<path class="st12" d="M282.1,674.8c-1.6,0.6-1.1,4.5-4.2,2.4c-2.5-1.7-4.7-3.6-7.1-5.4c-1.4-1.1-0.6-2,0.2-2.9
		c0.7-0.8,1.2-2.2,2.7-1.1c2.5,1.9,5,3.7,7.5,5.6C281.5,673.7,281.7,674.2,282.1,674.8z"/>
	<path class="st12" d="M257.9,656c3.2,2.4,6.2,4.5,8.8,6.9c1,0.9-0.6,2-1.1,2.9c-0.6,1-1.3,1.2-2.4,0.4c-2.3-1.8-4.7-3.6-7.1-5.3
		c-0.9-0.7-1.4-1.4-0.5-2.4C256.4,657.6,257.1,656.9,257.9,656z"/>
	<path class="st12" d="M252.1,652.7c-0.5,0.7-1,1.7-1.8,2.5c-1,1.1-1.7,0-2.4-0.6c-2.1-1.5-4.2-3.1-6.3-4.7
		c-0.7-0.6-1.8-1.1-0.9-2.3c0.7-0.9,1.1-2.1,2.3-2.3C244,645.1,252,651.3,252.1,652.7z"/>
	<path class="st18" d="M213.9,622.9c2.6,2,5.6,4.2,8.4,6.6c0.9,0.8-0.4,1.7-0.9,2.5c-0.5,0.9-1.3,1.7-2.4,1
		c-2.6-1.8-5.1-3.8-7.6-5.7c-1.1-0.8-0.7-1.7-0.1-2.6C211.9,623.9,212.3,622.9,213.9,622.9z"/>
	<path class="st12" d="M60.4,817.2c0.2,2.2-1.6,1.9-2.7,2.4c-1.8,0.9-1.9-0.6-2.2-1.6c-0.8-2.5-1.5-5.1-2.3-7.6
		c-0.5-1.6,0.1-2.6,1.6-2.9c1.1-0.3,2.4-0.7,3,0.8C58.8,811.3,59.6,814.3,60.4,817.2z"/>
	<path class="st12" d="M198.2,611.6c0.8-0.1,9.7,6.7,9.5,7.1c-0.5,1-1.1,2-1.9,2.9c-0.7,0.8-1.4,0.4-2.1-0.1
		c-2.4-1.8-4.7-3.5-7.1-5.3c-1-0.7-1-1.7-0.3-2.5C197,612.9,197.7,612.2,198.2,611.6z"/>
	<path class="st21" d="M58.6,138.7c0.9-2.6,1.9-5.4,2.9-8.2c0.6-1.8,1.9-1.4,3.2-1c1.5,0.5,2,1.4,1.4,3c-1,2.5-1.8,5-2.6,7.5
		c-0.4,1.2-0.9,2.1-2.5,1.4C59.8,140.9,58.2,141,58.6,138.7z"/>
	<path class="st12" d="M192.9,608c-1.4,0.7-1,4.4-4.1,2.3c-2.3-1.6-4.5-3.3-6.7-5.1c-2.7-2.2,0-3.4,1.2-4.6
		C183.9,600.1,192.8,606.7,192.9,608z"/>
	<path class="st12" d="M177.9,597.1c-1.3,0.7-1.2,4.2-4.2,1.9c-2.1-1.6-4.1-3.3-6.3-4.7c-1.8-1.2-1.3-2.2-0.3-3.6
		c1-1.4,1.9-1.6,3.2-0.5c2,1.7,4.2,3.2,6.3,4.8C177.3,595.5,178,595.9,177.9,597.1z"/>
	<path class="st21" d="M336.3,17.6c-0.4,1-0.1,2.4-1.3,3c-0.7,0.4-10.7-2.2-10.8-2.9c-0.1-1.1,0-2.3,0.3-3.3c0.2-0.9,1.1-1.1,2-0.8
		c2.9,0.8,5.7,1.5,8.6,2.3C335.8,16.1,336.7,16.4,336.3,17.6z"/>
	<path class="st12" d="M154.4,578.3c2.7,2.1,5.7,4.1,8.3,6.6c1,1-0.5,2-1.1,2.9c-0.6,1-1.3,1.3-2.4,0.4c-2.3-1.8-4.7-3.6-7.1-5.3
		c-0.9-0.7-1.4-1.4-0.5-2.4C152.4,579.6,152.7,578.3,154.4,578.3z"/>
	<path class="st13" d="M310.6,411.2c-1.6,0.3-1.6-1.1-2-2.1c-0.4-1.3-0.5-2.3,1.1-2.7c2.9-0.8,5.8-1.5,8.7-2.2
		c1.4-0.3,2.2,0.5,2.4,1.8c0.2,1.1,0.6,2.5-0.9,2.9C316.9,409.8,313.8,410.5,310.6,411.2z"/>
	<path class="st17" d="M31.9,317c-0.1,0.6-0.2,2.1-0.3,3.5c-0.1,1.6-0.6,2.7-2.7,2.6c-2.4-0.2-2.5-1.5-2.3-3.4
		c0.2-2,0.2-3.9,0.4-5.9c0.1-1.6-0.2-3.5,2.4-3.4c2.5,0.1,2.9,1.6,2.6,3.6C32,314.8,32,315.5,31.9,317z"/>
	<path class="st12" d="M252.1,313.6c0.1,1.2-0.6,1.6-1.3,2.1c-2.1,1.6-4.3,3.1-6.3,4.7c-1.8,1.5-2.5,0.2-3.5-1
		c-1.1-1.4-0.8-2.2,0.6-3.2c2.2-1.5,4.2-3.1,6.3-4.7C250.8,309.5,251,312.6,252.1,313.6z"/>
	<path class="st18" d="M124.6,410.4c-1.6-0.1-2.1-1.3-2.7-2.2c-0.8-1.1-0.2-1.8,0.7-2.5c2.1-1.6,4.3-3.1,6.3-4.8
		c1.6-1.3,2.6-0.7,3.6,0.7c1,1.4,0.8,2.3-0.5,3.3C129.5,406.7,127,408.6,124.6,410.4z"/>
	<path class="st18" d="M237.1,324.7c0.2,1.2-0.5,1.6-1.2,2.1c-2.1,1.6-4.3,3.1-6.3,4.8c-1.4,1.2-2.3,0.6-3.2-0.6
		c-0.8-1.1-1.7-2.1,0-3.3c2.3-1.6,4.4-3.4,6.8-5C235.8,321,236.2,323.5,237.1,324.7z"/>
	<path class="st12" d="M339.1,402c0.2,1.1,0,1.9-1.3,2.2c-2.9,0.7-5.8,1.5-8.7,2.2c-1.5,0.4-2-0.5-2.3-1.9c-0.2-1.2-0.6-2.4,1-2.8
		c3-0.9,6-1.8,9.1-2.4C339,399,338.8,400.8,339.1,402z"/>
	<path class="st18" d="M354.9,394.6c2.2-0.3,2,1.2,2.3,2.2c0.4,1.1,0.8,2.2-1,2.6c-2.9,0.7-5.8,1.5-8.6,2.3
		c-1.6,0.5-2.2-0.3-2.5-1.5c-0.2-1.2-1-2.7,1-3.2C349.2,396.2,352.3,395.3,354.9,394.6z"/>
	<path class="st12" d="M432.8,919.3c-2.4,0.6-2.6-0.5-3-1.7c-0.4-1.1-1-2.1,0.7-2.8c2.8-1,5.6-2.1,8.4-3.2c1.7-0.7,2,0.4,2.4,1.6
		c0.4,1,1.3,2.3-0.3,2.9C438.1,917.4,435.1,918.4,432.8,919.3z"/>
	<path class="st25" d="M411.9,382.6c0.3,1.7,0,2.4-1.3,2.7c-2.9,0.7-5.8,1.5-8.6,2.3c-1.7,0.5-1.9-0.6-2.2-1.8
		c-0.4-1.3-0.9-2.6,1-3.1c2.9-0.8,5.7-1.6,8.6-2.3C411.8,379.9,411.6,381.8,411.9,382.6z"/>
	<path class="st12" d="M205.1,344.3c1,0.1,1.4,1.4,2.1,2.2c0.9,1.1,0.3,1.7-0.6,2.4c-2.4,1.8-4.8,3.5-7.1,5.3
		c-0.7,0.6-1.5,0.7-2.1-0.1c-0.6-0.9-1.8-1.6-1.6-2.9C196,350.5,204,344.3,205.1,344.3z"/>
	<path class="st18" d="M361.6,943.2c-1.2,0.3-1.5-0.8-1.8-2c-0.4-1.3-0.9-2.5,1.1-3c2.7-0.7,5.4-1.5,8-2.5c1.9-0.7,2.2,0.4,2.7,1.7
		c0.5,1.3,0.9,2.5-1.1,3C367.6,941.2,364.8,942.2,361.6,943.2z"/>
	<path class="st18" d="M448.5,373.8c0.4,1.3-0.3,1.9-1.4,2.2c-2.9,0.8-5.8,1.5-8.7,2.2c-1.5,0.4-2.1-0.7-2.3-1.9
		c-0.2-1.1-0.6-2.4,1-2.9c2.9-0.8,5.8-1.5,8.7-2.2C448.2,370.6,448,372.5,448.5,373.8z"/>
	<path class="st12" d="M139.7,938.4c-1.2,1.6-1.5,4.5-4.4,2.6c-2.2-1.5-4.3-3.1-6.5-4.6c-1.4-0.9-1.6-1.9-0.4-3.2
		c1-1.2,1.7-2.3,3.5-0.8c1.9,1.6,4.1,2.9,6.1,4.3C138.5,937.2,139.1,937.8,139.7,938.4z"/>
	<path class="st26" d="M30,281.8c0.3-2,0.7-4,0.8-5.9c0.1-1.7,0.7-2.3,2.5-2c1.6,0.3,3,0.4,2.6,2.6c-0.4,1.9-0.6,3.9-0.8,5.9
		c-0.2,1.8,0.4,4.2-2.9,3.9C28.6,285.9,30.4,283.4,30,281.8z"/>
	<path class="st12" d="M287.5,288.2c-0.8-1-1.6-1.8-2.3-2.8c-0.8-1.1,0.1-1.8,0.9-2.4c2.1-1.6,4.3-3.1,6.3-4.8
		c1.7-1.4,2.5-0.6,3.5,0.8c1,1.3,1.1,2.2-0.4,3.2C292.8,284.1,290.2,286.1,287.5,288.2z"/>
	<path class="st13" d="M185.7,962c-1.5-0.4-3.9-1.1-6.3-1.5c-2.3-0.4-1.7-1.8-1.5-3.3c0.3-1.8,1.2-2,2.8-1.6
		c2.2,0.6,4.4,1.2,6.7,1.6c2.1,0.3,2.9,1.1,2.5,3.3C189.5,962.6,188.1,962.4,185.7,962z"/>
	<path class="st21" d="M79.6,444.3c-0.9-1-1.6-1.9-2.3-2.7c-0.9-1.1-0.2-1.8,0.7-2.4c2.2-1.7,4.5-3.4,6.7-5c0.9-0.6,1.7-1.1,2.5,0.1
		c0.6,0.9,2.2,2,1.4,2.8C85.9,439.6,82.8,441.8,79.6,444.3z"/>
	<path class="st21" d="M258.3,310.2c-1.7-0.4-2.1-1.6-2.7-2.4c-0.9-1.2,0-1.8,0.8-2.4c2.2-1.7,4.4-3.4,6.7-5c0.8-0.6,1.7-1.2,2.5,0
		c0.6,0.9,2.2,2,1.3,2.9C264.1,305.8,261,308,258.3,310.2z"/>
	<path class="st18" d="M162.1,949.6c3.3,1.2,6.2,2.3,9.2,3.4c1.8,0.6,0.9,1.8,0.7,2.8c-0.3,1.2-0.6,2.4-2.3,1.8
		c-3-1.1-5.9-2.1-8.9-3.3c-1.6-0.7-0.8-1.9-0.4-2.9C160.8,950.6,161,949.3,162.1,949.6z"/>
	<path class="st16" d="M229.7,429.7c0.6,2.3-0.3,2.6-1.3,2.9c-2.7,0.7-5.5,1.4-8.1,2.2c-1.9,0.6-2.2-0.5-2.6-1.9
		c-0.4-1.4-0.8-2.5,1.2-3c2.7-0.6,5.5-1.3,8.2-2.1C229.7,427,229.6,429.1,229.7,429.7z"/>
	<path class="st27" d="M463.9,904c-0.2-3,2.9-2.1,4-3.6c1.5-2.3,4-3.2,6.3-2.6c2.5,0.7,4.4,2.5,1.9,5.4c-2.6,0.5-4.9,1.5-7.2,2.8
		C466.7,906.8,464.8,906.8,463.9,904z"/>
	<path class="st12" d="M104.1,425.9c-3.3,2.4-6.4,4.7-9.7,6.9c-0.1,0.1-1.3-1.3-2-2c-0.8-0.9-0.8-1.8,0.2-2.5
		c2.4-1.8,4.7-3.6,7.1-5.4c0.7-0.6,1.5-0.8,2.2-0.1C102.7,423.6,103.2,424.6,104.1,425.9z"/>
	<path class="st21" d="M118.3,413.7c0.5,1.5-0.5,1.8-1.1,2.2c-2.1,1.6-4.3,3.1-6.3,4.8c-1.4,1.2-2.3,0.8-3.2-0.5
		c-0.9-1.2-1.4-2.2,0.1-3.4c2.3-1.7,4.4-3.5,6.8-5.1C117.3,409.9,117.2,413.3,118.3,413.7z"/>
	<path class="st18" d="M274.2,420.8c-1.5,0.3-1.6-1.1-2-2.1c-0.5-1.4-0.4-2.6,1.4-3c2.7-0.7,5.4-1.3,8.1-2.2
		c2.2-0.7,2.3,0.8,2.9,2.2c0.6,1.7,0.1,2.3-1.6,2.7c-2.6,0.5-5.1,1.3-7.6,2C275,420.5,274.7,420.6,274.2,420.8z"/>
	<path class="st28" d="M273.3,298.9c-1.7,0.1-2-1.3-2.7-2c-0.9-0.9-0.6-1.8,0.3-2.5c2.4-1.8,4.8-3.5,7.1-5.3
		c0.9-0.7,1.8-0.9,2.4,0.3c0.5,0.9,2.2,1.9,1.2,2.9C279,294.7,276,296.8,273.3,298.9z"/>
	<path class="st25" d="M427.8,590.6c-2.9-0.8-5.7-1.6-8.6-2.3c-2.1-0.5-1.4-1.8-1.2-3.1c0.2-1.3,0.8-2.2,2.3-1.8
		c2.9,0.7,5.7,1.6,8.6,2.3c1.9,0.5,1.6,1.6,1.2,3C429.8,590,429.5,591,427.8,590.6z"/>
	<path class="st25" d="M125.2,38.9c-2.4,2.2-4.7,4.2-6.7,6.5c-1.8,2-2.8,1.3-4.3-0.2c-1-1.1-1-1.8,0.1-2.8c2.1-1.9,4.1-3.8,6.2-5.6
		C123.2,34.3,123.5,37.7,125.2,38.9z"/>
	<path class="st13" d="M192.8,358.3c0.1,1.2-0.7,1.5-1.3,2c-2.1,1.6-4.3,3.1-6.3,4.8c-1.4,1.1-2.1,0.9-3.1-0.5
		c-1-1.4-1.6-2.4,0.2-3.6c2.2-1.5,4.2-3.2,6.3-4.8C191.5,354,191.5,357.3,192.8,358.3z"/>
	<path class="st26" d="M29.9,683.3c-0.1-1.6-0.1-2.9,2.2-3.1c2.3-0.2,2.9,0.8,2.9,2.9c0.1,2.3,0.5,4.6,0.8,6.9
		c0.3,1.8-0.5,2.4-2.2,2.5c-1.4,0.1-2.6,0.3-2.8-1.7C30.7,688.2,30.2,685.8,29.9,683.3z"/>
	<path class="st28" d="M139.7,27.8c-0.5,0.6-0.9,1.1-1.4,1.5c-2.3,1.7-4.6,3.2-6.9,4.9c-1.7,1.3-2.3-0.2-3.1-1.1
		c-0.9-1-1.3-1.9,0.1-2.8c2.5-1.7,4.8-3.6,7.4-5.1C138.5,23.6,138.3,26.8,139.7,27.8z"/>
	<path class="st29" d="M314.9,950.4c2.8-0.7,3.6,1,3.1,2.4c-1.5,4.7-6.3,2.7-9.5,4.1c-2,1-2.9-1.1-2.5-2.5
		C307.5,949.6,312.6,952.4,314.9,950.4z"/>
	<path class="st18" d="M55.4,799.5c0.5,1.9-1.2,1.6-2.1,2c-1.2,0.5-2.3,0.7-2.7-0.9c-0.8-2.9-1.5-5.8-2.4-8.6
		c-0.5-1.7,0.7-2,1.8-2.3c1.1-0.3,2.4-1,2.9,0.7C53.8,793.4,54.6,796.4,55.4,799.5z"/>
	<path class="st22" d="M204.5,965.2c-2.1-0.3-4.2-0.8-6.4-0.9c-2.1-0.1-2.3-1.3-2.2-3c0.2-2.2,1.5-2.2,3.1-2c2,0.3,3.9,0.7,5.9,0.8
		c2.1,0.1,3.4,0.4,3.2,3.1C207.9,966.1,205.9,965,204.5,965.2z"/>
	<path class="st18" d="M227.8,634.1c1.4,0,9.5,6.1,9.3,6.8c-0.2,0.9-0.7,1.8-1.3,2.6c-0.7,1-1.6,0.9-2.5,0.2
		c-2.2-1.7-4.5-3.4-6.7-5.1c-0.9-0.7-1.5-1.3-0.7-2.4C226.5,635.4,227,634.4,227.8,634.1z"/>
	<path class="st13" d="M26.8,648.1c0-0.4-0.2-1.6-0.2-2.7c-0.1-2,1.5-2.3,2.7-1.9c4.2,1.2,2.1,4.8,2.6,7.4c0.3,1.7,1.6,4.5-2,5
		c-1.6,0.2-2.6-0.2-2.7-2C27,652.1,27,650.5,26.8,648.1z"/>
	<path class="st12" d="M351.5,25.5c-2.8-0.8-5.5-1.6-8.2-2.3c-1.9-0.5-1.5-1.9-1.3-3.2c0.2-1.4,1-2.1,2.4-1.7
		c2.9,0.8,5.7,1.7,8.6,2.6c1.6,0.5,1.1,1.8,0.8,2.9C353.6,25,353,25.9,351.5,25.5z"/>
	<path class="st12" d="M219.1,333.2c1.8,0.1,2.2,1.3,2.9,2.2c0.8,1.1,0.3,1.7-0.6,2.4c-2.3,1.7-4.5,3.4-6.7,5.1
		c-0.9,0.7-1.8,1-2.5-0.1c-0.7-0.9-2.1-2.1-1.2-3C213.6,337.3,216.5,335.2,219.1,333.2z"/>
	<path class="st21" d="M361.8,23.3c3,0.9,6,1.9,9,2.9c1.7,0.6,1.1,1.8,0.7,2.8c-0.4,1-0.4,2.4-2.3,1.8c-2.8-1-5.7-1.8-8.6-2.6
		c-1.7-0.5-1.3-1.6-0.9-2.7C360.1,24.4,360,23,361.8,23.3z"/>
	<path class="st12" d="M325.7,953c-1.3,0.2-1.5-1-1.7-2.2c-0.2-1.1-0.6-2.3,1.1-2.7c2.9-0.7,5.8-1.4,8.6-2.2c1.6-0.4,2,0.6,2.2,1.8
		c0.2,1,1,2.3-0.8,2.8C332.2,951.3,329.1,952.1,325.7,953z"/>
	<path class="st12" d="M354,943.6c0.3,1.7-0.8,2-1.7,2.2c-2.5,0.8-5.1,1.5-7.7,2.2c-1.7,0.5-2.5-0.3-2.7-1.9c-0.2-1.4-0.3-2.6,1.6-3
		c2.6-0.6,5.1-1.4,7.7-2.1C353.9,940.3,353.6,942.4,354,943.6z"/>
	<path class="st13" d="M187.1,4.1c1.6-0.2,2.6,0.2,2.9,1.9c0.2,1.5,0.1,2.6-1.6,3c-2.6,0.6-5.2,1.1-7.7,1.8
		c-1.8,0.5-2.4-0.3-2.7-1.9c-0.3-1.4-0.5-2.6,1.4-3C182,5.5,184.5,4.8,187.1,4.1z"/>
	<path class="st12" d="M184.5,444c-2.1,0.6-2.9-0.1-3.2-1.4c-0.4-1.3-0.7-2.7,1.2-3.2c2.9-0.8,5.8-1.5,8.7-2.2
		c2-0.5,1.9,1.3,2.4,2.4c0.6,1.5-0.1,2.2-1.5,2.5C189.3,442.8,186.5,443.5,184.5,444z"/>
	<path class="st18" d="M138.9,454.1c0.3,1.6-0.7,1.9-2,2.2c-2.4,0.6-4.8,1.2-7.1,1.9c-1.6,0.5-2.7,0.3-3.3-1.7c-0.6-2,0-2.7,1.8-3.2
		c2.4-0.6,4.8-1.2,7.1-1.9C138,450.7,138.7,452.1,138.9,454.1z"/>
	<path class="st12" d="M42.7,223.1c-1.4,1.5,2.4,6.9-3.1,8c-2.3,0.4-3-1.4-2.1-3.2c1.4-2.9-1-7.6,3.6-8.9
		C42.5,218.6,44.7,219.1,42.7,223.1z"/>
	<path class="st12" d="M118.2,456c2-0.3,2,1.3,2.5,2.5c0.5,1.4-0.1,2.2-1.4,2.5c-2.9,0.7-5.7,1.4-8.6,2.2c-1.7,0.4-1.9-0.8-2.3-1.9
		c-0.4-1.1-0.8-2.4,0.8-2.9C112.1,457.5,115.2,456.8,118.2,456z"/>
	<path class="st18" d="M40.5,210.2c0.5-2.6,1-5.1,1.5-7.5c0.3-1.5,0.7-2.5,2.6-2c1.5,0.4,3,0.6,2.4,2.8c-0.6,2.6-1.2,5.1-1.6,7.8
		c-0.3,1.8-1.2,2.1-2.7,1.7C40.9,212.6,39.7,212,40.5,210.2z"/>
	<path class="st23" d="M296.5,12c-1.9-2.3-7.7,1.9-8.5-4c-0.3-1.9,0.9-2.9,2.8-2c3.1,1.4,8-1.1,9.2,4.1
		C300.4,11.9,298.9,12.6,296.5,12z"/>
	<path class="st25" d="M63.2,470.3c1.7-0.4,2.4,0.4,2.7,2c0.3,1.5,0.1,2.5-1.7,2.9c-2.6,0.6-5.1,1.3-7.7,2c-1.6,0.4-2.4,0-2.8-1.7
		c-0.3-1.5-0.4-2.6,1.3-3.1C57.8,471.7,60.5,471,63.2,470.3z"/>
	<path class="st22" d="M256.7,425.2c-1.4,0.3-2.2-0.1-2.6-1.5c-0.3-1.4-0.5-2.7,1.3-3.2c2.7-0.8,5.4-1.5,8.1-2.2
		c1.6-0.4,2.4,0.2,2.7,1.9c0.3,1.5,0.5,2.5-1.4,3C262.1,423.8,259.4,424.5,256.7,425.2z"/>
	<path class="st28" d="M292.5,416c-1.8,0.4-1.7-1.1-2.1-2.1c-0.4-1.1-0.8-2.3,0.9-2.7c3-0.8,6.1-1.5,9.1-2.3c1.8-0.5,1.8,1,2.2,2
		c0.4,1.1,0.6,2.2-1.1,2.6C298.6,414.3,295.6,415.2,292.5,416z"/>
	<path class="st21" d="M40.5,726.2c0.5,2.2-0.2,2.9-1.6,3c-1.2,0.1-2.7,0.8-3.1-1.3c-0.4-2.8-0.8-5.6-1.4-8.3
		c-0.4-1.8,0.4-2.3,2-2.5c1.4-0.1,2.6-0.5,2.9,1.5C39.7,721.4,40.2,724.1,40.5,726.2z"/>
	<path class="st16" d="M157.1,517c0,0.3,0,0.7-0.2,1c-3.3,4.4-6.5-0.4-9.9-0.2c-2.2,0.2-3.2-1.2-2.2-3.6c0.3-0.8,0.5-1.8,1.5-1.5
		c3.4,0.8,6.7,1.7,10.1,2.6C157.2,515.5,157.2,516.3,157.1,517z"/>
	<path class="st28" d="M56.1,159.2c-1.2-0.6-3.3-0.4-3-2c0.6-3.4,1.4-6.9,3-9.9c0.9-1.6,4.2-0.1,4.1,1c-0.4,3.5-1.8,7-2.8,10.4
		C57.3,159,56.5,159.1,56.1,159.2z"/>
	<path class="st25" d="M383.9,574.1c3.3,0.9,5.9,1.6,8.4,2.2c1.8,0.5,1.8,1.7,1.4,3.1c-0.4,1.5-1.2,2.3-2.9,1.7
		c-2.4-0.7-4.8-1.3-7.2-1.9c-1.6-0.4-2.9-0.7-2.2-2.9C382,574.5,382.8,573.7,383.9,574.1z"/>
	<path class="st18" d="M40.5,240.1c-0.3,2.2-0.7,4.6-1,7c-0.2,1.9-1.1,2.4-3,2.2c-2.1-0.2-2.3-1.2-2-3c0.5-2.4,0.9-4.8,1.2-7.3
		c0.2-2.2,1.5-2.1,3.1-1.9C40.6,237.4,41,238.3,40.5,240.1z"/>
	<path class="st28" d="M430.3,378.7c0.6,1.6-0.7,1.6-1.6,1.8c-2.7,0.8-5.4,1.4-8.1,2.3c-1.8,0.6-2.4-0.1-2.7-1.7
		c-0.2-1.3-0.6-2.6,1.3-3.1c2.7-0.6,5.4-1.3,8.1-2C430.2,375.1,429.8,377.3,430.3,378.7z"/>
	<path class="st18" d="M415.3,40.8c2.3,0.9,5.4,2,8.4,3.2c1.8,0.7,0.4,1.9,0.2,2.9c-0.2,1.4-1,2-2.4,1.5c-2.8-1-5.5-2-8.3-3
		c-1.6-0.6-1.3-1.7-0.8-2.7C412.9,41.8,412.7,40.1,415.3,40.8z"/>
	<path class="st28" d="M154.4,388.2c-1.8-0.3-2.1-1.6-2.8-2.4c-0.9-1.1-0.1-1.8,0.7-2.4c2.2-1.7,4.5-3.4,6.7-5
		c0.8-0.6,1.7-1.3,2.5-0.1c0.6,0.9,2.2,2,1.4,2.9C160.1,383.8,157.1,386,154.4,388.2z"/>
	<path class="st26" d="M138.8,399.2c-1.1-0.2-1.4-1.4-2.1-2.3c-0.7-0.8-0.4-1.5,0.4-2.1c2.4-1.8,4.8-3.6,7.2-5.4
		c0.7-0.5,1.5-0.9,2.2-0.1c0.7,0.9,1.7,1.6,1.6,2.9C148,393,139.9,399.2,138.8,399.2z"/>
	<path class="st12" d="M55.6,165.9c-1.1,4-1.9,6.8-2.5,9.7c-0.4,1.6-1.3,1.7-2.6,1.2c-1.1-0.4-2.9-0.2-2.3-2.3
		c0.8-2.8,1.5-5.7,2.3-8.5c0.4-1.4,1.2-1.9,2.5-1.3C54,165.1,56,164.9,55.6,165.9z"/>
	<path class="st16" d="M230,536c-0.2,1.1-0.5,3-1.6,2.8c-3.7-0.7-7.4-1.9-11-3.1c-0.2-0.1,0.3-2.1,0.5-3.2c0.2-0.8,0.7-1.1,1.4-1
		c3.2,0.8,6.4,1.7,9.6,2.5C230.1,534.3,230.1,535.1,230,536z"/>
	<path class="st18" d="M211.8,531.6c-0.2,0.4-0.9,2.3-1.2,2.3c-3.7-0.7-7.4-1.5-11-2.7c-1.3-0.4-0.2-2,0.1-3.1
		c0.2-0.8,0.6-1.5,1.7-1.2c3.2,0.8,6.4,1.6,9.6,2.5C211.8,529.5,212,530.1,211.8,531.6z"/>
	<path class="st28" d="M277.6,8.7c-1.3-0.2-3.8-0.5-6.2-0.8c-1.6-0.2-2.1-1.2-1.8-2.8c0.3-1.5,0.5-2.5,2.4-2.1
		c2.4,0.5,4.9,0.9,7.3,1c2.1,0.1,2.9,0.9,2.5,3.1C281.6,9.2,280.4,9.3,277.6,8.7z"/>
	<path class="st28" d="M432.9,47.2c2.1,0.8,4.8,1.9,7.6,2.9c1.6,0.6,1.5,1.5,0.9,2.7c-0.5,1.1-0.6,2.7-2.7,1.8
		c-2.6-1.1-5.3-1.9-8-2.9c-1.2-0.4-2-1-1.2-2.5C430.3,48.1,430.2,46.4,432.9,47.2z"/>
	<path class="st29" d="M238.9,966.3c-1,0-2,0-3,0c-1.8,0.1-3.2,0-3.1-2.5c0.1-2.5,1.6-2.5,3.3-2.5c2,0,4,0,6-0.2
		c1.9-0.1,3.1,0.2,3.1,2.6c0,2.6-1.5,2.5-3.2,2.5c-1,0-2,0-3,0C238.9,966.3,238.9,966.3,238.9,966.3z"/>
	<path class="st22" d="M205.3,1.1c1.9-0.3,2.8,0.3,2.9,2.4c0.1,1.9-0.6,2.7-2.5,2.8c-2.1,0.1-4.3,0.6-6.4,0.8
		c-1.4,0.2-3,0.6-3.3-1.7c-0.2-2,0.2-3.1,2.5-3.2C200.7,2,203,1.5,205.3,1.1z"/>
	<path class="st25" d="M108.9,48.5c0.5,1.7,4.3,1.6,1.9,4.5c-1.8,2.2-3.7,4.3-5.5,6.4c-1.1,1.3-2,0.8-2.9-0.2
		c-0.8-0.8-2.2-1.4-1.1-2.8c2-2.4,4.1-4.8,6.2-7.2C107.8,49,108.2,48.9,108.9,48.5z"/>
	<path class="st22" d="M239,0.2c1.2,0,2.3,0,3.5,0c1.8-0.1,2.7,0.4,2.7,2.5c0,1.9-0.7,2.7-2.6,2.5c-2-0.2-4-0.1-6-0.2
		c-1.7-0.1-3.7,0.4-3.7-2.6c0-3.1,1.9-2.4,3.7-2.4c0.8,0,1.7,0,2.5,0C239,0.1,239,0.2,239,0.2z"/>
	<path class="st28" d="M389.2,34c-0.4,0.6-0.1,2.7-1.6,2.3c-3.5-0.8-7-1.9-10.3-3.3c-1.2-0.5,0-2.1,0.4-3.1c0.3-0.8,0.7-1.4,1.8-1
		c3,1,6,1.9,8.9,2.9C389.3,32.1,389.9,32.7,389.2,34z"/>
	<path class="st21" d="M290.9,960.5c-1.4,0.2-2.6,0.4-2.9-1.6c-0.2-1.6-0.2-3,1.8-3.3c2.4-0.4,4.9-0.9,7.3-1.3
		c1.4-0.2,2.7-0.3,2.9,1.7c0.2,1.6,0.3,3-1.8,3.3C295.7,959.6,293.3,960.1,290.9,960.5z"/>
	<path class="st28" d="M145.6,941.5c3.1,1.8,6.4,3.4,9.4,5.4c0.8,0.6-0.3,2.1-0.8,3.1c-0.7,1.4-1.6,0.7-2.4,0.3
		c-2.5-1.3-5-2.6-7.5-3.9c-1.1-0.5-1.5-1.3-0.8-2.4C144,943.1,144.2,941.8,145.6,941.5z"/>
	<path class="st26" d="M318.2,13.2c-0.4,1.2,0,3-1.5,2.9c-3.6-0.3-7.2-0.9-10.5-2.6c-0.4-0.2-0.2-2.2,0.1-3.3c0.2-0.9,1.2-1,2.1-0.9
		c2.8,0.6,5.5,1.3,8.2,1.9C317.8,11.5,318.3,12.2,318.2,13.2z"/>
	<path class="st26" d="M378.9,937.8c-1,0.4-1.1-1.2-1.5-2.1c-0.5-1.1-0.9-2.3,0.7-2.8c3-1,5.9-2,8.9-2.8c1.6-0.4,1.7,1,2.2,2.1
		c0.6,1.4,0.2,2.2-1.1,2.6C385.3,935.7,382.5,936.6,378.9,937.8z"/>
	<path class="st25" d="M124.7,927.9c-0.5,0.6-1.1,1.3-1.7,2.1c-0.9,1-1.8,0.5-2.6-0.2c-2.1-1.9-4.2-3.8-6.2-5.8
		c-0.5-0.5-1.5-1.1-0.6-2c0.8-0.8,1.6-1.7,2.6-2.3C116.9,919.4,124.8,926.8,124.7,927.9z"/>
	<path class="st21" d="M414.6,925.8c-1.8,0.7-1.7-1-2.1-1.9c-0.5-1-1-2.2,0.7-2.8c2.9-1,5.8-2.1,8.8-3.1c1.6-0.5,1.8,0.9,2.2,1.9
		c0.4,1.1,0.9,2.1-0.7,2.7C420.5,923.7,417.5,924.7,414.6,925.8z"/>
	<path class="st13" d="M70.2,854.5c-1.4,0.5-1.7-0.6-2.1-1.4c-1.1-2.4-2-4.9-3-7.3c-0.6-1.5-0.4-2.5,1.2-3.1
		c1.4-0.5,2.5-0.8,3.3,0.9c1.1,2.6,2.2,5.1,3.2,7.7C73.8,853.7,71.6,853.9,70.2,854.5z"/>
	<path class="st13" d="M74.9,859.2c1.4-0.2,1.8,0.7,2.2,1.6c1,2.2,1.9,4.6,3.2,6.7c1.1,1.8,0.3,2.6-1.2,3.4c-1.8,1-2.7,0.3-3.4-1.4
		c-1-2.3-2-4.5-3.2-6.7C71,860.1,73.5,860,74.9,859.2z"/>
	<path class="st25" d="M104.1,905.7c2.4,2.8,4.8,5.5,7.1,8.1c1.3,1.5-0.4,1.9-1,2.7c-0.9,1.2-1.9,1.7-3.1,0.2
		c-1.7-2.2-3.7-4.2-5.4-6.4C99.5,907.5,102.6,907.3,104.1,905.7z"/>
	<path class="st26" d="M455.7,905.4c2.3-0.6,2.6,0.7,3.1,1.7c0.6,1.2,0.3,2.3-1,2.8c-2.6,1-5.3,1.9-7.9,3c-1.5,0.6-2.1-0.1-2.6-1.3
		c-0.4-1.1-1.1-2.5,0.3-3.1C450.5,907.2,453.5,906.2,455.7,905.4z"/>
	<path class="st13" d="M80.8,97.6c-1.4,3-2.8,6-4.3,8.9c-0.6,1.1-1.7,0.9-2.6,0.3c-0.9-0.6-2.5-0.8-1.8-2.4c1.2-2.9,2.6-5.7,4-8.5
		c0.7-1.4,1.9-1.1,2.9-0.4C79.8,96,81.1,96.2,80.8,97.6z"/>
	<path class="st13" d="M439,588.4c2.4,0.6,5.1,1.3,7.8,2c1.6,0.4,2,1.3,1.5,3c-0.5,1.5-1,2.4-2.7,1.9c-2.7-0.7-5.5-1.4-8.2-2.1
		c-1.6-0.4-1.6-1.4-1.3-2.7C436.3,589,436.9,587.9,439,588.4z"/>
	<path class="st28" d="M329.9,560c2.4,0.6,4.8,1.4,7.2,1.9c1.9,0.4,2.3,1.4,2,3.2c-0.4,2.1-1.5,2.2-3.2,1.7
		c-2.4-0.7-4.8-1.2-7.2-1.8c-1.4-0.4-2.2-1-1.8-2.8C327.2,560.3,328,559.6,329.9,560z"/>
	<path class="st25" d="M311.2,555.2c2.9,0.8,5.3,1.5,7.7,2c2,0.4,2.3,1.5,1.9,3.3c-0.5,2-1.8,2-3.4,1.5c-2.2-0.6-4.5-1.3-6.7-1.7
		c-1.8-0.4-2.6-0.9-2-3C309.1,555.4,310,554.8,311.2,555.2z"/>
	<path class="st30" d="M27.1,557.7c-0.6,1.8,1,4.2-1.1,5.4c-0.9,0.5-3.2,0.9-3.5-0.6c-0.8-3.5-1-7.2-0.1-10.7
		c0.3-1.3,2.6-1.1,3.5-0.5C28.1,553,26.4,555.6,27.1,557.7z"/>
	<path class="st13" d="M274.5,545.7c3.3,0.9,5.9,1.7,8.4,2.2c1.7,0.4,2.1,1.2,1.5,2.8c-0.5,1.5-0.8,2.7-3,1.9
		c-2.3-0.9-4.8-1.2-7.2-1.9c-1.5-0.4-2.9-0.8-2.2-2.9C272.7,546.2,273.4,545.1,274.5,545.7z"/>
	<path class="st21" d="M26.2,520.5c0,1.2-0.1,2.3,0,3.5c0.1,1.6-0.4,2.4-2.2,2.4c-1.8,0-2.8-0.4-2.8-2.5c0-2.3,0-4.6-0.1-6.9
		c-0.1-2.1,0.7-2.9,2.8-2.9c2.3,0,2.2,1.4,2.2,2.9C26.1,518.2,26.1,519.3,26.2,520.5C26.1,520.5,26.2,520.5,26.2,520.5z"/>
	<path class="st26" d="M175.2,443.9c0.6,2.6-0.9,2.8-1.9,3c-2.4,0.7-4.8,1.2-7.2,1.8c-1.5,0.4-2.6,0.6-3-1.3c-0.3-1.5-0.7-3,1.5-3.4
		c2.6-0.5,5.2-1.2,7.7-1.9C174.8,441.4,175,443.1,175.2,443.9z"/>
	<path class="st21" d="M26.1,446.2c0,1.3-0.1,2.6,0,4c0.1,1.8-0.9,2.2-2.5,2.1c-1.5,0-2.6-0.3-2.5-2.1c0.1-2.1,0-4.3,0.1-6.4
		c0-1.8-0.4-3.7,2.6-3.7c3,0,2.4,2,2.4,3.7C26.2,444.6,26.2,445.4,26.1,446.2C26.1,446.2,26.1,446.2,26.1,446.2z"/>
	<path class="st22" d="M245.5,423c1.4-0.2,2.2,0.4,2.5,1.8c0.3,1.4,0.4,2.7-1.4,3.1c-2.7,0.7-5.4,1.4-8.1,2.1
		c-1.3,0.3-2.3,0.1-2.5-1.5c-0.1-1.2-1.1-2.7,0.9-3.3C239.7,424.5,242.6,423.8,245.5,423z"/>
	<path class="st30" d="M22.1,409c0-1.3,0-2.6,0-4c0-1.9,1.3-2,2.7-2c1.7,0,2.4,0.6,2.3,2.3c-0.1,2.5-0.2,5-0.1,7.4
		c0.1,2-0.9,2.5-2.7,2.5c-2.2,0-2.4-1.1-2.3-2.8c0.1-1.2,0-2.3,0-3.5C22,409,22.1,409,22.1,409z"/>
	<path class="st13" d="M169.2,377.1c-1.7-0.3-2-1.6-2.7-2.4c-0.9-1.1-0.1-1.8,0.7-2.4c2.2-1.7,4.4-3.4,6.7-5c0.8-0.5,1.7-1.3,2.5,0
		c0.6,0.9,2.2,2,1.4,2.8C175,372.7,171.9,374.9,169.2,377.1z"/>
	<path class="st12" d="M28.2,372.4c-1.5,1.4,2.5,6.3-2.8,5.8c-4.6-0.4-1.5-4.4-2-6.7c-0.3-1.1,0.2-2.3,0.3-3.5c0-1.9,1.3-2,2.7-1.9
		c1.6,0,2.5,0.6,2.2,2.4C28.4,369.6,28.4,370.8,28.2,372.4z"/>
	<path class="st17" d="M30.5,335.3c-0.1,1.1-0.3,2.3-0.3,3.4c0.1,2.1-0.7,2.9-2.9,2.7c-2.2-0.2-2.3-1.4-2.1-3c0.2-2,0.4-3.9,0.6-5.9
		c0.1-1.8-0.2-3.6,2.7-3.5c3,0.1,2.4,2,2.3,3.7C30.7,333.6,30.6,334.4,30.5,335.3C30.5,335.3,30.5,335.3,30.5,335.3z"/>
	<path class="st24" d="M33.9,294.5c-0.4,3.5-0.7,5.8-0.9,8.1c-0.1,2-1.3,1.9-2.8,1.8c-1.6,0-2.5-0.6-2.2-2.4
		c0.3-2.3,0.7-4.6,0.8-6.9c0.1-1.9,0.4-3.1,2.8-2.9C34.3,292.4,34,294,33.9,294.5z"/>
	<path class="st31" d="M467.9,66c-1.1-1.5-4.2-0.7-4-3.6c0.8-2.9,2.8-2.8,5.1-2c2.2,1.4,4.6,2.3,7.1,2.8c1.9,1.3,1.2,2.8,0.2,4.2
		c-0.9,1.3-2.3,1.7-3.9,1.2C470.8,68.1,469,67.7,467.9,66z"/>
	<path class="st16" d="M30.8,633.8c0,1.6,0.6,3.3-2.1,3.5c-2.9,0.2-2.8-1.4-2.9-3.3c-0.1-2.2-0.3-4.3-0.6-6.5
		c-0.2-1.7,0.4-2.4,2.2-2.5c1.8-0.1,2.8,0.2,2.9,2.3C30.2,629.5,30.6,631.7,30.8,633.8z"/>
	<path class="st24" d="M33.8,671.1c0.2,1.6,0.2,2.9-2,3.1c-2.1,0.2-3-0.4-3-2.6c-0.1-2.5-0.5-4.9-0.8-7.3c-0.2-1.8,0.8-2.2,2.3-2.3
		c1.4-0.1,2.6-0.1,2.7,1.9C33.2,666.2,33.6,668.7,33.8,671.1z"/>
	<path class="st25" d="M449.8,53.4c2.6,1,5.6,2.1,8.4,3.4c1.5,0.7,0.8,1.9,0.4,3c-0.5,1.3-1.3,1.9-2.7,1.3c-2.6-1-5.3-2-7.9-3
		c-1.6-0.6-1.3-1.7-0.9-2.8C447.5,54.3,447.8,52.9,449.8,53.4z"/>
	<path class="st25" d="M72.9,114.8c-1.2,2.8-2.3,5.7-3.6,8.5c-0.7,1.5-1.9,0.7-2.9,0.3c-1.3-0.4-2-1.1-1.4-2.5
		c1.1-2.7,2.2-5.5,3.3-8.2c0.6-1.5,1.7-1.1,2.8-0.6C72.2,112.8,73.4,113.2,72.9,114.8z"/>
	<path class="st28" d="M407,926.8c0.2,1.2-0.4,1.8-1.2,2.1c-2.8,0.9-5.6,1.8-8.4,2.7c-2,0.7-2.1-0.9-2.5-2.1
		c-0.4-1.3-0.4-2.1,1.2-2.6c2.5-0.8,4.9-1.8,7.4-2.6C406,923.4,406.5,925.1,407,926.8z"/>
	<path class="st24" d="M99.9,66.4c-2,2.7-4,5.7-6.3,8.5c-0.7,0.8-1.7-0.5-2.5-1c-0.9-0.5-1.5-1.3-0.7-2.4c1.8-2.6,3.6-5.1,5.4-7.7
		c0.8-1.1,1.7-0.5,2.5,0.1C99,64.5,100.1,64.8,99.9,66.4z"/>
	<path class="st25" d="M407,39.2c-0.1,0.5-0.1,0.9-0.3,1.1c-2.9,4.4-5.7,0-8.4-0.3c-1.8-0.2-4.7-0.4-3.3-3.8c0.3-0.8,0.6-2,1.4-1.8
		c3.4,1,6.8,2.3,10.2,3.6C406.9,38.2,406.9,38.9,407,39.2z"/>
	<path class="st21" d="M28.2,593.4c0.2,2.2,0.3,3.3,0.4,4.5c0.3,1.7-0.4,2.4-2.2,2.4c-1.4,0-2.7,0.1-2.8-1.8c-0.1-2.3-0.4-4.6-0.5-7
		c-0.1-1.6-0.5-3.3,2.2-3.5c2.9-0.2,2.8,1.5,2.8,3.4C28.1,592.4,28.2,593.4,28.2,593.4z"/>
	<path class="st25" d="M100.3,900.6c-1.1,0.9-1.9,1.7-2.8,2.3c-0.9,0.6-1.5,0.1-2.1-0.6c-1.7-2.4-3.4-4.8-5.1-7.3
		c-0.7-1-0.5-1.9,0.5-2.5c0.8-0.5,2.4-1.3,2.5-1.1C95.7,894.4,98,897.4,100.3,900.6z"/>
	<path class="st28" d="M309.9,266.4c0,1.7,0,3.4,0,5.1c-2,1.4-4,2.8-5.9,4.3c-1.3,1.1-2.2,1.1-3.1-0.4c-0.7-1.1-1.9-2.3-0.3-3.3
		C303.8,270.3,305.8,266.7,309.9,266.4z"/>
	<path class="st28" d="M309.9,694.8c0,1.7,0,3.5,0,5.2c-4.1-0.4-6.3-4-9.4-5.9c-1.3-0.8-0.6-2,0.2-3c0.9-1.2,1.7-1.8,3.2-0.7
		C305.8,692,307.9,693.3,309.9,694.8z"/>
	<path class="st32" d="M890.9,491.7c1.2,0.9,1.9,2.1,2.2,3.6c-0.1,2.4-2.2,3.2-3.7,4.3C803.9,563.8,718.5,627.9,633,691.9
		c-1.8,1.3-3.4,4-6.5,2.2c-1.1-1.3-0.4-3.3-2.3-4.7c-2,3-0.3,6.5-1.6,9.5c-0.2,0.5-0.4,0.9-0.8,1.2c-14.7,11.4-29.6,22.4-44.6,33.5
		c-0.8,0.6-1.7,1-2.8,1c-1.6-0.2-2.7-1.3-3.9-2.1c-10.4-7-21.3-5.7-30.1,3.4c-1,1.1-1.9,2.4-3.4,2.8c-1.6,0.2-3-0.4-4.3-1.1
		c-18.5-8.3-37-16.6-55.3-25.3c-0.9-0.4-1.8-0.9-2.5-1.7c-1-2.4,1.2-2.6,2.3-3.5c1.3-1.1,3.5-1,4.2-3.6c-4.6-0.5-7.4,3.2-11,4.4
		c-3.5,0.4-6.5-1.5-9.4-2.8c-40-18.3-80-36.4-120-54.5c-2.2-1-4.8-1.7-5.9-4.2c1.1-3.6,0.9-7.3,0.9-11c32.9-8.5,65.9-17,98.8-25.5
		c12.4-3.2,24.7-6.4,37.1-9.6c3.5,1.1,6.8,3.2,10.8,2.7c0.4-3.1-3.9-1.9-3.7-4.5c62.9-16.4,125.8-32.7,188.7-49.1
		c70.2-18.2,140.3-36.4,210.5-54.5C882.5,493.8,886.7,492.8,890.9,491.7z"/>
	<path class="st33" d="M479.1,598.4c1.6,0.5,3.1,1.1,4.7,1.6c1.3,0.4,1.4,1.3,1.1,2.3c-0.2,1-0.3,2-1.3,2.6
		c-1.4,0.7-10.4-2.8-11.5-4.6C473.3,595.6,476.7,598.8,479.1,598.4z"/>
	<path class="st32" d="M336.1,331.1c0-3.7,0.1-7.5-1-11.2c1.9-2.9,5-3.7,7.9-5c33.2-15.1,66.4-30.1,99.5-45.3
		c7.7-3.5,15.5-6.9,23.2-10.6c1.8-0.8,3.6-1.7,5.7-1.3c4,4,5.3,4.6,9.7,4.7c-0.6-3.7-6.5-2.3-6.2-6.6c0.9-1.5,2.5-2.1,4-2.7
		c17.2-7.8,34.4-15.6,51.6-23.5c2.1-1,4.2-2.1,6.6-2c1,0.2,1.7,0.9,2.5,1.6c11.1,11,19.9,11.9,32.8,3.5c0.7-0.5,1.4-0.9,2.2-1
		c1.8-0.1,3.1,1,4.4,2c13.6,10.1,27.1,20.4,40.7,30.5c1.2,0.9,2.4,1.8,3,3.2c1.1,3-0.1,6.4,1.3,9.6c2.4-1.5,1.3-4,2.4-5.5
		c3-1.5,4.5,1.2,6.3,2.5c23,17.1,45.9,34.3,68.8,51.5c32.8,24.6,65.7,49,98.3,73.8c29.7,22.5,59.7,44.8,89.4,67.3
		c1.5,1.2,3.6,2,3.8,4.3c-0.5,1.2-1,2.5-1.5,3.7c-20.9-5.4-41.9-10.7-62.8-16.1c-101.5-26.3-203-52.7-304.5-79
		c-15.1-3.9-30.3-7.8-45.4-11.7c0.4-2.3,3.5-1.8,4.2-4.3c-4.1-0.5-7.6,1.1-11,2.5c-44.6-11.6-89.3-23.1-133.9-34.7
		C337.5,331.2,336.8,331.2,336.1,331.1z"/>
	<path class="st33" d="M472,366.1c1.2-1.8,9.7-5.3,11.4-4.6c1.2,0.5,1.3,1.8,1.5,2.9c0.2,1.2-0.2,1.8-1.4,2c-1.6,0.4-3.1,1-4.6,1.5
		C476.4,367.9,473.3,370.6,472,366.1z"/>
	<path class="st32" d="M334.1,829c-4.3-7.2-10.4-11.9-19-13.1c0-34.9,0-69.7,0-104.6c0-2,0.1-4,0.2-6c3.6-0.5,5.2,3.9,9.8,3.6
		c-2.9-3.7-5.5-6.4-9.8-6.6c-0.1-13.3-0.1-26.6-0.2-39.8c7.8-1,13.6-5.1,18-11.4c2.2-1.2,3.8,0.3,5.6,1.1
		c31.9,14.5,63.8,29.1,95.8,43.6c9.2,4.2,18.7,7.7,27.4,13c1.2,4-4.2,3.1-4.6,6.3c4.2,0.9,6.7-2.5,10.1-3.4c4.6,0.3,8.4,3,12.5,4.8
		c17.4,7.9,34.8,15.8,52.2,23.7c1.4,0.6,2.8,1.1,3.6,2.6c0.3,3.8-0.4,7.5-0.4,11.3c-0.3,2.4-1.7,3.9-3.9,4.7
		c-20.4,7.3-40.5,15.1-61,22c-0.5,0.2-1,0.2-1.5,0.2c-2.9-0.4-6.2-2.1-7.5,2.4c-4.5,3.4-10,4.4-15.1,6.3
		c-35.4,13-70.9,26-106.4,38.7C338,828.8,336.2,829.9,334.1,829z"/>
	<path class="st34" d="M315.3,702.3c1-1.4,2.1-2,3.6-0.6c1.6,1.4,3.4,2.6,5.1,3.9c1.3,1,3.3,1.6,1.6,4.1c-1.9,2.7-3.3,0.8-4.8-0.3
		c-1.9-1.3-3.7-2.7-5.5-4.1C315.3,704.4,315.3,703.4,315.3,702.3z"/>
	<path class="st32" d="M315.1,150.5c8.6-1.1,14.7-5.9,19-13.2c1.9-0.8,3.6,0,5.3,0.6c39.1,14.1,78.1,28.5,117.2,42.6
		c1.7,0.6,3.5,1.2,4.7,2.6c1.2,3.6,3.6,3.6,6.4,2.2c6.6,1,12.6,4,18.9,6.2c14.4,5.1,28.8,10.3,43.1,15.7c2.6,1,5,2,5.4,5.2
		c0,3.8,0.7,7.5,0.4,11.3c-3.3,3.1-7.7,4.4-11.7,6.3c-16.9,7.7-33.9,15.4-50.8,23.1c-1.8,0.8-3.5,2-5.6,1.8
		c-3.4-0.9-5.9-4.2-10.2-3.8c0.5,3.2,4.7,2.7,5,5.6c-3.8,4.7-9.6,5.6-14.6,7.9c-32.3,14.8-64.7,29.5-97,44.2
		c-4.1,1.9-8.2,3.6-12.2,5.6c-1.6,0.8-3.4,1.5-5.3,0.9c-4.4-6.3-10.3-10.3-18-11.4c0.1-13.3,0.1-26.6,0.2-39.9
		c3.7,0.2,5.7-2.9,8.4-4.6c0.5-0.4,1.1-1,0.6-1.6c-0.6-0.8-1.4-0.6-2.2-0.2c-2.2,1.2-3.7,3.9-6.7,3.4c-0.1-19.7-0.2-39.5-0.2-59.2
		C315.1,184.7,315.1,167.6,315.1,150.5z"/>
	<path class="st35" d="M315.4,261c2.1-1.6,4.3-3.1,6.3-4.7c1.6-1.3,2.7-1.4,4,0.4c1.2,1.7,0.5,2.5-0.9,3.5c-2,1.4-4,2.8-5.9,4.5
		c-1.6,1.5-2.6,0.7-3.6-0.7C315.3,263,315.3,262,315.4,261z"/>
	<path class="st36" d="M2.7,483c0.1-11.8,9.3-20.8,21-20.7c11.7,0.1,20.7,9.3,20.6,21.2c-0.1,11.7-9.3,20.9-21,20.8
		C11.6,504.1,2.6,494.8,2.7,483z"/>
	<path class="st37" d="M291.9,638.6c0.2-11.7,9.5-20.5,21.4-20.4c11.5,0.1,20.9,9.9,20.6,21.4c-0.3,11.4-10.2,20.8-21.5,20.6
		C300.8,659.8,291.7,650.3,291.9,638.6z"/>
	<path class="st2" d="M535,742.5c-20.4-9.2-40.8-18.4-61.2-27.6c-2.1-0.9-4.3-1.8-6.4-2.7c-1.8-0.5-3.3-1.9-5.1-2.6
		c-41.8-19-83.7-38-125.5-57c-1.2-0.5-2.4-1-3.7-1.5c0.7-1.6,1.4-3.2,2.1-4.7c44,20,88,40,131.9,60.1c1.3,0.6,2.5,0.9,3.8,0.8
		c1.7,0.2,2.9,1.3,3.9,2.6c20.7,9.4,41.4,18.9,62.2,28.3C538.1,740.5,537.3,741.9,535,742.5z"/>
	<path class="st0" d="M627.1,694.8c26.9-20.1,53.9-40.2,80.7-60.4c61.8-46.3,123.5-92.7,185.3-139.1c1,1.3,1.9,2.6,2.9,3.9
		c-54.8,41.2-109.7,82.4-164.5,123.5c-32.9,24.7-65.8,49.4-98.7,74c-1.6,1.2-3.3,2.3-4.9,3.4c-1,0.3-1.4-0.3-1.7-1
		C625.8,697.6,625.7,696,627.1,694.8z"/>
	<path class="st0" d="M893.1,471c-88.3-66.2-176.5-132.5-264.8-198.7c-0.4-0.3-0.8-0.5-1.3-0.8c-1.3-1.1-1.3-2.5-0.9-3.9
		c0.4-0.8,0.8-1.6,1.9-1.3c18.4,13.7,36.9,27.3,55.2,41.1c70.7,53,141.4,106.1,212.1,159.1c0.3,0.2,0.5,0.5,0.7,0.7
		C895,468.4,894.1,469.7,893.1,471z"/>
	<path class="st37" d="M934.3,483.4c-0.1,11.7-9.4,20.9-21,20.8c-11.6-0.1-20.7-9.4-20.7-21.2c0.1-11.7,9.3-20.9,21-20.8
		C925.3,462.3,934.4,471.6,934.3,483.4z"/>
	<path class="st37" d="M312.8,348.3c-11.8,0-20.9-9.1-21-20.8c0-11.7,9.2-21,20.8-21.1c11.4-0.1,21.1,9.6,21.1,20.9
		C333.8,338.8,324.4,348.3,312.8,348.3z"/>
	<path class="st2" d="M333.1,315.3c43-19.6,86-39.2,129-58.8c1.8-0.8,3.5-1.6,5.3-2.4c20.8-9.4,41.7-18.8,62.5-28.2
		c1.7-0.7,3.4-1.4,5-2.1c2.3,0.7,3.1,2.1,2.1,4.3c-20.7,9.4-41.4,18.9-62,28.3c-0.8,1-1.7,1.7-3.1,1.6
		c-19.4,8.7-38.8,17.4-58.2,26.2c-26.2,11.9-52.3,23.8-78.5,35.7C334.5,318.4,333.8,316.8,333.1,315.3z"/>
	<path class="st37" d="M312.7,860.3c-11.7,0-20.9-9.2-20.9-20.9c0-11.6,9.3-21,20.9-21c11.4,0,21.1,9.7,21,21
		C333.8,850.9,324.3,860.3,312.7,860.3z"/>
	<path class="st2" d="M334.1,829c40.8-14.9,81.6-29.8,122.4-44.7c1.5-0.6,3-1.3,4.5-1.9c1.7-2.3,4.3-2.2,6.8-2.3
		c21.5-7.7,43-15.5,64.4-23.2c0.9-0.3,1.9-0.7,2.3-1.8c0-0.2-0.1-0.3-0.1-0.5c-0.1-0.3,0.3-0.5,0.5-0.2c1.5,1.9,2.7,3.9,1.5,6.4
		c-18.3,6.6-36.7,13.1-55,19.7c-2.8,1-5.5,2.1-8.3,3.2c-0.9,1.6-2.5,1.5-4,1.5c-27.2,9.8-54.3,19.6-81.5,29.4
		c-17.3,6.3-34.6,12.6-51.9,19C335.2,832.1,334.6,830.6,334.1,829z"/>
	<path class="st37" d="M291.9,126.9c0-11.8,9.2-20.8,21-20.7c11.6,0,21,9.5,20.9,21c-0.1,11.4-9.9,21-21.2,20.9
		C301.1,148,291.8,138.5,291.9,126.9z"/>
	<path class="st2" d="M534.5,211.3c-0.4-1.3-1.5-1.6-2.6-2c-21-7.6-41.9-15.2-62.9-22.8c-0.5-0.2-1-0.1-1.5-0.2
		c-2.4-0.1-4.9,0.2-6.4-2.4c-25.1-9.2-50.1-18.4-75.2-27.6c-17.3-6.3-34.6-12.6-51.9-19c0.6-1.6,1.1-3.1,1.7-4.7
		c44.4,16.1,88.8,32.3,133.2,48.4c1.5,0,3.1,0.1,4.2,1.4c21,8.1,42.1,15.8,63.3,23.1c1.4,2.4-0.1,4.3-1.1,6.2
		c-0.3,0.6,0.2-0.1-0.4,0.2C534.2,212.3,534.4,211.7,534.5,211.3z"/>
	<path class="st3" d="M600.9,128.7c-0.5-13.8,9.1-24.6,22.6-25.2c12.5-0.6,24,9.8,24.2,22.7c0.2,14.2-9.3,23.6-23.4,24.8
		C612.7,151.9,601.3,140.4,600.9,128.7z"/>
	<path class="st7" d="M534.5,211.3c0.6-2,1.3-3.9,1.9-5.9c6.6-10.7,17.1-15.2,27.8-11.9c10.3,3.2,17.2,12.9,16.7,23.8
		c-0.2,3.9-1.8,7.3-3.1,10.9c0.1,2.1-1.1,3.2-3,3.9c-13.9,11.2-26.9,9.9-38-4.1c-0.7-1.4-1.4-2.9-2.1-4.3
		C534.4,219.6,533.3,215.5,534.5,211.3z"/>
	<path class="st38" d="M575,232.2c1-1.3,2-2.6,3-3.9c16.7,12.7,33.4,25.3,50.1,38c-0.3,0.4-0.7,0.7-1,1.1c-1.8,0.8-3.5,0.1-5.3,0
		C606.1,255.6,590.5,243.9,575,232.2z"/>
	<path class="st18" d="M543.3,158.5c0.2,0.9-1.2,0.9-2,1.3c-2.3,0.9-4.7,1.6-7,2.6c-1.9,0.9-2.7,0.2-3.3-1.5
		c-0.7-1.9,0.1-2.8,1.7-3.4c2.2-0.8,4.4-1.4,6.6-2.4C542.4,153.9,542.7,155.9,543.3,158.5z"/>
	<path class="st39" d="M493.6,71.8c-0.7,0.9-0.5,3.3-1.9,2.9c-3.5-0.9-6.9-2.3-10.1-3.9c-1.5-0.8,0.3-2.3,0.5-3.5
		c0.1-0.7,0.8-1,1.5-0.8c3.1,1.2,6.1,2.4,9.2,3.7C493.6,70.5,493.9,71,493.6,71.8z"/>
	<path class="st40" d="M621.8,181.4c0-1.3,0-2.6,0-4c0-1.5,1-1.9,2.3-1.9c1.2,0.1,2.5,0,2.6,1.6c0.1,3,0.1,5.9,0.1,8.9
		c0,1.9-1.5,1.8-2.9,1.9c-1.5,0.1-2.1-0.7-2.1-2.1C621.8,184.4,621.8,182.9,621.8,181.4z"/>
	<path class="st18" d="M488.2,173.8c2.1-0.6,1.9,1.4,2.5,2.3c0.8,1.3,0,2.1-1.3,2.5c-2.6,0.9-5.3,1.8-7.9,2.8
		c-1.9,0.8-2.3-0.3-2.7-1.7c-0.3-1-1.2-2.1,0.6-2.8C482.3,176,485.3,174.9,488.2,173.8z"/>
	<path class="st13" d="M518.3,80.3c2.9,1.2,5.8,2.3,8.7,3.5c1.6,0.7,1,1.8,0.5,2.9c-0.5,1-0.7,2.3-2.4,1.6c-2.8-1.1-5.5-2.2-8.3-3.3
		c-1.5-0.6-1.3-1.6-0.8-2.8C516.4,81.3,516.7,80.1,518.3,80.3z"/>
	<path class="st21" d="M596.1,114.3c-0.6,1.4-0.7,3.6-3.5,2.1c-2-1.1-4.2-1.8-6.4-2.7c-1.8-0.7-2.8-1.5-1.8-3.6
		c0.9-1.9,1.8-1.9,3.4-1.1c2.2,1.1,4.5,2,6.8,2.9C595.7,112.3,596.5,112.8,596.1,114.3z"/>
	<path class="st12" d="M585.7,143.7c-1.5,0.6-1.6-0.7-2-1.6c-0.4-1-1.5-2.3,0.1-3c3-1.3,6.1-2.3,9.3-3.4c1.7-0.5,1.8,0.9,2.2,2
		c0.3,0.8,1.2,1.8-0.3,2.4C591.8,141.4,588.7,142.6,585.7,143.7z"/>
	<path class="st18" d="M551.5,156.2c-2.6,0.5-2.6-1.2-3.1-2.3c-0.8-1.5,0.3-2.1,1.4-2.5c2.5-0.9,5-1.7,7.4-2.7
		c2-0.8,2.5,0.1,3.2,1.7c0.8,1.9,0.2,2.6-1.6,3.1C556.1,154.3,553.5,155.4,551.5,156.2z"/>
	<path class="st26" d="M568,150.1c-1.3,0.3-1.6-0.9-1.9-2c-0.4-1.1-0.7-2.3,0.9-2.8c2.8-1,5.5-2,8.3-3c1.5-0.5,2,0.6,2.5,1.7
		c0.4,1.1,0.8,2.4-0.6,3C574.2,148,571.2,148.9,568,150.1z"/>
	<path class="st28" d="M525.8,164.1c0.2,1.3-0.7,1.7-1.7,2c-2.5,0.9-5,1.7-7.5,2.7c-1.7,0.7-2.4,0-2.9-1.5c-0.5-1.4-1-2.5,0.9-3.1
		c2.7-0.9,5.3-2,7.9-2.9C525.2,160.5,525.1,162.7,525.8,164.1z"/>
	<path class="st13" d="M579.2,106.7c-0.3,0.7-0.4,1.8-0.9,2.1c-3.2,1.9-5.6-1.1-8.3-1.9c-1.3-0.4-3.7-0.5-2.9-3.1
		c0.2-0.8,0.6-2,1.1-2.1c3.1-0.8,5.4,1.8,8.2,2.5C577.5,104.6,579.1,104.8,579.2,106.7z"/>
	<path class="st15" d="M621.8,163.3c0-1.3,0-2.7,0-4c0-1.5,0.8-2,2.2-1.9c1.4,0,2.7,0.1,2.7,2c0,2.2,0,4.3,0,6.5
		c0,1.8,0.3,3.7-2.6,3.7c-3.1,0-2.3-2.1-2.4-3.8C621.8,165,621.8,164.1,621.8,163.3C621.8,163.3,621.8,163.3,621.8,163.3z"/>
	<path class="st13" d="M508.2,170.4c0.2,1.5-0.8,1.7-1.7,2.1c-2.3,0.8-4.7,1.7-6.9,2.7c-1.8,0.8-2.7,0.3-3.3-1.5
		c-0.7-1.8-0.1-2.8,1.7-3.3c2.4-0.7,4.7-1.6,7-2.5C507.9,166.5,507.7,168.9,508.2,170.4z"/>
	<path class="st41" d="M621.8,199c0.6-1.4-1.2-3.9,1.4-4.9c1-0.4,2.3-0.5,3.2,0.5c0.6,0.7,0.6,10.1,0,10.8c-0.9,1.1-2.2,0.8-3.2,0.6
		C621.8,205.7,621.8,205.6,621.8,199z"/>
	<path class="st18" d="M626.8,218.6c0,1-0.1,2,0,3c0.1,1.8-0.5,2.7-2.5,2.7c-1.9,0-2.6-0.7-2.5-2.6c0.1-2.1,0-4.3,0-6.4
		c0-1.7-0.2-3.2,2.4-3.2c2.4,0,2.7,1.2,2.6,3.1C626.8,216.3,626.8,217.5,626.8,218.6z"/>
	<path class="st18" d="M621.8,236.3c0-1.3,0.1-2.6,0-3.9c-0.1-1.8,0.9-2.2,2.5-2.1c1.5,0,2.6,0.3,2.5,2.1c0,2.1,0,4.3,0,6.4
		c0,1.8,0.4,3.6-2.5,3.7c-3,0-2.4-1.9-2.5-3.6C621.8,237.9,621.8,237.1,621.8,236.3z"/>
	<path class="st41" d="M626.8,254.5c0,1.2-0.1,2.3,0,3.5c0.1,2-0.9,2.5-2.7,2.6c-1.8,0-2.3-0.8-2.3-2.4c0.1-2-0.1-4,0-6
		c0.1-1.7-0.7-3.8,2.4-3.8c2.9,0,2.6,1.9,2.6,3.7C626.8,252.8,626.8,253.6,626.8,254.5z"/>
	<path class="st13" d="M501,73.3c3.2,1.3,6.3,2.5,9.3,3.9c1.6,0.8,0.2,2,0,3c-0.3,1.1-0.8,1.8-2.1,1.3c-2.9-1.2-5.9-2.3-8.8-3.5
		c-1.3-0.5-0.8-1.6-0.5-2.5C499.2,74.4,499.5,73.3,501,73.3z"/>
	<path class="st28" d="M559.8,102.8c-3.1-1.3-6.4-2.5-9.4-4.1c-1.3-0.7-0.3-2.1,0.1-3.1c0.4-1,1-1.7,2.3-1.1
		c2.7,1.2,5.4,2.4,8.2,3.5c1.6,0.6,1.3,1.8,0.8,2.8C561.3,101.5,561.3,102.7,559.8,102.8z"/>
	<path class="st25" d="M544.9,93.1c-0.6,1-0.4,3.4-3,2.2c-2.6-1.1-5.2-2.1-7.8-3.2c-1.4-0.6-1.5-1.6-1-2.8c0.4-1,0.7-2.6,2.2-2
		c3.1,1.1,6.1,2.5,9.1,3.8C545.1,91.5,545.2,92.1,544.9,93.1z"/>
	<path class="st42" d="M473.1,182.4c-1.6,0-2.9-0.6-4.2-1.4C470.9,179.7,472.6,179.2,473.1,182.4z"/>
	<path class="st43" d="M600.9,837.5c0.5-11.6,12.2-23.1,23.6-22c14.5,1.4,23.3,11.2,23.2,24.5c-0.1,12.9-11.4,23.4-24,23
		C610.2,862.5,600.3,851.5,600.9,837.5z"/>
	<path class="st6" d="M536.4,760.9c-0.6-1.9-1.3-3.9-1.9-5.8c-1.2-4.2-0.2-8.4,0.4-12.6c0.7-1.4,1.4-2.8,2-4.3
		c11.2-13.8,24.1-15.2,38-4.1c2.2,0.4,2.6,2.1,2.9,3.9c5.3,13.1,3.1,23.7-6.2,30.9C560.2,777.9,544.9,774.4,536.4,760.9z"/>
	<path class="st38" d="M577.9,738.1c-1-1.3-2-2.6-2.9-3.9c15.6-11.7,31.2-23.4,46.7-35.1c1.8-0.1,3.5-0.7,5.3,0c0.3,0.3,0.7,0.7,1,1
		C611.3,712.8,594.6,725.5,577.9,738.1z"/>
	<path class="st40" d="M626.8,784.8c0,1.3,0,2.6,0,4c0,1.8-1.2,2.1-2.6,2.2c-1.7,0.1-2.4-0.6-2.4-2.3c0-2.1,0-4.3,0-6.4
		c0-1.8-0.4-3.8,2.5-3.7c2.9,0.1,2.5,2,2.5,3.8C626.9,783.1,626.9,784,626.8,784.8C626.8,784.8,626.8,784.8,626.8,784.8z"/>
	<path class="st16" d="M490.9,789.6c-0.6,1-0.5,3.3-1.8,2.9c-3.6-0.9-7.1-2.5-10.6-4c-0.2-0.1,0.5-2.4,1-3.6
		c0.3-0.7,1.1-0.6,1.7-0.4c2.8,1,5.6,2,8.4,3.1C490.4,788,491.1,788.4,490.9,789.6z"/>
	<path class="st39" d="M493.7,894.9c0.1,1.2-0.8,1.4-1.5,1.7c-2.4,1-5,1.8-7.3,2.9c-1.9,0.9-2.5,0.2-3.2-1.5c-0.9-2-0.2-2.6,1.5-3.2
		c2.3-0.8,4.7-1.6,6.9-2.7C493.4,890.4,492.8,893.6,493.7,894.9z"/>
	<path class="st12" d="M595.5,827.8c-0.6,0.9-0.4,2.9-1.6,2.8c-3.7-0.4-7.3-1.9-10.6-3.7c-1.2-0.6,0.2-2.1,0.5-3.1
		c0.3-0.9,0.8-1.4,1.8-1c2.9,1.1,5.9,2.1,8.8,3.2C595.3,826.2,596.2,826.6,595.5,827.8z"/>
	<path class="st26" d="M501.1,893.1c-1.6,0.3-1.8-0.9-2.3-2c-0.5-1.2-0.8-2.2,0.8-2.8c2.8-1.1,5.6-2.2,8.3-3.3
		c1.7-0.7,1.9,0.6,2.4,1.7c0.4,1.1,1.3,2.1-0.5,2.8C507,890.6,504,891.8,501.1,893.1z"/>
	<path class="st18" d="M543.2,808.6c-0.6,1.9-0.8,3.9-3.6,2.7c-2.3-1-4.6-1.9-7-2.6c-2-0.6-2-1.8-1.4-3.4c0.6-1.5,1.4-2,3-1.3
		c2.4,1,5,1.7,7.5,2.7C542.6,807,543.8,807.4,543.2,808.6z"/>
	<path class="st26" d="M516.4,797.4c2.7,1,5.7,2,8.6,3.3c1.5,0.7,0.7,1.9,0.3,3c-0.4,1.4-1.2,1.9-2.6,1.4c-2.6-1-5.3-2-8-2.8
		c-1.4-0.5-1.8-1.2-1.2-2.6C514.1,798.5,514.1,796.8,516.4,797.4z"/>
	<path class="st13" d="M527.9,880.8c0.2,1.3-0.7,1.5-1.4,1.8c-2.4,1-4.9,2-7.3,3.1c-1.9,0.9-2.7,0.1-3.3-1.6c-0.6-1.5-0.4-2.4,1.3-3
		c2.5-0.9,4.9-1.9,7.3-2.9C527.5,877,527.2,879.6,527.9,880.8z"/>
	<path class="st28" d="M552.7,872.1c-1.9,0.4-2-1.1-2.5-2c-0.6-1.2-0.5-2.3,0.9-2.8c2.8-1.1,5.5-2.2,8.2-3.3
		c1.4-0.6,1.7,0.4,2.1,1.2c0.4,1,1.4,2.3,0,3C558.6,869.7,555.5,870.8,552.7,872.1z"/>
	<path class="st28" d="M593.6,849.5c1.8-0.4,1.9,1.1,2.3,2c0.5,1.1,0.6,2.2-0.9,2.8c-2.8,1.1-5.5,2.3-8.2,3.5
		c-1.4,0.6-1.7-0.3-2.1-1.3c-0.4-1-1.4-2.4-0.1-3.1C587.5,851.9,590.6,850.8,593.6,849.5z"/>
	<path class="st18" d="M626.8,730c0,1.5,0,3,0,4.4c0,2-1.5,1.8-2.8,1.8c-1.4,0.1-2.2-0.4-2.2-1.9c0-2.3,0-4.6,0-6.9
		c0-1.6-0.5-3.3,2.2-3.4c2.7-0.1,2.9,1.5,2.8,3.4C626.8,728.3,626.8,729.2,626.8,730C626.8,730,626.8,730,626.8,730z"/>
	<path class="st41" d="M626.8,766.5c0,1.2-0.1,2.3,0,3.5c0.1,2-1,2.5-2.8,2.5c-1.8,0-2.3-0.8-2.3-2.4c0.1-2,0-4,0-6
		c0.1-1.7-0.7-3.8,2.4-3.8c2.9,0,2.6,1.9,2.6,3.7C626.8,764.8,626.8,765.7,626.8,766.5z"/>
	<path class="st18" d="M621.8,748c0-1.3,0-2.6,0-3.9c0-1.6,0.9-1.9,2.2-1.8c1.4,0,2.7,0,2.7,1.9c0,2.5-0.1,4.9,0,7.4
		c0.1,2.1-0.7,2.9-2.8,2.9c-2.3,0-2.2-1.4-2.2-2.9C621.8,750.3,621.8,749.1,621.8,748C621.8,748,621.8,748,621.8,748z"/>
	<path class="st28" d="M508.2,796.1c-0.2,0.6-0.2,1.5-0.6,1.8c-3.4,2.3-5.9-1.1-8.8-1.6c-1.5-0.2-3.5-0.6-2.6-3.1
		c0.3-0.8,0.7-1.6,1.2-2.1c0.8-0.7,10.4,2.9,10.8,3.9C508.3,795.3,508.2,795.7,508.2,796.1z"/>
	<path class="st15" d="M621.8,802.9c0-1.3,0-2.7,0-4c0-1.5,0.8-2,2.2-2c1.4,0,2.8,0,2.8,1.9c0,2.5,0,5,0.1,7.5
		c0,1.8-0.5,2.8-2.5,2.8c-2,0-2.6-0.9-2.5-2.7C621.9,805.2,621.8,804.1,621.8,802.9z"/>
	<path class="st18" d="M551.7,810.3c2.2,0.8,5.4,1.8,8.4,3.2c1.5,0.7,0.2,2,0,3.1c-0.3,1.1-0.8,1.8-2.1,1.4c-2.8-1-5.6-2-8.4-3.1
		c-1.3-0.5-1.9-1.3-1.1-2.7C549,811.2,549.1,809.8,551.7,810.3z"/>
	<path class="st13" d="M579,859.4c0.4,1.3-0.3,1.7-1.1,2c-2.6,1.1-5.2,2.1-7.8,3.3c-1.4,0.7-2.1,0.1-2.6-1.1
		c-0.5-1.2-1.3-2.5,0.5-3.3c2.7-1.2,5.4-2.4,8.2-3.4C578.9,855.9,578.4,858.5,579,859.4z"/>
	<path class="st13" d="M544.9,873.4c0.5,1.5-0.3,1.8-1.1,2.2c-2.6,1.1-5.1,2.2-7.7,3.4c-1.7,0.8-2.4-0.1-2.9-1.5
		c-0.5-1.3-0.7-2.5,1-3.2c2.6-1,5.2-2.1,7.8-3.1C544.8,869.9,543.9,873,544.9,873.4z"/>
	<path class="st41" d="M621.8,712.2c0-1.3,0.1-2.7,0-4c-0.1-1.8,0.9-2.3,2.5-2.2c1.6,0,2.6,0.4,2.6,2.2c0,2.2,0,4.3,0,6.5
		c0.1,2,0,3.6-2.8,3.5c-2.8-0.1-2.1-2-2.2-3.5C621.8,713.8,621.8,713,621.8,712.2z"/>
	<path class="st25" d="M568.7,816.4c2.7,1,5.7,2,8.5,3.3c1.4,0.6,0.8,2,0.3,3.1c-0.4,0.9-0.9,1.9-2.2,1.4c-2.8-1-5.6-2-8.4-3
		c-1.6-0.6-1.2-1.8-0.9-2.9C566.4,817.1,566.8,816,568.7,816.4z"/>
	<path class="st44" d="M469.1,785.3c1.3-0.5,2.7-1,4-1.5C472.8,787,471.2,786.9,469.1,785.3z"/>
	<path class="st43" d="M647.8,639c-0.8,14.7-10.5,23.9-23.4,23.6c-13.6-0.3-23.9-7.8-24.1-28.6c-0.1-7.7,13.9-18.6,23.9-18.6
		C636.9,615.4,647.8,626.2,647.8,639z"/>
	<path class="st45" d="M627,699.2c-1.8,1-3.5,1.3-5.3,0c0-2.8,0.1-5.6,0.1-8.4c0-1.8,0.1-3.3,2.5-3.2c2.4,0.1,2.5,1.5,2.5,3.3
		c0,1.3,0.1,2.6,0.2,3.9C627,696.3,627,697.7,627,699.2z"/>
	<path class="st13" d="M594.1,630.3c-0.3,1.1-0.1,3-1.5,2.7c-3.6-0.6-7.1-1.5-10.5-2.6c-1.4-0.5-0.2-2.1-0.1-3.1
		c0.1-1,0.9-1.4,1.8-1.2c3.1,0.7,6.1,1.5,9.2,2.3C594,628.6,594.2,629.4,594.1,630.3z"/>
	<path class="st16" d="M529.3,611.7c3.3,0.9,5.9,1.7,8.4,2.3c2.1,0.4,2.2,1.4,1.6,3.2c-0.5,1.6-1,2.2-2.7,1.7
		c-2.5-0.8-5.1-1.3-7.7-1.9c-1.9-0.4-2.3-1.6-1.8-3.3C527.6,612.2,528.3,611.2,529.3,611.7z"/>
	<path class="st16" d="M572.6,628.2c-2.5-0.6-5-1.4-7.6-1.9c-1.8-0.4-2-1.3-1.4-2.8c0.4-1.3,0.6-2.6,2.5-2.2
		c2.7,0.7,5.4,1.4,8.1,2.1c1.6,0.4,2.1,1.3,1.7,2.9C575.4,628.1,574.4,628.8,572.6,628.2z"/>
	<path class="st28" d="M557.8,621.1c-0.4,0.9-0.5,2.9-1.6,2.7c-3.6-0.6-7.1-1.6-10.6-2.8c-1.4-0.5-0.3-2,0-3.1
		c0.2-0.8,0.5-1.7,1.6-1.4c3.2,0.8,6.4,1.7,9.6,2.6C557.9,619.4,558,620.1,557.8,621.1z"/>
	<path class="st28" d="M512.1,607.3c2.6,0.7,5.1,1.4,7.7,2c1.8,0.5,1.6,1.6,1.4,3.1c-0.3,1.8-1.2,2.2-2.8,1.8
		c-2.6-0.7-5.1-1.4-7.7-2c-1.7-0.4-2-1.3-1.8-2.9C509.2,607.3,510.4,606.9,512.1,607.3z"/>
	<path class="st13" d="M503,607c-0.2,1.1-0.3,2.8-1.7,2.6c-3.7-0.8-7.2-2-10.8-3.2c-0.2-0.1,0.3-2.1,0.6-3.2c0.2-0.8,0.9-1,1.6-0.8
		c3.2,0.8,6.4,1.7,9.5,2.6C503.2,605.3,503.2,606.2,503,607z"/>
	<path class="st46" d="M474.8,710c-2.3,0.6-2.8-1.4-3.9-2.6c2-3.8,6.4-3.7,9.6-5.7c1.5-1,1.9,0.8,2.4,1.7c0.7,1.3,0.8,2.4-1,3.1
		C479.5,707.5,477.2,708.8,474.8,710z"/>
	<path class="st18" d="M545.6,672c2.1-0.5,2.1,1.3,2.7,2.3c1,1.6-0.1,2.1-1.2,2.5c-2.2,1.1-4.6,1.9-6.8,3.1c-1.9,1-2.6,0.2-3.4-1.4
		c-0.7-1.5-0.6-2.4,1-3.1C540.6,674.3,543.2,673.1,545.6,672z"/>
	<path class="st15" d="M626.8,675.6c0,1.3,0,2.7,0,4c-0.1,1.9-1.4,1.9-2.8,1.9c-1.4,0-2.2-0.5-2.2-2c0-2.2,0-4.3,0-6.5
		c0-1.8-0.5-3.8,2.5-3.7c3,0,2.4,2,2.5,3.8C626.9,674,626.8,674.8,626.8,675.6C626.8,675.6,626.8,675.6,626.8,675.6z"/>
	<path class="st18" d="M588.2,658.1c-1.6,0.2-1.8-1.1-2.3-2.1c-0.5-1-0.7-1.9,0.5-2.5c2.7-1.3,5.4-2.4,8.1-3.7
		c1.3-0.7,1.9,0.1,2.3,1c0.4,1,1.7,2.3,0.4,3C594.2,655.6,591.1,656.8,588.2,658.1z"/>
	<path class="st12" d="M555.9,672.9c-1.9,0.6-2-0.7-2.4-1.5c-0.6-1-1.1-2.3,0.3-3c2.6-1.3,5.3-2.5,8-3.8c1.2-0.5,1.9,0.1,2.2,1.1
		c0.3,1,1.7,2.2,0.3,3C561.5,670.4,558.5,671.6,555.9,672.9z"/>
	<path class="st12" d="M496.8,694.2c2-0.1,2.1,1.3,2.6,2.3c0.9,1.4,0.1,2.1-1.1,2.6c-2.4,1.1-4.8,2.1-7.2,3.2
		c-1.3,0.6-2.1,0.5-2.6-0.9c-0.4-1-1.5-2.3-0.2-3C491.2,696.7,494.2,695.4,496.8,694.2z"/>
	<path class="st12" d="M523,687.8c-1.8,0.1-1.8-1.3-2.4-2.2c-0.8-1.3-0.5-2.1,0.9-2.7c2.6-1.1,5.1-2.3,7.6-3.5
		c1.2-0.5,1.8,0.1,2.3,1.1c0.4,1,1.5,2.4,0.2,3.1C528.9,685.3,525.8,686.5,523,687.8z"/>
	<path class="st12" d="M516,689.8c0.2,1.2-0.7,1.5-1.4,1.8c-2.3,1-4.6,2-6.8,3.1c-1.5,0.8-2.3,0.5-3.1-1c-0.8-1.7-0.8-2.8,1.1-3.5
		c2.1-0.9,4.3-1.8,6.3-2.9C515.1,685.7,515.2,688.2,516,689.8z"/>
	<path class="st13" d="M572,665.5c-2,0.1-1.9-1.4-2.5-2.3c-0.6-1-0.5-1.8,0.7-2.3c2.6-1.1,5.1-2.4,7.6-3.6c1.4-0.6,2.2,0.1,2.7,1.3
		c0.4,0.9,1.2,2,0.1,2.7C577.7,662.9,574.7,664.2,572,665.5z"/>
	<path class="st43" d="M647.8,327.4c-0.1,12.8-10.9,23.6-23.6,23.5c-10-0.1-24-10.9-23.9-18.6c0.2-20.7,10.6-28.3,24.2-28.5
		C637.7,303.6,647.1,313.4,647.8,327.4z"/>
	<path class="st18" d="M500.3,356.9c1.8-0.5,2.3,0.6,2.7,2c0.4,1.6,0,2.6-1.6,3c-2.7,0.7-5.4,1.3-8.1,2.1c-1.4,0.4-2.2-0.1-2.4-1.6
		c-0.1-1.2-1.3-2.6,0.8-3.2C494.6,358.4,497.5,357.6,500.3,356.9z"/>
	<path class="st26" d="M555.9,342.5c1.4-0.5,1.3,1.4,1.7,2.5c0.5,1.3,0.3,2.2-1.3,2.5c-2.9,0.7-5.8,1.5-8.6,2.4
		c-1.8,0.5-1.9-0.8-2.3-1.8c-0.5-1.3-0.9-2.6,1.1-3.1C549.4,344.3,552.3,343.5,555.9,342.5z"/>
	<path class="st45" d="M621.7,267.3c1.8-1.3,3.5-1,5.3,0c0,1.4,0.1,2.8,0.1,4.2c-0.1,1.5-0.2,3-0.2,4.5c0,1.7-0.4,2.8-2.4,2.9
		c-2.5,0.1-2.6-1.3-2.6-3.2C621.8,272.9,621.7,270.1,621.7,267.3z"/>
	<path class="st18" d="M529,354.6c-1.4,0.2-1.6-1.1-1.9-2.2c-0.4-1.2-0.3-2.3,1.2-2.7c2.9-0.8,5.7-1.6,8.6-2.3
		c1.5-0.4,2.1,0.4,2.3,1.8c0.2,1,1.3,2.4-0.5,2.9C535.6,353,532.4,353.8,529,354.6z"/>
	<path class="st12" d="M521.2,354.6c0.5,1.8-0.5,2.2-1.7,2.5c-2.6,0.6-5.1,1.3-7.7,1.9c-1.6,0.4-2.5,0-2.8-1.8
		c-0.3-1.5-0.2-2.6,1.5-3.1c2.6-0.6,5.1-1.4,7.7-2C520.4,351.6,521.1,352.9,521.2,354.6z"/>
	<path class="st18" d="M576,340.7c0.3,1.5-0.7,2-1.9,2.3c-2.5,0.7-5.1,1.2-7.6,2c-2.1,0.7-2.4-0.7-2.9-2.2c-0.6-1.7,0-2.4,1.6-2.7
		c2.6-0.6,5.1-1.3,7.6-1.9C575,337.6,575.7,338.9,576,340.7z"/>
	<path class="st28" d="M591.2,333.3c2-0.3,2.5,0.6,2.8,1.9c0.2,1.4,0.4,2.6-1.5,3c-2.6,0.6-5.1,1.3-7.7,2c-1.4,0.4-2.5,0.3-2.9-1.6
		c-0.4-1.7-0.4-2.9,1.7-3.3C586.3,334.7,589,333.9,591.2,333.3z"/>
	<path class="st15" d="M626.8,291.1c0,1.3,0,2.7,0,4c0,1.9-1.3,2-2.8,2c-1.4,0-2.2-0.5-2.2-2c0-2.2-0.1-4.3,0-6.5
		c0-1.7-0.6-3.8,2.4-3.8c2.9,0,2.6,1.9,2.6,3.8C626.8,289.4,626.8,290.3,626.8,291.1C626.8,291.1,626.8,291.1,626.8,291.1z"/>
	<path class="st12" d="M507.1,271.3c2.5,1.2,5.6,2.4,8.4,4.1c1.3,0.7,0,2-0.3,3.1c-0.4,1.1-1,1.6-2.2,1.1c-2.7-1.2-5.4-2.4-8.1-3.7
		c-1.1-0.5-1.1-1.5-0.5-2.5C504.9,272.5,505,271,507.1,271.3z"/>
	<path class="st12" d="M522.8,278.4c2.9,1.4,6,2.6,8.8,4.2c1.3,0.7,0.4,2,0,3.1c-0.5,1.3-1.3,1.7-2.7,1c-2.5-1.2-5.1-2.4-7.6-3.5
		c-1.3-0.6-1.2-1.4-0.6-2.4C521.1,280,521.2,278.6,522.8,278.4z"/>
	<path class="st12" d="M548.5,291.6c-0.6,0.9-0.8,3.3-2,2.9c-3.4-1.1-6.7-2.8-9.8-4.6c-0.7-0.4,0.4-2,0.9-3c0.4-0.9,1.1-1.1,2-0.7
		c2.7,1.3,5.4,2.5,8.1,3.8C548.3,290.2,548.9,290.5,548.5,291.6z"/>
	<path class="st12" d="M556.2,293.7c2.1,1,5,2.3,7.8,3.6c1.5,0.8,0.7,1.9,0.3,2.9c-0.5,1.1-0.9,2.2-2.5,1.4
		c-2.7-1.3-5.4-2.3-8.1-3.7c-1.4-0.7-0.8-2-0.2-3C554,294.3,554,292.9,556.2,293.7z"/>
	<path class="st12" d="M490.4,263.8c2.8,1.3,5.7,2.6,8.5,3.9c1.6,0.8,0.7,1.9,0.3,2.9c-0.5,1.2-1.1,2.1-2.5,1.5
		c-2.7-1.2-5.4-2.4-8-3.8c-1.6-0.8-0.7-2-0.2-2.9C488.7,264.7,488.9,263.3,490.4,263.8z"/>
	<path class="st18" d="M595.3,317c-3.3-1.5-6.3-2.8-9.2-4.3c-1.5-0.8-0.2-2,0.1-3c0.4-1.3,1.4-1.7,2.7-1.1c2.4,1.1,4.8,2.3,7.2,3.3
		c1.4,0.6,1.6,1.4,1,2.7C596.7,315.5,596.2,316.5,595.3,317z"/>
	<path class="st25" d="M580.9,306.7c-0.5,0.8-0.7,2.7-1.8,2.4c-3.5-0.8-6.8-2.5-9.8-4.5c-0.3-0.2,0.5-2.1,0.9-3.1
		c0.4-0.9,1.3-0.9,2.1-0.5c2.6,1.2,5.1,2.3,7.7,3.5C580.8,305,581.3,305.6,580.9,306.7z"/>
	<path class="st28" d="M471.8,258c0.7-1.3,1.6-2,3.1-1.6c2.2,1.1,4.3,2.3,6.6,3.3c1.7,0.8,2.1,1.8,1.4,3.5c-0.8,1.9-1.8,1.9-3.4,1.1
		c-2.2-1.1-4.5-2.2-6.8-3.1C470.8,260.5,471.6,259.2,471.8,258z"/>
	<path class="st47" d="M400.3,761.1c-7.7,12.5-21.2,16.4-32.9,9.4c-11.4-6.8-15.5-22-7.6-33.5c7.8-11.3,23.8-13.8,35.1-4.3
		c6.5,5.5,8.7,12.6,7.8,20.9C402.3,756.2,403.3,759.3,400.3,761.1z"/>
	<path class="st21" d="M347.7,723.3c2.6,2,5.4,4,8,6.3c1.2,1.1-0.3,2.1-0.9,3c-0.6,0.9-1.3,1.4-2.4,0.6c-2.4-1.8-4.8-3.6-7.2-5.4
		c-1-0.7-1.3-1.4-0.4-2.4C345.5,724.4,345.9,723.2,347.7,723.3z"/>
	<path class="st18" d="M418.7,767.2c-3.1-1.1-6.2-2.1-9.3-3.3c-1.2-0.5-0.7-1.7-0.4-2.6c0.3-1.1,0.8-2.4,2.3-2c3,0.9,5.9,2,8.8,3.2
		c1.5,0.6,1,1.9,0.6,3C420.3,766.3,420.1,767.5,418.7,767.2z"/>
	<path class="st12" d="M428.7,765.5c2.9,1.1,5.8,2.2,8.7,3.3c1.6,0.6,1.2,1.6,0.7,2.8c-0.4,1.1-0.8,2.3-2.3,1.8
		c-3-1-5.9-2.1-8.8-3.1c-1.7-0.6-1-1.8-0.5-2.8C427,766.4,427,764.9,428.7,765.5z"/>
	<path class="st21" d="M453.4,779.9c-2.8-1.1-5.8-2.3-8.9-3.4c-1.8-0.7-0.7-1.8-0.5-2.8c0.3-1.2,0.8-2.2,2.3-1.7
		c2.9,1,5.9,2.1,8.8,3.2c1.6,0.6,0.9,1.9,0.5,2.9C455.2,779,455.1,780.3,453.4,779.9z"/>
	<path class="st21" d="M418.2,734c0.1,1.3-0.6,1.7-1.4,2.1c-2.4,1.1-4.8,2.1-7.2,3.3c-1.8,0.9-2.3-0.1-2.9-1.5
		c-0.6-1.3-1.1-2.4,0.7-3.1c2.4-1,4.8-2.2,7.2-3.3C417.6,730.3,417.3,733.1,418.2,734z"/>
	<path class="st18" d="M432,723.7c1.7,0.1,1.8,1.5,2.3,2.4c0.5,1,0.6,1.8-0.7,2.3c-2.7,1.2-5.4,2.5-8.1,3.7c-1.5,0.6-2-0.7-2.4-1.7
		c-0.3-0.8-1.2-1.9,0.1-2.5C426.1,726.4,429.1,725,432,723.7z"/>
	<path class="st18" d="M441.8,724.7c-1.9,0.5-1.9-0.8-2.4-1.5c-0.5-1-1.1-2.2,0.4-2.9c2.6-1.3,5.3-2.5,8-3.7
		c1.1-0.5,1.9,0.1,2.2,1.2c0.3,1,1.7,2.2,0.3,3C447.5,722.3,444.4,723.5,441.8,724.7z"/>
	<path class="st13" d="M332,712.1c1.2,0,9.3,6.1,9.1,6.9c-0.2,0.9-0.8,1.8-1.3,2.6c-0.7,1.1-1.6,0.9-2.5,0.2
		c-2.2-1.7-4.5-3.4-6.7-5.1c-0.9-0.7-1.5-1.3-0.7-2.4C330.5,713.4,330.9,712.2,332,712.1z"/>
	<path class="st48" d="M462.3,709.7c2.9-1.6,4.1,0.3,5.1,2.6c-2.3,2.8-5.9,3.2-8.9,4.8c-1.6,0.9-2.2-0.3-2.9-1.5
		c-0.9-1.6-0.4-2.4,1-3.1C458.5,711.6,460.4,710.6,462.3,709.7z"/>
	<path class="st49" d="M467.8,780.1c-2.1,1.2-4.3,2-6.8,2.3C461.3,775.7,464.8,778.8,467.8,780.1z"/>
	<path class="st50" d="M400.3,761.1c1.7-2.2,1.2-5.1,2.4-7.5C402.8,756.4,406.1,760.2,400.3,761.1z"/>
	<path class="st47" d="M379.4,239.5c-12.9-0.2-23.5-9.4-23.4-23.7c0.1-12.7,10.6-23.1,23.3-23.2c9.1-0.1,23.7,10,23.8,16.5
		C403.5,228.3,394.7,239.5,379.4,239.5z"/>
	<path class="st12" d="M456,189.5c0.1,1.2-0.5,1.6-1.4,1.9c-2.6,0.9-5.3,1.9-7.9,2.9c-1.7,0.7-2.3-0.1-2.8-1.6
		c-0.5-1.4-0.8-2.5,1-3.1c2.6-0.9,5.3-1.9,7.9-2.9C455.9,185.5,455.2,188.4,456,189.5z"/>
	<path class="st21" d="M428.5,200.9c-1.8,0.4-1.6-1.3-2.1-2.1c-0.6-1.2-0.6-2.2,1-2.7c2.7-0.9,5.3-1.9,8-2.8
		c1.6-0.6,2.3,0.2,2.9,1.7c0.7,1.7,0.2,2.4-1.3,2.9C434.1,198.8,431.3,199.8,428.5,200.9z"/>
	<path class="st21" d="M346.8,243.1c-1.1-0.3-1.5-1.5-2.2-2.3c-0.7-0.9-0.2-1.5,0.5-2.1c2.4-1.8,4.8-3.6,7.2-5.4
		c0.7-0.5,1.5-0.8,2.1,0c0.7,0.9,1.8,1.6,1.6,3C355.9,237.1,347.7,243.2,346.8,243.1z"/>
	<path class="st18" d="M332.8,254.3c-1.8,0-2.2-1.3-2.9-2.1c-0.8-1-0.4-1.8,0.5-2.5c2.3-1.7,4.5-3.4,6.8-5c0.9-0.7,1.8-0.9,2.6,0.1
		c0.7,0.9,2.2,2,1.2,2.9C338.3,250.1,335.4,252.2,332.8,254.3z"/>
	<path class="st21" d="M421,202.2c0.1,1.4-0.7,1.8-1.7,2.1c-2.5,0.8-5,1.7-7.4,2.7c-1.7,0.7-2.4-0.2-2.9-1.7
		c-0.5-1.4-0.6-2.5,1.2-3.1c2.5-0.8,4.9-1.8,7.4-2.7C420.4,198.5,420.5,200.6,421,202.2z"/>
	<path class="st18" d="M425.4,234.1c2.7,1.3,5.8,2.6,8.6,4.2c1.6,0.9,0,2-0.2,3c-0.4,1.3-1.2,1.7-2.6,1c-2.4-1.2-4.8-2.2-7.2-3.2
		c-1.2-0.5-1.9-1.3-1.1-2.7C423.4,235.5,423.6,234.2,425.4,234.1z"/>
	<path class="st18" d="M451.1,246.6c-1,1.4-0.9,3.6-2.3,3.3c-3.5-0.7-6.8-2.3-9.7-4.4c-1-0.7,0.2-2.6,1-3.5c1.4-1.5,2.7,0.3,3.9,0.8
		C446.5,243.8,449.2,244.5,451.1,246.6z"/>
	<path class="st12" d="M418.2,232.1c-0.4,1.2-0.6,2.6-1.9,3.2c-0.7,0.3-10.1-4.2-10-4.7c0.3-1.2,0.7-2.6,1.6-3.5
		C408.9,225.9,418,230.4,418.2,232.1z"/>
	<path class="st51" d="M467.4,254.1c-1,2.6-2.4,4.2-5.3,2.4c-1.8-0.8-3.6-1.7-5.3-2.5c-1.3-0.6-2.1-1.3-1.2-3
		c0.8-1.6,1.7-2.5,3.4-1.5C461.7,251.1,465.2,251.4,467.4,254.1z"/>
	<path class="st52" d="M461.2,183.9c2.2,0.5,4.4,1,6.4,2.4C461.9,189.1,461.9,189.1,461.2,183.9z"/>
	<path class="st36" d="M645.1,127.1c0,11.6-9.5,21.1-21,21c-11.4-0.1-21.1-9.9-21-21.2c0.1-11.6,9.5-20.8,21.2-20.8
		C636.1,106.2,645.1,115.3,645.1,127.1z"/>
	<path class="st37" d="M557.5,195.2c11.8,0,20.8,9.1,20.8,20.9c0,11.6-9.3,21.1-20.9,21c-11.5,0-20.8-9.4-20.8-21.1
		C536.6,204.3,545.7,195.2,557.5,195.2z"/>
	<path class="st36" d="M645.1,839.6c-0.1,11.7-9.3,20.7-21.1,20.6c-11.5-0.1-21-9.7-20.8-21.1c0.1-11.3,10-20.9,21.3-20.8
		C635.9,818.4,645.2,827.9,645.1,839.6z"/>
	<path class="st37" d="M578.3,750.2c0.1,11.8-9,21.1-20.7,21.1c-11.8,0.1-20.9-9-21-20.8c-0.1-11.7,9.1-21.1,20.7-21.2
		C568.9,729.2,578.3,738.5,578.3,750.2z"/>
	<path class="st36" d="M645.1,639.2c-0.1,11.6-9.6,21.1-21.1,20.9c-11.4-0.2-21.1-10.1-20.9-21.2c0.2-11.6,9.6-20.7,21.3-20.7
		C636.2,618.3,645.2,627.4,645.1,639.2z"/>
	<path class="st36" d="M645.1,327.7c-0.1,11.6-9.4,20.6-21.2,20.5c-11.5-0.1-20.9-9.8-20.7-21.2c0.2-11.3,10.1-20.8,21.4-20.7
		C636.1,306.5,645.2,316,645.1,327.7z"/>
	<path class="st36" d="M400.3,750.2c0.1,11.9-8.9,21-20.6,21.1c-11.8,0-20.9-8.9-20.9-20.8c-0.1-11.8,9-21.1,20.6-21.2
		C391,729.2,400.2,738.5,400.3,750.2z"/>
	<path class="st36" d="M358.7,215.9c0.1-11.8,9.1-20.8,20.9-20.7c11.8,0.1,20.7,9.2,20.6,21.1c-0.1,11.6-9.4,21-20.9,20.9
		C367.8,237,358.6,227.6,358.7,215.9z"/>
</g>
</svg>
