<?xml version="1.0" encoding="utf-8"?>
<!-- Generator: Adobe Illustrator 19.1.0, SVG Export Plug-In . SVG Version: 6.00 Build 0)  -->
<svg version="1.1" id="Layer_1" xmlns="http://www.w3.org/2000/svg" xmlns:xlink="http://www.w3.org/1999/xlink" x="0px" y="0px"
	 viewBox="0 0 124.9 127.3" style="enable-background:new 0 0 124.9 127.3;" xml:space="preserve">
<style type="text/css">
	.st0{fill:#48552F;}
	.st1{fill:#4C572B;}
	.st2{fill:#4C532A;}
	.st3{fill:#4F582E;}
	.st4{fill:#396A3B;}
	.st5{fill:#366333;}
	.st6{fill:#3F5F32;}
	.st7{fill:#545E68;}
	.st8{fill:#4B5E4A;}
	.st9{fill:#4F5F54;}
	.st10{fill:#4B6045;}
	.st11{fill:#2F7255;}
	.st12{fill:#29775D;}
	.st13{fill:#556F58;}
	.st14{fill:#536346;}
	.st15{fill:#3C6949;}
	.st16{fill:#4D6B50;}
	.st17{fill:#238366;}
	.st18{fill:#108C68;}
	.st19{fill:#2F6C40;}
	.st20{fill:#1F7356;}
	.st21{fill:#6F6778;}
	.st22{fill:#55665F;}
	.st23{fill:#6D6875;}
	.st24{fill:#846372;}
	.st25{fill:#6B5D78;}
	.st26{fill:#576264;}
	.st27{fill:#617067;}
	.st28{fill:#0E8370;}
	.st29{fill:#0E8878;}
	.st30{fill:#68806A;}
	.st31{fill:#3F7863;}
	.st32{fill:#5A7A62;}
	.st33{fill:#09A080;}
	.st34{fill:#3B8F78;}
	.st35{fill:#0D9F7D;}
	.st36{fill:#498A74;}
	.st37{fill:#8B737D;}
	.st38{fill:#6B706D;}
	.st39{fill:#5C666D;}
	.st40{fill:#7E6882;}
	.st41{fill:#737875;}
	.st42{fill:#D36373;}
	.st43{fill:#866A84;}
	.st44{fill:#A45E73;}
	.st45{fill:#C26E67;}
	.st46{fill:#6C7F75;}
	.st47{fill:#0A8C84;}
	.st48{fill:#079793;}
	.st49{fill:#02A092;}
	.st50{fill:#798D78;}
	.st51{fill:#6F8772;}
	.st52{fill:#2FB694;}
	.st53{fill:#2FA38F;}
	.st54{fill:#5F9A84;}
	.st55{fill:#2AB592;}
	.st56{fill:#529D82;}
	.st57{fill:#7F867D;}
	.st58{fill:#908283;}
	.st59{fill:#81867E;}
	.st60{fill:#E06075;}
	.st61{fill:#07A5A8;}
	.st62{fill:#17B1A8;}
	.st63{fill:#18B0A9;}
	.st64{fill:#929883;}
	.st65{fill:#63A493;}
	.st66{fill:#84927B;}
	.st67{fill:#4CBE9F;}
	.st68{fill:#5DAA9A;}
	.st69{fill:#7BA692;}
	.st70{fill:#5CB29C;}
	.st71{fill:#8F8D84;}
	.st72{fill:#998E8E;}
	.st73{fill:#918E84;}
	.st74{fill:#09AFB6;}
	.st75{fill:#2FBAB6;}
	.st76{fill:#A99F8C;}
	.st77{fill:#83AE96;}
	.st78{fill:#95A995;}
	.st79{fill:#7AB49F;}
	.st80{fill:#979A85;}
	.st81{fill:#AA938C;}
</style>
<g>
	<path class="st0" d="M97.9,12c13.9,9,22.1,22.1,25.5,37.7c3.2,14.8,1.5,29.7-6.1,43.2c-6.8,12.2-15.5,22.3-29,27.9
		c-5.4,2.2-10.6,4.3-16.3,5.2c-0.5-1.1,0.1-1.9,0.7-2.6c3.3-2.6,7.2-3.9,11.1-5.3c8.2-2.8,15.4-7.3,20.7-14.5
		c3.8-4.5,7.6-8.9,9.3-14.8c1.4-5.8,3.9-11.4,5.1-17.1c1.6-7.6,0.7-15.6-1.7-23.1c-0.8-2.5-1.7-5-2.4-7.6c-1.2-6-3.8-11.3-8.6-15.4
		c-1.4-1.2-2.6-2.6-3.3-4.3c-0.4-1.9-2.3-2.2-3.6-3.2c-2.1-1.6-4.3-3.2-3.5-6.4C96.6,11.4,97.3,11.5,97.9,12z"/>
	<path class="st1" d="M8,94c-7.3-13-9.8-26.8-6.7-41.6C3.7,41.1,7.9,30.7,16,22.1c1.4,2.4-0.5,4.1-1.2,6.1c-1.7,3.8-6,6.3-5.5,11.2
		c-0.1,1-0.2,2.1-0.5,3.1c-5.3,15.6-6.1,31.1,0,46.7c0.3,0.8,0.4,1.6,0.3,2.5C9,92.6,8.7,93.4,8,94z"/>
	<path class="st2" d="M97.9,12c-0.7,0-1.3,0-2,0c-3.2,1.2-5.9-0.9-8.7-1.7c-1.5-0.5-3.1-0.9-4.7-1.2c-0.5-0.1-1-0.3-1.5-0.6
		c-2.8-2.5-6-3.1-9.6-3.1c-5.1,0.1-10.2,0-15.3,0c-5.5-0.6-10.7,0.9-16,1.8c-0.9-0.2-1.7-0.5-2.2-1.3C52.8-1.3,68-1.8,83.5,3.8
		C88.8,5.7,93.7,8.2,97.9,12z"/>
	<path class="st3" d="M73,124c-0.3,0.7-0.7,1.3-1,2c-10.6,2.4-21.1,1.3-31.1-2.7c-6-2.3-12-4.9-16.8-9.4c1.7-1.6,3.6-1.3,5.6-0.9
		c7.8,3.2,15.7,6.4,23.8,8.8c4.6,1.3,9.3,0.5,13.9,0.8C69.3,122.7,71.5,122.3,73,124z"/>
	<path class="st4" d="M29.9,114c-1.9,0-3.9-0.1-5.8-0.1c-4.6-4.1-9.5-8-12.3-13.7c-1-2.2-3-3.9-3.8-6.2c0,0,0,0,0,0
		c0-0.7,0-1.4,0.1-2c2-1.3,3.2,0.3,4.5,1.3c3.9,7,9.9,12,16,17C29.4,111.4,30.7,112.4,29.9,114z"/>
	<path class="st5" d="M37.9,5.9C38.6,6,39.3,6,40,6.1c1,1.3,0.3,2.4-0.5,3.5c-2,1.9-4.3,3.4-7.2,3.8c-3.3-0.4-5.2,3.5-8.5,2.8
		c-0.3-0.4-0.3-0.9,0.1-1.3C27.9,10.8,32.5,7.8,37.9,5.9z"/>
	<path class="st6" d="M23.9,14.9c0,0.4,0,0.8,0.1,1.1c0.8,1.8-0.7,2.9-1.3,4.3c-2.6,2.7-4.2,6.5-8.1,7.9c-0.2-0.1-0.4-0.2-0.6-0.3
		c0.7-2,1.4-3.9,2.1-5.9C18,19,20.7,16.6,23.9,14.9z"/>
	<path class="st1" d="M8,94c2.1,1.6,3.6,3.5,3.8,6.2C10,98.5,7.7,97,8,94z"/>
	<path class="st7" d="M116,40c4.5,10.2,5.4,21,5.1,32c-0.1,3.3-3.5,4.9-3.4,8.5c0.1,3.1-1.7,6.3-2.7,9.4c-3.6,2.6-3.4,8.8-8.9,9.6
		c-0.8,0.1-1.5,0-2.1-0.6c0-6.2,2.4-11.4,6-16.3c1-1.3,2.4-2.3,2.7-4c1.1-2.5-0.6-5.2,0.5-7.7c1.6-2.5,2.6-5,0.5-7.8
		c-0.5-0.7-0.8-1.6-0.5-2.4c1.8-4.7-0.9-8.7-2.1-13c0.5-6.4-3.6-10.5-7.4-14.7c1.8-3.3,3.2-3.5,5.7-1c1.7,1.8,2.4,4.4,4.7,5.7
		C114.8,38.5,115.5,39.2,116,40z"/>
	<path class="st8" d="M73,124c-2,0-4,0-6-0.1c-0.2-2.3,1.7-2.6,3.1-3.1c3.6-1.5,7.1-3.5,10.6-5.3c7.5-1.1,14.1-4.2,19.4-9.7
		c1.2-1.2,2.5-2.2,4.3-2.1c0.2,0.1,0.4,0.2,0.6,0.4c0.1,1.8-0.5,3.3-2,4.3c-5.2,3.6-10.1,8.3-15.9,10.4
		C82.4,120.5,77.6,121.9,73,124z"/>
	<path class="st9" d="M116,40c-0.6-0.3-1.3-0.7-1.9-1c-2.8-6.3-8.3-9.6-13.8-13.1c-1.8-1.5-3.3-3.2-2.6-5.9c2.5-2.3,4.6-1.4,6.5,1
		C109,26.7,115,31.7,116,40z"/>
	<path class="st10" d="M104,21c-1.9-0.7-3.8-2.1-6-1c-0.6,0.6-1.3,0.6-2.1,0.3c-1.8-3.9-4.5-6.6-9-7.4c-2.2-0.4-4.3-1.8-3.9-4.8
		c4.7,0.3,8.7,2.6,13,4c1.4,2.7,2.7,5.5,6.3,6C104,18.3,103.9,19.7,104,21z"/>
	<path class="st8" d="M106,99c4.5-1.6,4.6-7.4,9-9c-2.2,5.5-4.7,10.7-9.9,14.1c0,0-0.1-0.1-0.1-0.1C104,102.1,104.7,100.5,106,99z"
		/>
	<path class="st11" d="M11.9,94c-1.3-0.6-2.2-2.1-3.9-2.1c-3.3-9.2-5.6-18.6-5-28.5C3.6,56.1,4.8,48.8,8,42c2.1,2.2,1.3,4.6,0.6,7
		c-1.1,4-1.9,8-1.3,12.2c-1,10.7,1.5,20.8,5.5,30.6C12.8,92.6,12.6,93.4,11.9,94z"/>
	<path class="st12" d="M6,61c-1-3.7-0.1-7.4,0.9-10.9C7.6,47.4,8.2,44.8,8,42C8,41,8,40,8,39.1c1.1-1.3,0.9-3.8,3.5-3.5
		c0.5,0.2,0.9,0.5,1.1,1.1c0.9,3.9-0.6,7.6-1.6,11.1c-1.1,4-1.6,8-2.4,11.9C8.1,60.6,7.3,61.4,6,61z"/>
	<path class="st6" d="M11,36c-1,1-2,2-3,3C7.5,34,11.6,31.5,14,28C14,28,14,28,14,28C16,31.8,13,33.7,11,36z"/>
	<path class="st13" d="M83,8.1c1.5,2.3,3.3,3.7,6.3,4.1c4,0.6,7,3,6.7,7.8c-2.4,1.4-4.7-0.4-7.1-0.4c-9.9-5.4-20.7-6.3-31.6-6.5
		c-2.5-1.4-4.2-3.3-4.5-6.2c0.9-1.2,2.2-1.7,3.6-1.8C65.1,4.6,73.7,4.9,82,8C82.3,8,82.7,8,83,8.1z"/>
	<path class="st14" d="M82,8c-1.7,0.1-3.3,1.5-5.2,0.4C70.2,4.8,63,6.3,56,6c-0.6-0.7-0.6-1.3,0-2c5.6,0,11.3,0.2,16.9-0.1
		C76.8,3.8,80.1,4.2,82,8z"/>
	<path class="st15" d="M56,4c0,0.7,0,1.3,0,2c-1,0.3-2,0.7-3,1c-3,2.3-6.9,1.2-10.1,2.9c-1.5,0.2-2.9,0.3-3.9-1c0.3-1,0.7-1.9,1-2.9
		C45.2,4.6,50.5,3.4,56,4z"/>
	<path class="st16" d="M81,116.1c-3.7,4.3-9.6,4.7-14,7.9c-9.2,1.7-17.7-1.7-25.9-4.5c-3.6-1.3-8.2-2.1-11.2-5.4c-0.7-1-1.3-2-2-3
		c0.8-0.9,1.9-1,3-1c5.2,0.3,9.7,2.9,14.6,4.3c9.3,2.9,18.9,6.3,28.7,1c0.9-0.5,1.9-0.6,2.9-0.7C78.6,114.7,80,114.8,81,116.1z"/>
	<path class="st17" d="M31,111.1c-1,0-2,0-3,0c-2.5-2.5-5.6-4.3-8.5-6.3c-3.8-2.6-4.5-7.5-7.5-10.7c0-0.7,0-1.3,0-2
		c0.7-0.9,1.7-1,2.7-0.9c1.7,0.4,2.6,1.7,3,3.1c1.1,3.8,4,4.9,7.5,5.4c2,2.2,4.3,4,7.4,4.8c1.6,0.4,3.2,1,3.9,2.8
		C36.2,110.6,34.1,111.6,31,111.1z"/>
	<path class="st18" d="M39,8.9c1.3,0,2.7,0,4,0c2.5-0.2,4.2,1,5.3,3.2c-0.2,2.1-1.5,3.1-3.3,3.7c-5.6-0.4-10.2,2.4-14.9,5
		c-1.3,0-2.4-0.5-3.2-1.5C26.1,17,28,16,29.2,14.6c0.9-0.9,1.9-1.7,2.8-2.6C34.9,12.2,36.7,10,39,8.9z"/>
	<path class="st19" d="M32,12c0,1.5-0.1,2.9-2.1,3c-3,1.1-3.8,5.7-8,4.9c-0.1-1.7,1.4-2.6,2-4C26.7,14.7,28.6,11.8,32,12z"/>
	<path class="st20" d="M22,20c2.9-1.3,4.7-4.3,8-4.9c-1,1.3-2,2.7-3,4c-1.3,3.5-4.5,5.5-6.6,8.4c-1.7,2.5-4.1,4.4-5.3,7.4
		c-0.5,1.2-1.5,2.2-3.1,1.2c-0.4,0-0.7,0-1.1-0.1c0-3.1,3.4-4.8,3-8C17.3,26,18.9,22.2,22,20z"/>
	<path class="st21" d="M114,79c-0.2,3.5-3.8,4.8-5.2,7.6c-2,4-2.4,8.6-4.8,12.4c-0.1,0.2-0.2,0.5-0.3,0.7c-1.7,1.8-3.9,2.8-5.9,4.1
		c-2.2,1.4-4.6,1.7-6.4-0.8c-0.8-2.1-1.3-4.3-1-6.6c3.4-3.9,6.1-8.4,9.3-12.4c4.4,2.1,4.2-2.7,6.2-4.2C108.6,79.7,111.2,78.9,114,79
		z"/>
	<path class="st22" d="M81,116.1c-1.3,0-2.7,0-4,0c-0.7-2,0.7-3.3,1.9-4.6c2.7-1.8,5.9-2.3,8.9-3.3c4.4,1.2,7.9,0.4,10.3-4
		c1.3-2.3,4.6-2.6,6-5.1c0,0,0,0,0,0c0.7,0,1.3,0,2,0c0.1,1.8-0.1,3.4-1,5c-2,0.9-3.4,2.6-5.1,3.8C94.3,112.1,89,117.4,81,116.1z"/>
	<path class="st23" d="M104,33c5.8,3.3,9,8,8,15c0.4,0.4,0.4,0.8,0,1.3c-1.5,0.2-2.2-0.7-2.9-1.8c-0.6-1.6-1.8-2-3.4-1.8
		c-1.2,0.2-2.6,0.2-3.4-1c-1.5-3.2-2.1-6.4-1.3-9.9c0.3-0.8,0.8-1.4,1.5-1.9C103,32.6,103.5,32.6,104,33z"/>
	<path class="st24" d="M114,79c-2.4,2-5,2.8-7.9,1c-1.4-0.6-2.1-1.8-2.4-3.3c0-1.2,0.6-2.3,1.5-2.9c2.8-2.1,3.9-4.8,3.8-8.2
		c1-0.9,2.1-1.3,3.4-0.7c1.5,1.8,3.3,3.4,1.7,6.1C113.3,73.7,115.6,76.3,114,79z"/>
	<path class="st25" d="M114,71c0.6-2.4-2.6-3.6-2-6c-1.9-1.8-0.9-4.4-1.8-6.4c-0.4-1.4-0.8-2.9-0.7-4.4c0.6-1.8,1-3.7,2.5-5.1
		c0-0.4,0.1-0.8,0.1-1.1c1.7,4.1,5,7.8,2.3,12.7c-0.5,1,0.2,1.8,0.9,2.6C118,66.2,117,68.8,114,71z"/>
	<path class="st26" d="M104,33c-0.3,0-0.7,0-1,0c-2-2.3-3.4-4.8-2-7.9c5.7,3.4,11.5,6.7,13,14c-2-0.9-3.4-2-4.5-4.2
		C108.7,33,107.3,29,104,33z"/>
	<path class="st27" d="M101,25c0.7,2.6,1.3,5.3,2,7.9c-0.3,0.3-0.7,0.7-1,1c-1.9,0.8-3.2-0.5-4.6-1.4c-2.6-3.7-5.4-7.2-8.1-10.8
		c-0.2-1-0.1-2,0.7-2.7c2.4-2.1,3.9,1.2,6,1c0.7,0,1.3,0,2,0C98.3,22.1,99,23.9,101,25z"/>
	<path class="st28" d="M15,92c-1,0-2,0-3,0c-5.4-9.7-7-20.1-6-31c0.6-0.3,1.3-0.7,1.9-1c0.2,0.2,0.4,0.4,0.6,0.5
		c1.6,3.3,0.3,6.9,1,10.2c1.3,6.5,0.7,13.6,5.7,18.9C15.6,90.5,15.6,91.3,15,92z"/>
	<path class="st29" d="M12.1,36.1c1.6-0.2,2.1-1.4,2.6-2.6C17.1,27.2,21.9,23,27,19c1,0.3,2,0.7,3,1c0.5,0.6,0.7,1.3,0.5,2
		c-1.7,2.9-4.3,5.1-6.1,8c-7.7,6.4-10,15.6-12.5,24.7c-1.2,1.9,0.5,5.9-3.9,5.4c0,0-0.1,0-0.1,0C7.3,51.7,11.3,44.1,12.1,36.1z"/>
	<path class="st30" d="M90,19c0,1,0,2,0,3c-1.2,1.3-2.8,1.1-4.1,0.5c-3.5-1.7-6.9-1.2-10.4-0.3c-6.2-0.4-12.2-1.4-18.1-3.4
		c-1.7-1.3-1.9-3.1-1.9-5.1c0.2-0.9,0.8-1.3,1.5-1.7c9.3-0.3,18.6-0.1,27.4,3.9C86.3,16.8,88.1,17.9,90,19z"/>
	<path class="st31" d="M57,12c-0.3,0.3-0.7,0.7-1,1c-2.8,1-5.5,0.9-8-1c-1.6-1-3.3-2-4.9-3c2.8-3.1,6.6-1.6,10-1.9
		C54.9,8.3,55.9,10.2,57,12z"/>
	<path class="st32" d="M79,112c0.1,1.7-1.4,2.6-2,4c-7.4,4.8-15.1,3.5-23.2,2.2c-4-0.6-7.9-1.3-11.2-3.5c-3.6-2.4-7.8-2.2-11.6-3.7
		c2.5-0.3,4.1-1.7,4.9-4c0.4-1.2,1.3-1.6,2.5-1.7c6.3,1.9,13.1,1.5,19,5.1c4.3,2.6,9.1,0,13.7-0.1c2,0,3.9-0.8,5.9-0.4
		C78.1,110.2,79.2,110.5,79,112z"/>
	<path class="st33" d="M15,92c0-0.7,0-1.3,0-2c-1-1.1-1.2-2.4-0.6-3.8c0.8-1.2,2-1.7,3.4-1.6c1.3,0.4,2.2,1.5,2.7,2.7
		c1.5,3.8,4.4,5.5,8.2,6c1.9,1.2,2.6,2.9,2.1,5c-1.3,2.6-3.2,3.4-5.8,1.7C17.6,102.4,17.7,95.4,15,92z"/>
	<path class="st34" d="M25,100.1c1.9-0.1,4,0.3,5-2.1c0.8-0.7,1.8-0.9,2.9-0.7c2.7,1.2,4.9,2.9,5.9,5.8c0.2,1.1,0.1,2.1-0.7,2.9
		c-0.7,0.3-1.4,0.7-2,1c-2.6-0.9-5.4-1.5-7.9-2.7C26.5,103.5,25.1,102.1,25,100.1z"/>
	<path class="st35" d="M30,22c0-0.7,0-1.3,0-2c4.4-3.5,9-6.4,15-5c1.4,0.6,2,1.7,2.3,3.2c0.2,2.1,0.3,4.2-0.5,6.2
		c-1.1,1.7-2.7,1.5-3.8,0.4c-3.1-2.9-6-2.8-9.2-0.3c-0.5,0.4-1.3,0.3-1.9,0.2C30.6,24.3,29.5,23.6,30,22z"/>
	<path class="st36" d="M46,18c-0.3-1-0.7-2-1-3c1.3-0.7,2.3-1.7,3-3c2.7,0.1,5.5-0.5,8,1c0.9,1.5,1.1,3.2,1,5
		c0.5,1.6-0.6,2.1-1.8,2.5C52.1,19.8,48.6,20.7,46,18z"/>
	<path class="st37" d="M103,45c2.4,0.2,6.1-3.8,6.9,2c-1.9,1.6-1.4,4-2,6c-0.4,1.2-1.4,1.8-2.5,2.3c-2.3,1.2-3.2,3.4-2.3,5.4
		c3,6.6,0.1,12.5-1.5,18.6c-0.2,0.6-0.2,1.3-0.3,2c-0.1,1.1-0.5,2-1.4,2.7c-2.1,4.7-4.1,9.4-9,12c-0.5,0.3-1,0.3-1.5-0.2
		c-0.8-1.2-0.9-2.6-0.7-4c2.2-8.4,4.2-16.8,6.6-25.1c1.1-3.7,1.6-7.5,1.3-11.4c-0.1-2,0.3-4,1.2-5.8C99.1,47.5,100.4,45.6,103,45z"
		/>
	<path class="st38" d="M90,96c0.4,0,0.7,0,1.1,0c0.5,2.3,1.3,4.6,1,7c0.5,3.2-1.8,4.6-4,6c-2.7,1.7-5.9,2.2-9,3c-0.5-0.8-1.2-1-2-1
		c-0.8-2.1,0.6-3.7,1.4-5.3C82.3,102.5,85,97.9,90,96z"/>
	<path class="st39" d="M88,109c1.3-2,2.7-4,4-6c2.1,1.4,4.1,1,5.7-0.5c1.8-1.7,4-2.6,6.2-3.5c-1.7,4.9-6.8,7.1-9.6,11.3
		C93.5,111.8,90.3,109.1,88,109z"/>
	<path class="st40" d="M100,84c0-1,0-2,0-3c1.4-1.3,2.2-3.2,4-4c1.3,0.6,2,1.6,2,3c0,1.3-0.5,2.5-1.1,3.7
		C103.4,86.9,101.8,87,100,84z"/>
	<path class="st41" d="M103,45c-1,1.7-2.3,3-4,4c-0.2-0.1-0.4-0.3-0.6-0.4c-2.5-4.7-4.5-9.7-5.6-15c1.3-2.1,2.9-3.2,5.3-1.7
		c1.3,0.7,2.7,1.3,4,2C101.4,37.8,103,41.3,103,45z"/>
	<path class="st42" d="M107.1,51.9c0.6-1.8-2-5.5,2.8-4.9c0.7,0.7,1.3,1.4,2,2.1c0.3,2,0.3,3.9-1.9,5
		C108,54.7,107.8,52.9,107.1,51.9z"/>
	<path class="st43" d="M107.1,51.9c1,0.7,1.9,1.4,2.9,2.2c0.7,1.2,1.2,2.5,1,4c-3.1,2.1-2.7,5-1.9,8.1c1.8,2.5,2.3,4.6-1,6.6
		c-1.6,0.9-2.7,2.8-4,4.3c-0.3,2.4-1.6,3.7-4,4c1.7-4.4,1.2-9.3,3.5-13.5c0.5-1,0.2-1.8-0.3-2.7c-3.2-6.9-2.9-7.7,3.4-11.5
		C106.9,53,106.9,52.3,107.1,51.9z"/>
	<path class="st44" d="M109,66.1c-3.5-4.1-2.9-6.9,1.9-8.1c1.9,2.1,0.8,4.6,1,7C111,65.4,110,65.7,109,66.1z"/>
	<path class="st45" d="M111.7,73.6c0.3,2,1.1,3.7-0.5,4.9c-0.7,0.6-1.6-0.2-1.9-1C108.6,75.6,109.6,74.5,111.7,73.6z"/>
	<path class="st46" d="M98,32c-2.1-0.4-3.4,1.1-5,2c-3.4,0.8-5.5-1.5-7.6-3.4c-2.1-1.8-4-3.9-6.6-5c-1.5-1.2-3.5-2.2-2.8-4.7
		c5-4,9.3,1.1,14,1C94,24.3,95.8,28.2,98,32z"/>
	<path class="st47" d="M15,86c0,1.3,0,2.7,0,4c-3.6-0.5-4.3-3.7-4.7-6.2C8.8,76,7,68.1,8,60c3.6-0.7,0.7-4.6,2.9-6
		c1.1,0.9,1.5,2.2,1.4,3.6C12.2,67.1,12.2,76.7,15,86z"/>
	<path class="st48" d="M15,86c-2.5-3.8-4.1-7.8-4-12.5c0.1-6.5,0-13,0-19.5c0.5-4.8,3.3-9,4.3-13.2C16.7,35,20.4,32.4,24,29
		c1.2,1,1.3,2.4,1.3,3.9c-0.1,1.2-0.5,2.3-1.1,3.3c-9.1,14.4-10.8,29.8-6.4,46c0.2,0.5,0.4,1,0.5,1.5c0.1,0.5,0,1-0.3,1.4
		C17,85.4,16,85.7,15,86z"/>
	<path class="st49" d="M24,33c0-1.3,0-2.7,0-4c1.3-3,3.3-5.3,6-7c0.7,0.7,1.3,1.4,2,2c1.8,2.4,0,4.2-1.2,6c-0.9,1.2-2.2,1.9-3.5,2.6
		C26.3,33.2,25.2,33.7,24,33z"/>
	<path class="st50" d="M76,21c1,1.3,2,2.7,3,4c-0.8,2.9-3,4.6-5.5,5.9c-5.8-1.4-12,1.2-17.7-1.6c-0.8-0.8-1.1-1.9-1.3-2.9
		C53.8,24.2,53.1,22,55,20c0.7-0.7,1.3-1.4,2-2C63.3,19,69.7,20,76,21z"/>
	<path class="st51" d="M79,106c-0.7,1.7-1.3,3.3-2,5c-2.9,0.3-5.9,0.3-8.7,1.1c-6.4,1.8-11.5-0.3-17.3-3c-3.7-1.7-8.8-1-12.9-3.1
		c0-1,0-2,0-3c0.5-2.2,2.2-2.9,4.2-3.2c6.4,1,13.1,0,19.1,3.4c3.1,2.4,6.5,2.6,10.2,1.3C74.1,103.5,77,103.2,79,106z"/>
	<path class="st52" d="M18,85.1c0-0.4,0-0.7,0-1.1c1.7-1.7,4.2-2.2,5.8-4.1c6.8-4.2,8.6-4,11.9,0.9c0.7,2.4,0.1,4.6-0.8,6.8
		c-1.7,2.8-4.1,4.8-7,6.3C20.9,95.2,20.5,89,18,85.1z"/>
	<path class="st53" d="M28,94c1.2-2.8,3.9-4.1,6-6c1.6,1.4,2,3.4,2.7,5.2C36.6,95.7,36.3,98,33,98c-1,0-2,0-3,0
		C30.1,96.3,29.7,94.8,28,94z"/>
	<path class="st54" d="M33,98c2-1.1,2.7-3,3-5c0.6-1.6,1.9-2,3.3-2.1c2.3,0,3.9,1,4.7,3.2c0.5,2.7,0.8,5.3-2,7c-1.7-0.1-2.6,1.4-4,2
		C36.3,101.3,34.7,99.7,33,98z"/>
	<path class="st55" d="M30,30c0.1-2.2,2.6-3.6,2-6c0.7-0.3,1.7-0.3,2.2-0.9c3.2-3.9,6-2.7,8.8,0.4c0.8,0.9,1.7,1.5,2.9,1.5
		c0.7,0.5,1,1.2,1.1,2.1c0.1,0.8,0,1.6-0.2,2.4c-1,2.7,0.2,6-2.7,8.1c-5,1.5-8.4-2.6-12.7-3.4C30.1,33.1,28.8,32,30,30z"/>
	<path class="st56" d="M46,27c0-0.7-0.1-1.4-0.1-2c0-2.3,0-4.6,0.1-6.9c2.9,1.1,6.4-0.6,9,2c0,2.1-0.1,4.1,0.9,6
		C53.5,30.3,50.6,30.6,46,27z"/>
	<path class="st57" d="M79,106c-3-1-5.8-1.2-8.9,0.3c-3.3,1.6-6.7,1-9.1-2.3c-1.1-1.5-1.3-2.9,0.2-4.2c9.2-1,17.4-4.3,24.4-10.4
		c2-0.1,3.3,1,4.4,2.6c0,1.3,0,2.7,0,4C86.8,99.9,83.2,103.3,79,106z"/>
	<path class="st58" d="M90,92c-1.7,0.1-2.6-1.4-4-2c-1.6-3.5,1.4-6.7,0.6-10.2c0.2-0.6-0.3,0,0.1-0.5c5.7-7.3,3.9-15.9,4-24.1
		c0.6-2.9,1.9-5.3,4.4-6.9c1.4-0.6,2.8-0.4,4,0.6c0,0,0,0,0,0C98.6,63.9,94.1,77.9,90,92z"/>
	<path class="st59" d="M99,49c-1.3,0-2.7,0-4,0c-3.2,0.5-4.4-2.1-5.5-4.2c-3.3-6.1-7.8-10.8-14.5-13c-0.6-0.5-0.9-1.1-1-1.9
		c1.3-2,3-3.7,5-5c2.2-0.3,3.7,1,5,2.5c2.5,2.9,5.5,5.1,9,6.5C96.3,38.5,97.4,43.8,99,49z"/>
	<path class="st60" d="M109.3,64.3c-1.2-0.4-1.3-1.3-1.3-2.4c0-1.1,0.5-2,1.8-1.7c1,0.2,1.1,1.1,1.1,1.9
		C110.9,63.2,110.6,64.2,109.3,64.3z"/>
	<path class="st61" d="M24,33c1-0.3,2-0.7,3-1c2,4-1.5,7-2,10.6c-4.6,7.6-5.7,15.8-4.6,24.5c0.2,2,0,4,0.1,6
		c-0.7,3.8-0.5,7.9-3.5,10.9c-3-9.5-3.5-18.8-1.7-28.9C16.8,46.8,20.4,40.1,24,33z"/>
	<path class="st62" d="M16.9,83.9c0.7-3.6,1.4-7.3,2-10.9c0.9-1.2,0.6-3.1,2.3-3.8c1.5-0.5,3.1-1.4,4.4,0.4c0.7,4,0.3,7.8-1.7,11.4
		c-1.2,2.6-3.3,3.3-6,3C17.7,84,17.3,84,16.9,83.9z"/>
	<path class="st63" d="M24,42c1-3.3,2-6.7,3-10c1-0.7,2-1.3,3-2c0,1.4,0.7,2.4,2,3c1.5,2.3,0.7,4.6-0.4,6.8
		c-1.2,1.5-3.1,1.6-4.8,2.3C25.9,42.3,24.9,42.6,24,42z"/>
	<path class="st64" d="M74,30c0.3,0.3,0.7,0.7,1,1c2.3,4.1,0.1,8.4,0.6,12.6c-2,3.4-5.1,3.3-8.2,2.3c-3-0.9-6.1-1.3-9.2-1.6
		c-3-2.5,0.4-7-3-9.4c-0.3-0.7-0.5-1.5-0.5-2.3c0-1.4,0.1-2.7,1.4-3.7C62.1,29.2,68.1,28.3,74,30z"/>
	<path class="st65" d="M56.1,29c0,1.3-0.1,2.7-0.1,4c-1.9,2.6-4.2,4.8-6.2,7.3c-0.5,0-1-0.2-1.3-0.5c-1.9-3.3-3.6-6.7-2.5-10.8
		c0-0.7,0.1-1.3,0.1-2c3.4,0.7,6.9,2.6,9.9-1C56,27,56,28,56.1,29z"/>
	<path class="st66" d="M62,100c-1.4,1.1-0.9,2.6-1,4c-6.1-2.4-12.7-1.7-19-3c1.3-2.2,0.9-4.6,1-7c0.4-1.4,0.6-3.1,2.5-3.5
		c5.9,0.8,12.1,0.6,16.5,5.8C62.5,97.5,63,98.7,62,100z"/>
	<path class="st67" d="M31,40c0.3-2.3,0.7-4.7,1-7c4.4,0.2,7.5,4.1,12,4c2.4,2.7,1.7,5.9,1.2,8.8c-0.5,2.6-0.8,5.1-0.8,7.7
		C43.9,60,42,66.1,41,72.4c-2.4,2.6-1.7,7.4-6,8.6c-3.7-5.7-7.3-1.4-11,0c-0.6-4.1,0.8-8,1-12c0-0.8,0.2-1.6,0.5-2.4
		c3.9-7.6,6-15.6,4.9-24.3C30.3,41.6,30.6,40.7,31,40z"/>
	<path class="st68" d="M35,81c2.6-2.1,1.6-6.4,5-8c1.2,2.7,1,5.8,2.2,8.5c0.1,3.8,0.5,7.8-3.2,10.4c-1,0.3-2,0.7-3,1
		c-2.3-1-2-3.1-2-5C34.3,85.7,34.6,83.3,35,81z"/>
	<path class="st69" d="M39,92c1.4-3.5,2.2-7.1,2-11c0.4-1,1.1-1.6,2.3-1.6c1.8,0.3,3.3,1.2,4.3,2.7c0.6,1.2,0.7,2.4,0.5,3.7
		c-0.5,2-1.2,3.9-3.1,5.1c-0.7,1-1.3,2-2,3C42.2,92.2,40.7,91.9,39,92z"/>
	<path class="st70" d="M43,54c-0.3-5.7,1.7-11.3,1-17c1.9-2.4-0.1-5.7,2-8c-0.7,4.1,3.2,7,3,11C49.3,45.7,47.4,50.3,43,54z"/>
	<path class="st71" d="M62,100c-0.3-1-0.7-2-1-3c0.5-3,1.4-5.8,4.9-6.7c1.4-0.2,2.9,0.5,4.2-0.8c4.5-4.5,11.4-5.1,16.1-9.4
		c0.5-0.4,1.2-0.5,1.8-0.1c0.6,3.6-1,6.7-2,10c-5.1,6.5-12.5,8.5-19.9,10.5C64.6,100.9,63.2,101.4,62,100z"/>
	<path class="st72" d="M88,80c-4.9,5.7-13.3,5.8-18.3,11.5c-1,1.2-2.5,0-3.7-0.5c-0.6-0.6-0.6-1.3-0.3-2.1
		c9.6-4,13.6-11.5,15.1-21.5c1.1-7.1,2.1-13.7-1.2-20.3c-0.4-0.9-0.5-1.9,0-2.9c7.9,1.2,11.1,4,12.3,10.8c0.2,4.3-0.3,8.5,0.9,12.7
		c0.8,2.7-0.3,5.2-2.3,7.2C89.1,76.4,87.7,77.7,88,80z"/>
	<path class="st73" d="M92,55c-1.4-1.1-1.9-2.7-2.1-4.4c-0.2-1.3-1-2.8-2.1-2.3c-4.5,1.8-5.4-2.6-7.9-4.3c-0.8,0.9-1.8,1.4-3,1.5
		c-1-0.1-1.7-0.5-2-1.5c-2.2-4.3,0.2-8.6,0-13c6.9,1.3,11.3,5.6,14.5,11.7c1.3,2.4,2.8,4.9,5.5,6.3C94.4,51.2,92.2,52.6,92,55z"/>
	<path class="st74" d="M24,42c0.7-0.3,1.3-0.7,2-1c2.2,5.5,0.4,11-0.1,16.4C25.5,62,24.7,66.7,21,70c-0.7,1-1.3,2-2,3
		c0.8-5.6-1.1-11-0.3-16.8C19.5,51,21,46.3,24,42z"/>
	<path class="st75" d="M21,70c4.2-9.2,3.7-19.3,5-29c1.5-0.9,3.2-1.1,5-1c2.9,10.7,0.5,20.3-6,29C23.7,69.7,22.4,70.2,21,70z"/>
	<path class="st76" d="M75,44c0.7,0.3,1.3,0.7,2,1c0.4,0.8,0.5,1.7,0,2.4C72,54.2,73.1,62,73,69.7c0,0.7,0.3,0,0,0.5
		c-3.4,5.3-3.9,11.6-6.3,17.2c-6.1-1.2-11-4.5-15.5-8.7c-1-3.4-1.2-7,0.1-10.2c2.5-5.9,2.6-12.1,3.3-18.3c0.3-2.5,0.9-4.9,3.4-6.1
		c2.9-1.9,5.8-0.8,8.5,0.4C69.5,45.6,72.2,45.6,75,44z"/>
	<path class="st77" d="M47,82c-1.7,0.1-2.6-1.4-4-2c-1-1.1-1-2.5-0.6-3.8C46,64.4,45.4,51.7,50,40c-0.1-4.1,3-5.5,6-7
		c0,0.7,0,1.3,0.1,2c0.5,0.7,1,1.5,0.8,2.3c-2,9.2-1.6,18.9-6.1,27.4c-1.7,3.2-2.3,6.5-1.6,10.1C49.6,77.5,49.7,80.2,47,82z"/>
	<path class="st78" d="M47,82c0.8-2.9,1.5-5.7,0.3-8.7c-0.8-2-0.6-4.4,0.7-6.2c5.3-7.7,4.7-17.1,6.9-25.6c0.5-2.1,0.7-4.2,1.1-6.3
		c4.8,2.1,1.1,6,2,9c-2.1,5.2-3.2,10.6-2.5,16.3c0.1,0.9-0.2,2-0.6,2.8c-3,5-3.2,10.4-2.9,15.9c0.7,4-1.5,5.9-5,7
		C47,84.7,47,83.3,47,82z"/>
	<path class="st79" d="M50,40c0.9,5.7-1.9,10.9-2.4,16.5C47,64.4,44.6,72.2,43,80c-0.7,0.3-1.3,0.7-2,1c-1.7-2.5-2.3-5.1-1-8
		c-0.4-6.6,2.4-12.6,3-19c2-4.7,4-9.3,6-14C49.3,40,49.6,40,50,40z"/>
	<path class="st80" d="M47,86c1.5-2.5,4.5-3.8,5-7c5,2.1,9.5,5,14,8c0.6,0.7,0.6,1.4,0,2c0,0.7,0,1.3,0,2c-2.8,1.1-3,4.3-5,6
		c-2.7-4.6-8-2.9-11.8-4.8C48,91.6,46.3,91.8,45,91C45.7,89.3,46.3,87.7,47,86z"/>
	<path class="st81" d="M66,89c0-0.7,0-1.4,0-2c1.6-1.5,1-3.4,0.9-5.2c0-2.4,0.3-4.9,1.7-6.6c2.2-2.8,4.9-5.2,1.7-8.9
		c4-5.6-1.5-13.8,5.2-18.7c0.7-0.5,0.9-1.7,1.4-2.6c0.7-1.2,1.9-1,3-1c0,0.2,0,0.4,0.1,0.5c5,8.4,3.4,17,1.8,26
		c-1,5.4-3.4,9.9-6.6,14.1C72.9,87.6,69.6,88.7,66,89z"/>
</g>
</svg>
