<svg version="1.1" id="jupiter" xmlns="http://www.w3.org/2000/svg" xmlns:xlink="http://www.w3.org/1999/xlink" x="0px" y="0px"
	 viewBox="-118.9 136.6 137.1 129.3" style="enable-background:new -118.9 136.6 137.1 129.3;" xml:space="preserve">
<style type="text/css">
	.st0{fill:#634E36;}
	.st1{fill:#6D3919;}
	.st2{fill:#684D3A;}
	.st3{fill:#564537;}
	.st4{fill:#7F6354;}
	.st5{fill:#483222;}
	.st6{fill:#866B4F;}
	.st7{fill:#775B43;}
	.st8{fill:#5C5649;}
	.st9{fill:#A07A53;}
	.st10{fill:#633C23;}
	.st11{fill:#6D5949;}
	.st12{fill:#878471;}
	.st13{fill:#513F2C;}
	.st14{fill:#715139;}
	.st15{fill:#8E6747;}
	.st16{fill:#675148;}
	.st17{fill:#A37342;}
	.st18{fill:#64341D;}
	.st19{fill:#825E3A;}
	.st20{fill:#856850;}
	.st21{fill:#5E4835;}
	.st22{fill:#8F816F;}
	.st23{fill:#936F50;}
	.st24{fill:#876544;}
	.st25{fill:#8E6B41;}
	.st26{fill:#87725C;}
	.st27{fill:#633C1B;}
	.st28{fill:#82624A;}
	.st29{fill:#BB783F;}
	.st30{fill:#A85F29;}
	.st31{fill:#A56A39;}
	.st32{fill:#985F31;}
	.st33{fill:#8B5C2D;}
	.st34{fill:#705938;}
	.st35{fill:#7A4D2C;}
	.st36{fill:#CA8858;}
	.st37{fill:#F3BC80;}
	.st38{fill:#967251;}
	.st39{fill:#806049;}
	.st40{fill:#73583B;}
	.st41{fill:#8F674C;}
	.st42{fill:#67482B;}
	.st43{fill:#A8805B;}
	.st44{fill:#A08D67;}
	.st45{fill:#A87B56;}
	.st46{fill:#946741;}
	.st47{fill:#7C735C;}
	.st48{fill:#84441F;}
	.st49{fill:#E6A96D;}
	.st50{fill:#A7682E;}
	.st51{fill:#CEAC76;}
	.st52{fill:#EEB88C;}
	.st53{fill:#C29262;}
	.st54{fill:#793C1A;}
	.st55{fill:#91582B;}
	.st56{fill:#A89E85;}
	.st57{fill:#C38F61;}
	.st58{fill:#AE9578;}
	.st59{fill:#D1945A;}
	.st60{fill:#C0B398;}
	.st61{fill:#5E3424;}
	.st62{fill:#974C24;}
	.st63{fill:#A5774C;}
	.st64{fill:#B08660;}
	.st65{fill:#AB835D;}
	.st66{fill:#997759;}
	.st67{fill:#884A20;}
	.st68{fill:#AF7A50;}
	.st69{fill:#A38771;}
	.st70{fill:#DB9D54;}
	.st71{fill:#BE7A31;}
	.st72{fill:#DBA360;}
	.st73{fill:#D7AC74;}
	.st74{fill:#BA9363;}
	.st75{fill:#B15627;}
	.st76{fill:#EFA961;}
	.st77{fill:#C37540;}
	.st78{fill:#F7C683;}
	.st79{fill:#C26E33;}
	.st80{fill:#9B7448;}
	.st81{fill:#AA612D;}
	.st82{fill:#935F31;}
	.st83{fill:#98734C;}
	.st84{fill:#AF8A63;}
	.st85{fill:#A27153;}
	.st86{fill:#C29367;}
	.st87{fill:#CFA16E;}
	.st88{fill:#C09F75;}
	.st89{fill:#95886F;}
	.st90{fill:#A27A4F;}
	.st91{fill:#A8542B;}
	.st92{fill:#BB7A5A;}
	.st93{fill:#D78541;}
	.st94{fill:#EFBD7C;}
	.st95{fill:#F7CB8E;}
	.st96{fill:#C97E3D;}
	.st97{fill:#C88957;}
	.st98{fill:#E3BA89;}
	.st99{fill:#D4B48E;}
	.st100{fill:#D69D6D;}
	.st101{fill:#B15928;}
	.st102{fill:#EBAB6A;}
	.st103{fill:#DAC092;}
	.st104{fill:#D2C4A9;}
	.st105{fill:#AB6D3B;}
	.st106{fill:#D7864C;}
	.st107{fill:#CC7439;}
	.st108{fill:#BD692C;}
	.st109{fill:#CA7E49;}
	.st110{fill:#C79164;}
	.st111{fill:#B98355;}
	.st112{fill:#926337;}
	.st113{fill:#CA996D;}
	.st114{fill:#B78051;}
	.st115{fill:#B69B7E;}
	.st116{fill:#9F4924;}
	.st117{fill:#D7AE82;}
	.st118{fill:#CB7D40;}
	.st119{fill:#F6DDA8;}
	.st120{fill:#D98E3F;}
	.st121{fill:#F0B470;}
	.st122{fill:#EECF98;}
	.st123{fill:#F7D191;}
	.st124{fill:#C6732C;}
	.st125{fill:#EFBA85;}
	.st126{fill:#CD9761;}
	.st127{fill:#F9C07B;}
	.st128{fill:#C3672B;}
	.st129{fill:#D57C3E;}
	.st130{fill:#DC753C;}
	.st131{fill:#D57B34;}
	.st132{fill:#B1936B;}
	.st133{fill:#BA8557;}
	.st134{fill:#C8B089;}
	.st135{fill:#C99E71;}
	.st136{fill:#AB997F;}
	.st137{fill:#BC672C;}
	.st138{fill:#D78A57;}
	.st139{fill:#F1B17C;}
	.st140{fill:#F9E1AB;}
	.st141{fill:#DC8F48;}
	.st142{fill:#B97A47;}
	.st143{fill:#EED09B;}
	.st144{fill:#E5D4B7;}
	.st145{fill:#CBBEA3;}
	.st146{fill:#E4D4B9;}
	.st147{fill:#F2CBA2;}
	.st148{fill:#BC6C31;}
	.st149{fill:#BB7736;}
	.st150{fill:#E5BE91;}
	.st151{fill:#E39153;}
	.st152{fill:#E3B17A;}
	.st153{fill:#DE8B47;}
	.st154{fill:#B8A890;}
	.st155{fill:#ADA58F;}
	.st156{fill:#F3E7C7;}
	.st157{fill:#DDD1BC;}
</style>
<g>
	<path class="st0" d="M-55,264.8c-10.4-0.3-20.1-2.1-29.3-7.8c-6.8-4.2-13.5-8.3-19.1-14.1c-1.1-1.2-2.7-2.1-2.7-4
		c-1-1.5-0.8-2.9,0.4-4.2c1.3-1.1,2.7-2.2,4.5-2.2c1.5,0.7,1.6,1.9,0.8,3.2c-0.7,1.1-0.6,2.1,0.1,3.2c2.1,3,4.1,6.2,7.6,7.8
		c1.8,2.9,5.2,2.5,7.9,3.6c2.2,1.5,4.5,1.9,7,1.3c2.2-0.5,3.8,0.1,3.8,2.4c-0.1,3.6,2.1,4.2,4.9,4.9c2.9,0.6,5.7,1.7,8.6,2.1
		C-58.6,262.1-54.5,260.3-55,264.8z"/>
	<path class="st1" d="M-113,220.8c0-0.6,0-1.3,0-1.9c-2.3-2.2-1.4-4.8-1-7.3c0.4-0.2,0.9-0.4,1.4-0.3c2.8,0.8,3,3.5,3.8,5.6
		c0.6,1.7,0.9-0.5,1.4-0.1c6.8-1,13.6-0.2,20.3-0.2c0.6,0.1,1.1,0.2,1.7,0.4c0.5,0.2,1,0.6,1.4,1c2.2,4,2.2,4-3.2,5.9
		c-2.7,0.5-5.4,0.4-8.1,0.2c-3.6-0.8-6.9,1.4-10.5,1.1c-1,0-2-0.2-2.9-0.6C-110.2,223.3-112.3,222.8-113,220.8z"/>
	<path class="st2" d="M-55,264.8c-0.7-3.7-4.6-0.7-6-3c2.1-4.3,6-2.5,8.9-2c3.6,0.5,6.8,0.3,10-1c5.2-1.4,10.7-1.4,16-2.3
		c2.7,0.6,5.6-1.8,8.3,0.5c-5.2,3.7-11.2,5.9-17.3,6.5C-41.7,264-48.2,267.8-55,264.8z"/>
	<path class="st3" d="M-98,155.7c8.4-9,18.9-14.4,30.9-17c4.7-1,9.3-2.4,14.1-1.9c-1.2,3.9-5.5,1.6-7.6,3.7
		c-0.7,0.3-1.4,0.4-2.2,0.5c-7.1,1.1-12.8,5.5-18.9,8.7c-4.2,1.3-7.8,3.5-11.1,6.5c-1.7,1.6-3.3,4.1-6.4,2.7
		C-100.1,157.4-99,156.6-98,155.7z"/>
	<path class="st4" d="M-63,139.9c0.7,0,1.3-0.1,2-0.1c8-1.4,16-2.8,24.1-2c1.7-0.1,3.4,0.1,4.9,1c1.3,2.1,0.6,3.6-1.3,4.8
		c-8.8,1.3-17.7,0.7-26.7,0.9C-65.4,143.9-65.6,143.6-63,139.9z"/>
	<path class="st5" d="M-114,211.9c1.9,2.1,0,4.8,1,7.1c-2.5,0.1-3.3-0.8-4.2-3.5c-3-9.3-1.4-18.5,0.2-27.7c0.9,0.7,1.2,1.7,1.4,2.8
		c0.1,2.6,0.1,5.3,1.8,7.6c0.8,1.2,0.6,2.5-0.2,3.7C-117.5,205.2-114,208.5-114,211.9z"/>
	<path class="st6" d="M-12,146.8c3.6,2.4,7.4,4.4,10.1,7.9c0,1-0.2,1.9-1.2,2.4c-2.3-0.2-3.9-2.3-6.3-2.2c-3.3-1.9-6-4.5-10.3-4.7
		c-2.2-0.1-4.4-2.3-3.4-5.4C-19,142.8-15.8,146.2-12,146.8z"/>
	<path class="st7" d="M-17.8,256.9c-2.8-0.2-5.4,1.5-8.2,0.8c0.2-2.9,2.6-3.5,4.7-4c2.2-0.6,4.3-1.4,5.8-3.2
		c2.9-2.4,5.5-5.3,8.7-7.4c1-0.3,2-0.3,2.9,0.4c1.1,3.7-2.2,5.2-3.9,7.4C-10.8,253.6-14.2,255.4-17.8,256.9z"/>
	<path class="st8" d="M-117,190.8c0-1,0-2,0-3c0.9-6.6,4.2-12.2,7.1-18c1.5-0.5,2-3,4.2-1.9c0.2,0.4,0.4,0.9,0.4,1.4
		c-0.4,2.9-2.1,5.3-3.6,7.6c-2.8,4.5-2.3,9.8-4.3,14.4C-114.6,192-115.8,191.8-117,190.8z"/>
	<path class="st9" d="M16.8,185.9c0.1,0.7,0.2,1.4,0.3,2c1.2,2.5-0.3,3.8-2.2,5c-2,1.1-3.9,2.6-6.4,1.4c-0.4-0.3-0.7-0.7-0.8-1.1
		c-0.2-2,3.2-4.1-0.3-5.9c-2.7-0.7-4.6,0.9-6.7,2.1c-0.8,0.1-1.5,0-2-0.7c-0.6-1.5,0.1-2.6,1.1-3.5c2.3-1.7,4.9-1.7,7.6-1.8
		c1.8-0.1,3.6,0.2,5.3-1C15.6,181.5,15.9,184.1,16.8,185.9z"/>
	<path class="st10" d="M18,201.8c0.1,6.2-0.1,12.3-2.9,18c-2.1,0-4.5,1-6.3-1.1c0.3-3.5,3.9-5.1,4.7-8.3c0.6-2.4-1.9-4.8-0.1-7.2
		C14.8,202,16,200.5,18,201.8z"/>
	<path class="st5" d="M-113,220.8c1.3,1.1,3.8,0.4,4,3c0,1.8,0.9,3.4,1.5,5.1c0.6,1.4,2,2.1,3,3.2c1.1,1.2,0.7,2-0.5,2.8
		c-0.8,1.2-1.1,2.6-1.1,4c-3.2-4.9-6.6-9.8-8.5-15.4C-115.1,222.1-114.1,221.4-113,220.8z"/>
	<path class="st11" d="M-12,146.8c-3.8,0.1-7.4-1.2-11-2c-0.7,0.5-1.4,0.6-2.2,0.4c-2.3-1.8-5.6-0.2-7.8-2.5c0.7-1.3,1.1-2.6,1-4
		C-24.6,139.6-18.2,143.1-12,146.8z"/>
	<path class="st12" d="M-3,156.8c0.1-0.9,0.3-1.6,1.1-2.1c4.8,3.4,7.9,8.2,11.1,13c0.4,0.7,0.4,1.5,0.1,2.2
		c-5.3,1.2-6.5-3.9-9.1-6.4c-1.3-1.3-2.5-3.4-3.4-5.3C-3.5,157.7-3.4,157.2-3,156.8z"/>
	<path class="st13" d="M-106,167.8c-1.4,0.6-2.2,2.1-3.9,2c3.1-5.5,6.4-10.7,11.9-14.1c-0.3,1-0.6,2.1-0.9,3.1
		C-98.1,163.4-100.8,166.8-106,167.8z"/>
	<path class="st14" d="M11,228.8c-1.9,3-3.1,6.6-6,9c-1.2-1.1-2.4-2.1-4.3-1.8c-1.6,0.3-2.5-0.5-2.1-2.3c0.8-1.5,2.1-2.5,3.3-3.6
		c1.7-1.1,3.5-1.8,5.5-2.3C8.7,227.7,10,227.7,11,228.8z"/>
	<path class="st15" d="M-0.9,233.9c0.1,1.5,1,1.3,2,1c2.9-1.1,3.7,0.6,4,3c-1.3,1.7-2.7,3.3-4,5c-1,0.8-2.1,1.2-3.4,0.7
		c0.1-2.9-1.4-5.3-2.8-7.7C-4.1,234.4-2.9,233.1-0.9,233.9z"/>
	<path class="st16" d="M-36.9,137.7c-8.1,0.4-15.9,2.9-24.1,2c1.9-2.9,5.7-0.9,8-3C-47.6,137-42.2,135.9-36.9,137.7z"/>
	<path class="st17" d="M18,201.8c-1.7-0.1-2.6,1.4-4,2c-2,1.3-3.9,2.8-6.5,1.6c-0.4-0.3-0.8-0.7-0.6-1.2c0.4-1.2,4.1-4.2,3.9-4.1
		c-1.9,0.3-3.4-0.1-2.7-2.6c2.6-1.4,4.9,0.3,7.3,0.8c1.1,0.2,1.9,0.8,2.6,1.5C18,200.5,18,201.2,18,201.8z"/>
	<path class="st18" d="M16.8,185.9c-1.5-0.6-1.7-3-3.8-3c-3.3,1.2-4.8,0.1-3.9-3.5c0.4-1.4,0.2-2.9,0.6-4.4c0.3-0.4,0.7-0.5,1.2-0.3
		C15.8,176.9,15.5,181.8,16.8,185.9z"/>
	<path class="st19" d="M18,199.8c-1,0-2,0-3,0c-1.8-2.5-2.3-5.1-0.9-7.9c1.7-0.8,3.2-1.8,3-4C18.8,191.8,18,195.8,18,199.8z"/>
	<path class="st20" d="M10.9,174.8c-0.3,0-0.6,0-0.9,0.1c-1.9,1.8-4.2,1.4-6.5,1.3c-1.1-0.2-2.1-0.6-2.7-1.6c0-1.3,1-1.7,1.8-2.3
		c2-1.2,4.6-0.8,6.4-2.4c0.1-0.7,0.1-1.4,0.2-2.1C11.3,169.7,10.8,172.3,10.9,174.8z"/>
	<path class="st21" d="M-3,242.8c1.3,0,2.6,0,3.9-0.1c-2.6,3.1-4.9,6.5-8.9,8.1c1.3-2.3,2.7-4.7,4-7C-3.9,243.3-3.5,242.9-3,242.8z"
		/>
	<path class="st22" d="M11,228.8c-1.3,0-2.6,0.1-3.9,0.1c-0.7-3.1,1.8-4.8,3.2-7c0.9-0.7,1.6-1.7,2.7-2.1c1-0.3,1.6,0.1,1.1,1.2
		C14.1,224.1,12.3,226.3,11,228.8z"/>
	<path class="st23" d="M14.1,221.1c-1.9-1.1-1.1,2.8-3,1.7c-1.9-0.4-2.5-2.8-4.6-3c-1-1.8-1.4-3.5,1.6-3.6c0.8,0.3,1.4,0.7,1.1,1.7
		c1.6,1.9,4.5-0.1,6,1.9C14.8,220.2,14.5,220.7,14.1,221.1z"/>
	<path class="st24" d="M-42,259.8c-2.9,2.1-6,2.2-9.4,1.4c-3.1-0.7-6.5-1.3-9.6,0.6c-4.4,0.3-8.3-2-12.5-2.8
		c-4.1-0.8,0.2-4.6-2.7-6.3c-2.7,0.8-6.2,1.9-8.8-1.9c-0.2-0.2-0.3-0.5-0.3-0.8c0.1-0.3,0.1-0.4,0.2-0.4c2.2-0.2,4.3-0.5,6.5-0.9
		c4.4-0.1,8.3,2.9,12.8,2.3c2.3-0.1,4.1,1.1,5.7,2.6c-0.3,3,0.9,4.3,4,3.9c1.2-0.2,2.5-0.1,3.8-0.2c2.4,0,4.8-0.1,7.2,0.1
		C-43.6,257.8-42,257.7-42,259.8z"/>
	<path class="st25" d="M-101,238.8c-2.5-0.4-2.4-1.8-1-3.3c0.8-0.8,1.7-1.4,0.9-2.7c-0.2-0.9,0.3-1.3,1.1-1.5c1.5,0,3,0.3,4.4,1.1
		c2.8,2.7,2.5,5.1-0.8,7.1C-98,240.2-99.6,240.1-101,238.8z"/>
	<path class="st26" d="M-101,238.8c1.6,0,3.3-0.1,4.9-0.1c0.4-0.3,0.8-0.3,1.3-0.1c0.8,0.9,1.2,2,1.6,3c0.6,1.5,1.4,3,0.6,4.7
		c-0.2,0.2-0.3,0.3-0.5,0.5C-98.2,246.7-99.3,242.4-101,238.8z"/>
	<path class="st27" d="M-100,231.9c-0.3,0.3-0.7,0.7-1,1c-1.3,0.6-2.2,2.1-3.9,2c0.8-3.4-3.1-3-4-5c1.6-1.7,3.9-1.2,5.9-1.9
		c1.1-0.2,2.2-0.1,3.1,0.5C-99.1,229.6-97.5,230.8-100,231.9z"/>
	<path class="st28" d="M-85,249.8c0,0.3,0,0.7,0,1c-3.1-0.5-7.4,1.5-8-4v-0.2C-89,244.5-86.6,246.3-85,249.8z"/>
	<path class="st29" d="M-85.1,218c-0.3,0-0.6-0.1-0.9-0.3c-2.6-0.9-5.3-0.6-7.9-0.3c-4.2,0.4-5.7-1.6-5.9-5.3
		c-0.1-1.7-0.4-3.3,0.1-4.9c0.3-0.8,0.9-1.5,1.6-1.9c1.5-0.8,3.2-0.8,4.9-0.8c1.3,0.1,2.6,0.1,3.7,0.8c0.4,0.3,0.9,0.9,0.6,1.2
		c-4.6,4.4-0.2,4.2,2.5,4.9c1.3,0.9,0.8,2.5,1.5,3.6C-84.5,216-84,217.1-85.1,218z"/>
	<path class="st30" d="M-87.1,222.6c0.7-1.3,5.9-0.1,2.1-3.9c0.6-0.5,1.3-0.7,2.1-0.7c6.7,0.5,13-1.4,19.3-3.1
		c1.2-0.4,2.3-0.9,3.6-0.8c0.5,0.1,0.9,0.3,1.3,0.7c0.3,0.7,0.3,1.4,0,2.1c-1.4,1.8-3.3,2.7-5.5,3c-1.7,0.3-3.1,0.9-4,2.5
		c-0.6,0.8-1.2,1.6-2.2,2c-4.7-0.6-9.3,2.5-14.1,0.6C-85.3,224.3-86.6,223.9-87.1,222.6z"/>
	<path class="st31" d="M-99,206.8c1.1,3.1-0.5,7.3,2,9.3c2.3,1.9,6.1,0.3,9.2,0.7c0.6,0.1,1.2,0.6,1.7,0.8c-7.7,0-15.3,0-23,0.1
		c-0.3-0.7-0.3-1.5,0.2-1.8c3-2,2.6-4.6,1.7-7.4c1.6-1.1,3.5-1.6,5.2-2.4C-100.7,205.9-99.7,205.9-99,206.8z"/>
	<path class="st32" d="M-100,228.9c-1,0-2,0-3,0c-4.2,0.2-4.2-2-3-5c3.4,0.6,6.4-2.6,10-1c1.1,1.6,3.7,0.3,4.5,2.4
		c0.3,1.5-0.4,2.5-1.4,3.5C-95.2,230.3-97.6,230.7-100,228.9z"/>
	<path class="st33" d="M-107,208.9c3,2.3,5.1,4.5-0.1,6.8c-0.8,0.3-1.3,1.4-1.9,2.2c-2.7-1.1-1.1-5-4-6c-1.3-1.5-1.5-3.2-0.5-4.9
		C-110.5,204.9-108.4,205.9-107,208.9z"/>
	<path class="st34" d="M-112.9,206.8c0,1.7,0,3.3,0,5c-0.4,0-0.7,0-1.1,0.1c-2.4-3.2-5.5-6.3-1-10.1c0.4-0.3,0.8-0.4,1.3-0.1
		c0.4,0.3,0.7,0.7,0.9,1.1C-112.1,204.1-111.8,205.5-112.9,206.8z"/>
	<path class="st35" d="M-105.9,223.9c0,2.2,0.2,4.4,3,5c-1.8,1.7-4,0.7-6,1c0-1.4-0.2-2.6-1.1-3.7c-1.1-1.4-0.4-2.1,1.1-2.3
		C-108,223.8-107,223.8-105.9,223.9z"/>
	<path class="st36" d="M-92,224.9c-1-1.3-4.4,2.1-4-2c3-0.1,5.9-0.2,8.9-0.3c1.1,0.2,2.4-0.1,3.1,1.2c-1.1,2.2-3.1,1.1-4.8,1.4
		C-89.9,225.2-91,225.5-92,224.9z"/>
	<path class="st37" d="M-83,218.7c-0.7,0-1.3,0-2,0c0-0.3-0.1-0.5-0.2-0.8c-0.3-1.1-0.6-2.1-0.9-3.2c1.6-2.6,3.6-2.4,5.1-0.3
		C-79.3,216.7-80.5,218.2-83,218.7z"/>
	<path class="st38" d="M-42,259.8c-0.7-1.1-1.9-1-3-1c0.3-2.9,3.1-2.9,4.8-4c4.6-1.2,9.1-2.8,14-2c3.1,0.5,3.6-2.3,5.2-3.7
		c2.5-1.1,5.1-2.6,6.1,1.7c-0.3,2.7-2.4,3.7-4.5,3.8c-2.8,0.1-4.7,1.5-6.6,3.1C-31.3,259-36.6,259.4-42,259.8z"/>
	<path class="st39" d="M-63,139.9c-0.3,1-1.5,2-0.6,2.9c0.4,0.4,1.7,0,2.6,0c-0.8,4.8-5.3,5.1-8.5,6.7c-1.6,0.5-3,1.3-4.1,2.5
		c-1.3,0.9-2.7,1.1-4.2,1.2c-2.3-0.2-4.5,1.4-6.8,0.1c-1.5-2.9,1.3-3.3,2.7-4.5C-76.1,145-70.3,140.8-63,139.9z"/>
	<path class="st40" d="M-82,148.8c-1,1.3-2,2.7-3,4c0.3,2.3-1.9,2.3-3,3.4c-1.6,1.7-5.5,1.9-3.8,6c0.3,0.8-1.1,1.5-2,1.9
		c-2.9,1.2-5,3.8-8,4.9c-1.4,0.6-2.8,1.1-4.2-0.1c0-0.4,0-0.7,0-1.1c3.1-2.4,6.7-4.4,7-9c5.3-2,8.2-7.5,13.7-9.2
		C-84.2,149.2-83.2,148.8-82,148.8z"/>
	<path class="st41" d="M-70,148.8c3-1.9,6.8-2.8,9-6c9.3,0,18.7,0,28,0c2.6,0.8,6.1-1.9,8,2c-1.7,1.8-3.8,1.9-6.1,1.9
		c-6.9-2.1-13.4,2-20.1,1.8c-4.5-0.2-8.8,0.9-13.1,2C-66.4,151.1-68.6,151-70,148.8z"/>
	<path class="st42" d="M-114,201.8c-0.4,0-0.7,0-1.1-0.1c0.4-0.9,1.4-2,0.5-2.6c-3.1-2.2-2.3-5.3-2.4-8.3c1.3,0,2.7,0,4,0
		c0.2,0.2,0.4,0.4,0.6,0.6c1.3,2,1.7,4.3,1.6,6.6C-110.9,199.9-111.1,202-114,201.8z"/>
	<path class="st43" d="M-31,145.8c2-0.3,4-0.7,6-1c0.6,0,1.3,0,1.9,0.1c1.2,3,2.6,5.8,6.7,4.2c1.7-0.6,2.7,0.8,3.8,1.7
		c1.2,1,1.6,3,3.6,3.1c0.1,1.6-1.1,1.8-2.2,2.2c-5.9,1.1-11.8-0.9-17.6-0.2c-1.9,0.3-3.7,0.5-5.5-0.3c-3.1-4.7,2.2-3.1,3.8-4.9
		c-2.5-2-5.2-2.1-8.1-1.2c-2.1,0.7-4.3,2.2-6.5,0.2c1.8-3.7,5.2-4.4,8.9-4.4C-34.5,145.3-32.8,145.7-31,145.8z"/>
	<path class="st44" d="M-11,154.9c0.8-0.1,1.6-0.2,2-1c2.9-0.9,4.1,1.7,6,3c0,0.3,0,0.7,0,1c-0.4,1.4-1.6,1.9-2.9,2
		c-0.8,0-1.5-0.1-2.2-0.4C-9.5,158.2-11.2,157.1-11,154.9z"/>
	<path class="st45" d="M-3,242.8c-0.3,0.3-0.7,0.7-1,1c-1,0-2,0-3,0c-3,1.5-5.7,4.3-9.6,2.5c-1.7-2.2,0.5-2.8,1.6-3.7
		c1.2-0.9,2.8-0.9,4.1-1.5c1.6-0.6,4.2-0.5,3-3.8c-0.3-0.9,1.2-2.2,2.8-1.7c0.5,0.4,0.9,1,1.5,1.2C0.7,238.6,0.3,240.6-3,242.8z"/>
	<path class="st46" d="M-17,245.7c3.7,1.1,6.5-2.1,10.1-1.9c-2.2,2.9-4.7,5.4-8,6.9c-1.5-3.3-3.9-1.2-6-1c-1.5,0.3-1.6-0.8-1.8-1.8
		c0-1.5,0.5-2.9,1.6-4C-19.3,243.2-18.2,244.6-17,245.7z"/>
	<path class="st47" d="M-106,168.8c1.5,0.1,2.8-0.3,4-1.1c0.3,0.4,0.5,0.8,0.6,1.3c-2.4,3.8-2.4,8.7-5.9,12.2c-2,2-1.1,5.3-0.8,8.1
		c-0.1,0.8-0.4,1.5-1,2c-1.4,0.7-2.7,0.5-3.9-0.5l0,0C-115.1,182-109.4,175.8-106,168.8z"/>
	<path class="st48" d="M3,175c2.3,0,4.7-0.1,7-0.1c0.7,1.3,1.6,2.9,0.7,4.2c-2.5,3.4,0.1,3.5,2.3,3.9c-0.4,2.5-2.3,1.9-3.8,1.9
		c-3.1-0.1-6.3,0-9.2,1.2c-1.6,0.3-2.6-0.9-3.8-1.4c-1.2-0.9-2.1-1.9-1.5-3.6c1.9-2.1,5.7-1.4,7.1-4.4C2,175.9,2.5,175.5,3,175z"/>
	<path class="st49" d="M8,192.6c0,0.3-0.1,0.7-0.1,1c-0.1,0.2-0.3,0.4-0.4,0.6c-7.3,1-14.2,4.3-21.8,3.1c-0.5-0.2-0.8-0.5-0.9-1
		c0.8-3.6,4.7-1.8,5.7-3.3c-4.8-1.1-10.3-2.7-16-1.3c-0.8-0.2-1.5-0.6-1.7-1.4c0.8-2.9,3.3-2.7,5.5-2.9c3.6-0.3,7.2,0.5,10.7-0.6
		c1.2-0.5,2.5-0.9,3.9-0.5c1.4,1,2.6,2.3,4.4,2.8c2.2,1.2,4.6,0.1,6.8,0.4C5.8,189.7,8.8,188.9,8,192.6z"/>
	<path class="st50" d="M14.1,191.9c0.3,2.6,0.6,5.3,0.9,7.9c-2.3-0.9-4.5-2.1-7-1.9c-3.3,3.2-7.4,2.6-11.4,2.6
		c-1.6-0.2-2.5-1.2-2.1-2.7c0.5-1.8,2.3-2.4,3.9-2.4c3.3,0,6.5-0.3,9.5-1.7v-0.1C10.3,194.3,12.2,193.1,14.1,191.9z"/>
	<path class="st51" d="M8,192.6c-0.7-2.7-2.9-1.5-4.5-1.8c-2.5-0.4-5.3,1-7.6-1.1c0.5-2.1,1.8-1.7,3.2-0.9c0.6,0,1.2-0.1,1.7-0.1
		c2-2,5-1.2,7.2-2.7C12.9,188.2,10.4,190.4,8,192.6z"/>
	<path class="st52" d="M-0.9,188.8c-1.1,0.1-2.3-0.1-3.2,0.9c-2.4,0.4-3.1-0.9-3-2.9c-0.3-3.4,2.5-2.3,4.2-2.8
		c1.6-0.3,1.7,1.4,2.7,2C-0.3,186.9-0.6,187.8-0.9,188.8z"/>
	<path class="st53" d="M8.1,185.9c-1.7,2.9-4.6,2.2-7.2,2.7C2.3,185.2,5.3,185.8,8.1,185.9z"/>
	<path class="st54" d="M7,204.7c2.5,0.6,4.6-1,7-0.9c-0.6,2.5,1.9,4.5,0.9,7c-2.8,0.4-5.5,1.4-8.2,2c-1.4-1.6-3-3-5.3-3.2
		c-2-0.2-3.6-0.9-2.5-3.5C1.3,204.2,4,203.5,7,204.7z"/>
	<path class="st55" d="M7,212.8c2-3.3,4.8-3.2,7.9-1.9c-1.2,3-3.6,5-5.8,7.1c-0.4-0.4-0.7-0.9-1.1-1.3C8,215.3,5.6,214.5,7,212.8z"
		/>
	<path class="st56" d="M-6,158.9c1-0.3,2-0.7,3-1c3,3.4,6.2,6.7,8.9,10.3c1,1.3,1.8,1.7,3.1,1.7c-0.7,3.3-3.8,2.3-5.8,3.2
		c-1.8-2.2-3.4-4.4-6.1-5.9C-5.6,165.5-4.6,161.5-6,158.9z"/>
	<path class="st57" d="M-17,245.7c-1.8,0.4-2.8-0.7-3.9-1.8c-0.2,0-0.5-0.1-0.7-0.1c-2.6-1.2-5.7,0-8.3-1.5
		c-2.2-2.5,1.9-4.3,0.7-6.7c2.8-3.2,7.5-1.7,10.6-4.3c4.3,0.7,8.3-1.1,12.5-1.7c1.8-0.3,3.6-0.3,5.4-0.1c1.1,0.1,2.1,0.4,2.8,1.4
		c-0.2,1.9-1.9,2.1-3.1,3c-1.4,0.6-2.7,1.3-4.1,1.9c-0.7,1-3.3,0.6-1.5,3.3c0.8,1.3-1.2,3.7-3.6,3.6C-13,242.6-15,244-17,245.7z"/>
	<path class="st58" d="M2.1,230.9c-1.1,0-2.1-0.1-3.2-0.1c-1.2-2.4,1.2-2.6,2.2-3.6c1.6-1.6,4.6-2.3,4-5.5c-0.5-1.9-0.3-3,2-1.8
		c2.5-0.6,2.5,2.1,4,2.9c-1.3,2.1-2.7,4.1-4,6.2C5.7,230.2,3.9,230.4,2.1,230.9z"/>
	<path class="st59" d="M7,204.7c-2.5,1.4-5.6,0.4-7.9,2.2c-1.3,1.1-2.8,1.4-4.5,1.1c-0.5-0.1-0.9-0.3-1.3-0.6
		c-0.3-4.3,3.8-3.2,5.8-4.8c-0.3-1.1-1.7-0.7-2.2-1.5c-0.3-0.4-0.2-0.9,0.1-1.3c3.7-0.6,7.3-1.3,11-1.9c0.7,1.5,2.3,1.7,3.5,2.4
		C10.7,202.6,8.5,203.3,7,204.7z"/>
	<path class="st60" d="M-6,158.9c1.3,1.8,5.1,2.6,2.5,6.2c-0.5,0.6,1,1.6,2,1.7c3.9,0.3,4.7,3,4.7,6.3c-0.5,0.9-1.3,0.8-2.1,0.8
		c-1.3,1.3-2.8,1.4-4.4,0.7c-0.3-3.3-2-4.8-5.4-5.1c-2.8-0.2-5.9-0.8-4.5-5.1c0.5-1.7-1-1.8-2.1-2c-1.7-0.4-3.7,0.1-5-1.7
		c-0.4-2.1,1-2.9,2.6-3.5c3.4-0.1,6.8-0.2,9.8,1.7C-7.3,158.8-6.7,158.8-6,158.9z"/>
	<path class="st61" d="M-3.9,174c1.6-0.4,3.3-1,5-0.2c0.6,0.4,1.3,0.8,1.9,1.2c0,0.6,0,1.2,0,1.7c-2.2,2.7-5.1,2.6-8.1,2.1
		c-2-1-2.9-2.2-0.9-4.1C-5.4,174.2-4.7,173.9-3.9,174z"/>
	<path class="st62" d="M-6,206.9c1.7,0,3.4,0,5-0.1c0.1,1.9,1.2,1.7,2.7,1.7c2.7,0,5.3,0.7,5.3,4.2c0.3,0.6,0.5,1.6,0.8,1.6
		c3.9,0.4,0.4,1.5,0.2,2.3c-2.6,0.4-0.8,2.1-1,3.2c-1.3,0.1-1.9,0.6-1.1,1.9c-3.3,3.9-4.4,4-10.6,1c-0.5-0.3-1-0.7-1.3-1.3
		c-0.2-0.4-0.6-1.1-0.7-1c-0.4,0.4,0.2,1-0.1,1.6c-1.8,2.1-4.5,1-6.6,1.9c-1.5,0.2-3,0.2-4.3-0.7c-0.8-3.5,3.8-3.1,4.2-5.6
		c2.4-2.2,5.3-2.1,8.3-2.1c0.6,0,0.6,0,0.6-0.8c0-0.2-0.5-0.4-0.7-0.6c-0.3-0.3-0.1-1.2-0.7-1c-3.3,1-5-0.9-5.1-3.5
		C-11.2,206.1-7.9,207.4-6,206.9z"/>
	<path class="st63" d="M-22,247.8c0,0.8,0.2,1.5,1,2c-0.5,4.2-3,5.2-6.8,4.2c-4.3-1.1-8.1,1.7-12.2,1.8c-4.8-1.2-9.7,1.1-14.6-0.4
		c-0.6-3.5-2.8-2-4.8-1.6c-0.2,0-0.4,0-0.7,0c-2.4,0.7-3.7-2-6-1.9c-2.3-1.1-5.3-2-1.2-4.7c2.3-0.8,4.5-0.6,6.8,0.4
		c4.2,1.8,8.4,1.9,12.4-0.6c2-0.5,3.9-0.4,5.9,0.1c4.5,1.3,8.8,0.8,12.9-1.4c0.4-0.2,0.8-0.4,1.3-0.5
		C-25.2,244.5-24.1,247.2-22,247.8z"/>
	<path class="st64" d="M-67,247.9c-3,2.2,2.1,2.3,1,4c-0.7,0.9-1.7,2.4-2.6,1.4c-2.9-3.2-7-2.1-10.4-3.5c-0.3-0.3-0.5-0.7-0.4-1.2
		c0.2-0.8,0.7-1.7,0-2.3c-1.3-1-2,0.8-3.1,1c-2.9,0-5.8,0.1-7.8-2.7c0.3-2.2,2.1-4,1.9-6.3c0.5-0.8,1.5-1.4,2-0.8
		c1.8,2,1.7-0.7,2.6-0.9c3.4,2.3,7.3,3.1,11.3,3.4c2.1,1.9,6.3,0.5,7,4.5C-65.4,245.9-67,246.5-67,247.9z"/>
	<path class="st65" d="M-55,254.8c3.7-0.3,7.5-0.6,11.2-0.9c1.6-0.1,3.5-0.6,3.8,1.9c-1.7,1-3.3,2-5,3c-2.7,0-5.3,0-8-0.1
		c-0.8-0.6-1.8-0.4-2.8-0.4c-1.1-0.1-2.4,0.2-2.6-1.4c-0.2-1.3,0.8-2,1.9-2.4C-55.9,254.3-55.4,254.4-55,254.8z"/>
	<path class="st66" d="M-90,243.8c1.7,3.5,5.7,0.9,8,3c1.4,0.1,2.5,0.8,3,2.1c0,0.3,0,0.6,0.1,0.9c-2,0.4-4,2.4-6,0
		c-2.5-1.5-4.6-3.8-8-3.1c-0.3-1.6-0.7-3.2-1-4.8C-91.7,240.5-90.2,240.8-90,243.8z"/>
	<path class="st63" d="M-56,254.9c-0.6,1-3.7,2.4,0.3,2.9c1,0.1,2,0.1,2.6,1c-3,0-6.1,0-9.8,0c1.2-2,2-3.5,2.9-4.9l0,0
		C-58.3,252.8-56.9,252.8-56,254.9z"/>
	<path class="st67" d="M-100,228.9c2.4-0.2,4.9,0.3,7-1.1c2.6-2.1,5.3-0.4,8-0.5c0.9,0,1.9-0.3,2.8-0.2c1.8,0.7,3.4,2.2,5.6,1.3
		c3.3,0.1,6.4-1.4,9.7-1.1c1.9,0.2,4-0.2,5.1,1.9c-2.1,4.2-6.5,2-9.6,3.4c-0.5,0.2-1,0.3-1.6,0.4c-7.7,0.9-15.3,0.9-23-0.4
		c-1.4-0.1-3,0.4-4.1-1C-98.9,230.9-100.3,229.9-100,228.9z"/>
	<path class="st68" d="M-95.9,232.8c7.6-2,15.4,0.6,23.1-0.9c0.9,3-1.2,3.5-3.3,4c-2.6,0.3-5.4-1.4-7.8,0.8c0.7,4.7-3.5-0.3-4,2
		c-2.4,2-4.7,1.7-7,0c-0.3,0-0.7,0-1-0.1C-94.8,236.8-94.3,234.8-95.9,232.8z"/>
	<path class="st69" d="M-95,238.8c2.3,0,4.7,0,7,0c1.8,2.7,0.4,4-2,5c-0.8-1.8-2.3-2.1-4-1.9C-95.1,241.1-95,239.9-95,238.8z"/>
	<path class="st70" d="M-89,205.9c-1.3-0.1-2.6-0.1-4-0.2c0.8-2.8,3.2-2.2,5.2-2.4c1.9-0.2,3.9,0.1,5.8,0c2.8-0.1,5.5-0.4,8.1-1.3
		c2.5-0.6,4.1-2.4,5.9-4c1.1-0.7,1.8-1.8,2.9-2.6c2.5-1.1,4.6-2.7,6.1-5c0.9-0.5,1.8-0.5,2.7,0c0.4,0.3,0.6,0.7,0.7,1.2
		c0,2.7-1.9,4.2-3.8,5.8c-0.5,0.5-1.1,0.8-1.7,1.2c-3.7,1.5-2.2,3.6-0.8,5.8c-1.6,2.8-5,2.2-7.2,3.7
		C-76.1,211.4-82.5,208.1-89,205.9z"/>
	<path class="st71" d="M-89,205.9c4.2,0.5,8.7,0.3,12.6,2.2c3.1,1.6,4.9-1,7.4-1.4c1.6-0.5,3.7-1.2,4.2,0.7c0.8,2.7-1.7,3.8-3.7,5
		c-0.8,0.3-1.6,0.3-2.4,0.3c-5-1.1-10-1.2-15-0.8c-0.5,0.1-1,0.2-1.4,0.2c-2.1,0-4.7,0.8-5.5-2.3C-93.8,206.4-90.2,207.3-89,205.9z"
		/>
	<path class="st72" d="M-86,211.8c5-3.4,10-1.5,15-0.1c-0.1,0.2-0.3,0.4-0.4,0.5c-0.9,0.8-2.5,0.7-3.3,2.3c4,1.2,8.4-1.8,11.8,1.4
		c-5.6,3.1-12.2,1.8-17.9,4.5c-1.1,0.5-1.4-1.2-2.2-1.6c0.8-1.2,3-2,1.3-3.9c-1.4-1.7-2.9-0.7-4.4,0
		C-87.5,213.8-86.2,212.8-86,211.8z"/>
	<path class="st73" d="M-81,204.8c-4,0.6-8.1-1-12,0.9c-1.7,0-3.3,0.1-5,0.1c-1.6,1-2.5,0.1-3.1-1.3c-0.5-1.2-0.1-2.4,1-3.1
		c1.8-1.2,3.7-2.2,5.8-2.8c2.3-0.1,4.6-0.8,7-0.4C-85.6,200.8-81.5,201.1-81,204.8z"/>
	<path class="st74" d="M-94,199.8c-1.4,0.7-2.8,1.4-4.2,2c-0.9,0.3-2.1,0.4-2.1,1.6c-0.1,1.5,0.9,2.3,2.4,2.5c-0.3,0.3-0.7,0.7-1,1
		c-1,0.1-2,0.1-3,0.2c-1.9,0.9-3.8,1.2-5.1-0.9c-1.1-1.9,0-3.4,1-4.9s2.3-2.7,4.1-3.3c2.6-0.5,5.2-0.8,7.7,0.5
		C-93.8,198.7-93.7,199.2-94,199.8z"/>
	<path class="st75" d="M-59,216.8c0-0.5,0-1.1,0-1.6c0.7-2.7,3.1-2.5,5.1-3.1c4.8-1.4,9.9-0.1,14.8-1.3c1.5-0.2,3-0.2,4.3,0.8
		c1.4,2.9-0.2,4-2.7,4.5c-2.3,0.5-4.7,0.3-6.9,0.8c-2.5,0.5-5,1.1-6.8,1.4c0,0,0.8-0.1,1.6,0.2c2.7,3.6,2.7,3.6-2.2,4.7
		c3.5,0,6.6-1.9,10.1-2c0.8,0.1,1.9,0.2,1.8,1.2c-0.1,2.4-2.2,2.3-3.7,3.1c3.2-0.9,6.6-3.5,10-0.4c0,0.5-0.1,1-0.4,1.5
		c-6.4,3-13.1,3.6-20,3.3c-3.6-2.2-7.6-2.7-11.7-2c-1.6,0.3-3.2,1.2-4.1-1.1c-0.4-1-0.2-1.9-0.1-2.9c0.3-0.6,0.7-1.3,1-1.9
		C-66.3,218.9-61.3,220.5-59,216.8z"/>
	<path class="st76" d="M-38.9,211.9c-5,2.1-10.4,0.2-15.4,1.8c-1.5,0.5-3.3,0.4-4.6,1.5c-0.3-0.1-0.7-0.2-1-0.3
		c-1.9-0.6-3.9-0.3-5.8-0.2c-2.1,0.1-4.4,0.1-5.2-2.6l0.1-0.3c0.7,0,1.3,0,1.9,0c3.1-1.3,7.1-0.8,9.1-4.6c0.4-0.8,2.1-0.7,3.3-0.7
		c4.1,0,8.2-0.1,12.3-0.4C-42.7,208.1-41.2,210.3-38.9,211.9z"/>
	<path class="st77" d="M-70,223.7c0.8,0.5,1,1.2,1,2.1c-2.3,2.1-5,3.2-8.1,2.9c-1.6-0.4-3-1.7-4.9-0.9c-0.6,0.3-1.3,0.7-1.9,1
		c-1.2-1.3-2.8-1.4-4.5-1.4c-0.9,0-2.3,0.3-2.6-0.8c-0.4-1.3,1.2-1.7,1.9-2.6c1.7-0.6,3.4,1,5.1-0.2c1,1.3,2.6,1.5,3.6,0.9
		C-77,222.6-73.5,223.6-70,223.7z"/>
	<path class="st78" d="M-71,212c2.2,1,4.2,2.1,6.8,1c1.6-0.7,3.1,0.4,4.2,1.7c-0.9,0.4-1.9,0.7-2.8,1.1c-3.1-0.1-6.3-0.4-9.4,0.5
		c-1.4,0.4-3,0.9-4.2-0.3c-0.8-0.7-0.7-1.9-0.4-2.8c0.8-2.2,2.8-1.2,4.3-1.4C-72,211.9-71.5,212-71,212z"/>
	<path class="st79" d="M-59,216.8c1.1,1,0.7,1.7-0.5,2.1c-3.1,1-6.3,2-9.4,3C-67.2,217.1-61.7,219.6-59,216.8z"/>
	<path class="st80" d="M-102,198.8c-0.9,0.8-1.9,1.4-2.5,2.3c-3.3,4.3-2.9,5.1,2.5,5.8c-1.1,2.2-3.1,1.8-5,1.9
		c-2-0.6-3.5-2.8-5.9-2.1c-0.3-1.3-0.7-2.7-1-4c2.8-1.4,4.6-4.2,7.2-5.8C-104.6,195.7-102.5,195.2-102,198.8z"/>
	<path class="st81" d="M-89.1,224c-0.3,0.9-0.6,1.7-1,2.6c1.9,1.2,5.8-3.2,6.1,2.2c-3-0.3-6-0.6-9-1c0.3-1,0.7-2,1-2.9
		C-91,224.6-90.1,224.3-89.1,224z"/>
	<path class="st82" d="M-102,198.8c-1.1-1.8-2.1-2.6-4.2-0.7c-2.2,2-4.1,4.9-7.7,4.7c0-0.3,0-0.6,0-1c2.7-1.4,2.2-3.9,1.7-6.1
		c-0.3-1.6-0.8-3.2-0.7-4.9c1.3,0,2.7,0,4,0c2.1-2.3,4.7,1,6.9-0.6c0.4,0,0.9,0.1,1.2,0.4c1,1.3,1.4,3.1,3.5,3.2
		c1.6,0.4,3.3,0.5,4.7,1.5c1.2,0.8,3.1,1.7,2.4,3.3c-0.6,1.5-2.5,0.9-4,0.4C-96.7,198.9-99.3,198.8-102,198.8z"/>
	<path class="st83" d="M-102,168.9c0-0.4,0-0.8,0-1.1c3.3-1,5.1-4.7,8.8-5.1c0.2,0,0.6-0.4,0.7-0.6c2.5-6.5,2.5-6.5,7.5-9.3
		c2.3-0.3,4.7-0.6,7-1c-1,3.1-1,3.1-7,6.3c-0.6,0.2,0.4,1,0,0.5c-0.1-0.1,0-0.2,0.2-0.3c3.1-1.5,6.3-0.9,9.5-0.4
		c1.5,0.6,2.8,1.4,2.8,3.3c-0.1,0.8-0.6,1.4-1.3,1.8c-0.8,0.2-1.4,0-2.1-0.4c-2.3-1.6-4.4-1.4-6.8,0.2c-3.1,2-6.3,4.1-10.4,4
		c-2.5-0.1-4.2,1.8-6.3,2.7C-100.3,169.7-101.2,169.7-102,168.9z"/>
	<path class="st84" d="M-75,158.9c-3.6,0-7.2,0-11,0c1.1-4.5,6.7-3.3,8-7c1.4-0.2,3,0.4,4.1-1c6.4-0.3,12.8-1.2,19.3-1.1
		c1.8,0.7,2.5,1.7,0.6,3c-1.5,1.1-3.3,1.5-5.1,1.3c-4.3-0.3-8,1.3-11.6,3.1C-72.1,158.1-73.4,158.9-75,158.9z"/>
	<path class="st85" d="M-55,150.8c-4.7-0.1-9.4-0.2-13.9,1.2c-2.2,0.6-3.2-1.3-5-1.1c0.7-1.9,2.2-2.1,3.9-2.1
		c3.4,0.7,6.6,1.4,9.8-1.4c2.4-2.2,5.6,0.2,8.6,0c5.6-0.4,10.8-3.3,16.5-2.6c1.4,0.2,3-0.4,4.1,1c-5,0.1-10.2-0.3-14,4
		c-1.6,1.8-3.7,1.3-5.7,1.3C-52.1,151.2-53.5,149.1-55,150.8z"/>
	<path class="st86" d="M-52,149.9c2.3,0,4.7-0.1,7-0.1c2.2,0.1,4.3-0.7,6.2-1.7c3.9-2,7-0.1,10.1,1.8c0.5,0.3,1.1,1,1.1,1.5
		c-0.1,0.9-1.1,1.1-1.9,1.3c-1.8,0.5-4.6-1.3-5.4,2c0.3,2-1.4,2.1-2.5,2.2c-2.1,0.3-4,1-5.9,2.1c-2.6,1.6-5.4,1.5-7.1-1.7
		c-0.3-1.3,0.1-2.5,0.8-3.5c0.9-0.7,0.8-0.9-0.4-1.1C-51.6,152.5-53.1,152-52,149.9z"/>
	<path class="st87" d="M-50,156.8c2.2,2.3,4.4,4.1,6.5-0.1c0.7-1.3,2-0.8,3-0.9c1.9-0.2,3.9,0.7,5.5-1.1c2,0,4,0,6,0
		c1,1,1,2.2,0.6,3.4c-3.1,3.4-7.7,3.1-11.5,3.4c-10,0.8-19.7,3.9-29.9,2.7c-1.6,0-3.1-0.1-4.2-1.4c0.3-0.3,0.7-0.7,1-1
		c0.8-1.4,2-2.3,3.6-2.2C-62.8,159.9-56.4,158-50,156.8z"/>
	<path class="st88" d="M-29,157.8c0-1,0-2,0-3.1c2.9-2.3,5.7,0,8.5,0c3.1,0,6.3,0,9.4,0c1.3,1.1,2.5,2.3,3,3.9
		c-3.4,0.1-6.7,0.1-10-0.9C-21.7,159.8-25.3,161.2-29,157.8z"/>
	<path class="st57" d="M-22,247.8c-1.7,0.7-3.8,2.2-3.8-1.5c0-0.2-1.4-0.3-2.2-0.5c1.4-3.6,4-3.3,6.9-2.1l0.2,0.2
		C-21.2,245.2-21.6,246.5-22,247.8z"/>
	<path class="st89" d="M-102,168.9c1,0,2-0.1,3-0.1c0.8-0.6,1.7-0.9,2.7-0.4c-0.1,4.5-3,7.8-5.6,10.7c-2.8,3.1-3.6,5.6-1.7,9.1
		c-0.1,0.5-0.4,0.9-0.9,1.2c-1.6,0.5-3.1,0.5-4.5-0.7c-1.5-4.1-1.2-7.4,2.6-10.7C-104.1,176-105.2,171.2-102,168.9z"/>
	<path class="st90" d="M-109,188.8c1.7,0,3.3,0,5,0c2.1-0.8,2.7-0.1,2,2c-2.3,4.1-4.7-1.4-7,0C-109,190.1-109,189.5-109,188.8z"/>
	<path class="st91" d="M-2.8,183.9c-1,1.5-3.5,0.9-4.2,2.8c-1.2-0.1-2.1,0.4-3,1.1c-0.7,0.5-1.4,0.4-2.1,0.2
		c-2.7-1.4-2.7-3.4-1.3-5.7c2-2,4.6-2.1,7.1-2.2c0.5,0.1,1,0.3,1.3,0.7C-5,182.4-4.1,183.3-2.8,183.9z"/>
	<path class="st92" d="M-4.9,180.8c-0.4-0.1-0.7-0.2-1.1-0.2c-1.1-0.7-1.6-1.7-1.1-3c0.4-0.3,0.8-0.2,1.3,0.1c3-0.2,6.1,0.9,8.8-1
		C1.6,180.4-1.7,180.7-4.9,180.8z"/>
	<path class="st93" d="M-12,187.7c0.7,0.1,1.3,0.1,2,0.2c-3.7,1.9-7.7,0.5-11.5,0.9c-2.1,0.2-4.3-0.3-5.6,2c-1.3,1.6-3.2,1.6-5,1.5
		c-7.1-0.2-14.2-0.3-21.2,0.4c-1,0.1-2-0.1-2.7-1c0-0.3,0-0.6,0-0.9c1.2-1.7,0.2-3.9,1.5-5.6c4.3-1.9,22.4-3.3,27.1-2.1
		c0.3,2.5,0.3,2.5-2.1,4.6C-23.6,186.2-17.8,185.4-12,187.7z"/>
	<path class="st94" d="M-56,191.7c9.6-1.8,19.3-0.7,28.9-1c0.7,0,1.4,0.1,2.1,0.1c-0.6,3.3,0.3,5.2,4.2,4.7c1.9-0.2,4-0.4,5.6,1.2
		l0.3,0.1c0.2,0.9-0.3,1.4-1,1.8c-2.8,1.3-5.9,1.2-8.8,2.1c-0.5,0.2-1,0.3-1.5,0.5c-6,1.2-12.1,2-18.1,0.1c-1.2-3,1.5-2.5,2.8-3.1
		c2.2-0.9,4.9-0.5,6.9-3.4c-5.7-1.2-11-0.4-16.1-0.6c-2-0.3-3.2,0.9-4.6,2.1s-2.9,2.1-4.7,0.5C-58.7,195.1-57.3,193.4-56,191.7z"/>
	<path class="st95" d="M-15.2,196.7c-2.3,0-4.6,0.2-6.9,0.1c-1.9-0.1-4.3,0.8-5.3-1.5c-0.9-2.1,2-2.8,2.5-4.5
		c5.8-2.4,11.3-0.5,16.7,1.9c-0.5,0.7-1.5,1.8-3.1,1.9C-13,194.8-14.3,195.4-15.2,196.7z"/>
	<path class="st96" d="M-16,197.8c0.4-0.3,0.7-0.6,1.1-1c7.7-0.1,15-3.4,22.8-3.1c-2.4,2.3-5.1,3.3-8.5,2.4
		c-1.7-0.5-3.4,0.1-4.1,1.9c-0.5,1.3,0.6,1.7,1.7,1.8c0,0.3,0,0.6-0.1,0.9c-2.6,3.5-6.4,2.4-9.8,2.5c-3.1,0.1-6.1-1.2-9.2-0.5
		c-1.7,0.4-3.8-0.2-2.9-3l0,0C-22.1,198.9-18.7,199.8-16,197.8z"/>
	<path class="st97" d="M-29,235.8c0.9,1.1,5,2,0.3,3.5c-1,0.3-1.2,1.5-1.3,2.5c-1.1,1.9-2.9,2.1-4.9,1.9c-3.7-0.7-7.5-1.2-11,0.8
		c-1,0.3-2.1,0.4-3.1,0.2c-4.3-1.1-8.9-0.8-12.8-3.4c-0.4-4.3,2.9-3.6,5.1-3.4c2.2,0.2,4.1,0.6,5.7-1.3
		C-43.6,235.1-36.4,233.7-29,235.8z"/>
	<path class="st98" d="M-29,235.8c-5.3,0.3-10.6,0.7-15.8,1c-2.1,0.1-4.3-0.2-6.2,1c-6.5,0.1-12.8,2.4-19.3,2.3
		c-1.1-0.3-2.6-0.5-2.6-1.8c0-1.2,1.5-1.6,2.6-1.9c2.2-0.5,4.4-1,6-2.9c2.6-1.7,5.4-1.2,8.2-0.9c7.3,0.7,14.5,0.9,21.8-0.8
		c4.7-1.1,9.8-1.9,14.8-0.6c0.2,0.2,0.4,0.4,0.6,0.7c-0.2,1.2-0.8,2.8-1.8,2.5C-23.8,233.6-26.2,235.8-29,235.8z"/>
	<path class="st99" d="M-12.9,223c1.7-1.9,4.1,0,6-1.1c0.7-0.7,1.3-0.7,2,0c3.7,1.1,7.3,2.7,11-0.1c3,1.1,0.7,2.2-0.1,2.9
		c-2.2,2.1-4.7,4.1-7,6.1c-3.8-0.2-7.5,0.4-11.1,1.7c-2.4,0.9-4.6,1-6.7-0.6l-0.1-0.2c0.6-3.1,3.3-2.6,5.4-3.2
		c2.4-0.7,5.2-0.1,8.1-2.7c-5.6,0.4-10.6,2.5-14.7-1.6C-18.1,221.9-15.2,224.3-12.9,223z"/>
	<path class="st100" d="M-49,243.8c1,0,2,0,3-0.1c3.5-1.5,7.2-1,10.9-1c1.7-0.3,3.4-0.7,5.1-1c2.9,0.9,6.6-1.9,8.9,1.9
		c-2.5,0.1-4.9,0.4-6.9,2.1v0.1c-5.7,3.2-11.8,1.1-17.7,1c-1.6,0-3.2,0.2-4.8,0.6c-2.2,0.6-4.3,0.4-4.7-2.5
		C-53.3,243.6-51.2,243.1-49,243.8z"/>
	<path class="st101" d="M-6,206.9c-0.6,2-5.3-0.4-3.9,3.4c1.3,3.5,3.4,2.7,5.8-1.1c-0.5,2.5-0.7,3.6-1,4.7c-0.5,2.8-2.7,1.9-4.5,2.3
		c-3.9,0.8-8.4-1.6-11.9,2.1c-0.4,0.2-0.9,0.3-1.3,0.4c-2.9,0.2-6,1.8-8.5-0.9c-1.2-3.7-1.9-7.3,3.4-8.4c3.6-1.4,7.5-1.4,11.2-2.1
		c2.6,0,4.9-1.6,7.5-1.6c0.8,0.1,1.6,0.3,2.1,0.9C-6.6,206.7-6.3,206.8-6,206.9z"/>
	<path class="st102" d="M-7,206.6c-0.7,0-1.4,0.1-2,0.1c-1.3-1.1-3,0.5-4.2-0.8c-0.7-0.9-0.8-1.8-0.6-2.9c0.2-0.5,0.5-0.9,0.9-1.2
		c3.3-0.1,6.7,0.2,9.8-1.1c0.3,0,0.7,0,1,0.1c1.5,0.3,4-0.7,4.2,1.4c0.2,2.3-2.5,1.3-3.8,2C-3.4,205.1-5.6,205.1-7,206.6z"/>
	<path class="st103" d="M-29,157.8c3.7,0.3,7.3,1.2,11,0.1c-0.7,1-2.1,1.4-2,2.9c-0.9,2.3-3,2.3-5,2.4c-1.8,0-3.6,0.2-5.3,0.8
		c-9.1,1.9-18.6,1.8-27.7,4c-3.3,0.8-6.9,0.6-10.3-0.2c-0.9-0.3-1.6-0.9-2.1-1.6c-0.6-1.2-0.5-2.3,0.4-3.3
		C-56.1,162.8-42.5,160.7-29,157.8z"/>
	<path class="st104" d="M-30,162.8c3-2.3,7,0.2,10-2c1.8,0,3.8-0.4,5.4,0.2c1.5,0.6,7.3-0.3,2.3,4.2c-1.1,1-0.5,2.1,1,2.5
		c1.8,0.4,3.5,0.8,5.3,1c1.6,0.2,3.6-0.4,4.4,1.5c1,2.2-2,2.3-2.4,3.8c-0.4,0.3-0.7,0.7-1.1,1c-1.2,0.3-2.5,0.8-3.8,0.2
		c-2.5-2.9-5.3-4.9-9.4-4.2c-1.1,0.2-2.3-0.2-3.2-1.1c0.5-4.6-1.5-6.5-6.1-5.9C-28.3,164.1-29.3,163.7-30,162.8z"/>
	<path class="st105" d="M-8.9,174.9c1.3,0,2.6,0.1,3.9,0.1c-0.3,0.9-2.4,1.2-0.8,2.7c-0.4,0.1-0.8,0.2-1.2,0.3
		c-2.4,2.1-5.5,2.1-8.5,2.4c-2.3,0.3-3.5-0.7-3.1-3.2c2.4-3,6-1.1,8.9-2.4C-9.4,174.9-9.1,174.9-8.9,174.9z"/>
	<path class="st106" d="M-12.9,223c-2,2.1-5,0-7.1,1.7c-3.3,3.6-6.7,4.3-11.8,2.3c-0.2-3.3,2.8-0.8,3.6-2c-1.2,0.6-2.8-0.2-4.1,0.7
		c-0.3,0.4-0.7,0.5-1.2,0.5c-0.2-0.2-0.3-0.3-0.5-0.5c-0.1-0.2-0.1-0.4-0.1-0.6c-0.3-0.4-0.5-0.9-0.4-1.5c0.4-1.7,1.6-2.5,3.2-2.5
		c3,0,5.8-0.5,8.8-1c2.2-0.3,3.8,0.6,4.5,2.8C-16.3,222.9-14.6,222.9-12.9,223z"/>
	<path class="st107" d="M-22,217.8c1.4-1.3,0.4-5,5.1-2.9c2.6,1.2,8.2,2.6,11.8-1c1.2,1,3-0.6,4.6,1.3c-3.9,2.9-8.7,0.6-12.5,2.6
		C-18,220.8-19.5,220.8-22,217.8z"/>
	<path class="st108" d="M-22,217.8c3,2.9,6-0.7,9,0c0.5,3.9-3.5,3.2-5.1,5c-2.8-1.8-13.1-1.2-16,0.9c-1,0.8-2.2,1-2.9-0.2
		c-0.5-0.9,0.3-1.9,1-2.6c1.7-1.6,3.9-1.8,6-1.5c2.6,0.4,4.8-0.4,6.9-1.7C-22.7,217.8-22.3,217.8-22,217.8z"/>
	<path class="st109" d="M-5,221.9c-0.7,0-1.3,0-2,0c-0.4-1.3-2-0.9-2.7-1.8C-5.6,217.3-5.6,217.3-5,221.9z"/>
	<path class="st110" d="M-55,244.9c2.6,4.1,6.1-0.5,9,1c0.4,1.9-1.6,1.1-2.1,1.9c-3.4,3.8-7.9,3.1-11.5,1.5
		c-2.6-1.1-4.9-1.4-7.4-1.5c-1.2-0.8-1.2-0.8,1-3.1C-62.3,243.2-58.6,243.1-55,244.9z"/>
	<path class="st111" d="M-48,247.8c0.7-0.6,1.4-1.3,2.1-1.9c6-0.3,12,1,18,0c-3.6,3.6-8.3,3.8-12.7,2.9
		C-43.2,248.3-45.5,247.9-48,247.8z"/>
	<path class="st112" d="M-56,254.9c-1.2-0.8-2.6-1.2-4-1.1c1.7-3.1,4.5-1.8,7-1.9c0.7,2-1.7,1.7-1.9,2.9
		C-55.3,254.8-55.6,254.9-56,254.9z"/>
	<path class="st113" d="M-71,238.8c6.7-0.1,13.2-1.7,19.9-1c-0.8,1.5-1.1,3.7-3.8,1.8c-2.5-1.8-5-0.8-7.2,1.1
		c-3.3,2.7-6.6,0.6-9.9,0.1c-4.4-0.2-9.3,1.2-12-4c1.2-2.9,1.2-2.9,7-2C-75,236.1-75.2,240.8-71,238.8z"/>
	<path class="st114" d="M-72,240.8c3.3,0,6.6,0,9.9-0.1c4.4,1,8.7,2,13.1,3.1c-2,0.3-4,0.7-6,1c-3.7,0-7.4-0.1-11-0.1
		c-0.9-1.4-1.6-2.9-3.8-2.2C-71.2,243.1-71.9,242.2-72,240.8z"/>
	<path class="st115" d="M-79,248.9c-1.4-0.2-2.4-0.9-3-2.1c0.2-1.2-0.2-2.9,1.8-2.8c1.3,0.1,2.6,0.6,3,2.1
		C-76.7,247.7-77.4,248.7-79,248.9z"/>
	<path class="st98" d="M-55,228.8c7.1-0.2,14.1-1.3,21-3.3c0,0.2,0,0.4,0,0.6c0.6,5.3-3.7,5.3-6.8,5.7c-4.4,0.7-8.9,0.1-13.4,0.3
		c-5,0.2-9.8,0.7-14.4,2.8c-2.4,0.1-3.6-0.9-3.5-3.4c3.1-2,6.9,0.1,10-1.9C-59.9,227.8-57.7,227.1-55,228.8z"/>
	<path class="st116" d="M-55,228.8c-2.3,0.3-4.7,0.7-7,1c-3-2-6.3-1.2-9.3-0.7c-2.3,0.4-4.5,0.6-6.7,0.5c-0.8-0.8-2.3-1.6,0.2-2.1
		c3.3,0.9,5.7-2.2,8.9-1.9c0.2,1.4,0.8,2.2,2.3,1.2c3.9-2.8,7.8,0.7,11.7,0C-55,227.6-55,228.2-55,228.8z"/>
	<path class="st117" d="M-72.1,231.7c0.7,1.4,1.6,2.5,3.1,3c1.7-1.2,3.3-1.2,5,0c-1.7,3.2-4.8,2.6-7.6,3.1c-0.1,0-0.3,0.1-0.3,0.2
		c-0.1,0.7,0.5,0.6,0.9,0.7c-1.8,1.8-3.9,0.5-6.2,1.1c0.1-2,1.6-3.6,0.2-5.1c2,0,3.7-0.5,4.1-2.9C-72.6,231.9-72.3,231.8-72.1,231.7
		z"/>
	<path class="st81" d="M-77.9,227.7c-1.1,0.6-0.3,1.4-0.2,2.1c-2.8,2.2-2.7-1.1-3.9-2C-80.7,227.2-79.3,224.2-77.9,227.7z"/>
	<path class="st118" d="M-59,190.9c0.7,5-3.6,3.8-6.1,5c-1.5,1-2.9-1.2-4.4-0.1c-1.7,0.7-3.4,1.4-5.3,0.8c-0.7-0.3-1.2-0.7-1.7-1.2
		c-1-1.5-2-3-4.2-2.8c-1.6-0.3-3.4-0.3-4.6-1.8c-0.1-1.2,0.5-1.9,1.4-2.5c2.1-1.1,4.6-0.4,6.8-1.3c5.4-0.3,10.8,1.7,16.3,0.8
		C-59.8,188.5-59,189.5-59,190.9z"/>
	<path class="st119" d="M-74.8,195.9c1.9-0.4,3.9-0.9,5.8-1.3c0.9,1.2,3.6,1.7,1.9,4.1c-2,1.4-3,4.1-5.9,4.1
		c-3.2,1.2-5.4,0.3-6.4-3.1c0.1-2.1,2.3-2.1,3.3-3.3C-75.7,196.2-75.3,196-74.8,195.9z"/>
	<path class="st120" d="M-56.9,207.7c-1.2,0.6-4.8-1.4-2.9,2.8c0.4,0.9-1.3,1.2-2.3,1.2c-2.3,0-4.6,0-7,0c0.5-0.4,1.1-0.8,1.4-1.3
		c0.6-1,2.6-1.6,1.7-3c-0.4-0.6-2.1-0.5-3.2-0.7c2.2-1.7,5.3-0.9,7.2-2.9c3,0.4,6.1,0.2,8.9,1.7C-52.9,208.8-56,206.4-56.9,207.7z"
		/>
	<path class="st121" d="M-53,205.8c-3.1-0.2-6.5,1.2-9-2c-1.9,0.1-3.1-0.6-3-2.8c0.1-2.6,1.7-3.3,4-3.2c1,2.8,2.7,4.5,5.9,3.6
		c0.5,0,0.9,0,1.4,0c2.1,0.4,4.3-0.8,6.4,0c1.1,3.5-2.1,3-3.7,4C-51.6,205.7-52.3,205.9-53,205.8z"/>
	<path class="st122" d="M-79,198.8c1.3,2.4,2.8,4.6,6.1,4c-2.5,1.4-5.2,2.1-8,1.9c-1.4-2.5-6.1-1.7-5.9-5.8c0.5-0.9,1.5-1.1,2.4-1.3
		c1.1-0.2,2.3-0.5,3.5-0.4C-80,197.3-79.3,197.8-79,198.8z"/>
	<path class="st123" d="M-55,202.8c-0.5,0-1,0-1.4,0.1c-4.2,0.8-5.8-0.9-4.6-5c0.3-0.3,0.7-0.7,1-1c2,0.3,3.6-0.5,4.5-2.1
		c1.1-1.9,2.8-1.9,4.6-1.8c1.3,2.3-0.7,3.4-2.1,4.1C-55.5,198.5-56,200.3-55,202.8z"/>
	<path class="st124" d="M-59,190.9c-1-0.5-1.7-1.1-2-2.2c0.3-0.3,0.7-0.5,1.1-0.7c1.3-0.1,2.6-0.2,3.5-1.3c0.4-0.2,0.8-0.2,1.2,0
		c1.9,1.5,1.6,2.8-1,4.1C-57,190.8-58,190.9-59,190.9z"/>
	<path class="st125" d="M-67.1,198.7c-0.6-1.4-1.3-2.7-1.9-4.1c1.7-0.9,2.6,0.9,4,1.2C-65,197.3-65.6,198.3-67.1,198.7z"/>
	<path class="st126" d="M-83.9,198.7c-1,0.1-2,0.1-3,0.2c-2.4,0.4-4.6,1.3-7.1,0.9c0-0.3,0-0.6,0-1c1.1-0.2,2.1-0.3,3.4-0.5
		c-1.9-2.7-5.1-2.2-7.3-3.6c-0.7-1.4-0.9-2.7,0-4.1c2.8-2,5.9-3.2,9.5-3.2c1.7,0.1,3.4-0.1,4.6,1.4c-0.3,0.6-0.7,1.3-1,1.9
		c-0.1,1.7-1.8,2.2-2.6,3.5C-87.3,196.5-82.5,195.1-83.9,198.7z"/>
	<path class="st127" d="M-13,202.8c0,1,0,2,0.1,3.1c0.1,2.1-2.1,1.8-3.1,2.8c-4,0.9-8.2,0.7-12,2.3c-2.4-0.4-4.5,1.8-7,0.9
		c-1.3,0-2.6,0-3.9,0c-2.7-0.6-6.6-0.2-4.1-5.1c0.2-0.2,0.4-0.4,0.5-0.6c0.4-0.3,0.9-0.5,1.4-0.6c3.1,0,6.1-0.8,8.9-2
		C-25.7,203.7-19.5,200.8-13,202.8z"/>
	<path class="st128" d="M-35,211.9c2.3-0.5,4.5-1.7,7-0.9c-1.2,0.5-2.3,1-4.2,1.8c3.8,1.3,2.9,3.2,1.3,5.1c-1.7,2.7-4.4,2.7-7.1,2.7
		c-1.4,0-3-0.5-3.8,1.3c-4.4,0.8-8.6,3.6-13.5,1.4c1.4-2.1,3.2-1.5,4.8-1.5c4.1-0.2,0.9-1.9,0.7-3c0.9-1.5,3-1.6,4-3
		c2.4-1.5,5.1-1,7.7-1C-36.3,214.9-34.8,214.4-35,211.9z"/>
	<path class="st129" d="M-41.9,222c-0.7-2.3,1.3-3.4,2.4-2.9c3.3,1.5,5.7-0.9,8.5-1.2c2.7,1.1,5.3-0.8,8-0.1c-1.3,3.4-4.3,2.9-7,3
		c-1.9,0.1-4.2-0.6-5.6,1.2c-2.1,2.6,0.6,1.5,1.5,1.7c0,0.4,0,0.8,0,1.2c-4.5-0.8-8.7,1-13.7,2c1.9-3.2,5.9-1.5,7.1-4.4
		c0-0.1-0.1-0.3-0.2-0.4C-41.3,222-41.6,222-41.9,222z"/>
	<path class="st130" d="M-46,215.9c-0.3,2.4-2.2,2.6-4,3c-1.7-0.2-3.6,2-5.5-0.4C-52.2,217.5-49.1,216.7-46,215.9z"/>
	<path class="st131" d="M-53,205.8c0.3-0.3,0.7-0.7,1-1c1.8-0.8,3.8-0.6,5.6-1c1.7-0.3,4.3-0.4,3.3,2.9l0.1,0.1
		c-4.6,0.9-9.2,1.4-13.9,0.9C-56,206.2-53.8,207.4-53,205.8z"/>
	<path class="st132" d="M-89,188.8c-3.4-0.3-6,2-9,2.9c-1.3,0.8-2.1-0.2-3-0.9c-0.3,0-0.6,0-1,0c-0.1-1.3-0.8-1.9-2-2
		c0-0.3,0-0.7,0-1c1.2-1.5,3.2-1.2,4.8-1.9c1.7-0.4,3.5-0.5,5.2-0.2c0.5,0.1,1,0.2,1.4,0.3C-91.3,186.9-88.9,186.3-89,188.8z"/>
	<path class="st90" d="M-101,190.8c1,0.3,2,0.6,3,0.9c0.7,1,0.7,2,0.1,3C-101.2,195.2-101,192.9-101,190.8z"/>
	<path class="st133" d="M-50,156.8c-3.5,3.3-8.1,3.2-12.3,3.9c-3.5,0.6-7.2-0.7-10.7,1.1c0.1-1.5-1.4-1.9-2-2.9c1-0.7,2-1.4,3-2
		c5.6-2,11.2-3.6,17.2-3.4c2,0.1,3.9-0.6,5.8,0.4C-49.3,154.8-49.7,155.8-50,156.8z"/>
	<path class="st134" d="M-70,162.9c0,1,0,2,0,3c0.3,1.6-1,1.9-2.1,2.1c-5.5,0.9-10.7,2.9-16.2,3.4c-1.5-0.2-2.4-1.1-3-2.4
		c-0.2-1.2,0.3-2,1.3-2.5c4.5-2.9,10-2.7,14.9-4.5c0.4,0.3,0.7,0.6,1.1,0.9C-72.7,162.8-71.3,162.9-70,162.9z"/>
	<path class="st84" d="M-75.1,162c-1.1,0.7-0.9,2.7-3.1,2.5c-4.1-0.3-7.9,1.5-11.8,2.4c-2,0.6-3.1,4.1-6,1.9c-1,0-2,0-3,0
		c1-2.2,2.9-3.2,5.2-3.1c4.6,0.1,8-2.2,11.4-4.8C-79.8,158.9-77.2,159.6-75.1,162z"/>
	<path class="st135" d="M-49,153.8c-2.3,1.3-4.8,1-7.3,1c-4.4,0-9-0.7-12.5,3.2c-1.2,1.3-2.8,1-3.2-1.2c2.9-2.9,6.5-3.8,10.4-4
		c2.5-0.1,5-0.1,7.3-1.1c0.1,0,0.3-0.2,0.3-0.3c0-0.7-0.6-0.6-1-0.7c0.3-2.6,1.7-1.6,3-0.9c1.3,3.9,4.1,0.9,6.5,1.6
		C-46,153.3-47.5,153.6-49,153.8z"/>
	<path class="st136" d="M-96,168.8c2.4,0.6,3.6-2.7,6-1.9c-0.3,0.6-0.7,1.3-1,1.9c-2.6,3.3-4.4,7-6.7,10.4c-1.1,0.8-2.5,0.9-3.4,1.8
		c-1.6,1.6-2.3,3.3,0.6,4.5c0.6,0.3,1.2,0.6,1.6,1.3c-1.5,1.5-3.3,0.7-5,1c-4.3-1.5-2.7-5.5-1.3-6.6
		C-100.9,177.8-100.5,171.8-96,168.8z"/>
	<path class="st137" d="M-12,187.7c-6.2,0.6-12.6-1.1-18.5,1.9c-0.8,0.4-2.6,0.7-2.9-0.8s1-2,2.2-2c2.1-0.1,3.3-1.3,4.3-2.9
		c0.3-0.5,0.6-0.8,1.1-1.1c3.2-1.6,6.6-2,10-2c1.3,0,2.8-0.1,2.9,1.8C-13.6,184.6-13.5,186.3-12,187.7z"/>
	<path class="st138" d="M-13,182.7c-4.5-1.9-8.7,0.7-13.1,1c-0.8-1.9-0.3-3.6,0.8-5.2c2.3-1.1,4.6-2,7.2-1.6
		c-0.1,1.6-0.1,2.8,2.3,2.3c2.8-0.6,5.6-1.6,8.6-1.2c0.3,0.9,0.7,1.7,1,2.6C-8,182.5-10.9,181.1-13,182.7z"/>
	<path class="st139" d="M-25,178.9c0.1,1.7,0,3.4-1,4.8c-0.3,0.1-0.6,0.1-0.9,0.2c-9.4,0.6-19-0.2-28.1,2.8c-0.3,0-0.6,0-0.9,0.1
		c-1.1,1.3-3,0.7-4.2,1.8c-0.3,0-0.6,0-0.8,0c-5.4,1-10.6-0.4-15.9-0.8c-0.1-0.3-0.2-0.5-0.3-0.7c0.2-0.5,0.6-0.9,1.1-1.1
		c3.7-1,7.4-0.7,11.1-0.4c2.1,0.1,2.8-0.8,3.4-2.4c5.3-3.5,11.4-3.1,17.2-3.7c5.4-0.5,11,1,16.3-1.4
		C-27.1,177.5-25.8,177.9-25,178.9z"/>
	<path class="st140" d="M-55,202.8c-0.5-1.8-2.7-1.5-3.7-3.1c2.5-2.4,6.3-3.3,7.7-6.8c4.9,0,9.9-0.1,14.8,0c1.5,0,3.4-0.2,3.7,1.7
		c0.4,2.1-1.6,3.3-3.2,3.9c-3,1.1-6.4,0.9-9.3,2.4c-0.2,0.2-0.4,0.3-0.6,0.5c-2.9,0-5.6,1-8.5,1.5h-0.5L-55,202.8z"/>
	<path class="st141" d="M-43.1,206.7c-2.3-3.9-6-0.9-8.9-1.9c1.3-1.6,4.2-0.4,5-2.9c0.4-0.8,1.5-0.3,1.9-1.1l0.1,0.1
		c6.7,0.1,13.4,0.2,20-1c0.2,1.4,1.1,2.4,2.3,1.9c3.4-1.5,6.5,0.3,9.8,0.2c0,0.3-0.1,0.6-0.1,0.9c-6.8-0.7-13.2,3-20,2.1
		c-2.8,1.6-6,0.9-9,1.8C-42.4,206.7-42.7,206.7-43.1,206.7z"/>
	<path class="st141" d="M-16,197.8c-2.5,2.9-5.9,1.8-9,2C-22.2,198.2-19,198.5-16,197.8z"/>
	<path class="st142" d="M-35.1,242.8c-3.5,1.3-7.2,1.1-10.9,1C-42.6,240.4-38.8,241.5-35.1,242.8z"/>
	<path class="st143" d="M-64,234.8c-1.7,0-3.3,0-5,0c3.8-3.8,9-3,13.6-3.8c4-0.7,8.2,0,12.3-0.2c3.6-0.1,7.5-0.1,9-4.6
		c0.4-0.1,0.7-0.3,1.1-0.4c0.4-0.5,0.6-0.4,0.8,0.2c4.3,2.2,8.2,0.2,12.1-1.3c4,0.2,8.1,1.7,12.1,0c1.5-0.6,3.8-1.8,4.1,0.5
		c0.2,1.7-1.4,4-3.9,4.2c-3.9,0.3-7.8,0.1-11.3,2.4c-11,0.4-21.7,3.9-32.9,3.1C-55.9,234.6-60,232.1-64,234.8z"/>
	<path class="st59" d="M-16,208.7c0.5-1.5,2.2-1.7,3.1-2.8c1.4,0.1,2.9-0.4,3.9,0.9C-11.3,207.4-13.7,208-16,208.7z"/>
	<path class="st144" d="M-30,162.8c1,0,2,0,2.9,0c8,0,8,0,6.1,7c0.4,0.5,0.5,1.1,0.3,1.7c-1.7,2.2-4.1,1.8-6.4,1.9
		c-7.4,0.2-14.6,0.9-22,2.2c-8.7,1.5-17.5,2.7-26.2,4.6c-1.1-0.1-2.1-0.4-2.8-1.3c-0.6-0.9,0.8-2,0-2.8c-1.1-1.2-2.9-2-1.8-4
		c1.2-2.2,3.2-3.4,5.5-3.9c1.7-0.4,3.7-0.1,5.3-1.2c10.7,0.4,21.1-2.4,31.6-3.5C-34.9,163.1-32.4,162.9-30,162.8z"/>
	<path class="st145" d="M-69,166.8c-1.2,2.8-4.1,1.5-6,2.5c-1.8,0.9-4.1,1.9-4.1,3.8c0,2.6,3,1,4.4,2c-0.3,1.8-2.1,1.7-3.2,2.6
		c-1.9,1.9-4.4,1-6.6,1.7c-1.4,0.4-3.9-0.1-3.5,2.4c0.3,1.9,2.3,1.5,3.7,1.5c2.6,0.1,5.4-0.6,7.7,1.2c0.3,0.7,0.3,1.4-0.3,2.1l0,0
		c-5.3,2-10.6,1-15.9,0l-0.2,0.2c-2-1.1-5.5,0-5.7-3.5c-0.2-3.3,2-5.1,4.9-6c2.3-0.7,3.2-1.9,2.9-4.3c-0.1-1,0.1-2.4,1.8-2.2
		c6.1-2.7,12.8-2.7,19-4.9C-69.7,166.2-69.3,166.5-69,166.8z"/>
	<path class="st146" d="M-21,170.8c0-0.3,0-0.7,0-1c3.1,0.7,6.3-1.5,9.5,0.8c1.7,1.3,2.5,2.4,2.6,4.3l0,0c-2.7,1.4-5.5,0.9-8.3,0.7
		C-19.3,174.7-19.7,172.4-21,170.8z"/>
	<path class="st147" d="M-18,174.8c3,0,6.1,0.1,9.1,0.1c-2.5,3.1-6.1,1.1-9.1,2c-1.9,2.2-4.6,1.6-7,1.9c-6.5,2.4-13.2,2.1-20,2
		c-1.2-2.4,0.7-3.1,2.3-3.2c7.4-0.5,14.7-2,21.9-3.7C-19.7,173.7-18.8,174.1-18,174.8z"/>
	<path class="st148" d="M-32.2,226c-0.3,0-0.5-0.1-0.8-0.2c2.2-2.6,5.3-1.2,7.9-1.8C-27,226.7-29.8,225.3-32.2,226z"/>
	<path class="st149" d="M-83.9,198.7c-0.2-0.4-0.2-1.1-0.6-1.3c-1.9-1.1-5.5,0.1-5.6-2.8c-0.1-2.4,3.7-2,5.1-3.8
		c1.7-0.1,3.4,0,4.9,1.1c1.8,0.3,2.7,2,4.1,2.9c0.4,0.4,0.8,0.8,1.2,1.2c0,0.3-0.1,0.5-0.2,0.8c-1.8,1.9-4.1-0.1-6,1
		C-82,198.2-82.7,199.1-83.9,198.7z"/>
	<path class="st150" d="M-92.9,186.8c5.3,0,10.6,0,15.9,0c0,0.4,0,0.7,0.1,1.1c-2.2,1.5-4.7,0.5-7,1c-1.7,0-3.4,0-5-0.1
		C-89.8,187.2-92,188.4-92.9,186.8z"/>
	<path class="st151" d="M-76.1,194.7c-2.4,0.5-3.2-1.2-4.1-2.9C-76.9,190.2-76.7,192.7-76.1,194.7z"/>
	<path class="st152" d="M-81.1,197.7c1.6-3.2,4.1,0,6-1c-0.6,2-2.2,2.1-3.9,2.1C-79.7,198.4-80.4,198.1-81.1,197.7z"/>
	<path class="st123" d="M-45.1,200.8c-0.4,0.8-1.1,1-1.9,1.1c-2.3,0.4-4.6,1.4-7,0.9C-51.2,201.2-48.2,200.7-45.1,200.8z"/>
	<path class="st153" d="M-60.2,188.6c0.7-2.4,2.6-1.7,4.2-1.8C-55.9,191-58.4,188.8-60.2,188.6z"/>
	<path class="st76" d="M-42,206.8c2.8-1.5,6-1.3,9.1-1.9C-35.5,207.6-38.9,206.6-42,206.8z"/>
	<path class="st154" d="M-89,170.8c-3.2,2.2,2.2,5.2-0.3,6.7c-1.9,1.1-4.9,0.7-6.8,2.3c-3,2.4-2,4.4,3.1,7.1c-2,0-4,0.1-6,0.1
		c-0.7,0-1.4-0.1-2-0.1c-1.8-3.7,0.5-5.9,3-8c1.5-3.9,2.3-8.3,7-10C-90.3,169.5-89.7,170.1-89,170.8z"/>
	<path class="st155" d="M-98,178.8c-0.6,2.8-3.1,4.9-3,8c-2.7-0.2-3.3-1.9-2.9-4.1C-103.4,179.3-100.7,179-98,178.8z"/>
	<path class="st156" d="M-18,174.8c-4.6,1-9.2,2-13.8,3.1c-3.1,0.7-6.2,1.1-9.3,1c-1.6,0-3.5-0.5-3.8,2c-5.4,0.6-10.9,1-16.1,2.8
		c-2.2,2.2-4.7,1.2-7.2,0.8c-1.8-0.3-3.5,0.1-5.3,0.3c-1.6,0.2-2.9-0.4-3.7-1.8c-1-1.8-0.3-3.1,1.3-4.1c2.2,0.3,4.1-0.8,6.2-1.5
		c5-1.6,10.1-3.2,15.5-2.6c1.5,0.2,3.2,0.5,4.4-0.1c8.4-4.4,17.4-2.4,26.2-2.9c1-0.1,2-0.1,2.7-1C-17.8,170.5-17.9,172.7-18,174.8z"
		/>
	<path class="st150" d="M-67.9,182.9c2.3,0.4,4.5,1.3,6.8,0.7c-0.3,2.1-0.9,3.5-3.6,3.3c-4.1-0.4-8.2-0.1-12.3-0.1
		c0-0.6,0-1.3,0-1.9C-74.1,183.6-70.7,184.6-67.9,182.9z"/>
	<path class="st157" d="M-67.9,182.9c-2.4,3.5-6.1,1.3-9.1,2c-3.1,0-6.3-0.4-9.3,0.1c-3.6,0.6-3.7-2.6-4.2-4.1
		c-0.8-2.5,2-1.7,3.3-2.2c3-1.2,6.1-0.8,9.2-0.8c0.4,0.8,1.2,1,2,1c-1.6,3.5-1.2,5.4,3.3,4.4C-71.2,182.9-69.5,183-67.9,182.9z"/>
</g>
</svg>
