<svg version="1.1" id="jupiter" xmlns="http://www.w3.org/2000/svg" x="0px" y="0px"
	 viewBox="0 0 148.2 148.2" style="enable-background:new 0 0 148.2 148.2;" xml:space="preserve">
<style type="text/css">
	.st0{fill:#634E36;}
	.st1{fill:#6D3919;}
	.st2{fill:#684D3A;}
	.st3{fill:#564537;}
	.st4{fill:#7F6354;}
	.st5{fill:#483222;}
	.st6{fill:#866B4F;}
	.st7{fill:#775B43;}
	.st8{fill:#5C5649;}
	.st9{fill:#A07A53;}
	.st10{fill:#633C23;}
	.st11{fill:#6D5949;}
	.st12{fill:#878471;}
	.st13{fill:#513F2C;}
	.st14{fill:#715139;}
	.st15{fill:#8E6747;}
	.st16{fill:#675148;}
	.st17{fill:#A37342;}
	.st18{fill:#64341D;}
	.st19{fill:#825E3A;}
	.st20{fill:#856850;}
	.st21{fill:#5E4835;}
	.st22{fill:#8F816F;}
	.st23{fill:#936F50;}
	.st24{fill:#876544;}
	.st25{fill:#8E6B41;}
	.st26{fill:#87725C;}
	.st27{fill:#633C1B;}
	.st28{fill:#82624A;}
	.st29{fill:#BB783F;}
	.st30{fill:#A85F29;}
	.st31{fill:#A56A39;}
	.st32{fill:#985F31;}
	.st33{fill:#8B5C2D;}
	.st34{fill:#705938;}
	.st35{fill:#7A4D2C;}
	.st36{fill:#CA8858;}
	.st37{fill:#F3BC80;}
	.st38{fill:#967251;}
	.st39{fill:#806049;}
	.st40{fill:#73583B;}
	.st41{fill:#8F674C;}
	.st42{fill:#67482B;}
	.st43{fill:#A8805B;}
	.st44{fill:#A08D67;}
	.st45{fill:#A87B56;}
	.st46{fill:#946741;}
	.st47{fill:#7C735C;}
	.st48{fill:#84441F;}
	.st49{fill:#E6A96D;}
	.st50{fill:#A7682E;}
	.st51{fill:#CEAC76;}
	.st52{fill:#EEB88C;}
	.st53{fill:#C29262;}
	.st54{fill:#793C1A;}
	.st55{fill:#91582B;}
	.st56{fill:#A89E85;}
	.st57{fill:#C38F61;}
	.st58{fill:#AE9578;}
	.st59{fill:#D1945A;}
	.st60{fill:#C0B398;}
	.st61{fill:#5E3424;}
	.st62{fill:#974C24;}
	.st63{fill:#A5774C;}
	.st64{fill:#B08660;}
	.st65{fill:#AB835D;}
	.st66{fill:#997759;}
	.st67{fill:#884A20;}
	.st68{fill:#AF7A50;}
	.st69{fill:#A38771;}
	.st70{fill:#DB9D54;}
	.st71{fill:#BE7A31;}
	.st72{fill:#DBA360;}
	.st73{fill:#D7AC74;}
	.st74{fill:#BA9363;}
	.st75{fill:#B15627;}
	.st76{fill:#EFA961;}
	.st77{fill:#C37540;}
	.st78{fill:#F7C683;}
	.st79{fill:#C26E33;}
	.st80{fill:#9B7448;}
	.st81{fill:#AA612D;}
	.st82{fill:#935F31;}
	.st83{fill:#98734C;}
	.st84{fill:#AF8A63;}
	.st85{fill:#A27153;}
	.st86{fill:#C29367;}
	.st87{fill:#CFA16E;}
	.st88{fill:#C09F75;}
	.st89{fill:#95886F;}
	.st90{fill:#A27A4F;}
	.st91{fill:#A8542B;}
	.st92{fill:#BB7A5A;}
	.st93{fill:#D78541;}
	.st94{fill:#EFBD7C;}
	.st95{fill:#F7CB8E;}
	.st96{fill:#C97E3D;}
	.st97{fill:#C88957;}
	.st98{fill:#E3BA89;}
	.st99{fill:#D4B48E;}
	.st100{fill:#D69D6D;}
	.st101{fill:#B15928;}
	.st102{fill:#EBAB6A;}
	.st103{fill:#DAC092;}
	.st104{fill:#D2C4A9;}
	.st105{fill:#AB6D3B;}
	.st106{fill:#D7864C;}
	.st107{fill:#CC7439;}
	.st108{fill:#BD692C;}
	.st109{fill:#CA7E49;}
	.st110{fill:#C79164;}
	.st111{fill:#B98355;}
	.st112{fill:#926337;}
	.st113{fill:#CA996D;}
	.st114{fill:#B78051;}
	.st115{fill:#B69B7E;}
	.st116{fill:#9F4924;}
	.st117{fill:#D7AE82;}
	.st118{fill:#CB7D40;}
	.st119{fill:#F6DDA8;}
	.st120{fill:#D98E3F;}
	.st121{fill:#F0B470;}
	.st122{fill:#EECF98;}
	.st123{fill:#F7D191;}
	.st124{fill:#C6732C;}
	.st125{fill:#EFBA85;}
	.st126{fill:#CD9761;}
	.st127{fill:#F9C07B;}
	.st128{fill:#C3672B;}
	.st129{fill:#D57C3E;}
	.st130{fill:#DC753C;}
	.st131{fill:#D57B34;}
	.st132{fill:#B1936B;}
	.st133{fill:#BA8557;}
	.st134{fill:#C8B089;}
	.st135{fill:#C99E71;}
	.st136{fill:#AB997F;}
	.st137{fill:#BC672C;}
	.st138{fill:#D78A57;}
	.st139{fill:#F1B17C;}
	.st140{fill:#F9E1AB;}
	.st141{fill:#DC8F48;}
	.st142{fill:#B97A47;}
	.st143{fill:#EED09B;}
	.st144{fill:#E5D4B7;}
	.st145{fill:#CBBEA3;}
	.st146{fill:#E4D4B9;}
	.st147{fill:#F2CBA2;}
	.st148{fill:#BC6C31;}
	.st149{fill:#BB7736;}
	.st150{fill:#E5BE91;}
	.st151{fill:#E39153;}
	.st152{fill:#E3B17A;}
	.st153{fill:#DE8B47;}
	.st154{fill:#B8A890;}
	.st155{fill:#ADA58F;}
	.st156{fill:#F3E7C7;}
	.st157{fill:#DDD1BC;}
</style>
<g>
	<path class="st0" d="M70,138c-10.4-0.3-20.1-2.1-29.3-7.8c-6.8-4.2-13.5-8.3-19.1-14.1c-1.1-1.2-2.7-2.1-2.7-4
		c-1-1.5-0.8-2.9,0.4-4.2c1.3-1.1,2.7-2.2,4.5-2.2c1.5,0.7,1.6,1.9,0.8,3.2c-0.7,1.1-0.6,2.1,0.1,3.2c2.1,3,4.1,6.2,7.6,7.8
		c1.8,2.9,5.2,2.5,7.9,3.6c2.2,1.5,4.5,1.9,7,1.3c2.2-0.5,3.8,0.1,3.8,2.4c-0.1,3.6,2.1,4.2,4.9,4.9c2.9,0.6,5.7,1.7,8.6,2.1
		C66.4,135.3,70.5,133.5,70,138z"/>
	<path class="st1" d="M12,94c0-0.6,0-1.3,0-1.9c-2.3-2.2-1.4-4.8-1-7.3c0.4-0.2,0.9-0.4,1.4-0.3c2.8,0.8,3,3.5,3.8,5.6
		c0.6,1.7,0.9-0.5,1.4-0.1c6.8-1,13.6-0.2,20.3-0.2c0.6,0.1,1.1,0.2,1.7,0.4c0.5,0.2,1,0.6,1.4,1c2.2,4,2.2,4-3.2,5.9
		c-2.7,0.5-5.4,0.4-8.1,0.2c-3.6-0.8-6.9,1.4-10.5,1.1c-1,0-2-0.2-2.9-0.6C14.8,96.5,12.7,96,12,94z"/>
	<path class="st2" d="M70,138c-0.7-3.7-4.6-0.7-6-3c2.1-4.3,6-2.5,8.9-2c3.6,0.5,6.8,0.3,10-1c5.2-1.4,10.7-1.4,16-2.3
		c2.7,0.6,5.6-1.8,8.3,0.5c-5.2,3.7-11.2,5.9-17.3,6.5C83.3,137.2,76.8,141,70,138z"/>
	<path class="st3" d="M27,28.9c8.4-9,18.9-14.4,30.9-17c4.7-1,9.3-2.4,14.1-1.9c-1.2,3.9-5.5,1.6-7.6,3.7c-0.7,0.3-1.4,0.4-2.2,0.5
		c-7.1,1.1-12.8,5.5-18.9,8.7c-4.2,1.3-7.8,3.5-11.1,6.5c-1.7,1.6-3.3,4.1-6.4,2.7C24.9,30.6,26,29.8,27,28.9z"/>
	<path class="st4" d="M62,13.1c0.7,0,1.3-0.1,2-0.1c8-1.4,16-2.8,24.1-2c1.7-0.1,3.4,0.1,4.9,1c1.3,2.1,0.6,3.6-1.3,4.8
		C82.9,18.1,74,17.5,65,17.7C59.6,17.1,59.4,16.8,62,13.1z"/>
	<path class="st5" d="M11,85.1c1.9,2.1,0,4.8,1,7.1c-2.5,0.1-3.3-0.8-4.2-3.5c-3-9.3-1.4-18.5,0.2-27.7c0.9,0.7,1.2,1.7,1.4,2.8
		c0.1,2.6,0.1,5.3,1.8,7.6c0.8,1.2,0.6,2.5-0.2,3.7C7.5,78.4,11,81.7,11,85.1z"/>
	<path class="st6" d="M113,20c3.6,2.4,7.4,4.4,10.1,7.9c0,1-0.2,1.9-1.2,2.4c-2.3-0.2-3.9-2.3-6.3-2.2c-3.3-1.9-6-4.5-10.3-4.7
		c-2.2-0.1-4.4-2.3-3.4-5.4C106,16,109.2,19.4,113,20z"/>
	<path class="st7" d="M107.2,130.1c-2.8-0.2-5.4,1.5-8.2,0.8c0.2-2.9,2.6-3.5,4.7-4c2.2-0.6,4.3-1.4,5.8-3.2
		c2.9-2.4,5.5-5.3,8.7-7.4c1-0.3,2-0.3,2.9,0.4c1.1,3.7-2.2,5.2-3.9,7.4C114.2,126.8,110.8,128.6,107.2,130.1z"/>
	<path class="st8" d="M8,64C8,63,8,62,8,61c0.9-6.6,4.2-12.2,7.1-18c1.5-0.5,2-3,4.2-1.9c0.2,0.4,0.4,0.9,0.4,1.4
		c-0.4,2.9-2.1,5.3-3.6,7.6c-2.8,4.5-2.3,9.8-4.3,14.4C10.4,65.2,9.2,65,8,64z"/>
	<path class="st9" d="M141.8,59.1c0.1,0.7,0.2,1.4,0.3,2c1.2,2.5-0.3,3.8-2.2,5c-2,1.1-3.9,2.6-6.4,1.4c-0.4-0.3-0.7-0.7-0.8-1.1
		c-0.2-2,3.2-4.1-0.3-5.9c-2.7-0.7-4.6,0.9-6.7,2.1c-0.8,0.1-1.5,0-2-0.7c-0.6-1.5,0.1-2.6,1.1-3.5c2.3-1.7,4.9-1.7,7.6-1.8
		c1.8-0.1,3.6,0.2,5.3-1C140.6,54.7,140.9,57.3,141.8,59.1z"/>
	<path class="st10" d="M143,75c0.1,6.2-0.1,12.3-2.9,18c-2.1,0-4.5,1-6.3-1.1c0.3-3.5,3.9-5.1,4.7-8.3c0.6-2.4-1.9-4.8-0.1-7.2
		C139.8,75.2,141,73.7,143,75z"/>
	<path class="st5" d="M12,94c1.3,1.1,3.8,0.4,4,3c0,1.8,0.9,3.4,1.5,5.1c0.6,1.4,2,2.1,3,3.2c1.1,1.2,0.7,2-0.5,2.8
		c-0.8,1.2-1.1,2.6-1.1,4c-3.2-4.9-6.6-9.8-8.5-15.4C9.9,95.3,10.9,94.6,12,94z"/>
	<path class="st11" d="M113,20c-3.8,0.1-7.4-1.2-11-2c-0.7,0.5-1.4,0.6-2.2,0.4c-2.3-1.8-5.6-0.2-7.8-2.5c0.7-1.3,1.1-2.6,1-4
		C100.4,12.8,106.8,16.3,113,20z"/>
	<path class="st12" d="M122,30c0.1-0.9,0.3-1.6,1.1-2.1c4.8,3.4,7.9,8.2,11.1,13c0.4,0.7,0.4,1.5,0.1,2.2c-5.3,1.2-6.5-3.9-9.1-6.4
		c-1.3-1.3-2.5-3.4-3.4-5.3C121.5,30.9,121.6,30.4,122,30z"/>
	<path class="st13" d="M19,41c-1.4,0.6-2.2,2.1-3.9,2c3.1-5.5,6.4-10.7,11.9-14.1c-0.3,1-0.6,2.1-0.9,3.1C26.9,36.6,24.2,40,19,41z"
		/>
	<path class="st14" d="M136,102c-1.9,3-3.1,6.6-6,9c-1.2-1.1-2.4-2.1-4.3-1.8c-1.6,0.3-2.5-0.5-2.1-2.3c0.8-1.5,2.1-2.5,3.3-3.6
		c1.7-1.1,3.5-1.8,5.5-2.3C133.7,100.9,135,100.9,136,102z"/>
	<path class="st15" d="M124.1,107.1c0.1,1.5,1,1.3,2,1c2.9-1.1,3.7,0.6,4,3c-1.3,1.7-2.7,3.3-4,5c-1,0.8-2.1,1.2-3.4,0.7
		c0.1-2.9-1.4-5.3-2.8-7.7C120.9,107.6,122.1,106.3,124.1,107.1z"/>
	<path class="st16" d="M88.1,10.9c-8.1,0.4-15.9,2.9-24.1,2c1.9-2.9,5.7-0.9,8-3C77.4,10.2,82.8,9.1,88.1,10.9z"/>
	<path class="st17" d="M143,75c-1.7-0.1-2.6,1.4-4,2c-2,1.3-3.9,2.8-6.5,1.6c-0.4-0.3-0.8-0.7-0.6-1.2c0.4-1.2,4.1-4.2,3.9-4.1
		c-1.9,0.3-3.4-0.1-2.7-2.6c2.6-1.4,4.9,0.3,7.3,0.8c1.1,0.2,1.9,0.8,2.6,1.5C143,73.7,143,74.4,143,75z"/>
	<path class="st18" d="M141.8,59.1c-1.5-0.6-1.7-3-3.8-3c-3.3,1.2-4.8,0.1-3.9-3.5c0.4-1.4,0.2-2.9,0.6-4.4c0.3-0.4,0.7-0.5,1.2-0.3
		C140.8,50.1,140.5,55,141.8,59.1z"/>
	<path class="st19" d="M143,73c-1,0-2,0-3,0c-1.8-2.5-2.3-5.1-0.9-7.9c1.7-0.8,3.2-1.8,3-4C143.8,65,143,69,143,73z"/>
	<path class="st20" d="M135.9,48c-0.3,0-0.6,0-0.9,0.1c-1.9,1.8-4.2,1.4-6.5,1.3c-1.1-0.2-2.1-0.6-2.7-1.6c0-1.3,1-1.7,1.8-2.3
		c2-1.2,4.6-0.8,6.4-2.4c0.1-0.7,0.1-1.4,0.2-2.1C136.3,42.9,135.8,45.5,135.9,48z"/>
	<path class="st21" d="M122,116c1.3,0,2.6,0,3.9-0.1c-2.6,3.1-4.9,6.5-8.9,8.1c1.3-2.3,2.7-4.7,4-7C121.1,116.5,121.5,116.1,122,116
		z"/>
	<path class="st22" d="M136,102c-1.3,0-2.6,0.1-3.9,0.1c-0.7-3.1,1.8-4.8,3.2-7c0.9-0.7,1.6-1.7,2.7-2.1c1-0.3,1.6,0.1,1.1,1.2
		C139.1,97.3,137.3,99.5,136,102z"/>
	<path class="st23" d="M139.1,94.3c-1.9-1.1-1.1,2.8-3,1.7c-1.9-0.4-2.5-2.8-4.6-3c-1-1.8-1.4-3.5,1.6-3.6c0.8,0.3,1.4,0.7,1.1,1.7
		c1.6,1.9,4.5-0.1,6,1.9C139.8,93.4,139.5,93.9,139.1,94.3z"/>
	<path class="st24" d="M83,133c-2.9,2.1-6,2.2-9.4,1.4c-3.1-0.7-6.5-1.3-9.6,0.6c-4.4,0.3-8.3-2-12.5-2.8c-4.1-0.8,0.2-4.6-2.7-6.3
		c-2.7,0.8-6.2,1.9-8.8-1.9c-0.2-0.2-0.3-0.5-0.3-0.8c0.1-0.3,0.1-0.4,0.2-0.4c2.2-0.2,4.3-0.5,6.5-0.9c4.4-0.1,8.3,2.9,12.8,2.3
		c2.3-0.1,4.1,1.1,5.7,2.6c-0.3,3,0.9,4.3,4,3.9c1.2-0.2,2.5-0.1,3.8-0.2c2.4,0,4.8-0.1,7.2,0.1C81.4,131,83,130.9,83,133z"/>
	<path class="st25" d="M24,112c-2.5-0.4-2.4-1.8-1-3.3c0.8-0.8,1.7-1.4,0.9-2.7c-0.2-0.9,0.3-1.3,1.1-1.5c1.5,0,3,0.3,4.4,1.1
		c2.8,2.7,2.5,5.1-0.8,7.1C27,113.4,25.4,113.3,24,112z"/>
	<path class="st26" d="M24,112c1.6,0,3.3-0.1,4.9-0.1c0.4-0.3,0.8-0.3,1.3-0.1c0.8,0.9,1.2,2,1.6,3c0.6,1.5,1.4,3,0.6,4.7
		c-0.2,0.2-0.3,0.3-0.5,0.5C26.8,119.9,25.7,115.6,24,112z"/>
	<path class="st27" d="M25,105.1c-0.3,0.3-0.7,0.7-1,1c-1.3,0.6-2.2,2.1-3.9,2c0.8-3.4-3.1-3-4-5c1.6-1.7,3.9-1.2,5.9-1.9
		c1.1-0.2,2.2-0.1,3.1,0.5C25.9,102.8,27.5,104,25,105.1z"/>
	<path class="st28" d="M40,123c0,0.3,0,0.7,0,1c-3.1-0.5-7.4,1.5-8-4c0,0,0-0.2,0-0.2C36,117.7,38.4,119.5,40,123z"/>
	<path class="st29" d="M39.9,91.2c-0.3,0-0.6-0.1-0.9-0.3c-2.6-0.9-5.3-0.6-7.9-0.3c-4.2,0.4-5.7-1.6-5.9-5.3
		c-0.1-1.7-0.4-3.3,0.1-4.9c0.3-0.8,0.9-1.5,1.6-1.9c1.5-0.8,3.2-0.8,4.9-0.8c1.3,0.1,2.6,0.1,3.7,0.8c0.4,0.3,0.9,0.9,0.6,1.2
		c-4.6,4.4-0.2,4.2,2.5,4.9c1.3,0.9,0.8,2.5,1.5,3.6C40.5,89.2,41,90.3,39.9,91.2z"/>
	<path class="st30" d="M37.9,95.8c0.7-1.3,5.9-0.1,2.1-3.9c0.6-0.5,1.3-0.7,2.1-0.7c6.7,0.5,13-1.4,19.3-3.1
		c1.2-0.4,2.3-0.9,3.6-0.8c0.5,0.1,0.9,0.3,1.3,0.7c0.3,0.7,0.3,1.4,0,2.1c-1.4,1.8-3.3,2.7-5.5,3c-1.7,0.3-3.1,0.9-4,2.5
		c-0.6,0.8-1.2,1.6-2.2,2c-4.7-0.6-9.3,2.5-14.1,0.6C39.7,97.5,38.4,97.1,37.9,95.8z"/>
	<path class="st31" d="M26,80c1.1,3.1-0.5,7.3,2,9.3c2.3,1.9,6.1,0.3,9.2,0.7c0.6,0.1,1.2,0.6,1.7,0.8c-7.7,0-15.3,0-23,0.1
		c-0.3-0.7-0.3-1.5,0.2-1.8c3-2,2.6-4.6,1.7-7.4c1.6-1.1,3.5-1.6,5.2-2.4C24.3,79.1,25.3,79.1,26,80z"/>
	<path class="st32" d="M25,102.1c-1,0-2,0-3,0c-4.2,0.2-4.2-2-3-5c3.4,0.6,6.4-2.6,10-1c1.1,1.6,3.7,0.3,4.5,2.4
		c0.3,1.5-0.4,2.5-1.4,3.5C29.8,103.5,27.4,103.9,25,102.1z"/>
	<path class="st33" d="M18,82.1c3,2.3,5.1,4.5-0.1,6.8c-0.8,0.3-1.3,1.4-1.9,2.2c-2.7-1.1-1.1-5-4-6c-1.3-1.5-1.5-3.2-0.5-4.9
		C14.5,78.1,16.6,79.1,18,82.1z"/>
	<path class="st34" d="M12.1,80c0,1.7,0,3.3,0,5c-0.4,0-0.7,0-1.1,0.1c-2.4-3.2-5.5-6.3-1-10.1c0.4-0.3,0.8-0.4,1.3-0.1
		c0.4,0.3,0.7,0.7,0.9,1.1C12.9,77.3,13.2,78.7,12.1,80z"/>
	<path class="st35" d="M19.1,97.1c0,2.2,0.2,4.4,3,5c-1.8,1.7-4,0.7-6,1c0-1.4-0.2-2.6-1.1-3.7c-1.1-1.4-0.4-2.1,1.1-2.3
		C17,97,18,97,19.1,97.1z"/>
	<path class="st36" d="M33,98.1c-1-1.3-4.4,2.1-4-2c3-0.1,5.9-0.2,8.9-0.3C39,96,40.3,95.7,41,97c-1.1,2.2-3.1,1.1-4.8,1.4
		C35.1,98.4,34,98.7,33,98.1z"/>
	<path class="st37" d="M42,91.9c-0.7,0-1.3,0-2,0c0-0.3-0.1-0.5-0.2-0.8c-0.3-1.1-0.6-2.1-0.9-3.2c1.6-2.6,3.6-2.4,5.1-0.3
		C45.7,89.9,44.5,91.4,42,91.9z"/>
	<path class="st38" d="M83,133c-0.7-1.1-1.9-1-3-1c0.3-2.9,3.1-2.9,4.8-4c4.6-1.2,9.1-2.8,14-2c3.1,0.5,3.6-2.3,5.2-3.7
		c2.5-1.1,5.1-2.6,6.1,1.7c-0.3,2.7-2.4,3.7-4.5,3.8c-2.8,0.1-4.7,1.5-6.6,3.1C93.7,132.2,88.4,132.6,83,133z"/>
	<path class="st39" d="M62,13.1c-0.3,1-1.5,2-0.6,2.9c0.4,0.4,1.7,0,2.6,0c-0.8,4.8-5.3,5.1-8.5,6.7c-1.6,0.5-3,1.3-4.1,2.5
		c-1.3,0.9-2.7,1.1-4.2,1.2c-2.3-0.2-4.5,1.4-6.8,0.1c-1.5-2.9,1.3-3.3,2.7-4.5C48.9,18.2,54.7,14,62,13.1z"/>
	<path class="st40" d="M43,22c-1,1.3-2,2.7-3,4c0.3,2.3-1.9,2.3-3,3.4c-1.6,1.7-5.5,1.9-3.8,6c0.3,0.8-1.1,1.5-2,1.9
		c-2.9,1.2-5,3.8-8,4.9c-1.4,0.6-2.8,1.1-4.2-0.1c0-0.4,0-0.7,0-1.1c3.1-2.4,6.7-4.4,7-9c5.3-2,8.2-7.5,13.7-9.2
		C40.8,22.4,41.8,22,43,22z"/>
	<path class="st41" d="M55,22c3-1.9,6.8-2.8,9-6c9.3,0,18.7,0,28,0c2.6,0.8,6.1-1.9,8,2c-1.7,1.8-3.8,1.9-6.1,1.9
		c-6.9-2.1-13.4,2-20.1,1.8c-4.5-0.2-8.8,0.9-13.1,2C58.6,24.3,56.4,24.2,55,22z"/>
	<path class="st42" d="M11,75c-0.4,0-0.7,0-1.1-0.1c0.4-0.9,1.4-2,0.5-2.6C7.3,70.1,8.1,67,8,64C9.3,64,10.7,64,12,64
		c0.2,0.2,0.4,0.4,0.6,0.6c1.3,2,1.7,4.3,1.6,6.6C14.1,73.1,13.9,75.2,11,75z"/>
	<path class="st43" d="M94,19c2-0.3,4-0.7,6-1c0.6,0,1.3,0,1.9,0.1c1.2,3,2.6,5.8,6.7,4.2c1.7-0.6,2.7,0.8,3.8,1.7
		c1.2,1,1.6,3,3.6,3.1c0.1,1.6-1.1,1.8-2.2,2.2c-5.9,1.1-11.8-0.9-17.6-0.2c-1.9,0.3-3.7,0.5-5.5-0.3c-3.1-4.7,2.2-3.1,3.8-4.9
		c-2.5-2-5.2-2.1-8.1-1.2c-2.1,0.7-4.3,2.2-6.5,0.2c1.8-3.7,5.2-4.4,8.9-4.4C90.5,18.5,92.2,18.9,94,19z"/>
	<path class="st44" d="M114,28.1c0.8-0.1,1.6-0.2,2-1c2.9-0.9,4.1,1.7,6,3c0,0.3,0,0.7,0,1c-0.4,1.4-1.6,1.9-2.9,2
		c-0.8,0-1.5-0.1-2.2-0.4C115.5,31.4,113.8,30.3,114,28.1z"/>
	<path class="st45" d="M122,116c-0.3,0.3-0.7,0.7-1,1c-1,0-2,0-3,0c-3,1.5-5.7,4.3-9.6,2.5c-1.7-2.2,0.5-2.8,1.6-3.7
		c1.2-0.9,2.8-0.9,4.1-1.5c1.6-0.6,4.2-0.5,3-3.8c-0.3-0.9,1.2-2.2,2.8-1.7c0.5,0.4,0.9,1,1.5,1.2C125.7,111.8,125.3,113.8,122,116z
		"/>
	<path class="st46" d="M108,118.9c3.7,1.1,6.5-2.1,10.1-1.9c-2.2,2.9-4.7,5.4-8,6.9c-1.5-3.3-3.9-1.2-6-1c-1.5,0.3-1.6-0.8-1.8-1.8
		c0-1.5,0.5-2.9,1.6-4C105.7,116.4,106.8,117.8,108,118.9z"/>
	<path class="st47" d="M19,42c1.5,0.1,2.8-0.3,4-1.1c0.3,0.4,0.5,0.8,0.6,1.3c-2.4,3.8-2.4,8.7-5.9,12.2c-2,2-1.1,5.3-0.8,8.1
		c-0.1,0.8-0.4,1.5-1,2C14.5,65.2,13.2,65,12,64C12,64,12,64,12,64C9.9,55.2,15.6,49,19,42z"/>
	<path class="st48" d="M128,48.2c2.3,0,4.7-0.1,7-0.1c0.7,1.3,1.6,2.9,0.7,4.2c-2.5,3.4,0.1,3.5,2.3,3.9c-0.4,2.5-2.3,1.9-3.8,1.9
		c-3.1-0.1-6.3,0-9.2,1.2c-1.6,0.3-2.6-0.9-3.8-1.4c-1.2-0.9-2.1-1.9-1.5-3.6c1.9-2.1,5.7-1.4,7.1-4.4C127,49.1,127.5,48.7,128,48.2
		z"/>
	<path class="st49" d="M133,65.8c0,0.3-0.1,0.7-0.1,1c-0.1,0.2-0.3,0.4-0.4,0.6c-7.3,1-14.2,4.3-21.8,3.1c-0.5-0.2-0.8-0.5-0.9-1
		c0.8-3.6,4.7-1.8,5.7-3.3c-4.8-1.1-10.3-2.7-16-1.3c-0.8-0.2-1.5-0.6-1.7-1.4c0.8-2.9,3.3-2.7,5.5-2.9c3.6-0.3,7.2,0.5,10.7-0.6
		c1.2-0.5,2.5-0.9,3.9-0.5c1.4,1,2.6,2.3,4.4,2.8c2.2,1.2,4.6,0.1,6.8,0.4C130.8,62.9,133.8,62.1,133,65.8z"/>
	<path class="st50" d="M139.1,65.1c0.3,2.6,0.6,5.3,0.9,7.9c-2.3-0.9-4.5-2.1-7-1.9c-3.3,3.2-7.4,2.6-11.4,2.6
		c-1.6-0.2-2.5-1.2-2.1-2.7c0.5-1.8,2.3-2.4,3.9-2.4c3.3,0,6.5-0.3,9.5-1.7c0,0,0-0.1,0-0.1C135.3,67.5,137.2,66.3,139.1,65.1z"/>
	<path class="st51" d="M133,65.8c-0.7-2.7-2.9-1.5-4.5-1.8c-2.5-0.4-5.3,1-7.6-1.1c0.5-2.1,1.8-1.7,3.2-0.9c0.6,0,1.2-0.1,1.7-0.1
		c2-2,5-1.2,7.2-2.7C137.9,61.4,135.4,63.6,133,65.8z"/>
	<path class="st52" d="M124.1,62c-1.1,0.1-2.3-0.1-3.2,0.9c-2.4,0.4-3.1-0.9-3-2.9c-0.3-3.4,2.5-2.3,4.2-2.8c1.6-0.3,1.7,1.4,2.7,2
		C124.7,60.1,124.4,61,124.1,62z"/>
	<path class="st53" d="M133.1,59.1c-1.7,2.9-4.6,2.2-7.2,2.7C127.3,58.4,130.3,59,133.1,59.1z"/>
	<path class="st54" d="M132,77.9c2.5,0.6,4.6-1,7-0.9c-0.6,2.5,1.9,4.5,0.9,7c-2.8,0.4-5.5,1.4-8.2,2c-1.4-1.6-3-3-5.3-3.2
		c-2-0.2-3.6-0.9-2.5-3.5C126.3,77.4,129,76.7,132,77.9z"/>
	<path class="st55" d="M132,86c2-3.3,4.8-3.2,7.9-1.9c-1.2,3-3.6,5-5.8,7.1c-0.4-0.4-0.7-0.9-1.1-1.3C133,88.5,130.6,87.7,132,86z"
		/>
	<path class="st56" d="M119,32.1c1-0.3,2-0.7,3-1c3,3.4,6.2,6.7,8.9,10.3c1,1.3,1.8,1.7,3.1,1.7c-0.7,3.3-3.8,2.3-5.8,3.2
		c-1.8-2.2-3.4-4.4-6.1-5.9C119.4,38.7,120.4,34.7,119,32.1z"/>
	<path class="st57" d="M108,118.9c-1.8,0.4-2.8-0.7-3.9-1.8c-0.2,0-0.5-0.1-0.7-0.1c-2.6-1.2-5.7,0-8.3-1.5
		c-2.2-2.5,1.9-4.3,0.7-6.7c2.8-3.2,7.5-1.7,10.6-4.3c4.3,0.7,8.3-1.1,12.5-1.7c1.8-0.3,3.6-0.3,5.4-0.1c1.1,0.1,2.1,0.4,2.8,1.4
		c-0.2,1.9-1.9,2.1-3.1,3c-1.4,0.6-2.7,1.3-4.1,1.9c-0.7,1-3.3,0.6-1.5,3.3c0.8,1.3-1.2,3.7-3.6,3.6C112,115.8,110,117.2,108,118.9z
		"/>
	<path class="st58" d="M127.1,104.1c-1.1,0-2.1-0.1-3.2-0.1c-1.2-2.4,1.2-2.6,2.2-3.6c1.6-1.6,4.6-2.3,4-5.5c-0.5-1.9-0.3-3,2-1.8
		c2.5-0.6,2.5,2.1,4,2.9c-1.3,2.1-2.7,4.1-4,6.2C130.7,103.4,128.9,103.6,127.1,104.1z"/>
	<path class="st59" d="M132,77.9c-2.5,1.4-5.6,0.4-7.9,2.2c-1.3,1.1-2.8,1.4-4.5,1.1c-0.5-0.1-0.9-0.3-1.3-0.6
		c-0.3-4.3,3.8-3.2,5.8-4.8c-0.3-1.1-1.7-0.7-2.2-1.5c-0.3-0.4-0.2-0.9,0.1-1.3c3.7-0.6,7.3-1.3,11-1.9c0.7,1.5,2.3,1.7,3.5,2.4
		C135.7,75.8,133.5,76.5,132,77.9z"/>
	<path class="st60" d="M119,32.1c1.3,1.8,5.1,2.6,2.5,6.2c-0.5,0.6,1,1.6,2,1.7c3.9,0.3,4.7,3,4.7,6.3c-0.5,0.9-1.3,0.8-2.1,0.8
		c-1.3,1.3-2.8,1.4-4.4,0.7c-0.3-3.3-2-4.8-5.4-5.1c-2.8-0.2-5.9-0.8-4.5-5.1c0.5-1.7-1-1.8-2.1-2c-1.7-0.4-3.7,0.1-5-1.7
		c-0.4-2.1,1-2.9,2.6-3.5c3.4-0.1,6.8-0.2,9.8,1.7C117.7,32,118.3,32,119,32.1z"/>
	<path class="st61" d="M121.1,47.2c1.6-0.4,3.3-1,5-0.2c0.6,0.4,1.3,0.8,1.9,1.2c0,0.6,0,1.2,0,1.7c-2.2,2.7-5.1,2.6-8.1,2.1
		c-2-1-2.9-2.2-0.9-4.1C119.6,47.4,120.3,47.1,121.1,47.2z"/>
	<path class="st62" d="M119,80.1c1.7,0,3.4,0,5-0.1c0.1,1.9,1.2,1.7,2.7,1.7c2.7,0,5.3,0.7,5.3,4.2c0.3,0.6,0.5,1.6,0.8,1.6
		c3.9,0.4,0.4,1.5,0.2,2.3c-2.6,0.4-0.8,2.1-1,3.2c-1.3,0.1-1.9,0.6-1.1,1.9c-3.3,3.9-4.4,4-10.6,1c-0.5-0.3-1-0.7-1.3-1.3
		c-0.2-0.4-0.6-1.1-0.7-1c-0.4,0.4,0.2,1-0.1,1.6c-1.8,2.1-4.5,1-6.6,1.9c-1.5,0.2-3,0.2-4.3-0.7c-0.8-3.5,3.8-3.1,4.2-5.6
		c2.4-2.2,5.3-2.1,8.3-2.1c0.6,0,0.6,0,0.6-0.8c0-0.2-0.5-0.4-0.7-0.6c-0.3-0.3-0.1-1.2-0.7-1c-3.3,1-5-0.9-5.1-3.5
		C113.8,79.3,117.1,80.6,119,80.1z"/>
	<path class="st63" d="M103,121c0,0.8,0.2,1.5,1,2c-0.5,4.2-3,5.2-6.8,4.2c-4.3-1.1-8.1,1.7-12.2,1.8c-4.8-1.2-9.7,1.1-14.6-0.4
		c-0.6-3.5-2.8-2-4.8-1.6c-0.2,0-0.4,0-0.7,0c-2.4,0.7-3.7-2-6-1.9c-2.3-1.1-5.3-2-1.2-4.7c2.3-0.8,4.5-0.6,6.8,0.4
		c4.2,1.8,8.4,1.9,12.4-0.6c2-0.5,3.9-0.4,5.9,0.1c4.5,1.3,8.8,0.8,12.9-1.4c0.4-0.2,0.8-0.4,1.3-0.5
		C99.8,117.7,100.9,120.4,103,121z"/>
	<path class="st64" d="M58,121.1c-3,2.2,2.1,2.3,1,4c-0.7,0.9-1.7,2.4-2.6,1.4c-2.9-3.2-7-2.1-10.4-3.5c-0.3-0.3-0.5-0.7-0.4-1.2
		c0.2-0.8,0.7-1.7,0-2.3c-1.3-1-2,0.8-3.1,1c-2.9,0-5.8,0.1-7.8-2.7c0.3-2.2,2.1-4,1.9-6.3c0.5-0.8,1.5-1.4,2-0.8
		c1.8,2,1.7-0.7,2.6-0.9c3.4,2.3,7.3,3.1,11.3,3.4c2.1,1.9,6.3,0.5,7,4.5C59.6,119.1,58,119.7,58,121.1z"/>
	<path class="st65" d="M70,128c3.7-0.3,7.5-0.6,11.2-0.9c1.6-0.1,3.5-0.6,3.8,1.9c-1.7,1-3.3,2-5,3c-2.7,0-5.3,0-8-0.1
		c-0.8-0.6-1.8-0.4-2.8-0.4c-1.1-0.1-2.4,0.2-2.6-1.4c-0.2-1.3,0.8-2,1.9-2.4C69.1,127.5,69.6,127.6,70,128z"/>
	<path class="st66" d="M35,117c1.7,3.5,5.7,0.9,8,3c1.4,0.1,2.5,0.8,3,2.1c0,0.3,0,0.6,0.1,0.9c-2,0.4-4,2.4-6,0
		c-2.5-1.5-4.6-3.8-8-3.1c-0.3-1.6-0.7-3.2-1-4.8C33.3,113.7,34.8,114,35,117z"/>
	<path class="st63" d="M69,128.1c-0.6,1-3.7,2.4,0.3,2.9c1,0.1,2,0.1,2.6,1c-3,0-6.1,0-9.8,0c1.2-2,2-3.5,2.9-4.9c0,0,0,0,0,0
		C66.7,126,68.1,126,69,128.1z"/>
	<path class="st67" d="M25,102.1c2.4-0.2,4.9,0.3,7-1.1c2.6-2.1,5.3-0.4,8-0.5c0.9,0,1.9-0.3,2.8-0.2c1.8,0.7,3.4,2.2,5.6,1.3
		c3.3,0.1,6.4-1.4,9.7-1.1c1.9,0.2,4-0.2,5.1,1.9c-2.1,4.2-6.5,2-9.6,3.4c-0.5,0.2-1,0.3-1.6,0.4c-7.7,0.9-15.3,0.9-23-0.4
		c-1.4-0.1-3,0.4-4.1-1C26.1,104.1,24.7,103.1,25,102.1z"/>
	<path class="st68" d="M29.1,106c7.6-2,15.4,0.6,23.1-0.9c0.9,3-1.2,3.5-3.3,4c-2.6,0.3-5.4-1.4-7.8,0.8c0.7,4.7-3.5-0.3-4,2
		c-2.4,2-4.7,1.7-7,0c-0.3,0-0.7,0-1-0.1C30.2,110,30.7,108,29.1,106z"/>
	<path class="st69" d="M30,112c2.3,0,4.7,0,7,0c1.8,2.7,0.4,4-2,5c-0.8-1.8-2.3-2.1-4-1.9C29.9,114.3,30,113.1,30,112z"/>
	<path class="st70" d="M36,79.1C34.7,79,33.4,79,32,78.9c0.8-2.8,3.2-2.2,5.2-2.4c1.9-0.2,3.9,0.1,5.8,0c2.8-0.1,5.5-0.4,8.1-1.3
		c2.5-0.6,4.1-2.4,5.9-4c1.1-0.7,1.8-1.8,2.9-2.6c2.5-1.1,4.6-2.7,6.1-5c0.9-0.5,1.8-0.5,2.7,0c0.4,0.3,0.6,0.7,0.7,1.2
		c0,2.7-1.9,4.2-3.8,5.8c-0.5,0.5-1.1,0.8-1.7,1.2c-3.7,1.5-2.2,3.6-0.8,5.8c-1.6,2.8-5,2.2-7.2,3.7C48.9,84.6,42.5,81.3,36,79.1z"
		/>
	<path class="st71" d="M36,79.1c4.2,0.5,8.7,0.3,12.6,2.2c3.1,1.6,4.9-1,7.4-1.4c1.6-0.5,3.7-1.2,4.2,0.7c0.8,2.7-1.7,3.8-3.7,5
		c-0.8,0.3-1.6,0.3-2.4,0.3c-5-1.1-10-1.2-15-0.8c-0.5,0.1-1,0.2-1.4,0.2c-2.1,0-4.7,0.8-5.5-2.3C31.2,79.6,34.8,80.5,36,79.1z"/>
	<path class="st72" d="M39,85c5-3.4,10-1.5,15-0.1c-0.1,0.2-0.3,0.4-0.4,0.5c-0.9,0.8-2.5,0.7-3.3,2.3c4,1.2,8.4-1.8,11.8,1.4
		c-5.6,3.1-12.2,1.8-17.9,4.5c-1.1,0.5-1.4-1.2-2.2-1.6c0.8-1.2,3-2,1.3-3.9c-1.4-1.7-2.9-0.7-4.4,0C37.5,87,38.8,86,39,85z"/>
	<path class="st73" d="M44,78c-4,0.6-8.1-1-12,0.9c-1.7,0-3.3,0.1-5,0.1c-1.6,1-2.5,0.1-3.1-1.3c-0.5-1.2-0.1-2.4,1-3.1
		c1.8-1.2,3.7-2.2,5.8-2.8c2.3-0.1,4.6-0.8,7-0.4C39.4,74,43.5,74.3,44,78z"/>
	<path class="st74" d="M31,73c-1.4,0.7-2.8,1.4-4.2,2c-0.9,0.3-2.1,0.4-2.1,1.6c-0.1,1.5,0.9,2.3,2.4,2.5c-0.3,0.3-0.7,0.7-1,1
		c-1,0.1-2,0.1-3,0.2c-1.9,0.9-3.8,1.2-5.1-0.9c-1.1-1.9,0-3.4,1-4.9c1-1.5,2.3-2.7,4.1-3.3c2.6-0.5,5.2-0.8,7.7,0.5
		C31.2,71.9,31.3,72.4,31,73z"/>
	<path class="st75" d="M66,90c0-0.5,0-1.1,0-1.6c0.7-2.7,3.1-2.5,5.1-3.1c4.8-1.4,9.9-0.1,14.8-1.3c1.5-0.2,3-0.2,4.3,0.8
		c1.4,2.9-0.2,4-2.7,4.5c-2.3,0.5-4.7,0.3-6.9,0.8c-2.5,0.5-5,1.1-6.8,1.4c0,0,0.8-0.1,1.6,0.2c2.7,3.6,2.7,3.6-2.2,4.7
		c3.5,0,6.6-1.9,10.1-2c0.8,0.1,1.9,0.2,1.8,1.2c-0.1,2.4-2.2,2.3-3.7,3.1c3.2-0.9,6.6-3.5,10-0.4c0,0.5-0.1,1-0.4,1.5
		c-6.4,3-13.1,3.6-20,3.3c-3.6-2.2-7.6-2.7-11.7-2c-1.6,0.3-3.2,1.2-4.1-1.1c-0.4-1-0.2-1.9-0.1-2.9c0.3-0.6,0.7-1.3,1-1.9
		C58.7,92.1,63.7,93.7,66,90z"/>
	<path class="st76" d="M86.1,85.1c-5,2.1-10.4,0.2-15.4,1.8c-1.5,0.5-3.3,0.4-4.6,1.5c-0.3-0.1-0.7-0.2-1-0.3
		c-1.9-0.6-3.9-0.3-5.8-0.2c-2.1,0.1-4.4,0.1-5.2-2.6c0,0,0.1-0.3,0.1-0.3c0.7,0,1.3,0,1.9,0c3.1-1.3,7.1-0.8,9.1-4.6
		c0.4-0.8,2.1-0.7,3.3-0.7c4.1,0,8.2-0.1,12.3-0.4C82.3,81.3,83.8,83.5,86.1,85.1z"/>
	<path class="st77" d="M55,96.9c0.8,0.5,1,1.2,1,2.1c-2.3,2.1-5,3.2-8.1,2.9c-1.6-0.4-3-1.7-4.9-0.9c-0.6,0.3-1.3,0.7-1.9,1
		c-1.2-1.3-2.8-1.4-4.5-1.4c-0.9,0-2.3,0.3-2.6-0.8c-0.4-1.3,1.2-1.7,1.9-2.6c1.7-0.6,3.4,1,5.1-0.2c1,1.3,2.6,1.5,3.6,0.9
		C48,95.8,51.5,96.8,55,96.9z"/>
	<path class="st78" d="M54,85.2c2.2,1,4.2,2.1,6.8,1c1.6-0.7,3.1,0.4,4.2,1.7c-0.9,0.4-1.9,0.7-2.8,1.1c-3.1-0.1-6.3-0.4-9.4,0.5
		c-1.4,0.4-3,0.9-4.2-0.3c-0.8-0.7-0.7-1.9-0.4-2.8c0.8-2.2,2.8-1.2,4.3-1.4C53,85.1,53.5,85.2,54,85.2z"/>
	<path class="st79" d="M66,90c1.1,1,0.7,1.7-0.5,2.1c-3.1,1-6.3,2-9.4,3C57.8,90.3,63.3,92.8,66,90z"/>
	<path class="st80" d="M23,72c-0.9,0.8-1.9,1.4-2.5,2.3c-3.3,4.3-2.9,5.1,2.5,5.8c-1.1,2.2-3.1,1.8-5,1.9c-2-0.6-3.5-2.8-5.9-2.1
		c-0.3-1.3-0.7-2.7-1-4c2.8-1.4,4.6-4.2,7.2-5.8C20.4,68.9,22.5,68.4,23,72z"/>
	<path class="st81" d="M35.9,97.2c-0.3,0.9-0.6,1.7-1,2.6c1.9,1.2,5.8-3.2,6.1,2.2c-3-0.3-6-0.6-9-1c0.3-1,0.7-2,1-2.9
		C34,97.8,34.9,97.5,35.9,97.2z"/>
	<path class="st82" d="M23,72c-1.1-1.8-2.1-2.6-4.2-0.7c-2.2,2-4.1,4.9-7.7,4.7c0-0.3,0-0.6,0-1c2.7-1.4,2.2-3.9,1.7-6.1
		c-0.3-1.6-0.8-3.2-0.7-4.9c1.3,0,2.7,0,4,0c2.1-2.3,4.7,1,6.9-0.6c0.4,0,0.9,0.1,1.2,0.4c1,1.3,1.4,3.1,3.5,3.2
		c1.6,0.4,3.3,0.5,4.7,1.5c1.2,0.8,3.1,1.7,2.4,3.3c-0.6,1.5-2.5,0.9-4,0.4C28.3,72.1,25.7,72,23,72z"/>
	<path class="st83" d="M23,42.1c0-0.4,0-0.8,0-1.1c3.3-1,5.1-4.7,8.8-5.1c0.2,0,0.6-0.4,0.7-0.6C35,28.8,35,28.8,40,26
		c2.3-0.3,4.7-0.6,7-1c-1,3.1-1,3.1-7,6.3c-0.6,0.2,0.4,1,0,0.5c-0.1-0.1,0-0.2,0.2-0.3c3.1-1.5,6.3-0.9,9.5-0.4
		c1.5,0.6,2.8,1.4,2.8,3.3c-0.1,0.8-0.6,1.4-1.3,1.8c-0.8,0.2-1.4,0-2.1-0.4c-2.3-1.6-4.4-1.4-6.8,0.2c-3.1,2-6.3,4.1-10.4,4
		c-2.5-0.1-4.2,1.8-6.3,2.7C24.7,42.9,23.8,42.9,23,42.1z"/>
	<path class="st84" d="M50,32.1c-3.6,0-7.2,0-11,0c1.1-4.5,6.7-3.3,8-7c1.4-0.2,3,0.4,4.1-1c6.4-0.3,12.8-1.2,19.3-1.1
		c1.8,0.7,2.5,1.7,0.6,3c-1.5,1.1-3.3,1.5-5.1,1.3c-4.3-0.3-8,1.3-11.6,3.1C52.9,31.3,51.6,32.1,50,32.1z"/>
	<path class="st85" d="M70,24c-4.7-0.1-9.4-0.2-13.9,1.2c-2.2,0.6-3.2-1.3-5-1.1c0.7-1.9,2.2-2.1,3.9-2.1c3.4,0.7,6.6,1.4,9.8-1.4
		c2.4-2.2,5.6,0.2,8.6,0c5.6-0.4,10.8-3.3,16.5-2.6c1.4,0.2,3-0.4,4.1,1c-5,0.1-10.2-0.3-14,4c-1.6,1.8-3.7,1.3-5.7,1.3
		C72.9,24.4,71.5,22.3,70,24z"/>
	<path class="st86" d="M73,23.1c2.3,0,4.7-0.1,7-0.1c2.2,0.1,4.3-0.7,6.2-1.7c3.9-2,7-0.1,10.1,1.8c0.5,0.3,1.1,1,1.1,1.5
		c-0.1,0.9-1.1,1.1-1.9,1.3c-1.8,0.5-4.6-1.3-5.4,2c0.3,2-1.4,2.1-2.5,2.2c-2.1,0.3-4,1-5.9,2.1c-2.6,1.6-5.4,1.5-7.1-1.7
		c-0.3-1.3,0.1-2.5,0.8-3.5c0.9-0.7,0.8-0.9-0.4-1.1C73.4,25.7,71.9,25.2,73,23.1z"/>
	<path class="st87" d="M75,30c2.2,2.3,4.4,4.1,6.5-0.1c0.7-1.3,2-0.8,3-0.9c1.9-0.2,3.9,0.7,5.5-1.1c2,0,4,0,6,0c1,1,1,2.2,0.6,3.4
		c-3.1,3.4-7.7,3.1-11.5,3.4c-10,0.8-19.7,3.9-29.9,2.7c-1.6,0-3.1-0.1-4.2-1.4c0.3-0.3,0.7-0.7,1-1c0.8-1.4,2-2.3,3.6-2.2
		C62.2,33.1,68.6,31.2,75,30z"/>
	<path class="st88" d="M96,31c0-1,0-2,0-3.1c2.9-2.3,5.7,0,8.5,0c3.1,0,6.3,0,9.4,0c1.3,1.1,2.5,2.3,3,3.9c-3.4,0.1-6.7,0.1-10-0.9
		C103.3,33,99.7,34.4,96,31z"/>
	<path class="st57" d="M103,121c-1.7,0.7-3.8,2.2-3.8-1.5c0-0.2-1.4-0.3-2.2-0.5c1.4-3.6,4-3.3,6.9-2.1c0,0,0.2,0.2,0.2,0.2
		C103.8,118.4,103.4,119.7,103,121z"/>
	<path class="st89" d="M23,42.1c1,0,2-0.1,3-0.1c0.8-0.6,1.7-0.9,2.7-0.4c-0.1,4.5-3,7.8-5.6,10.7c-2.8,3.1-3.6,5.6-1.7,9.1
		c-0.1,0.5-0.4,0.9-0.9,1.2c-1.6,0.5-3.1,0.5-4.5-0.7c-1.5-4.1-1.2-7.4,2.6-10.7C20.9,49.2,19.8,44.4,23,42.1z"/>
	<path class="st90" d="M16,62c1.7,0,3.3,0,5,0c2.1-0.8,2.7-0.1,2,2c-2.3,4.1-4.7-1.4-7,0C16,63.3,16,62.7,16,62z"/>
	<path class="st91" d="M122.2,57.1c-1,1.5-3.5,0.9-4.2,2.8c-1.2-0.1-2.1,0.4-3,1.1c-0.7,0.5-1.4,0.4-2.1,0.2
		c-2.7-1.4-2.7-3.4-1.3-5.7c2-2,4.6-2.1,7.1-2.2c0.5,0.1,1,0.3,1.3,0.7C120,55.6,120.9,56.5,122.2,57.1z"/>
	<path class="st92" d="M120.1,54c-0.4-0.1-0.7-0.2-1.1-0.2c-1.1-0.7-1.6-1.7-1.1-3c0.4-0.3,0.8-0.2,1.3,0.1c3-0.2,6.1,0.9,8.8-1
		C126.6,53.6,123.3,53.9,120.1,54z"/>
	<path class="st93" d="M113,60.9c0.7,0.1,1.3,0.1,2,0.2c-3.7,1.9-7.7,0.5-11.5,0.9c-2.1,0.2-4.3-0.3-5.6,2c-1.3,1.6-3.2,1.6-5,1.5
		c-7.1-0.2-14.2-0.3-21.2,0.4c-1,0.1-2-0.1-2.7-1c0-0.3,0-0.6,0-0.9c1.2-1.7,0.2-3.9,1.5-5.6c4.3-1.9,22.4-3.3,27.1-2.1
		c0.3,2.5,0.3,2.5-2.1,4.6C101.4,59.4,107.2,58.6,113,60.9z"/>
	<path class="st94" d="M69,64.9c9.6-1.8,19.3-0.7,28.9-1c0.7,0,1.4,0.1,2.1,0.1c-0.6,3.3,0.3,5.2,4.2,4.7c1.9-0.2,4-0.4,5.6,1.2
		l0.3,0.1c0.2,0.9-0.3,1.4-1,1.8c-2.8,1.3-5.9,1.2-8.8,2.1c-0.5,0.2-1,0.3-1.5,0.5c-6,1.2-12.1,2-18.1,0.1c-1.2-3,1.5-2.5,2.8-3.1
		c2.2-0.9,4.9-0.5,6.9-3.4c-5.7-1.2-11-0.4-16.1-0.6c-2-0.3-3.2,0.9-4.6,2.1c-1.4,1.2-2.9,2.1-4.7,0.5C66.3,68.3,67.7,66.6,69,64.9z
		"/>
	<path class="st95" d="M109.8,69.9c-2.3,0-4.6,0.2-6.9,0.1c-1.9-0.1-4.3,0.8-5.3-1.5c-0.9-2.1,2-2.8,2.5-4.5
		c5.8-2.4,11.3-0.5,16.7,1.9c-0.5,0.7-1.5,1.8-3.1,1.9C112,68,110.7,68.6,109.8,69.9z"/>
	<path class="st96" d="M109,71c0.4-0.3,0.7-0.6,1.1-1c7.7-0.1,15-3.4,22.8-3.1c-2.4,2.3-5.1,3.3-8.5,2.4c-1.7-0.5-3.4,0.1-4.1,1.9
		c-0.5,1.3,0.6,1.7,1.7,1.8c0,0.3,0,0.6-0.1,0.9c-2.6,3.5-6.4,2.4-9.8,2.5c-3.1,0.1-6.1-1.2-9.2-0.5c-1.7,0.4-3.8-0.2-2.9-3l0,0
		C102.9,72.1,106.3,73,109,71z"/>
	<path class="st97" d="M96,109c0.9,1.1,5,2,0.3,3.5c-1,0.3-1.2,1.5-1.3,2.5c-1.1,1.9-2.9,2.1-4.9,1.9c-3.7-0.7-7.5-1.2-11,0.8
		c-1,0.3-2.1,0.4-3.1,0.2c-4.3-1.1-8.9-0.8-12.8-3.4c-0.4-4.3,2.9-3.6,5.1-3.4c2.2,0.2,4.1,0.6,5.7-1.3
		C81.4,108.3,88.6,106.9,96,109z"/>
	<path class="st98" d="M96,109c-5.3,0.3-10.6,0.7-15.8,1c-2.1,0.1-4.3-0.2-6.2,1c-6.5,0.1-12.8,2.4-19.3,2.3
		c-1.1-0.3-2.6-0.5-2.6-1.8c0-1.2,1.5-1.6,2.6-1.9c2.2-0.5,4.4-1,6-2.9c2.6-1.7,5.4-1.2,8.2-0.9c7.3,0.7,14.5,0.9,21.8-0.8
		c4.7-1.1,9.8-1.9,14.8-0.6c0.2,0.2,0.4,0.4,0.6,0.7c-0.2,1.2-0.8,2.8-1.8,2.5C101.2,106.8,98.8,109,96,109z"/>
	<path class="st99" d="M112.1,96.2c1.7-1.9,4.1,0,6-1.1c0.7-0.7,1.3-0.7,2,0c3.7,1.1,7.3,2.7,11-0.1c3,1.1,0.7,2.2-0.1,2.9
		c-2.2,2.1-4.7,4.1-7,6.1c-3.8-0.2-7.5,0.4-11.1,1.7c-2.4,0.9-4.6,1-6.7-0.6c0,0-0.1-0.2-0.1-0.2c0.6-3.1,3.3-2.6,5.4-3.2
		c2.4-0.7,5.2-0.1,8.1-2.7c-5.6,0.4-10.6,2.5-14.7-1.6C106.9,95.1,109.8,97.5,112.1,96.2z"/>
	<path class="st100" d="M76,117c1,0,2,0,3-0.1c3.5-1.5,7.2-1,10.9-1c1.7-0.3,3.4-0.7,5.1-1c2.9,0.9,6.6-1.9,8.9,1.9
		c-2.5,0.1-4.9,0.4-6.9,2.1c0,0,0,0.1,0,0.1c-5.7,3.2-11.8,1.1-17.7,1c-1.6,0-3.2,0.2-4.8,0.6c-2.2,0.6-4.3,0.4-4.7-2.5
		C71.7,116.8,73.8,116.3,76,117z"/>
	<path class="st101" d="M119,80.1c-0.6,2-5.3-0.4-3.9,3.4c1.3,3.5,3.4,2.7,5.8-1.1c-0.5,2.5-0.7,3.6-1,4.7c-0.5,2.8-2.7,1.9-4.5,2.3
		c-3.9,0.8-8.4-1.6-11.9,2.1c-0.4,0.2-0.9,0.3-1.3,0.4c-2.9,0.2-6,1.8-8.5-0.9c-1.2-3.7-1.9-7.3,3.4-8.4c3.6-1.4,7.5-1.4,11.2-2.1
		c2.6,0,4.9-1.6,7.5-1.6c0.8,0.1,1.6,0.3,2.1,0.9C118.4,79.9,118.7,80,119,80.1z"/>
	<path class="st102" d="M118,79.8c-0.7,0-1.4,0.1-2,0.1c-1.3-1.1-3,0.5-4.2-0.8c-0.7-0.9-0.8-1.8-0.6-2.9c0.2-0.5,0.5-0.9,0.9-1.2
		c3.3-0.1,6.7,0.2,9.8-1.1c0.3,0,0.7,0,1,0.1c1.5,0.3,4-0.7,4.2,1.4c0.2,2.3-2.5,1.3-3.8,2C121.6,78.3,119.4,78.3,118,79.8z"/>
	<path class="st103" d="M96,31c3.7,0.3,7.3,1.2,11,0.1c-0.7,1-2.1,1.4-2,2.9c-0.9,2.3-3,2.3-5,2.4c-1.8,0-3.6,0.2-5.3,0.8
		C85.6,39.1,76.1,39,67,41.2c-3.3,0.8-6.9,0.6-10.3-0.2c-0.9-0.3-1.6-0.9-2.1-1.6c-0.6-1.2-0.5-2.3,0.4-3.3C68.9,36,82.5,33.9,96,31
		z"/>
	<path class="st104" d="M95,36c3-2.3,7,0.2,10-2c1.8,0,3.8-0.4,5.4,0.2c1.5,0.6,7.3-0.3,2.3,4.2c-1.1,1-0.5,2.1,1,2.5
		c1.8,0.4,3.5,0.8,5.3,1c1.6,0.2,3.6-0.4,4.4,1.5c1,2.2-2,2.3-2.4,3.8c-0.4,0.3-0.7,0.7-1.1,1c-1.2,0.3-2.5,0.8-3.8,0.2
		c-2.5-2.9-5.3-4.9-9.4-4.2c-1.1,0.2-2.3-0.2-3.2-1.1c0.5-4.6-1.5-6.5-6.1-5.9C96.7,37.3,95.7,36.9,95,36z"/>
	<path class="st105" d="M116.1,48.1c1.3,0,2.6,0.1,3.9,0.1c-0.3,0.9-2.4,1.2-0.8,2.7c-0.4,0.1-0.8,0.2-1.2,0.3
		c-2.4,2.1-5.5,2.1-8.5,2.4c-2.3,0.3-3.5-0.7-3.1-3.2c2.4-3,6-1.1,8.9-2.4C115.6,48.1,115.9,48.1,116.1,48.1z"/>
	<path class="st106" d="M112.1,96.2c-2,2.1-5,0-7.1,1.7c-3.3,3.6-6.7,4.3-11.8,2.3c-0.2-3.3,2.8-0.8,3.6-2c-1.2,0.6-2.8-0.2-4.1,0.7
		c-0.3,0.4-0.7,0.5-1.2,0.5c-0.2-0.2-0.3-0.3-0.5-0.5c-0.1-0.2-0.1-0.4-0.1-0.6c-0.3-0.4-0.5-0.9-0.4-1.5c0.4-1.7,1.6-2.5,3.2-2.5
		c3,0,5.8-0.5,8.8-1c2.2-0.3,3.8,0.6,4.5,2.8C108.7,96.1,110.4,96.1,112.1,96.2z"/>
	<path class="st107" d="M103,91c1.4-1.3,0.4-5,5.1-2.9c2.6,1.2,8.2,2.6,11.8-1c1.2,1,3-0.6,4.6,1.3c-3.9,2.9-8.7,0.6-12.5,2.6
		C107,94,105.5,94,103,91z"/>
	<path class="st108" d="M103,91c3,2.9,6-0.7,9,0c0.5,3.9-3.5,3.2-5.1,5c-2.8-1.8-13.1-1.2-16,0.9c-1,0.8-2.2,1-2.9-0.2
		c-0.5-0.9,0.3-1.9,1-2.6c1.7-1.6,3.9-1.8,6-1.5c2.6,0.4,4.8-0.4,6.9-1.7C102.3,91,102.7,91,103,91z"/>
	<path class="st109" d="M120,95.1c-0.7,0-1.3,0-2,0c-0.4-1.3-2-0.9-2.7-1.8C119.4,90.5,119.4,90.5,120,95.1z"/>
	<path class="st110" d="M70,118.1c2.6,4.1,6.1-0.5,9,1c0.4,1.9-1.6,1.1-2.1,1.9c-3.4,3.8-7.9,3.1-11.5,1.5c-2.6-1.1-4.9-1.4-7.4-1.5
		c-1.2-0.8-1.2-0.8,1-3.1C62.7,116.4,66.4,116.3,70,118.1z"/>
	<path class="st111" d="M77,121c0.7-0.6,1.4-1.3,2.1-1.9c6-0.3,12,1,18,0c-3.6,3.6-8.3,3.8-12.7,2.9C81.8,121.5,79.5,121.1,77,121z"
		/>
	<path class="st112" d="M69,128.1c-1.2-0.8-2.6-1.2-4-1.1c1.7-3.1,4.5-1.8,7-1.9c0.7,2-1.7,1.7-1.9,2.9
		C69.7,128,69.4,128.1,69,128.1z"/>
	<path class="st113" d="M54,112c6.7-0.1,13.2-1.7,19.9-1c-0.8,1.5-1.1,3.7-3.8,1.8c-2.5-1.8-5-0.8-7.2,1.1c-3.3,2.7-6.6,0.6-9.9,0.1
		c-4.4-0.2-9.3,1.2-12-4c1.2-2.9,1.2-2.9,7-2C50,109.3,49.8,114,54,112z"/>
	<path class="st114" d="M53,114c3.3,0,6.6,0,9.9-0.1c4.4,1,8.7,2,13.1,3.1c-2,0.3-4,0.7-6,1c-3.7,0-7.4-0.1-11-0.1
		c-0.9-1.4-1.6-2.9-3.8-2.2C53.8,116.3,53.1,115.4,53,114z"/>
	<path class="st115" d="M46,122.1c-1.4-0.2-2.4-0.9-3-2.1c0.2-1.2-0.2-2.9,1.8-2.8c1.3,0.1,2.6,0.6,3,2.1
		C48.3,120.9,47.6,121.9,46,122.1z"/>
	<path class="st98" d="M70,102c7.1-0.2,14.1-1.3,21-3.3c0,0.2,0,0.4,0,0.6c0.6,5.3-3.7,5.3-6.8,5.7c-4.4,0.7-8.9,0.1-13.4,0.3
		c-5,0.2-9.8,0.7-14.4,2.8c-2.4,0.1-3.6-0.9-3.5-3.4c3.1-2,6.9,0.1,10-1.9C65.1,101,67.3,100.3,70,102z"/>
	<path class="st116" d="M70,102c-2.3,0.3-4.7,0.7-7,1c-3-2-6.3-1.2-9.3-0.7c-2.3,0.4-4.5,0.6-6.7,0.5c-0.8-0.8-2.3-1.6,0.2-2.1
		c3.3,0.9,5.7-2.2,8.9-1.9c0.2,1.4,0.8,2.2,2.3,1.2c3.9-2.8,7.8,0.7,11.7,0C70,100.8,70,101.4,70,102z"/>
	<path class="st117" d="M52.9,104.9c0.7,1.4,1.6,2.5,3.1,3c1.7-1.2,3.3-1.2,5,0c-1.7,3.2-4.8,2.6-7.6,3.1c-0.1,0-0.3,0.1-0.3,0.2
		c-0.1,0.7,0.5,0.6,0.9,0.7c-1.8,1.8-3.9,0.5-6.2,1.1c0.1-2,1.6-3.6,0.2-5.1c2,0,3.7-0.5,4.1-2.9C52.4,105.1,52.7,105,52.9,104.9z"
		/>
	<path class="st81" d="M47.1,100.9c-1.1,0.6-0.3,1.4-0.2,2.1c-2.8,2.2-2.7-1.1-3.9-2C44.3,100.4,45.7,97.4,47.1,100.9z"/>
	<path class="st118" d="M66,64.1c0.7,5-3.6,3.8-6.1,5c-1.5,1-2.9-1.2-4.4-0.1c-1.7,0.7-3.4,1.4-5.3,0.8c-0.7-0.3-1.2-0.7-1.7-1.2
		c-1-1.5-2-3-4.2-2.8c-1.6-0.3-3.4-0.3-4.6-1.8c-0.1-1.2,0.5-1.9,1.4-2.5c2.1-1.1,4.6-0.4,6.8-1.3c5.4-0.3,10.8,1.7,16.3,0.8
		C65.2,61.7,66,62.7,66,64.1z"/>
	<path class="st119" d="M50.2,69.1c1.9-0.4,3.9-0.9,5.8-1.3c0.9,1.2,3.6,1.7,1.9,4.1c-2,1.4-3,4.1-5.9,4.1c-3.2,1.2-5.4,0.3-6.4-3.1
		c0.1-2.1,2.3-2.1,3.3-3.3C49.3,69.4,49.7,69.2,50.2,69.1z"/>
	<path class="st120" d="M68.1,80.9c-1.2,0.6-4.8-1.4-2.9,2.8c0.4,0.9-1.3,1.2-2.3,1.2c-2.3,0-4.6,0-7,0c0.5-0.4,1.1-0.8,1.4-1.3
		c0.6-1,2.6-1.6,1.7-3c-0.4-0.6-2.1-0.5-3.2-0.7C58,78.2,61.1,79,63,77c3,0.4,6.1,0.2,8.9,1.7C72.1,82,69,79.6,68.1,80.9z"/>
	<path class="st121" d="M72,79c-3.1-0.2-6.5,1.2-9-2c-1.9,0.1-3.1-0.6-3-2.8c0.1-2.6,1.7-3.3,4-3.2c1,2.8,2.7,4.5,5.9,3.6
		c0.5,0,0.9,0,1.4,0c2.1,0.4,4.3-0.8,6.4,0c1.1,3.5-2.1,3-3.7,4C73.4,78.9,72.7,79.1,72,79z"/>
	<path class="st122" d="M46,72c1.3,2.4,2.8,4.6,6.1,4c-2.5,1.4-5.2,2.1-8,1.9c-1.4-2.5-6.1-1.7-5.9-5.8c0.5-0.9,1.5-1.1,2.4-1.3
		c1.1-0.2,2.3-0.5,3.5-0.4C45,70.5,45.7,71,46,72z"/>
	<path class="st123" d="M70,76c-0.5,0-1,0-1.4,0.1c-4.2,0.8-5.8-0.9-4.6-5c0.3-0.3,0.7-0.7,1-1c2,0.3,3.6-0.5,4.5-2.1
		c1.1-1.9,2.8-1.9,4.6-1.8c1.3,2.3-0.7,3.4-2.1,4.1C69.5,71.7,69,73.5,70,76z"/>
	<path class="st124" d="M66,64.1c-1-0.5-1.7-1.1-2-2.2c0.3-0.3,0.7-0.5,1.1-0.7c1.3-0.1,2.6-0.2,3.5-1.3c0.4-0.2,0.8-0.2,1.2,0
		c1.9,1.5,1.6,2.8-1,4.1C68,64,67,64.1,66,64.1z"/>
	<path class="st125" d="M57.9,71.9c-0.6-1.4-1.3-2.7-1.9-4.1c1.7-0.9,2.6,0.9,4,1.2C60,70.5,59.4,71.5,57.9,71.9z"/>
	<path class="st126" d="M41.1,71.9c-1,0.1-2,0.1-3,0.2c-2.4,0.4-4.6,1.3-7.1,0.9c0-0.3,0-0.6,0-1c1.1-0.2,2.1-0.3,3.4-0.5
		c-1.9-2.7-5.1-2.2-7.3-3.6c-0.7-1.4-0.9-2.7,0-4.1c2.8-2,5.9-3.2,9.5-3.2c1.7,0.1,3.4-0.1,4.6,1.4c-0.3,0.6-0.7,1.3-1,1.9
		c-0.1,1.7-1.8,2.2-2.6,3.5C37.7,69.7,42.5,68.3,41.1,71.9z"/>
	<path class="st127" d="M112,76c0,1,0,2,0.1,3.1c0.1,2.1-2.1,1.8-3.1,2.8c-4,0.9-8.2,0.7-12,2.3c-2.4-0.4-4.5,1.8-7,0.9
		c-1.3,0-2.6,0-3.9,0c-2.7-0.6-6.6-0.2-4.1-5.1c0.2-0.2,0.4-0.4,0.5-0.6c0.4-0.3,0.9-0.5,1.4-0.6c3.1,0,6.1-0.8,8.9-2
		C99.3,76.9,105.5,74,112,76z"/>
	<path class="st128" d="M90,85.1c2.3-0.5,4.5-1.7,7-0.9c-1.2,0.5-2.3,1-4.2,1.8c3.8,1.3,2.9,3.2,1.3,5.1c-1.7,2.7-4.4,2.7-7.1,2.7
		c-1.4,0-3-0.5-3.8,1.3c-4.4,0.8-8.6,3.6-13.5,1.4c1.4-2.1,3.2-1.5,4.8-1.5c4.1-0.2,0.9-1.9,0.7-3c0.9-1.5,3-1.6,4-3
		c2.4-1.5,5.1-1,7.7-1C88.7,88.1,90.2,87.6,90,85.1z"/>
	<path class="st129" d="M83.1,95.2c-0.7-2.3,1.3-3.4,2.4-2.9c3.3,1.5,5.7-0.9,8.5-1.2c2.7,1.1,5.3-0.8,8-0.1c-1.3,3.4-4.3,2.9-7,3
		c-1.9,0.1-4.2-0.6-5.6,1.2c-2.1,2.6,0.6,1.5,1.5,1.7c0,0.4,0,0.8,0,1.2c-4.5-0.8-8.7,1-13.7,2c1.9-3.2,5.9-1.5,7.1-4.4
		c0-0.1-0.1-0.3-0.2-0.4C83.7,95.2,83.4,95.2,83.1,95.2z"/>
	<path class="st130" d="M79,89.1c-0.3,2.4-2.2,2.6-4,3c-1.7-0.2-3.6,2-5.5-0.4C72.8,90.7,75.9,89.9,79,89.1z"/>
	<path class="st131" d="M72,79c0.3-0.3,0.7-0.7,1-1c1.8-0.8,3.8-0.6,5.6-1c1.7-0.3,4.3-0.4,3.3,2.9L82,80c-4.6,0.9-9.2,1.4-13.9,0.9
		C69,79.4,71.2,80.6,72,79z"/>
	<path class="st132" d="M36,62c-3.4-0.3-6,2-9,2.9c-1.3,0.8-2.1-0.2-3-0.9c-0.3,0-0.6,0-1,0c-0.1-1.3-0.8-1.9-2-2c0-0.3,0-0.7,0-1
		c1.2-1.5,3.2-1.2,4.8-1.9c1.7-0.4,3.5-0.5,5.2-0.2c0.5,0.1,1,0.2,1.4,0.3C33.7,60.1,36.1,59.5,36,62z"/>
	<path class="st90" d="M24,64c1,0.3,2,0.6,3,0.9c0.7,1,0.7,2,0.1,3C23.8,68.4,24,66.1,24,64z"/>
	<path class="st133" d="M75,30c-3.5,3.3-8.1,3.2-12.3,3.9c-3.5,0.6-7.2-0.7-10.7,1.1c0.1-1.5-1.4-1.9-2-2.9c1-0.7,2-1.4,3-2
		c5.6-2,11.2-3.6,17.2-3.4c2,0.1,3.9-0.6,5.8,0.4C75.7,28,75.3,29,75,30z"/>
	<path class="st134" d="M55,36.1c0,1,0,2,0,3c0.3,1.6-1,1.9-2.1,2.1c-5.5,0.9-10.7,2.9-16.2,3.4c-1.5-0.2-2.4-1.1-3-2.4
		c-0.2-1.2,0.3-2,1.3-2.5c4.5-2.9,10-2.7,14.9-4.5c0.4,0.3,0.7,0.6,1.1,0.9C52.3,36,53.7,36.1,55,36.1z"/>
	<path class="st84" d="M49.9,35.2c-1.1,0.7-0.9,2.7-3.1,2.5c-4.1-0.3-7.9,1.5-11.8,2.4c-2,0.6-3.1,4.1-6,1.9c-1,0-2,0-3,0
		c1-2.2,2.9-3.2,5.2-3.1c4.6,0.1,8-2.2,11.4-4.8C45.2,32.1,47.8,32.8,49.9,35.2z"/>
	<path class="st135" d="M76,27c-2.3,1.3-4.8,1-7.3,1c-4.4,0-9-0.7-12.5,3.2c-1.2,1.3-2.8,1-3.2-1.2c2.9-2.9,6.5-3.8,10.4-4
		c2.5-0.1,5-0.1,7.3-1.1c0.1,0,0.3-0.2,0.3-0.3c0-0.7-0.6-0.6-1-0.7c0.3-2.6,1.7-1.6,3-0.9c1.3,3.9,4.1,0.9,6.5,1.6
		C79,26.5,77.5,26.8,76,27z"/>
	<path class="st136" d="M29,42c2.4,0.6,3.6-2.7,6-1.9c-0.3,0.6-0.7,1.3-1,1.9c-2.6,3.3-4.4,7-6.7,10.4c-1.1,0.8-2.5,0.9-3.4,1.8
		c-1.6,1.6-2.3,3.3,0.6,4.5c0.6,0.3,1.2,0.6,1.6,1.3c-1.5,1.5-3.3,0.7-5,1c-4.3-1.5-2.7-5.5-1.3-6.6C24.1,51,24.5,45,29,42z"/>
	<path class="st137" d="M113,60.9c-6.2,0.6-12.6-1.1-18.5,1.9c-0.8,0.4-2.6,0.7-2.9-0.8c-0.3-1.5,1-2,2.2-2c2.1-0.1,3.3-1.3,4.3-2.9
		c0.3-0.5,0.6-0.8,1.1-1.1c3.2-1.6,6.6-2,10-2c1.3,0,2.8-0.1,2.9,1.8C111.4,57.8,111.5,59.5,113,60.9z"/>
	<path class="st138" d="M112,55.9c-4.5-1.9-8.7,0.7-13.1,1c-0.8-1.9-0.3-3.6,0.8-5.2c2.3-1.1,4.6-2,7.2-1.6
		c-0.1,1.6-0.1,2.8,2.3,2.3c2.8-0.6,5.6-1.6,8.6-1.2c0.3,0.9,0.7,1.7,1,2.6C117,55.7,114.1,54.3,112,55.9z"/>
	<path class="st139" d="M100,52.1c0.1,1.7,0,3.4-1,4.8c-0.3,0.1-0.6,0.1-0.9,0.2c-9.4,0.6-19-0.2-28.1,2.8c-0.3,0-0.6,0-0.9,0.1
		c-1.1,1.3-3,0.7-4.2,1.8c-0.3,0-0.6,0-0.8,0c-5.4,1-10.6-0.4-15.9-0.8c-0.1-0.3-0.2-0.5-0.3-0.7c0.2-0.5,0.6-0.9,1.1-1.1
		c3.7-1,7.4-0.7,11.1-0.4c2.1,0.1,2.8-0.8,3.4-2.4c5.3-3.5,11.4-3.1,17.2-3.7c5.4-0.5,11,1,16.3-1.4C97.9,50.7,99.2,51.1,100,52.1z"
		/>
	<path class="st140" d="M70,76c-0.5-1.8-2.7-1.5-3.7-3.1c2.5-2.4,6.3-3.3,7.7-6.8c4.9,0,9.9-0.1,14.8,0c1.5,0,3.4-0.2,3.7,1.7
		c0.4,2.1-1.6,3.3-3.2,3.9c-3,1.1-6.4,0.9-9.3,2.4c-0.2,0.2-0.4,0.3-0.6,0.5c-2.9,0-5.6,1-8.5,1.5l-0.5,0L70,76z"/>
	<path class="st141" d="M81.9,79.9c-2.3-3.9-6-0.9-8.9-1.9c1.3-1.6,4.2-0.4,5-2.9c0.4-0.8,1.5-0.3,1.9-1.1c0,0,0.1,0.1,0.1,0.1
		c6.7,0.1,13.4,0.2,20-1c0.2,1.4,1.1,2.4,2.3,1.9c3.4-1.5,6.5,0.3,9.8,0.2c0,0.3-0.1,0.6-0.1,0.9c-6.8-0.7-13.2,3-20,2.1
		C89.2,79.8,86,79.1,83,80C82.6,79.9,82.3,79.9,81.9,79.9z"/>
	<path class="st141" d="M109,71c-2.5,2.9-5.9,1.8-9,2C102.8,71.4,106,71.7,109,71z"/>
	<path class="st142" d="M89.9,116c-3.5,1.3-7.2,1.1-10.9,1C82.4,113.6,86.2,114.7,89.9,116z"/>
	<path class="st143" d="M61,108c-1.7,0-3.3,0-5,0c3.8-3.8,9-3,13.6-3.8c4-0.7,8.2,0,12.3-0.2c3.6-0.1,7.5-0.1,9-4.6
		c0.4-0.1,0.7-0.3,1.1-0.4c0.4-0.5,0.6-0.4,0.8,0.2c4.3,2.2,8.2,0.2,12.1-1.3c4,0.2,8.1,1.7,12.1,0c1.5-0.6,3.8-1.8,4.1,0.5
		c0.2,1.7-1.4,4-3.9,4.2c-3.9,0.3-7.8,0.1-11.3,2.4c-11,0.4-21.7,3.9-32.9,3.1C69.1,107.8,65,105.3,61,108z"/>
	<path class="st59" d="M109,81.9c0.5-1.5,2.2-1.7,3.1-2.8c1.4,0.1,2.9-0.4,3.9,0.9C113.7,80.6,111.3,81.2,109,81.9z"/>
	<path class="st144" d="M95,36c1,0,2,0,2.9,0c8,0,8,0,6.1,7c0.4,0.5,0.5,1.1,0.3,1.7c-1.7,2.2-4.1,1.8-6.4,1.9
		c-7.4,0.2-14.6,0.9-22,2.2c-8.7,1.5-17.5,2.7-26.2,4.6c-1.1-0.1-2.1-0.4-2.8-1.3c-0.6-0.9,0.8-2,0-2.8c-1.1-1.2-2.9-2-1.8-4
		c1.2-2.2,3.2-3.4,5.5-3.9c1.7-0.4,3.7-0.1,5.3-1.2c10.7,0.4,21.1-2.4,31.6-3.5C90.1,36.3,92.6,36.1,95,36z"/>
	<path class="st145" d="M56,40c-1.2,2.8-4.1,1.5-6,2.5c-1.8,0.9-4.1,1.9-4.1,3.8c0,2.6,3,1,4.4,2c-0.3,1.8-2.1,1.7-3.2,2.6
		c-1.9,1.9-4.4,1-6.6,1.7c-1.4,0.4-3.9-0.1-3.5,2.4c0.3,1.9,2.3,1.5,3.7,1.5c2.6,0.1,5.4-0.6,7.7,1.2c0.3,0.7,0.3,1.4-0.3,2.1l0,0
		c-5.3,2-10.6,1-15.9,0L32,60c-2-1.1-5.5,0-5.7-3.5c-0.2-3.3,2-5.1,4.9-6c2.3-0.7,3.2-1.9,2.9-4.3c-0.1-1,0.1-2.4,1.8-2.2
		c6.1-2.7,12.8-2.7,19-4.9C55.3,39.4,55.7,39.7,56,40z"/>
	<path class="st146" d="M104,44c0-0.3,0-0.7,0-1c3.1,0.7,6.3-1.5,9.5,0.8c1.7,1.3,2.5,2.4,2.6,4.3c0,0,0,0,0,0
		c-2.7,1.4-5.5,0.9-8.3,0.7C105.7,47.9,105.3,45.6,104,44z"/>
	<path class="st147" d="M107,48c3,0,6.1,0.1,9.1,0.1c-2.5,3.1-6.1,1.1-9.1,2c-1.9,2.2-4.6,1.6-7,1.9c-6.5,2.4-13.2,2.1-20,2
		c-1.2-2.4,0.7-3.1,2.3-3.2c7.4-0.5,14.7-2,21.9-3.7C105.3,46.9,106.2,47.3,107,48z"/>
	<path class="st148" d="M92.8,99.2c-0.3,0-0.5-0.1-0.8-0.2c2.2-2.6,5.3-1.2,7.9-1.8C98,99.9,95.2,98.5,92.8,99.2z"/>
	<path class="st149" d="M41.1,71.9c-0.2-0.4-0.2-1.1-0.6-1.3c-1.9-1.1-5.5,0.1-5.6-2.8c-0.1-2.4,3.7-2,5.1-3.8
		c1.7-0.1,3.4,0,4.9,1.1c1.8,0.3,2.7,2,4.1,2.9c0.4,0.4,0.8,0.8,1.2,1.2c0,0.3-0.1,0.5-0.2,0.8c-1.8,1.9-4.1-0.1-6,1
		C43,71.4,42.3,72.3,41.1,71.9z"/>
	<path class="st150" d="M32.1,60c5.3,0,10.6,0,15.9,0c0,0.4,0,0.7,0.1,1.1c-2.2,1.5-4.7,0.5-7,1c-1.7,0-3.4,0-5-0.1
		C35.2,60.4,33,61.6,32.1,60z"/>
	<path class="st151" d="M48.9,67.9c-2.4,0.5-3.2-1.2-4.1-2.9C48.1,63.4,48.3,65.9,48.9,67.9z"/>
	<path class="st152" d="M43.9,70.9c1.6-3.2,4.1,0,6-1c-0.6,2-2.2,2.1-3.9,2.1C45.3,71.6,44.6,71.3,43.9,70.9z"/>
	<path class="st123" d="M79.9,74c-0.4,0.8-1.1,1-1.9,1.1c-2.3,0.4-4.6,1.4-7,0.9C73.8,74.4,76.8,73.9,79.9,74z"/>
	<path class="st153" d="M64.8,61.8c0.7-2.4,2.6-1.7,4.2-1.8C69.1,64.2,66.6,62,64.8,61.8z"/>
	<path class="st76" d="M83,80c2.8-1.5,6-1.3,9.1-1.9C89.5,80.8,86.1,79.8,83,80z"/>
	<path class="st154" d="M36,44c-3.2,2.2,2.2,5.2-0.3,6.7c-1.9,1.1-4.9,0.7-6.8,2.3c-3,2.4-2,4.4,3.1,7.1c-2,0-4,0.1-6,0.1
		c-0.7,0-1.4-0.1-2-0.1c-1.8-3.7,0.5-5.9,3-8c1.5-3.9,2.3-8.3,7-10C34.7,42.7,35.3,43.3,36,44z"/>
	<path class="st155" d="M27,52c-0.6,2.8-3.1,4.9-3,8c-2.7-0.2-3.3-1.9-2.9-4.1C21.6,52.5,24.3,52.2,27,52z"/>
	<path class="st156" d="M107,48c-4.6,1-9.2,2-13.8,3.1c-3.1,0.7-6.2,1.1-9.3,1c-1.6,0-3.5-0.5-3.8,2c-5.4,0.6-10.9,1-16.1,2.8
		c-2.2,2.2-4.7,1.2-7.2,0.8c-1.8-0.3-3.5,0.1-5.3,0.3c-1.6,0.2-2.9-0.4-3.7-1.8c-1-1.8-0.3-3.1,1.3-4.1c2.2,0.3,4.1-0.8,6.2-1.5
		c5-1.6,10.1-3.2,15.5-2.6c1.5,0.2,3.2,0.5,4.4-0.1c8.4-4.4,17.4-2.4,26.2-2.9c1-0.1,2-0.1,2.7-1C107.2,43.7,107.1,45.9,107,48z"/>
	<path class="st150" d="M57.1,56.1c2.3,0.4,4.5,1.3,6.8,0.7c-0.3,2.1-0.9,3.5-3.6,3.3C56.2,59.7,52.1,60,48,60c0-0.6,0-1.3,0-1.9
		C50.9,56.8,54.3,57.8,57.1,56.1z"/>
	<path class="st157" d="M57.1,56.1c-2.4,3.5-6.1,1.3-9.1,2c-3.1,0-6.3-0.4-9.3,0.1c-3.6,0.6-3.7-2.6-4.2-4.1c-0.8-2.5,2-1.7,3.3-2.2
		c3-1.2,6.1-0.8,9.2-0.8c0.4,0.8,1.2,1,2,1c-1.6,3.5-1.2,5.4,3.3,4.4C53.8,56.1,55.5,56.2,57.1,56.1z"/>
</g>
</svg>
