<svg version="1.1" id="mercury" xmlns="http://www.w3.org/2000/svg" x="0px" y="0px" viewBox="0 0 225.1 226.1" style="enable-background:new 0 0 225.1 226.1;" xml:space="preserve">
	<style type="text/css">
	.st0{fill:#616FAC;}
	.st1{fill:#907C79;}
	.st2{fill:#6C6D80;}
	.st3{fill:#C2AC91;}
	.st4{fill:#655763;}
	</style>
<path class="st0" d="M1,89c0.9-1.4,1.8-2.8,2.7-4.1C4.8,84.9,5.9,85,7,85c1,6.6,3.2,1,4.6,0.3c1.2-0.6,4-1.1,2.5-3.1c-1.3-1.8-3.5-1.1-5.1,0.7C8.4,83.6,7.7,84.3,7,85c0.1-2.1-0.3-4.5,0.5-6.3c2.9-6.6,7.7-12.2,9.7-19.3c0.2-0.6,0.9-0.9,1.3-1.4c2.2-0.2,3.9-1,4.3-3.5c1.4-1.4,2.7-2.8,4.1-4.3c1.5-0.7,2.8-2.1,4.7-2.2c0.8,4.7-4.5,7.4-3.1,11.9c-2.6-0.5-4.8-0.5-5.7,2.7c-0.3,1.2-0.1,2,1.1,2.2c2.7,0.4,4.8-0.4,5.8-3.2c0.1-0.2,0.1-0.3,0.1-0.5c1,0.2,2.1,0.3,3.1,0.5c0,1.9-1.4,3.7-0.7,5.8c0.9-0.5,1.7-1,2.6-1.5L35,66c-0.1,2,0.4,3.5,2.5,4.3c2.3,0.9,3.1-0.9,4.6-1.8c2.9-1.9,1.3-5.2,2.7-7.4c0.7-0.4,1.5-0.8,2.2-1.1c-1.5,4.1,0.4,7.6,2.1,11.2c3.9-3.4,7.9-1.7,11.9-0.2c0.7,2.1,1.4,4.1,2,6.2c-2.2,2.4-2,2.8,2,4.9c0.3,2.9-0.5,5.6-2,8.1c0.7,2.5-1.3,4.1-2.1,6.1c-1-0.1-2-0.8-3,0c-4,1.2-5.4-2.1-6.5-4.4c-1.1-2.1-2.2-4.9,0.1-7.3c1.5-1.6,2-3.5,2.6-5.5c-3.8-0.3-4.3,2.7-5.6,4.6c-1.6,2.3-2,6.3-6.5,4.7c-0.3-4,2.5-7.6,2.1-12.1c-2.2,3.6-7,2.5-8.8,6c-5.3,5-5.3,5.4-1.3,8c0.5,1.4,1,2.7,1.5,4.1c-1.3,4-2.2,7.9,0.4,11.8c1.1,0.8,1.8,1.8,2.1,3.2c-1.6,2.4-2.2,5.1-1.7,8c0.4,4.3-2.5,9.8,5.9,10.7c6.4,0.7,9.5,6.6,12.9,12.3c0.4-4.6,0.8-9.3,1.2-13.9c4.6-0.8,9.2-2.7,13.9-0.2c-1.8,6,1.7,11.2,2.2,16.9c0.1,0.6,1.1,1.6,1.7,1.6c4.6,0,8.1,3.3,12.2,4.5c1.3,2.3,2,5.1,4.7,6.3c-1.9,2.4,0,4.4,1.3,6.7c-3.7-0.1-4.2-2.8-5.2-4.6c-0.9-1.7-1.8-1.9-3-0.7c-1,1.1-3.8,1.8-2.2,3.7c2.9,3.3,4.3,8,9.5,9c2.2,0.4,3.5,0.4,4.5-1.6c2.3-0.6,4.6-1.2,7-1.9c3.8-0.3,6.7,0.5,8.3,4.7c1,2.7,2.1,7,7,5.2c1.9,1.3,2.3,5.1,5.9,3.3c0,0.9,0,1.8,0,2.7c0.5,3.2,3.1,5,4.9,7.3c-0.1,8.1-0.7,8.7-6.9,7c-0.7-1.2-1.8-1.8-3.1-2.1c0.8-0.8,1.9-1.5,2.3-2.5c0.6-1.7,2.6-3.3,1.1-5.4c-1.5-2.1-3.4-1.4-5.4-1c-0.1-0.2-0.2-0.5-0.3-0.7c-0.2,0.2-0.5,0.5-0.7,0.7c-3.2,0.8-3.9,3.2-3.7,6.1c-1.7,2.4-6.4,1.6-6.3,5.9c-1.7,0.3-2.4,1.6-2.8,3.1c-2,0.6-2.8,2-2.5,4c-5.4-0.8-2.3,3.5-3.1,5.9c-4-2.2-7.7-0.1-11.4,0c-3,0.1-2.4,2-1.9,3.9c-0.3,0.1-0.6,0.2-0.9,0.4c-1.8-1.7-3.9-2.2-6.3-2.1c-2,0.1-4.1-0.3-4.6-2.7c-0.2-1.2-0.1-2.2-1.7-2.2c-1.9,0-3.2,0.5-3.2,2.7c-2,1.1-4,2.1-6,3.2c-3.1-1.4-6.5-2.3-8.5-5.3c-1.9-5.7-6.5-7.1-11.7-7.7c-1.3-0.7-2.6-1.5-3.3-2.8c-0.7-2.5-1.7-4.6-4.9-4.2c-1.7-1.5-3.7-2.8-5.2-4.5c-9.5-10.8-17.2-22.8-22.1-36.5c-1.4-3.8-1.9-8-4.8-11.2c0-4,0-8,0-12c1.3,1.5,0.9,3.5,1.4,5.2c0.9,2.6,0.6,5.7,3.7,7.1c0.3,2.2,1.7,4.1,3.8,3.2c2.2-0.9,0.4-3.1,0.3-4.7c-0.1-1.5-1.6-1.9-2.4-2.9c0.4-3.3-0.1-6.8,2-9.8c1.2,2.5,0.4,5.5,2.1,7.8c-0.7,4.1,5.2,3.1,5.4,7.2c0.1,3.6,3.8,3.5,6.3,2.7c3.6-1.2-0.3-3.1,0-4.7c0-0.7,0.1-1.4,0.1-2.2c1.4-4.9-1.8-8.1-4.6-11.1c-2.7-2.9-2.4-5.6,0.4-8.1c1.3-1.2,5-0.2,3.9-4.1c-0.6-2.1,0.3-4.5,0.2-6.8c-0.1-1.4-1.4-1.6-2.6-1.7c0.3-0.7,0.6-1.3,0.9-2c0.5-0.2,1.3,0,1.1-0.9c-0.4,0.1-0.9,0.2-1.3,0.3c-0.7-1.4-1.3-2.9-2-4.3c2.7-2.6-1.2-5.7,0.8-8.5c1.2-1.6,0.9-4-1.5-4.4c-2.9-0.5-1.6,2.1-1.9,3.5c-1.7,8.6-3.2,9.2-10.1,3.9C5.3,92,4.4,92.4,4,94.4c-0.5,2.6-0.8,5.2-1.1,7.9c-0.2,1.8,0.2,3.8-2,4.7C1,101,1,95,1,89z M63,132.1L63,132.1c-0.7-1.3,1.2-2.6-0.7-5C62,129.5,60.5,130.8,63,132.1z M101.7,180.1c-1.7,0.2-4.3,0.2-4.1,2.4c0.5,4,4.2,5.1,7.5,6.3c2.9,1,3.1-1.5,3.1-3C108.4,181.5,104.7,181.3,101.7,180.1z M61.9,174.7c-3.6,0.1,1.3-4.1-2.2-4.4c-2.3-0.2-3,1.7-3.2,3.6c-0.2,1.9,0.6,3.3,2.6,3.5C60.4,177.5,61.8,177.1,61.9,174.7z M27.4,120.2c-1.2,0.9-1.7,2.4-3.2,2.9c-1.5,0.5-1.1,1.9-0.6,2.9c0.5,0.8,1.3,1.7,2.1,1.8c1.2,0.1,1.1-1.4,1.4-2.2C27.8,123.9,28.5,122.2,27.4,120.2z M46.8,139c-0.1-1.2-0.3-2.4-1.8-2.4c-1.4,0-2.8,0.8-3.1,2c-0.3,1.6,1.5,2,2.6,2.3C45.9,141.3,46.6,140.3,46.8,139z M93.3,183.9c-0.2-1.1-0.9-1.6-2-1.7c-1.2-0.1-2.5-0.1-2.4,1.6c0,1,0,2.3,1.3,2.4C91.7,186.3,92.6,185.3,93.3,183.9z M58.9,200.2c3.4,2,5.5,0.8,8-0.9C63.9,197.1,61.9,199.5,58.9,200.2z M100.8,174.9c0.6-0.3,1.8-0.3,1.6-1.6c-0.2-1.4-1.3-1.8-2.5-1.9c-1-0.1-1.6,0.5-1.6,1.4C98.2,174.3,99.2,174.8,100.8,174.9z M53.4,87.2c-0.8-0.2-1.3,0-1.1,0.9c0.2,0.9,0.8,1.4,1.8,1.3c0.7,0,1.3-0.5,1.2-1.2C55.2,87.2,54.1,87.5,53.4,87.2z M28.8,115.9c-0.3-1.7-0.2-2.9-1.4-3.5c-0.1-0.1-0.8,0.5-0.9,0.9C26,114.8,27.1,115.3,28.8,115.9z"/>
<path class="st1" d="M104,226c0.7-2-0.8-2.8-2-3.8c2.1-1.9-1.2-6.1,3-7.2c5.1,1.2,9.8-0.5,14.4-2.3c2.2-0.9,0.9-2.4,0.7-3.7c3.4-0.2,7.3,0.6,8.9-3.9c4.1-0.1,8.3,0.2,12-1.9c1.7,0,3.4-0.1,4.2-2c1.5,0,3.1-0.1,4.6-0.1c0,3,2.8,3.5,4.9,4.9c-0.7,0.6-1.1,0.9-1.5,1.1c-1.6,0.8-3.8,1-3.8,3.3c0,1.2,0.8,2.2,2,2.6c1.9,0.7,3.9,0.2,5-1.4c2.4-3.4,5.5-2,8.5-1.8c-10,6.7-21.2,10.5-32.9,13c-2.4-2.8-5.3-0.2-7.9-0.9c0.2-0.9,0.2-2,0.7-2.8c1-1.4,2-2.8,0.6-4.3c-0.4-0.5-1.6-0.6-2.2-0.4c-1.8,0.6-3.2,2.1-3.3,3.9c-0.2,2.6,1.8,3.6,4.2,3.7c0,0.6,0,1.2,0.1,1.8c-2.9,0.8-2.9,0.8-2.1,2.2C116,226,110,226,104,226z"/>
<path class="st2" d="M1,107c2.2-0.9,1.8-2.9,2-4.7c0.3-2.6,0.6-5.3,1.1-7.9c0.4-2,1.3-2.4,3.1-1.1c6.9,5.3,8.4,4.7,10.1-3.9c0.3-1.4-1-4,1.9-3.5c2.3,0.4,2.6,2.7,1.5,4.4c-2,2.8,1.9,6-0.8,8.5c-3.8-0.5-1.4,2.8-2.5,3.9c-1.3,1.4-2,2.9-0.5,4.3c1.7,1.5,3-0.2,4.2-1.2c1.2,0.1,2.6,0.3,2.6,1.7c0.1,2.3-0.8,4.7-0.2,6.8c1.1,4-2.6,3-3.9,4.1c-2.8,2.5-3.1,5.1-0.4,8.1c2.8,3.1,6,6.2,4.6,11.1c-1.5-1.1-1.8-3.5-5.4-4.2c2.1,2.7,1,6.3,5.3,6.4c-0.3,1.6,3.6,3.5,0,4.7c-2.5,0.8-6.1,0.9-6.3-2.7c-0.2-4.1-6-3-5.4-7.2c0.8-0.8,1.8-1.5,2.4-2.4c1-1.6,0.3-3.3-0.8-4.5c-0.9-1-1.9-3.1-3.7-0.9c-2.1,3-1.6,6.5-2,9.8c-0.3,0.1-0.6,0.1-0.9,0.1c-0.1-0.7-0.3-1.5-0.4-2.2c0.6-1.6,0.5-2.9-1.3-3.6c-0.1-1.8,0.9-3.7-0.3-5.5c4.2-6.6-0.2-13.7,1.4-20.5c-2,1.4-2.3,3.3-2.3,5.2c-0.1,2-0.6,3.6-3,3.7C1,111.7,1,109.3,1,107z M13,123.2c-0.2,0.2-0.4,0.4-0.6,0.6c0.2,0,0.4,0,0.7,0c2.7-3.8,0.9-8,1.6-12C10.8,115.2,13.2,119.4,13,123.2z"/>
<path class="st0" d="M1,114c2.4-0.1,3-1.6,3-3.7c0.1-2,0.3-3.8,2.3-5.2C4.7,111.9,9.2,119,5,125.6c-1.3-0.5-2.6-1-4-1.6C1,120.7,1,117.3,1,114z"/>
<path class="st3" d="M1,124c1.3,0.5,2.6,1,4,1.6c1.1,1.8,0.2,3.7,0.3,5.5c0,1.4-0.3,2.8,1.3,3.6c0.1,0.7,0.3,1.5,0.4,2.2c-0.3,1.5-0.6,2.9-0.8,4.4c-3.1-1.4-2.8-4.6-3.7-7.1c-0.6-1.7-0.1-3.7-1.4-5.2C1,127.3,1,125.7,1,124z"/>
<path class="st3" d="M112.9,3.4c0.7-0.1,1.5-0.2,2.2-0.2c2.3,1.7,0.9,6.5,5.3,6.6c2.4,0.1,5.6,1.7,6.8-0.9c1.1-2.5-3.1-2-3.8-3.9
c2.3-1.7,4.9-1.3,7.3-0.8c5.9,1.2,11.9,2.2,17.4,4.9c0.1,4.2,4.3,5.1,6.6,5.6c3.4,0.8,3.5,2.1,2.7,4.7c2.3-0.3,5.3-1.6,5.8,0.2
c1.1,4.2,4.2,7.2,5.3,11.2c0.6,2.1-0.2,2.8-2.2,2.6c-1.1-0.1-2.3-0.2-3.4-0.4c-0.9-0.7-1.8-1.5-2.7-2.2c-0.2-1.6-0.8-2.7-2.6-3.2
c-2.5-0.7-5.8-0.8-4.8-5.1c0.1-0.3-0.8-3.9-3.9-2.7c-2.1,0.8-4.5,0.5-3.3,3.9c0.7,2-1,2.5-2.2,3.3c-1,0.6-2.3,1.2-2,2.5
c0.2,1.2,1.7,1.8,2.8,1.8c5,0.2,9.9,2.4,15,1.6c0.1,0.3,0.1,0.6,0,0.9c-2.2,3.2-1,5.6,1.4,8.3c2.6,3,7.1,4.5,7.5,9
c3.8-0.2,1.8-6.4,6.3-5.3c-0.1-0.5-0.2-0.9-0.3-1.4c-0.4-1.3-3.1-2-1.3-3.5c1.9-1.7,3.6,0.1,5.2,1.4c1.4,1.2,3.1,2,4.2,3.3
c2.1,2.6,3.5,1.5,5-0.5c1.7,2.9,3.4-0.8,5.2,0c-0.1,2,0,4.1,1.3,5.8c-0.4,2,0.9,3.4,1.9,4.8l-0.3,0.3c-1.3,3.8,1.3,5.1,4.1,5.9
c2,0.6,3.2,1.5,4.4,3.4c2.8,4.2,0.9,8.6,1.6,13c-0.2-2.8-5,1-4.2-3.3c0.3-1.4-0.7-3.2-2.7-2.7c-2,0.6-2.2,2.4-1.4,4.1
c0.8,1.6,1.9,3.1,2.7,4.7c0.5,1,1.9,2,1.2,3.1c-2.7,4.3,0.7,5.7,3.3,7.6c0.3,1.6,3.1,2.3,1.4,4.8c-1.2-0.5-3-0.7-3.7-1.7
c-1.9-2.8-4.2-0.8-5.6-0.2c-1.9,0.8,0.6,2.3,0.6,3.7c0,0.8,0.1,1.6,0.2,2.4c-0.9-0.1-1.7-0.2-2.6-0.3c-0.4-0.2-0.9-0.5-1.3-0.7
c0.1-0.3,0.1-0.6,0.2-0.9c0.9-1.3,1.3-2.7-0.2-3.8c-1.4-1.1-2.4,0.3-3.3,1c-1.4,1.2-2.8,1.4-4.4,0.5c-0.3-1.2-0.6-2.3-0.9-3.5
c1-1.2,1.7-2.6,1.8-4.2c1.2-1.8,0.4-3.1-1-4.3c-1.4-2.8,0.6-6.4-2.1-8.9l0,0c1.5-5,4.1-0.3,6.2-0.5c0.5-3.6-0.7-5.8-4.2-6.6l0,0
c0.6-1.8-2-3.3-0.6-5.1c1.3-1.6,1.4-2.9-0.3-4.2c-1.6-1.3-3.4-3-5.2-1.8c-3.1,2-6.5,0.9-9.6,1.2c-3.8,0.3-6.1,2.5-9.1,3.8
c-2.9,1.2-4.7,4.5-8.3,4.2c-0.3-0.3-0.7-0.7-1-1c-0.2-1-0.7-1.8-1.8-1.9c0,0-0.2-0.2-0.2-0.2c0-1.1,0.1-2.3-0.1-3.4
c-0.6-3-4-4.8-6.8-3.7c-1.2,0-2.4-0.1-3.6-0.1c-0.2-1.4-0.9-2.5-2.3-2.9c-0.2-2.8-2.4-2.6-4.3-3c-1.5-0.3-4.2-1-3.1-2.8
c2.9-4.8-1.1-5.5-3.5-7.3c-1.6-1.2-3.4-2.9-5.2-1.3c-1.9,1.7,1.8,2.8,1.2,4.7c-2.3,0.6-4.6,1.2-6.9,1.8c-2.8-1.7-5.5-3.4-8.2,0.1
c-2,0-4.2,0.4-3.9-2.8c0.5-5.2-1.7-10-2.2-15.1c-0.3-3.8-4.4-6.2-10.8-6c-3.3,0.1-3,3.4-3.3,5.8c-1.1,0.3-1.8,0.9-2.1,2.1
c-1.1-0.9-1.5-3.9-3.5-2c-2.4,2.3-6.3,4.6-3.1,9c-0.7,1-1.5,2-2.2,3c-0.4-1.5,0.7-4.7-2.9-2.6c-1.5-0.4-2.8-1.1-3.4-2.6
c0.2-2.3,0.6-4.5-1.8-6.2c-2.6-1.9-1.2-3.3,1-4.2c1.2-0.5,3.7-0.2,2.6-2.3c-1.2-2.2,0.3-2.5,1.3-3.3c4.1-3.2,8.1-6.4,12.2-9.6
c0,0,0,0,0,0c1.9-0.1,3.4-0.8,4.9-1.9l0.2-0.1c1.3-0.2,2.7-0.1,3.6-1.3c0-0.1-1.1-1-1.7-1.5c5-1.1,10-1.5,15.1-1.1
C108.2,6.2,110.5,6,112.9,3.4z M119.8,27.6c-1-2.9-2.9-4-5.3-4.2c-1.3-0.1-2.8-0.3-3.1,1.6c-0.3,1.6,0.8,2.5,2.2,2.6
C115.6,27.8,117.5,28.4,119.8,27.6z"/>
<path class="st4" d="M164.9,209.9c-3-0.2-6.1-1.7-8.5,1.8c-1.1,1.6-3,2-5,1.4c-1.2-0.4-2-1.4-2-2.6c0-2.4,2.2-2.6,3.8-3.3
c0.4-0.2,0.7-0.6,1.5-1.1c-2.1-1.3-4.9-1.9-4.9-4.9c4.7,3.1,8.1-2.7,12.5-1.9c0.2,0,0.8-0.7,0.8-1.1c0-0.8-0.7-1.2-1.4-1.1
c-2.1,0.2-4.2,0.6-6.4,0.8c-1,0.1-2.1-0.3-1.8-1.7c0.6-2.4,8-5.1,9.8-3.7c2.8,2.2,5.3,1.6,6.4-2c0.5-1.5,0.4-2.9,2.6-2.8
c4,0.2,4.5-2.6,4.3-5.7c4.5-1.5,4.8-6,6.6-9.5c0.8-1.5,0.6-2.7-0.7-4c-3.9-4.2-8.2-4-12.8,0.5c-1.2-0.2-1.9-0.9-2.1-2.1
c2.1-1.9,3.8-3.9,2.1-6.9c0.4-2,0.4-5.1-2.4-3.1c-2.4,1.7-3.7,1.3-5.7,0.3c-2-1-3.4,0.2-4.7,1.5c-1.9,0.4-3.8-0.8-5.7,0.5
c-1.1,0.8-2.3-0.1-2.9-1.1c-0.7-1.3,0.1-2.3,1.3-2.7c2.6-1,4.6-4,7.9-2.2c0.2,0.6,0.4,1.3,1.3,1.2c0.1,0,0.3-0.2,0.3-0.3
c0.1-0.9-0.6-1.1-1.2-1.3c0.2-1-0.1-2.5,1.9-2c0.9,0.3,0.4,3,2.1,1.5c1.3-1.2,1.1-2.9-0.5-4.3c-2.7-2.3-0.8-3.2,1.3-4
c9.2,2.1,10.1-8.1,16.1-10.8c1.1-0.5,0.9-1.6,0.9-2.6c0-0.2,0-0.3,0-0.5c1.8-0.3,2.9-1,2-3c0.1-1,0.1-2,0.3-2.9
c0.4-1.9,1.1-3.8,0-5.7c-1.3-2.3-3.3,1.1-4.8-0.7c0.8-3.9,1.2-8,3.7-11.4c2.4,0.9,4,7,6.9,0.8c0.8-0.6,1.6-1.1,2.4-1.7
c0.8-0.7,0.7-2.5,2.4-1.9c1.3,0.5,2.4,1.8,1.9,3.1c-1.2,2.9,1.1,5,1.3,7.6c0,0,0,0,0,0c-0.2,0.1-0.5,0.2-0.7,0.3
c0.2,0.3,0.5,0.5,0.7,0.8c0,1.7,1,2.8,2.2,3.8c-0.8,3.1,0.6,6.5-1.5,9.6c2.7,0.1,4-3.1,6.4-1.3c0.4,1.1,0.8,2.6,2.2,2.2
c4.9-1.5,3.4,1.5,2.9,3.9c-0.8,2.5-0.9,5.5-2.5,7.3c-2.3,2.6-1.2,4.3,0.2,6.3c-3.4,4.8-4.9,10.3-5.7,16.1
c-4.8,0.5-4.6,4.9-6.1,7.9c0,0,0,0.1,0,0.1c-0.3,0.3-0.6,0.7-0.9,1c-1.7,1.8-0.7,5-3.3,6.4c-0.2,0.1-0.2,1.2,0.1,1.7
c0.3,0.6,1.2,0.7,1.7,0.3c0.9-0.7,1.6-1.5,2.4-2.3c0.2,2.4-0.5,4.6-1.5,6.7c-0.8,1.6,0.1,2.1,1.4,2.2
c-6.8,9.1-16.4,14.9-25.3,21.4C167.5,209.2,166.1,209.4,164.9,209.9z M165,206c2-0.7,4-1.4,5.9-2.3c0.9-0.4,1.5-1.4,1.1-2.4
c-0.6-1.2-1.6-0.6-2.5-0.4C166.7,201.5,165.3,203.2,165,206c-0.7,0.2-1.4,0.5-2.1,0.8c0.1,0.2,0.3,0.6,0.4,0.6
C164.2,207.4,164.7,206.8,165,206z M191.1,140.6c-1.1-1.5-1.7-3-2.9-3.8c-2-1.2-3.8,0.7-4.6,1.9c-2.4,3.9-9.5,2.5-9.8,8.7
c0,0.1-1.2,0.2-1.8,0.1c-1.6-0.2-2.6,0.5-2.8,2c-0.3,1.5-0.5,3,0.7,4.2c1.3,1.4,2.8,0.5,4.1-0.1c4-1.8,7.7-4.4,11.6-6.4
C187.9,146.1,189.3,142.9,191.1,140.6z M192.8,151.2c-2.1,2.7-5.6,1.8-5.5,5.1c0,1.2,1.2,1.6,2.2,1.4
C192.6,157.3,192.9,155.1,192.8,151.2z M166.6,148.4c-0.4-0.1-0.7-0.2-1-0.2c-0.4,0.1-1,0.3-0.5,0.9c0.1,0.1,0.7,0.1,0.9-0.1
C166.3,148.9,166.4,148.6,166.6,148.4z M182.5,188c0.3-0.1,0.5-0.2,0.6-0.3c-0.1,0-0.3-0.2-0.4-0.1
C182.6,187.6,182.6,187.8,182.5,188z"/>
<path class="st1" d="M162.8,33.1c1.1,0.1,2.3,0.3,3.4,0.4c1.9,0.1,2.7-0.5,2.2-2.6c-1.1-4-4.2-7-5.3-11.2
c-0.5-1.9-3.5-0.5-5.8-0.2c0.8-2.6,0.7-3.9-2.7-4.7c-2.3-0.5-6.5-1.4-6.6-5.6c7.1,2.2,14.1,4.5,18.9,10.7
c1.1,5.4,7.1,4.6,10.4,7.7c-1.7,0.9-2.9,1.5-4.2,2.2c-3.8,0.3-2.3,5.3-5.6,6.2c-1.1,0.3-2.6,0.8-1.6,2.2c0.8,1.2,2.5,1.2,3.5,0.2
c2.1-2,4-4.3,5.9-6.4c2.6,0.9,7.6,1.7,7.3,3c-0.9,4.7,3.4,6.7,4.2,10.3c-1.5,2.1-2.9,3.1-5,0.5c-1.1-1.3-2.8-2.2-4.2-3.3
c-1.5-1.3-3.2-3.1-5.2-1.4c-1.7,1.5,1,2.3,1.3,3.5c0.1,0.4,0.2,0.9,0.3,1.4c-4.5-1-2.5,5.1-6.3,5.3c-0.4-4.6-4.9-6-7.5-9
c-2.4-2.7-3.6-5.1-1.4-8.3C160.3,34,161.6,34,162.8,33.1z M177.2,39.3c0-0.1,0.2-0.3,0.1-0.4c0-0.1-0.2-0.1-0.3-0.2
c-0.1,0.2-0.1,0.4-0.2,0.6C176.9,39.3,177.1,39.3,177.2,39.3z M168.8,40.6c0-0.1,0-0.3-0.1-0.3c-0.1-0.1-0.3,0-0.4,0
c0,0.2,0.1,0.4,0.1,0.5C168.6,40.7,168.7,40.7,168.8,40.6z"/>
<path class="st2" d="M34.9,65.9c-0.8,0.5-1.7,1-2.6,1.5c-0.8-2.1,0.6-3.9,0.7-5.8c0.2-0.6,0.6-1.2,0.7-1.8
c0.4-3.1-1.1-7.4,4.6-7.2c0.9,0,1.2-1.3,0.4-1.9c-3.4-2.9-5.8-7-10.4-8.5c-0.7-0.4-1.5-0.7-2.2-1.1c3.5-5.1,8.1-9.2,12.9-13
c0,2.7,0.7,4.4,3.6,2.2c1.9-1.4,3.9-2.3,6.3-2.3c0.4,1,0.7,1.9,1.1,2.9c-2.1,0-4.3-0.2-5.4,2.2c0.6,2.3-4.8,4.1-0.6,6.7
c-0.3,1.3-0.7,2.6-1,3.9c-1.1-0.3-2.1-0.7-2.6,0.9c-0.3,1.1,0,1.8,1,2.3c1.5,0.7,2.9,1.2,4.6,1.1c0.8,1.9-4,4.6,0.9,5.8
c-0.3,0.7-0.6,1.3-0.9,2c-1.5,0.3-3.7-0.5-4.1,1.7c-0.4,2,1.7,2.5,3,3.4c-1.3,2.3,0.2,5.5-2.7,7.4c-1.5,1-2.3,2.7-4.6,1.8
C35.4,69.5,35,68,35,66c0,0,0.5,0,0.5,0s0.5,0,0.5,0c0,0,0.2,0.2,0.2,0.2L36.1,66c-0.1-0.3-0.2-0.5-0.4-0.8
C35.5,65.4,35.2,65.7,34.9,65.9z"/>
<path class="st1" d="M48.9,28.1c-2.4,0-4.4,0.9-6.3,2.3c-2.9,2.2-3.6,0.5-3.6-2.2C48.2,20,58.8,14,70.1,9.4C71,9.1,72,9.2,73,9
c0.2,1.4-3.3,1.7-1,3.9c2.2,2.3,3.2,0.2,4.4-0.8C78.6,10.2,81,9,84,9c-4.1,3.2-8.1,6.4-12.2,9.6c-1.1,0.9-2.6,1.1-1.3,3.3
c1.2,2.1-1.4,1.8-2.6,2.3c-2.2,1-3.6,2.4-1,4.2c2.4,1.7,2,3.9,1.8,6.2c-3.6,0.8-4-4.6-7.6-3.8c-0.3,0-0.6,0-0.9,0
c0,0-0.4-0.3-0.4-0.3c1-1.1,2.9-2.2,2.8-3.3c-0.1-1.8,4.4-4.6-0.9-5.5c0.6-2.1,0.2-3.4-2.3-2.5c-2.9,1-5,2.7-4.6,6.2
c-1.2,0.5-2.1,2.7-3.7,1.1C48.2,23.3,49.4,27.1,48.9,28.1z"/>
<path class="st2" d="M196,114c-0.2-2.5-2.5-4.7-1.3-7.6c0.5-1.3-0.6-2.6-1.9-3.1c-1.6-0.6-1.6,1.3-2.4,1.9
c-0.7,0.7-1.6,1.2-2.4,1.7c-2.3-1-2.4-3.3-3.1-5.2c0.3-0.9,0.6-1.8,0.8-2.7c2.4,0,4.9,0,7.3,0c0,0.3-0.1,0.6-0.2,0.9
c0,1.1,0.7,0.8,1.3,0.7c0.9,0.1,1.7,0.2,2.6,0.3c1.6-0.5,3.4-1.5,3.9,1.2c0.5,3,0.8,5.5,5.1,3.9c0.9-0.4,1.1,1.7,1.3,2.8
c-0.1,0.1-0.2,0.3-0.4,0.4c-0.2,0.1-0.4,0.3-0.5,0.5c-2.1,2.1-1.3,4.5,0.2,6.2c1.7,1.9,4.1,0.5,6.3,0.1c2,0.4,4,1.5,6,0
c2.7-2.6,0.3-6,1.2-8.9c0.5-0.1,1.1-0.1,1.6-0.2c0.3,5.8,1.3,11.6-1,17.2c-1.5,1-1.1-4.8-3.4-0.9c-4.3-3.5-8.3-2.9-12.1,1.5
C204.8,115.8,203.5,114.3,196,114z"/>
<path class="st1" d="M204,92c-2.6-1.9-6-3.3-3.3-7.6c0.7-1.1-0.6-2.1-1.2-3.1c-0.9-1.6-2-3.1-2.7-4.7c-0.8-1.7-0.6-3.5,1.4-4.1c2-0.6,3,1.2,2.7,2.7c-0.9,4.3,4,0.4,4.2,3.3c-0.8-4.4,1.1-8.8-1.6-13c-1.2-1.9-2.4-2.8-4.4-3.4c-2.8-0.8-5.4-2.1-4.1-5.9c0.2,0.5,0.2,1.3,1,1.1c0.1,0,0.3-0.2,0.3-0.3c0.2-0.9-0.5-0.9-1.1-1.1c-1-1.5-2.3-2.8-1.9-4.8c2.7,2.4,4.8,5.6,8.9,5.8c1.2,0.1,2.4,0.2,3.7,0.3c0,0,0.1,0.1,0.1,0.1c0.1,1.7,0.5,3.2,2.4,3.6c0.6,1.3,1.2,2.7,1.8,4c0.1,2.5,0.9,5-0.3,7.5c-0.5,1-1.2,1.9-0.2,2.9c0.2-0.4,0.4-0.9,0.6-1.3c1.2,0.7,2.6,1.3,2.7,3c-3.2,1-1.8,5.3-3.9,6.2c-3.6,1.5-3.1,4.1-3,6.8l0,0C204.9,90.3,204.1,90.8,204,92L204,92z"/>
<path class="st3" d="M206,90c-0.2-2.7-0.7-5.3,3-6.8c2.1-0.9,0.7-5.2,3.9-6.2c0.7,1.1,1.4,2.1,2,3.2c3.6,6.1,5.8,12.7,5.8,19.9c-2.5,0.2-3.5,2-3.7,4c-0.5,4.5-2.7,5.5-6.6,3.6c-0.8-2.3,0.2-4.6,0.2-6.8C210.6,96.7,211.3,92,206,90z"/>
<path class="st1" d="M200.1,163c0.7-5.8,2.3-11.3,5.7-16.1c1.4,0,2.4-0.2,2.9-1.8c0.7-2.3,2.1-1.8,3-0.2c1,1.8,3.3,2.7,3.8,4.9c-1,3.4-1.4,7-4.3,9.5c-1.6-3.1,3-5.4,0.9-9.2c-2.8,3.5-3,8.5-8,9.8c-1,0.3-1.5,4.5-0.3,6.3c1.3,2,2.7-0.8,4.2-1c0.3,0,0.6-0.1,1-0.2c-0.8,3.1-2.6,5.7-4.6,8.1c-4.1,0.4-6.5,4.1-10.3,5.1c-0.8,0.8-1.6,1.6-2.4,2.3c-0.5,0.4-1.4,0.4-1.7-0.3c-0.3-0.5-0.3-1.6-0.1-1.7c2.6-1.4,1.6-4.6,3.3-6.4c0.3-0.3,0.6-0.7,0.9-1c0,0,0-0.1,0-0.1C199.8,170.9,199.8,170.9,200.1,163z"/>
<path class="st4" d="M173.1,29.7c1.3-0.7,2.5-1.3,4.2-2.2c-3.3-3.1-9.2-2.3-10.4-7.7c1.5-0.7,2.9-0.4,4.2,0.5c8.5,5.9,16.9,12,23.1,20.5c-0.8,1.5-1.5,2.9-2.3,4.4c-1.7-0.8-3.5,2.9-5.2,0c-0.8-3.6-5.1-5.5-4.2-10.3c0.2-1.3-4.7-2.1-7.3-3C174.6,31.1,173.9,30.4,173.1,29.7z"/>
<path class="st2" d="M27,50.3c-1.4,1.4-2.7,2.8-4.1,4.3c-1.7,0.8-4.9-0.2-4.3,3.5c-0.5,0.5-1.2,0.9-1.3,1.4c-2.1,7-6.8,12.7-9.7,19.3C6.7,80.5,7.2,82.9,7,85c0,0,0,0,0,0c-1.1-0.1-2.2-0.1-3.3-0.2C5,71,12.1,59.8,19.9,48.9c3.7,0.9,5.4-1.5,7-4.1C28.2,46.6,26.8,48.5,27,50.3z"/>
<path class="st2" d="M215.4,149.7c-0.5-2.2-2.7-3.1-3.8-4.9c-0.9-1.6-2.3-2.1-3,0.2c-0.5,1.7-1.5,1.9-2.9,1.8c-1.4-2-2.5-3.7-0.2-6.3c1.6-1.8,1.7-4.8,2.5-7.3c0.3,1.1,0.6,2.1,0.9,3.2c1,3.9,4.1,5,7.9,2.6c0.6-0.1,1.2-0.2,1.8-0.3C218.8,142.7,217.5,146.3,215.4,149.7z"/>
<path class="st2" d="M192,45.2c0.8-1.5,1.5-2.9,2.3-4.4c2.7,2.4,4.8,5.2,6.6,8.3c0.4,2.6,0.8,5.1,1.2,7.7c-4.1-0.3-6.2-3.5-8.9-5.8C192,49.2,191.9,47.2,192,45.2z"/>
<path class="st1" d="M210.4,107.7c3.9,1.9,6.1,0.9,6.6-3.6c0.2-2,1.2-3.8,3.7-4c0.4,1.4,0.7,2.9,1.1,4.3c0,0,0,0.4,0,0.4c-0.1,0.7-0.2,1.4-0.2,2.2c-0.5,0.1-1.1,0.1-1.6,0.2c-2.4,2.7-1.3,5.9-1.2,8.9c-2,1.6-4,0.4-6,0c0.3-3.1-2.6-5.1-2.8-8C210.1,107.9,210.3,107.8,210.4,107.7z"/>
<path class="st3" d="M218.7,138.7c-0.6,0.1-1.2,0.2-1.8,0.3c-0.6-1.4-1.7-2.4-2.6-3.6c-2.1-2.6-2.2-6.2,0.5-7.4c2.9-1.3,2.2-3.1,2.5-4.9c2.3-3.8,1.9,1.9,3.4,0.9c-0.1,1.6-0.1,3.1-0.2,4.7c-1.1,0.5-1.2,1.2-0.5,2.1C219.5,133.6,219.1,136.1,218.7,138.7z"/>
<path class="st3" d="M208.8,164.9c-0.3,0.1-0.6,0.2-1,0.2c-1.5,0.2-2.9,3.1-4.2,1c-1.1-1.8-0.7-6,0.3-6.3c5-1.3,5.2-6.4,8-9.8c2.1,3.8-2.5,6.1-0.9,9.2C210.4,161.1,209.6,163,208.8,164.9z"/>
<path class="st2" d="M193.9,178.1c3.8-1,6.2-4.6,10.3-5.1c-2.9,5.1-6,10-10.3,14c-1.4-0.2-2.2-0.6-1.4-2.2C193.4,182.7,194.1,180.5,193.9,178.1z"/>
<path class="st1" d="M123.3,5c0.8,1.9,5,1.4,3.8,3.9c-1.2,2.7-4.4,1-6.8,0.9c-4.4-0.2-2.9-4.9-5.3-6.6C118.4,1.5,120.7,4,123.3,5z"/>
<path class="st3" d="M84,9c-3,0-5.4,1.2-7.6,3.1c-1.2,1.1-2.2,3.1-4.4,0.8c-2.2-2.3,1.2-2.5,1-3.9c4.7-1.2,9.1-3.6,14-4.1c1,0.4,2.8-0.1,2.1,2c0,0-0.2,0.1-0.2,0.1C87.1,7.2,85.1,6.9,84,9L84,9z"/>
<path class="st2" d="M214.9,80.2c-0.7-1.1-1.4-2.1-2-3.2c-0.1-1.7-1.4-2.3-2.7-3c-0.1-0.5-0.3-1.1-0.4-1.6c1.2-2.5,0.3-5,0.3-7.5c2.5,3.5,3.9,7.7,5.6,11.6C216.2,77.7,217.1,79.3,214.9,80.2z"/>
<path class="st1" d="M26.9,44.9c-1.6,2.6-3.4,5-7,4.1c1.4-3.1,3.7-5.6,6.2-7.8c0.7,0.4,1.5,0.7,2.2,1.1C27.9,43.1,27.4,44,26.9,44.9z"/>
<path class="st4" d="M202.1,56.8c-0.4-2.6-0.8-5.1-1.2-7.7c2.3,2.3,3.9,4.9,4.9,8C204.6,57,203.4,56.9,202.1,56.8z"/>
<path class="st4" d="M124,222c2.6,0.7,5.5-1.9,7.9,0.9c-2.6,0.6-5.2,1.5-7.9,1C124,223.2,124,222.6,124,222L124,222z"/>
<path class="st1" d="M112.9,3.4c-2.4,2.5-4.7,2.8-6.8-0.4C108.4,2.6,110.7,2.1,112.9,3.4z"/>
<path class="st1" d="M89.1,6.9c0.7-2.1-1.1-1.7-2.1-2c1.2-1,2.6-0.9,4.1-0.7c0.6,0.5,1.7,1.5,1.7,1.5C91.8,6.9,90.4,6.8,89.1,6.9"/>
<path class="st4" d="M208.3,60.9c-2-0.5-2.3-2-2.4-3.6C207.6,57.8,207.9,59.3,208.3,60.9z"/>
<path class="st2" d="M219.9,131c-0.6-0.9-0.6-1.7,0.5-2.1C220.8,129.7,220.8,130.4,219.9,131z"/>
<path class="st2" d="M221.9,104.8c0,0,0-0.4,0-0.4c0.2,0.1,0.4,0.1,0.7,0.2C222.3,104.6,222.1,104.7,221.9,104.8z"/>
<path class="st1" d="M162.9,143.9c-2.1,0.8-4,1.8-1.3,4c1.6,1.3,1.8,3.1,0.5,4.3c-1.6,1.5-1.1-1.2-2.1-1.5c-1.9-0.5-1.7,0.9-1.9,2
c-0.1,0.1-0.3,0.3-0.4,0.4c-3.3-1.8-5.4,1.3-7.9,2.2c-1.2,0.4-2,1.4-1.3,2.7c0.6,1,1.7,1.9,2.9,1.1c1.9-1.3,3.8,0,5.7-0.5
c-0.8,2.3-1.2,4.6-0.3,7c-1.7,0.4-2.7,1.5-3.2,3c-3.4,0.4-3.1-4.1-6.4-4.6c-0.1,1.7-0.2,3.3-0.3,4.8c-0.7,0-1.4,0.1-2.1,0.1
c-4.9-3.9-8.7-4-10.9-0.3c-1.9,0.2-3.6-0.2-5.3-1.2c-1.2-1.4-2.2-4.5-4.1-3.4c-3,1.7-4.4-0.9-6.5-1.1c-0.6-1.9,1.9-4.2-0.6-5.9
c-2.7-1.8-4.4,0.3-6.6,1.3c-3,1.4-6.2,3.3-9.9,2.5c-0.7-1-1.6-1.7-2.9-1.8c-1.1-3.6-4.2-3.6-7.2-3.9c-2.8-1.2-3.4-4-4.7-6.3
c5.9-3,6.1-10.1,1.8-15.4c-2.4-2.9-10.1-3.6-6-10.5c0.1-0.1-0.9-0.9-1.4-1.3c-3.6-3.1-7.6-1.5-10.6,4.2c-4.7-2.5-9.3-0.6-13.9,0.2
c-1.3,0.4-2.5,0.4-3.2-1c-0.2-1.9-2.8-2.1-3-4c1.9-4.2,5.3-2,8.2-2c3,1.3,2.5-2.4,4.2-3c2.9-0.3,5.8-1.1,8.9-0.5
c2.2,0.5,4-0.4,1.8-3.1c-0.5-0.6-0.6-1.5-1-2.3c-2-4.4-4.3-5-8.1-2.2c-0.5,0.4-1.6,0.1-2.4,0.1c-0.2,0-0.3,0-0.5,0
c-2.8-1.3-4-3-2.1-5.9c0.3,0.5,0.6,1,1,1.5c1.1,2.4,1.9,2,3.3,0c2-2.9,0.4-6.6,2.7-9.3c3.3,0.2,7.7,2.2,7.2-4.2
c0,0,0.9-0.2,1.4-0.2c0.9,1.7,2.1,3,4.2,2.7c0.8-0.1,1.1-0.7,0.9-1.5c-0.7-2-2-3.4-4.4-3.1c-0.2,0-0.3,0-0.5,0
c-1.4,0-3.3,0.5-4.2-0.2c-3.4-2.7-4.6-0.4-5.9,2.1c-0.6,0-1.2,0-1.8,0.1c1.5-2.5,2.3-5.2,2-8.1c2.3-2.2,3,0.6,4.1,1.5
c3.1,2.4,7.8,2.4,8.7-1.1c0.9-3.4,3.9-6.5,2.7-10.4c0.3-2.5,0.7-5.1-0.1-8c-2.8,1.4-3.3,5.1-6.5,5.4c-0.4-0.1-0.7-0.2-1.1-0.3
c0.1-1.6-1.2-2.5-1.7-3.8c1-1,1.9-2.1,2.9-3.1c2.3-0.4,5.4,1,6.6-1.9c1.4-3.4,3.4-5.8,6.8-7.2c1.7-0.7,1.4-2.4,1.4-3.9
c2.8-1.7,5.2-3.5,2.1-7c0.4-0.2,0.7-0.5,1.1-0.7c-0.2-0.2-0.3-0.3-0.5-0.5c-0.2,0.4-0.5,0.7-0.7,1.1c-1,0.7-2,1.4-3,2.1
c-2-0.8-2-5.6-5.8-2.9c-1.4-1.7-2-4.4-5-4.3c-3.1-4.4,0.7-6.7,3.1-9c2-1.9,2.5,1.1,3.5,2c0.4,0.5,0.8,1.4,1.2,1.4
c2.4-0.3,6,2.7,6.7-0.6c0.6-2.5-3.6-2.3-5.8-2.9c0.3-2.4,0-5.7,3.3-5.8c6.4-0.2,10.4,2.2,10.8,6c0.4,5.1,2.7,9.9,2.2,15.1
c-0.3,3.2,1.9,2.9,3.9,2.8c0.4,0.6,0.7,1.2,1.1,1.8c0,0-0.3,0.4-0.3,0.4c-1.8,0.3-2.1,3.1-2.8,2.9c-4.1-1.2-2.5,2.5-3.7,3.5
c-1.6,1.4-0.6,5.2-3.9,4.5c-2.6-0.6-4.4,0.8-6.4,2c-1.4,0.1-2.5,0.9-2.6,2.3c-0.1,1.6,1.4,1.4,2.5,1.5c1.2,1.5,3,2.8,3,5.1
c-1.1,0.1-2.4,0-3.4,0.5c-1.5,0.7-4.1-1-4.4,1.8c-0.3,2.6,2.2,2.7,3.7,3.6c0.3,2.4,1.5,5.8,3.8,4.6c4.1-2,7.5,0.1,10.9,0.6
c3.3,0.5,8.7-0.7,9.2,5.8c0.3,4.1-0.2,8.9,4.2,11.7c0.3,0.2,0.2,1.2,0,1.8c-0.4,1.3-2.9,2.1-1.7,3.7c1.4,1.8,3.4,0.2,5.1-0.3
c4-1.2,4.7,0.9,4.4,4.1c-0.3,3.1-2.3,4.2-5.1,4.2c-2.5,2.5-2.4,5.7-2.7,8.8c-1.3,0.6-4.1-1.1-3.8,1.5c0.4,3-1.3,2.6-2.9,2.5
c-1.8,0-3.6,0.4-6.1-0.8c3.5-1.2,3.2-3.5,2.8-6.1c-0.4-3,0.4-5.4,4.3-4.8c1.2,0.2,2.3,0.1,3.4-0.5c1.5-1,3.4-2.1,2.8-4.2
c-0.6-2.2-2.3-1.2-3.7-0.6c-1,0.4-1.6-0.1-2.1-0.8c-2.5-4.2-7.7,0.4-10.5-3.2c-0.4-0.5-1.1,0.8-1.6,1.5c-0.4,0.7-1.1,1.8-1.6,1.7
c-7-1.1-3.8,3.9-4.1,6.8l0,0c-1.4-0.3-2.9-0.6-4.4-0.8c-0.8-0.1-1.6,0.1-1.8,1.2c-0.4,2.9,4.2,11,7.2,12.5c0.3,5.2,4.4,5.2,8,5.9
c3.3,0,5.3-3.4,8.9-4c-0.3,2.4-3.4,4.5,0.2,6.1c1.4,1.2,1.8,3.4,4,3.9c-1.3,0.6-2.8,1-4,1.9c-1.9,1.6-3.3,3.7-3,6.3
c0.3,2.3,2.3,1.9,3.9,2c0.3,0,0.6,0.1,0.9,0.1c0.6,0.2,1.3,0.3,1.9,0.5c1.6,2.7,3.1,5.4,4.8,8c1.2,1.8,3.1,3.2,4.9,1.3
c2.1-2.2,2.9-0.7,4.2,0.7c2.7,2.9,4.7,3.1,5.4-1.5c2.7-2.3,4.6-6.5,9.5-3.8c0.1-2.5-1.6-3.2-2.5-4.5c0-0.4,0-0.8,0-1.2
c2.7,0.3,5.4,1.9,8.2,0.3c2.4-0.1,5.3,2.4,7.1-1.3c0.2-0.2,0.2-0.4,0-0.5c-0.4-0.8-0.8-1.6-1.3-2.4c-0.3-1.3-0.6-2.6-0.9-3.8
c0.1-0.9,0.1-1.9,0.2-2.8C161.1,138.3,163.3,139.9,162.9,143.9z M85,84l-0.2-0.2L85,84c0,0.5-0.3,1.2-0.1,1.4
c4.3,4,3.9,8.4,1.1,12.9c-0.8,1.3-0.5,2.4,0.1,3.7c1.2,2.4,3,3.9,5.5,2.8c3.1-1.3,5.9-3.5,7.5-6.6c0.4-0.8-0.9-1-1.5-1.5
c-3.3-2.5-6-6-7-9.6C89.5,83.1,87.7,83.6,85,84z M109.6,155c-0.2-1.1-0.5-2.4-1.7-2.1c-2,0.4-4.5,0.5-5.3,2.9
c-0.4,1.3,0.9,2.1,2.2,1.9C106.7,157.3,108.8,157.2,109.6,155z M106.3,94.4c-0.7-1.1-0.7-3-2.3-3.3c-1.1-0.2-1.4,1.1-1.6,2.1
c-0.2,1.6,0.7,2.4,2.2,2.6C105.5,95.8,106.2,95.5,106.3,94.4z M97.5,148.7c0.3-1.3,3.1-1.8,0.8-3.5c-0.6-0.4-2.1-0.6-2.2-0.4
C95.2,146.4,96.4,147.5,97.5,148.7z"/>
<path class="st2" d="M101,160.8c3.7,0.9,6.8-1.1,9.9-2.5c2.2-1,4-3.1,6.6-1.3c2.6,1.7,0.1,4,0.6,5.9c0.6,5,3.1,6.8,9.6,6.8
c1.7,0.7,0.2,4.5,3.8,3.7c1-0.3,1.1,1.9,0.2,2.7c-5.1,4.9,0.2,3.3,2.3,3.8c0.6,1.7,3.1,2.9,1,5.1c-1,1-1.6,2.9-0.2,3.4
c1.2,0.5,4.2-0.4,4.3-0.9c0.4-3.8,2.7-1.7,4.4-1.7c1.4,0,2.7,1.3,4.2,0.4c-2.1-3.2-5.3-6-2.8-10.3c2.8-0.1,4.1-1.9,4.7-4.3
c0.5-2-1.1-2.4-2.7-2.7c0.1-1.6,0.2-3.1,0.3-4.8c3.3,0.6,3,5,6.4,4.6c1.2,1,1.8,3.7,4,2.1c1.8-1.3,0.1-2.9-0.5-4.3
c-0.1-0.3-0.2-0.6-0.3-0.9c-0.9-2.4-0.4-4.7,0.3-7c1.3-1.3,2.7-2.5,4.7-1.5c2,1,3.3,1.4,5.7-0.3c2.8-2,2.7,1,2.4,3.1
c-2.8,1.7-4.6,3.7-2.1,6.9c0.2,1.2,0.9,1.9,2.1,2.1c0.1,2.8-1.2,4.5-3.9,5.2c-2.4-0.1-4.9-1.4-7.1,0.7c-1.9,1-5.2-2.3-6.1,1.6
c-0.6,2.7,1.5,3.6,3.9,3.5c0,1.8,0,3.5,0,6.1c3.5-3.4,7.1,1.5,10.3-1.2c4.2,2.2,6.9-0.4,9.6-2.9c0.1,3.1-0.3,5.9-4.3,5.7
c-2.2-0.1-2.2,1.3-2.6,2.8c-1.1,3.6-3.6,4.2-6.4,2c-1.8-1.4-9.2,1.3-9.8,3.7c-0.4,1.4,0.7,1.8,1.8,1.7c2.1-0.2,4.3-0.6,6.4-0.8
c0.7-0.1,1.4,0.3,1.4,1.1c0,0.4-0.6,1.1-0.8,1.1c-4.4-0.8-7.8,5-12.5,1.9c-1.5,0-3.1,0.1-4.6,0.1c-1.1-1.3-1.7-3.6-3.9-2.6
c-2.2,1.1-0.8,3-0.3,4.6c-3.8,2.1-7.9,1.8-12,1.9c-1.5-2.6-3.1-3.4-5.2-0.6c-1.2,1.6-2.5,3-3.7,4.5c0.2,1.3,1.5,2.9-0.7,3.7
c-4.6,1.8-9.3,3.5-14.4,2.3c3.4-1.7,3.4-1.7,4.2-4.6c-5.6,3.1-11.5,4.2-17.5,4.7c-2.3-2.1-5.2,0.5-7.5-1.1
c-0.5-1.9-1.1-3.8,1.9-3.9c3.8-0.1,7.5-2.1,11.4,0c0.8-2.4-2.3-6.7,3.1-5.9c2.2,1,5.2,1.7,6.2-0.7c1.1-2.6-2.1-2.6-3.7-3.3
c0.4-1.5,1.1-2.8,2.8-3.1c5.5,1.6,11.1,4.5,16.2-1c6.2,1.7,6.8,1.2,6.9-7c2.9-1,1.4-4.4,4.5-6.2c-4-0.4-6.7-0.7-9.4-1
c0-0.9,0-1.8,0-2.7c0.9-2,1.8-4.3-0.6-5.6c-2.2-1.2-4,0.3-5.3,2.2c-4.9,1.8-6-2.5-7-5.2c-1.6-4.3-4.5-5-8.3-4.7
C103.1,163.9,101.7,162.5,101,160.8z M142,190.1c-0.9,0.1-2.2,0-2,1.4c0.2,1.2,1.4,1.3,2.3,1.3c1,0,2.2-0.1,2-1.5
C144.2,190.1,142.9,190.2,142,190.1z"/>
<path class="st2" d="M58.3,119c-2.9,0-6.4-2.2-8.2,2c-1.6-0.6-3.1-1.7-5-1c-0.2-0.4-0.5-0.8-0.7-1.2c-0.2,0.2-0.3,0.3-0.5,0.5c0.4,0.2,0.8,0.5,1.2,0.7c0.6,6.1,0.6,6.1,8,5c0.7,1.4,1.9,1.4,3.2,1c-0.4,4.6-0.8,9.3-1.2,13.9c-3.4-5.7-6.5-11.7-12.9-12.3c-8.3-0.9-5.4-6.3-5.9-10.7c0.5,0.4,1.1,0.7,1.5,1.2c0.7,0.8,1.2,2.4,2.5,1.6c1.1-0.6,0.7-2.1,0.1-3.1c-1.3-2.5,0.3-5.1-0.6-7.5c2.1-0.4,3.8,0.3,5.3,1.8c0.7,0.8,1.3,1.3,2.5,0.7c3.8-1.9,1.5-4.7,1.2-7.3c-3.7-2.5-9,0.1-9.7,4.7c-0.4,0-0.7,0-1.1-0.1c-0.2-1.3-1-2.4-2.1-3.1c0-3.5,0.1-7.1,2.8-9.9c0.5,0.6,1,1.3,1.5,1.9c1,1.4,1.7,3.2,4.2,2.6c2.6-0.6,1.5-2.7,2.1-4.2c1.1-2.7-0.2-3.6-2.3-4.3c-2-0.6-2.1-2.3-2.2-3.9l0,0c4.5,1.6,4.8-2.4,6.5-4.7c1.3-1.9,1.8-4.8,5.6-4.6c-0.6,2.1-1.1,4-2.6,5.5c-2.3,2.4-1.1,5.2-0.1,7.3c1.2,2.4,2.6,5.7,6.5,4.4c-1.2,2.3,3,3.6,1.1,6.1c-1.9,2.9-0.7,4.7,2.1,5.9C56.9,110.8,58.5,115.2,58.3,119z"/>
<path class="st3" d="M70.1,125.8c3-5.7,7-7.3,10.6-4.2c0.5,0.4,1.4,1.2,1.4,1.3c-4.2,6.9,3.6,7.5,6,10.5c4.3,5.3,4.1,12.4-1.8,15.4c-4.2-1.2-7.6-4.4-12.2-4.5c-0.6,0-1.6-1-1.7-1.6C71.8,137.1,68.3,131.8,70.1,125.8z M87.7,140.6c-0.2-0.1-0.4-0.2-0.6-0.2c-0.1,0-0.2,0.3-0.2,0.4c0.1,0.2,0.3,0.4,0.4,0.6C87.5,141.1,87.6,140.8,87.7,140.6z"/>
<path class="st2" d="M80.6,71.8c1.3,4-1.8,7-2.7,10.4c-0.9,3.4-5.6,3.4-8.7,1.1c-1.1-0.9-1.8-3.7-4.1-1.5c-4.1-2.1-4.2-2.5-2-4.9c0.7,0,1.4,0,2.1,0c2.3-1.1,2.4-3.4,2.8-5.5c1.1-0.4,2.2-0.7,3.3-1.1C74,73.1,77.2,73.1,80.6,71.8z"/>
<path class="st4" d="M65.2,77c-0.7,0-1.4,0-2.1,0c-0.7-2.1-1.4-4.1-2-6.2c-0.3-0.9-0.7-1.8-1-2.8c0.3-1.8,2.9-3.6,0.6-5.3c-1.7-1.2-3,0.4-3.8,2c-2.4-0.1-6.8,2.5-4.8-3.6c1.9-1.3,3.8-2.7,5.7-4c1.7-1.2,3.3-3.3,5.4-0.5c1.6,2.2,4.3,4.3-1.3,7.3c3.4-0.5,4.8,0.3,6.1,1.2c-1,1.8-1.9,3.5-2.9,5.3C65.2,72.7,65.9,74.8,65.2,77z"/>
<path class="st2" d="M91,155.2c3,0.2,6,0.3,7.2,3.9c-4.5,1.9-4.3,5-2.2,8.6c-1,2-2.3,2-4.5,1.6c-5.2-1-6.7-5.8-9.5-9c-1.6-1.9,1.2-2.6,2.2-3.7c1.2-1.2,2.1-1,3,0.7c1,1.9,1.5,4.5,5.2,4.6C91,159.5,89.1,157.5,91,155.2z"/>
<path class="st4" d="M26.9,44.9c0.5-0.9,0.9-1.8,1.4-2.6c4.6,1.4,7,5.6,10.4,8.5c0.7,0.6,0.5,1.9-0.4,1.9c-5.7-0.2-4.2,4.1-4.6,7.2c-0.1,0.6-0.5,1.2-0.7,1.8c-1-0.2-2.1-0.3-3.1-0.5c-0.4-0.4-0.8-0.8-1.3-1.2c-1.5-4.5,3.9-7.2,3.1-11.9c-2,0.1-3.2,1.5-4.7,2.2C26.8,48.5,28.2,46.6,26.9,44.9z"/>
<path class="st1" d="M84.2,213.9c2.3,1.7,5.3-1,7.5,1.1c0.6,3.2,3.9,4.8,4.4,8c-4.8,1.7-8.9-0.9-13.2-2c0.2-2.9-4.2-2.7-3.8-5.7c1.6,0.4,3.2,0.9,4.1-1.1C83.5,214.1,83.9,214,84.2,213.9z"/>
<path class="st2" d="M35.3,81.9c1.8-3.5,6.6-2.4,8.8-6c0.4,4.5-2.4,8-2.1,12.1c0,0,0,0,0,0c-4.4,0.8-1.4,5.1-3.3,7.1c-1-0.6-1.7-1.9-3.2-1.1c-0.5-1.4-1-2.7-1.6-4C34.5,87.3,36.8,84.9,35.3,81.9z"/>
<path class="st2" d="M79.1,215.3c-0.4,3,4,2.8,3.8,5.7c-7.6-1.4-14.8-3.8-21.5-7.8c2-1.1,4-2.1,6-3.2C71.2,212.1,74.6,214.9,79.1,215.3z"/>
<path class="st2" d="M60,68.1c0.3,0.9,0.7,1.8,1,2.8c-4-1.5-7.9-3.1-11.9,0.2c-1.7-3.6-3.6-7.1-2.1-11.2c0.3-0.6,0.6-1.2,0.9-1.8c2.4-0.3,4,0.4,4,3.1c-2,6.1,2.4,3.5,4.8,3.6C57.3,66.6,58.3,67.7,60,68.1z"/>
<path class="st4" d="M122.1,196c-5.1,5.6-10.7,2.6-16.2,1c-0.1-4.3,4.6-3.5,6.3-5.9c1.8,2.1,4.2,2.5,6.7,2.8C120.3,194.2,121.4,194.8,122.1,196z"/>
<path class="st2" d="M119,193.9c-2.5-0.3-4.9-0.8-6.7-2.8c-0.2-2.9,0.5-5.3,3.7-6.1c0,0,0,0,0,0c0.3,0,0.7,0,1,0l0,0c1.9-0.5,3.9-1.2,5.4,1c1.5,2.1-0.4,3.7-1.1,5.4C120.9,192.4,119.8,193.1,119,193.9z"/>
<path class="st2" d="M101.7,180.1c2.9,1.2,6.7,1.4,6.6,5.7c-0.1,1.6-0.3,4.1-3.1,3c-3.3-1.2-7-2.3-7.5-6.3C97.4,180.3,100,180.3,101.7,180.1z"/>
<path class="st4" d="M95.9,167.7c-2-3.6-2.3-6.7,2.2-8.6c1.3,0.1,2.2,0.8,2.9,1.8c0.7,1.6,2,3,1.9,5C100.6,166.4,98.2,167.1,95.9,167.7z"/>
<path class="st3" d="M79.1,215.3c-4.5-0.5-7.9-3.2-11.7-5.3c0-2.2,1.3-2.7,3.2-2.7c1.6,0,1.5,0.9,1.7,2.2c0.4,2.4,2.5,2.8,4.6,2.7c2.4-0.1,4.5,0.4,6.3,2.1C82.3,216.3,80.7,215.7,79.1,215.3z"/>
<path class="st2" d="M63.1,90c0.6,0,1.2,0,1.8-0.1c-0.1,1.6-0.6,3.3,1.2,4.4c-2.3,2.7-0.7,6.4-2.7,9.3c-1.4,2-2.2,2.4-3.3,0c1.7-2.3,1.6-4.9,0.9-7.5C61.7,94.1,63.8,92.5,63.1,90z"/>
<path class="st2" d="M53,207.9c-5.2-0.6-8.4-4.3-11.7-7.7C46.5,200.8,51.1,202.2,53,207.9z"/>
<path class="st4" d="M38,108.9c0.4,0,0.7,0,1.1,0.1c0.3,0,0.5,0.1,0.8,0.1c0.8,2.5-0.8,5.1,0.6,7.5c0.6,1,1,2.5-0.1,3.1c-1.3,0.7-1.8-0.8-2.5-1.6c-0.4-0.5-1-0.8-1.5-1.2C35.8,114,36.3,111.4,38,108.9z"/>
<path class="st4" d="M124.1,181.7c2.7,0.3,5.5,0.6,9.4,1c-3.2,1.8-1.7,5.2-4.5,6.2C127.2,186.7,124.6,184.9,124.1,181.7z"/>
<path class="st4" d="M21.1,106c-1.3,1-2.5,2.7-4.2,1.2c-1.5-1.4-0.7-2.9,0.5-4.3c1-1.1-1.4-4.5,2.5-3.9c0.7,1.4,1.3,2.9,2,4.3c0.1,0.2,0.1,0.4,0.1,0.7C21.7,104.6,21.4,105.3,21.1,106z"/>
<path class="st4" d="M118.2,175.7c1.3-1.9,3.1-3.4,5.3-2.2c2.4,1.3,1.5,3.6,0.6,5.6C120.5,180.8,120.1,177,118.2,175.7z"/>
<path class="st3" d="M61.9,174.7c-0.2,2.4-1.5,2.8-2.8,2.6c-2-0.2-2.8-1.6-2.6-3.5c0.2-1.9,0.9-3.8,3.2-3.6C63.2,170.6,58.3,174.8,61.9,174.7z"/>
<path class="st1" d="M6.1,141.3c0.3-1.5,0.6-2.9,0.8-4.4c0.3,0,0.6,0,0.9-0.1c0.8,1,2.4,1.4,2.4,2.9c0.1,1.6,1.8,3.9-0.3,4.7C7.8,145.4,6.5,143.5,6.1,141.3z"/>
<path class="st2" d="M28.7,59.9c0.4,0.4,0.8,0.8,1.3,1.2c0,0.2-0.1,0.3-0.1,0.5c-0.9,2.8-3.1,3.6-5.8,3.2c-1.2-0.2-1.4-0.9-1.1-2.2C23.9,59.5,26.1,59.4,28.7,59.9z"/>
<path class="st2" d="M7,85c0.7-0.7,1.4-1.3,2.1-2.1c1.5-1.8,3.8-2.4,5.1-0.7c1.4,2-1.3,2.5-2.5,3.1C10.2,86.1,8,91.6,7,85C7,85,7,85,7,85z"/>
<path class="st4" d="M9.9,127c1.8-2.3,2.8-0.1,3.7,0.9c1.1,1.2,1.8,2.9,0.8,4.5c-0.6,1-1.6,1.6-2.4,2.4C10.3,132.5,11.1,129.5,9.9,127z"/>
<path class="st1" d="M103.1,200.1c1.6,0.8,4.8,0.8,3.7,3.3c-1.1,2.4-4,1.7-6.2,0.7C100.3,202.1,101.1,200.7,103.1,200.1z"/>
<path class="st3" d="M27.4,120.2c1.1,2.1,0.4,3.8-0.2,5.4c-0.3,0.8-0.2,2.3-1.4,2.2c-0.8-0.1-1.7-1-2.1-1.8c-0.6-1-0.9-2.4,0.6-2.9C25.7,122.6,26.2,121,27.4,120.2z"/>
<path class="st4" d="M35.6,94c1.5-0.8,2.2,0.5,3.2,1.1c0,0.3,0,0.5-0.1,0.8c-2.7,2.8-2.7,6.4-2.8,9.9C33.3,101.9,34.2,98,35.6,94z"/>
<path class="st3" d="M35.3,81.9c1.5,3-0.8,5.4-1.3,8C30,87.3,30,87,35.3,81.9z"/>
<path class="st4" d="M48,58.2c-0.3,0.6-0.6,1.2-0.9,1.8c-0.7,0.4-1.5,0.8-2.2,1.1c-1.3-0.9-3.4-1.4-3-3.4c0.4-2.2,2.6-1.4,4.1-1.7C46.6,56.7,47.3,57.4,48,58.2z"/>
<path class="st2" d="M46.8,139c-0.2,1.3-0.9,2.3-2.2,1.9c-1.1-0.3-2.9-0.7-2.6-2.3c0.2-1.2,1.7-2,3.1-2C46.4,136.6,46.7,137.8,46.8,139z"/>
<path class="st1" d="M23.7,140c-4.3-0.1-3.2-3.7-5.3-6.4c3.6,0.7,3.9,3.1,5.4,4.2C23.8,138.6,23.7,139.3,23.7,140z"/>
<path class="st2" d="M93.3,183.9c-0.7,1.4-1.7,2.4-3.1,2.3c-1.3-0.1-1.2-1.4-1.3-2.4c-0.1-1.8,1.2-1.8,2.4-1.6C92.4,182.3,93.2,182.9,93.3,183.9z"/>
<path class="st4" d="M61,96.1c0.6,2.6,0.7,5.2-0.9,7.5c-0.3-0.5-0.6-1-1-1.5c1.9-2.4-2.3-3.8-1.1-6.1C59,95.3,60,96,61,96.1z"/>
<path class="st2" d="M58.9,200.2c2.9-0.8,4.9-3.2,8-0.9C64.5,201,62.4,202.2,58.9,200.2z"/>
<path class="st2" d="M100.8,174.9c-1.6-0.1-2.6-0.6-2.5-2.1c0-0.9,0.7-1.5,1.6-1.4c1.2,0.1,2.3,0.5,2.5,1.9C102.6,174.6,101.4,174.6,100.8,174.9z"/>
<path class="st2" d="M37.9,197.4c-2.6-0.2-3.6-2.3-4.9-4.2C36.2,192.8,37.3,194.9,37.9,197.4z"/>
<path class="st3" d="M18.6,58c-0.6-3.7,2.6-2.7,4.3-3.5C22.5,57,20.8,57.8,18.6,58z"/>
<path class="st2" d="M53.4,87.2c0.7,0.3,1.8,0,1.9,1.1c0.1,0.7-0.5,1.2-1.2,1.2c-0.9,0-1.6-0.5-1.8-1.3C52.1,87.2,52.6,87,53.4,87.2z"/>
<path class="st3" d="M28.8,115.9c-1.7-0.6-2.8-1-2.4-2.5c0.1-0.4,0.8-1,0.9-0.9C28.6,113,28.5,114.2,28.8,115.9z"/>
<path class="st4" d="M63,132.1c-2.5-1.2-1-2.5-0.7-5C64.2,129.4,62.3,130.8,63,132.1L63,132.1z"/>
<path class="st2" d="M22,104c0-0.2-0.1-0.5-0.1-0.7c0.4-0.1,0.9-0.2,1.3-0.3C23.3,104,22.5,103.8,22,104z"/>
<path class="st2" d="M116,185c0.2-0.2,0.5-0.5,0.7-0.7c0.1,0.2,0.2,0.5,0.3,0.7c0,0,0,0,0,0C116.7,185,116.3,185,116,185C116,185,116,185,116,185z"/>
<path class="st4" d="M63.1,132C63.1,132,63,132.1,63.1,132C63,132.1,63.1,132,63.1,132z"/>
<path class="st4" d="M96.1,223.1c-0.5-3.2-3.8-4.9-4.4-8c6-0.4,11.9-1.6,17.5-4.7c-0.8,2.9-0.8,2.9-4.2,4.6c-4.1,1.1-0.8,5.3-3,7.2C100.3,224.4,98.1,223.2,96.1,223.1z"/>
<path class="st4" d="M124,222c-2.4-0.1-4.4-1.1-4.2-3.7c0.1-1.8,1.6-3.2,3.3-3.9c0.6-0.2,1.8,0,2.2,0.4c1.4,1.5,0.4,2.9-0.6,4.3C124.2,219.9,124.3,221,124,222C124,222,124,222,124,222z"/>
<path class="st4" d="M120,208.9c1.2-1.5,2.5-2.9,3.7-4.5c2.1-2.8,3.8-2,5.2,0.6C127.4,209.5,123.5,208.7,120,208.9z"/>
<path class="st4" d="M141,203.1c-0.5-1.6-1.9-3.5,0.3-4.6c2.2-1.1,2.8,1.3,3.9,2.6C144.4,203,142.7,203.1,141,203.1z"/>
<path class="st1" d="M13,123.2c0.2-3.8-2.2-8,1.7-11.3c-0.7,4,1.2,8.2-1.6,12C13.1,123.6,13,123.4,13,123.2z"/>
<path class="st1" d="M6.6,134.7c-1.6-0.8-1.3-2.2-1.3-3.6C7.1,131.8,7.2,133.1,6.6,134.7z"/>
<path class="st4" d="M13,123.2c0,0.2,0.1,0.4,0.1,0.6c-0.2,0-0.4,0-0.7,0C12.6,123.6,12.8,123.4,13,123.2z"/>
<path class="st1" d="M185,101.8c0.7,2,0.8,4.2,3.1,5.2c-2.9,6.2-4.5,0.1-6.9-0.8c-2.5,3.4-2.8,7.5-3.7,11.4
c1.5,1.8,3.5-1.6,4.8,0.7c1.1,1.9,0.4,3.8,0,5.7c-0.2,1-0.2,2-0.3,2.9c-0.3,0-0.6,0-0.9,0c-0.7-1.9-2.4-1.8-4-2
c-2.7-3.7-4.9-0.4-6.6,0.9c-1.8,1.4-3.1,2.8-5.3,1.2c1.1-2.9,0-4.5-2.9-5.1c-0.4-3.1,0.3-5,4.1-5.1c5.4-0.1,8.7-3.3,10.4-8.4
c1.1-3.2-3.4-10.8-6.5-9.8c-8.4,2.8-4.2-3.3-3.8-5.6c0.4-2.9,0-4.2-3-4.1l-0.1,0c-0.7-0.3-1.5-0.6-2.2-0.9
c-0.6-5.6-2.4-10.6-8.5-12.6c-0.2,2.2-0.5,4.9-0.8,7.6c-6.2,0.8-11.6-1.7-16.9-4.1c-1.3-1.7-1.2-3.1,1.3-2.6
c4.3,0.8,5.5-1.7,6.2-5.1c0.3-1.3,0.5-2.6,1-3.8c0.9-1.9,2.4-1.5,3.7-0.6c1.4,1,1.6,2.1-0.2,2.9c-1,0.4-1.1,1.1-0.8,2
c-1.6,1.6-2.9,3.3-0.8,5.3c1.3,1.2,2.5-0.1,3.3-1c1.9-2.2-1.2-2.7-1.6-4.1c3.2-0.2,3.4-3.3,5-5c3.6,0.4,5.4-2.9,8.3-4.2
c3-1.3,5.3-3.4,9.1-3.8c3-0.3,6.5,0.8,9.6-1.2c1.9-1.2,3.7,0.5,5.2,1.8c1.6,1.3,1.6,2.6,0.3,4.2c-1.5,1.8,1.1,3.3,0.6,5.1
c-0.7,0-1.3,0.1-2,0.1c-1.1,0.1-2.5,0.1-2.5,1.7c0,0.4,0.4,1,0.7,1.2c1.4,0.8,2.1-0.6,2.8-1.3c0.4-0.4,0.6-1.1,0.9-1.7
c3.5,0.8,4.7,3,4.2,6.6c-2.1,0.1-4.7-4.6-6.2,0.5c0,0,0,0,0,0c2.6,2.5,0.7,6.1,2.1,8.9c-0.7,2.2-3.6,1-4.7,2.7
c1.7,2.2,4,1,5.8,1.6c-0.1,1.6-0.8,3-1.8,4.2c-2.5-0.6-3.9,0.3-4.8,2.8c-0.5,1.4-0.8,2.3,0.7,3.2c1.1,0.7,1.9,1.8,2.8,2.7
c0.1,0.2,0.2,0.5,0.2,0.7c0.2-0.2,0.4-0.5,0.6-0.7C184.3,101.9,184.7,101.8,185,101.8z M174.3,78.9c0.7-0.2,1.6-0.5,1.6-1.7
c0-1.1,0.1-2.5-1.6-2.5c-1.3,0-2.1,0.8-2.1,2.2C172.2,77.9,172.7,78.7,174.3,78.9z"/>
<path class="st1" d="M114.3,45.9c2.3-0.6,4.6-1.2,6.9-1.8c0.6-1.9-3.1-3-1.2-4.7c1.8-1.6,3.6,0.1,5.2,1.3c2.5,1.8,6.4,2.5,3.5,7.3
c-1.1,1.8,1.6,2.5,3.1,2.8c1.9,0.4,4.1,0.2,4.3,3c-0.8,1-1.6,1.9-2.4,2.9c-3.6-1.9-5.5,2.3-8.6,2.4c-1.6,0-5-1-4.6,1.1
c0.6,3.4-2.9,7.1,0.7,10.2c1.1,0.9,1.4,2.7,3.5,1.7c1.9-1,4-2.1,5.8,0.1c1.7,2.2,0.4,4.3-0.5,6.3c-0.5,0.7-1.3,1.4-0.7,2.1
c0.8,0.9,1.3-0.2,1.9-0.7c0.6,0.4,1.3,0.8,1.9,1.2c3.2,0.7,5.4,1.9,5.4,6c0,1.7,1.1,5,4.7,4.5c2.4-0.3,2.3,1.8,2.6,3.4
c-2.1-0.1-1.5,3.6-2.5,2.9c-2.8-2.2-5,0.9-7.5,0.3c-2.7-0.2-4.7,0.2-6.1-3.8c-1.1-3.3-2.3-8.5-7.5-9.3c-4-0.6-7.2-4.2-5.9-7.8
c1.1-3,4-5.4-1.4-6.9c-0.8-0.2,0.3-1.7,0.8-2.5c1.7-2.9,0.2-2.9-2.3-3.5c-2.1-0.5-2.6,0.9-3.7,1.6c-3.5,2.3-4.5-1.7-6-2.9
c-1.6-1.3,0.8-2.7,2.4-3.2c4.2-1.5,4.2-4.2,2.3-7.4c-0.8-1.3-1.6-2.5-1.6-4.1c0,0,0.3-0.4,0.3-0.4C109.4,46.9,112.8,50,114.3,45.9
z M113.7,52.6c2.8-1,5.1,4.3,7.4,0.9c1.2-1.7-0.6-4.3-2.6-5.3C114.5,46.5,116,51.7,113.7,52.6z M116.5,60.1c0.1-1.3,0.6-2.8-1.4-3
c-1.4-0.1-2.1,0.8-2.2,2.1c-0.2,1.8,0.8,2.9,2.5,3C117,62.4,116.5,61,116.5,60.1z"/>
<path class="st0" d="M48,58.2c-0.7-0.7-1.3-1.5-2-2.2c0.3-0.7,0.6-1.3,0.9-2c0.8-2.2,1.9-4.3,2.2-6.5c0.2-2-0.5-4.2-0.8-6.2
c-1.1,0.6-2.8-0.2-3.2,1.7c-0.7,0.3-1.4,0.6-2.1,0.9c0.3-1.3,0.7-2.6,1-3.9c0.8-1.5,2.7-2.1,2.9-4c1.6-0.1,3.3-0.6,4.3,1.4
c0.8,1.6,1.9,3,3.7,1c1.5-1.7,1-3.5-0.6-4.7c-1.3-1-2.8-1.7-4.2-2.5c0,0,0-0.1,0-0.1c-0.4-1-0.7-1.9-1.1-2.9
c0.5-1-0.7-4.8,2.4-1.4c1.6,1.7,2.5-0.6,3.7-1c0.6,0.4,1.3,0.8,1.9,1.2c1,1.3,2,2.5,3,3.8c0,0,0.4,0.3,0.4,0.3
c0.1,0.4,0.3,0.8,0.4,1.3c0.1-0.4,0.3-0.9,0.4-1.3c3.5-0.7,4,4.6,7.6,3.8c0.7,1.5,1.9,2.2,3.4,2.6c0,1.3,0.8,2,1.8,2.5
c0.1,0.3,0.1,0.7,0.2,1c-0.7,3.1-1.5,6.2-2.1,9.3c-0.3,1.6,0.5,2.9,1.8,3.8c1,1,2,2,3.1,3l0,0c-2.6,0.8-3,2.7-2.9,5.1
c-1,1-1.9,2.1-2.9,3.1c-1.1,0-2.2,0-3.3,0.1c-1.4-0.8-2.7-1.7-6.1-1.2c5.6-3,3-5.1,1.3-7.3c-2.1-2.8-3.7-0.6-5.4,0.5
c-1.9,1.3-3.8,2.7-5.7,4C52,58.6,50.4,57.9,48,58.2z M63.2,47.4c-0.2-2.6-1.7-2.4-2.7-2.8c-1.5-0.6-3.7-0.4-3.7,1.3
c0,3.2-1.9,5.1-3.7,7.2c-0.8,1-1.7,2.6,0,3.4c1.6,0.9,3.3-0.2,3.4-1.8c0.2-3,2.2-4.2,4.3-5.6C61.8,48.4,62.8,47.8,63.2,47.4z"/>
<path class="st4" d="M133.2,81.1c-0.6-0.4-1.3-0.8-1.9-1.2c-0.4-0.5-0.8-0.9-1.2-1.4c0.8-2.1,2.2-4.2,0.5-6.3
c-1.8-2.3-3.9-1.1-5.8-0.1c-2.1,1.1-2.4-0.8-3.5-1.7c-3.6-3.1-0.1-6.7-0.7-10.2c-0.4-2.1,3-1,4.6-1.1c3.1-0.1,5-4.4,8.6-2.4
c1.6,1.2,3.1,1,4.7,0c1.2,0,2.4,0.1,3.6,0.1c-0.4,5,3,6.3,6.9,7.1c0,0,0.2,0.2,0.2,0.2c0,1.2,0.7,1.8,1.8,1.9c0.3,0.3,0.7,0.7,1,1
c-1.6,1.7-1.8,4.9-5,5c-0.3,0-0.6-0.1-1-0.2c-0.2-0.9-0.2-1.6,0.8-2c1.8-0.8,1.6-2,0.2-2.9c-1.3-0.9-2.9-1.3-3.7,0.6
c-0.5,1.2-0.7,2.5-1,3.8c-0.7,3.3-1.9,5.9-6.2,5.1c-2.4-0.5-2.5,0.9-1.3,2.6C134.3,79.7,133.7,80.4,133.2,81.1z M138.9,59.8
c-0.3,1.1-0.6,2.2-0.9,3.2c-1-0.3-2-0.6-2.9-0.9c-0.5-1.1-1.2-2.5-2.3-0.9c-1.1,1.5-0.6,3.2,1.4,4c0,0.4,0,0.8,0,1.2
c0.4-0.3,0.8-0.7,1.2-1c2.4,0.8,3.1-0.1,2.6-2.4c2.8,0.5,2.4-1.3,2.1-3C139.7,59.5,139.4,59.4,138.9,59.8z"/>
<path class="st1" d="M206,90c5.2,2,4.6,6.7,4.6,10.8c0,2.3-1,4.5-0.2,6.8c-0.1,0.1-0.3,0.2-0.4,0.3c-0.9,0.3-1.9,0.6-2.8,0.9c-0.2-1.1-0.4-3.2-1.3-2.8c-4.2,1.7-4.6-0.9-5.1-3.9c-0.4-2.6-2.3-1.7-3.9-1.2c-0.1-0.8-0.2-1.6-0.2-2.4c-0.1-1.3-2.5-2.9-0.6-3.7c1.4-0.6,3.7-2.6,5.6,0.2c0.7,1,2.5,1.2,3.7,1.7c1.8-2.5-1.1-3.2-1.4-4.8c0,0,0,0,0,0C205.1,91.8,205.7,91.1,206,90L206,90zM203.7,97.8c-0.6-0.3-1.4-1.5-1.7,0.2c0.1,1-1.1,2.7,0.7,2.6C204,100.7,203.9,99,203.7,97.8z"/>
<path class="st1" d="M158.9,33c-5.1,0.8-10-1.4-15-1.6c-1.1,0-2.5-0.6-2.8-1.8c-0.2-1.3,1.1-1.9,2-2.5c1.2-0.8,2.9-1.3,2.2-3.3c-1.2-3.3,1.2-3.1,3.3-3.9c3.2-1.2,4,2.4,3.9,2.7c-1,4.3,2.3,4.4,4.8,5.1c1.8,0.5,2.4,1.6,2.6,3.2C159.7,31.6,159.3,32.3,158.9,33z M149.5,24.1c-0.1,0.1-0.2,0.1-0.3,0.2c-0.1,0.1,0,0.3,0,0.4c0.2-0.1,0.3-0.2,0.5-0.3C149.7,24.3,149.6,24.2,149.5,24.1z"/>
<path class="st2" d="M73.9,54c-1.4-0.9-2.1-2.2-1.8-3.8c0.6-3.1,1.4-6.2,2.1-9.3c0.3-0.3,0.5-0.6,0.8-0.9l0.1-0.1c0.7-1,1.5-2,2.2-3c3-0.1,3.6,2.6,5,4.3c-0.3,3.3-2.6,4.2-6.5,3.9c2.9,2.3,8.2,4.2,0.7,5.3C74.8,50.7,74.8,52.8,73.9,54z"/>
<path class="st4" d="M183.1,102c-0.9-0.9-1.8-2-2.8-2.7c-1.5-0.9-1.2-1.8-0.7-3.2c0.8-2.5,2.3-3.4,4.8-2.8c0.3,1.2,0.6,2.3,0.9,3.5c-0.2,0.9,0.1,1.6,0.7,2.3c-0.3,0.9-0.6,1.8-0.8,2.7c-0.4,0.1-0.7,0.2-1.1,0.2C183.7,102,183.4,102,183.1,102z"/>
<path class="st1" d="M149,63.9c-3.9-0.8-7.3-2.1-6.9-7.1c2.8-1.1,6.2,0.7,6.8,3.7C149.1,61.6,148.9,62.7,149,63.9z"/>
<path class="st1" d="M119.8,27.6c-2.3,0.8-4.2,0.2-6.1,0c-1.4-0.2-2.5-1-2.2-2.6c0.3-1.8,1.8-1.7,3.1-1.6C116.9,23.6,118.8,24.6,119.8,27.6z"/>
<path class="st4" d="M114.3,45.9c-1.4,4.1-4.8,1-7.1,1.9c-0.4-0.6-0.7-1.2-1.1-1.8C108.7,42.5,111.5,44.2,114.3,45.9z"/>
<path class="st2" d="M86,27.9c2.3,0.5,6.4,0.4,5.8,2.9c-0.7,3.3-4.4,0.3-6.7,0.6c-0.3,0-0.8-0.9-1.2-1.4C84.1,28.8,84.9,28.2,86,27.9z"/>
<path class="st1" d="M185.9,99.1c-0.6-0.6-0.9-1.4-0.7-2.3c1.6,0.9,3,0.6,4.4-0.5c0.9-0.7,1.9-2.1,3.3-1c1.5,1.1,1.1,2.5,0.2,3.8C190.7,99.1,188.3,99.1,185.9,99.1z"/>
<path class="st4" d="M186.1,89.2c-1.8-0.6-4.1,0.6-5.8-1.6c1.1-1.7,4.1-0.5,4.7-2.7C186.5,86,187.3,87.4,186.1,89.2z"/>
<path class="st2" d="M138.4,56.7c-1.6,1-3.2,1.1-4.7,0c0.8-1,1.6-1.9,2.4-2.9C137.6,54.2,138.3,55.3,138.4,56.7z"/>
<path class="st1" d="M74,39.9c-1.1-0.5-1.8-1.3-1.8-2.5c3.6-2.1,2.5,1.1,2.9,2.6c0,0-0.1,0.1-0.1,0.1C74.6,40,74.3,39.9,74,39.9z"/>
<path class="st4" d="M158.9,33c0.4-0.7,0.8-1.4,1.1-2.1c0.9,0.7,1.8,1.5,2.7,2.2c-1.2,0.9-2.5,0.9-3.9,0.8C159,33.6,159,33.3,158.9,33z"/>
<path class="st1" d="M84,9c1-2.1,3-1.8,4.9-1.9C87.5,8.2,85.9,8.9,84,9z"/>
<path class="st1" d="M151,66c-1.1-0.2-1.8-0.7-1.8-1.9C150.3,64.2,150.8,65,151,66z"/>
<path class="st1" d="M194.3,100.7c-0.6,0.1-1.3,0.4-1.3-0.7C193.4,100.2,193.9,100.5,194.3,100.7z"/>
<path class="st2" d="M135.9,98.1c2.5,0.6,4.6-2.5,7.5-0.3c1,0.8,0.3-3,2.5-2.9c1.8,1.7,3.4,3.5,3.5,6.1c-1.2,1.2-3.8-2.2-4.3,1.3
c-0.5,4,4.8,13.2,8.8,15.1c0.3,0.2,0.5,0.5,0.8,0.7c0.1,0.9,0.1,1.9,0.2,2.8c-2.5-0.8-5.1-1.2-7.2-3.1c-1.2-1.1-3.2-1.4-3.2,0.9
c0,3,0.2,6.3,3.5,8c5.6,2.4,5.9,2.1,5.8-3.8c0.9,0.2,1.9,0.3,2-1.1c2,3.7,3.6,8.1,9.3,4.9c2.2,1.6,3.5,0.2,5.3-1.2
c1.7-1.4,3.9-4.6,6.6-0.9c-2.9,2.6-4.9,6.3-9.4,7c-2.2,0.3-3,2.6-2.4,4.8c0.6,2,1.9,2.7,3.7,1.3l0,0l0.5,0l0.5,0
c0.2,0.1,0.5,0.2,0.7,0.4c-0.2-0.1-0.5-0.2-0.7-0.4c0-2,0.8-3.5,2.6-4.4c2.4-1.3,4.9-2.4,7.4-3.6l0,0c0,0.2,0,0.3,0,0.5
c-0.1,1,0.2,2.1-0.9,2.6c-6,2.7-6.9,13-16.1,10.8c0.3-4-1.8-5.6-7.6-5.7c-0.7-1.7,1.1-3.5,0-5.3c-4.9,4-4.9,4.8-0.2,8.1
c0.3,1.3,0.6,2.6,0.9,3.8c-0.6,0-1.2-0.1-1.9-0.1c-1.9-1.3-4.1-4.2-6-2.8c-2.4,1.8-2.7,1.5-3.5-0.9c-0.7-2.2-1.7-4-3.8-0.8
c-0.7,1.1-1.4,0-2-0.3c-0.2-0.1-0.5-0.2-0.7-0.3c0.2,0.1,0.5,0.3,0.7,0.4c-0.5,3.4,2,5.8,3,8.7c0,0.4,0,0.8,0,1.2
c-1.1,0.3-2.2,0.7-3.4,0.9c-6.1,1.2-6.1,1.3-3.6,7.4c-0.7,4.6-2.7,4.3-5.4,1.5c-1.3-1.4-2.1-2.9-4.2-0.7c-1.8,1.9-3.7,0.4-4.9-1.3
c-1.7-2.6-3.2-5.3-4.8-8c0.3-0.8,0.5-1.6,0.9-2.3c0.8-1.4-0.8-3.9,1.5-4.2c2.1-0.2,2,2.1,2.5,3.7c0.2,0.8,0.8,1.6,1.8,1.3
c1-0.3,1.1-1.1,0.6-2c-0.4-0.7-0.9-1.5,0-2.2c7.8,3.5,7.8,3.5,12.4,0.5c-1.9-1.5-4.4-3-2.6-5.9c1.3-2.1,1.4-5.9,4.2-5.9
c4.3,0.1,4.7-3,6.1-5.5c1.2-2.2,0-4.1-1.7-5.1c-2.6-1.5-2.4,1.4-3.1,2.5c-1.6,2.3-2.6,5-5.5,0.9c-1.4-2.1-4.2-1.6-6.2-0.1
c-4.4,3.3-4.3,5.1,0.8,11.1c-3.2,0.1-6.2,1.2-6.2-3.8c0-4.3-5.3-7-4.1-11.9c0.3-3.1,0.2-6.4,2.7-8.8c0.4,4.6,3.7,6.4,7.5,7.6
c3.1-6.6,4.8-7.6,9.3-5.1c1.5-2.3,1.4-4.9,1.2-7.5c1.6,0,1.5,2.4,2.9,1.8c1.4-0.6,1.4-2.1,1.1-3.5c-0.4-1.9-0.6-3.9-3.6-3.6
C135.5,101.9,134.8,100.4,135.9,98.1z M144.3,109.1c-2.5,2-3.8,3.8-2.5,6c0.8,1.3,2.8,0.6,3.5-0.2
C147.2,112.6,143.9,111.7,144.3,109.1z M123.6,156.6c1.3-1.7,4.3-1.4,4.7-4c0.1-0.9-0.6-1.2-1.3-0.9
C124.9,152.5,123.2,153.7,123.6,156.6z M160.2,136.3c0-0.1,0.1-0.3,0.1-0.4c0-0.1-0.2-0.1-0.3-0.2c-0.1,0.2-0.1,0.4-0.2,0.6
C160,136.3,160.1,136.3,160.2,136.3z"/>
<path class="st1" d="M217.3,123.2c-0.3,1.9,0.4,3.6-2.5,4.9c-2.7,1.2-2.6,4.8-0.5,7.4c0.9,1.2,2.1,2.1,2.6,3.6c-3.8,2.4-7,1.3-8-2.6c-0.3-1.1-0.6-2.1-0.9-3.2c0.5-2.4,2-5.4-2.9-3.9c-1.3,0.4-1.8-1.1-2.2-2.2c0.3-3.9-2.6-5.9-4.9-8.3c-1.2-1-2.2-2.1-2.2-3.8c0-0.4,0-0.8,0-1.1c0,0,0,0,0,0c7.5,0.4,8.8,1.8,9.2,10.7C208.9,120.3,213,119.7,217.3,123.2z"/>
<path class="st1" d="M166,174.2c2.7-0.7,4-2.4,3.9-5.2c4.5-4.6,8.9-4.7,12.8-0.5c1.2,1.3,1.5,2.5,0.7,4c-1.8,3.4-2.1,7.9-6.6,9.5c-2.8,2.5-5.5,5.1-9.6,2.9C162.6,181.3,162.5,180.1,166,174.2z M167.6,178.9c4.4,2.5,7.4-1.9,11.2-2.1c1.6-0.1,1.7-3.8,1.5-5.4c-0.3-2.1-2.2-0.2-3.5-0.1C172,171.9,170.8,176.5,167.6,178.9z"/>
<path class="st2" d="M191.1,140.6c-1.9,2.4-3.2,5.5-5.5,6.7c-4,2-7.6,4.6-11.6,6.4c-1.3,0.6-2.8,1.5-4.1,0.1c-1.1-1.2-0.9-2.8-0.7-4.2c0.3-1.5,1.2-2.2,2.8-2c0.6,0.1,1.8-0.1,1.8-0.1c0.3-6.2,7.4-4.8,9.8-8.7c0.7-1.2,2.6-3.1,4.6-1.9C189.4,137.5,190,139.1,191.1,140.6z"/>
<path class="st2" d="M200.1,163c-0.2,7.9-0.2,7.9-6.1,7.9C195.5,167.9,195.3,163.5,200.1,163z"/>
<path class="st2" d="M198.1,118.9c2.2,2.4,5.2,4.4,4.9,8.3c-2.4-1.8-3.7,1.5-6.4,1.3C198.7,125.4,197.3,122,198.1,118.9z"/>
<path class="st1" d="M165,206c0.3-2.7,1.7-4.5,4.4-5.1c0.9-0.2,2-0.8,2.5,0.4c0.5,1-0.2,2-1.1,2.4C169,204.6,167,205.3,165,206L165,206z"/>
<path class="st1" d="M192.8,151.2c0.1,3.9-0.2,6.1-3.3,6.5c-1,0.2-2.2-0.2-2.2-1.4C187.3,153,190.8,153.9,192.8,151.2z"/>
<path class="st1" d="M167.9,166.9c-2.5-3.3-0.7-5.3,2.1-6.9C171.7,163,170,165,167.9,166.9z"/>
<path class="st2" d="M181.1,126.9c0.3,0,0.6,0,0.9,0c0.9,2.1-0.2,2.8-2,3c0,0,0,0,0,0C180.4,129,180.7,128,181.1,126.9z"/>
<path class="st1" d="M165,206c-0.3,0.8-0.8,1.4-1.7,1.4c-0.1,0-0.3-0.4-0.4-0.6C163.6,206.5,164.3,206.2,165,206C165,206,165,206,165,206z"/>
<path class="st2" d="M166.6,148.4c-0.2,0.2-0.3,0.5-0.6,0.6c-0.3,0.1-0.8,0.2-0.9,0.1c-0.5-0.6,0.1-0.8,0.5-0.9C165.9,148.1,166.2,148.3,166.6,148.4z"/>
<path class="st1" d="M158.2,152.8c0.6,0.3,1.3,0.4,1.2,1.3c0,0.1-0.2,0.3-0.3,0.3c-0.9,0.1-1-0.6-1.3-1.2C157.9,153,158.1,152.9,158.2,152.8z"/>
<path class="st2" d="M182.5,188c0.1-0.2,0.1-0.4,0.2-0.5c0.1,0,0.3,0.1,0.4,0.1C182.9,187.8,182.7,187.9,182.5,188z"/>
<path class="st2" d="M196,114c0,0.4,0,0.8,0,1.1c-0.2-0.3-0.5-0.5-0.7-0.8C195.5,114.2,195.7,114.1,196,114z"/>
<path class="st2" d="M193.9,171c-0.3,0.3-0.6,0.7-0.9,1C193.3,171.7,193.6,171.3,193.9,171z"/>
<path class="st3" d="M173.1,29.7c0.8,0.7,1.5,1.5,2.3,2.2c-2,2.2-3.8,4.4-5.9,6.4c-1,1-2.7,1-3.5-0.2c-1-1.5,0.6-1.9,1.6-2.2C170.8,35,169.3,30,173.1,29.7z"/>
<path class="st3" d="M177.2,39.3c-0.1,0-0.3,0-0.4,0c0.1-0.2,0.1-0.4,0.2-0.6c0.1,0.1,0.3,0.1,0.3,0.2C177.4,39,177.3,39.2,177.2,39.3z"/>
<path class="st3" d="M168.8,40.6c-0.1,0.1-0.2,0.1-0.4,0.2c0-0.2-0.1-0.4-0.1-0.5c0.1,0,0.3,0,0.4,0C168.8,40.3,168.8,40.5,168.8,40.6z"/>
<path class="st1" d="M45.1,42.9c0.3-1.9,2.1-1.1,3.2-1.7c0.3,2.1,1,4.2,0.8,6.2c-0.3,2.2-1.4,4.3-2.2,6.5c-4.8-1.3,0-4-0.9-5.8C45.7,46.4,45.4,44.6,45.1,42.9z"/>
<path class="st3" d="M45.1,42.9c0.3,1.7,0.6,3.5,0.9,5.2c-1.6,0.1-3.1-0.4-4.6-1.1c-1-0.5-1.4-1.2-1-2.3c0.5-1.6,1.5-1.2,2.6-0.9C43.7,43.5,44.4,43.2,45.1,42.9z"/>
<path class="st4" d="M46.9,35.9c-0.2,1.9-2.2,2.5-2.9,4c-4.1-2.7,1.2-4.4,0.6-6.7c0.1,0.3,0.3,0.6,0.4,0.9C45.6,34.7,46.2,35.3,46.9,35.9z"/>
<path class="st0" d="M45,34.1c-0.1-0.3-0.3-0.6-0.4-0.9c1.1-2.4,3.3-2.2,5.4-2.2c0,0,0,0.1,0,0.1C49.2,33.5,46.9,33.4,45,34.1z"/>
<path class="st0" d="M34.9,65.9c0.3-0.3,0.5-0.5,0.8-0.8c0.1,0.3,0.2,0.5,0.4,0.8L36,66.1l-0.5,0c0,0-0.5,0-0.5,0S34.9,65.9,34.9,65.9z"/>
<polygon class="st0" points="36.1,66 36.2,66.2 36,66."/>
<path class="st3" d="M56.9,26.8c-0.6-0.4-1.3-0.8-1.9-1.2c-0.5-3.5,1.7-5.2,4.6-6.2c2.5-0.9,2.9,0.4,2.3,2.5C60.3,23.5,58.6,25.2,56.9,26.8z"/>
<path class="st4" d="M56.9,26.8c1.7-1.6,3.3-3.3,5-4.9c5.2,0.9,0.7,3.7,0.9,5.5c0.1,1-1.8,2.2-2.8,3.3C58.9,29.4,57.9,28.1,56.9,26.8z"/>
<path class="st3" d="M61.1,30.9c-0.1,0.4-0.3,0.9-0.4,1.3c-0.1-0.4-0.3-0.8-0.4-1.3C60.6,30.9,60.9,30.9,61.1,30.9z"/>
<path class="st4" d="M207.2,108.9c0.9-0.3,1.9-0.6,2.8-0.9c0.2,2.9,3.1,4.9,2.8,8c-2.1,0.3-4.6,1.8-6.3-0.1c-1.5-1.7-2.2-4.1-0.2-6.2c0.2-0.1,0.4-0.3,0.5-0.5C207,109.1,207.1,109,207.2,108.9z"/>
<path class="st3" d="M218.8,116c-0.1-3-1.2-6.2,1.2-8.9C219.1,110,221.5,113.3,218.8,116z"/>
<path class="st1" d="M206.8,109.2c-0.1,0.2-0.3,0.4-0.5,0.5C206.5,109.5,206.6,109.3,206.8,109.2z"/>
<path class="st3" d="M209.8,72.4c0.1,0.5,0.3,1.1,0.4,1.6c-0.2,0.4-0.4,0.9-0.6,1.3C208.6,74.3,209.3,73.3,209.8,72.4z"/>
<path class="st3" d="M206,90c-0.3,1.1-0.9,1.8-2,2C204.1,90.8,204.9,90.3,206,90z"/>
<path class="st3" d="M195.2,55.8c0.5,0.2,1.2,0.3,1.1,1.1c0,0.1-0.2,0.3-0.3,0.3c-0.9,0.2-0.9-0.6-1-1.1C194.9,56.1,195.2,55.8,195.2,55.8z"/>
<path class="st4" d="M135.9,98.1c-1.1,2.3-0.4,3.8,2.1,3.6c3-0.3,3.2,1.7,3.6,3.6c0.3,1.4,0.3,2.9-1.1,3.5c-1.4,0.6-1.3-1.8-2.9-1.8c0.2,2.6,0.3,5.2-1.2,7.5c-4.5-2.5-6.2-1.5-9.3,5.1c-3.8-1.2-7.1-2.9-7.5-7.6c2.9,0,4.8-1.1,5.1-4.2c0.3-3.3-0.4-5.3-4.4-4.1c-1.6,0.5-3.6,2.1-5.1,0.3c-1.3-1.6,1.2-2.4,1.7-3.7c0.2-0.6,0.3-1.6,0-1.8c-4.4-2.8-3.9-7.6-4.2-11.7c-0.5-6.5-5.9-5.4-9.2-5.8c-3.4-0.5-6.9-2.6-10.9-0.6c-2.3,1.1-3.5-2.2-3.8-4.6c0.8-0.9,1.7-1.8,3-2c1.6-0.2,3.7-0.2,4-1.9c0.2-1.3-1.7-0.8-2.7-1.1c-0.1-0.3-0.2-0.6-0.2-0.9c0-2.3-1.8-3.5-3-5c0-1.3,0.1-2.6,0.1-3.9c2-1.2,3.7-2.6,6.4-2c3.4,0.7,2.3-3.1,3.9-4.5c1.2-1-0.4-4.7,3.7-3.5c0.8,0.2,1-2.6,2.8-2.9c0.1,1.6,0.8,2.8,1.6,4.1c1.9,3.2,1.9,5.9-2.3,7.4c-1.5,0.5-4,1.9-2.4,3.2c1.5,1.2,2.6,5.2,6,2.9c1.1-0.7,1.6-2.1,3.7-1.6c2.4,0.6,4,0.7,2.3,3.5c-0.5,0.8-1.6,2.3-0.8,2.5c5.5,1.5,2.6,3.9,1.4,6.9c-1.3,3.6,1.9,7.2,5.9,7.8c5.2,0.8,6.4,6,7.5,9.3C131.2,98.3,133.3,97.9,135.9,98.1z"/>
<path class="st4" d="M117,120.9c-1.2,4.9,4.1,7.6,4.1,11.9c0.1,5,3,3.9,6.2,3.8c-5.1-6-5.2-7.9-0.8-11.1c2-1.4,4.7-1.9,6.2,0.1c2.9,4.2,3.9,1.5,5.5-0.9c0.8-1.1,0.6-4,3.1-2.5c1.8,1,2.9,2.9,1.7,5.1c-1.3,2.5-1.8,5.5-6.1,5.5c-2.8,0-2.9,3.8-4.2,5.9c-1.7,2.9,0.8,4.4,2.6,5.9c-4.6,3-4.6,3-12.4-0.5c-0.9,0.7-0.4,1.5,0,2.2c0.4,0.9,0.4,1.7-0.6,2c-1,0.3-1.6-0.5-1.8-1.3c-0.5-1.5-0.4-3.9-2.5-3.7c-2.2,0.3-0.7,2.8-1.5,4.2c-0.4,0.7-0.6,1.5-0.9,2.3c-0.6-0.2-1.3-0.3-1.9-0.5c-0.3,0-0.6-0.1-0.9-0.1c-1.6-0.1-3.6,0.2-3.9-2c-0.3-2.6,1.1-4.7,3-6.3c1.1-0.9,2.6-1.3,4-1.9c1.1-2.1,2-4.5-0.3-6c-1.4-0.9-3.1,0.2-3.6,2.1c-3.5-1.5-0.4-3.6-0.2-6.1c-3.6,0.6-5.6,3.9-8.9,4c-0.1-2.3,4-5.7-1.6-6.7c-1.2-0.2-3.1,0.4-3.5-1.2c-0.5-2,1.9-1.8,2.9-2.7c1.6-1.6,1.8-5.3,1.3-5.1c-4.3,2.3-5.2-3.2-8.2-3.2c0.4-2.9-2.8-7.9,4.1-6.8c0.4,0.1,1.2-1.1,1.6-1.7c0.4-0.7,1.2-2,1.6-1.5c2.8,3.6,8-1,10.5,3.2c0.4,0.7,1.1,1.2,2.1,0.8c1.4-0.6,3.1-1.6,3.7,0.6c0.6,2.1-1.2,3.2-2.8,4.2c-1,0.6-2.2,0.7-3.4,0.5c-3.9-0.7-4.7,1.7-4.3,4.8c0.4,2.6,0.7,4.9-2.8,6.1c2.4,1.2,4.3,0.8,6.1,0.8c1.6,0,3.2,0.4,2.9-2.5C112.9,119.8,115.7,121.5,117,120.9z"/>
<path class="st4" d="M73.9,54c0.9-1.2,0.9-3.3,2.5-3.5c7.4-1.1,2.2-3-0.7-5.3c3.9,0.3,6.2-0.6,6.5-3.9c3.7-2.7,3.8,2.1,5.8,2.9c-1.4,1.4-2.6,3-1.7,5c0.1,0.3,1.7-0.1,2.7-0.2c0,1.5,0.3,3.2-1.4,3.9c-3.4,1.4-5.4,3.8-6.8,7.2c-1.2,2.9-4.3,1.6-6.6,1.9C74,59.7,74.4,57.7,77,57c0,0,0,0,0,0C76,56,74.9,55,73.9,54z"/>
<path class="st3" d="M85,84c2.7-0.4,4.6-0.9,5.6,3.1c0.9,3.7,3.7,7.1,7,9.6c0.6,0.5,2,0.6,1.5,1.5c-1.6,3.1-4.3,5.3-7.5,6.6c-2.5,1-4.3-0.4-5.5-2.8c-0.6-1.3-1-2.3-0.1-3.7c2.8-4.5,3.2-8.9-1.1-12.9C84.7,85.2,84.9,84.5,85,84L85,84z"/>
<path class="st2" d="M94,114c3,0,3.9,5.4,8.2,3.2c0.5-0.3,0.3,3.5-1.3,5.1c-1,0.9-3.4,0.6-2.9,2.7c0.4,1.5,2.2,1,3.5,1.2c5.6,1,1.5,4.4,1.6,6.7c-3.6-0.7-7.7-0.7-8-5.9C94.4,122.7,93.3,118.4,94,114L94,114z"/>
<path class="st0" d="M139,140c0.6,0.4,1.3,1.5,2,0.3c2.1-3.2,3-1.4,3.8,0.8c0.8,2.4,1.1,2.7,3.5,0.9c1.8-1.4,4.1,1.4,6,2.8c-2.8,0.1-4.8,0.9-3.9,4.3c-2.8,1.5-5.5-0.1-8.2-0.3C141,145.9,138.5,143.5,139,140L139,140z"/>
<path class="st2" d="M61.7,108.1c0.8,0,1.8,0.3,2.4-0.1c3.9-2.7,6.2-2.2,8.1,2.2c0.3,0.8,0.5,1.7,1,2.3c2.1,2.7,0.4,3.6-1.8,3.1c-3.1-0.6-5.9,0.2-8.9,0.5C63.5,113.3,61.9,110.7,61.7,108.1z"/>
<path class="st0" d="M134.1,180c-2.1-0.5-7.4,1.1-2.3-3.8c0.8-0.8,0.8-3-0.2-2.7c-3.7,0.9-2.1-3-3.8-3.6c0.3-0.8,0.6-1.5,1-2.3c1.6,1,3.4,1.4,5.3,1.2c2.2-0.2,4.1,0.1,4,3C137,174.7,136.4,177.7,134.1,180z"/>
<path class="st3" d="M66.1,94.3c-1.8-1.1-1.3-2.8-1.2-4.4c1.3-2.5,2.5-4.8,5.9-2.1c0.9,0.7,2.7,0.1,4.2,0.2c-0.1,0.6-0.2,1.3-0.2,1.9c-0.5,0.1-1.4,0.2-1.4,0.2C73.8,96.6,69.4,94.6,66.1,94.3z"/>
<path class="st4" d="M94,114c-0.8,4.4,0.4,8.7,1.1,13c-3-1.5-7.6-9.6-7.2-12.5c0.2-1.1,0.9-1.3,1.8-1.2C91.1,113.4,92.6,113.7,94,114z"/>
<path class="st3" d="M128.7,167.5c-0.3,0.8-0.6,1.5-1,2.3c-6.5,0-9-1.8-9.6-6.8c2.1,0.2,3.6,2.9,6.5,1.1C126.5,163.1,127.5,166.1,128.7,167.5z"/>
<path class="st2" d="M138,171.8c0.1-2.9-1.8-3.2-4-3c2.2-3.7,6-3.6,10.9,0.3c1.3,1.6,0.4,3.3,0,5C142.4,174,141.1,170.1,138,171.8z"/>
<path class="st4" d="M135.1,158.2c-2.5-6-2.4-6.1,3.6-7.4c1.1-0.2,2.2-0.6,3.4-0.9c0.9,1.2,2.6,2,2.5,4.5C139.7,151.7,137.8,155.9,135.1,158.2z"/>
<path class="st3" d="M61.7,108.1c0.2,2.7,1.8,5.2,0.8,8c-1.7,0.5-1.2,4.3-4.2,3c0.3-3.8-1.4-8.2,2.9-11C61.3,108.1,61.5,108.1,61.7,108.1z"/>
<path class="st4" d="M80.6,71.8c-3.3,1.2-6.5,1.3-9.3-1.4c0,0,0.4,0,0.4,0c1.2,0.4,1.9-0.2,2.3-1.2c3.2-0.3,3.7-3.9,6.5-5.4C81.2,66.7,80.8,69.3,80.6,71.8z"/>
<path class="st3" d="M67.9,65.2c1.1,0,2.2,0,3.3-0.1c0.5,1.3,1.8,2.2,1.7,3.8c-0.4,0.5-0.8,1-1.2,1.5c0,0-0.4,0-0.4,0c-1.1,0.4-2.2,0.7-3.3,1.1c-1-0.3-2-0.7-3-1C65.9,68.7,66.9,67,67.9,65.2z"/>
<path class="st2" d="M88.9,49c-0.9,0.1-2.5,0.5-2.7,0.2c-0.9-2.1,0.3-3.6,1.7-5c1-0.7,2-1.4,3-2.1l0,0C94.1,45.5,91.7,47.3,88.9,49z"/>
<path class="st4" d="M53,125c-7.4,1.1-7.4,1.1-8-5l0,0c1.9-0.7,3.4,0.5,5,1C50.2,122.9,52.8,123.1,53,125z"/>
<path class="st3" d="M91.9,73.9c-1.3,0.3-2.2,1.1-3,2c-1.5-1-4.1-1.1-3.7-3.6c0.4-2.8,3-1.1,4.4-1.8c1-0.5,2.2-0.3,3.4-0.5c0.1,0.3,0.2,0.6,0.2,0.9C92.8,71.9,92.3,72.9,91.9,73.9z"/>
<path class="st3" d="M150.2,149.1c-0.9-3.4,1.2-4.2,3.9-4.3c0.6,0,1.2,0.1,1.9,0.1c0.4,0.8,0.8,1.6,1.3,2.4c0,0.2,0,0.4,0,0.5C155.6,151.5,152.7,149.1,150.2,149.1z"/>
<path class="st3" d="M109.6,155c-0.8,2.2-2.9,2.3-4.8,2.6c-1.2,0.2-2.6-0.6-2.2-1.9c0.8-2.3,3.3-2.4,5.3-2.9C109.1,152.7,109.4,153.9,109.6,155z"/>
<path class="st0" d="M144.9,174.1c0.4-1.7,1.3-3.3,0-5c0.7,0,1.4-0.1,2.1-0.1c1.5,0.3,3.1,0.7,2.7,2.7c-0.6,2.4-1.9,4.2-4.7,4.3C145,175.4,144.9,174.7,144.9,174.1z"/>
<path class="st2" d="M112.1,135c0.6-1.9,2.3-3,3.6-2.1c2.3,1.5,1.4,3.9,0.3,6C114,138.4,113.5,136.2,112.1,135z"/>
<path class="st4" d="M155.1,141c-4.7-3.3-4.7-4.1,0.2-8.1c1.1,1.8-0.7,3.5,0,5.3C155.2,139.1,155.1,140.1,155.1,141z"/>
<path class="st2" d="M74.7,90c0.1-0.6,0.2-1.3,0.2-1.9c0.2,0,0.3,0,0.5,0c2.4-0.2,3.6,1.1,4.4,3.1c0.3,0.7-0.1,1.3-0.9,1.5C76.8,93,75.6,91.6,74.7,90z"/>
<path class="st3" d="M106.3,94.4c-0.1,1.1-0.8,1.4-1.7,1.3c-1.5-0.1-2.4-1-2.2-2.6c0.1-0.9,0.4-2.3,1.6-2.1C105.6,91.4,105.6,93.3,106.3,94.4z"/>
<path class="st4" d="M156.8,165.7c0.1,0.3,0.2,0.6,0.3,0.9c0.6,1.4,2.3,3,0.5,4.3c-2.2,1.6-2.8-1.1-4-2.1C154.2,167.2,155.1,166.1,156.8,165.7z"/>
<path class="st3" d="M97.5,148.7c-1.1-1.2-2.3-2.3-1.4-3.8c0.1-0.2,1.6-0.1,2.2,0.4C100.6,146.9,97.8,147.4,97.5,148.7z"/>
<path class="st3" d="M90.1,61.1c0,1.3-0.1,2.6-0.1,3.9c-1-0.2-2.5,0-2.5-1.5C87.6,62,88.6,61.2,90.1,61.1z"/>
<path class="st2" d="M91,42c0.2-0.4,0.5-0.7,0.7-1.1c0.2,0.2,0.3,0.3,0.5,0.5C91.8,41.5,91.4,41.8,91,42C91,42,91,42,91,42z"/>
<path class="st2" d="M71.7,70.4c0.4-0.5,0.8-1,1.2-1.5c0.4,0.1,0.7,0.2,1.1,0.3C73.6,70.3,72.8,70.8,71.7,70.4z"/>
<path class="st4" d="M157.3,147.8c0-0.2,0-0.4,0-0.5C157.5,147.4,157.5,147.6,157.3,147.8z"/>
<path class="st2" d="M113,149.1c0.3,0,0.6,0.1,0.9,0.1C113.6,149.2,113.3,149.1,113,149.1z"/>
<polygon class="st3" points="85,84 84.8,83.8 85,84"/>
<path class="st4" d="M144.9,174.1c0,0.6,0.1,1.3,0.1,1.9c-2.5,4.3,0.7,7.1,2.8,10.3c-1.5,0.9-2.8-0.4-4.2-0.4c-1.7,0-3.9-2.1-4.4,1.7c-0.1,0.5-3.1,1.4-4.3,0.9c-1.3-0.5-0.8-2.3,0.2-3.4c2.1-2.2-0.4-3.5-1-5.1c2.2-2.3,2.8-5.4,3.8-8.3C141.1,170.1,142.4,174,144.9,174.1z"/>
<path class="st4" d="M166,174.2c-3.5,5.9-3.4,7.1,1.1,10.7c-3.3,2.7-6.9-2.2-10.3,1.2c0-2.5,0-4.3,0-6.1c0.5-1.8,2.7-2.9,2.1-5.1C161.1,172.8,163.6,174.1,166,174.2z"/>
<path class="st0" d="M158.9,174.9c0.5,2.2-1.7,3.3-2.1,5.1c-2.5,0.1-4.5-0.8-3.9-3.5C153.7,172.6,157,175.9,158.9,174.9z"/>
<path class="st4" d="M142,190.1c1,0.1,2.2,0,2.3,1.3c0.1,1.3-1,1.5-2,1.5c-1,0-2.2-0.1-2.3-1.3C139.8,190.1,141,190.2,142,190.1z"/><path class="st0" d="M38.7,95.9c0.1-0.3,0.1-0.5,0.1-0.8c1.8-2-1.1-6.3,3.3-7.1c0.1,1.7,0.1,3.3,2.2,3.9c2.1,0.6,3.4,1.6,2.3,4.3c-0.6,1.5,0.5,3.6-2.1,4.2c-2.4,0.6-3.1-1.2-4.2-2.6C39.7,97.1,39.2,96.5,38.7,95.9z"/><path class="st1" d="M39.9,109.1c-0.3,0-0.5-0.1-0.8-0.1c0.6-4.6,5.9-7.2,9.7-4.7c-2.3,1.6-3.3,3.9-3.6,6.6C43.6,109.4,41.9,108.7,39.9,109.1z"/><path class="st4" d="M45.1,110.9c0.4-2.7,1.4-5,3.6-6.6c0.3,2.5,2.7,5.3-1.2,7.3C46.4,112.1,45.8,111.6,45.1,110.9z"/><path class="st4" d="M45,120c-0.4-0.2-0.8-0.5-1.2-0.7c0.2-0.2,0.3-0.3,0.5-0.5C44.5,119.2,44.8,119.6,45,120C45,120,45,120,45,120z"/><path class="st1" d="M87.7,140.6c-0.1,0.2-0.3,0.5-0.4,0.7c-0.1-0.2-0.3-0.4-0.4-0.6c0-0.1,0.1-0.4,0.2-0.4C87.3,140.4,87.5,140.5,87.7,140.6z"/>
<path class="st0" d="M65,70.5c1,0.3,2,0.7,3,1c-0.4,2.1-0.5,4.4-2.8,5.5C65.9,74.8,65.2,72.7,65,70.5z"/>
<path class="st0" d="M60,68.1c-1.7-0.4-2.8-1.5-3.2-3.2c0.8-1.6,2.1-3.2,3.8-2C63,64.5,60.3,66.3,60,68.1z"/>
<path class="st0" d="M116,185c0.3,0,0.7,0,1,0C116.7,185,116.3,185,116,185z"/>
<path class="st3" d="M149.4,101.1c-0.1-2.7-1.7-4.4-3.5-6.1c-0.2-1.6-0.2-3.7-2.6-3.4c-3.7,0.5-4.7-2.7-4.7-4.5c0-4.1-2.2-5.3-5.4-6c0.6-0.7,1.2-1.4,1.8-2.1c5.4,2.5,10.7,5,16.9,4.1c0,3.1,1.7,5.2,4.3,6.6c1,0.5,2.4,0.5,2.7,1.9c0.4,1.8,0.4,4.1,3.2,2.6c2-1.1,3.4-2.8,1.4-5.2c3-0.1,3.4,1.2,3,4.1c-0.3,2.3-4.6,8.4,3.8,5.6c3.1-1,7.5,6.5,6.5,9.8c-1.7,5.1-5,8.3-10.4,8.4c-3.8,0.1-4.5,2-4.1,5.1c-2.9-0.3-3.1-6.4-7.6-3.6c-0.3-0.2-0.5-0.5-0.8-0.7C154.4,111.6,147.9,107.4,149.4,101.1z M162.3,102.7c0.4-0.5,0.9-0.9,0.8-1.1c-0.1-0.4-0.6-0.8-0.9-0.9c-0.2,0-0.9,0.5-0.8,0.8C161.4,101.9,161.9,102.2,162.3,102.7z"/>
<path class="st2" d="M163.4,89.1c2,2.4,0.6,4.1-1.4,5.2c-2.8,1.5-2.8-0.8-3.2-2.6c-0.3-1.4-1.7-1.4-2.7-1.9c-2.6-1.4-4.3-3.5-4.3-6.6c0.3-2.7,0.6-5.4,0.8-7.6c6.1,2,7.8,7,8.5,12.6C161.9,88.5,162.6,88.8,163.4,89.1L163.4,89.1z"/>
<path class="st4" d="M181.1,126.9c-0.4,1-0.7,2-1.1,3.1c-2.5,1.2-4.9,2.4-7.4,3.6c-1.8,0.9-2.6,2.4-2.6,4.4l0,0l-0.5,0c0,0-0.5,0-0.5,0s-0.2-0.2-0.2-0.2l0.2,0.2c-1.9,1.3-3.2,0.7-3.7-1.3c-0.6-2.2,0.1-4.4,2.4-4.8c4.6-0.7,6.5-4.4,9.4-7C178.6,125.1,180.4,125,181.1,126.9z"/>
<path class="st0" d="M154.7,118.3c4.4-2.8,4.6,3.3,7.6,3.6c2.9,0.6,4,2.2,2.9,5.1c-5.6,3.2-7.3-1.2-9.3-4.9c-0.3-0.3-0.7-0.6-1-1C154.8,120.2,154.7,119.2,154.7,118.3z"/>
<path class="st3" d="M146,71.9c0.3,0.1,0.6,0.2,1,0.2c0.4,1.4,3.5,1.9,1.6,4.1c-0.8,0.9-2,2.2-3.3,1C143.1,75.2,144.4,73.5,146,71.9z"/>
<path class="st3" d="M174.3,78.9c-1.5-0.2-2-1-2-2c0-1.4,0.8-2.2,2.1-2.2c1.6,0,1.6,1.4,1.6,2.5C175.9,78.4,175,78.7,174.3,78.9z"/>
<path class="st3" d="M185,69c-0.3,0.6-0.5,1.3-0.9,1.7c-0.8,0.7-1.4,2.1-2.8,1.3c-0.4-0.2-0.7-0.8-0.7-1.2c0-1.6,1.4-1.6,2.5-1.7C183.7,69.1,184.4,69.1,185,69C185,69,185,69,185,69z"/>
<path class="st2" d="M183.1,102c0.3,0,0.5,0,0.8,0c-0.2,0.2-0.4,0.5-0.6,0.7C183.3,102.5,183.2,102.2,183.1,102z"/>
<path class="st3" d="M163.3,89.1c-0.7-0.3-1.5-0.6-2.2-0.9C161.9,88.5,162.6,88.8,163.3,89.1z"/>
<path class="st3" d="M183,76C183,76,183,76,183,76C183,76,183,76,183,76z"/>
<path class="st4" d="M113.7,52.6c2.3-0.9,0.9-6.1,4.8-4.3c2,0.9,3.8,3.6,2.6,5.3C118.7,56.9,116.5,51.6,113.7,52.6z"/>
<path class="st3" d="M116.5,60.1c0,0.9,0.5,2.2-1.1,2.1c-1.7-0.2-2.6-1.2-2.5-3c0.1-1.3,0.8-2.2,2.2-2.1C117.1,57.3,116.6,58.8,116.5,60.1z"/>
<path class="st3" d="M130.1,78.5c0.4,0.5,0.8,0.9,1.2,1.4c-0.5,0.5-1,1.7-1.9,0.7C128.7,79.9,129.6,79.1,130.1,78.5z"/><path class="st3" d="M63.2,47.4c-0.5,0.3-1.4,1-2.4,1.6c-2,1.4-4.1,2.6-4.3,5.6c-0.1,1.6-1.7,2.7-3.4,1.8c-1.7-0.9-0.8-2.4,0-3.4c1.8-2.1,3.7-3.9,3.7-7.2c0-1.7,2.1-1.9,3.7-1.3C61.5,45,63,44.9,63.2,47.4z"/><path class="st2" d="M45,34.1c1.9-0.7,4.3-0.6,5-3.1c1.4,0.8,2.9,1.5,4.2,2.5c1.6,1.3,2.1,3,0.6,4.7c-1.8,2-2.9,0.7-3.7-1c-1-2-2.7-1.5-4.3-1.4C46.2,35.3,45.6,34.7,45,34.1z"/><path class="st3" d="M74,39.9c0.3,0,0.6,0.1,1,0.1c-0.3,0.3-0.5,0.6-0.8,0.9C74.1,40.6,74,40.2,74,39.9z"/><path class="st1" d="M134.1,65.2c-1.9-0.8-2.5-2.5-1.4-4c1.1-1.6,1.9-0.2,2.3,0.9c0,1,0.1,1.9,0.1,2.9C134.8,65,134.5,65.1,134.1,65.2z"/><path class="st3" d="M135.2,65c0-1-0.1-1.9-0.1-2.9c1,0.3,2,0.6,2.9,0.9l0-0.1c0.5,2.3-0.3,3.2-2.6,2.4C135.3,65.4,135.2,65,135.2,65z"/><path class="st3" d="M138,63c0.3-1.1,0.6-2.2,0.9-3.2c0.4,0.1,0.7,0.1,1.1,0.2C140.4,61.7,1408,63.4,138,63C138,63,138,63,138,63z"/><path class="st2" d="M135.2,65c0,0,0.2,0.4,0.2,0.4c-0.4,0.3-0.8,0.7-1.2,1c0-0.4,0-0.8,-1.2C134.5,65.1,134.8,65,135.2,65z"/><path class="st1" d="M140,60c-0.4-0.1-0.7-0.1-1.1-0.2C139.4,59.4,139.7,59.5,140,60z"/><path class="st3" d="M203.7,97.8c0.2,1.2,0.3,2.9-1,2.9c-1.8,0-0.7-1.7-0.7-2.6C202.6,98,203.2,97.9,203.7,97.8z"/><path class="st4" d="M203.7,97.8c-0.6,0.1-1.1,0.2-1.7,0.2C202.4,96.4,203.1,97.5,203.7,97.8z"/><path class="st3" d="M149.5,24.1c0.1,0.1,0.1,0.2,0.2,0.4c-0.2,0.1-0.3,0.2-0.5,0.3c0-0.1,0-0.3,0-0.4C149.3,24.2,149.4,24.1,149.5,24.1z"/><path class="st1" d="M149.4,101.1c-1.5,6.3,5,10.4,4.6,16.5c-4-1.9-9.4-11.1-8.8-15.1C1456,98.9,148.2,102.3,149.4,101.1z"/><path class="st4" d="M154.9,121.1c0.3,0.3,0.7,0.6,1,1c-0.1,1.4-1.1,1.2-2,1.1c-2.2,0.8-4.6,1.4-5.8,3.8c-3.3-1.7-3.5-5-3.5-8c0-2.3,2-2,3.2-0.9C149.8,119.9,152.4,120.3,154.9,121.1z"/><path class="st1" d="M144.3,109.1c-0.5,2.6,2.9,3.5,1,5.7c-0.7,0.8-2.7,1.6-3.5,0.2C140.5,112.9,141.8,111.1,144.3,109.1z"/><path class="st1" d="M148,127c1.2-2.4,3.5-3,5.8-3.8C154,129.1,153.6,129.3,148,127z"/><path class="st1" d="M123.6,156.6c-0.4-3,1.3-4.2,3.4-4.9c0.7-0.2,1.4,0.1,1.3,0.9C127.9,155.3,124.9,155,123.6,156.6z"/><path class="st1" d="M160.2,136.3c-0.1,0-0.2,0-0.4,0c0.1-0.2,0.1-0.4,0.2-0.6c0.1,0.1,0.3,0.1,0.3,0.2C160.4,136,160.3,136.1,160.2,136.3z"/><path class="st0" d="M139,140c-0.2-0.1-0.5-0.3-0.7-0.4C138.5,139.8,138.8,139.9,139,140C139,140,139,140,139,140z"/><path class="st4" d="M170,138c0.2,0.1,0.5,0.2,0.7,0.4C170.5,138.2,170.2,138.1,170,138L170,138z"/><path class="st3" d="M167.6,178.9c3.2-2.4,4.4-7,9.2-7.6c1.3-0.1,3.2-2,3.5,0.1c0.2,1.6,0.1,5.2-1.5,5.4C175,177,172.1,181.4,167.6,178.9z"/><path class="st1" d="M91.9,73.9c0.4-1,0.9-2,1.3-3c1,0.3,3-0.2,2.7,1.1C95.6,73.7,93.5,73.6,91.9,73.9z"/><path class="st0" d="M77,57C77,57,77,57,77,57C77,57,77,57,77,57z"/><path class="st1" d="M162.3,102.7c-0.4-0.5-0.9-0.8-0.9-1.2c0-0.2,0.6-0.8,0.8-0.8c0.4,0.1,0.8,0.5,0.9,0.9C163.2,101.9,162.7,102.2,162.3,102.7z"/><polygon class="st2" points="169,138 168.8,137.8 169,138 "/>
</svg>