<svg version="1.1" id="neptune" xmlns="http://www.w3.org/2000/svg" xmlns:xlink="http://www.w3.org/1999/xlink" x="0px" y="0px"
	 viewBox="-68.1 103.6 191 192.4" style="enable-background:new -68.1 103.6 191 192.4;" xml:space="preserve">
<style type="text/css">
	.st0{fill:#3A499E;}
	.st1{fill:#121227;}
	.st2{fill:#3D4D9F;}
	.st3{fill:#434EA1;}
	.st4{fill:#131837;}
	.st5{fill:#202654;}
	.st6{fill:#323D77;}
	.st7{fill:#272962;}
	.st8{fill:#2A3264;}
	.st9{fill:#151937;}
	.st10{fill:#111328;}
	.st11{fill:#2C3A7B;}
	.st12{fill:#171638;}
	.st13{fill:#191433;}
	.st14{fill:#25294C;}
	.st15{fill:#282660;}
	.st16{fill:#1A1A3D;}
	.st17{fill:#1F2849;}
	.st18{fill:#2C345F;}
	.st19{fill:#1C1B43;}
	.st20{fill:#2E3B78;}
	.st21{fill:#272C4F;}
	.st22{fill:#2C3350;}
	.st23{fill:#485BA8;}
	.st24{fill:#314095;}
	.st25{fill:#4154A4;}
	.st26{fill:#3A4A9F;}
	.st27{fill:#363F95;}
	.st28{fill:#354197;}
	.st29{fill:#2E3D89;}
	.st30{fill:#171A3F;}
	.st31{fill:#1B1C46;}
	.st32{fill:#232556;}
	.st33{fill:#4556A5;}
	.st34{fill:#4156A6;}
	.st35{fill:#1C224B;}
	.st36{fill:#252C60;}
	.st37{fill:#2A3371;}
	.st38{fill:#282C64;}
	.st39{fill:#292962;}
	.st40{fill:#303381;}
	.st41{fill:#4C60AC;}
	.st42{fill:#2C3885;}
	.st43{fill:#313E92;}
	.st44{fill:#313F92;}
	.st45{fill:#2B3984;}
	.st46{fill:#2A3678;}
	.st47{fill:#2C3889;}
	.st48{fill:#2A387E;}
	.st49{fill:#2E3786;}
	.st50{fill:#2E3989;}
	.st51{fill:#1F2351;}
	.st52{fill:#262B60;}
	.st53{fill:#282D66;}
	.st54{fill:#28326D;}
	.st55{fill:#2D3379;}
	.st56{fill:#2A306D;}
	.st57{fill:#5067B0;}
	.st58{fill:#4F67B0;}
	.st59{fill:#7BB2DE;}
	.st60{fill:#6D85C3;}
	.st61{fill:#2C3379;}
	.st62{fill:#2C3478;}
	.st63{fill:#2B357A;}
	.st64{fill:#2E3887;}
	.st65{fill:#2D347D;}
	.st66{fill:#2B3171;}
	.st67{fill:#536DB4;}
	.st68{fill:#5877BA;}
	.st69{fill:#6F8CC7;}
</style>
<g>
	<path class="st0" d="M-7,111.7c2.8-3,7.4-1.1,10.2-3.8c5-1.6,10.2-0.9,15.3-1.6c5.2-0.6,9.9,1.4,14.9,2.3
		c5.8,3.2,12.1,5.3,17.8,8.9c3.1,1.9,4.8,4.2,2,7.7c-1.9,2.4-1,4.3,1.1,6c0.5,0.4,1,0.9,1.6,1.2c11.6,5.6,17.8,16.1,24.3,26.3
		c1.6,2.5,2.3,5.2,2.3,8.1c0,3,0.3,6,1.3,8.8c1.5,4.4,3.2,8.7,2.8,13.5c-0.1,1.3,0.7,2.2,1.5,3c2.5,2.9,2.5,5.7-0.6,8.2
		c-1.8,1.4-2.7,3.3-3.3,5.4c-0.5,1.8-1.3,3.5-2.3,5c-2.7,4.2-5.3,8.2-6.4,13.3c-1.1,5-5.1,8.5-9.8,10.7c-3.8,1.8-7.6,3.5-11.7,4.3
		c-8.9,1.8-16.9,6.1-25.4,8.7c-3,0.9-2.8,2.2-1.2,4.2c2.6,3.3,4.4,7,7,10.3c2.1,2.6,1.5,4.9-0.6,7.1c-2.5,2.6-5.4,4.4-8.9,5.4
		c-11,3-21.7,2.2-32.2-2.3c-2.7-1.1-4.1-3.2-4.8-6c-1.7-5.9-3.9-7.8-10-7.2c-4.2,0.4-7.1-0.6-10-3.9c-4.1-4.7-10-5.6-15.9-6.3
		c-3.6,0.2-5.8-1.7-7.4-4.7c-0.8-1.4-0.9-3.2-2.2-4.4c-0.8-0.9-1.7-1.8-2.2-2.9c-1.2-4.6-2.7-9-4.1-13.5c-3.3-14.4-3.1-29-1.5-43.5
		c0.1-0.5,0.2-1,0.4-1.4c0.3-1.3-0.3-3.1,1.9-3.3c2,1.2,2.4,3.2,2.1,5.2c-1,7.3-0.4,14.6-0.5,21.9c-0.3,2.9,0,5.7,1.1,8.4
		c0.2,0.5,0.3,1,0.4,1.4c0,3.8,1.6,7.1,2.9,10.5c0.5,1.7,1.1,3.4,1.3,5.1c0.9,8.9,8.4,16.8,17,17.4c4.1,0.3,7.2,2.4,10.2,4.8
		c3.3,2.6,7,3.8,10.7,1.8c8.4-4.6,18.1-3.5,26.9-6.4c8.6-2.9,18.1-2.7,26.1-8.1c2.8-1.9,6.5-1.2,9.7-1.9c4.6-1,9-2.3,13.1-4.5
		c4.6-2.3,7.8-5.9,9.1-10.7c1.6-5.9,4.6-10.9,8.6-15.4c0.6-1,0.7-2.1,0.8-3.2c0.2-0.8,0.3-1.8,0.9-2.3c6.9-5.8,2.4-12.5,1-18.6
		c-0.9-4.2-2.5-8.3-2.6-12.6c-0.2-6.6-3-11.9-7.3-16.5c-6.8-7.1-13.5-14.3-22.6-18.6c-0.4-0.2-0.9-0.5-1.3-0.8
		c-6-4.4-6.2-7.6-0.8-12.3c-1.9-3.6-5.9-2.4-8.7-3.9c-9.4-5.8-19.5-5.2-29.8-3.5C1.4,113.3-3,114.5-7,111.7z"/>
	<path class="st1" d="M91.3,125.8c2.6-0.3,4.4,0.8,6.1,2.7c8.6,9.9,15.5,20.5,20.1,33c5,13.6,6,27,5.2,41.4
		c-0.8,14.2-5.1,27.1-10.5,39.6c-5.3,12.2-14.3,22.2-24.2,31.1C77.7,283,65,288.5,52.5,294c-4.9,2.2-10,1.9-15.2,1.9
		c0-2.7,2.2-2.8,4-3.1c1.7-0.3,3.5-0.5,5.1-1.4c0.4-0.2,0.9-0.4,1.4-0.5c8.4-2.7,16.9-5.3,23.4-11.7c0.4-0.3,0.9-0.4,1.4-0.6
		c6.8-2.3,10.9-8.1,15.8-12.6c15.8-14.7,24.6-33.5,28.1-54.4c2.7-16.1,2.9-32.6-2.9-48.2c-1.8-4.8-2.7-10.4-6.8-14.2
		c-4.1-3-6.9-7.1-9-11.6c-1.5-3.1-3.1-6.2-6.7-7.5c-0.5-0.7-0.7-1.4-0.7-2.2C90.3,127,90.6,126.3,91.3,125.8z"/>
	<path class="st2" d="M-62.8,203.8c0.4-8-0.8-16.1,0.7-24.1c0.3-1.3-0.6-2.8-0.9-4.3c-0.1-8.5,4.4-15.3,8.1-22.4
		c4.8-9,11.5-16.6,18.7-23.7c2.1-2.1,4.3-4.5,7.4-5.4c0.6,0.5,0.8,1.2,0.9,1.9c3.7,9.4-3.3,13.5-9,18.2c-3.1,1.4-5.2,4.1-7.3,6.6
		c-6.5,7.9-10.2,16.6-13,26.7c-4.7,17.3,1.2,32.7,4.3,48.8c0.4,2.1,1.7,4,0.5,6.2c-2.8,0.2-2.8,0.2-4.5-4.6c-0.3-1.7-0.7-3.3-1-5
		c-1.3-3.6-2.1-7.3-3-11l0,0C-61.8,209.2-61.5,206.3-62.8,203.8z"/>
	<path class="st3" d="M-28.8,125.8c0-0.6,0-1.3,0-1.9c4.4-4.7,10.5-6.8,15.9-10c1.8-1.1,3.9-1.5,5.9-2.2c6.3,0.4,12.4-0.8,18.6-1.4
		c8.6-0.8,17.5-1.3,24.5,5.5c-0.2,0.2-0.4,0.3-0.6,0.5c-6.7-1-13.5-0.6-20.2-1.6c-5.7-0.9-11.5,0.7-17.2,1.5
		c-8,1.2-15.1,4.6-21.8,8.9C-25.2,125.9-26.8,127.2-28.8,125.8z"/>
	<path class="st4" d="M31.2,295.8c-4.8,0-9.7,0.5-14.4-0.1c-6.5-0.8-12.8-2.5-19.4-2.1c-1,0.1-1.7-0.9-2.2-1.8
		c0.2-0.2,0.4-0.4,0.6-0.6c4-1.5,8.1-0.5,12.1-0.8c0.6,0,1.2,0,1.8,0c10.4,1.2,20.6-1.8,30.9-2.1c2.5-0.1,4.5-2.2,7.1-1.9
		c1.7,0,3.4-0.1,5,0.7c1.6,1.5,0.2,2.3-0.9,3c-1.4,0.9-3.2,0.8-4.6,1.7l0,0C41.9,293.2,36.3,293.4,31.2,295.8z"/>
	<path class="st5" d="M9.2,291.8c-0.3,0-0.7,0-1,0c-1.3-0.9-2.7-1.1-4.2-1c-4.1,0.3-8.1-0.2-12-1.7c-5-0.6-8.9-4.4-13.9-5.3
		c-2.5-1.1-3.4-4.8-6.9-4.2c-1.1-1.2-1.2-2.5-0.4-3.9c4.4-2.5,6.8,0.9,9.6,3.2c5.6,2.1,11.1,4.4,17.1,5.8c8.7,2,17.3,1.8,25.9,1.7
		c1.5,0,3,0.1,4,1.5c0.3,3.2-2.1,2.7-4,2.8C18.7,291.2,13.9,289.9,9.2,291.8z"/>
	<path class="st6" d="M-64.8,178.8c0.5,15.3-1.2,30.7,2.1,45.9c0.8,1.8,1.5,3.6-0.2,5.4c-3.1-3.2-2.1-7.5-3-11.2
		c-3-12-2.6-24.2-0.4-36.4C-66.1,181.1-65.3,180-64.8,178.8z"/>
	<path class="st7" d="M19,107.7c-5.2,0.1-10.5,0.1-15.7,0.2c6.1-3.2,13-2.9,19.6-3.9c5.3-0.8,10.9-0.2,16.3-0.1c1.5,0,3.5-0.6,4,1.8
		c0.6,0.8,0.6,1.6,0,2.4c-3.5,2-7.1,1.1-10.6,0.1C28.1,107.1,23.6,105.7,19,107.7z"/>
	<path class="st8" d="M-44.8,263.9c-3-3.4-6.3-6.7-8.1-11c-0.4-0.5-0.3-0.9,0.1-1.3c5.1,0.3,7,4.2,9.1,8c0.2,1.3,0.1,2.6-0.5,3.8
		C-44.4,263.6-44.6,263.7-44.8,263.9z"/>
	<path class="st9" d="M-21.8,283.9c3.1-0.6,5.7,0.5,8.2,2.1c1.8,1.2,3.6,2.2,5.9,1.9c0.8,1.5,4.4,0.7,3.1,3.9l-0.1,0.1
		C-10.9,290.1-16.6,287.4-21.8,283.9z"/>
	<path class="st10" d="M31.2,295.8c4.6-4.4,10.3-4,16-4c-2.5,3.5-7.5,0.5-10,4C35.2,295.8,33.2,295.8,31.2,295.8z"/>
	<path class="st11" d="M-62.9,230c0.1-1.8,0.1-3.6,0.2-5.3c2.4,4,4,8.3,4,13.1c-0.7,0.6-1.3,0.7-2,0
		C-61.2,235.1-63.1,232.9-62.9,230z"/>
	<path class="st12" d="M91.3,125.8c0,0.7,0,1.4-0.1,2c-6.7-1-8.7-2.8-8.5-7.5c0.2-0.2,0.4-0.4,0.6-0.5
		C86,121.7,89.3,122.9,91.3,125.8z"/>
	<path class="st13" d="M75.4,115.7c3.2,0.1,6.3,0.7,7.9,4l-0.2,0.2c-1.1,0.9-2.3,1.1-3.7,0.9c-1.8-0.4-3.6-0.8-4.7-2.4
		c-0.3-0.7-0.3-1.5,0-2.2C75,116.1,75.2,115.9,75.4,115.7z"/>
	<path class="st14" d="M-34.9,273.9c-2.7-1.2-4.5-3.4-6.1-5.8c0.2-0.2,0.3-0.4,0.5-0.6c4.4-0.4,7.1,1.9,7.9,6.5
		C-33.4,274.5-34.1,274.4-34.9,273.9z"/>
	<path class="st15" d="M53.2,107.8c2.1,0.5,4.9-1.3,6.2,1.8c0.4,0.7,0.5,1.3,0.2,2.1c-0.3,0.4-0.7,0.7-1.2,0.9
		c-2.6,0.6-4.3-0.7-5.6-2.7C52.6,109.1,52.6,108.4,53.2,107.8z"/>
	<path class="st16" d="M67.3,111.7c3.2,0.3,6,1.3,8,4l-0.3,0.2c-4.9,1.9-6.5,1.2-8.2-3.5C67,112.2,67.2,112,67.3,111.7z"/>
	<path class="st17" d="M-34.9,273.9c0.7,0,1.5-0.1,2.2-0.1c2.2-1.1,3.2,0.2,3.9,2.1c0,1.3,0,2.6,0.1,3.8
		C-31.7,278.7-32.9,275.8-34.9,273.9z"/>
	<path class="st18" d="M-60.7,237.7c0.7,0,1.3,0,2,0c1.1,0.3,1.8,1,1.8,2.2c1.2,1.7,1.5,3.4,0,5.1
		C-58.9,242.9-60.3,240.6-60.7,237.7z"/>
	<path class="st15" d="M43.2,107.8c0-0.7,0-1.4,0-2.1c2.7,0.7,6.1-1.4,8.2,2c-1.3,1.7-3.2,1.4-5,1.5C45.2,109.1,44,108.8,43.2,107.8
		z"/>
	<path class="st19" d="M59.4,111.6c0-0.7,0-1.3,0-2c2.6,0.9,6.1-1.5,7.9,2.1l-0.3,0.2C64.4,113.7,61.8,113.9,59.4,111.6z"/>
	<path class="st20" d="M-56.9,244.9c0-1.7,0-3.4,0-5.1c2.7,0.2,1.8,2.4,2.1,3.9c0.7,1.2,1.2,2.5,0.4,3.9c-0.4,0.5-0.9,0.5-1.5,0.3
		C-57,247.2-56.7,246-56.9,244.9z"/>
	<path class="st7" d="M46,107.9c1.8-0.1,3.6-0.1,5.4-0.2c0.6,0,1.2,0.1,1.8,0.1c0,0.7,0,1.3,0,2c-0.5,0.7-1.3,1-2.2,1.2
		C48.8,111,46.4,111.1,46,107.9z"/>
	<path class="st21" d="M-41,268c-1.8-0.9-3.2-2.1-3.8-4.1l0.1-0.4c4.5-0.8,5-0.3,4.1,4.1L-41,268z"/>
	<path class="st22" d="M-55.9,247.9c0.4-0.1,0.8-0.1,1.1-0.2c3.5-0.1,3.3,1.7,2,4c-0.1,0.4-0.1,0.8-0.2,1.2
		C-54.6,251.6-55.5,250-55.9,247.9z"/>
	<path class="st23" d="M77.2,202.8c1,0.7,1,1.4,0,2c-1.2,0.8-2.5,1.1-3.8,0.6c-2.7-2.9-8.2-2.6-8.7-8c-0.1-1.1-1.3-0.8-2.1-0.8
		c-9.3-0.1-18-2.5-26.1-7c-2.9-1.6-6.2-2.3-9.3-3.5c-0.9-0.3-2.1-0.8-1.8-2c0.2-0.8,1.2-1.1,2-1.3c11.2-2.4,22.3-3.4,33.3,1.1
		c2.1,0.9,4.8,2.4,6.6,0.5c2-2,0.5-5-0.7-7c-3.3-5.9-5.2-12.2-7.5-18.5c-1.7-4.6-4.7-7.9-8.9-10.5c-5.5-3.4-11.1-7.1-17.2-9
		c-11.1-3.4-22.6-5.6-34.4-3.6c-15.5,2.6-28.3,10.3-38.9,21.8c-3,3.3-5.3,6.8-6.6,11c-0.1,0.5-0.2,1-0.5,1.4
		c-10.3,20.9-4.1,40.1,6,58.9c0.9,1.7,1.6,3.4,0.3,5.1c-1.6,2.1-3.7,2.7-6.2,1.7c-4.3-8.3-7.4-17-9-26.2c-0.1-0.5,0-1-0.1-1.5
		c-3.9-11.2-1.9-22.2,0.5-33.3c1.9-8.7,5.7-16.2,12.2-22.3c1.5-1.4,2.5-3.1,3.9-4.5c10.5-9.9,22.4-17,37.1-18.8
		c26.2-3.3,49.1,2.9,67.1,23.4c1.9,2.2,3.5,4.6,4.2,7.3c2.6,9.6,6.3,18.9,8.3,28.7c0.4,1.9,0.5,3.9-1.2,5c-5,3.1-2.2,5.5,0.5,8
		C76.6,202,76.9,202.4,77.2,202.8z"/>
	<path class="st24" d="M-47.8,247.8c7.4,0.9,14.5,2.2,19,9.1c1,1.6,2.1,1.5,3.8,1.3c3.5-0.4,7.2-1.2,10.6,1.2
		c2.2,1.5,3.8,2.9,3.7,5.9c-0.1,2.7,1.1,4.9,3.7,5.9c10.4,4.2,21,5.3,31.9,2.2c1-0.3,2-0.5,2.8-1c2.4-1.5,4.9-3,6.6-5.3
		c2.5-3.5-1.9-4.2-2.8-6.4c-1.5-3.6-3.9-6.9-6.7-9.8c-2-2.1-1.5-3.2,1.2-4.1c13-4.3,26.1-8.4,38.9-13.2c5.8-2.2,9.8-6.7,10.3-13.5
		c0.1-2.1,1.2-3.7,2.4-5.3c2.5-3.3,5.1-6.6,5.7-10.9c0.3-1.6,1-3.2,2.7-4c3.7-1.9,3.7-4.3,1.2-7.1c-0.4-0.5-0.4-0.9,0.2-1.2
		c2.1-0.1,3.5,1,4.6,2.7c0.7,1.8,0.7,3.6-0.2,5.4c-0.7,1.2-2.4,1.5-2.8,2.7c-2.8,8.1-9,14.6-11.2,22.8c-1.7,6.1-5.1,10-10.4,12.5
		c-8.1,3.8-16.5,7-24.7,10.5c-3.2,1.3-4.7,3-4,6.3c0.6,2.8,0.8,5.7,2.2,8.2c1.7,3.1,0.7,5.4-1.6,7.5c-3.3,3.1-7.1,5.5-11.6,6.7
		c-3.7,0.9-7.4,2-10.8,3.9c-1.8,0.5-3.7,0.6-5.6,0.5c-6.5,0.8-12.4-1.2-18.1-3.9c-1.1-0.1-2.1-0.3-3.1-0.7c-2.4-1.5-5.3-2-7.8-3.4
		c-1.5-0.8-3.4-1.5-3.7-3.2c-0.8-5.2-4.4-4.9-8.2-4.8c-1.2,0-2.3,0-3.5-0.1c-2.1-0.1-3.9-0.6-4.7-2.8c-0.3-3.1-1.7-4.8-5-5.5
		C-47.7,255.7-49.3,252.3-47.8,247.8z"/>
	<path class="st25" d="M73.2,204.8c1.3,0,2.7,0,4,0c-5.2,5.6-7.4,12.7-10.3,19.5c-1.5,3.5-4.2,5.9-7.7,7.4c-6.9,1.9-13.6,4-20.7,4.9
		c-8.4,1.1-16,5.5-24.3,7.4c-6.4,1.4-12.3,4.7-19.2,4.4c-3.2-0.2-6.6,0.7-9.6,2.2c-3.7,1.8-7.4,1.5-10.9-0.9c-4.3-3-9-4.8-14.4-4.7
		c-3.2,0-6.3-1-7.1-4.9c1.6-2.2,4.2-2.5,6.5-3.4c15.4,2.3,30.3-1.7,45.4-4c3.8-0.6,7.6-1.4,11.4-1.3c10.1,0.3,19.8-2.2,29.6-3.8
		c7.7-1.2,13.1-5.1,16.5-12.2c2.2-4.6,4.2-9.6,10.1-10.8C72.7,204.8,72.9,204.8,73.2,204.8z"/>
	<path class="st26" d="M13.8,272.2c-4.6-0.8-9.2-1.3-13.6-2.3c-2.5-0.6-5.9-2-4.7-5.2c1.2-3.5-1.5-8.8,5.3-10.2
		c5.2-1,8.8-1.9,13.2,2.7c2.8,2.9,8.2,3.8,12.2,6.1c1,0.6,2.9,0.3,2.8,2.2c-0.1,1.7-1.4,2.8-2.7,3.4
		C22.5,270.9,18.3,271.9,13.8,272.2z"/>
	<path class="st3" d="M77.2,202.8c-0.3,0-0.7,0-1,0c-3.7-4.4-3.7-6.1,0.4-9.1c1.1-0.8,1.8-1.6,1.5-2.8c-3.1-10.7-4-22-8.6-32.1
		c-4.3-9.5-13.1-15.3-21.6-21c-4.4-3-9-5.7-14.3-7c-1.8-0.5-3.3-1.5-4.6-2.9c-1.6-1.7-2-3.7-1.3-6c0.9-2.4,2.7-3.2,5.1-3.2
		c1.7,0,3.3,0.4,5.1,0.3c0-1.3-2.3-1.4-1.7-3l0,0c3.3-0.4,6.2,0.4,8.8,2.5c1.9,1.6,2.8,2.7-0.5,3.9c-5,1.8-5,2.4-1.6,6.7
		c2.6,3.3,6.5,4.5,9.8,6.7c9,6,16.3,13.5,22.2,22.5c3,4.6,1.8,10,3.2,15c1.8,6.3,3.2,12.8,4.9,19.2c0.6,2.2,1.4,4-2,4.9
		C78.6,197.8,78.4,200.9,77.2,202.8z"/>
	<path class="st26" d="M-46.8,239.8c1.5,2.7,3.9,4.3,6.9,3.9c6.1-0.6,10.9,2,15.7,5.2c1.7,1.1,3.6,2.6,5.5,1.6
		c8.3-4.4,18-1.7,26.5-5.5c7.2-3.2,14.8-5.4,22.4-7.6c9.5-2.8,19.3-4.1,29-5.6c-5.7,4-12.5,4.9-19.2,6c-1.1,0.2-2.6-0.1-3.4,0.4
		c-10.4,7.4-23.2,7.9-34.9,10.2c-7.9,1.6-15.3,4.4-23.1,6.1c-3.9,0.8-6.2-2.2-8.7-4c-3.2-2.3-6.4-3.4-10.3-4
		c-5.6-0.8-10.4-3.6-12.7-9.6c-1.2-3.1-5-5.1-3.8-9.2c1.8,1.3,1.7,4.1,4,5c3.4,0.5,4.4,3.6,6.3,5.7C-46.3,239-46.4,239.4-46.8,239.8
		z"/>
	<path class="st27" d="M46,107.9c1.2,2,3.2,1.8,5.1,2c2.3,1.8,4.3,4.1,6.8,5.6c3.5,3.6,6.3,7.5,7.1,12.7c0.5,3.4,2.4,6,5,8.3
		c2.3,2.1,4.9,4,6.1,7c0.2,0.7,0.3,1.5,0.2,2.3s-0.4,1.5-0.9,2.1c-2.7,0.6-3.7-1.6-5-3.3c-2.5-3.3-5.4-6.1-8.9-8.4
		c-4.5-2.9-8.6-6.5-6.2-13c0.9-2.3-1.3-3.1-2.7-4.2c-5.6-4.2-12.3-6.2-18.5-9.2c-5.3,0.9-9.9-3.2-15.2-2.1c4-3.7,9-2.3,13-1.2
		c3.8,1.1,7.4,1,11.2,1.3C44.2,107.8,45.1,107.9,46,107.9z"/>
	<path class="st28" d="M34.2,109.8c8.4,1.4,15.2,6.1,22,10.7c0.9,0.6,0.8,1.6,0.7,2.7c-0.9,6.3,0.9,9.6,6.3,12.7
		c3.2,1.8,5.6,4.7,7.8,7.6c1.2,1.6,2.4,3.2,4.2,4.2c5.7,6.4,10.6,13,10.6,22.2c0,3.4,1,6.8,2.4,10.1c1.7,4,2,8-1,11.7
		c0,0.3,0,0.7,0,1c-1.1-0.6-2-1.4-1.9-2.7c1-9-4.9-16.7-4.4-25.8c0.3-5.3-4.9-9.1-7.4-13.7c-4.2-7.7-11-12.9-18.4-17.5
		c-5.9-3.7-5.8-4.1-1.9-9.7c1.5-2.1,0.1-2.7-1.2-3.9c-4.6-4-11-4.6-15.7-8.3C35.5,110.8,34.9,110.3,34.2,109.8z"/>
	<path class="st29" d="M-47.8,247.8c0,5,2,8,7.5,8c4.4,0,3.4,3.4,3.5,6c-3.4,2.1-5.6-0.1-7.9-2.1c-1.9-3.5-4.6-6-7.9-8.1
		c-0.3-1.5,0.5-3.6-2-4c0-1.3,0-2.6,0-3.9C-52.6,245.3-51.5,248.9-47.8,247.8z"/>
	<path class="st26" d="M-60.8,211.8c2.1,3.4,2.7,7.1,3,11C-60,219.5-61.2,215.9-60.8,211.8z"/>
	<path class="st26" d="M-62.8,203.8c2.6,2.2,1.9,5.2,2,8C-62.7,209.5-62.9,206.7-62.8,203.8z"/>
	<path class="st30" d="M53.2,287.8c-1.7,0-3.3,0-5,0c-0.4-2.8,2.1-3,3.7-3.8c3.7-1.8,7.9-2.6,11.2-5.1c6.2-6.4,14.7-10.4,19.4-18.4
		c1.4-2.3,3.5-4.1,5.8-5.4c4.8-2.6,7.5-6.9,9.4-11.8c3.6-9,6.9-18,11-26.8c0.4-0.9,1-1.8,0.9-2.8c-0.7-10.2,3.3-20,2.1-30.2
		c-0.8-6.6-2.5-13-4.5-19.3c-1-3.2-2.4-6.3-0.3-9.5c5.5,1,5.7,6.1,6.9,9.8c5.4,16.2,3.5,32.8,2.3,49.4c-0.2,2.7-1.3,5.1-2.1,7.7
		c-4.7,14.3-10.2,28.2-20.8,39.3c-6.5,6.8-13.2,13.5-21.1,18.9h-0.5h-0.5c-4.3,3-8.5,6.1-13.5,8C56.2,288.4,54.7,289.3,53.2,287.8z"
		/>
	<path class="st10" d="M72.2,279.8c5.4-6,11.6-11,17.3-16.6c7.6-7.5,13.8-16.4,17.6-26.6c2.3-6.2,4.6-12.3,7-18.5
		c0.4-0.9,1-1.9,1-2.8c0.2-16.7,3.3-33.5-1.9-49.9c-1.2-3.9-2.4-8-5.9-10.7c-1.9-2.3-1.9-4.6,0-7c2,0.9,3.1,2.6,3.7,4.5
		c2.7,8.6,6,17.2,7.8,26c1.2,6.1,1,12.6,0.4,18.9c-0.7,7.7-1,15.5-3,23.1c-4.9,18.1-13.5,34-26.9,47.1c-3.4,3.4-7,6.6-10.7,9.6
		C76.6,278.4,74.8,280.2,72.2,279.8z"/>
	<path class="st31" d="M107.2,147.8c0,2.3,0,4.7,0,7c-0.3,7.8,3.6,14.6,5,22c1.4,7.6,1.6,15.1,0,22.6c-0.2,1-0.9,1.9-0.8,2.8
		c1.7,14.3-7,25.5-11,38.1c-2.3,7.3-6,13.6-13.3,17.2c-0.9,0.4-1.7,1.2-2.1,2.1c-4.1,8.6-13.6,12-19,19.4c-0.7,0.9-1.8,0.8-2.8,0.8
		c0.6-5.7,5.2-8.6,9-11.8c2.8-2.3,5.7-4.4,7.6-7.7c2-3.5,5.5-5.7,8.8-7.9c3.8-2.6,5.9-6,7.6-10.1c3.8-9,6.6-18.4,11-27.2
		c2.8-5.6,1.9-12.1,2.4-18.1c0.8-9.4,1-18.9-3.3-27.8c-1.9-6.9-4.6-13.5-7.5-20c-2.7-6-4.4-12.4-8.2-18c0-0.5,0.2-1,0.6-1.4
		c3-0.2,4.7,1.3,6,4C99.8,138.9,102,144.4,107.2,147.8z"/>
	<path class="st32" d="M91.3,129.7c0,0.4-0.1,0.7-0.1,1.1c-0.6,1.9-1.4,3.8,1.6,4.6c1.3,0.3,2.2,1.6,2.5,2.9
		c3,11.7,9.4,22.2,11.5,34.3c1.6,9.2,2.5,18.4,0.9,27.7c-0.6,3.1,0.8,5.9,0.8,8.9c-0.8,2.3,0.6,5.3-1.9,7.1
		c-0.8,0.3-1.7,0.3-2.4-0.1c-0.7-6-2.3-11.8-1.9-18c0.8-10.9,0.3-21.8-3.1-32.4c-1.9-5.8-2.8-11.9-6.2-17.3
		c-1.5-2.4-2.4-4.9-5.2-6.3c-2.4-1.3-4.1-4.2-3.6-6.7c0.8-4.5-1.4-7.2-4.1-9.9c-0.7-0.7-1.2-1.6-1.6-2.5c-0.3-1.1-0.3-2.2,0.6-3.1
		c1.3,0,2.6,0.1,3.9,0.1c-0.3,3.3,1.8,4.9,4.4,5.7c1.6,0.4,2.6,1.2,3.7,2.2C91.2,128.4,91.3,129.1,91.3,129.7z"/>
	<path class="st10" d="M53.2,287.8c5.4,0,9.4-3.2,13.3-6.2c1.6-1.2,2.8-1.9,4.7-1.8c-6.1,7.7-15.1,9.8-24,12
		C48.6,289.5,52.1,290.5,53.2,287.8z"/>
	<path class="st33" d="M36.2,115.8c1.8,0.9,3.7,1.8,5.9,2.9c-2.2,1.7-4.1,2.1-6.6,1.5c-2.6-0.6-5.7-1.6-6.8,2.6
		c-1.1,4.1,2,5.8,4.6,6.4c7.8,2,14.1,6.4,20.4,11c7.1,5.2,13.6,11,17.9,19c1.4,2.5,1.7,5,2,7.5c1,7.9,4.2,15.2,5.8,22.9
		c0.6,2.8,0.9,4.3-2.6,5.5c-4.9,1.7-0.7,5.1-0.6,7.8c-5.8-3-6.4-6.4-1.7-9.7c1.5-1.1,1.8-2.2,1.3-3.8c-1.9-6.5-4.3-12.9-5.7-19.5
		c-5.3-23.4-23.1-33.3-43.7-38.4c-16.8-4.2-34.1-2.2-50,5.7c-5.5,2.7-10.1,7.6-15.2,11.6c-1.8-2.8,1.1-4.1,2-6
		c1.7-1.5,3.9-2.8,5-4.7c1.8-3.1,7.1-5.8,2.3-10.5c-0.2-0.2,0.4-1.2,0.7-1.8c3.9-1,6.9-3.7,10.3-5.7c9.4-5.5,20.2-5.7,30.5-7.3
		c2.9-0.5,5.7,0.4,8.3,1.1C25.6,115.3,31.3,112.6,36.2,115.8z"/>
	<path class="st34" d="M-36.8,142.8c-0.7,2-1.3,4-2,6c-2.4,5.1-7.8,7.7-10.5,12.8c-2.8,5.4-5,10.7-5.5,16.8c-0.1,0.7,0.1,1.4-0.1,2
		c-5.4,12.4-0.5,24.4,1.8,36.3c1.3,6.5,4.2,12.7,6.4,19.1c0.8,1,0.9,2,0,3c-2.6-1.4-4.1-3.9-6-6c-2.4-10.8-4.9-21.6-7.3-32.4
		c-1.2-5.6-1.6-11.3,0.5-16.7c2.3-5.8,1.7-12,3.8-17.9c2.4-6.6,7.3-10.8,10.8-16.3C-43,146.6-40.9,143.3-36.8,142.8z"/>
	<path class="st35" d="M106.2,215.8c1.9-2.1,0.6-4.7,1-7c0.1-11.9,3.3-23.9-0.7-35.8c-0.5-1.4-0.5-3,0.7-4.2
		c5.7,9.7,4.4,20.3,3.4,30.6c-0.3,3.8,0.4,7.7-1,11.4c-3.2,8.5-6.7,16.9-9.6,25.5c-2.9,8.6-8.3,14.7-14.9,21
		c-7.6,7.1-16.3,13.5-22,22.6c-2.8,4-7.9,3.3-11.5,5.6c-1.2,0.7-2.8,0.8-3.5,2.3c-6.4,2.8-13.5,1.5-20.2,3.4
		c-6,1.7-12.5,0.4-18.8,0.6c4-3.6,8.8-1.3,13.2-2c1.8-0.3,4.2,1,4.8-2c0.9-1.1,2.3-1.3,3.6-1.4c13.7,0.9,24.6-5.3,34.3-14
		c8.9-7.9,16.4-17.3,25.8-24.8c3.3-2.6,4.4-7,6-10.8c2.3-5.3,3.6-11,5.8-16.4C103.5,218.6,104.3,216.8,106.2,215.8z"/>
	<path class="st35" d="M-4.7,291.7c0.1-2.2-3.3-1.6-3.1-3.9c4.3,1.4,8.7,2.5,13.4,2.1c1.2-0.1,2.1,0.8,2.7,1.9
		C3.9,291.8-0.4,291.7-4.7,291.7z"/>
	<path class="st36" d="M31.2,287.8c-1.3,0-2.7,0-4,0c-7.4-0.9-14.8,1.5-22.2-0.1c-7.9-1.7-15.9-3.3-23.6-6c-1-0.4-1.7-1-2.1-1.9
		c2.6-2.4,5.8-1.1,8.7-1.5c2.4-0.1,4.7-0.2,6.9,0.8c0.8,0.4,1.3,1.1,1.8,1.8c1.4,2.3,3.8,1.4,5.8,1.5c2.1,0.2,4.2-0.1,6.2,0.7
		c5.6,2.4,11.5,1.8,17,0.7c3.2-0.7,6.4-1.4,9.7-1.5c6,0.6,9.8-4,14.6-6.2c3.1-1.4,5.5-4.2,9.4-3.5c0.4,0.4,0.6,0.9,0.6,1.4
		c-3.7,5.1-9,7.9-14.4,10.7C41,287.2,35.8,286,31.2,287.8z"/>
	<path class="st37" d="M-11.8,279.8c-3,0-6,0-9,0c-2.1-2.5-4.5-4.3-8-4c-1.3-0.6-2.2-2.2-3.9-2.1c-2.5-2.3-3.7-6.2-8-6.1
		c0.4-3.1-1.3-4.2-4.1-4.1c0-1.3,0-2.5,0-3.8c2.9-0.3,4.9,2.8,7.9,2.1c0.4,2.6,2.4,1.8,4,2c3.3,7.3,10.7,8.4,17,11.2
		C-14.2,276.4-11.5,276.8-11.8,279.8z"/>
	<path class="st38" d="M79.2,119.9c0,1,0,2,0,2.9c2.5,4.2,5.9,7.7,5.4,13.4c-0.2,2.2,1.5,5.3,4.4,6.8c1.8,0.9,3.3,2.3,2.5,4.7
		c-2,1.5-3.4,0-4.8-1.1c-3.2-2.7-5.6-6.1-6.6-10.2c-1.1-4.4-3.1-8.3-5.6-12c-1-1.6-2.4-2.6-3.8-3.7c-1.1-0.8-2.7-1.7-1-3.4
		c1.9-0.4,3.7-0.7,5.4,0.6C76.5,118.5,77.8,119.2,79.2,119.9z"/>
	<path class="st39" d="M75.1,117.8c-2,0-3.9,0-5.9,0c-2.5,1.3-4.1-1-6.2-1.4c-1.3-1.5-5-1-3.8-4.6l0.2-0.2c2.6,0.1,5.1,0.2,7.7,0.3
		c1.5,3.7,4.6,4.1,8,4C75.1,116.5,75.1,117.2,75.1,117.8z"/>
	<path class="st40" d="M59.2,111.8c-0.1,2.8,4.1,1.2,4,3.9c1,1.3,3,2.1,1.9,4.3c-4,1.1-5.1-3.2-8-4.2c-3.1-0.8-5.1-2.9-6.1-5.9
		c0.7,0,1.4-0.1,2.1-0.1C55.2,110.4,56.8,112.4,59.2,111.8z"/>
	<path class="st41" d="M-46.8,238.8c0-1,0-2,0-3c1.3-0.4,2.6-0.6,3.8-1.2c1.8-1,2.6-2.4,1.1-4.4c-7.7-10.3-9.2-22.9-12.7-34.7
		c-1.2-4,1.1-8.1,1.7-12.2c2.9-19.1,14-32.6,30.2-41.5c12.8-7,26.8-9.2,41.9-7c11.8,1.7,21.7,6.7,31.6,12.4
		c4.1,2.4,7.5,5.5,9.2,10.1c3.1,8.2,6.5,16.3,9.3,24.5c1.4,4.2-0.3,5.9-4.7,4.9c-4.2-1-8.3-2.3-12.3-3.6c-5.7-1.8-11.1-1.6-16.5-0.1
		c-3.1,0.8-6.2,0.7-9.4,1.2c10.3,2.9,19.1,9.5,29.9,10.8c2.6,0.3,5.1,1.3,7.6-0.3c1.7-1.1,3.7,0.3,3.1,1.6c-2.5,4.5,1.4,4.2,3.4,5.5
		c1.2,0.8,2.8,1.3,2.8,3.2l0,0c-9.6,0.2-15.7,5.1-19.8,13.8c-2.2,4.7-7.6,6.1-12.3,8c-9,3.5-18.4,4-27.9,4.7
		c-15.4,1.1-30.6,3.5-46.1,4.2c-2.8,0.1-5.2,2-8,2.4c-1.8,1.3-3.6,2.4-6,2C-46.8,239.5-46.8,239.1-46.8,238.8z"/>
	<path class="st42" d="M91.2,199.8c0-2,0-4,0-6c-3-3.7-1.9-7.4-0.2-11.1c2.5-0.7,4.7,0.1,5.1,2.5c0.9,6,1.1,12.1,1.4,18.1
		c0,0.6-0.5,1.2-0.9,1.8c-1.4,2.3-3.9,3.8-4.6,6.6c-0.2,0.4-0.5,0.9-0.7,1.3c-3.7,5.1-5.5,11-6.8,16.9c-1,4.5-3.2,8.3-7.1,10.3
		c-4.8,2.4-9.1,5.3-13.4,8.4c-9.4,1.9-12.6,5.5-13.2,16.4c-0.3,5.7-1.7,9.6-7.6,11.2c-2.4,0.7-4.3,2.5-6.1,4.3
		c-1.5,0.8-3.2,0.8-4.8,0.8c-1.1-0.1-2.2-0.3-3.1-0.9c-1.3-1.8-0.3-3.1,1.1-4.2c0.7-0.5,1.4-0.9,2.2-1.2c6.8-3.3,10.6-7.8,9.5-16.3
		c-1-7.6,1.4-9.5,8.5-12.6c6.8-3,13.6-6.2,20.1-10c3.9-2.3,6.5-5.5,7.8-9.9C81,216.5,86.1,208.1,91.2,199.8z"/>
	<path class="st43" d="M91.2,199.8c0.1,4.4-3.4,7.3-4.9,11.1c-2.2,5.6-5.8,10.7-7,16.8c-1.4,6.8-7.2,9.7-12.9,12.1
		c-6.4,2.6-12,7-18.9,8.7c-2.3,0.5-3.7,3.3-4.2,5.8c-0.2,0.8-0.3,1.7-0.1,2.5c2.2,10.1-2.4,16.2-11.4,19.8c-1.5,0.6-2.6,1.5-2.7,3.2
		c-4,2.5-8,2.5-12,0c2.2-3,5.8-3,8.9-3.9c3.2-0.9,6.4-1.9,9-4c3.4-2.7,7.9-4.8,3.6-10.5c-1.3-1.7-1.1-4.4-1.5-6.7
		c-1-5.2,0.2-6.9,5.5-7.9c0.8-0.2,1.8-0.1,2.4-0.5c6-4.5,13.4-5.8,19.9-8.9c5.8-2.8,9.9-6.4,11.7-13.5c2-8.1,8.7-14.4,11-22.7
		C88.2,199.7,89.9,199.8,91.2,199.8z"/>
	<path class="st44" d="M91.2,182.8c0.2,3.7-1.1,7.3,0,11c-1.7,0.1-2.6-1.4-4-2c1.1-5.1,1-10.1-1.7-14.8c-0.6-1.1-0.7-2.6-0.6-3.9
		c0.8-10-5.8-17.1-9.7-25.3c0-0.7,0-1.3,0-2c2.4-0.6,3.3,1.2,4.1,2.7c1.5,2.5,3.3,4.9,4.8,7.5c2.9,5.5,4.9,11.1,4.5,17.4
		c-0.2,2.8,1.5,4.9,3,7.2C91.9,181.4,91.8,182.1,91.2,182.8z"/>
	<path class="st45" d="M-15.8,275.8c-5.1,0.1-9-3.3-13.5-4.9c-2.2-0.8-4.1-3.8-3.5-7c2,0,4,0,6-0.1c3.5-0.2,6.4-0.4,6.3,4.8
		c0,3.8,4.7,3.4,7.2,5c1.1,0.7,2.9,0.6,3.6,2.2C-11.8,277.7-13.8,276.8-15.8,275.8z"/>
	<path class="st46" d="M17.2,279.8c4,0,8,0,12,0c1,0,2,0.1,3.1,0.1c-0.6,4.3-4.9,4.2-7.3,4.5c-5.5,0.7-11.2,1.4-16.8-0.5
		c-3.1,0-6.2,0-9.2-0.1c-1.5,0-3.4,0.4-3.7-2c1.8-1.5,3.8-1.3,6-1.2c3.3,0.2,6.8,1,10-0.7C13.3,279.8,15.2,279.8,17.2,279.8z"/>
	<path class="st47" d="M11.3,279.9c-0.4,2.3-2.2,1.9-3.8,1.9c-4.1,0-8.1,0-12.2-0.1c0-0.6-0.1-1.2-0.1-1.8c-0.8-1.3-3.5-1.7-1.9-4.1
		C-1,278.3,4.7,280.9,11.3,279.9z"/>
	<path class="st48" d="M-6.8,275.8c-0.1,1.7,2.2,2.3,1.9,4.1c-2.3,0-4.6-0.1-6.9-0.1c-1.3-1.3-2.7-2.7-4-4c2,0,4,0,6,0
		C-8.8,275.8-7.8,275.8-6.8,275.8z"/>
	<path class="st23" d="M-40.8,237.8c6.1-6.2,14.2-3.9,21.4-4.8c17-2.2,34.2-3.2,51.2-5.3c5.5-0.7,10.9-2.7,15.8-5.6
		c2.5-1.5,4.7-3.3,5.8-6c3.6-9,9.6-13.6,19.7-11.2c-4,2.3-7.2,5.1-8.9,9.6c-3.7,10.3-11.8,13.7-22,15.6c-11.9,2.3-24.1,1.8-35.8,4.1
		c-9.4,1.8-19,2-28.2,4.5C-28.1,240.3-34.5,238.7-40.8,237.8z"/>
	<path class="st49" d="M57.2,115.8c3.4-0.1,4.9,3.6,8,4c2.4-1.3,2.8,0.8,3.5,2.2c2.7,5.6,4.7,11.5,7.9,16.9c2.2,3.7,6.3,6,7.4,10.5
		c0.1,0.8,0.1,1.5-0.3,2.2c-0.3,0.4-0.7,0.7-1.2,0.8c-3.5-1.9-4.3-6.1-7.3-8.5c-2.1-2.3-4-5-6.5-6.7c-2.7-1.9-4.3-4.3-4.6-7.3
		C63.6,124.2,60.1,120.2,57.2,115.8z"/>
	<path class="st50" d="M75.2,143.8c3.4,1.7,4.8,5.2,7,8c1.4,0.8,2.2,1.8,1.5,3.5c-0.2,0.2-0.3,0.3-0.5,0.5c-3.8-2.4-3.9-7.8-8-10
		C75.2,145.1,75.2,144.5,75.2,143.8z"/>
	<path class="st51" d="M107.2,168.8c0.1,1.5-0.2,3.1,0.3,4.4c4.5,11.6,0.9,23.2,0.3,34.9c0,0.3-0.4,0.5-0.6,0.7
		c-2.2-5.9,0-11.8,0.1-17.7c0.2-14.9-3.9-28.8-9.6-42.3c-1-2.5-1.9-4.9-2.5-7.5c-0.5-2.2,0.3-6.5-4.8-4.1c-1.7,0.8-2.2-1.6-1.9-3.1
		c0.2-1.6,1.5-2.5,2.8-3.3c7.2,9,9.3,20.3,13.9,30.4C106.2,163.6,107.7,166,107.2,168.8z"/>
	<path class="st52" d="M91.2,147.8c-0.2-4.2-5.6-4.2-6.4-8.3c-0.4-2.1-1.9-4.2-1.5-6.5c0.8-4.3-4.4-6.2-4-10.2
		c3.1,3.5,8.4,5.8,6.2,12.2c-0.6,1.9,1,5.1,2.6,5.6c5.4,1.8,6.4,6.8,8,10.7c3.4,8.4,6.9,16.9,7.2,26.1c0.3,8.2,1.5,16.4,0.3,24.8
		c-0.6,4.2,2.7,8.8,0.7,13.5c-4,5.7-4.9,12.6-7.5,18.8c-0.6,1.5-0.8,3.3-2,4.5c-5.9,6.2-10.6,13.6-18,18.4c-3.6,2.3-6.3,5-8.6,8.7
		c-2,3.3-3.9,7.6-8.9,7.6c0-0.3,0-0.7,0-1c-0.8-0.8-0.9-1.7-0.6-2.7c2.9-2.6,4.7-5.8,5.4-9.7c1.3-4.4,5.2-6.5,8.6-8.6
		c6.2-3.6,10.2-9.4,15.6-13.8c1.9-1.5,1.6-3.9,1.5-6c0-2.2-0.1-4.4,0.9-6.4c7.9-11.8,11.3-24.9,8.8-38.8c-1.1-5.8-1.5-11.4-1.7-17.2
		c0.1-7-3-12.7-7.1-17.9C90,150.2,90.2,149,91.2,147.8z"/>
	<path class="st51" d="M59.2,273.8c2-1.2,3.9-2.6,5.1-4.6c3.9-6.2,9.2-10.8,15-15.4c10.6-8.5,18.1-19.6,20.9-33.3c0.4-2,0.5-5,4-4.7
		c0.7,0,1.3,0,2,0c-3.3,6.2-4.8,13.1-7.3,19.5c-2.4,6.1-4.9,11.8-10.6,16.3c-7.4,5.8-13.8,12.9-20.2,19.9c-7.4,8.1-17,12.4-27,15.9
		c-3,1-6.6,0.3-9.9,0.3c0.9-1.8,2.4-2.1,4.2-2c5.8,0.4,10.6-2.1,15.2-5.2C53.6,278.5,56.3,276.1,59.2,273.8z"/>
	<path class="st53" d="M59.2,269.8c0,1,0,2,0,3c-6.1,2.4-11.3,6.3-16.9,9.4c-1.9,1.1-3.8,1.8-6.1,1.6c-0.1-2.7,2.5-3.2,3.9-4.7
		c3.1-3,7.1-4.3,10.9-6.1c2.9-1.4,4.6-3.5,5.3-6.7c1-5,3.9-8.6,7.8-12.2c7.7-7.1,18.1-11,24.1-20.1c0.6-0.9,1.7-1.6,3.1-1
		c0.5,3.5-1.5,5.3-3.8,7.8c-5.9,6.6-13.1,11.3-20,16.6c-1.2,0.9-2.2,2-2.2,3.7C63.2,263.8,62.4,267.6,59.2,269.8z"/>
	<path class="st54" d="M40.2,279.8c-0.7,1.9-2.8,2.5-4,4c-7.7-0.4-15,3.4-22.8,2c-1.9-0.3-4.1,0.2-5.2-2c7.1-0.7,14.5,1.5,21.4-2
		c1.1-0.5,2.1-0.9,2.6-2c1.7,0,3.3-0.1,5-0.1C38.2,279,39.2,278.9,40.2,279.8z"/>
	<path class="st55" d="M83.2,149.8c-1.9-3-5.1-5.3-6.4-8.1c-2-4.2-5.9-7.4-6.6-12.3c-0.5-3.7-2.2-7-5-9.6c-0.6-1.4-2.2-2.3-2-4
		c2.5-0.7,3.9,1.5,6,2c1.2,2.8,6.1,1.9,6,6c1.6,5.9,3,11.9,6.8,16.9c3.1,4.1,5.6,8.6,9.6,12c0.8,1.2,0.9,2.4,0.6,3.7
		c-0.1,0.5-0.4,1-0.7,1.4c-2.4,1.3-3.8-0.3-4.9-2C85.4,153.9,84.4,151.8,83.2,149.8z"/>
	<path class="st56" d="M91.2,152.8c-1.5-0.2-3-0.7-3.9-2c-3-4.4-5.9-8.8-8.7-13.3c-2.7-4.2-4.1-8.7-3.4-13.7c3.3,3.2,4.8,7.3,6,11.5
		c1.5,5.5,4.3,10.2,10,12.5c0,1.3,0,2.6,0,4c0.2,0.2,0.3,0.5,0.2,0.7C91.4,152.7,91.3,152.8,91.2,152.8z"/>
	<path class="st57" d="M52.2,179.8c-4,0-8,0-12,0c-2.4-1.2-4.8-0.3-7.1,0.1c-2,0.3-4.1,1-5.8,0c-3.4-1.9-5.5-0.7-7.4,2.1
		c-1.5,1-2.8,2-0.8,3.7c1.5,1.3,2.7,2.9,4.4,4c0.3,0,0.5,0,0.8,0c-0.2,5.1-3.9,2.8-6.4,3.1c-2.6-0.9-5.3-1.5-7.9-2.4
		c-1.9-1.1-3.4-2.6-5.1-4c-3.5-2.9-3.1-5.6,1.2-7.4c6.8-2.9,13.7-5.8,21.4-3.1c1.7,0.6,3.3,0.3,4.9-0.2c2.1-0.4,4.2-0.3,6.3-0.3
		c2.9,0,6.7,1.7,8.1-1.6c1.4-3.1-2.4-4.6-4.4-6.5c-4.1-3.9-7.6-7.9-6.1-14.3c0.8-3.2-2.1-4.2-4.5-5c-6.9-2.3-13.9-1.7-20.7-0.3
		c-8,1.6-16,2.9-23.8,5.5c-2.1,0.7-3.9,1.8-5.5,3.2c-6.5,6-11.9,13-17.4,19.9c-1.9,2.4-2.7,4.9-1.5,7.9c0.4,1.1,0.7,2.3,0.4,3.4
		c-1.7,7,1.8,12.2,5.9,17.2c1.3,1.6,2.7,3,4.7,3.5c3.6,1,6.4,2.6,7.1,6.7c0.3,1.8,2,2.1,3.5,2.1c9.2,0.4,18.3-0.7,27.2-2.9
		c3-0.8,4.7-3.1,6.9-5.2c5.2-5.1,10.2-11.3,18.9-10c1.9,0.3,3.9,0.4,5.9-1.3c-2.8-1.3-5.3,0.5-7.7-0.3c-1.6-0.4-3-1.3-4.6-1.6
		c-3.5-0.7-5.1-2.7-3.9-6.3c1.9-0.1,3.7,0.1,5.2,1.2c3.9,2.6,8.2,3.3,12.7,2.9c2,1.8,5.5,2.7,4.6,6.2c-0.8,3.4-3.8,4.8-6.8,5.8
		c-1.7,0.6-3.5,0.8-5.1,1.8c-3.2,1.7-2.2,5.8-4.5,8.1c-2.7,2.7-6.8,3.4-9.5,6.4c-0.3,0.4-0.9,0.4-1.4,0.4
		c-12.9,0.3-25.6,2.6-38.5,2.7c-3.2,0-6.3,0.3-9.5-0.2c-3.6-0.6-7-2.1-8.2-5.7c-2.1-6.5-6.3-11.7-9.4-17.6
		c-5.4-10.3-5-19.7,2.6-28.7c2.6-3.1,4.9-6.4,6-10.3c2.6-8.7,9.5-13,17.2-15.2c11.5-3.2,23.2-6.1,35.4-5c7,0.6,13.9,1.5,20.4,4.1
		c3.7,1.5,6.6,3.8,8,7.7c2.2,6.3,5.6,12,9.3,17.6C58.7,176.2,57.5,178.5,52.2,179.8z"/>
	<path class="st58" d="M52.2,179.8c4.8-2.2,4.6-5.3,1.5-8.9c-4.1-4.9-6.6-10.7-8.7-16.6c-1.6-4.7-5.2-7-9.4-8.1
		c-14.1-3.7-28.3-3.8-42.3,0.2c-5.8,1.6-12,1.5-17.3,5.4c-3.9,2.8-7.4,5.4-8.7,10.3c-1,3.7-2.7,7.3-5.3,10.1
		c-13,13.6-6.7,25,0.8,36.6c1.5,2.4,3.3,4.5,3.8,7.4c0.9,5,4.4,7.3,9.2,7.4c4.1,0.1,8.2,0.5,12.4-0.6c5-1.3,10.1,1.1,15.2-0.1
		c4.3-1,8.9-0.8,13-2.7c0.4-0.2,1.1-0.5,1.4-0.3c6.8,3.2,10-4,15.3-5.1c2.5-2.1,1.6-5.9,4-8c1.3-1.5,3-1.7,4.8-2.1
		c7.2-1.4,8.1-4.7,3.2-10.9c3.6,0.6,6.1,3.3,9.2,4.8c1.7,0.9,1.7,2.8,0.4,3.8c-5.8,4.3-10.1,10.2-15.6,14.8c-6,5-12.9,7.4-21.4,7
		c-7.2-0.3-14.7,1.5-22.2,2c-8.3,0.5-16.5,2-24.8,1.5c-6-0.3-9.1-4-10.9-10.1c-1.4-4.9-4-9.4-6.5-13.9c-4.1-7.2-4.5-14.5-1.6-22
		c2.4-6.3,5.5-12.4,8.5-18.4c4.4-8.7,12.5-14.8,21.8-17.8c9.8-3.2,19.8-7.2,30.4-5.6c12.7,1.9,25.8,3,36.3,12c2.5,2.1,4,4.3,4.5,7.8
		c0.6,4.8,4,8.7,5.8,13.1c1.1,2.5,3.5,5,0.6,7.7C57.2,183,54.7,180.8,52.2,179.8z"/>
	<path class="st59" d="M17.2,191.6c2.4-0.4,5.5,1.7,7.1-1.8c1,0,2,0,3-0.1c0,5.5,5.5,4.6,8.2,7c-1.2,3-3.8,2.2-6.1,2.1
		c-3.4-0.8-6.7-1.8-10.2-1.7c-1.2,0-2.3-0.1-3.4-0.7c-1.6-0.8-2.9-2.1-2.6-3.8C13.7,190.3,15.7,191.5,17.2,191.6z"/>
	<path class="st57" d="M19.2,181.9c1.3-3.6,3.4-5.3,7.2-3c2.2,1.3,4.4,0.7,6.7,0.2c2.3-0.5,4.9-1.1,7.1,0.7
		c-5.1-0.1-10,1.9-15.3,0.3c-2.6-0.7-3.7,2.1-3.8,4.7C19.1,184.8,18.2,184,19.2,181.9z"/>
	<path class="st60" d="M19.2,181.9c0,1.4,0.7,2.4,2,3c0.8,1.6,1.6,3.3,2.3,4.9c-3,0-4.7-2.4-6.4-4C15.2,183.9,15.8,181.8,19.2,181.9
		z"/>
	<path class="st61" d="M40.2,279.8c-1,0-2,0-3-0.1c0.6-4.2,4.6-4.8,7.4-5.7c4.1-1.2,4.5-3.5,4.7-6.9c0.3-5.9,0.8-11.7,5.4-16.5
		c2.9-3,6.1-2.9,9.5-2.9c0.7-0.5,1.4-0.6,2.1-0.1c0.5,2.7-1.4,4.1-3.1,5.2c-5.5,3.4-7.3,8.9-8.5,14.6c-0.6,2.6-1.5,4.7-3.5,6.4
		C47.6,275.8,43.9,277.8,40.2,279.8z"/>
	<path class="st62" d="M91.2,182.8c0-0.7,0-1.3,0-2c-1.1-1.5-1.5-3.3-1.5-5.1c0.4-3.2-0.7-6.6,1.1-9.7c2-1.4,3.4-0.2,4.6,1.2
		c1,1.1,1.7,2.6,1.8,4c0.6,10.6,4.7,21,2.9,31.7c-0.9,5.5-3,10.7-9,13c-1.2-1.4-0.8-2.8,0.1-4.1l0,0c1.2-2.1,2.6-4,4-6
		c2.6-5.6-1.3-11.3,0-16.9C96,185.6,94.5,183.6,91.2,182.8z"/>
	<path class="st63" d="M91.2,211.8c0,1.3,0,2.7,0,4c1.6,1.6,1.4,3.5,0.9,5.5c-2.5,4.1-4.2,8.6-5.9,13c-1.4,3.5-3.6,6.2-7.1,7.8
		c-2.9,1.3-5.5,3-8,4.9c-1.5,1.1-2.9,2.3-4.8,0.7c-0.7,0-1.3,0-2,0c2.4-3.8,6.3-5.8,10.3-7.5c5.2-2.4,7.7-6.1,9-11.9
		C84.8,222.6,85.8,216,91.2,211.8z"/>
	<path class="st63" d="M95.2,205.8c-0.4,2.6-1.6,4.7-4,6C91,208.8,93,207.2,95.2,205.8z"/>
	<path class="st50" d="M91.2,175.8c0,1.7,0,3.3,0,5c-2.7-0.4-3.6-3-3.6-4.7c0.1-7.2-2-13.7-4.4-20.3l0,0c6,2,5.7,7.6,6.9,12.3
		C90.8,170.6,89.6,173.4,91.2,175.8z"/>
	<path class="st64" d="M91.2,175.8c-2.5-1.2-1.8-3.5-2-5.6c-0.4-5.4-2-10.4-6-14.4c0.1-1.5-0.3-2.8-1-4c0.3,0,0.7,0,1,0
		c1.2-0.5,2.1,0.3,2.4,1.2c1.2,3.9,4.3,6.5,6.3,9.9c0.3,1.1,0.1,2-0.6,2.9C91.2,169.1,91.2,172.5,91.2,175.8z"/>
	<path class="st65" d="M91.2,162.8c-3.4-1.6-4.1-5.2-5.8-8c-0.6-1.1-0.9-2.4-2.2-3c0-0.7,0-1.3,0-2c1.9,1.1,3.4,2.5,4.1,4.7
		c0.6,1.9,1.8,3.1,3.9,3.3C92.7,159.5,92.7,161.2,91.2,162.8z"/>
	<path class="st66" d="M66.2,247.8c4.6,0,6.5-4.9,10.5-6.1c4.7-1.3,7-4.7,8.8-9.1c1.5-3.7,2-8.2,5.7-10.9c1.3,1.3,1,2.7,0,4
		c0,2.3,0,4.6,0,7c-4,4.1-8.1,8.2-12.1,12.3c-0.7,0.7-1.3,2-2.1,2c-7.2,0.3-9.5,7.6-15,10.3c-3.7,1.9-4,6.2-4.5,9.3
		c-0.7,4.3-2.8,5.9-6.3,7.1c2.5-3.6,2.5-8.1,3.5-12.1C56.6,255,63,252.9,66.2,247.8z"/>
	<path class="st56" d="M91.2,225.8c0-1.3,0-2.7,0-4c0-2,0-4,0-6c9.1-9.2,10-19.9,6.3-31.7c-1-3.1-1.3-6.4-1.4-9.7
		c-0.1-3.5-0.2-7.5-4.9-8.6c0-1,0-2-0.1-3c0-1.7,0-3.3,0-5c0-0.3,0-0.7,0.1-1c2.2-1.2,2.9,0.6,3.7,2c1.8,3.2,3,6.6,4.2,10
		c-0.8,11.6,3.6,22.9,1.9,34.5C100,211.7,96.9,219.4,91.2,225.8z"/>
	<path class="st38" d="M99.2,168.8c-2.9-2-2.7-5.7-4.6-8.3c-1-1.4-1.1-3.5-3.4-3.7c0-1.3,0-2.6,0-4c0-0.3,0-0.7,0-1
		c1.5,0.1,2.9,0.8,3.2,2C95.9,158.9,99.7,163.2,99.2,168.8z"/>
	<path class="st36" d="M59.2,269.8c1.5-3.3,3.4-6.4,6-9C64,264.3,64.1,268.7,59.2,269.8z"/>
	<path class="st67" d="M29.1,197.9c2.1-0.4,4.5,0.7,6.3-1.1c2.5-0.3,4.9-0.7,7.4-0.9c1.4-0.1,2.7,0.3,3.1,1.9c0.4,2-1.3,2-2.5,2.4
		c-2.4,1-4.9,0.8-7.4,0.4c-1.4-0.3-2.7-0.6-3.8,0.2c-4.7,3.4-10.8,5-13.3,11.1c-1.4,3.5-5.5,3.9-8.5,4.5c-9.1,1.9-18.3,3-27.6,2.5
		c-2.1-0.1-3.9-0.7-3.4-3.2c0.7-3.7-1.7-4.6-4.4-5.4c-8-2.5-14.2-12.5-13-20.6c0.2-1.6,0.6-3.8-0.2-4.9c-2.7-3.6-0.8-6.2,1.3-8.9
		c3.8-4.8,7.9-9.3,11.6-14.2c6.8-9.1,16.7-11.4,27.1-13.3c9-1.7,17.9-4.1,27.2-2.5c2.8,0.5,5.6,1.2,7.7,3.1c0.9,0.8,2.4,1.7,1.6,3.3
		c-3.6,7,1.4,10.9,5.7,14.7c2.7,2.4,6.6,4.5,4.5,8.2c-1.8,3.2-6.1,2.3-9.5,1.6c-2.1-1-4.8,0-6.5-2c-1.2-2.4-3.3-3.6-5.8-4.4
		c-11.2-3.8-22.6-5.1-34.3-2.1c-4.6,1.2-8.9,2.7-12.9,5.1c-2.5,1.4-3.3,3.6-1.7,5.8c2.4,3.4,4.2,7.2,6.2,10.7
		c3.1,5.4,7.9,7.4,13.9,6.3C8.6,194.4,18.8,197.1,29.1,197.9z"/>
	<path class="st68" d="M29.1,197.9c-7-0.3-13.9,0.2-20.9-0.9c-4.3-0.6-8.9,0.6-13.3,0.8c-5.6,0.2-11.8-3.7-13.4-8.9
		c-0.9-3-2.3-5.3-4.3-7.6c-3.4-4-2.5-6.8,2-9.4c9.7-5.6,20.5-7.2,31.2-6.6c6.8,0.3,13.9,2.4,20.4,5.3c2.2,1,2.4,2.4,2.4,4.3
		c-0.7,1-1.8,1.1-2.9,1.1c-8.4-1.1-16.8-1.1-25.2,0.8c-0.3,0.1-0.7,0.1-1,0.3c-2.8,1.3-6.8,1.9-6.6,5.7c0.2,3.6,3.9,4.1,6.8,4.6
		c2.2,0.4,4,1.5,5.8,2.7c2.5-0.1,4.9,0.4,7,1.8c-1.1,0.3-2.4-0.3-3.6,1C17.5,198.3,24.6,194.4,29.1,197.9z"/>
	<path class="st67" d="M10.2,189.8c-3.2-0.7-6.4-1.3-9.7-2c-3-0.6-4.3-3-5.2-5.4c-0.9-2.5,1.6-3.2,3.1-4.4c3.2-2.7,7.2-3.4,11.1-3.7
		c6.8-0.5,13.8-1.4,20.6,0.5c-0.1,1.5,2.8-0.2,2,2c-3.1,2.8-6.5,0.3-9.4-0.2c-3.9-0.7-7.2,0-10.3,1.8c-2.8,1.7-7.7,0.7-8.6,4.1
		c-1,3.5,4.5,3.7,5.8,6.6C9.9,189.2,10.1,189.5,10.2,189.8z"/>
	<path class="st69" d="M32.2,176.7c-1-1.4-2.8-0.6-4.1-1.2c0.4-1,1.3-0.6,2-0.8c1,0,2.1,0,3.1-0.1c1.9,0.8,4.1,0.7,5.8,2.1
		C36.8,176.8,34.5,176.8,32.2,176.7z"/>
	<path class="st57" d="M37.2,206.8c-1,2.8-0.5,6.4-4,8C34.6,212.2,33.2,208.1,37.2,206.8z"/>
</g>
</svg>
