<svg version="1.1" id="titan" xmlns="http://www.w3.org/2000/svg" x="0px" y="0px"
	 viewBox="0 0 221.1 221.3" style="enable-background:new 0 0 221.1 221.3;" xml:space="preserve">
<style type="text/css">
	.st0{fill:#292412;}
	.st1{fill:#386151;}
	.st2{fill:#1E331E;}
	.st3{fill:#1E2D18;}
	.st4{fill:#2A533E;}
	.st5{fill:#8DAD8C;}
	.st6{fill:#47675D;}
	.st7{fill:#396250;}
	.st8{fill:#1F3922;}
	.st9{fill:#21452C;}
	.st10{fill:#467560;}
	.st11{fill:#4B8169;}
	.st12{fill:#549374;}
	.st13{fill:#72997D;}
	.st14{fill:#7FA584;}
	.st15{fill:#6AA083;}
	.st16{fill:#213A22;}
	.st17{fill:#59805A;}
	.st18{fill:#2F4735;}
	.st19{fill:#1D3C2A;}
	.st20{fill:#2F5145;}
	.st21{fill:#7D8D79;}
	.st22{fill:#3C6F5F;}
	.st23{fill:#6F8B7E;}
	.st24{fill:#5F786C;}
	.st25{fill:#6F9078;}
	.st26{fill:#6B8773;}
	.st27{fill:#90A88F;}
	.st28{fill:#406A5C;}
	.st29{fill:#375856;}
	.st30{fill:#497863;}
	.st31{fill:#355453;}
	.st32{fill:#2D4846;}
	.st33{fill:#2D453A;}
	.st34{fill:#96A68A;}
	.st35{fill:#9FAE92;}
	.st36{fill:#939E8D;}
	.st37{fill:#B0B999;}
	.st38{fill:#79A07B;}
	.st39{fill:#405D57;}
	.st40{fill:#4E7267;}
	.st41{fill:#60806F;}
	.st42{fill:#6C8D78;}
	.st43{fill:#839A82;}
	.st44{fill:#3C503F;}
	.st45{fill:#586151;}
	.st46{fill:#85947E;}
	.st47{fill:#909C86;}
	.st48{fill:#758274;}
	.st49{fill:#588A71;}
	.st50{fill:#506A63;}
	.st51{fill:#547B70;}
	.st52{fill:#253E49;}
	.st53{fill:#637467;}
	.st54{fill:#517B66;}
	.st55{fill:#43605F;}
	.st56{fill:#516A59;}
	.st57{fill:#314443;}
	.st58{fill:#707064;}
	.st59{fill:#2F494B;}
	.st60{fill:#608671;}
	.st61{fill:#496E63;}
	.st62{fill:#537266;}
	.st63{fill:#47625E;}
	.st64{fill:#4C7163;}
	.st65{fill:#455A4F;}
	.st66{fill:#B6B491;}
	.st67{fill:#8C9980;}
	.st68{fill:#9F9F84;}
	.st69{fill:#B5B296;}
	.st70{fill:#CEC29C;}
	.st71{fill:#5F7065;}
	.st72{fill:#72957C;}
	.st73{fill:#778A77;}
	.st74{fill:#4A5C4B;}
	.st75{fill:#395348;}
	.st76{fill:#91A487;}
	.st77{fill:#8AA587;}
	.st78{fill:#B5BF97;}
	.st79{fill:#2C4A53;}
	.st80{fill:#507167;}
	.st81{fill:#446D60;}
	.st82{fill:#567E76;}
	.st83{fill:#446E62;}
	.st84{fill:#55827A;}
	.st85{fill:#5B807E;}
	.st86{fill:#426066;}
	.st87{fill:#698C81;}
	.st88{fill:#507569;}
	.st89{fill:#6F947F;}
	.st90{fill:#58695A;}
	.st91{fill:#738B87;}
	.st92{fill:#596855;}
	.st93{fill:#5A7260;}
	.st94{fill:#3F5048;}
	.st95{fill:#344A45;}
	.st96{fill:#5B7E6D;}
	.st97{fill:#2C4551;}
	.st98{fill:#3E5558;}
	.st99{fill:#4F6460;}
	.st100{fill:#536768;}
	.st101{fill:#3C6157;}
	.st102{fill:#52645B;}
	.st103{fill:#5C7164;}
	.st104{fill:#495D56;}
	.st105{fill:#36525A;}
	.st106{fill:#638874;}
	.st107{fill:#C9CB9C;}
	.st108{fill:#888F7A;}
	.st109{fill:#788C74;}
	.st110{fill:#A3B190;}
	.st111{fill:#97A887;}
	.st112{fill:#718075;}
	.st113{fill:#5E6F65;}
	.st114{fill:#647965;}
	.st115{fill:#DCC99C;}
	.st116{fill:#9EB892;}
	.st117{fill:#839D81;}
	.st118{fill:#35514C;}
	.st119{fill:#3E5454;}
	.st120{fill:#325162;}
	.st121{fill:#4A6A63;}
	.st122{fill:#5B806D;}
	.st123{fill:#6B877D;}
	.st124{fill:#617D68;}
	.st125{fill:#637C71;}
	.st126{fill:#5A7B78;}
	.st127{fill:#4D675E;}
	.st128{fill:#4E645E;}
	.st129{fill:#475E54;}
	.st130{fill:#687D69;}
	.st131{fill:#5A6D6A;}
	.st132{fill:#88AF8D;}
	.st133{fill:#8BA289;}
	.st134{fill:#737463;}
	.st135{fill:#5E7B69;}
	.st136{fill:#41685B;}
</style>
<g>
	<path class="st0" d="M100,221.2c-1.4-1.7-3.4-1.7-5.4-2.1c-16-2.6-30.9-8.3-44.3-17.4c-0.9-0.6-1.5-1.7-2.3-2.6
		c2.9-1.7,5.8-0.4,7.9,1.1c10,7,21.7,8.6,33.1,11.7c12.8,3.4,25.5,2.6,38.2,0.4c8.6-1.5,17.5-2.7,25.5-6.4
		c7.5-3.5,15.4-6.1,22.4-10.6c1.7-1.1,3.5-2.8,5.8-1.1c-6.8,7.1-15.4,11.2-24,15.5c-10.5,5.3-21.5,8.4-33.1,9.7
		c-1,0.1-1.9,1.1-2.9,1.7C114,221.2,107,221.2,100,221.2z"/>
	<path class="st1" d="M1,105.2c0.3,0,0.6-0.1,0.9-0.1c1.7,0.3,2.7,1.5,3,3c1.4,6.3,5,12,5.9,18.5c0.2,0.5,0.3,0.9,0.3,1.4
		c0.2,0.8,0.1,1.7,0.3,2.5c0.7,2.6,2.2,4.8,3.8,6.9c2,2.7,4.7-0.8,6.9,0.8c0.7,1.7,0.2,3.3-0.4,4.9c-3.8,4.7-5.5,4.7-9.1,0.1
		c-2.4-3-3.8-6.6-6.1-9.6c-1-1.3-1.8-2.8-3.5-3.4c-1.2-4.6-0.5-9.4-2.1-13.9C1,112.6,1,108.9,1,105.2z"/>
	<path class="st2" d="M28,181.3c-4.3-3-6.9-7.3-9-12c2.2-1.3,3.3,0.7,4.6,1.7c7.3,5.4,13.7,12,21.9,16.3c6.1,3.2,12.2,5.9,18.9,7.5
		c6.1,1.5,11.9,4.1,18,5.5c2.9,1.7,5.1,4.2,7.5,6.4c4.1,3.8,8.7,6,14.4,4.2c3.2-1,6.6-0.2,9.8-0.8c10.2-4.1,21.1-6,31.3-9.8
		c6.5-2.4,12.7-5.4,18.8-8.6c11.6-6.1,22.9-12.8,33.7-20.3c1-0.7,2.1-1,3.2-0.1c-0.4,2.9-3.4,4.3-4,7c-15,12.1-32.2,20.3-50,27.3
		c-10.5,4.2-21.2,8-32.5,9c-7.8,0.7-15.6,0.9-23.5-1.6c-14.4-4.7-28.2-10.8-42.2-16.4C40.6,193.2,34,187.6,28,181.3z"/>
	<path class="st3" d="M28,181.3c14.6,13.3,33.3,18.9,51,26.2c9.9,4.1,20.1,8.4,31.6,6.9c6.8-0.9,13.5-2.5,19.8-4.5
		c11.9-3.8,23.6-8.3,35-13.9c10.9-5.4,20.9-12.2,31.7-17.7c-4.6,6-10.2,11.1-16,16c-5.2,0.8-8.7,5.1-13.5,6.9
		c-7.8,2.9-15.2,7.3-23.3,9.3c-8.6,2.1-17.4,3.6-26.2,4.7c-12,1.5-23.6-0.4-35.4-3.3c-9.4-2.3-18.5-4.6-26.6-10.1
		c-2.4-1.6-5.3-1.7-8-2.5C39.8,195,32.9,189.2,28,181.3z"/>
	<path class="st4" d="M219.9,117.2c-0.6,8.9-1.8,17.6-4.9,26c-4.9,0.2-8.2,4.6-13,5.1c-1.9-0.1-3.3-1.1-4.6-2.4
		c-1.2-1.4-1.8-3.1-2.1-4.8c-0.1-7.1,2-12.9,8.4-16.9c4.6-2.9,6.5-7.4,5.5-12.9c0.1-0.5,0.2-1,0.5-1.5c1.2-1.8,2.6-3.4,3.8-5.1
		c0.9-1.2,2-2.3,3.7-1.6c1.5,0.6,2.2,1.9,2.3,3.5C219.8,110,219,113.6,219.9,117.2z"/>
	<path class="st5" d="M118.3,2c9.6,0.1,18.7,2.3,27.7,5.3c1.6,4.8,5.5,6.4,10.1,6.8c2.9,0.3,5.7,0.8,7,3.9c0.5,2.7,2.5,4.1,4.7,5.2
		c2.8,1.4,3.5,3.3,1.6,5.9c-3.7,0.6-5.5-2.5-8-4.3c-3.9-3-7.6-6.3-12.8-7.1c-2.3-1-4.5-2.1-6.6-3.5c-3.4-2.3-6.7-4.1-11-2.3
		c-2.1,0.9-4.4,0.2-6.1-1.3c-3.6-3.2-7.7-2.7-11.7-1.6c-3.1,0.9-6.1,1.4-9.3,1.4c-1.5,0-3.1,0-4.5-0.8c-0.5-4.6,1.3-7.4,4.9-6.4
		c3.9,1.1,6.9-0.4,10.2-1.7C115.8,1.8,117.1,1.5,118.3,2z"/>
	<path class="st6" d="M214.1,76.1c1,0.8,0.9,2,0.9,3.1c0.9,1.4,0.3,2.2-1.1,2.6c-1.8,0.4-3.3,1.4-5,2.1c-1.7,0.4-2.9-0.5-4.1-1.5
		c-1.5-1.2-3-1.3-4.6-0.3c-3,2-5.1,0.7-7.3-1.7c-4.1-4.3-5.2-4.2-9-0.9c-1.9,1.6-1.5,2.7,0.3,3.8c0.4,0.3,0.9,0.5,1.3,0.8
		c4.7,3.4,4.8,4.6,0.8,8.9c-4.8,2.7-9.6,5.3-14,8.7c-1.1,0.8-2.2,1.4-3.5,0.4c-1.2-2.4,0.1-4,1.8-5.4c3.7-1.6,6.5-4.6,10-6.4
		c2.9-1.5,2.3-3.1,0-4.1c-4.3-1.9-4.2-4.4-2.7-8.4c4.9-12.6,7-13.5,19.2-6.9C203.6,69.7,208.1,75.6,214.1,76.1z"/>
	<path class="st7" d="M209,83.2c0.8-3.2,4.9-1.4,6-4.1c4.4,12.3,5.4,25.1,4.9,38c-1.9-2.9-0.6-6.1-0.9-9.2c-0.2-1.8-0.6-3.5-2.3-4.1
		c-2.2-0.8-2.1,1.5-2.9,2.6c-1.1,1.5-2.2,2.9-3.9,3.8c-1.2-0.7-1.7-1.9-2.2-3.1c-2.1-4.8-2.5-9.3-1.3-15
		C207.1,89.1,206.9,85.9,209,83.2z"/>
	<path class="st8" d="M201,171.3c-8.3,5.1-16.4,10.5-24.9,15.2c-6.4,3.6-12.6,7.6-19.7,10.1c-5.8,2.1-11.3,5-17.3,7
		c-8.3,2.8-17.1,4-25.1,7.7c-1.3-2.5,1-3,2.3-4c4.2-3.3,9.4-4.4,14.4-5.8c1.7-0.5,3.4-1.2,5.1-1.7c0.4-0.2,0.9-0.3,1.4-0.4
		c5.1-1.3,10.6-1.7,14.9-5.3c0.4-0.3,0.8-0.5,1.3-0.6c3.6-0.3,6.8-1.3,9.4-4c1.5-1.6,3.7-2.3,5.8-2.8c3-0.8,4.7-3,6.6-5.1
		c5.3-2.4,8.9-7.7,14.8-9.3c2.7-0.1,4.8-1.9,7.2-2.9c1.8-0.8,3.6-2.6,5.8-1C202.3,169.2,201.7,170.3,201,171.3z"/>
	<path class="st9" d="M202,147.3c2.8-0.2,4.7-2.1,6.7-3.5c2.1-1.5,4-1.8,6.2-0.5c-2.7,7.1-4.6,14.6-9,21c-3.1-1.7-6.1-0.2-9.2,0.2
		c-1.2-1.2-1.8-2.7-2.4-4.3C194.8,154.5,198.3,150.8,202,147.3z"/>
	<path class="st10" d="M214.1,76.1c-1.1,3-3.2-0.2-4.6,0.8c-3.1-4.5-8-4-12.5-4.6c-2.6-2.4-2.7-5.3-1.9-8.4
		c4.4-4.9,8.8-5.5,13.1-1.9C210.9,66.3,212.9,71,214.1,76.1z"/>
	<path class="st11" d="M208.2,62c-0.2,0.4-0.4,0.9-0.5,1.3c-3.9-5.6-7.7-0.7-11.6,0c-1.2,0.5-2-0.2-2.6-1.1
		c-1.6-3.8-2.7-7.6-1.1-11.7c1.2-1.5,1.5-3,0.5-4.9c-1.1-1.9-1.4-4,1.2-5.3C200,46.7,204.7,53.9,208.2,62z"/>
	<path class="st12" d="M194,40.3c-1.1,2-1.4,3.9,0.4,5.8c2.1,2.1,1.2,3.4-1.4,4.1c-1.4,0.3-2.8,0.2-4.1-0.4
		c-2.6-1.7-4.7-4.1-6.7-6.5c-2.4-3-2.6-7.1-5.3-9.9c-0.8-0.9-0.8-2.1-0.1-3.2c0.8-1.3,2.1-1.5,3.4-1.2c1.3,0.3,2.5,0.8,3.7,1.3
		C186.9,33.9,191.7,35.9,194,40.3z"/>
	<path class="st13" d="M183.9,30.3c-0.2,0.1-0.3,0.1-0.4,0.2c-1.9,2-4.6-2.7-6,0.4c-1.2,2.7,3.1,3.1,3.1,5.5c0.1,2.6,2,4.4,2.5,6.8
		c-0.3,2.5,0,5.3-3.1,6.4c-0.3-0.1-0.8-0.1-0.9-0.4c-1.5-5.7-5.3-10.3-7.1-15.8c-0.2-7.9,0.4-8.2,8.7-6.3
		C182,27.8,183.5,28.5,183.9,30.3z"/>
	<path class="st14" d="M180.6,27.1c-2.5,0.6-5,1.3-7.9-0.1c0.3,2.4,1.2,4.3,0.3,6.2c-1.7,0.7-2.5-0.6-3.5-1.5
		c-0.5-0.8-1.1-1.5-0.5-2.5c0.4-2.4,0.6-4.3-2.6-5.1c-2.7-0.7-4.5-2.7-4.3-5.8c1.3-0.8,3.3,0.8,4.1-1.4
		C171.3,19.8,176.5,22.7,180.6,27.1z"/>
	<path class="st15" d="M166.1,16.8c0.7,6.4-2.6,1.2-4.1,1.4c-2.2-3.9-6.5-2.2-9.8-3.5c-3.4-1.4-7.4-2.2-6.3-7.4
		C153.1,9.7,159.9,12.6,166.1,16.8z"/>
	<path class="st16" d="M197,164.2c3-2,6-5,9,0c-1,1.3-2,2.7-3,4c-4.8,0.5-7.9,5.4-13,5C190.2,168.6,194.2,166.9,197,164.2z"/>
	<path class="st17" d="M118.3,2c-1.4,0.1-2.8,0.2-4.2,0.3c-0.5,0.3-1,0.6-1.5,0.8c-2.9-0.2-6.3,2.1-8.4-1.7c4.7,0,9.4,0,14.1,0
		C118.2,1.6,118.2,1.8,118.3,2z"/>
	<path class="st18" d="M202,147.3c-1.6,4.7-6.2,7.8-7,13c-1.3,3.7-4.9,4.8-7.8,6.7c-2.4,0.8-4.5,2-5.8,4.4
		c-9.7,10.7-21.6,17.8-35,22.9c-9.7,3.7-19.9,5.6-29.9,7.6c-8.2,1.7-17.1,1.6-25.5-0.4c-0.8-0.2-1.6-0.6-2.3-0.9
		C81,197,74.1,192,64.4,194c-5.2,1-10.8-2.5-15.5-5.9c-9.4-6.9-18.8-13.7-27.6-21.4c-3.9-3.4-5.9-8.5-10.3-11.4
		c-1.3-3.3-2.7-6.7-4-10c2.7-1.9,4.3,0.2,5.9,1.7c3,3,5.6,6.4,8.4,9.7c1.8,2.2,3.8,4.1,6.4,5.2c8.7,5.4,15.7,13,24.4,18.4
		c5.7,3.6,11.5,6.3,18.7,5.1c5.6-0.9,10.6,2,15.3,4.9c8.2,5.1,16.9,4.5,25.8,2.6c1.4-0.3,2.9-1,4.4-0.9c11.7,0.7,22.2-2.9,32.3-8.5
		c1.9-1,3.8-2,6-2.4c6.4,0.2,11.4-2.9,15.9-7c5.7-5.3,11-11.1,18.6-13.8c2.1-0.7,2.7-2.7,3.4-4.6c1.4-3.7,3.1-7.3,5.7-10.4
		C199.4,145.8,200.3,147.4,202,147.3z"/>
	<path class="st19" d="M11,155.2c2.3-0.3,3.9,1,5,2.7c7.6,11,19,17.7,29.3,25.7c5.2,4,10.5,7.5,16.9,9c2.3,0.5,4.6,1.1,6.8,0.1
		c4.6-2.1,8.5-0.4,12,2.3c4.3,3.4,9.6,6.2,14.4,5.8c8.6-0.8,17,1.8,25.9-1.7c7.1-2.8,15.3-3.6,23-5.8c9.1-2.6,17.1-7.3,24.7-12.3
		c4.2-2.8,8.6-6.5,12-10.8c1.4-2.2,4.5-2,6-4c2.7-2,5.3-4,8-6c1.8,0.8,2.1,2.3,2,4c-1,4-5.4,5.4-7,9c-5.4,1.8-8.6,7.2-14,9
		c-7.4,4.5-14.3,9.9-23,12c-4.8,3.3-10.6,4.3-16,6l0,0c-5.7,1.4-11.4,3.3-17.1,5c-0.5,0.1-1,0.4-1.4,0.4c-12.2-0.7-25,2.6-36.5-4.3
		c-9-1.6-17.5-4.9-26-7.7c-9.6-3.2-18.2-8.5-25.8-15.5c-3.5-3.2-7.5-5.9-11.2-8.8C16,164.8,12.5,160.6,11,155.2z"/>
	<path class="st20" d="M27,162.3c-6.4-1-7.8-7.5-11.9-11.1c-2.5-2.2-3.8-5.9-8-5.9c-1.5-5-3.2-9.9-4-15c1.7-2.2,2.4-0.9,3.3,0.8
		c2.2,3.8,4.8,7.4,7,11.2c2.2,3.6,4.5,4.3,7.6,1c2.6,0.6,3.7,2.7,4.3,5c0.2,4.8,3.9,8.9,3,13.9C27.9,162.6,27.5,162.6,27,162.3z"/>
	<path class="st21" d="M25,43.3C32.5,32.8,42,24.7,53,18.2c1.9,2,4,3.2,6.9,2c1.1-0.4,2.4-0.5,3.4-0.1c3.5,1.4,7,1.4,10.6,0.6
		c1.7-0.4,3.6,0,5.1,1.2c0.5,1.7-0.8,2.1-1.8,2.3c-2.2,0.2-3.3,1.9-4.6,3.3c-0.8,0.6-1.6,1.1-2.5,1.4c-2.5,0.7-4.9,0.6-7.1-1
		c-1.5-1.1-2.8-0.8-3.7,0.8c-1.3,2.3-2.9,4.4-4.6,6.4c-0.6,0.8-1,1.8-0.5,2.7c0.6,1,1.7,0.9,2.7,0.7c1-0.2,1.9-0.5,2.9-0.6
		c1-0.1,2-0.2,2.8,0.6c2,2.1,0.9,10.8-1.7,12.2c-2,1.1-3.7,2.9-6.1,3.1c-6.4-0.4-13,0.6-19.1-2.2c-2.5,0.5-2.4-3.8-5.2-2.7
		C27.5,48.1,27.9,44.1,25,43.3z"/>
	<path class="st22" d="M10,127.3C8.5,121,5,115.4,3.9,109c-0.2-1.4-1.3-2.6-2-3.8c0.2-12.6,2.5-24.6,8.1-36c1.3-1.4,2.6-2.4,4.6-1.1
		c1.5,1.3,2,3.2,2.4,5.1c0,3.5-1.5,6.6-2.7,9.7c-0.8,1.9,0.4,2.1,1.4,2.7c1.7,3.4,1.1,6.8-0.1,10.1c-4.2,0.3-4.4,2.7-3.2,5.9
		c0.6,1.6,0.7,3.2-0.3,4.7c-2.5,3.3-1.7,6.9-1.2,10.5C11.3,120.3,12.5,123.9,10,127.3z"/>
	<path class="st23" d="M79,22.2c-3.1,0.2-6.2-0.9-9.2,0.8c-0.8,0.5-2.5,0.3-3.3-0.3c-2.8-2-5.5-1.6-8.5-0.7c-3,0.8-5.7,0.6-5-3.8
		c2-1.1,4-2.1,6-3.2c4.4,1.3,8.2,0.6,12.6-1.6c6.5-3.3,13.8-4.2,21.1-3.6c1.1,0,2.1,0.2,3.1,0.9c1.5,3.5-0.9,5.4-3.1,7.4
		C88.3,20.2,83.8,21.9,79,22.2z"/>
	<path class="st24" d="M14,68.2c-1.6-0.7-2.5,1.5-4.1,0.9c1.6-5.1,3.9-9.7,7-14c1.5-0.4,2.9,0,4.4,0.3c3.1,0.6,5.7,0.4,6-3.7
		c0.2-2.1,1.9-2.8,3.6-3.5c4-4.7,2.6,1.5,4,2c1.1,1.4,4,0.5,4.1,3.2c-1.7,2.3-4,4-6.8,4.8C26.9,62.7,19.5,63.8,14,68.2z"/>
	<path class="st25" d="M93,11.2c-6.5-1.2-12.5,2-18.8,2.1c-0.9,0-1.6,0.3-2.1,1.1c-3.1,5.4-8.4,1.7-12.5,3c-0.2-0.8-0.4-1.5-0.6-2.3
		c2.6-2.3,5.8-3.6,9-4.7c6-1,11.4-4.1,17.4-5.1c1.1-0.2,2.2-0.6,3.4-0.4c1,1.3,1.2,3.2,3.3,3.7C93.3,8.9,94,9.9,93,11.2z"/>
	<path class="st26" d="M31,48.2c-1.3,1.6-3,2.7-2.5,5.4c0.5,2.9-2.3,3.2-4.4,3.4c-2.5,0.2-5-0.5-7.2-1.9c2.1-4.3,4.8-8.3,8.1-11.8
		c2,2.1,1.9-1.8,3.7-1C30.2,43.8,27.2,47.4,31,48.2z"/>
	<path class="st27" d="M88.9,5.4c-5.7,0.9-11.2,2.4-16.5,4.7c-1.4,0.6-2.8,2.2-4.4,0.3c9.2-4.3,19-6.4,29-8c0.4,0.5,0.5,1,0.3,1.5
		C94.8,6.1,92.1,6.8,88.9,5.4z"/>
	<path class="st5" d="M97,3.3c0-0.3,0-0.7,0-1c1.2-0.7,2.9,0.5,3.9-0.9c1.1,0,2.2,0,3.2,0c2.8,1.8,5.9,0.3,8.8,0.9
		c0,0.3,0,0.9-0.1,0.9C107.6,4.5,102.3,4.4,97,3.3z"/>
	<path class="st28" d="M22,138.2c-6.8,2.9-11.4-0.9-12-10c1.3-0.7,2,1.1,3.3,0.7c0.8-2.1-0.6-4.2-0.6-6.3c-0.1-1.5-0.1-2.9,0.7-4.2
		c2.8-1.9,5.3-1.1,4.8,2.3c-0.7,4.8,1.1,5.9,5.2,5.6c0.7-0.1,1.3,0.3,1.8,0.7c0.5,0.6,0.8,1.2,1,1.9c1.7,8.3,8.5,12,16.7,9.1
		c0.8-0.3,1.6-0.4,2.4,0.1c0.5,0.6,0.6,1.3,0.6,2.1c-3.2,6.1-3.4,6.2-10.1,4.6c-1-0.2-1.9-0.2-2.9,0.1c-2.4,0.7-4.2,0-5.3-2.3
		C26.5,140.1,24.5,138.9,22,138.2z"/>
	<path class="st29" d="M22,138.2c4-2.6,5.3,0.6,6.5,3.2c1.1,2.4,2.1,3.9,4.6,1.6c0.8-0.8,2-1.1,2.7-0.3c4.8,5.2,6.7,0.2,9.2-2.5
		c0.6-0.6,1.3-0.6,2-0.3c0.7,0.9,0.4,1.9,0.1,2.8c-1.5,4.8-0.1,7.1,4.8,8.1c1.6,0.3,3.8-0.3,4.2,2.3c-4.8,1.3-9.6,4.1-14.5,0
		c-1.2-1-2.8-0.4-4.3-0.4c-1.9-0.3-3.5-1.2-4.9-2.5c-1-1.3-2.2-0.6-3.3-0.2c-2.1,0.5-3.8-0.3-5.2-1.9c0.1-2.3-2.3-3.2-3-5
		C20.9,141.5,21.1,139.8,22,138.2z"/>
	<path class="st30" d="M14,123.2c0.2,0.8,0.5,1.6,0.6,2.4c0.4,2.1,1.4,4.9-0.5,5.9c-2.1,1.2-2.6-2.3-4.2-3.2c0-0.3,0-0.7,0-1
		c0.7-5.6-1.2-11-1-16.6c0.1-2.3,0-4.7,3-5.4c2.5,0.2,2,2.2,1.3,3.3C10.1,113.6,13.1,118.4,14,123.2z"/>
	<path class="st16" d="M82,201.2c3.4,0.7,6.8,1.2,10.1,2.2c3.6,1.1,7,1.7,10.6,0.4c0.2-0.1,0.3-0.2,0.5-0.2
		c11.6,2.2,22.7-1.3,33.9-3.5c-3.6,2.1-7.6,3-11.6,4c-4.4,1.2-8.3,3.4-11.4,6.9c-10.5,1.6-21.2,3.8-28.7-7.1
		C84.5,203,83.1,202.2,82,201.2z"/>
	<path class="st31" d="M209,107.2c0.3,1,0.7,2,1,3c0,0.3,0,0.7,0,1c-3.3,2.3-5.2-0.1-7-2.2c-1.8-2.3-3.1-2.7-5.3-0.1
		c-3.6,4.2-9.1,4.3-14,5.3c-1.6,0.3-3.1,0.3-4.6-0.5c-1.3-1.1-1.9-2.5-1.7-4.2c1.9-3.8,5.7-6.2,6.8-10.3
		c-10.1,4.8-19.4,11.6-29.5,16.9c-6.5,3.4-12.4,7.9-19.3,10.6c-3.5,1.4-7.1,0-10.7,0.4c-0.4-0.7-0.5-1.4-0.3-2.2
		c1.3-2.4,3.9-2,6-2.7c3.5-0.3,6.5-0.9,6.4-5.6c-0.1-1.8,1.9-2.7,3.4-3.2c4.9-1.8,8.8-4.8,11.9-8.8c0.9-0.4,1.9-0.4,2.8-0.1
		c2.3,1.1,4.6,3.5,6.2-1.2c0.6-1.8,3.4-1.4,5.2-1.9c1-0.1,1.9,0.1,2.7,0.8c3.4-1.5,6.2-4.2,9.5-6.1c2.4-1.3,5-2.7,7.5-3.9
		c2.4-1.2,4.3-3,6.4-4.6c4-2.8,7.3-1.9,9,2.5c1,2.6,2.1,5.1,2,8.1C203.3,102.3,207,104.3,209,107.2z"/>
	<path class="st32" d="M184,113.2c2.1-1.9,5.1-0.6,7.5-1.9c2.1-1.2,4.7-1.6,6-3.9c2.2-3.9,4.5-2.4,6.1,0.3c1.5,2.5,3.4,3.9,6.4,3.5
		c2.6,5.4-0.1,10.2-3.9,12.5c-7,4.2-9.4,10.1-10.1,17.5c-1,2.9-3.1,3.6-5.4,2c-3.8-2.6-4.5-0.3-5.1,2.7c-0.3,1.6-0.1,3.3-0.7,4.9
		c-0.9,2.4-1.9,4.8-5.2,3.7c-1.9-1.5-2-3.6-1.7-5.8c4.5-5.4,3.5-12.3,5-18.6c0.7-3.1-2.5-4.5-2.9-7.1
		C180.1,119.2,181,115.8,184,113.2z"/>
	<path class="st33" d="M180,154.2c3.4-0.6,3.8-3.3,4-6c0.1-1.8-0.2-3.6,0.7-5.4c1.5-2.8,3.2-5.3,6-1.2c2.2,3.1,3.6,0.2,5.3-0.4
		c0.7,1.3,1.3,2.7,2,4c-0.8,5.3-4.8,9.3-5.9,14.6c-0.1,0.4-0.6,1-0.9,1.1c-10.2,2.6-15.9,11.4-23.7,17.3c-3.6,2.7-7.6,4.7-12.4,4.1
		c0.4-3.5,3.1-5.3,5.8-6.7c7-3.8,10.6-10.6,15.1-16.7C177.2,157.2,177.5,154.8,180,154.2z"/>
	<path class="st34" d="M169,29.2c0.3,0.7,0.7,1.3,1,2c2,4,2.9,8.5,4,12.7c1.4,5-2.4,8.7-3.7,13.1c-1.6,5.5-5.8,6.7-10.7,7.1
		c-3.3,0.3-6.5,1.5-9.8,1c-3.9-2.8-8.1-2.2-12.4-1.3c-1.9,0.4-3.9,1.1-5.9,0.5c-2.6-4.4-1.9-7.2,2.7-10.6c3.3,0,6.4,3,9.9-0.9
		c2.2-2.5,5.3-4.3,6.7-7.6c2.1-5,5.4-9.4,8.3-14.1c1-1.5,1.9-3.1,2-5c0.1-0.7,0.3-1.4,0.9-1.8C164.3,25.9,166.7,27.6,169,29.2z"/>
	<path class="st35" d="M104,9.3c5.4,0.9,10.1-2.7,15.6-2.3c1.9,0.1,3.2,0.1,4.5,1.7c1.8,2.2,4.8,3.8,7.1,2.1
		c3.7-2.7,6.3-0.7,9.1,0.8c3.1,1.6,5.8,3.7,8.7,5.7c-1,1.2-2.4,1.3-3.6,0.8c-4.1-1.8-8-0.5-11.9,0.8c-3.7,0.3-6.9-2-10.7-1.7
		c-4.5,0.4-9.2,0.1-12.7,3.9c-0.7,0.7-1.8,0.9-2.8,0.5C109.9,16.5,106.3,13.1,104,9.3z"/>
	<path class="st36" d="M104,9.3c0.4,0.5,0.7,1.1,1.2,1.5c6.4,4.7,6.4,4.7,1.8,10.5c-0.8,2.8-3.1,4.1-5.5,4
		c-3.9-0.2-7.7,0.4-11.5,0.3c-0.9-0.8-1.1-1.8-1-2.9c0.1-2.3,1.9-3.6,3-5.4c2.4-1.3,2.7-4,4-6c0.7-1.2,1.7-1.9,3-2
		C100.7,9.3,102.3,9.3,104,9.3z"/>
	<path class="st37" d="M133,18.2c5.1-4.7,10.6-1.5,16-1c5.8-0.5,9.1,3.9,13,7c0,0.7,0,1.3,0,2c-3.3,0.4-6.1-1.8-9.3-2.2
		c-4.5-1.7-9-2.6-13.8-1c-1.2,0.4-2.6,0.4-3.8-0.1C133.4,21.8,132.3,20.5,133,18.2z"/>
	<path class="st38" d="M99,9.2c-0.6,1.3-1.6,2-3,2c-1,0-2,0-3,0c-0.1-1.4-1-2.1-2.3-1.9c-4.6,0.4-2.2-2.2-1.7-3.9
		c2.7-0.6,5.6-0.7,8.1-2c5.3-0.6,10.7,1,15.9-1c0.4,0,0.7,0,1.1,0c-2.2,2.4-4.5,4.4-8.1,2.5C101.3,2.6,100.7,6.7,99,9.2z"/>
	<path class="st39" d="M209,107.2c-4.7-1.1-5.6-5.5-6.5-9.1c-0.6-2.5-1.5-5-2.3-7.4c-1.3-4.1-4-4.8-7.3-1.8c-2,1.8-4,3.5-6.9,3.3
		c4-3.7,1.5-5.6-2-7.5c-4.9-2.7-5-3.6-0.2-6.2c1.7-1,2-4.4,4.3-3.3c2.5,1.1,4.9,3,6.6,5.1c1.3,1.6,2.6,2.8,3.9,1.4
		c3.5-3.7,6-1.9,8.6,0.9c0.4,0.4,1.2,0.4,1.9,0.6c-1,5,0.4,10.5-4,14.7c-1.8,1.7-0.2,3.3,1.3,4.4C208,103.6,209.2,105,209,107.2z"/>
	<path class="st40" d="M194,62.2c0.7,0.3,1.3,0.7,2,1c-0.2,3.1,0,6.1,1,9c-2.2-0.1-3.5-1.8-5.2-2.8c-4.4-2.5-8.7-1.4-10.9,3
		c-1.4,2.9-1.1,6.4-3.4,9.2c-1.1,1.4,0.7,2.2,2,2.6c1.6,0.5,3.1,1.2,4.3,2.4c1,1.1,1.6,3.1,0.3,3.4c-5.2,1.1-7.7,6.9-13.2,7.2
		c-0.1-0.2-0.3-0.4-0.4-0.6c-0.4-1.2,0-2.3,0.6-3.3c1.4-2.2,1.8-4.2-0.5-6.1c-1-0.9-1.9-2.6-1.1-3.6c3.2-4.1,3.4-9.7,6.9-13.6
		c2.5-2.8,5-5.3,9.1-5.4C188.6,64.6,190.8,61.7,194,62.2z"/>
	<path class="st40" d="M169,102.2c-1,0-2,0-3,0.1c-3.8,0.7-5.6-1.8-7.2-4.5c1.1-2.2,3-1.7,4.9-1.6c2.4,0.7,5.1-0.9,7.4,1.1
		c0,0,0,0,0,0C170.1,98.8,168.6,100.1,169,102.2z"/>
	<path class="st16" d="M153,194.2c7.7-4,15.3-8,23-12c-1.8,3.1-4.6,5.1-8.1,5.9c-1.8,0.4-3.5,1.1-4.7,2.5
		C160.5,193.9,157,194.6,153,194.2z"/>
	<path class="st16" d="M137,200.2c5.2-2.4,10.4-4.8,16-6C148.9,199.4,142.7,199.2,137,200.2z"/>
	<path class="st41" d="M171,97.2c-2.3-0.9-4.7,2.2-7,0c-1.3-1.3-1.7-3.3-0.6-4.4c3.7-4,1-5.2-2.4-6.3c-0.3-0.5-0.4-1.1,0-1.3
		c7.4-4.3,9.3-12,11.8-19.3c0.6-1.6,1.1-3.3,2.6-4.1c5.6-3,10.1-7.1,13.5-12.5c1.4,0.1,2.9-0.5,4,1c-0.9,4.1,0.7,8,1,12
		c-3.1,2.3-6.7,3.2-10.4,4.2c-5.3,1.3-7.9,5.9-9.4,11c-0.4,1.2,0.2,2.8-1.1,3.7c-3.6,2.5-4,4.6,0.5,6.6c2,0.9,1,2.6,0.2,3.8
		C172.7,93.3,171.2,94.9,171,97.2z"/>
	<path class="st42" d="M189,49.3c-1.1,5.7-4.8,9.2-9.9,11.5c-3.3,1.5-5.2,3.7-5.2,7.7c0,4.1-4.5,6.6-5.1,10.5
		c-0.7,4.7-4,6.1-7.7,7.4c-1.9,3.9-5,2.3-7.9,1.6c-4-3.3-4.2-7.6-2.9-12.2c1.3-2,3.6-2.4,5.7-3.2c1-0.2,2.1-0.2,3,0.3
		c2.2,3.3-0.5,4.3-2.5,5.7c-1.1,0.7-2.7,1.1-2.3,2.8c0.5,1.7,2.1,1.1,3.4,1.2c5.2,0.2,6.7-0.8,8.4-5.7c0.6-1.9,1.1-3.8,1.5-5.8
		c-1.5-4.2-0.9-7.6,3.4-9.9c2.1-1.1,3-3.4,4.1-5.4c1.3-2.4,2.3-5.2,5.1-6.4c1.7-1.6,0.7-4.6,3-6C185.4,44.8,187.4,46.8,189,49.3z"/>
	<path class="st43" d="M159,73.3c-1,0-2,0-3,0c-0.4,0.3-1,0.7-1.3,0.4c-2.9-2.9-7.1-3.6-10.3-5.9c0-4.4,0.4-4.7,4.6-3.5
		c5.2-0.7,10.4-1.4,15.6-2.1c0.8-0.1,1.9-0.6,2.1-1.2c2.4-6.5,8.8-12,5.1-20c-1.4-3-2.1-6.3-1.8-9.6c1,0.7,2,1.3,3,2
		c0.6,1.4,0.8,3.1,1.8,4c3.6,3.3,3.7,7.9,5.3,12c-3.6,5.2-5,11.8-11.3,15.1c-3.7,1.9,1.5,4.5,0.3,6.9
		C166.1,73.9,163.1,76.2,159,73.3z"/>
	<path class="st44" d="M180,154.2c-5.4,12-15.1,20.1-25,28c-4.8,1.8-9.6,3.6-14,6.4c-5.3,3.4-11.3,3.8-17.1,4.5
		c-5,0.6-10.2,1.9-14.8,2.2c-7.1,0.5-15.3,2-22.2-2.8c-6-4.1-12.1-7-19.9-5.5c-5.3,1-10.2-1.8-14.3-4.8c-5.7-4.1-12-7.4-16.6-13.1
		c-2.3-2.9-7.4-2.8-9.2-6.9c0.3,0,0.7,0,1,0c2.9-0.6,4.4,2.9,7.3,2.5c1.7-0.1,2.7,0.9,3.6,2.1c4.6,6.1,10.3,10.5,18.1,11.6
		c5.9,2.1,12.1,3.2,18.3,4.2c2.5,0.4,4.9,0.9,7.3,1.7c3,1.2,4.8,6.1,9.2,3.2c6.1,2.1,12.3,1.2,18.5,0.8c11.8-0.8,22.4-6,33.6-8.8
		c2.3-0.6,4.2-1.9,5.7-3.8c1.5-2,3.4-3.6,5.5-5c9.1-4.4,14.2-12.9,20.6-20c0.9-1,1.3-2.9,3.3-2.5C179,150.3,178.8,152.4,180,154.2z"
		/>
	<path class="st9" d="M187,166.2c-0.2,4-4.2,2.4-6,4C182,167.5,184.1,166.3,187,166.2z"/>
	<path class="st45" d="M35,166.2c-3-0.1-4.7-2.6-6.9-4c-1.2-4.7-3.5-9.1-4-14c2,0.3,3.9,1.3,6,1c1,1.9,2-1,3,0c1.3,1,2.7,2,4,3
		c1.5,1.4,2.3,3.1,2.6,5.1C39.4,161,37.7,163.9,35,166.2z"/>
	<path class="st46" d="M55,53.3c1.5-1.1,2.8-2.5,4.4-3.1c3.5-1.3,4.9-3.2,2-6c-2-2,3.2-4.2-0.4-5.1c-1.6-0.4-3.8,1-5.7,1.6
		c-1.4,0.5-2.2-0.5-2.8-1.5c-0.9-1.4-0.8-3,0.4-4.1c2.4-2.4,4.4-4.9,5.8-8c0.9-2,2.9-2.3,4.1-0.9c2,2.6,4.6,2.3,7.2,2.3
		c1.6,0.5,2.8-0.9,4.3-0.7c2.6,0.2,4.8,1.5,3.6,4.4c-1.6,3.9-2.2,8.3-5.1,11.6c-2.6,2.9-4.9,6.1-7.3,9.3c-0.9,1-2.2,1.7-2.3,3.1
		c-0.3,6.2-5.8,8.2-9.6,11.6c-0.2,0.2-0.6,0-0.9-0.2c-0.5-3.6-0.1-7.3-1.6-10.9C49.7,52.8,53,53.5,55,53.3z"/>
	<path class="st47" d="M72,43.2c1.6-3.8,3.2-7.6,4.9-11.4c0.4-0.9,0.6-1.5-0.1-2.2c-0.9-1-2.1-1.9-3.4-1c-1.4,0.9-2.5,1.7-3.4-0.4
		c0.5-0.8,1.2-1,2-1c5.1-4.9,11.6-4.8,18-5c0,1,0,2,0,3c0.3,2.8-0.7,5.3-1.2,7.9c-0.6,1.6-1.3,3.2-2.6,4.5
		C81.5,39.5,77.2,42.6,72,43.2z"/>
	<path class="st48" d="M55,53.3c-2.6,0.8-3.9,2.2-2,4.8c2.2,3.1,0.3,6.1,0,9.2c0.5,2.3,1,4.7-1.7,6.2c-1.8-1.2-1.7-4.7-5.4-3.9
		c-1.6,0.3-2-1.8-2.1-3.3c-0.1-1.5,0.4-2.9,0.4-4.4c0.1-3.5,0.4-6.9-4.6-7.1c-0.6,0-1-0.8-0.7-1.5c-1-1.4-3.5-0.9-4-3
		C41.4,53.1,48.5,51.3,55,53.3z"/>
	<path class="st46" d="M45.7,43.9c3,1.2,7.8-3.6,8.1,2.6c0.1,3.5-4.2,4.1-6.7,4.5c-2.8,0.4-5.2-2.3-5.4-4.8
		C41.3,43.8,44.1,43.8,45.7,43.9z"/>
	<path class="st46" d="M90,22.2c-3.3,1.7-6.8,2.6-10.4,1.9c-3.4-0.6-4.7,2.9-7.6,3.1c0.3-4.5,4.5-3.5,7-5c3.8-3,8.9-2.7,13-5
		C91.3,18.9,90.7,20.6,90,22.2z"/>
	<path class="st49" d="M14,123.2c-4.1-5-4.6-9.6-1.6-14.9c0.7-1.1,0.8-2.2-0.3-3.1c0.7-2.9-3.4-4.8-1.6-7.9c0.7-1.1-0.2-3,1.4-3.3
		c1.5-0.3,2,1.5,3,2.2c0.2,0.1,0.3,0.2,0.5,0.3c0.3,0.3,0.5,0.6,0.7,0.9c0.6,0.8,1.3,1.5,1.7,2.5c0.9,1.8-0.6,4.6,2.4,5.5
		c0.4,0.1,0.9,0.2,1.3,0.3c1.5,0.4,3.1,0.9,4.4,1.8c1.8,1.4,1.5,3.1,1,5c-0.8,2.8-0.4,4.9,2.9,5.7c3,0.8,4.7,2.9,5.2,6
		c0.3,1.7,0.7,3.3,2.9,3.5c1.5,0.2,3,0.2,4.2,1.2c0.2,6.3-1.6,7.9-7.3,6.3c-0.5-0.1-1-0.5-1.4-0.4c-4.8,1.1-6.9-1.7-8.2-5.6
		c0-0.6-0.1-1.3-0.1-1.9c-1.4-3.6-2.5-7.4-6.5-9.2c-1.6-0.7-3-1.3-4.4,0.1C14,119.9,14,121.6,14,123.2z"/>
	<path class="st50" d="M14,68.2c2.4-3.2,4.7-6.2,9.5-6.2c3.3,0,5.1-4.1,8.5-4.8c1.1-0.8,2.5-0.8,3.2,0c1.8,2.1,3,2,5.3,0.4
		c2.6-1.8,5.4,0.9,4.5,5c-0.6,2.8-0.5,5.9-2.4,8.4c-1.3,1.1-2.6,0.5-3.6-0.3c-2.1-1.6-4.2-1.6-6.6-0.8c-2.1-0.2-3.6,1.6-5.7,1.6
		c-1-0.3-1.4-1.1-1.7-2c-1.7-4.1-2.9-0.4-4.3,0.3c-1.6,1.1-2.2,3.5-4.6,3.4C15.3,71.6,14.7,69.9,14,68.2z"/>
	<path class="st51" d="M16,73.3c1.4-1.2,2-3.3,3.9-4.1c1.5,0.4,1.7,1.8,1.9,3c2.1-0.2,1.9-3.3,4.2-3c0,0.8,0.2,1.5,0.9,1.9
		c0.6,2.6,1.2,5.3,2.6,7.6c-0.7,1.4-2.3,1.2-3.3,1.8c-1.7,0.7-2.1,2-1.7,3.7c0,0.5-0.1,0.9-0.3,1.3c-0.7,0.7-1.5,1-2.4,1.1
		c-2.1-1.1-3.9-3.2-6.6-1.4c-1.1,0.5-1.7,2.6-3.2,1.6c-1.4-1,0.4-1.9,0.7-2.9C13.7,80.4,14.9,76.8,16,73.3z"/>
	<path class="st52" d="M15,85.3c3-5.4,4.8-0.8,6.9,0.9c1.8-0.4,4.1-1.8,5.3,0.5c1.2,2.4-0.8,4-2.9,4.9c-1.5,0.7-1.9,1.4-1,3
		c1.9,3.3-0.3,3.8-2.7,3.5c-1.9-0.2-4-0.3-5.5-1.9c0,0-0.1,0.1-0.1,0.1C15,92.6,15,88.9,15,85.3z"/>
	<path class="st53" d="M42,71.2c0.3-2.6,0.9-5.1,1.9-7.6c0.8-1.8,0.6-4.1-1.2-5.3c-2-1.3-2.3,1.2-3.3,2.1c-1.6,1.3-2.9,2.7-3.7-0.6
		C35.2,58,34,57,32,57.2c2.9-0.3,3.9-4,7-4c1.9,2.5,7.5-0.9,7.2,3c-0.2,2.7,0,5.7-0.8,8.4c-0.7,2.4-1.8,4.8,3.2,3.2
		c4.1-1.3,1.4,3.5,2.3,5.3c-0.1,0.7-0.5,1.2-1.1,1.6c-1.2,0.6-2.4,1-3.8,0.8c-1.1-0.6-2.2-1.3-3.2-2C42.2,72.9,41.9,72.1,42,71.2z"
		/>
	<path class="st54" d="M25,129.2c1.1,0.1,1.7,0.7,2,1.8c0.5,2.7,2.2,3.5,4.7,2.3c1.1-0.5,2.1-0.9,3.1,0.1c3.4,3.3,5,1.4,6.1-2.1
		c0.2-0.8,0.7-1.5,1.1-2.2c4.1,0.9,3.5,4.7,4.5,7.5c-0.2,0.8-0.7,1.3-1.5,1.5C36.1,143.5,26.6,139.2,25,129.2z"/>
	<path class="st30" d="M14,118.3c0.7-3.1,3-2.4,4.6-1.5c4,2.2,7.8,4.9,6.3,10.5c-1.1,0.1-2.3,0.1-3.4,0.3c-3,0.5-6.5-3.2-5.6-6
		C16.8,118.9,16.8,118.9,14,118.3z"/>
	<path class="st55" d="M45,138.2c0.3-0.3,0.7-0.7,1-1c3.7-1.7,7,0.1,10.4,1c0.2,0.3,0.5,0.5,0.5,0.9c0.1,2.3,2.7,5.4-1.2,6.6
		c-4,1.3-7.1-0.7-8.1-4.8c-0.1-0.3-0.3-0.6-0.6-0.7c-0.7,0-1.3,0-2,0C45,139.6,45,138.9,45,138.2z"/>
	<path class="st56" d="M39,157.2c-0.9-1.6-2.4-2.9-2-5c2.6-1.2,5.1-2.7,6.9,1.2c0.5,1.1,1.7,1.6,2.9,0.8c2.9-1.7,6.1-0.8,9.2-1.1
		c5.1-1.3,10.2-2.8,15.6-2.2c5.5,0.6,10.5-0.4,15.1-3.7c4.9-3.4,10.7-4.1,16.3-5.5c1.1,0.1,2.1,0.3,2.9,0.9c1.2,2-0.1,2.7-1.7,3
		c-2.8,0.6-5.1,2.3-7.9,2.9c-1.5,0.3-3.1,1-3.1,2.7c0,2.1,1.9,2.5,3.5,2.9c4.9,1.1,9.8,0.9,14.8,0c3.6-0.6,7.1-0.8,10.7,0.6
		c3.4,1.3,5.4,3,4.2,6.9c-0.3,0.9,0.1,2,0.1,3c-0.2,1.7-0.9,3.2-1.5,4.7c-1,2.5-2.6,3.8-5.4,2.7c-9.5-3.9-18.1-1-26.4,3.5
		c-1.7,0.2-3.3-0.2-4.9-0.8c-2.7-1.1-4.6-1.8-6,2.2c-1.2,3.5-5.4,3.5-8.2,2.2c-8.3-3.8-17.3-6-24.9-11.3c-1.8-1.3-3.3-2.8-4.4-4.7
		c-1.1-2-2.6-3.5-4.6-4.4C39.5,158.6,39.1,158,39,157.2z"/>
	<path class="st57" d="M103,143.2c-5.7,2.3-12.2,2.2-17.3,6.6c-3.3,2.9-8.1,3.4-12.2,3c-4-0.4-7.9-0.9-11.7,0.7
		c-2.1,0.9-3.9-0.5-5.8-0.2c-1.2-1.4-2.8-1.1-4.2-0.9c-4.8,0.6-6.1-3.7-8-6.3c-1.1-1.5,3.1-3.2,3.1-5.8c4.4-0.7,0.1,3.5,3.2,3.8
		c1.6-1,3.9,0.8,6.7,0.8c-0.6-2.3-1-4.4-0.7-6.5c2.6-2,4.5-7.1,8.9-2.2c0.5,0.4,0.4,1.1,1,1.4c-0.5-0.4-0.6-1.1-1.1-1.5
		c-0.9-1.5-0.7-2.9,0.7-3.8c2.6-1.6,3.6,1.3,5.4,2c1,0.5,1.4,1.6,2.3,2.2c6.7-4.5,7.6-9.6,2.6-15.9c2.1-2.5,4.6-1.6,7.1-0.8
		c0.4,0.2,0.8,0.5,1.2,0.8c1.3,2.7,4.1,3.5,6.5,4.6c2.3,1.9,4.3,4.1,6.4,6.2c1.2,1.7,2.9,2.6,4.9,3.1c2.1,0.5,4.4,1.1,4.6,3.8
		C106.8,140.8,105,142.2,103,143.2z"/>
	<path class="st58" d="M33,149.2c-0.3,0.3-0.6,0.7-1,1c-0.8,0.8-0.8,3.1-2.3,2.3c-1.5-0.7,0-2.2,0.3-3.4C31,147.3,32,147.2,33,149.2
		z"/>
	<path class="st59" d="M103,143.2c4-5.8,4-5.9-2.8-7.7c-1.9-0.5-3.3-1.5-4.2-3.2c1-3.1,3.2-3.7,6.2-4.4c4.4-1.1,9.6-1.6,11.7-6.9
		c1.2-0.6,2.3-0.6,3.3,0.4c0.8,4.3,4.7,4.6,7.7,5.9c1.2-1.1,2.2-2.2,4.3-1.8c5.6,1,13.4-2.7,17.1-7.6c0.4-0.5,0.9-1.2,1.4-1.3
		c14.9-2.9,24.7-15.9,39.2-19.4c-2.8,3.8-3.8,9.4-9,12.1c-1.1-0.1-2.2-0.6-3.3-0.2c-1.4,0.5-2.1,1.6-1.7,3c0.4,1.5,1.4,2.1,2.9,1.1
		c1-0.6,2.1-1,3.1,0c1.7,0,3.3,0,5,0c-0.5,3.5-3,6.3-3,10c-1.6,0.7-2.6-0.5-3.8-1.1c-2.6-2.6-5.9-3.6-9.5-3.8
		c-1.6-1.5-2.5-4.1-5.4-3.3c-0.8,0.2-2.2,0.1-2,1.5c0.1,0.7,1.3,0.9,1.9,1.5c0.3,2.2,1.4,4.3,0.7,6.6c-1.8,1.2-3.9,1.2-5.8,0.8
		c-4.3-0.9-7.5,0.7-10.2,3.8c-3.6,4.2-7.9,5-13,3.7c-1.4-0.4-3.1-1.7-4,0.8c-2.5,1.5-5.6,0.7-8,2.5c-2.5,1.8-4.7,4-7.6,5.1
		c-2.6,1.2-5.4,1.9-8.3,2C105,143.2,104,143.2,103,143.2z"/>
	<path class="st60" d="M117.1,122.2c-0.8-1-1.9-0.9-3-0.8c-1.6,0.8-3.4,1.4-5.1,2.1c-2,0.8-3.6,0.3-4.4-1.8
		c-0.8-2.2,0.3-3.9,2.3-4.2c3.2-0.4,4.9-1.9,6-4.9c0.8-2,3-2.5,5-2.6c2-0.1,4-0.5,5.9-0.8c1.1-0.1,2.2-0.1,3.3,0.2
		c0.8,0.1,1.6,0.4,2.4,0.6c3.5,0.7,6.5,1.5,7.2,5.9c0.8,5-1.8,6.7-5.9,7.5c-1.7,1.6-4.4,0.2-6,2c-1.2,2-2.8,2.3-4.5,0.6
		C119.3,124.7,118.2,123.4,117.1,122.2z"/>
	<path class="st61" d="M131,123.2c1.1-2.1,4.5-1.1,5-4.1c0.6-3.9-1.3-7-5.4-7.8c-1.3-0.2-2.7,0.2-3.6-1.1c2.5-2.5,6.4-0.3,9-2.5
		c2.3-1.8,3.4-3.7,2.3-6.8c-0.8-2.2-1-4.7,2.3-5.4c0.5,0,0.9,0.1,1.4,0.3c2.8,1.4,3,4.1,3.5,6.7c0.5,2.7,1.5,4.6,4.6,2.4
		c0.7-0.2,1.4-0.1,2,0.5c-1.6,6.4-7.6,7.4-12.4,9.9c-1,0.5-2.3,0.6-2,2.3C138.7,123.1,134.7,123,131,123.2z"/>
	<path class="st62" d="M152,105.3c-0.7,0-1.3,0-2,0c-0.1-2.7,2.4-3.1,3.8-4.5c2.7-2.6,4-5.5,1.5-9c-1.1-1.5-4.4-1.4-3.6-4.5
		c0.4-0.4,0.8-0.4,1.2-0.1c2.7-0.4,5.5,0.9,8-1c1.8,0.1,3.7-0.3,5.3,0.7c1.9,1.2,2.6,3.1,0.3,4.1c-3.2,1.4-2.4,3.9-2.6,6.2
		c-1.7,0.2-3.6-0.6-5,1c1.2,6,0.4,7.5-4,7C154,105.3,153,105.3,152,105.3z"/>
	<path class="st32" d="M179,113.2c-0.8,0.2-1.8,0.3-2.3,0.8c-1.8,1.6-3.2,1.8-4.7-0.4c-1.5-2.2-1.2-4.2,1-5.6
		c1.8-1.2,4.1-2.1,5.1,1.2C178.3,110.6,178.7,111.9,179,113.2z"/>
	<path class="st63" d="M155,105.3c2.3,0,3.9-0.8,3.3-3.4c-0.3-1.4,0.2-2.5,0.8-3.6c3.1,0,3.9,4,7,4c-1.7,1.4-4.7,0.5-4.8,4.8
		C161.1,109.5,156.8,107.3,155,105.3z"/>
	<path class="st64" d="M117.1,122.2c1.7-0.1,2.8,0.7,3.4,2.2c1,2.5,2.7,1.8,4.4,0.9c0,0.7,0,1.3,0,2
		C120.5,128.1,117,125.8,117.1,122.2z"/>
	<path class="st65" d="M178,121.3c1,0.7,2,1.3,3,2c4.5,3.2,1.9,7.6,2.4,11.6c0.7,5.8-1.8,9.4-4.5,13.4c-4.4,5.5-8.6,11.2-13.2,16.6
		c-2.6,2.9-6.2,4.8-9.8,6.4c-5-3.3-10.5-5.7-15.6-8.9c-1.6-0.5-2.7-1.4-3.4-3c-1.2-3-1.4-6.3-2.7-9.3c-1.2-2.9-0.5-5.8,2.1-7.9
		c1-0.6,2-0.5,3-0.4c5.8,0.5,11.4,1.8,16.9,3.3c5.3,1.4,8.9,0,10.3-5.5c0.6-2.6,1.4-4.7,3.9-5.9c3.3-1.6,0.8-4.9,2-7.1
		c2.1-1.9,3.8,2.4,5.6,0.5C179.8,125.3,176.1,123.3,178,121.3z"/>
	<path class="st66" d="M153,23.2c3.4-0.2,6.3,1,9,3c1.2,3.2-1.6,5-2.8,7.1c-2.9,4.9-6.1,9.6-8.4,15c-1.8,4.3-6.8,5.3-9.9,8.5
		c-1.4,1.5-3.9-1.6-5.9-2.6c-2.6-0.3-5-1.2-7.5-1.9c-1.3-0.4-2.7-1-2.8-2.4c-0.5-5.9-3.2-3-5.5-1.4c-0.7,0.5-1.2,1.1-1.9,1.5
		c-1.4,0.7-2.7,1.4-4.2,0.3c-1.3-3.3,1.7-4,3.3-5.6c1.5-1.5,3.4-2.4,5.3-3.3c2-0.9,3.7-2.3,5.7-3c2.7-0.6,5.3-1.8,8-2.6
		c1.6-0.5,3.2-1.3,3.5-3.1c0.6-3.8,3.2-4.6,6.4-4.9C148.4,27.5,151.9,27.3,153,23.2z"/>
	<path class="st67" d="M149,64.2c-3.1-0.4-4.4,0.9-4,4c-0.5,2.7-2.6,2.2-4.1,1.6c-4.1-1.7-7.7-0.8-11.3,1.3c-1.6,0.9-3.3,1.2-5,0.4
		c-4.6-0.8-9.4,0.2-13.8-2c-0.9-0.5-2.9-0.4-3.1,1.4c-0.1,1.6,1.3,2.1,2.7,2.3c2.7,0.4,5.9,0.4,5.7,4.5c-0.2,0.5-0.4,0.9-0.7,1.3
		c-1.1,1.4-2,3-3.4,4.2c-1.4,1.1-2.8,2.6-4.5,0.4c-0.1-0.4-0.2-0.9-0.2-1.4c0.1-1.7-1.1-2.5-2.5-2.4c-2,0.2-0.7,1.8-0.7,2.7
		c0,1.8,0.5,3.8-1.4,4.9c-1.9,1-3.6-0.2-4.9-1.4c-2-1.7-7-1.5-4.7-6.4c0.2-0.4,0.5-0.8,0.9-1.1c1.2-1,2.6-2,1.3-3.7
		c-1.3-1.6-2.7-0.3-4,0.4c-3.7,1.9-3.7,1.9-5.2-1.2c1.9-2.2,4.4-3.4,6.9-4.7c3.1-1.6,4.3-3.5,1.8-6.5c-0.9-1.2-1.8-2.4-1-4
		c1.3-1.7,2.9-2.6,5.1-2.1c2,2.3,4.4,2.4,7,1.3c2.7-1,5.5-0.4,8.2-0.7c0.7,0,1.5,0.1,1.8,0.6c1.8,3,3.4,2.3,5.1,0
		c0.8-1.1,1.5-2.2,3.1-1.9c0.3,0.2,0.5,0.4,0.8,0.6c4.9,3.4,4.9,3.4,1.4,8.3c-0.5,1.7,0.6,1.5,1.6,1.5c1.8,0.1,2.5-1.8,4.1-2.2
		C136.2,61.2,145.9,61.2,149,64.2z"/>
	<path class="st68" d="M125,65.2c-0.1-2.4,2.5-3.3,3.4-5.6c-1.7-0.8-5,0.1-4.4-3.4c-1-3.7-4.6-4.7-7-7c1.3-2,2.7-3.6,5.3-4.1
		c2.8-0.5,5.4-1.5,3.3,3.1c-0.9,2,0.6,2.6,2.2,3c2.5,0.6,5.3,0.9,7.2,3c-3.6,2.6-4.8,5.8-3,10c-1.1,1.3-0.8,4.5-4,3
		C127.2,66.2,125.7,66.3,125,65.2z"/>
	<path class="st69" d="M88,33.2c-0.1-2.9,0.1-5.6,2-8c3.2-1.4,6.2-2.5,9.9-1.2c2.7,1,4.9-1.5,7.1-2.8c0.6-0.2,1.4-0.2,1.8-0.6
		c7.4-7.3,15.7-5.4,24.1-2.4c0.7,1.3,1.3,2.7,2,4c-4.6,1.3-9.2,0.2-13.8,0.1c-2,0-4.2-0.4-5.7,1.2c-4.7,5-11.3,6.9-16.8,10.6
		c-1.6,0.5-3.3,0.6-5,0.6C91.8,34.5,89.6,35,88,33.2z"/>
	<path class="st70" d="M99,33.2c1.9-2.4,4.4-3.8,7.2-4.9c1.2-0.5,2.9-0.7,3.5-1.6c7.1-9.5,16.5-5.1,25.2-4.5
		c4.5,0.1,8.6-2.9,13.3-1.1c1.6,0.6,3.5,0.6,4.7,2.1c1,3.1,1.4,5.4-3.3,5.2c-2.2-0.1-4.5,0.9-6.8,0.9c-1.4,0-2.9,0.8-2.7,2.2
		c0.7,4.7-2.6,5-5.7,5.7c-2.5,0.6-4.7,2.5-7.6,2c-1.2,0.7-2.4,1-3.2-0.5c0.3-2.1,2.1-2.4,3.5-3c3-1.3,3-4.1,3.6-6.6
		c0.2-0.7-0.1-1.2-0.7-1.7c-1.9-1.6-10.7-0.9-11.5,1.3c-1.5,4.1-4.9,5.6-8.2,7.5C106.3,36.8,102.5,35.7,99,33.2z"/>
	<path class="st71" d="M124.9,70.3c1.4,1.7,2.7,0.5,4.1-0.1c0.4-0.3,0.9-0.6,1.3-0.4c5.3,2.3,10.6,4,16.6,2c1.9-0.7,3.6,1.2,4.1,3.4
		c-0.2,4.1-0.4,8.3,2,12c-0.3,0-0.7,0-1,0c-4.6-2.2-7.3-6.9-12.4-8.8c-5.1-2-5.5-2.3-7.6,2.8c-2.4,5.6-6.3,7.3-11.9,5.1
		c-0.5-1.7,0.9-1.8,1.9-2.2c3.7-1.4,4.2-3.2,1.8-6.3c-0.6-0.8-1.4-1.4-2.1-2.1c-1.1-1.2-1.8-2.5-0.8-4
		C121.8,70.4,123,69.1,124.9,70.3z"/>
	<path class="st72" d="M159,73.3c3.6,0.5,6.8-0.5,10-2c-0.5,1.6-0.9,3.2-1.4,4.7c-2.2,7.6-5.7,9.8-13.2,8.2
		c-1.5-0.3-2.2-1.3-2.4-2.8c-0.2-1.7,0.4-2.7,2.1-3.4C156.3,77.1,159.3,76.8,159,73.3z"/>
	<path class="st73" d="M151,75.2c-2.2-1.8-3.9-2.8-7.3-1.4c-3.2,1.3-7.5,1.5-10.7-1.8c-0.9-1-2.7-1.2-4-1.8
		c3.9-2.9,7.9-4.2,12.5-1.4c1.1,0.7,2.5,0.6,3.5-0.7c5.2-1.7,7.7,2.5,11,5C154.7,74.8,153,75.3,151,75.2z"/>
	<path class="st74" d="M141,161.2c1.6-0.1,3.2,0.1,3.9,1.6c1.6,3,3.5,4.2,7.1,3.6c3.4-0.6,2.2,3.5,3.9,4.8
		c-5,5.7-10.9,9.1-18.5,11.7c-9.9,3.4-19.8,5.7-29.9,7.2c-5.4,0.8-11.4,1.5-16.6-1.9c-4.1,2.7-5.3-2.1-8-3
		c-5.6-1.4-11.6-0.9-17.1-3.3c-2.7-1.2-6.5,0.4-8.9-2.7c-3.2-2.1-6.5-4-9.7-6.1c-5-3.5-7.4-8.7-7.3-14.9c2.7-0.3,4.8,1.3,5.5,3.5
		c2.2,6.5,8.5,7.6,13.3,10.2c4.2,2.2,9.3,3.3,13.6,5.6c2.4,1.3,4.6,1.2,7.1,0.8c1.6-0.3,2.2-0.6,1.9-2.5c-0.6-4,2.4-4.2,4.7-3.2
		c2.3,1,4.7,1.5,6.9,2.6c1.1,3.2-1,4.8-3.5,6.2c5.1,3.7,10.1,0.2,15.1,0.3c3.4,0.1,6.5-1.6,9.4-4.6c3.1-3.2,8.2-2.6,12.5-0.7
		c5.8,2.6,16-3.7,15.8-9.6C142.3,164.8,140.2,163.4,141,161.2z"/>
	<path class="st75" d="M40,158.2c2.6,7.2,5.1,14.3,13.5,17c1.4,0.4,2.3,2.6,3.4,4c-8.8,0.1-14.3-5.3-19-11.8c-1-1.4-1.6-1.9-3.1-1.2
		c1.3-3,2.7-6,4-9C39.3,157.6,39.7,157.9,40,158.2z"/>
	<path class="st75" d="M83,185.2c3.2-0.4,4.4,4.4,8,3C86.1,193.1,85.5,186.8,83,185.2z"/>
	<path class="st76" d="M50,74.3c0.3-0.4,0.7-0.7,1-1.1c2.1-1.5-0.1-4.5,2-6c1.9-2,3.5-4.2,6-5.7c1.6-0.9,3.7-2.6,2.8-4.7
		c-1.4-3.5,1.3-3.7,3.2-4.6c1.3-1.2,2.8-1.3,4.4-0.7c2.3,2.8-0.2,4.5-1.5,6.4c-5.4,7.6-5.5,7.7,0.5,15c0.5,0.7,1,1.3,1.2,2.1
		c-0.4,3.3-0.1,7.1-5.5,5.4c-2.7-0.9-1.1,2.7-2.8,3.1c-2.6,0.9-4.8-0.7-7.3-0.8c-2.8-1.9-2.3-5.4-3.9-7.8C50.1,74.7,50,74.5,50,74.3
		z"/>
	<path class="st77" d="M70,52.2c-1.7,0-3.3,0-5,0c1.5-3.6,3.7-6.7,7-9c4.2-3,8.8-5.2,13.9-6c0.9,1.6,0.2,3.3-0.1,4.9
		c-0.2,0.6-0.4,1.3-0.4,1.9C86.4,52.4,79,55,70,52.2z"/>
	<path class="st78" d="M85,41.2c0.3-1.3,0.6-2.6,1-4c0.2-1.6,0.7-3,2.1-4c2,0,4,0,6,0c0.2,3.2-3,4.5-4.1,7.1c-1.1,2.9-0.9,4,2.5,4.6
		c8,1.3,15.7,1.4,23-2.6c1.9-1.1,4.3-2,6.5,0c-3.3,2.3-7.3,3.8-9,7.9c-0.2,0.2-0.3,0.4-0.5,0.6c-8.6,1.6-17.4,2.5-25.9,4.9
		c-2.8-1-3.8-3-2.6-5.8C85.2,47,83.7,44,85,41.2z"/>
	<path class="st79" d="M15.1,96.2c2.7,0.3,5.4,0.6,8.2,0.9c-0.4-2.5-2.7-3-3.8-4.7c0.4-1.6,1.9-1,2.8-1.4c1.8-0.7,4.5-1,4.1-3.4
		c-0.3-2.5-3-0.9-4.6-1.4c0.7-0.3,1.4-0.7,2.1-1c1.4-1.1,2.9-1.2,4.5-0.8c1.7,0.6,3.2,1.4,4.6,2.5c1.6,3.7,3.9,6.9,7.8,8.6
		c3.8,3.1,3.9,4,0.8,8.7c-3,1.5-5.9-3.1-8.9-0.2c-0.7,0.2-1.4,0.3-2.2,0.2c-1.3-0.2-2.3-0.7-3.1-1.8c-1-1.6-0.7-3.4-0.8-5.9
		c-1.6,2.1-3.3,2.9-5.3,2.9c-2.3-0.2-4.5-0.9-6.3-2.4C15.1,96.8,15,96.5,15.1,96.2z"/>
	<path class="st80" d="M71,135.2c-0.8-0.1-2.1-0.1-2.2-0.5c-0.4-1.1-0.4-2.4-2-2.1c-1.9,0.4-1.6,2.1-1.7,3.6l0,0
		c-2.2-0.2-5.7-3.8-5.6,2.3c0,1.4-2.2,0.1-3.3-0.2c-3.5,1-6.8-0.6-10.1-1.1c-1.8-2.4-1.6-5.8-4-7.9c-1.7,0-3.3-0.1-5-0.1
		c-1.3-1.8-1.3-3.3,0.8-4.4c2.1,0.3,3.6-0.5,4.9-2.2c0.9-1.1,1.6-3,3.7-2.2c1.1,1.3,1.9,2.9,1.9,4.5c0.2,4.5,4.2,5,6.8,7
		c0.9,0.7,1.4-0.3,1.9-0.8c1.6-1.5,3.4-2.6,5.7-2.2c1.3,0.6,2.6,1.2,4.2,0.4c1.5-0.8,3.1-0.8,4.6,0.4
		C72.3,131.4,73.5,133.5,71,135.2z"/>
	<path class="st81" d="M38.9,125.3c-2.6,0.3-1.7,2.4-1.9,3.9c-2.4-0.6-3.8-2.3-3.5-4.6c0.4-3.4-1.8-4.9-4.1-5.1
		c-5.3-0.5-4.7-3.6-3.8-7.1c0.4-1.5,1.9-3-0.5-4.2c-1.3-2.1-0.8-3.6,1.6-4.3c2.1,0.4,3.1,1.9,3.4,3.8c1,6.5,4.2,11.8,9.1,16.2
		C39.3,124.4,39.3,124.8,38.9,125.3z"/>
	<path class="st82" d="M27,104.3c-1.8,0.7-2.1,2.3-2,4c-1.3-0.7-2.7-1.3-4-2c2.9-2.3-0.5-5.5,1-8c0.3,0,0.7-0.1,1-0.1
		c2.6,0.1,2.3-5.2,4.9-3.2c1.2,0.9,0.2,4.8,0.1,7.3C28.5,103.3,27.9,103.9,27,104.3z"/>
	<path class="st83" d="M22,98.3c-0.1,2.7,5.4,6.1-1,8c0,0,0,0,0,0c-1.9-2-1.6-5.3-3.9-7c-1.3-0.1-2-0.8-1.9-2.1
		C17.4,97.5,19.7,97.9,22,98.3z"/>
	<path class="st84" d="M17,99.3c4.7,0.5,3.5,4.2,3.9,7c-2.4,1.3-4.1,1.2-4-2.2C17,102.5,17,100.9,17,99.3z"/>
	<path class="st85" d="M28.9,79.3c-3.1-2.1-3.8-4.8-2-8.1c1.6-1,2.7-3.1,5.1-2c1.6,0.8,2.1,2,1.5,3.7c-1.2,0.8-2,1.4-1.2,3.4
		c1.1,2.7,0.3,5.2-3,6.2C28,81.5,28.1,80.5,28.9,79.3z"/>
	<path class="st86" d="M33,73.2c-0.3-1.3-0.6-2.7-0.9-4c4.2-3.9,6.7,0.9,10,2c0.8,0.5,1,1.2,1,2.1c0.6,2-1.6,3.5-0.8,5.6
		c-0.7,1.4-1.8,2.1-3.5,1.5c-0.6-0.6-1-1.4-0.9-2.2C38.3,74.4,36.2,73.3,33,73.2z"/>
	<path class="st87" d="M26,69.2c-0.9,2.6-2.5,4.6-5.5,5.3c-1-1.6,1.3-3.7-0.5-5.3c0.6-0.7,1.1-1.6,1.9-2.1c1-0.8,2.1-1.9,3.4-1.3
		C26.6,66.4,25.9,68,26,69.2z"/>
	<path class="st88" d="M28.9,79.3c0.1,1.1-0.1,2.2,1,3c1.1,1.4,0.5,2.3-0.9,3c-1.7,0-3.4-0.1-5-0.1c0-0.3,0-0.6,0-0.9
		c-0.6-2,1-2.8,2-4C26.2,77.7,27.9,79.6,28.9,79.3z"/>
	<path class="st89" d="M26,80.3c0.2,1.8-1.4,2.6-2,4c-2.3-0.2-1.1-1.5-0.7-2.4C23.7,80.7,24.1,79.1,26,80.3z"/>
	<path class="st90" d="M45.9,75.2c1.4-0.3,2.7-0.6,4.1-0.9c0,0,0.1-0.1,0.1-0.1c0.5,0.4,1.3,1,1.1,1.5c-2.4,4,0.8,5.4,3.2,7.2
		c2.6,1.8,5.7,2.4,8.5,4c2.6,1.5,4.9-1.3,7.4-2.1c0.4-0.2,0.9-0.3,1.4-0.4c1.7,0,3.3,0.4,4.7,1.3C78,87,77,89.2,78,90.9
		c2.8-0.4,5.9-2.7,8.6,0.3c3,3.7,5.6,3.9,8.9,0.7c2.1-2.1,4.3-4.3,7.7-2.6c-2.9,4.3-4.7,9.5-9.6,12.2c-2.9,1-5.2,0.3-7.8-1.3
		c-3.4-2-6.9-4.8-11.5-3.5c-0.3,0.1-0.8,0.1-1,0C68.9,92.6,63,94,58.1,91.9c-1.5-0.7-3-1.5-4.1-2.8c-2.3-2.5-4.2-3.6-5.2,1
		c-0.2,0.8-0.8,1.4-1.7,1.7c-0.5,0-0.9-0.1-1.3-0.3c-0.2-0.4-0.4-0.8-0.4-1.3c0.8-3.5-0.3-4.5-3.6-2.7c-1.6-2.6-2.7-5.2,1.2-6.9
		c2.1-0.9,0.7-2.1,0.6-3.3C43.8,75.9,44.3,75,45.9,75.2z"/>
	<path class="st91" d="M45.9,75.2c-0.7,0.7-1.3,1.3-2,2c-0.4,0.8-1.1,1.1-1.9,1.1c-4.1-2.6,1.1-3.2,1-5
		C44.5,73.2,45.9,73.1,45.9,75.2z"/>
	<path class="st92" d="M141,161.2c3.7,2.8,2.4,6.7,2.4,10.3c0,1.1-0.9,1.8-1.8,2.2c-3.6,1.7-7.2,3.3-10.8,5c-1.1,0.5-2.6,0.9-3.3,0
		c-3.1-4.1-7.4-1.3-11-2.2c-0.9-0.2-1.7,0.2-2.1,1c-2.9,6.8-9,5.3-14.4,5.7c-1.1,0.1-2.5,0.1-3.3,0.7c-4.2,2.9-6.7-1.1-9.7-2.5
		c-1-0.5-0.7-2.3,0.5-1.9c4.4,1.5,4.4-2,5.5-4.3c4.6-4.5,10.9-5.5,16.8-6.7c2.7-0.5,6.3,1.1,9,2.2c4.3,1.7,4.7-0.1,5.6-3.1
		c0.3-0.9,1.1-1.6,1.6-2.4c0.6-0.6,1.3-1.1,2.1-1.1c3.9-0.3,5.4-2.4,5-6.2c-0.2-1.4-0.3-3,1.4-3.8c2.4,0.9,2.4,3.5,3.5,5.2
		C138.6,160.6,139.6,161.2,141,161.2z"/>
	<path class="st93" d="M135,154.2c-0.7,0.5-1,1.3-0.9,2.2c0.6,8.7,0.5,8.9-8.1,8.8c-0.6-1-1.6-2-1.6-3c0-4.9-1.7-7-6.8-6.9
		c-3.8,0-7.6,0.5-11.3,1.1c-3.8,0.6-7.5,0-11.2-1c-1.9-0.5-4.2-0.8-3.9-3.6c0.3-2.6,2-4.1,4.6-4.5c3.8-0.5,6.8-2.8,10.3-4.1
		c2-2.8,5.6-1.3,8-2.9c0.4,0.3,0.6,0.7,0.7,1.2c-1.6,6.5-1.5,6.7,5.3,8.6c1,0.3,1.9,0.5,2.7,1.2c5,4,5.7,4,10.4-0.2
		C135,151.3,135.5,152.5,135,154.2z"/>
	<path class="st94" d="M46,91.3c2.2-0.2,1.9-1.9,2.1-3.3c0.2-1.3,0.4-2.8,1.9-3.2c1.4-0.3,2.6,0.6,3.4,1.6c3.6,4.6,8,6.8,13.8,5.1
		c0.2,0,0.4-0.1,0.5,0c5.5,5.7,14.8,2.4,20,8.4c2,2.3,3.6,0.3,5.4,0.4c4.9,0.9,6.5,0,8-4.5c1.6-4.8,4.1-6.1,9.1-4.7
		c1.6,0.5,3.1,0.9,4.7-0.1c5.7-3.5,6-3.4,10.6,1.4c0.4,0.6,0.8,1.2,1,1.8c2.3,3.8,3.5,8.5,8.1,10.5c1.4,0.6,2.2,1.9,2.3,3.5
		c-0.5,3-2.9,1.9-4.6,2c-1.8,0.1-3.5,0-5.3,0c-1,0-1.9,0-2.9-0.1c-2.1-1.3-4.1-1.3-6.5-0.2c-2.3,1.2-4.7,2.3-7.3,3
		c-2.3,0.6-3.9,1.7-4.8,4.4c-0.9,3.1-3.3,4.5-6.5,2.4c-3.2-2-7-2.8-10.1-5c-0.8-0.2-1.4-0.7-2.4-1c0.6,1.5,2,2,2.5,3.3
		c1.1,2,0.9,3.9-0.9,5.5c-1.8,0.8-3-0.1-4.1-1.3c-0.3,0-0.7,0-1,0c-0.3-1.2-1-2-2.1-2.6c-2.9-1.5-3.5-3.2-1.4-6.2
		c2-2.7,0.6-6.2,0.1-9.1c-0.4-2.4-7.5-2.9-9.5-0.6c-2.5,2.8-4.7,3.2-7.5,0.6c-2.5-2.4-5.7-2.2-8.9-2.1c-1.9,0.1-4.3,0.1-4.3-2.2
		C49.4,95.7,47.2,93.8,46,91.3z"/>
	<path class="st95" d="M46,91.3c2.8,1.3,5.9,2.3,4.2,6.7c-0.6,1.5,0.8,2.5,2.4,2.2c4.6-0.7,8.9-1.1,12.2,3.5c1,1.4,3.5,0.6,3.9-1.3
		c0.7-3.4,2.3-3.4,5-2.5c1.4,0.5,2.9,0.3,4.4,0.3c1.2,0,2.3,0.2,3,1.3c1.8,2.8,0.4,11.5-2.4,13.8c1.4,2,5.7,1.9,4.3,5.8
		c-2.3-1-4.7-1.9-7,0c-2.7-0.6-5.3,0.5-7.8,1.2c-1.7,0-3.2-0.5-4.8-1c-4.1-1.1-8.1-3.8-12.6-0.7c-1.2,0.8-3.2,0-4.8-0.5
		c-1.4,1.8-2.9,3.5-4.2,5.3c-1.3,1.8-2.1,0.8-2.9-0.4c0-0.3,0-0.6,0-0.9c-0.8-6.8,0.1-16,2.1-20.1c0.9-2.8,3.9-5.9-1-8
		C39.1,91.3,41,89.7,46,91.3L46,91.3z"/>
	<path class="st96" d="M89,114.1c3.6,1,7,2.3,10.2,4.3c1.2,0.7,2.1,2.5,3.9,1.2c1.2-0.9,1.7-2.1,1.7-3.8c0-4.1,4-3.3,6.3-4.3
		c2.4-1,4.8-1.3,7-3.2c2.2-1.9,5-1.7,6.1,1.9c-1.8,1.1-3.7,1.1-5.7,1.1c-3.2,0-5.7,0.8-5,4.8c0.4,2.1-0.9,2.1-2.3,2.2
		c-1.2,0-2.3,0-3.5,0.1c-1,0.1-2,0.5-2.3,1.5c-0.3,1,0.2,2,1,2.6c1,0.9,2,0.2,2.6-0.4c1.6-1.8,3.2-2.2,5.1-0.8
		c0.2,2.7-0.3,4.7-3.7,5.1c-3.7,0.4-6.4,4.6-10.9,3.1c-1.6-0.5-1.3,3.1-3.5,2.8c-2-2-3.9-4-5.9-6.1c-0.9-1.2-2.3-2.2-2.1-4
		c0.2-1.7,1.5-3.3,0-5C87.5,115.9,86.7,114.5,89,114.1z"/>
	<path class="st97" d="M67.9,121.3c2.7-0.3,5.4-1.4,8.1,0c3.4,0.4,3.8,1.3,4.1,5.4c0.3,4.6-0.8,6.7-3.5,9.7
		c-1.8,2.1-2.7,2.2-4.6,0.9c0.7-1.3,0.8-2.8,1.7-4.1c2-2.6,0.4-3.8-1.9-4.7c-0.7-0.2-1.4-0.2-2.1-0.2c-2.1-0.5-4.2-1.4-4.7-3.6
		C64.5,122.7,66.7,122.2,67.9,121.3z"/>
	<path class="st98" d="M71.9,127.3c4.4,1.1,5.1,3.2,2.6,6.6c-0.8,1.1-0.9,2.8-2.5,3.4c-0.3-0.7-0.7-1.4-1-2c1.2-2-0.5-4,0.1-5.9
		C70.9,128.5,71.4,127.8,71.9,127.3z"/>
	<path class="st99" d="M83.8,139.9c-1.2-0.4-2.3-1.1-2.2-2.6c0.2-2.2,1.4-3.7,3.7-3.9c1.4-0.1,3,0.3,3.3,2.1
		C88.8,136.6,85.2,139.9,83.8,139.9z"/>
	<path class="st95" d="M88,122.2c1.3,1,2,2.3,2.1,4c-2.2-1.5-6.3-0.6-6.1-4.9C85.3,121.6,86.7,121.9,88,122.2z"/>
	<path class="st100" d="M65,136.2c1.7,1,2.8,2.3,2.5,4.4c0,0.2-0.9,0.6-1.2,0.4C64,140,65.5,137.8,65,136.2
		C65,136.2,65,136.2,65,136.2z"/>
	<path class="st32" d="M173,126.3c0.6,3.9,2.8,8.4-3.7,9.6c-0.5,0.1-1.3,1.5-1.1,2c1.5,4.6-3.1,6.1-4.7,9.1
		c-1.2,2.2-3.4,1.2-5.3,0.4c-6.1-2.5-12.6-3.3-19.1-4.1c0.6-4.8,0.6-4.8-6.2-6.2c-1.7-0.8-2.7-2-2.8-3.9c-0.4-0.6-1.3-1.4-1.1-1.9
		c0.2-0.8,1.2-1.1,2.1-0.8c1.4,0.4,2.8,0.9,4.2,1.4c3.4,1,7.1,0.8,9.2-1.8c3.8-4.8,8-7.4,14.3-5.8c1.4,0.4,2.9,0,4.4,0
		C168.2,121.7,171.1,122.2,173,126.3z"/>
	<path class="st101" d="M173,126.3c-2.7-3.8-6.7-1.3-10-2c-2.4-1.6-2.4-3.7-1-6c2-1.9,4-0.7,6,0c4.4-2.7,7,1,10,3
		c0.4,0.9,0.7,1.8,1.1,2.6c0.7,1.5,2.8,3.1,0.7,4.6c-2,1.5-4.3,1.3-5.8-1.2C173.8,126.9,173.3,126.6,173,126.3z"/>
	<path class="st102" d="M130,133.2c1,1,2,2.1,3,3.1c2.1,1.5,3.9,3.2,4,6c-2.6,3.5-2.1,6.9-0.1,10.7c0.9,1.8,0.8,4.2,1.2,6.3
		c-1.3-1.5-2.8-2.9-3-5c-0.7-1-1.3-2-2-3c-4.4-2.9-2.8-8.1-4.6-11.9c1-2.4,0.3-3.7-2.5-3.4c-1.7,0.2-3.5,0.9-4.9-0.7
		C123.6,133.1,126.8,133.2,130,133.2z"/>
	<path class="st103" d="M121,135.2c2,0.3,3.8-0.6,5.8-0.9c1.5-0.2,3.1-0.2,3.9,1.4c0.8,1.7-0.1,2.8-1.6,3.5c-5.3-1.4-9.8,2.4-15,2
		c0-0.3,0-0.6,0-1C116.3,138.6,118.6,136.9,121,135.2z"/>
	<path class="st32" d="M168,118.2c-2,1.6-4-0.7-6,0c-1.7-0.2-3.9,0.6-4.6-1.9c-0.3-1.1,0.7-2,1.7-2c2.5-0.1,5.1-2.7,7.3,0.2
		C167.3,115.6,167.5,117,168,118.2z"/>
	<path class="st104" d="M125,93.3c-3-2.4-5.5-7.1-9.5-0.8c-1.1,1.7-3.8,0.8-5.9-0.2c-3.8-1.9-7.7,0.3-7.3,4.4
		c0.4,3.2-1.5,3.6-3.3,4.5c-2.2,1.1-4.4,1.8-5.9-1c1.4-0.1,2.9-0.7,3.2-1.9c0.9-4.2,4.4-6.2,6.8-9.2c-0.4-1.5,0.6-2,1.7-2.5
		c1.9-0.2,3.5,1.7,5.5,0.7c0.4-0.1,0.8-0.2,1.3-0.3c2.7-0.2,5.2-1.4,7.9-1c0.2,0,0.4,0.1,0.7,0.1c8.2-0.1,8.2-0.1,11.3-8.4
		c1.3-3.5,4.1-3.3,6.5-2c5.4,2.9,11.2,5.4,14.2,11.4c-0.2,2.9,4.2,1.2,4,4c0.4,2.1-1.2,2.6-2.7,3.1c-3.7-0.5-6.9,2.1-10.6,1.9
		c-0.2,0-0.5,0-0.7,0c-0.3,0-0.7-0.1-1-0.1c-1.6-2.1,0-3.2,1.2-4.6c0.9-1,2.8-1.8,2-3.5c-0.6-1.4-2.4-0.6-3.6-0.8
		c-0.5-0.1-1-0.2-1.4-0.4c-2-2.1-3.7-3-4.3,1c0,0.9-0.1,1.8-0.8,2.5C130.8,90.2,127,88.8,125,93.3z"/>
	<path class="st105" d="M134,90.3c0-1,0-2,0.1-3.1c1.5-1.2,3-2.4,5-1c0.2,0,0.3,0,0.5,0c2.2,0.6,5.2-2.4,6.5,0.9
		c1.2,3-1.9,4.5-3.8,6c-1.1,0.9-1.2,1.9-1.2,3c-2.6,0.7-2.5,3-1.6,4.3c2.9,4,0.6,5.9-2.4,7.8c-4.6-2.7-7.9-6.6-10.9-10.9
		c-0.9-1.3-0.5-2-0.1-3.1C129.1,93.8,132.2,93.4,134,90.3z"/>
	<path class="st106" d="M153,93.3c1.4,0,2.4-0.8,3-2c3,2.8,2.6,7.3-0.9,10.2c-1.6,1.3-3.4,2.5-5.1,3.7c-0.2,1.6-0.8,2.9-2.7,2.8
		c-1.6-0.1-1.9-1.4-2.4-2.7c-1.3-2.9-0.2-6.6-2.9-9.1c0,0,0,0,0,0C145.8,95.6,149.1,93.5,153,93.3z"/>
	<path class="st59" d="M137,142.3c-1.7-1.8-3-3.8-4-6c1.6,0.1,3.3,0,4.8,0.5c4.3,1.4,4.6,3.4,1.2,6.5
		C138.3,142.9,137.7,142.6,137,142.3z"/>
	<path class="st107" d="M122,42.2c-5.8,0.1-10.7,3.4-16,5.1c-1.4,0.4-2.9,1.4-4.3,0.6c-3.5-2.1-7.4-1.8-11.2-1.7
		c-3.4,0.1-4-1.4-2.9-4.4c1.4-3.5,3.5-6.3,6.3-8.7c1.7,0,3.3,0,5,0c4.2-0.4,7.8,2.7,12,2c4.4,0.7,9.2-0.4,13,3c0.7,1.2,1.9,1,3,1
		C125.5,40.5,124.1,42,122,42.2z"/>
	<path class="st108" d="M117,49.2c3.3,1.3,8.4,1,7,7c-2.5,0.7-1.5,4.6-4.4,5c-1.8,0.2-4.9,3-4.1-2.1c0-0.2-1-0.6-1.6-0.9
		c-1.1-2.1,2.6-5.1-1.1-6.8c-0.2-0.4-0.2-0.8,0.1-1.2c0,0,0-0.1,0-0.1C114.3,49.8,115.7,49.5,117,49.2z"/>
	<path class="st109" d="M105,87.2c-0.7,0.7-1.3,1.3-2,2c-3.1,0.8-5.9,1.6-7.5,4.9c-1.5,3.1-4.4,1-6.7,1.1c-2.3,0.1-2.8-1.9-2.8-3.8
		c-3.3-1.6-6.9-2.7-9.9-5c-1.7-0.3-3.3-0.7-5-1c-1.8-2.7,0-4.3,1.9-5.6c2-1.4,2.9,0.4,3.8,1.8c1.4,2.1,3.4,1.7,5.3,1.1
		c3.3-1.1,1.5-3.9,1.9-5.9c0.1-1,0.4-1.9,1.4-2.4c0.2,0.1,0.5,0.1,0.7,0.2c2.3,3.7,3.6,0.3,5.3-0.6c1.4-0.7,2.8-2,4.5-0.9
		c1.4,0.9,1.7,2.6,1.7,3.9c0.1,2.1-2,2.2-3.5,2.5c-1.6-0.9-3.3-1.8-5,0.8c2,0.2,3.4-1.9,5-0.8c0.3,1.2-1.6,3.2,0,3.5
		c3.2,0.6,5,4.5,7.7,3.8c2.8-0.7,1-3.9,0.6-6c-0.2-1-0.5-2.5,0.4-2.7c2.4-0.4,4.5,1,6.4,2.2c1.2,0.7-0.1,1.6-0.9,2.2
		C103.8,81.9,106.8,86.1,105,87.2z"/>
	<path class="st73" d="M111,88.2c-0.3,0-0.6,0.1-1,0.1c-2.1,1-3-0.4-3.6-1.9c-0.5-1.4-0.5-2.9,1.6-3.1c1.8,1.8,2.5-0.3,3.5-1
		c1.5-1,1.6-3.3,3.5-4c1.5,1.5,2.8,3.4,5.9,3.3c-2.7-0.4-4.2-2-5.8-3.3c1.3-3.5-2.2-4-3.5-3.7c-4.3,1.2-6.1-1.9-5.9-4.4
		c0.3-3.5,5.7-2.7,6.5-2.1c3.9,2.9,7.7,1.8,11.7,1.4c0.3,0,0.7,0.6,1.1,0.9c-3.2,1-6,2.2-1.3,5.2c2.6,1.7,4,4,3.3,7.2
		c-0.7,3.4-3.6,2.1-5.7,2.7c-0.4,0.1-0.8,0.6-1.2,0.9c0,0,0,0,0,0c-0.8,0.7-2,0.8-2.7,0.3C114.5,84.7,112.7,86.1,111,88.2z"/>
	<path class="st110" d="M112.9,50.2c0,0.3,0,0.6,0,1c-3.1,2.6-7.5,3-10.4,5.9c-1.1,0.6-2.2,1.2-3.4,0.3c-2-0.1-3.4,1.3-5.1,1.9
		c-1.5,2-3.5,3.2-5.7,4.1c-2.2-2.5-2.6-5.2-1.3-8.2c3.6-2.6,7.3-4.5,11.9-2.7c0.6,0.2,1.6,0.4,1.8,0.2
		C104.1,48.3,108.7,50.1,112.9,50.2z"/>
	<path class="st111" d="M89,63.2c-0.5-4,3.4-2.6,5-4c4.3,8.4,4.3,8.5-4.4,13.6c-1.1,0.7-2.4,1-3.7,1.5c0,0,0,0,0,0
		c-0.3-0.3-0.5-0.7-0.6-1.2c0.2-1.9,1.6-3.1,2.9-4.3C90.1,67.1,90.3,65.3,89,63.2z"/>
	<path class="st112" d="M101.9,56.1c3.1-2.9,6.7-4.7,11.1-5c3.5,0,5.4,0.8,2.5,4.4c-0.6,0.8-0.9,1.7-1.4,2.6c-2.5,1.9-5.5-0.5-8,1
		c-0.8-0.4,1.6-2.8-1.3-1.9C103.7,57.6,102.5,57.2,101.9,56.1z"/>
	<path class="st113" d="M101.9,56.1c1,0,2,0.2,3,0.1c3.8-0.3,2.1,1.5,1.2,3c-2.6,0.4-6,3.6-6.9-1.9C100,56.9,100.9,56.5,101.9,56.1z
		"/>
	<path class="st114" d="M108,83.2c-1.8,2.7-1.1,4.3,2,5c-2.3,2.3-3.4-0.6-5.1-1.1c-0.3-1.2-0.7-2.5-0.9-3.7
		c-0.2-1.3,0.7-2.1,1.8-2.6c1.6-0.7,2,0.2,2.2,1.5C108,82.6,108,82.9,108,83.2z"/>
	<path class="st34" d="M125,65.2c1,0.7,4-1.7,3,2c-1,0.4-1.9,1.3-3,0.3C124.1,66.8,124,66,125,65.2z"/>
	<path class="st115" d="M124,38.2c-4.1-1.9-9.3,0.6-13-3c1.9-3.2,6.9-3.8,6.8-8.8c0-1.4,2.5-1.1,3.9-1.2c1,0,2-0.2,3,0
		c2.8,0.6,6.7-1.9,8.1,2.5c1,3-3.4,8.7-7,9.7C125.2,37.6,124.6,38,124,38.2z"/>
	<path class="st116" d="M89,63.2c3.3,0.7,3.7,2.4,1.6,4.8c-1.5,1.8-3.1,3.4-4.6,5.2c-3.6,1.3-4.2-2.3-6-3.8
		c-2.2-1.7-3.5-3.1-4.3,1.1c-0.6,2.6-2,5.3-5.5,5.5c-0.5-0.1-0.9-0.4-1.2-0.7c-4.2-1.5-3.7-6.8-7.2-9.2c-1.7-1.1,0.4-3.3,1.5-4.6
		c2.5-2.9,5-5.8,6.7-9.2c3.7,0.6,7.1-1.1,10.7-1.1c2.8,0,2.5-2.6,3.1-4.3c0.6-1.8-0.6-4,1.1-5.6c-0.6,3.2,1.1,6.4-0.5,9.7
		c-0.7,1.6,0.7,3.4,2.5,4.3C88.2,57.8,87.3,60.8,89,63.2z"/>
	<path class="st117" d="M69,75.2c0.3,0,0.7,0,1,0c3.8,1.4,7.6,3.1,11.7,0.7c1-0.6,2.2-0.7,3.2,0.2c0.6,7.5,0.6,7.5-5.4,8.1
		c-3,0.3-3,0.3-5.1-4.4c-2.3,1.1-3.6,2.7-3.5,5.3c0,0,0,0,0,0c-3.5,0.1-6.5-1.9-10-2c-0.5-4-1.1-6.9,4.8-3.7
		C69.2,81.5,66.8,75.9,69,75.2z"/>
	<path class="st109" d="M61,83.2c4.5-0.9,4.5-0.9,10,2c-3.8,2.6-7.5,6.3-12,0.7c-1.1-1.4-4.8,1.2-5-2.6c-0.3-0.3-0.4-0.5-0.3-0.8
		c0.1-0.2,0.2-0.3,0.3-0.3C56.6,80.6,58.7,82.7,61,83.2z"/>
	<path class="st48" d="M54,82.2c0,0.4-0.1,0.7-0.1,1.1c-0.7-0.4-1.4-0.9-2.2-1.1c-3.9-1.2-4.9-3-1.6-6.1c0.3-0.3,0-1.2-0.1-1.8
		C53.8,75.7,52.1,79.8,54,82.2z"/>
	<path class="st118" d="M41,104.3c0.9,1.4,1,2.7-0.4,3.9c-0.7,0.6-1.6,1.4-0.6,2.5c2.2,2.4,1.5,4.2-0.2,6.9c-1,1.6,1.2,4.6-0.8,6.8
		c-6.4-2.6-8.1-8.5-9.8-14.2c-0.6-2-0.8-4.1-2.1-5.9c0.3-0.7,0.6-1.3,1-2c1,0.3,2,0.7,3,1c0.8,1.3,1.8,2.4,4.1,2.6
		c-0.8-1.1-2-1.6-2.1-2.7C36.2,99.2,38.4,103.2,41,104.3z"/>
	<path class="st119" d="M46,91.2c-3.6-0.2-6.1,0.9-6,5c-3.6-2-7.4-3.9-7-9c0.6-3.6,3.3-5.3,6-7c1-0.7,2-1.3,3-2
		c0.6-0.4,1.3-0.7,1.9-1.1c1.3,0.9,3.2,1.6,2.6,3.6c-0.5,1.7-2.2,0.6-3.2,0.9c-3.7,1-0.3,3.8-1.2,5.6c1.3,1,3.5,0.9,4,3
		C46,90.6,46,90.9,46,91.2z"/>
	<path class="st120" d="M39,80.3c-1.4,2.9-3.9,4.8-6,7c-1.7,0.1-3.2-0.2-4-2c0.3-1,0.6-2,0.9-3c1.1-2.4,3.4-4.8,0.3-7.3
		c-0.5-0.4-0.9-1-0.4-1.7c1-1.2,2.1,0.2,3.2,0c5.3-2.3,6-1.9,6,3.6C39,78,39,79.1,39,80.3z"/>
	<path class="st121" d="M33,103.2c0.3,0.1,0.7,0.2,0.9,0.4c1.1,1,4-0.2,3.7,2.2c-0.3,2.2-2.7,1.3-4.1,1.3c-2.6,0-3.5-1.4-2.5-3.9
		C31.7,103.3,32.3,103.2,33,103.2z"/>
	<path class="st122" d="M67.9,121.3c-2.9,3.3-0.9,4.9,2.1,6.1c-2,2-4.3,2.4-7,1.9c-2.4,0.9-5.7,0.8-5.7,4.8c0,0.8-1.4,1.4-1.8,0.4
		c-1.2-3.1-4.5-3.1-6.6-4.8c-2.9-2.4-1.5-6.3-2.8-9.3C53.5,116.3,60.7,119.1,67.9,121.3z"/>
	<path class="st123" d="M63,129.2c2.3-0.6,4.7-1.2,7-1.9c0.7,0,1.3-0.1,2-0.1c0.2,0.9-0.1,1.5-0.9,2c-1.5,0.9-3.4,0-4.9,1.3
		C65.4,131.2,63.1,131.8,63,129.2z"/>
	<path class="st124" d="M76,86.2c4.3-0.2,7.1,2.5,9.9,5c-1.9-0.8-3.8-0.7-5.5,0.1c-1.2,0.6-2.2,2.5-3.7,1.3c-1.3-1-0.6-2.7-0.4-4.1
		C76.4,87.8,76.1,87,76,86.2z"/>
	<path class="st125" d="M46,90.2c-1.2-1.2-3.9-0.3-4-3c1.6-0.8,0.8-5,3.8-3.2C47.8,85.3,47.6,88.1,46,90.2z"/>
	<path class="st124" d="M114,141.3c2.1-0.9,4.2-1.7,6.3-2.7c3.1-1.4,5.9-1.4,8.7,0.6c3.1,3.4,1.5,8.4,4,12c0.4,5.2-4.1,3.6-6.6,4.7
		c-2.2,1-3.2-0.4-3.6-2.6c-0.3-1.8-1.9-2-3.5-2.1c-1.1-0.1-2.3-0.2-3.4-0.6C111.9,149,111.4,146.4,114,141.3z"/>
	<path class="st126" d="M134,90.3c-1.1,5.1-2.5,5.9-8,4c-0.3-0.3-0.7-0.7-1-1C125.5,87.7,128.5,86.7,134,90.3z"/>
	<path class="st127" d="M89,114.1c-1.2,0.8-1,2-1.1,3.1c-1-1.6-2.8-2-5.1-2.9C85.3,112.5,87,111.1,89,114.1z"/>
	<path class="st128" d="M61.6,105.4c1.2,0.1,2,0.7,2.2,2c0.2,1.3-0.3,2.3-1.7,2.4c-1.4,0.1-1.9-1.1-2-2.3
		C60,106.6,60.2,105.6,61.6,105.4z"/>
	<path class="st129" d="M156.6,129.6c1.5,0,2.4,1,2.2,2.2c-0.3,2.1-1.1,4.3-3.4,4.8c-1.3,0.3-2.3-0.9-2.4-2.5
		C152.8,131.3,155.1,130.7,156.6,129.6z"/>
	<path class="st130" d="M111,88.2c0.9-5.8,1-5.8,5.8-2.7c1,0.7,2.1,0.8,3.2,0.8C117.1,87.5,114.2,88.3,111,88.2z"/>
	<path class="st131" d="M139,86.2c-1.7,0.3-3.3,0.7-5,1c-0.5-3,1.7-3.6,3.7-3.8C139.6,83.3,139.7,84.8,139,86.2z"/>
	<path class="st61" d="M153,93.3c-3.7,0.9-7,3.4-11,3C145.5,94.6,148.9,92.6,153,93.3z"/>
	<path class="st132" d="M85,76.2c-1.7,0.6-3.5,1-5.1,1.8c-2.8,1.5-7.9,0.2-9.9-2.8c3.4-0.8,4.5-3.5,4.9-6.5c0.2-1.2-0.9-2.7,1-3.3
		c1.5-0.5,2.4,0.8,3.4,1.5c2.5,1.8,3.7,5,6.7,6.2c0,0.3,0,0.7,0,1C85.2,74.7,85,75.4,85,76.2z"/>
	<path class="st133" d="M94.8,89.4c-1.1,1.7,0.1,5.1-3.7,4.8c-1.7-0.1-4.2-0.3-3.7-2.2c0.7-2.1,2.4-4.5,5.3-4.8
		C94.1,87.2,94.9,87.9,94.8,89.4z"/>
	<path class="st134" d="M94,79.2c-0.7,0.4-1.4,1-2.2,1.1c-1.6,0.3-1.8,4.2-4.1,1.7c-1.2-1.3,0-3.3,1.1-4.4c1.7-1.7,3.6-1.4,5,0.7
		C93.9,78.5,93.9,78.9,94,79.2C94,79.2,94,79.2,94,79.2z"/>
	<path class="st135" d="M115,78.2c1.8-0.2,3.3,0.5,4.3,1.9c1,1.4,3.3,0.6,4.1,3.1C120,82,115.2,84.5,115,78.2
		C115,78.3,115,78.2,115,78.2z"/>
	<path class="st136" d="M62.1,126.8c-1.1-0.2-1.1-1-1-1.8c0-0.7,0.3-1.4,1.1-1.3c0.9,0.1,1.5,0.6,1.5,1.6
		C63.7,126.2,63,126.7,62.1,126.8z"/>
</g>
</svg>
