<?xml version="1.0" encoding="UTF-8"?>
<svg version="1.1" xmlns="http://www.w3.org/2000/svg" width="392" height="62" >
<path d="M52.502,17.869c-2.845,4.613-7.023,8.579-10.875,12.32c-9.475,9.202-20.219,17.341-30.675,25.404 c-1.174,0.905-5.389,4.848-7.051,3.974c-5.512-2.898,10.165-9.655,11.783-10.368c6.316-2.783,12.247-6.089,18.171-9.631 c14.238-8.512,29.043-17.428,41.472-28.499c0.954-0.849,6.425-5.713,2.95-6.718c-4.046-1.17-10.433,4.837-13.154,6.938 c-7.564,5.842-17.872,14.101-20.379,23.824c-1.189,4.611,0.467,8.289,5.533,7.665c7.064-0.871,13.654-7.467,18.446-12.147 c-0.852-0.143-1.703-0.286-2.554-0.428c-1.616,3.14-4.216,7.499-3.749,11.152c0.151,1.185,2.461,0.326,2.815-0.291 c0.909-1.584,4.362-2.851,5.896-3.97c2.157-1.574,3.586-3.871,5.589-5.546c-0.882-0.062-1.763-0.123-2.645-0.185 c-0.436,2.695-5.49,8.371,0.629,8.2c1.548-0.043,2.314-1.914,0.328-1.858c-1.751,0.049,1.844-5.926,1.959-6.635 c0.222-1.375-2.177-0.576-2.645-0.185c-2.691,2.25-4.459,5.728-8.041,6.892c-1.702,0.553-2.913,1.541-3.804,3.092 c0.938-0.097,1.877-0.194,2.815-0.291c-0.422-3.303,2.112-7.32,3.584-10.181c0.731-1.42-1.996-0.973-2.554-0.428 c-2.47,2.413-14.541,14.638-18.494,10.155c-2.713-3.078,1.497-9.506,3.281-12.042c5.109-7.26,12.412-13.419,19.62-18.497 c1.326-0.934,2.697-1.817,4.123-2.589c0.946-0.513,1.651-1.178,1.532-0.55c-0.348,1.82-3.215,3.76-4.493,4.872 c-6.3,5.481-13.388,10.145-20.323,14.768c-7.504,5.003-15.153,9.801-22.93,14.368c-7.4,4.344-15.332,7.334-22.844,11.426 c-2.414,1.314-5.463,3.157-5.805,6.155c-0.187,1.644,1.249,3.222,2.784,3.476c5.097,0.844,11.152-5.688,14.59-8.443 c9.668-7.752,19.598-15.261,28.42-23.99c3.37-3.334,6.917-6.947,9.425-11.014C56.022,16.79,53.079,16.934,52.502,17.869 L52.502,17.869z"/>
<path d="M81.854,33.275c-1.122,1.354-4.404,4.937-3.681,6.948c0.658,1.833,3.006,1.418,4.366,0.57 c4.141-2.58,7.303-6.981,10.435-10.623c4.049-4.708,9.219-9.305,11.781-15.057c0.929-2.086-0.272-3.293-2.329-3.254 c-3.371,0.064-6.951,2.43-9.392,4.534c-2.413,2.08-3.409,6.557-1.538,9.299c1.553,2.277,3.495,3.312,3.029,6.418 c-0.468,3.117-4.429,8.757-8.154,7.627c-0.641-0.195-2.81,0.365-2.236,1.342c0.457,0.778,3.311,0.802,3.975,0.821 c3.048,0.086,5.806-0.397,8.627-1.545c4.211-1.713,9.928-6.124,11.378-10.652c0.329-1.03-2.45-0.533-2.796,0.161 c-0.646,1.3-0.858,3.036-0.563,4.446c0.188,0.889,1.986,1.315,2.597,1.603c0.829,0.39-0.978,1.25-1.624,2.155 c-2.201,3.082,5.412,5.677,6.921,0.714c0.306-1.007-2.603-0.597-2.896,0.37c-0.574-1.273-0.354-2.118,0.664-2.534 c0.199-0.132,0.705-0.482,0.553-0.807c-1.05-2.235-4.632-2.531-2.956-5.898c-0.932,0.054-1.864,0.107-2.796,0.161 c-0.836,2.613-3.365,4.654-5.366,6.37c-2.33,1.997-4.996,3.307-8.087,3.805c0.629-0.101-4.729,0.057-4.937-0.296 c-0.746,0.447-1.491,0.895-2.236,1.342c3.908,1.186,7.839-1.686,10.273-4.439c1.878-2.124,3.253-5.447,2.44-8.24 c-0.306-1.049-1.363-1.942-2.078-2.694c-1.626-1.71-1.865-3.758-1.569-6.014c0.38-2.892,3.477-4.531,5.779-5.69 c3.229-1.625,2.783,0.723,1.694,2.717c-2.396,4.389-6.432,8.047-9.666,11.806c-3.092,3.593-6.079,7.384-9.673,10.495 c-0.989,0.856,0.774-3.232,1.129-3.764c0.497-0.745,1.056-1.458,1.627-2.147C85.36,32.346,82.443,32.565,81.854,33.275 L81.854,33.275z"/>
<path d="M116.436,34.208c-0.618,1.351-3.046,7.194-0.084,7.679c2.324,0.381,4.408-1.1,6.147-2.456 c1.354-1.057,15.543-16.043,12.735-16.821c-1.979-0.548-3.5,1.174-4.394,2.641c-0.94,1.542-1.311,3.366-0.977,5.125 c0.409,2.152,3.175,2.982,3.554,5.479c0.866,5.694-11.049,13.484-14.895,16.287c-1.305,0.951-9.041,5.882-7.13,1.175 c0.73-1.798,3.031-3.256,4.594-4.272c1.241-0.807-1.683-0.519-2.238-0.157c-2.141,1.392-4.502,3.14-5.487,5.568 c-0.997,2.455,2.414,2.573,3.815,2.333c3.573-0.612,6.911-3.196,9.743-5.26c4.337-3.161,9.33-6.958,12.437-11.37 c2.517-3.574,2.707-6.449-0.693-9.366c-2.105-1.806-0.469-5.325,0.846-7.082c-1.388,1.854-1.132-0.777-1.864,1.281 c-0.287,0.807-0.828,1.552-1.291,2.263c-2.494,3.832-5.82,7.26-9.131,10.386c-0.796,0.752-1.635,1.456-2.498,2.13 c-1.397,1.09-1.41,1.043-1.734-0.629c-0.32-1.658,0.729-3.925,1.41-5.416C119.553,33.174,116.79,33.436,116.436,34.208 L116.436,34.208z"/>
<path d="M120.318,28.912c-0.156-1.027-0.267-2.061-0.351-3.096c-0.066-0.833-0.104-1.67-0.068-2.506 c0.014-0.301,0.05-0.599,0.097-0.895c0.233-1.454,0.496,0.771-1.615-0.088c0.646,0.263,1.474,0.07,2.051-0.276 c0.356-0.214,0.911-0.845,0.26-1.109c-0.968-0.394-2.187-0.154-2.958,0.55c-0.721,0.656-0.725,1.804-0.745,2.7 c-0.043,1.833,0.156,3.688,0.432,5.498C117.566,30.651,120.479,29.973,120.318,28.912L120.318,28.912z"/>
<path d="M83.378,22.681c0.553,0.261-0.055-0.063-0.185-0.156c-0.354-0.255-0.617-0.608-0.855-0.968 c-0.979-1.482-0.607-3.544-0.089-5.109c0.52-1.568-2.372-1.473-2.762-0.297c-0.988,2.98-1.077,6.885,2.205,8.434 C82.853,25.133,85.038,23.464,83.378,22.681L83.378,22.681z"/>
<path d="M150.419,21.354c0.447,1.181,0.111,2.799-0.019,3.995c-0.748,6.857-3.075,13.639-5.246,20.133 c-0.507,1.515,1.936,1.369,2.588,0.556c7.43-9.264,12.092-20.295,19.396-29.576c0.596-0.758,1.24-1.474,1.893-2.183 c0.405-0.441,0.845-0.845,1.318-1.211c-0.729-0.229-1.04-0.001-0.931,0.684c-0.563,3.836-2.953,7.743-4.475,11.272 c-0.857,1.989-2.876,4.978-2.982,7.238c-0.051,1.073,1.436,1.022,2.099,0.706c0.395-0.188,0.663-0.469,0.855-0.851 c0.732-1.449-2.203-1.407-2.762-0.301c-0.202,0.399-0.134-0.128,0.64-0.497c0.699,0.235,1.399,0.47,2.099,0.706 c0.009-0.183,0.69-1.709,0.923-2.265c1.652-3.949,3.399-7.857,5.063-11.801c0.878-2.082,3.287-8.969-1.689-6.632 c-4.728,2.22-8.315,9.439-10.765,13.717c-3.999,6.986-8.043,13.885-13.096,20.184c0.863,0.185,1.726,0.37,2.588,0.556 c2.186-6.537,4.334-13.18,5.332-20.02c0.219-1.5,0.636-3.687,0.069-5.186C152.833,19.299,149.953,20.12,150.419,21.354 L150.419,21.354z"/>
<path d="M163.675,32.946c-1.155,1.064-9.215,8.715-4.562,9.853c6.134,1.5,9.545-7.312,10.883-11.637 c0.383-1.239-2.562-0.852-2.922,0.276c-0.583,1.828-4.723,14.217,1.068,11.037c2.263-1.242,4.164-3.345,6.095-5.026 c0.525-0.458,1.064-0.896,1.614-1.325c1.326-1.036-0.361-1.115-0.721-0.177c-0.937,2.441-2.585,4.71-3.967,6.906 c-0.833,1.322,2.127,1.112,2.742,0.227c1.271-1.826,2.61-3.603,3.985-5.352c1.014-1.291,2.083-2.533,3.194-3.74 c0.639-0.694,1.321-1.332,2.069-1.908c-0.397,0.307-0.362-0.287-0.794,0.491c-3.152,5.675,2.538,9.356,7.043,11.847 c0.997,0.551,3.602-0.827,2.262-1.568c-4.155-2.297-9.207-5.291-6.369-10.399c0.774-1.394,0.127-2.662-1.599-2.498 c-5.239,0.497-9.835,9.02-12.534,12.901c0.914,0.075,1.828,0.151,2.742,0.227c0.524-0.833,5.704-7.625,4.207-8.949 c-1.431-1.265-3.402,0.277-4.568,1.187c-2.309,1.803-4.332,4.386-6.905,5.799c1.602-0.879,1.114,0.359,1.304-1.661 c0.112-1.196,0.429-2.384,0.706-3.549c0.38-1.598,0.847-3.181,1.347-4.746c-0.975,0.092-1.947,0.184-2.922,0.276 c-0.726,2.348-1.582,4.409-2.836,6.501c-0.621,0.993-1.381,1.861-2.28,2.604c-1.079-0.449-1.265-1.015-0.558-1.698 c1.134-1.956,3.006-3.669,4.661-5.192C167.362,32.457,164.518,32.17,163.675,32.946L163.675,32.946z"/>
<path d="M232.873,23.284c0.624-0.906,6.055-8.681,3.829-9.305c-4.077-1.143-6.332,5.799-7.783,8.277 c-4.314,7.364-10.315,14.144-15.928,20.56c-1.394,1.594-2.879,3.097-4.521,4.433c-2.647,2.155-2.917-1.656-2.682-3.434 c0.309-2.319,1.413-4.68,2.523-6.722c0.37-0.682-2.429-0.425-2.885,0.413c-1.283,2.361-5.049,10.021-1.057,11.781 c3.965,1.748,8.146-3.114,10.464-5.583c5.741-6.12,11.516-13.124,15.991-20.214c1.18-1.87,2.239-3.817,3.337-5.737 c0.319-0.561,0.652-1.114,0.998-1.659c1.05-1.696-0.956-0.013-1.194,0.696c-0.783,2.325-2.379,4.513-3.767,6.526 C229.504,24.324,232.391,23.981,232.873,23.284L232.873,23.284z"/>
<path d="M216.346,27.895c-7.843-4.905,5.295-16.871,9.094-19.371c5.338-3.512,25.77-10.12,24.309,2.604 c-0.659,5.739-4.484,10.896-9.068,14.174c-0.833,0.596-1.741,1.071-2.669,1.499c-0.07,0.032-2.61,0.941-0.514,0.029 c3.391-1.475,6.438-0.061,6.17,3.8c-0.363,5.23-9.969,15.63-15.497,11.25c0.519-0.301,1.036-0.602,1.555-0.903 c1.46,0.254,2.912,0.546,4.356,0.875c1.175,0.255,2.381,0.277,3.574,0.325c2.252,0.09,4.752-0.425,6.852-1.221 c4.142-1.571,10.169-4.067,13.221-7.298c1.672-1.771,1.817-3.36-0.848-3.734c-7.342-1.03-14.176,8.95-11.122,15.317 c2.57,5.362,10.473-0.063,13.521-1.868c4.454-2.637,13.869-7.72,14.847-13.49c0.315-1.86-1.894-2.65-3.324-2.622 c-2.512,0.05-4.999,1.903-6.413,3.864c-2.562,3.551-5.903,15.338,1.572,15.281c7.337-0.055,14.675-8.866,19.146-13.603 c8.42-8.92,16.214-19.226,21.902-30.111c2.391-4.576-2.373-2.365-4.127-0.338c-5.188,5.995-8.337,13.222-12.345,19.977 c-4.734,7.979-10.658,15.752-13.965,24.477c-2.021,5.336,3.117,5.057,5.727,1.789c4.352-5.451,5.575-12.226,1.442-18.087 c-2.925-4.149-8.509-2.465-8.443,2.548c0.079,6.052,6.023,6.783,10.573,5.107c9.777-3.602,16.483-12.201,23.512-19.45 c3.271-3.374,6.575-6.735,10.114-9.83c0.971-0.849,1.964-0.915,1.111-1.726c-0.325-0.309,0.305-0.828-0.099-0.492 c-1.439,1.199-2.747,2.484-3.981,3.899c-10.182,11.673-17.122,26.555-23.853,40.332c-0.663,1.359,2.219,0.985,2.719,0.136 c2.931-4.979,6.022-10.022,9.77-14.432c0.945-1.112,1.817-2.418,0.752-0.214c-0.698,1.445-1.721,2.765-2.62,4.087 c-1.354,1.99-3.252,4.369-3.09,6.913c0.321,5.059,9.96-1.216,11.052-2.064c4.724-3.668,8.891-8.224,12.703-12.818 c-0.845-0.119-1.689-0.238-2.535-0.358c-1.8,2.367-11.329,15.675-3.153,15.413c7.379-0.236,15.792-14.786,9.341-20.104 c-1.915-1.579-4.719-0.397-6.376,0.913c-3.611,2.853-1.271,7.892,1.499,10.238c2.84,2.406,7.514,1.517,10.453-0.172 c1.571-0.903,7.212-4.524,5.587-7.025c-0.291-0.447-1.147-0.299-1.555-0.212c-3.838,0.823-6.313,10.375-5.924,13.5 c0.61,4.911,5.013,0.953,6.548-1.099c1.919-2.565,3.508-5.392,5.175-8.123c0.727-1.19,1.464-2.373,2.247-3.527 c1.369-2.018-0.915-1.807-0.959,0.179c-0.192,8.695,9.278,7.266,15.047,5.277c4.81-1.658,9.834-7.969,2.303-9.78 c-7.776-1.871-12.038,9.037-13.742,14.539c-1.773,5.724,2.379,9.516,7.438,5.469c3.961-3.168,5.199-8.012,8.352-11.788 c0.72-0.861-0.26-0.41-0.268,0.583c-0.006,0.824-0.236,1.665-0.412,2.461c-0.731,3.295-2.21,6.459-3.6,9.507 c-0.629,1.38,2.233,0.999,2.719,0.136c2.654-4.727,5.733-9.511,9.714-13.221c4.135-3.854,0.253,1.932-0.81,3.344 c-1.609,2.139-3.135,4.305-4.109,6.813c-4.131,10.633,19.331,5.331,23.31,4.045c1.709-0.552,1.313-2.159-0.428-1.597 c-5.497,1.776-13.657,4.262-19.019,1.287c-5.19-2.88,5.262-12.102,6.15-15.213c1.21-4.237-6.489-0.062-7.446,0.741 c-4.235,3.551-7.401,8.895-10.081,13.665c0.906,0.045,1.813,0.09,2.719,0.136c1.297-2.846,6.15-11.087,3.918-14.279 c-1.46-2.088-4.441,0.549-5.365,1.802c-2.244,3.041-3.536,6.604-6.01,9.497c-4.979,5.82-4.274-2.385-3.479-4.956 c1.087-3.508,4.64-13.068,10.171-10.848c2.021,0.811,1.507,2.903,0.396,4.209c-2.236,2.627-7.21,3.258-10.416,3.223 c-6.013-0.066-2.018-7.746-5.264-7.909c-2.467-0.125-3.912,3.051-4.984,4.758c-2.313,3.681-4.319,7.833-7.299,11.036 c-0.623,0.447-0.388,0.555,0.708,0.323c-0.276-0.656-0.383-1.345-0.32-2.065c0-1.267,0.396-2.555,0.733-3.761 c0.426-1.523,1.071-2.985,1.743-4.412c0.342-0.725,1.854-2.544,0.973-2.355c-0.518-0.07-1.036-0.141-1.554-0.211 c1.01,1.555-4.713,4.832-5.4,5.155c-4.293,2.016-8.396-1.985-8.356-6.087c0.03-3.057,3.068-3.727,4.016-0.744 c0.954,3.003-0.346,6.802-1.683,9.469c-0.552,1.099-5.232,7.494-6.689,4.721c-0.821-1.56,0.945-4.491,1.579-5.736 c1.268-2.491,2.892-4.855,4.583-7.079c0.821-1.08-1.977-1.032-2.535-0.358c-3.887,4.683-8.138,9.27-12.952,13.008 c-0.832,0.647-4.79,3.857-5.554,1.678c-0.466-1.332,1.278-3.495,1.934-4.532c1.462-2.316,3.623-4.594,4.27-7.321 c0.317-1.341-1.06-1.888-2.137-1.767c-2.072,0.232-3.639,2.185-4.882,3.648c-3.692,4.344-6.726,9.354-9.612,14.258 c0.906,0.045,1.813,0.09,2.719,0.136c5.21-10.665,10.666-21.257,17.136-31.223c2.59-3.989,5.379-8.022,8.856-11.301 c0.512-0.482,2.518-1.611,1.902-2.523c-2.136-3.165-10.923,6.772-11.73,7.568c-3.917,3.855-27.907,32.18-32.824,21.273 c-1.806-4.004,0.811-5.295,3.149-1.978c1.829,2.594,1.85,5.616,1.237,8.587c-0.476,2.31-1.657,4.44-3.001,6.348 c-2.119,3.009-1.266,0.599-0.64-1.302c3.058-9.28,10.117-17.754,15.016-26.124c3.771-6.442,6.692-13.72,12.19-18.982 c-3.036,2.906-0.973-2.028-2.113,0.596c-0.312,0.718-0.715,1.403-1.093,2.088c-1.418,2.573-3.044,5.038-4.638,7.504 c-4.176,6.465-8.905,12.571-13.984,18.348c-3.82,4.344-7.96,8.526-12.62,11.971c-1.582,1.17-3.693,2.741-5.741,2.756 c-2.804,0.021-2.068-6.343-1.92-7.55c0.326-2.661,1.73-5.118,3.614-6.969c2.152-2.115,3.612-0.33,2.326,1.761 c-2.289,3.72-6.841,6.453-10.38,8.812c-2.098,1.397-8.648,6.643-11.142,4.216c-1.734-1.688-1.228-4.862-0.654-6.877 c0.667-2.345,2.607-3.903,4.525-5.188c2.216,0.416,2.355,0.959,0.419,1.629c-0.875,0.485-1.744,0.98-2.607,1.485 c-3.453,1.993-6.772,3.83-10.785,4.386c-3.438,0.476-6.797-1.04-10.219-1.185c-1.636-0.07-4.722,0.548-4.77,2.663 c-0.049,2.199,3.614,2.61,5.083,2.697c3.564,0.211,7.576-2.036,10.171-4.268c4.033-3.469,11.234-14.373,1.803-15.694 c-2.373-0.333-5.02,0.536-7.074,1.648c-1.029,0.557-2.2,2.418-0.285,2.723c6.976,1.109,13.82-7.291,16.398-12.654 c3.983-8.288,0.359-14.062-8.51-14.418c-9.733-0.392-19.655,4.796-26.032,11.854c-3.217,3.559-8.357,11.937-2.4,15.663 C214.936,29.92,217.588,28.672,216.346,27.895L216.346,27.895z"/>
</svg>