<?xml version="1.0" encoding="utf-8"?>
<!-- Generator: Adobe Illustrator 14.0.0, SVG Export Plug-In . SVG Version: 6.00 Build 43363)  -->
<!DOCTYPE svg PUBLIC "-//W3C//DTD SVG 1.1//EN" "http://www.w3.org/Graphics/SVG/1.1/DTD/svg11.dtd">
<svg version="1.1" id="Ebene_1" xmlns="http://www.w3.org/2000/svg" xmlns:xlink="http://www.w3.org/1999/xlink" x="0px" y="0px"
	 width="594.647px" height="793.429px" viewBox="-0.768 -327.082 594.647 793.429"
	 enable-background="new -0.768 -327.082 594.647 793.429" xml:space="preserve">
<path d="M120.654-262.176c6.867-1.561,8.89,20.307,7.997,33.295c-0.144,6.318-20.874-42.972-60.427-13.291
	c-18.585-11.202-0.981-31.189,18.227-30.753c15.335-0.618,21.212,11.725,28.319,14.118
	C116.402-258.268,118.098-261.426,120.654-262.176"/>
<path d="M120.567-262.178c-2.536,0.755-4.262,3.909-5.884,3.37c-7.014-2.391-12.966-14.736-28.316-14.118
	c-19.202-0.436-36.833,19.546-18.26,30.752c39.679-29.673,60.291,19.614,60.435,13.291
	C129.414-241.877,127.521-263.737,120.567-262.178"/>
<path fill="#1A171B" d="M534.843-231.367c19.112-10.366,2.368-31.194-16.918-31.631c-15.333-1.313-21.839,10.807-29,12.887
	c-1.653,0.453-3.24-2.814-5.743-3.646c-6.878-1.914-9.789,19.917-9.519,32.976C473.52-214.454,496.433-262.892,534.843-231.367
	 M218.678-145.722c17.313-2.438,24.33-11.801,23.588-17.294c-0.81-6.102-12.477-11.883-28.932-8.865
	c-15.842,2.91-24.058,13.081-22.771,17.875C192.13-148.151,199.836-143.076,218.678-145.722 M380.252-142.055
	c18.689,3.497,26.621-1.223,28.452-6.995c1.491-4.731-6.247-15.269-21.937-18.89c-16.304-3.76-28.215,1.484-29.303,7.544
	C356.477-154.942,363.067-145.276,380.252-142.055 M108.768-236.648c-12.974-8.274-27.614-5.596-29.109,8.011l-0.075,3.292
	c0.155,2.429,0.691,5.176,1.574,8.112c10.884,19.697,46.003,18.509,44.913,36.849c-1.712,28.345,9.717,50.608,24.22,64.384
	c4.028,3.811-1.613,10.791,10.664,6.453c42.336-14.945,90.429-20.713,138.174-19.63c47.742,1.083,95.542,9.028,137.133,25.877
	c12.051,4.889,6.752-2.338,10.939-5.963c15.119-13.104,27.555-34.826,27.111-63.22c-0.239-18.37,34.782-15.591,46.563-34.772
	c1.031-2.893,1.668-5.613,1.931-8.033l0.075-3.292c-0.898-13.661-15.386-17-28.709-9.323c-13.914,8.16-5.59,37.413-35.857,40.622
	c-10.521,1.105-57.026-0.698-55.192-16.137c1.324-9.927,16.948-1.988,26.905-15.975c22.55-31.684-22.95-65.142-43.411-20.508
	c-6.812,19.601,11.643,25.411,7.917,31.943c-6.621,11.683-26.468,10.129-39.823,8.714c-13.63-1.457-40.801-1.535-44.859-17.655
	c27.12-2.315,49.694-14.451,50.658-39.929c-0.888-25.128-15.208-24.107-22.56-27.173c-4.24-0.888-6.52-4.25-4.652-9.164
	c7.878-20.366-21.108-34.54-29.683-33.854c-8.549-1.08-38.134,11.771-31.201,32.473c1.646,4.993-0.785,8.249-5.062,8.943
	c-7.48,2.73-21.734,1.054-23.782,26.122c-0.19,25.495,21.822,38.643,48.795,42.186c-4.779,15.919-31.923,14.771-45.592,15.603
	c-13.418,0.808-33.323,1.465-39.397-10.512c-3.428-6.694,15.269-11.662,9.363-31.551c-18.416-45.51-65.396-14.157-44.298,18.518
	c9.308,14.424,25.276,7.202,26.155,17.179c1.125,15.506-45.418,15.198-55.877,13.617
	C112.644-199.025,122.294-227.872,108.768-236.648 M277.849-281.278c0.156-1.658,0.709-4.856,1.021-6.205
	c2.675-10.065,12.606-15.383,24.211-15.511c11.566,0.654,21.253,6.417,23.456,16.592c0.25,1.355,0.668,4.582,0.746,6.245
	c41.771,28.591,2.774,62.049-23.601,57.374l0.306-4.759c38.578-18.687,14.163-49.24-1.502-49.279
	c-15.674-0.673-41.429,28.737-3.751,49.159l0.074,4.768C272.268-219.419,234.806-254.62,277.849-281.278 M300.476-188.213
	c25.085,0.473,154.95,3.895,154.998,43.682c-8.593-1.393-23.101-0.965-24.167,1.107c-1.087,2.185,7.944,13.623,13.824,17.864
	c-7.133,5.123-16.577,6.351-24.018,3.542c-40.263-9.875-80.926-15.273-121.767-16.2c-40.85-0.927-81.736,2.621-122.382,10.659
	c-7.559,2.469-16.941,0.808-23.848-4.627c6.086-3.975,15.606-14.992,14.625-17.219c-0.954-2.118-15.428-3.203-24.094-2.202
	C145.482-191.353,275.367-188.88,300.476-188.213 M68.304-241.954c0,0,0.018-0.027,0.042-0.038c0.016,0.011,0.016,0.039,0.038,0.04
	c9.922-7.415,18.628-9.924,26.147-9.577c20.92,0.982,32.464,23.803,34.175,23.491c0.173,0.031,0.308-0.134,0.318-0.559
	c0.833-12.639-1.035-33.662-7.413-33.457c-0.227-0.005-0.454,0.031-0.704,0.081c-2.36,0.664-4.015,3.423-5.54,3.411
	c-0.092-0.002-0.198-0.015-0.266-0.033c-6.932-2.34-12.66-14.064-27.005-14.215c-0.496-0.011-0.987,0.005-1.49,0.023
	C67.358-273.217,49.676-253.17,68.304-241.954 M507.458,237.419c50.357-1.675,59.562-42.243,66.563-80.832
	c1.984-10.848,13.343-43.296,19.859-47.122c-21.803,3.194-36.394,29.238-37.025,35.635c-0.961-4.583-23.903-14.646-28.162-6.968
	c44.204,21.07,31.314,91.05-14.613,89.312c11.33-35.077-5.49-73.702-51.826-108.522c-8.029-6.026-16.947-11.874-26.656-17.541
	c-4.419-2.531-9.033-5.177-13.85-7.626c0.23,7.119-1.413,15.557-3.942,24.158c-1.274,4.355-2.736,8.706-4.294,12.931
	c-5.162,13.524-11.378,25.747-15.105,31.691c-0.138,1.263-4.815-3.023-10.224-8.791c-2.467-2.683-5.037-5.668-7.413-8.434
	c-4.266-5.063-7.743-9.913-8.57-12.368c1.821-2.412,4.959-8.176,9.213-15.952c2.332-4.237,4.975-9.133,7.925-14.128
	c6.986-12.195,15.671-26.223,25.683-38.451c1.316-1.62,2.724-3.34,4.113-4.969c5.589-6.299,11.563-11.994,17.791-16.521
	c8.606-6.231,17.752-10.199,27.288-10.288c1.469,0.033,3.022,0.069,4.563,0.308c2.431,9.398,1.191,20.953-5.172,26.536
	c-1.086,0.944-2.252,1.804-3.75,2.357c-0.093-0.002-3.791-5.053-6.973-6.188c-7.032-2.3-12.387-2.229-16.231-0.578
	c-10.316,4.264-9.875,19.057-0.59,25.986c5.734,4.307,14.973,5.5,27.076-0.938c0.493-0.276,0.989-0.56,1.488-0.838
	c12.629-7.216,18.549-24.412,16.598-44.987c20.221,0.459,50.561,15.754,58.656,34.62c18.447,41.387-28.357,62.723-29.118,48.596
	c21.047-18.022-12.777-45.369-26.471-21.648c-9.008,23.946,8.81,40.511,31.662,37.52c25.974-3.4,52.8-28.479,25.66-76.107
	c0.04-1.746-1.001-2.842,0.198-3.888c7.833,6.697,31.691-2.973,31.235-25.188c-2.281,2.1-13.602,2.9-16.948,0.597
	c-19.314-6.756-32.369-2.682-45.456,0.139c-10.273,1.422-24.552-3.675-31.243-4.699c-2.493-9.503-8.032-18.575-14.392-26.224
	c-9.757-11.89-21.243-20.519-25.962-22.485c13.13,4.778,20.447,0.182,26.604-5.819c5.292-5.137,9.613-11.276,15.971-13.748
	c-1.617-0.925-7.586-3.671-15.536-5.416c-7.747-1.522-17.485-2.061-27.089,1.413c-6.083,2.315-12.196,6.166-17.696,12.352
	c-0.119,0.201-0.188,0.302-0.319,0.484c-1.049-0.024-2.313-0.147-3.688-0.178c-5.726-0.323-14.468-1.007-24.785-1.047
	c-2.421-0.055-4.966-0.02-7.608,0.125c-14.594,0.45-31.09,2.702-45.732,9.174c-1.078-0.896-0.752-2.346,2.953-6.343
	c5.775-6.215,5.802-28.877,2.584-32.647c-4.021,1.175-7.348,2.554-10.209,4.15c-2.777,1.49-5.04,3.18-6.939,4.991
	c-1.487,1.337-2.695,2.769-3.689,4.294c-4.138,5.748-5.728,12.316-7.636,18.824c-1.478,4.809-3.233,9.534-6.432,13.766
	c-2.881,2.743-8.521,6.412-13.868,6.117c-0.2,0.081-0.389,0.077-0.485-0.011c-2.151-0.049-4.366-0.604-6.386-1.417
	c-3.202-1.265-6.156-3.175-7.777-4.873c-4.425-6.506-1.856-16.871-7.261-27.204c-2.525-4.724-6.613-9.41-13.795-13.833
	c-1.165-0.722-2.327-1.331-3.676-2.045c-1.722-0.903-3.656-1.835-5.777-2.741c-4.452,3.29-5.565,26.622,3.399,34.602
	c0.686,0.614,1.155,1.1,1.619,1.601c2.284,2.682,1.659,4.312,0.764,5.096c-0.293-0.224-0.569-0.327-0.868-0.521
	c-7.988-3.887-16.775-6.608-25.587-8.464c-4.078-0.865-8.052-1.543-11.942-2.123c-4.945-0.688-9.695-1.103-14.259-1.499
	c-8.468-0.59-16.142-0.764-21.982-0.783c-2.821,0.033-5.161,0.087-7.101,0.043l-2.243-0.051
	c-11.902-10.589-25.271-13.626-35.979-13.572c-14.211-0.032-23.871,5.49-19.907,5.974c8.017,3.488,12.181,12.527,19.36,18.137
	c4.684,3.707,10.695,5.763,19.992,3.669c0.916-0.483,1.528-0.638,1.722-0.435c-0.59,0.145-1.166,0.302-1.722,0.435
	c-3.612,1.823-12.101,8.536-20.471,17.448c-8.474,8.866-16.812,19.962-20.075,30.494c-7.088-0.161-18.751,3.167-28.387,3.928
	c-13.079-3.401-25.827-8.09-45.512-2.187c-3.354,2.156-14.62,0.822-16.797-1.366C23.308,46.481,46.61,57.222,54.837,50.902
	c1.038,1.094-0.048,2.118-0.088,3.888c-29.173,46.238-3.512,72.625,22.181,77.198c22.686,4.014,41.333-11.723,33.344-36.047
	c-12.514-24.315-47.634,1.345-27.428,20.4c-1.296,14.086-47.091-9.335-26.901-49.844c9.086-18.503,36.52-35.404,56.767-34.945
	c-2.91,20.385,5.554,37.993,17.737,45.672c1.063,0.705,2.112,1.3,3.179,1.816c35.087,19.105,48.984-27.589,15.296-26.599
	c-4.777,0.476-14.051,5.916-12.922,7.576c-0.668-0.302-1.355-0.715-1.914-1.219c-7.089-5.321-10.208-18.026-8.037-28.107
	c2.92-0.221,5.845-0.058,8.666,0.4c13.859,2.263,26.69,12.081,37.979,24.798c2.37,2.68,4.633,5.551,6.908,8.434
	c8.139,10.606,15.267,22.243,21.257,32.891c5.691,10.147,10.262,19.406,13.702,25.907c1.965,3.831,3.471,6.679,4.59,8.191
	c-0.506,1.147-2.42,3.537-4.923,6.489c-4.196,4.881-10.073,11.45-14.664,16.506c-3.606,4.004-6.393,7.069-6.9,7.737
	c-4.564-4.866-10.33-16.695-14.596-30.122c-3.997-12.736-6.789-26.827-6.066-37.51c-0.085-0.002-0.087,0.091-0.188,0.089
	c-14.868,6.964-27.874,14.344-39.043,22.086c-48.04,32.972-64.292,71.44-57.156,107.721c-45.912-0.473-54.979-68.994-9.771-88.124
	c-4.003-7.78-31.485,2.202-32.66,6.744c-0.347-6.415-12.37-30.148-33.951-34.341c6.322,4.133,13.967,23.209,15.453,34.238
	c5.17,38.745,11.751,83.749,67.313,92.316c8.806,11.01,15.523,24.011,43.396,35.066c-3.716,5.356-8.604,27.317-8.768,34.518
	c-30.773-7.508-56.389-32.308-49.325-60.966c-0.513-2.724-16.537,4.41-9.419,20.615c1.85,3.945,2.974,6.002,1.713,5.973
	c-6.983-0.52-13.038-21.604-43.847-10.036c-2.241-0.051,3.331,2.511,6.003,5.187c22.636,23.09,35.308,18.229,50.317,22.18
	c4.804,6.906,36.262,26.782,43.677,26.475c0.855,8.88,0.597,20.273,3.705,28.689c0.203,0.302-27.088-23.869-45.669-11.151
	c3.056,6.496,7.257,10.193,11.215,15.816c6.042,8.617,22.05,10.151,29.805,8.276c2.858-1.964,5.767-1.897,7.872,0.179
	c0.25,1.969,1.921,5.118,4.471,8.979c8.843,13.716,28.302,35.659,33.229,37.143c0.668,0.226-0.346,1.644-1.014,1.628
	c-8.273-0.46-23.85,4.143-27.181,13.977c15.42,6.001,23.337,9.205,32.227,3.949c2.271-1.3,4.646-3.302,7.231-5.866
	c0.8-0.744,1.599-1.722,2.492-2.571c6.457,2.685,12.826,5.247,19.396,7.454c4.637,1.466,9.372,2.841,14.2,3.932
	c3.877,0.96,7.851,1.637,11.944,2.114c8.139,1.065,16.517,1.351,25.292,0.478c0.083,0.379,0.273,0.889,0.441,1.48
	c0.365,1.053,0.747,2.238-0.063,2.81c-0.184,0.101-0.479,0.172-0.791,0.165c-7.113,0.538-16.996,15.686-15.229,27.896
	c0.689,4.797-3.644,6.15-2.483,6.572c2.315,0.832,10.035-0.371,17.822-4.867c1.283-0.762,2.577-1.597,3.781-2.543
	c7.798-5.663,14.632-15.042,14.659-29.252l0.113,0.003c2.886-2.864,9.741-8.917,16.074-13.565c2.257-1.604,4.436-3.003,6.512-4.114
	c2.349-1.205,4.42-1.95,5.764-1.626c2.65-0.533,8.505,3.108,14.44,7.329c2.401,1.717,4.771,3.526,7.092,5.134
	c1.243,0.899,2.4,1.699,3.536,2.505c2.212,1.427,4.022,2.622,5.275,3.047c-0.194,4.283,0.212,8.002,1.223,11.406
	c5.752,20.77,29.796,25.598,34.085,24.326c1.184-0.363-4.035-2.335-2.082-6.771c5.037-12.057-7.028-25.078-14.791-25.915
	c-2.461-0.261-0.514-3.129-0.202-4.476c11.364,1.604,22.954,0.601,34.298-1.771c2.558-0.616,5.101-1.245,7.646-1.854
	c8.61-2.222,16.949-5.17,24.996-8.119c1.383-0.438,2.748-0.999,4.035-1.56c1.473-0.439,2.837-0.997,4.218-1.563
	c4.828,5.867,8.835,9.28,12.987,10.803c7.044,2.808,14.591,0.448,27.142-3.731c0.49-0.211,1.091-0.379,1.574-0.566
	c-0.265-1.253-0.802-2.333-1.483-3.438c-4.973-7.788-17.726-11.881-25.043-11.87c-0.57,0.092-1.502-1.386-0.936-1.566
	c4.017-0.982,17.175-14.691,26.892-27.024c5.825-7.271,10.335-14.092,11.017-17.382c2.164-1.997,5.088-1.931,7.876,0.179
	c7.625,2.212,23.707,1.408,30.12-6.918c4.248-5.543,8.581-9.031,11.96-15.386c-17.25-12.862-46.354,9.459-46.171,9.181
	c3.501-8.295,3.031-17.455,4.188-26.39c7.415,0.755,39.066-21.513,44.184-28.178c15.238-3.286,27.664,2.17,51.225-19.884
	c2.888-2.549,8.578-4.764,6.263-4.816c-30.172-13.031-37.262,7.817-44.179,7.961c-1.258,0.055-0.068-2.043,1.982-5.895
	c7.854-15.804-7.923-23.624-8.59-21.023c5.883,28.951-20.577,54.519-51.675,60.612c0.165-7.282-4.469-31.333-7.92-36.856
	C495.158,260.002,498.132,249.563,507.458,237.419 M412.82,161.497c1.771-4.327,3.222-8.194,4.262-11.476
	c0.327-1.065,0.631-2.032,0.932-2.906c1.058-2.801,0.729-6.098,0.829-2.011c0.117,4.094-0.493,9.335-2.004,15.625
	c-1.072,4.727-2.558,10.063-4.358,15.745c-5.526,16.895-14.466,37.825-26.168,59.863c-2.53,4.784-5.184,9.601-7.935,14.499
	c-7.174,12.494-15.064,25.063-23.613,37.34c-9.048,13.012-18.775,25.638-29.063,37.303c-2.292,2.548-4.697,5.136-6.998,7.617
	c-1.185,1.344-2.492,2.553-3.682,3.906c-2.494,2.457-4.883,4.855-7.37,7.225c-6.762,6.445-13.718,12.35-20.735,17.638
	c-2.188,1.611-4.365,3.206-6.522,4.617c-5.253,3.596-10.558,6.852-15.984,9.575c-4.739,2.408-9.451,4.443-14.247,6.092
	c-0.713,0.266-1.279,0.462-1.987,0.727c-0.878,0.271-1.459,0.472-1.77,0.56c-0.576,0.162-0.574,0.082,0.007-0.31
	c0.312-0.175,0.89-0.46,1.677-0.742c0.686-0.374,1.372-0.73,2.087-1.111c4.604-2.619,9.354-5.737,14.325-9.5
	c5.234-4.065,10.585-8.813,16.084-14.053c2.171-2.064,4.36-4.159,6.565-6.472c6.87-7.032,13.877-14.853,20.86-23.176
	c2.39-2.94,4.908-5.906,7.411-8.979c1.195-1.636,2.511-3.143,3.698-4.663c2.315-3.083,4.728-6.023,7.028-9.197
	c19.16-25.254,37.513-53.254,52.781-78.973c2.742-4.623,5.39-9.231,7.914-13.661C398.189,192.724,407.171,174.8,412.82,161.497
	 M433.058,213.433c8.445,6.238,17.736,11.908,26.7,15.703c5.606,2.38,11.094,4.034,16.049,4.547
	c2.616,0.659,1.053,1.686-1.989,2.013c-3.03,0.315-8.08-0.386-14.17-1.979c-7.937-2.122-17.58-5.854-26.808-10.93
	c-6.166-3.261-11.985-7.092-17.156-11.471c-0.489-0.495-1.044-0.911-1.529-1.408l1.709-6.483l1.055-3.665
	C421.511,204.333,427.033,209.019,433.058,213.433 M370.271,291.045c2.195,1.712,4.595,3.206,7.089,4.637
	c2.406,1.528,4.904,2.835,7.512,4.159c8.26,4.175,17.039,7.587,24.579,10.104c1.364,0.51,2.707,0.918,3.971,1.358
	c4.349,1.445,8.118,2.62,11.024,3.462c5.617,1.001-1.513,1.728-1.896,1.606c-2.151-0.049-5.331-0.427-9.219-1.087
	c-1.269-0.229-2.613-0.544-3.983-0.78c-7.258-1.622-16.057-4.15-24.63-7.858c-2.502-1.12-5.111-2.354-7.522-3.657
	c-3.544-1.836-6.902-3.951-9.978-6.269L370.271,291.045z M317.928,367.242c3.148,2.294,4.989,3.601,6.715,4.903
	c1.712,1.197,3.337,2.501,6.509,4.725c3.741,2.727-1.512,1.718-1.89,1.613c-1.83-0.61-3.18-0.94-4.725-1.672
	c-1.635-0.705-3.646-1.732-6.743-3.668c-1.052-0.594-2.216-1.301-3.543-2.188c-2.016-1.341-4.316-2.838-7.101-4.653
	c-1.246-0.803-2.605-1.714-4.02-2.621l4.17-3.991l0.108-0.191c2.78,2.014,5.059,3.71,6.99,5.125
	C315.714,365.617,316.876,366.438,317.928,367.242 M220.622,384.19c-4.39-0.1-8.347-0.964-11.936-2.406
	c-8.293-3.303-13.903-9.373-13.955-14.723l0.015-0.675c0.175-3.596,2.969-6.951,9.341-8.836c1.675-0.561,3.437-0.81,5.169-0.867
	c4.005-0.196,7.969,0.672,11.942,2.131c9.063,3.317,17.967,9.946,25.46,13.986c0.101,0.127,0.307,0.229,0.385,0.23
	c-0.082,0.177-0.292,0.264-0.401,0.481C238.188,381.486,228.968,384.38,220.622,384.19 M320.604,249.345
	c2.274,2.381,4.489,4.47,6.682,6.373c3.531,3.183,7.251,6.286,11.825,10.683c-2.329,3.446-3.131,5.185-5.429,7.269
	c-2.483-1.922-4.686-3.616-6.687-5.203c-2.482-1.938-4.595-3.692-6.7-5.513c-1.234-1.102-2.385-2.193-3.519-3.279
	c-2.196-2.203-4.483-4.499-7.039-7.366c-1.336-1.421-2.751-3.098-4.353-4.888l4.596-5.819l2.003-2.696
	c1.804,2.483,3.518,4.561,5.123,6.452C318.332,246.852,319.478,248.133,320.604,249.345 M317.892,227.766l3.323-5.37l7.085-11.412
	l24.736-39.849c4.804,3.134,21.309,17.629,26.6,24.542c0.666,0.992,1.129,1.782,1.403,2.377c-0.407,0.686-0.909,1.64-1.522,2.89
	c-6.893,12.385-27.789,49.572-33.765,55.097c-3.906-2.907-11.651-9.146-18.116-15.797c-2.471-2.479-4.769-5.071-6.652-7.637
	C319.763,230.918,318.624,229.335,317.892,227.766 M309.305,271.358c2.279,2.198,4.673,4.414,7.059,6.494
	c1.134,1.088,2.392,2.094,3.522,3.104c1.826,1.499,3.529,2.978,5.159,4.213c-1.403,2.489-3.231,5.458-5.454,8.811
	c-1.193,1.735-2.409,3.541-3.717,5.473c-2.432,3.344-4.928,6.791-7.438,10.243c-7.914,10.428-15.721,19.874-17.896,21.097
	c-0.955-0.991-1.902-1.978-2.849-3.089c-2.103-2.167-4.19-4.543-6.261-6.926c-5.315-6.273-10.811-13.12-15.321-19.636
	c-2.376-3.348-4.534-6.609-6.316-9.679c0.721-0.864,3.199-3.52,6.692-6.854c4.579-4.57,10.733-10.572,16.124-15.782
	c2.371-2.304,4.572-4.474,6.558-6.188c3.074-2.954,5.272-4.96,5.851-5.422C297.885,260.086,303.317,265.588,309.305,271.358
	 M265.724,318.158c5.086,6.828,10.296,13.184,15.348,18.447c0.757,0.789,1.517,1.61,2.376,2.404
	c-1.922,2.782-1.638,2.686-2.513,3.632c-0.308,0.187-0.61,0.477-1.1,0.94c-4.877-3.703-9.722-9.052-14.35-14.901
	c-4.655-5.674-9.177-11.89-13.706-17.752c-1.146-1.58-2.387-3.173-3.617-4.645c-1.238-1.501-2.476-2.975-3.675-4.365l3.843-3.04
	l2.005-1.522c0.554,0.708,1.119,1.507,1.705,2.282C256.559,305.783,261.084,312.107,265.724,318.158 M380.375,162.815
	c2.286,2.172,4.675,4.192,7.453,6.692c1.525,1.395,3.245,2.903,5.036,4.686c-2.4,3.447-2.615,8.304-4.898,10.397
	c-0.178-0.191-0.291-0.307-0.469-0.495c-2.859-2.598-5.256-4.98-7.442-7.171c-6.279-6.296-10.725-11.535-19.183-20.587l5.851-9.012
	C372.294,154.948,376.277,159.13,380.375,162.815 M415.407,47.496c-8.518,11.583-17.15,22.882-25.598,34.747
	c-2.611,3.727-5.336,7.571-7.866,11.49c-3.819,5.677-7.458,11.324-10.987,17.37c-13.479,23.262-27.58,48.139-42.023,72.047
	c-2.324,3.942-4.758,7.764-7.095,11.604c-1.194,2.012-2.521,4.04-3.726,6.068c-1.423,2.178-2.834,4.496-4.339,6.684
	c-1.014,1.639-2.106,3.273-3.13,4.896c-6.563,9.977-13.501,19.86-20.998,29.217c-2.214,2.764-4.416,5.426-6.6,8.017
	c-5.1,6.124-10.501,12.013-16.165,17.552c-4.677,4.467-9.462,8.822-14.402,12.9c-1.203,0.941-2.504,1.99-3.791,3.023
	c-8.22,6.332-17,12.055-26.16,16.822c-3.947,1.966-7.964,3.819-12.117,5.479c-4.701,1.936-9.504,3.487-14.4,4.822
	c-7.158,1.973-14.496,3.378-22.099,4.086c-2.34,0.22-4.679,0.374-7.105,0.428c2.622-0.738,4.894-1.76,7.157-2.686
	c1.183-0.544,2.46-1.006,3.841-1.563c6.357-2.292,12.467-4.77,18.364-7.547c5.021-2.319,9.743-4.732,14.46-7.378
	c4.167-2.324,8.198-4.78,12.156-7.319c9.481-6.197,18.184-12.901,26.236-20.127c1.29-1.141,2.592-2.274,3.802-3.505
	c5.05-4.649,9.823-9.53,14.44-14.568c5.675-6.314,11.169-12.872,16.21-19.577c2.191-2.975,4.4-5.93,6.62-8.909
	c6.135-8.72,11.964-17.532,17.439-26.353c1.216-2.032,2.421-4.06,3.622-5.961c2.535-4.22,5.045-8.542,7.494-12.668
	c1.211-2.222,2.541-4.423,3.738-6.629c2.345-4.133,4.784-8.26,7.106-12.387c11.25-19.597,22.094-38.342,34.717-54.312
	c5.938-8.999,12.068-17.442,18.072-24.787c2.618-3.251,5.215-6.307,7.813-9.166c9.378-10.313,18.118-18.077,25.322-22.585
	c0.308-0.197,0.688-0.473,1.004-0.667C416.109,46.535,415.715,47.018,415.407,47.496 M312.736,120.203
	c2.259,3.073,4.634,6.134,6.994,9.311c1.125,1.485,2.265,3.075,3.487,4.657c1.05,1.386,2.085,2.765,3.105,4.167l-3.319,5.275
	l-3.728,5.952l-7.472,11.7l-19.67,30.99l-1.31-2.386l-6.158-11.419l-15.123-28.282l-4.771-8.656l5.12-6.71l16.26-21.822l6.618-8.806
	l2.396-3.154C301.376,106.224,307.061,112.964,312.736,120.203 M303.677,90.409l6.298-7.158c1.127,1.482,2.378,2.771,3.505,4.166
	c2.378,2.681,4.731,5.253,7.03,7.752c1.129,1.292,2.382,2.49,3.507,3.771c2.274,2.397,4.487,4.578,6.668,6.978
	c3.125,3.567,6.255,7.137,9.381,11.208c-2.319,3.451-2.856,5.778-5.156,7.862c-1.521-1.593-3.129-3.192-4.549-4.783
	c-2.295-2.475-4.469-4.965-6.66-7.531c-1.223-1.399-2.366-2.789-3.495-4.078c-2.295-2.682-4.649-5.448-7.023-8.045
	C310.239,97.19,307.104,93.792,303.677,90.409 M268.96,175.562c4.847,9.066,9.786,18.316,15.151,27.093
	c0.278,0.501,0.648,1.108,0.918,1.605c-0.396,0.567-0.689,1.047-0.992,1.639c-1.935,2.845-3.25,5.34-5.232,7.256
	c-3.573-5.428-7.059-10.684-10.333-15.804c-4.904-7.509-9.503-14.908-13.603-22.396c-1.217-2.266-2.438-4.53-3.568-6.794
	c-1.018-1.974-1.965-3.855-2.869-5.823l3.088-3.823l3.83-4.771l0.785-0.844C260.448,159.994,264.644,167.678,268.96,175.562
	 M250.768,191.707l3.588,5.922l13.602,22.409l2.419,4.017c-0.697,1.263-1.604,2.603-2.604,4.132
	c-3.738,5.171-9.235,11.766-14.514,17.771c-1.303,1.535-2.608,2.964-3.82,4.297c-2.779,2.963-5.275,5.628-7.366,7.619
	c-3.233-3.202-10.935-15.902-17.933-28.725c-4.49-8.093-8.777-16.139-11.494-21.865c-1.477-2.964-2.487-5.203-2.946-6.576
	c0.782-0.678,1.87-1.618,3.16-2.855c3.307-3.14,7.884-7.817,12.271-12.383c5.967-6.279,11.566-12.392,13.182-14.383L250.768,191.707
	z M212.087,231.875c3.851,6.608,7.97,13.522,11.549,19.443c4.685,7.896,8.344,13.998,8.51,15.172
	c-1.203,1.152-6.26,5.41-7.445,6.549c-0.201-0.097-0.762-0.805-1.516-1.889c-2.361-3.564-6.827-11.646-11.523-20.6
	c-4.939-9.247-10.157-19.587-13.677-26.98c-2.694-5.587-4.571-9.534-4.646-10.315l4.965-3.786l1.386-1.139
	C201.525,213.253,206.46,222.33,212.087,231.875 M315.579-5.088c0.109-0.185,0.21-0.296,0.303-0.481
	c2.356-0.912,4.606-1.843,6.982-2.766c1.17-0.437,2.462-0.909,3.624-1.377c2.265-0.818,4.629-1.636,6.882-2.47
	c19.328-6.664,36.411-10.053,51.235-11.088c2.643-0.241,5.187-0.261,7.611-0.33c9.148-0.159,17.405,0.705,24.761,2.218
	c1.365,0.329,2.71,0.649,3.978,0.975c6.494,1.695,12.169,4.062,17.262,6.727c13.858,7.502,22.465,18.303,26.407,28.626
	c1.276,3.34,2.085,6.647,2.416,9.776c-0.884,0.082-1.773,0.15-2.643,0.238c-10.229,0.64-19.115,1.901-27.141,3.675
	c-6.346,1.489-12.132,3.317-17.54,5.523c-1.366,0.653-2.748,1.204-4.042,1.856c-9.232,4.368-17.354,10.118-25.205,17.343
	c-2.58,2.369-5.172,4.94-7.777,7.695c-10.562,11.156-21.388,25.015-34.615,42.033c-0.784-0.018-9.169-8.184-16.957-16.137
	c-2.387-2.3-4.671-4.697-6.672-6.765c-1.33-1.407-2.574-2.594-3.509-3.688c-1.517-1.494-2.576-2.688-3.117-3.364
	c0.792-1.357,1.885-2.885,3.293-4.421c1.097-1.324,2.292-2.67,3.687-4.096c1.989-2.01,4.394-4.171,6.97-6.351
	c13.397-11.586,33.428-24.474,51.702-31.641c2.566-1.016,5.225-1.921,7.663-2.658c4.613-1.426,8.913-2.408,12.914-2.714
	c-1.96-0.438-6.598-1.32-12.795-2.522c-2.329-0.453-4.85-0.984-7.568-1.538c-15.498-3.085-36.133-7.337-50.715-11.848
	c-2.422-0.756-4.744-1.487-6.776-2.212c-1.245-0.52-2.499-0.937-3.56-1.441c-3.646-1.542-6.248-3.059-7.105-4.452
	C314.961-3.645,314.979-4.419,315.579-5.088 M288.59,5.301c2.454-1.024,4.711-1.841,6.477-2.594
	c0.489-0.182,1.078-0.353,1.481-0.554c3.938,1.745,10.987,4.347,18.705,7.149c2.308,0.921,4.732,1.769,7.147,2.582
	c1.148,0.42,2.418,0.941,3.563,1.35c2.31,0.838,4.555,1.574,6.771,2.402c8.206,2.903,15.061,5.311,17.09,6.124
	c-2.061,0.546-9.05,4.096-17.428,8.77c-2.262,1.199-4.554,2.507-6.915,3.929c-1.168,0.65-2.466,1.4-3.639,2.053
	c-2.473,1.492-4.945,3.005-7.306,4.396c-9.172,5.757-17.287,11.303-19.899,14.555c-0.17-0.305-0.469-0.69-0.744-0.983
	c-1.411-1.502-3.633-3.197-6.302-5.11c-4.219-2.819-9.812-6.066-15.555-9.298c-4.629-2.45-9.449-4.899-13.947-7.137
	c-1.258-0.617-2.514-1.232-3.681-1.847c-7.313-3.471-13.173-6.137-15.015-6.659c1.772-0.638,7.729-2.937,15.3-5.902
	c1.191-0.447,2.471-0.893,3.756-1.446c4.503-1.752,9.407-3.68,14.234-5.521C278.465,9.249,284.053,7.041,288.59,5.301
	 M286.939,61.127l-5.297,5.133c-1.694-2.568-5.695-6.351-9.969-10.243c-4.483-4.109-9.459-8.211-12.796-11.298
	c-0.383-0.304-0.76-0.599-1.037-0.89c-0.867-0.809-0.968-0.908,0.013-0.587c0.371,0.202,0.846,0.4,1.531,0.622
	c2.886,1.224,7.604,3.276,12.424,5.917C277.679,52.938,283.795,56.97,286.939,61.127 M134.888,23.219
	c-2.342-0.15-4.669-0.203-7.092-0.258c0.498-4.751,2.964-10.821,7.487-17.144c7.334-10.247,20.128-20.959,39.143-26.466
	c2.256-0.633,4.702-1.256,7.136-1.692c6.655-1.396,13.96-2.108,22.052-2.032c4.472,0.102,9.249,0.419,14.266,1.019
	c3.797,0.457,7.784,1.048,11.947,1.905c8.03,1.652,16.539,3.998,25.614,7.208c1.257,0.426,2.433,0.933,3.691,1.356
	c4.505,1.747,9.142,3.609,13.98,5.761c1.539,0.73,3.173,1.449,4.808,2.154c2.395,1.709,0.106,3.906-4.995,6.119
	c-3.656,1.567-8.552,3.31-14.223,4.931c-1.188,0.358-2.472,0.719-3.747,1.084c-8.013,2.26-17.138,4.479-25.926,6.516
	c-4.202,0.871-8.223,1.746-12.05,2.643c-5.479,1.14-10.358,2.194-14.359,3.094c-4.599,0.958-8.029,1.652-9.688,2.012
	c3.114,0.454,6.309,1.216,9.593,2.16c4.537,1.359,9.255,3.223,14.165,5.487c3.961,1.733,7.899,3.766,11.854,5.999
	c9.021,5.16,17.838,11.303,25.385,17.318c1.244,0.994,2.494,2.096,3.651,3.11c5.802,4.891,10.555,9.77,13.792,14.023
	c1.028,1.494,1.971,2.859,2.723,4.247c-0.503,0.579-1.617,1.617-2.889,3.056c-3.5,3.604-9.076,9.326-14.443,14.646
	c-1.299,1.339-2.599,2.57-3.809,3.826c-5.165,5.028-9.351,8.923-9.821,8.913c-5.486-7.726-10.671-14.946-15.667-21.664
	c-3.979-5.25-7.855-10.213-11.653-14.872c-4.728-5.554-9.295-10.726-13.944-15.199c-6.962-6.794-13.94-12.302-21.625-16.748
	c-2.309-1.308-4.614-2.542-7.015-3.658C162.151,26.954,149.756,24.058,134.888,23.219 M215.025,102.411
	c-3.088-5.332-6.36-11.057-10.131-16.191c-1.221-1.774-2.441-3.554-3.671-5.243c-7.375-10.288-14.636-20.482-21.328-29.885
	c-1.503-2.074-3.031-4.155-4.531-6.228c1.438,0.523,2.996,1.243,4.619,2.348c6.324,3.929,13.849,11.798,21.527,21.113
	c4.62,5.756,9.36,11.977,13.875,18.232c4.064,5.732,8.017,11.457,11.611,16.697c2.423,3.774,4.794,7.324,6.852,10.568
	c0,0-6.302,7.544-6.879,7.531c-0.097-0.202-0.298-0.394-0.375-0.585C222.529,115.833,218.877,109.222,215.025,102.411
	 M199.068,175.91c4.871-5.322,9.776-10.766,14.659-16.289c4.109-4.781,8.202-9.559,12.318-14.428
	c5.986-7.146,11.994-14.324,18.191-21.479c2.789-3.162,5.5-6.304,8.289-9.454c1.302-1.539,2.521-2.951,3.822-4.389
	c4.781-5.435,9.569-10.673,14.472-15.931c5.273-5.722,10.643-11.33,16.145-16.743c2.092-2.201,4.258-4.287,6.56-6.277
	c6.648-6.278,13.51-12.167,20.733-17.542c2.369-1.8,4.854-3.587,7.325-5.283c1.18-0.842,2.374-1.687,3.648-2.441
	c2.281-1.501,4.544-3.007,6.927-4.42c6.705-3.944,13.692-7.572,20.979-10.621c-6.931,4.324-13.957,9.515-21.09,15.484
	c-2.396,1.986-4.67,3.985-6.964,6.063c-1.283,1.152-2.484,2.284-3.67,3.416c-2.49,2.29-4.981,4.589-7.366,7.064
	c-7.065,6.837-14.054,14.277-20.835,22.006c-2.313,2.469-4.488,4.951-6.587,7.452c-5.516,6.4-10.907,12.781-16.205,19.388
	c-5.017,6-9.835,12.126-14.522,18.145c-0.121,0.113-0.213,0.296-0.312,0.391c-1.205,1.521-2.305,2.953-3.521,4.492
	c-8.196,10.324-17.193,20.629-26.474,30.646c-4.095,4.184-8.174,8.376-12.273,12.463c-4.869,4.762-9.75,9.325-14.604,13.677
	c-7.459,6.544-14.998,12.605-22.408,17.898c-2.377,1.698-4.853,3.387-7.209,4.903c-13.64,8.918-26.821,15.044-38.935,17.316
	c-4.693,0.851-9.272,1.125-13.556,0.743c4.717-1.446,9.235-3.085,13.651-4.942c14.339-6.005,27.181-14.071,39.077-23.538
	c2.473-1.892,4.85-3.987,7.233-5.978C184.408,190.866,191.779,183.536,199.068,175.91 M170.776,140.153
	c1.295,3.23,4.063,9.512,6.743,15.621c3.418,7.67,6.769,14.959,7.53,15.856l-5.731,7.452c-0.559-0.706-1.392-2.658-2.202-5.508
	c-2.25-7.636-5.169-21.139-6.432-29.337c-0.437-2.631-0.665-4.78-0.639-5.947C170.211,138.667,170.406,139.264,170.776,140.153
	 M132.557,125.945c11.987-9.843,23.936-17.184,31.822-21.373c-6.086,27.511-2.039,55.541,5.336,82.356
	c0.258,0.892,0.447,1.671,0.712,2.458c-0.285,0.275-0.503,0.587-0.787,0.846c-7.489,7.514-21.216,21.528-39.218,29.774
	c-9.247,4.267-19.544,7.056-30.803,6.801C76.015,185.191,104.389,148.762,132.557,125.945 M128.479,305.611
	c-1.363-4.415-0.845-10.337,0.364-16.062c1.621-7.746,4.532-14.967,5.847-16.909c13.838,2.466,24.742,2.616,33.051,1.241
	c2.617-0.433,4.986-1.046,7.138-1.772c22.069-7.588,17.863-28.694,0.764-33.649c-2.123-0.539-4.555-0.881-7.076-0.938
	c-4.681-0.105-10.057,0.948-15.74,3.33c-8.763,3.793-16.741,11.878-23.303,18.754c-0.313,0.293-0.601,0.556-0.79,0.851
	c-3.999-0.091-21.835-15.576-22.493-21.247c5.598,1.394,14.194,0.807,23.762-0.733c13.086-2.217,27.886-6.441,38.783-10.595
	c2.63-1.014,5.108-2.036,7.167-3.035c3.054-1.419,5.412-2.709,6.883-3.835c2.728,5.413,8.485,17.404,14.536,29.409
	c4.915,9.957,10.061,19.78,13.706,25.705c1.144,1.908,2.182,3.469,2.923,4.462c-0.403,0.467-1.489,1.532-3.089,2.857
	c-3.055,2.435-8.193,6.036-14.508,9.68c-6.316,3.652-13.999,7.478-22.24,10.398c-2.357,0.828-4.711,1.65-7.15,2.257
	c-12.442,3.515-25.801,4.773-38.172,0.897C128.654,306.396,128.556,306.009,128.479,305.611 M138.071,265.144l0.306-1.257
	c9.49-14.982,21.181-19.775,30.039-19.481c2.606,0.059,5.049,0.6,7.067,1.441c7.91,3.301,10.237,11.236-0.364,16.032
	c-1.976,0.84-4.324,1.662-7.152,2.304C161.037,265.576,151.274,266.229,138.071,265.144 M279.557,403.35
	c-5.149,3.591-10.546,6.377-15.958,8.486c-4.726,1.838-9.422,3.188-14.203,4.142c-1.188,0.28-2.469,0.446-3.737,0.61
	c-8.589,1.245-17.339,1.172-25.773-0.188c-4.083-0.683-8.053-1.557-11.933-2.615c-4.821-1.377-9.547-3.117-14.173-5.194
	c-7.707-3.282-14.928-7.533-21.722-12.36c-2.386-1.711-4.695-3.521-6.978-5.335c-23.896-19.715-39.228-47.202-36.257-70.992
	c6.442,3.17,21.013,4.293,37.792,3.39c2.331-0.122,4.68-0.271,7.111-0.521c7.3-0.594,14.724-1.516,22.065-2.794
	c4.883-0.967,9.759-2.026,14.364-3.206c4.216-1.058,8.331-2.325,12.076-3.688c3.726-1.399,7.159-2.983,10.115-4.56
	c3.809,3.995,9.389,10.83,15.358,17.981c1.23,1.472,2.387,2.965,3.624,4.368c4.813,5.749,9.555,11.297,13.758,15.478
	c2.371,2.389,4.446,4.406,6.282,5.602c-1.815,2.585-4.092,4.771-6.565,6.854c-2.789,2.195-5.854,4.234-9.117,6.612
	c-1.767,0.436-3.522,0.315-5.137-0.224c-1.26-0.395-2.517-1.13-3.677-2.033c-0.467-0.309-1.046-0.692-1.537-1.098
	c-8.482-7.602-16.539-11.87-23.903-13.788c-4.255-1.063-8.336-1.443-11.967-1.142c-5.746,0.462-10.656,2.464-14.414,5.415
	c-10.997,8.323-13.392,24.121-0.759,33.462c3.438,2.622,8.163,4.661,14.155,5.972c3.494,0.746,7.475,1.328,11.96,1.431
	c7.288,0.278,15.857-0.402,25.831-2.325c1.184-0.169,2.463-0.436,3.738-0.693c4.486-0.96,9.191-2.12,14.19-3.56
	c1.169-0.398,2.44-0.641,3.722-1.103c0.464,0.502,7.939,5.244,11.829,10.59c1.221,1.786,2.044,3.557,2.196,5.414
	C281.134,402.313,280.343,402.881,279.557,403.35 M286.316,388.326c-2.595-1.63-4.789-3.33-6.31-4.737
	c-1.918-1.803-2.851-3.167-1.982-3.448c0.494-0.169,1.198-0.545,2.083-1.015c1.754-1.051,4.157-2.832,6.518-4.425
	c2.78-2.089,5.541-4.161,7.109-4.917l13.131,8.778l2.108,1.508l-2.181,1.701l-13.291,10.593
	C291.031,391.149,288.524,389.737,286.316,388.326 M456.977,351.705c-5.54,12.803-15.471,24.845-27.855,35.171
	c-5.457,4.437-11.38,8.603-17.693,12.245c-1.291,0.761-2.662,1.602-4.055,2.361c-7.97,4.269-16.43,7.895-25.048,10.512
	c-2.545,0.817-5.096,1.535-7.654,2.183c-17.51,4.175-35.307,4.437-50.962-0.885c-2.331-0.836-4.541-1.766-6.768-2.781
	c-1.243-0.503-2.404-1.116-3.547-1.811c-2.497-1.333-4.813-2.855-7.104-4.465c-0.76-0.614-1.41-1.114-2.191-1.706
	c0.226-1.455,1.036-3.097,2.337-4.718c1.921-2.487,4.687-4.929,7.365-7.014c1.288-1.062,2.565-1.92,3.649-2.737
	c2.084-1.435,3.655-2.37,3.87-2.557c0.97,0.305,1.923,0.612,3,0.847c22.023,6.529,38.76,7.797,50.846,6.014
	c2.736-0.431,5.383-1.04,7.645-1.759c26.672-8.374,22.313-35.134,0.93-40.963c-2.33-0.641-4.849-1.08-7.579-1.143
	c-9.62-0.326-21.384,3.016-34.614,12.338c-3.183,2.172-6.72,4.15-10.494,2.895c-2.099-1.626-4.213-2.829-6.142-3.938
	c-2.601-1.42-5.001-2.753-6.719-4.44c-0.858-0.903-1.601-1.979-2.174-3.161c0.709-0.576,1.505-1.153,2.285-1.707
	c2.085-1.71,4.473-3.78,6.959-6.177c11.647-11.312,26.644-28.976,34.31-36.297c4.782,2.935,10.773,5.513,17.333,7.707
	c2.422,0.81,4.93,1.659,7.551,2.387c7.841,2.227,16.251,3.883,24.69,5.244c1.372,0.125,2.641,0.37,3.988,0.576
	c6.009,0.725,11.845,1.332,17.38,1.555c11.088,0.645,20.723,0.185,27.087-1.338c1.476-0.343,2.754-0.806,3.837-1.274
	C462.769,332.556,460.997,342.35,456.977,351.705 M347.509,368.087c8.554-4.664,18.319-10.189,28.447-10.541
	c2.338-0.122,4.684,0.106,7.093,0.654c0.187,0.097,0.302,0.1,0.493,0.184c15.676,3.996,11.912,14.703-0.462,20.355
	c-2.264,1.011-4.917,1.936-7.663,2.544c-9.673,2.001-21.909,1.152-34.126-5.741C337.871,372.844,345.543,369.124,347.509,368.087
	 M461.281,260.501c-0.656-0.807-1.412-1.696-2.178-2.476c-5.979-6.452-12.737-12.846-20.643-16.628
	c-2.018-1.014-4.042-1.838-5.981-2.464c-6.577-2.005-12.406-2.137-17.393-0.995c-1.36,0.381-2.74,0.825-4.035,1.474
	c-13.068,5.731-16.435,21.535-0.687,30.265c1.161,0.707,2.514,1.324,3.957,1.93c4.529,1.757,10.244,3.051,17.332,3.687
	c6.814,0.544,14.797,0.454,24.146-0.61c0.689,0.992,1.693,3.139,2.789,6.014c2.957,7.563,6.371,19.994,3.078,27.203
	c-1.26,0.36-2.441,0.652-3.714,0.8c-8.88,1.729-18.12,1.142-27.04-0.727c-6.004-1.198-11.808-2.976-17.302-5.034
	c-1.34-0.532-2.695-1.146-3.963-1.665c-9.922-4.119-18.47-9.191-24.51-13.202c-3.352-2.326-5.938-4.316-7.478-5.618
	c-0.745-0.676-1.225-1.198-1.428-1.512c0.396-0.567,0.909-1.138,1.507-1.996c2.023-2.771,4.853-7.285,7.891-12.563
	c9.001-15.357,20.517-37.682,24.31-45.971c0.378,0.597,0.851,1.109,1.5,1.696c0.966,0.986,2.393,2,3.93,3.102
	c4.32,2.719,10.284,5.69,17.226,8.387c8.291,3.289,17.865,6.134,26.876,7.894c10.481,2.085,20.188,2.604,26.266,0.324
	C484.853,247.405,465.169,260.589,461.281,260.501 M454.219,267.448c-8.965,0.384-16.355,0.216-22.376-0.508
	c-8.15-0.961-13.744-2.754-17.305-4.868c-1.81-1.211-3.156-2.4-3.918-3.685c-1.59-2.381-1.346-4.906,0.159-6.991
	c0.918-1.339,2.293-2.572,4.078-3.421c4.235-2.239,10.563-2.868,17.432-0.668c7.259,2.3,15.098,8.005,21.777,18.871L454.219,267.448
	z M459.942,221.066c-9.914-5.001-19.291-11.738-26.648-18.015c-5.917-5.004-10.59-9.687-13.515-12.874
	c8.111-27.169,14.962-54.754,10.948-83.347c1.429,0.901,2.944,1.808,4.69,2.83c7.395,4.643,16.991,10.975,26.626,18.996
	c27.809,23.016,55.6,58.69,30.262,99.163C481.848,229.544,470.514,226.359,459.942,221.066 M299.696-148.53l0.007-0.329l0.017,0.329
	c13.439-2.611,37.682-9.616,37.797-13.027c0.113-3.313-31.153-16.91-37.1-17.702l-0.03,0.286l0.007-0.287
	c-5.993,0.521-38.064,12.68-38.102,15.996C262.261-159.851,289.062-151.688,299.696-148.53"/>
</svg>
