<svg version="bachSignature"
	 id="svg2" inkscape:output_extension="org.inkscape.output.svg.inkscape" inkscape:version="0.46" sodipodi:docname="Johann Sebastian Bach signature.svg" sodipodi:version="0.32" xmlns:cc="http://creativecommons.org/ns#" xmlns:dc="http://purl.org/dc/elements/1.1/" xmlns:inkscape="http://www.inkscape.org/namespaces/inkscape" xmlns:rdf="http://www.w3.org/1999/02/22-rdf-syntax-ns#" xmlns:sodipodi="http://sodipodi.sourceforge.net/DTD/sodipodi-0.dtd" xmlns:svg="http://www.w3.org/2000/svg"
	 xmlns="http://www.w3.org/2000/svg" xmlns:xlink="http://www.w3.org/1999/xlink" x="0px" y="0px" viewBox="0 0 360 72"
	 style="enable-background:new 0 0 360 72;" xml:space="preserve">
<defs>
	
	
		<inkscape:perspective  id="perspective10" inkscape:persp3d-origin="372.04724 : 350.78739 : 1" inkscape:vp_x="0 : 526.18109 : 1" inkscape:vp_y="0 : 1000 : 0" inkscape:vp_z="744.09448 : 526.18109 : 1" sodipodi:type="inkscape:persp3d">
		</inkscape:perspective>
	
		<inkscape:perspective  id="perspective2447" inkscape:persp3d-origin="372.04724 : 350.78739 : 1" inkscape:vp_x="0 : 526.18109 : 1" inkscape:vp_y="0 : 1000 : 0" inkscape:vp_z="744.09448 : 526.18109 : 1" sodipodi:type="inkscape:persp3d">
		</inkscape:perspective>
</defs>

<style>
	
	  path{
    fill:none;
    stroke:currentColor;
  }

.st0.v1
  {fill: none;
  stroke: currentColor;
  stroke-width: 30;
  }



  .svg-line-animate
     {
     stroke-width: 1.9;
      stroke-dasharray: 1000;
      stroke-dashoffset: 1000;
      -webkit-animation: dash 7s linear forwards;
      -o-animation: dash 7s linear forwards;
      -moz-animation: dash 7s linear forwards;
      animation: dash 7s linear forwards;

    
      -webkit-animation-delay: 0.5s;
      -o-animation-delay: 0.5s;
      -moz-animation-delay: 0.5s;
      animation-delay: 0.5s;


    }






    @-webkit-keyframes dash {
      from {
        stroke-dashoffset: 1000;
      }
      to {
        stroke-dashoffset: 0;
      }
    }
        @-moz-keyframes dash {
      from {
        stroke-dashoffset: 1000;
      }
      to {
        stroke-dashoffset: 0;
      }
    }
        @-o-keyframes dash {
      from {
        stroke-dashoffset: 1000;
      }
      to {
        stroke-dashoffset: 0;
      }
    }


</style>
<sodipodi:namedview  bordercolor="#666666" borderopacity="1.0" gridtolerance="10000" guidetolerance="10" id="base" inkscape:current-layer="layer1" inkscape:cx="249.5" inkscape:cy="125" inkscape:document-units="px" inkscape:pageopacity="0.0" inkscape:pageshadow="2" inkscape:window-height="705" inkscape:window-width="1246" inkscape:window-x="0" inkscape:window-y="22" inkscape:zoom="1.63" objecttolerance="10" pagecolor="#ffffff" showgrid="false">
	</sodipodi:namedview>
<g id="layer1" inkscape:groupmode="layer" inkscape:label="Layer 1">
	<path id="path2457" class="svg-line-animate" d="M18.19,67.45c-1.51-0.61-1.07-3.28,1.01-5.99c2.76-3.61,12.72-11.34,15.28-11.86
		c3.95-0.79,4.73-4.41,1.36-6.33c-2.57-1.46-2.66-2.19-1.02-7.91c1.02-3.56,2.04-5.02,6.68-9.54c5.62-5.48,8.22-7.03,9.19-5.46
		c0.62,1.01-0.32,6.78-1.45,8.9c-1.1,2.05-0.94,3.75,0.35,3.75c1.81,0,1.27,1.29-0.75,1.79c-1.25,0.31-2.36,1.53-3.39,3.72
		c-0.84,1.79-2.18,3.84-2.97,4.56c-2.14,1.94-1.75,2.76,1.16,2.42c2.01-0.24,2.6-0.04,2.6,0.88c0,0.65-0.4,1.58-0.88,2.07
		c-0.48,0.48-0.66,1.1-0.39,1.37c0.27,0.27,1.45-0.55,2.64-1.82c2.28-2.44,3.18-2.47,2.55-0.07c-0.48,1.84-4.02,4.4-6.07,4.4
		c-1.17,0-1.56-0.47-1.56-1.86c0-3.06-2.63-2.37-4.95,1.3c-2.79,4.42-9.67,11.53-13.59,14.04C20.69,67.94,19.94,68.15,18.19,67.45z
		 M23.83,63.92c3.47-1.8,11.91-11.58,9.98-11.58c-1.7,0-13.14,8.94-14.36,11.23c-0.62,1.16-0.49,1.4,0.8,1.4
		C21.1,64.97,22.71,64.5,23.83,63.92z M41.79,40.08c0.56-0.67,0.75-2.02,0.47-3.41c-0.4-1.98-0.05-2.69,2.51-5.23
		c2.84-2.81,4.08-6.59,2.16-6.59c-1.08,0-8.88,8.16-9.59,10.03c-0.31,0.82-0.4,2.57-0.2,3.9c0.28,1.91,0.71,2.41,2.04,2.41
		C40.1,41.19,41.28,40.69,41.79,40.08z M45.13,34.63c0-1.34-1.45-1.1-1.74,0.29c-0.16,0.77,0.12,1.11,0.74,0.91
		C44.68,35.65,45.13,35.11,45.13,34.63z M163.66,62.18c0.01-0.31,1.51-3.05,3.34-6.1c1.83-3.05,3.33-6.15,3.33-6.89
		c0-1.26-0.15-1.27-2.19-0.22c-2.71,1.4-4.07,1.43-5.16,0.12c-0.64-0.77-0.57-1.24,0.28-1.95c1.2-1,1.53-2.98,0.5-2.98
		c-0.85,0-2.74,2.27-3.37,4.03c-0.49,1.36-0.58,1.37-1.78,0.14c-1.2-1.22-1.12-1.43,1.55-3.89c3.47-3.2,6.83-3.34,6.83-0.28
		c0,1.39,0.38,1.84,1.49,1.78c3.12-0.17,3.79-0.82,6.48-6.32c4.07-8.33,7.72-11.92,16.54-16.24c4.88-2.39,7.78-3.42,8.5-3.02
		c0.82,0.46,0.15,1.13-2.68,2.71c-2.61,1.46-4.02,2.82-4.61,4.43c-0.46,1.28-1.51,2.93-2.32,3.66c-1.62,1.47-1.96,4.78-0.62,6.12
		c0.64,0.64,0.18,1.25-1.86,2.45c-1.49,0.88-2.71,1.74-2.71,1.91c0,0.17,1.29,0.1,2.87-0.15c3.19-0.51,6.04,0.6,6.04,2.36
		c0,1.62-2.13,5.51-3.02,5.51c-0.46,0-0.57-0.99-0.29-2.52c0.61-3.25-0.46-3.89-4.33-2.62c-2.11,0.7-3.7,1.95-5.27,4.18
		c-2.32,3.29-3.02,3.73-3.84,2.4c-0.27-0.43,1.09-2.46,3-4.51c3.13-3.35,3.44-3.98,3.01-6.25c-0.4-2.16-0.11-2.93,2.02-5.34
		c2.88-3.26,4.99-6.24,4.99-7.07c0-1.32-2.96-0.43-5.63,1.69c-4.1,3.26-5.98,6.23-8.86,13.97c-1.72,4.62-4.02,8.87-7.11,13.13
		C164.36,62.55,163.63,63.36,163.66,62.18z M335.73,56.87c-1.21-1.34-1.19-1.47,0.42-2.6c2.09-1.47,3.62-1.51,5.49-0.14
		c1.41,1.03,1.41,1.08,0.03,2.6C339.92,58.66,337.41,58.72,335.73,56.87z M294.22,55.6c-1.23-1.23-0.38-4.18,1.96-6.79
		c2.32-2.6,4.19-5.48,4.19-6.46c0-0.23-2.15-0.42-4.79-0.42s-5-0.35-5.27-0.78c-0.26-0.43,0.07-1.61,0.73-2.63l1.21-1.85l1.92,1.51
		c2.05,1.61,4.98,1.93,7.84,0.85c0.96-0.37,3.17-2.86,4.9-5.54c3.92-6.06,6.41-8.18,8.38-7.13c0.77,0.41,1.41,1.25,1.41,1.86
		c0,2.43-3.99,6.92-8.92,10.05c-2.84,1.8-5.17,3.68-5.18,4.17c-0.01,0.49,0.68,1.38,1.54,1.98c1.33,0.93,1.48,1.55,1.05,4.13
		c-0.47,2.77-0.37,3.03,1.09,3.03c0.88,0,2.16-0.3,2.85-0.66c0.73-0.38,4.57-0.37,9.15,0.02c8.8,0.75,11.79,0.16,11.79-2.31
		c0-0.84,0.49-1.5,1.11-1.5c2.28,0,1.11,2.95-1.99,5c-2.38,1.58-3.89,2.02-6.5,1.92c-1.87-0.07-7.82-0.19-13.23-0.26l-9.83-0.12
		l1.15-2.23c0.63-1.22,0.93-2.45,0.66-2.71c-0.49-0.49-2.41,1.46-5.21,5.32C295.43,55.2,294.52,55.89,294.22,55.6z M297.4,50.85
		c0-0.41-0.15-0.74-0.33-0.74c-0.18,0-0.53,0.33-0.79,0.74c-0.25,0.41-0.11,0.74,0.33,0.74S297.4,51.26,297.4,50.85z M311.12,33.68
		c2.52-2.21,3.45-4.38,1.88-4.38c-0.96,0-5.94,5.3-5.94,6.32C307.06,36.58,308.74,35.78,311.12,33.68z M116.83,52.87
		c-2.66-1.34-2.84-4.44-0.4-6.88c3.23-3.23,7.28-1.04,4.89,2.64c-0.6,0.92-0.99,0.95-2.22,0.19c-2.08-1.29-2.4-1.18-2.13,0.74
		c0.47,3.29,5.12,2.6,9.59-1.44c3.86-3.49,5.99-7.2,8.89-15.46c3.22-9.18,6.32-14.78,10.98-19.82c4.1-4.42,9.48-7.58,14.41-8.46
		c2.44-0.43,3.04-0.21,5.11,1.85c2.06,2.06,2.29,2.71,1.95,5.31c-0.55,4.08-3.52,7.71-7.59,9.27c-3.83,1.46-5.3,1-2.11-0.66
		c6.34-3.31,10.14-11.74,5.78-12.83c-8.25-2.07-17.82,5.06-21.97,16.39c-0.91,2.47-3.37,8.17-5.48,12.66
		c-3.04,6.47-4.64,8.92-7.69,11.75c-3.36,3.12-7.75,5.74-9.56,5.7C118.95,53.81,117.86,53.38,116.83,52.87z M57.58,51.92
		c-1.24-0.91-1.24-1.07,0.04-3.24c0.74-1.26,1.01-2.28,0.6-2.28c-0.41,0-1.34,1-2.06,2.23s-1.58,2.23-1.9,2.23
		c-1.19,0-0.53-2.53,1.27-4.9c1.76-2.3,2.51-5.51,1.3-5.5c-0.31,0-1.69,0.69-3.06,1.53c-2.8,1.71-4.55,1.45-4.55-0.67
		c0-1.08,0.69-1.5,2.94-1.81c3.78-0.51,8.25-2.73,9.26-4.61c4.44-8.2,8.28-12.15,10.07-10.36c1.1,1.11-1.21,4.99-5.99,10.04
		c-2.77,2.93-4.4,5.29-4.4,6.38c0,0.95,0.33,1.73,0.74,1.73c1.22,0,0.85,2.25-0.8,4.93l-1.55,2.5h2.38c1.95,0,2.22,0.19,1.52,1.03
		C62.17,52.62,59.09,53.03,57.58,51.92z M67.01,31.05c0.85-1.08,1.39-2.13,1.19-2.34c-0.49-0.49-2.54,1.26-3.44,2.94
		C63.63,33.75,65.21,33.32,67.01,31.05z M93.48,52.41c-0.99-0.39-1.16-0.73-0.56-1.11c0.48-0.3,0.88-1.07,0.88-1.71
		c0-0.97-0.19-1-1.15-0.21c-0.97,0.81-1.22,0.71-1.57-0.65c-0.55-2.11-1.92-2.03-4.07,0.24c-2.05,2.16-2.86,2.34-2.86,0.64
		c0-1.14-0.09-1.14-1.36,0c-1.78,1.61-2.36,1.55-2.36-0.26c0-0.82-0.5-1.49-1.11-1.49c-0.61,0-1.53,0.67-2.04,1.49
		c-0.97,1.56-3.19,1.92-4.94,0.81c-0.63-0.4-1.98-0.25-3.49,0.38c-1.67,0.7-2.62,0.78-2.94,0.25c-0.85-1.37,1.11-4.73,3.77-6.46
		c2.19-1.43,2.81-1.54,4.1-0.74c1.07,0.66,1.39,1.43,1.1,2.61c-0.56,2.25,1.02,2.18,4.52-0.19c1.83-1.24,3.02-1.62,3.6-1.15
		c0.81,0.67,1.68,0.79,5.25,0.74c0.82-0.01,2.39-0.02,3.51-0.02c1.11,0,2.22-0.32,2.46-0.71c0.24-0.39,1.25-0.71,2.23-0.71
		c1.6,0,1.75,0.24,1.35,2.23c-0.41,2.03-0.24,2.27,1.86,2.69c2.82,0.56,2.34,1.77-0.71,1.77c-1.28,0-2.39,0.47-2.64,1.11
		C95.83,53.2,95.58,53.24,93.48,52.41z M71.39,45.75c-1.11-0.4-2.37,1.12-1.75,2.11c0.36,0.59,0.83,0.44,1.52-0.49
		C71.77,46.53,71.86,45.92,71.39,45.75z M283.03,51.84c-0.27-0.27-0.5-1.11-0.5-1.86c0-1.67-0.65-1.71-2.83-0.19
		c-1.18,0.83-2.5,1.04-4.47,0.7c-1.54-0.26-3.75-0.11-4.92,0.34c-1.56,0.59-2.35,0.58-2.94-0.03c-0.59-0.61,0.57-2.13,4.29-5.6
		c4.64-4.34,6.89-5.53,8.1-4.32c0.24,0.24-0.2,1.5-0.99,2.79c-0.79,1.29-1.43,2.64-1.43,3c-0.01,1.35,5.54-0.31,8.2-2.45
		c3.32-2.67,4.35-2.19,1.8,0.84c-1.01,1.2-1.84,2.5-1.84,2.89c0,1.27,2.29,1.63,4.14,0.64c2.98-1.59,2.79-0.34-0.26,1.77
		C286.64,52.27,284.06,52.87,283.03,51.84z M275.11,45.47c0-0.41-0.49-0.33-1.11,0.18c-0.61,0.51-1.11,1.26-1.11,1.67
		c0,0.41,0.49,0.33,1.11-0.18C274.61,46.63,275.11,45.88,275.11,45.47z M135.97,50.44c-1.12-1.16-0.51-4.16,1.2-5.87
		c0.97-0.97,3.14-2.46,4.83-3.33l3.07-1.57v1.7c0,1.19-0.8,2.13-2.65,3.13c-1.46,0.79-2.98,2.04-3.38,2.78
		c-1.13,2.11,1.04,2.45,5.42,0.86l3.82-1.39l4.56-9.09c4.62-9.21,7.33-12.86,10.96-14.76c2.77-1.45,2.82-1.41,2.82,1.78
		c0,3.24-2.77,8.01-6.96,11.99c-1.48,1.41-2.7,3.08-2.7,3.72c-0.01,2.64-3.08,6.12-7,7.91C145.94,50.16,137.01,51.51,135.97,50.44z
		 M158.57,35.43c3.16-3.32,6.57-8.33,6.57-9.65c0-3.22-6.58,3.65-9.07,9.47C154.48,38.96,155.17,39.01,158.57,35.43z M239.58,50.02
		c-3.68-1.08-2.84-2.94,1.98-4.34c3.56-1.03,6.8-3.55,6.8-5.29c0-0.35-1.34-1.03-2.97-1.52c-2.96-0.89-2.97-0.9-2.96-4.67
		c0.01-4.62,2.19-9.57,7.01-15.91c5.15-6.77,10.23-10.15,18.02-11.98c4.97-1.17,6.45-0.64,8.34,2.99c2.28,4.38,2.04,8.69-0.68,12.46
		c-2.55,3.51-2.66,4.04-1.11,5.32c1.41,1.17,1.45,5.95,0.09,9.13c-1.14,2.66-5.23,6.74-9.73,9.72c-3.55,2.35-3.82,2.38-4.85,0.47
		c-0.66-1.23-0.46-1.83,1.13-3.42c1.8-1.8,2.02-1.85,3.28-0.71c1.88,1.7,4.45,0.41,6.99-3.51c2.33-3.59,2.54-7.11,0.59-9.52
		l-1.39-1.72l-3.23,1.45c-6.46,2.91-18.13,13.12-18.13,15.86c0,0.69,1.34,1.65,3.34,2.39c1.84,0.68,3.34,1.69,3.34,2.25
		C255.42,50.72,243.4,51.14,239.58,50.02z M252.4,35.74c0.75-0.55,1.21-1.43,1.04-1.95c-0.22-0.67-0.98-0.38-2.52,0.97
		C248.59,36.81,249.82,37.63,252.4,35.74z M250.12,33.67c1.93-1.28,5.39-4.45,7.69-7.06s4.63-4.74,5.17-4.74
		c1.15,0,1.31,1.2,0.24,1.86c-0.41,0.25-1.08,1.1-1.51,1.89c-0.71,1.32-0.61,1.37,1.27,0.66c1.12-0.43,2.46-1.13,2.98-1.56
		c0.52-0.43,1.74-0.58,2.71-0.34c4.38,1.1,8.41-9.76,5.27-14.23c-2.47-3.53-11.15-1.34-18.58,4.69c-1.66,1.35-4.75,5.02-6.87,8.16
		c-3.35,4.95-3.86,6.19-3.86,9.35C244.64,36.73,245.27,36.88,250.12,33.67z M259.36,30.84c0.19-0.56-0.09-0.84-0.65-0.65
		c-0.54,0.18-1.12,0.76-1.3,1.3c-0.19,0.56,0.09,0.84,0.65,0.65C258.6,31.96,259.18,31.37,259.36,30.84z M198.19,47.87
		c-0.72-1.16,2.33-5.56,4.54-6.57c2.8-1.27,3.06-0.49,0.57,1.66c-1.17,1.01-1.92,2.04-1.67,2.29c0.25,0.25,1.92-0.77,3.72-2.26
		c2.84-2.38,3.29-2.55,3.49-1.32c0.53,3.24,0.74,3.37,3.29,2.04c1.34-0.7,3.6-1.5,5.03-1.79c1.43-0.29,3.19-0.77,3.9-1.07
		c1.07-0.45,1.3-0.15,1.3,1.72c0,1.25,0.35,2.48,0.78,2.75c1.14,0.71-0.63,2.58-2.44,2.58c-1.04,0-1.34-0.35-1.02-1.18
		c0.82-2.13-0.36-2.59-2.58-1.01c-1.91,1.36-2.24,1.41-2.63,0.38c-0.4-1.04-0.73-1-2.87,0.32c-2.94,1.82-4.55,1.9-5.46,0.27
		c-0.63-1.12-0.89-1.09-2.94,0.37C200.76,48.76,198.93,49.06,198.19,47.87z M197.58,34.75c-0.94-0.94-0.49-3.06,0.74-3.54
		c1.82-0.7,2.77,0.61,1.78,2.47C199.24,35.29,198.45,35.62,197.58,34.75z"/>
</g>
</svg>
