<svg version="1.1" id="bachAnimated" xmlns="http://www.w3.org/2000/svg" xmlns:xlink="http://www.w3.org/1999/xlink" x="0px" y="0px"
	 viewBox="0 0 290 348.7" style="enable-background:new 0 0 290 348.7;" xml:space="preserve">
<style type="text/css">
	.st0{fill:none; }
	
	path {
	fill: #312e2e;
    stroke-width: 4px;
    stroke: #000;}

    
 path
     {
     stroke-width: 1.9;
      stroke-dasharray: 1200;
      stroke-dashoffset: 1200;
      -webkit-animation: dash 7s linear forwards;
      -o-animation: dash 7s linear forwards;
      -moz-animation: dash 7s linear forwards;
      animation: dash 7s linear forwards;

    
      -webkit-animation-delay: 0.5s;
      -o-animation-delay: 0.5s;
      -moz-animation-delay: 0.5s;
      animation-delay: 0.5s;


    }






    @-webkit-keyframes dash {
      from {
        stroke-dashoffset: 1200;
      }
      to {
        stroke-dashoffset: 0;
      }
    }
        @-moz-keyframes dash {
      from {
        stroke-dashoffset: 1200;
      }
      to {
        stroke-dashoffset: 0;
      }
    }
        @-o-keyframes dash {
      from {
        stroke-dashoffset: 1200;
      }
      to {
        stroke-dashoffset: 0;
      }
    }
</style>
<g>
	<path d="M185.4,338.6c-3.6,2.5-6.8,2.5-9.6,0.2c-3.7-3-4.2-6.3-1.8-11.8c-5.2-4.2-5.4-6.5-1.5-11.5c0.8-1,1.5-3.1,1-3.7
		c-0.9-1.1-2.6-1.7-4.1-2.1c-2.4-0.6-5-1.3-7.5-1.2c-3.5,0.2-5.6-2.9-9.6-2.4c-7.9,1.1-12-5.5-10.1-13.2c1.1-4.4,4.1-6.9,7.2-9.6
		c0,0,0,0,0,0c0,0-0.1,0-0.1,0c3.1-5.5,2-8.5-3.9-10.7c-4.5-1.7-6.5-6.6-4.4-11.1c1.8-3.8,3.6-7.6,5.5-11.6
		c-18.6-4.5-31.8-15.9-42.1-31.6h6.2c-1.6-2.6-2.8-4.3-3.9-6.1c0.2-0.2,0.4-0.4,0.6-0.5c3.9,2.1,7.8,4.2,11.8,6.2
		c0.2-0.3,0.4-0.6,0.6-0.9c-1.2-1.6-2.5-3.1-3.8-4.7c0.1-0.5,0.2-0.9,0.3-1.4c2.5,0.7,5,1.3,7.5,2.1c4.9,1.4,4.9,1.5,6.3-3.2
		c19.9-0.7,19.9-0.6,36.3-8.8c1.5-0.8,2.1-3.5,3.2-5.3l-0.1-0.1c-0.5,0-1,0.1-1.5,0.1c-0.4,0-0.9,0-1.4,0.1h0c0,0,0,0,0,0h0
		c0,0-0.1,0-0.1,0c-1,0-2,0-2.9-0.1l0.1-0.1c-0.1-0.1-0.2-0.2-0.3-0.4c-0.5-0.5-1-1.1-1.4-1.6l0,0l0,0c-1.2,0-2.4-0.1-3.5-0.1
		c-0.2,0.4-0.4,0.8-0.7,1.1c0.1,0.3,0.2,0.5,0.3,0.8c0,0.1,0,0.1,0.1,0.1c0,0,0.1,0,0.1,0.1c0.2,0.1,0.3,0.2,0.5,0.4
		c-0.3,0.2-0.6,0.4-0.8,0.6l-0.3-0.1c-0.4,0.9-0.9,1.5-1.3,1.9c-0.1,0.1-0.2,0.2-0.3,0.2s-0.2,0.1-0.3,0.2c0,0,0,0-0.1,0
		c-0.1,0-0.2,0.1-0.3,0.1c-0.1,0-0.2,0-0.4,0c-0.1,0-0.3,0-0.4,0c-0.1,0-0.3-0.1-0.4-0.1c-0.1,0-0.2-0.1-0.3-0.1s-0.2-0.1-0.3-0.2
		c-0.3-0.2-0.6-0.3-0.9-0.6c-0.1-0.1-0.3-0.2-0.4-0.3c-0.1-0.1-0.2-0.2-0.3-0.2c-0.2-0.1-0.3-0.2-0.4-0.4h0v0
		c-0.3,0.1-0.7,0.2-1,0.4c0,0-0.1,0-0.1,0l-0.1,0.1c-0.3,0.3-0.5,0.5-0.8,0.8c0,0-0.1,0.1-0.1,0.1c0,0,0,0.1-0.1,0.1
		c-0.1,0.2-0.3,0.4-0.4,0.7c-0.1-0.2-0.2-0.4-0.4-0.7c0,0,0,0,0-0.1c0,0-0.1-0.1-0.1-0.1c-0.4-0.5-0.8-1-1.2-1.5
		c0,0-0.1-0.1-0.1-0.1c0-0.6,0.1-1.2,0.1-1.8l0-0.1c0,0,0,0,0-0.1c0.1-0.5,0.1-0.9,0.2-1.4v0c-0.4-0.8-0.7-1.6-1.1-2.4
		c0,0,0-0.1,0-0.1c0,0,0,0,0,0l0,0.1c-2.2,0.8-4.4,1.8-6.7,2.2c-3.9,0.8-7.8,2-11.7,1.6c-3.9-0.4-8.2-1.6-11.4-3.8
		c-4.1-2.9-7.3-7.2-10.8-10.8c-0.6-0.5-1.2-1.1-1.8-1.6c0.3-0.1,0.6-0.2,0.9-0.4c1.9-1.2,3.9-2.4,5.7-3.8c5.6-4.3,11.4-8,19-5.1
		c0.7,0.3,1.9-0.8,2.8-1.2c-0.7-0.9-1.4-2.3-2.3-2.4c-3.1-0.4-6.4,0.2-9.4-0.6c-1.8-0.4-3.2-2.6-4.7-4c1.7-0.9,3.3-2.6,4.9-2.6
		c10.4,0.3,20.9,1,31.3,1.6c0-4.3-1.3-5.1-5.7-4.4c-2.6,0.4-5.8-0.1-8-1.4c-4.7-2.7-8.5-3-11.7,2.2c-2.6-1.7-4.8-3.4-7.2-4.7
		c-3-1.6-3.2-3.3-0.7-5.3c2.2-1.7,4.6-3.1,7.2-4.8c-1.4-0.5-2.5-1-3.7-1.4c-8.6-3.1-10.6-6.7-8.1-15.5c2.2-7.7,4.5-15.4,6.7-23.1
		c1.1-4-1.2-8.8-5-10.7c-8.7-4.4-17.7-7.6-27.2-7V68.5c-0.3,0.1-0.6,0.2-0.9,0.3c-0.1-0.4-0.3-0.7-0.4-1.1c0.5-0.3,1-0.7,1.4-1
		c0,0,0.1,0,0.1-0.1l-0.1,0c-0.4-1.5-0.9-2.9-1.3-4.3l0.1,0.2c0.1-0.6,0.2-1.1,0.3-1.7l0,0c0,0,0,0.2,0,0.2
		c-1.1-1.3-2.3-2.6-4.3-4.9c-1.6,6.3-4.3,11.9-4.3,17.5c0.1,8.9-5.4,17.3-2.2,26.4c0.1,0.3,0,0.8-0.1,1c-3,3.7-0.9,7.9-1.5,11.9
		c-0.3,2.5-1.2,5-1.8,7.5c-0.3,1.8,0.1,3.9,0,6c-0.2,3.6-2.1,8.2-0.6,10.7c2.5,4.2-0.3,6.3-1.3,9.3c0.7,0.5,2.1,1.2,2,1.4
		c-1.4,4.2-8.5,7.1-13.6,5.1c2-1.6,3.8-3,5.5-4.3c-2.1-2.5-4.3-5-6-7.1c1.2-3.5,2.4-6.8,3.6-10.3c-1.4-0.4-2.4-0.7-3.7-1
		c0.6-1.7,1.2-3.1,1.7-4.6c-0.4,0.2-0.8,0.3-1.1,0.5c-1.4-2.2-2.9-4.5-4.5-7.1c2.8-2.5,5.6-4.9,8.5-7.5c-2.3-1.5-4.3-2.9-6.7-4.5
		c3.4-3,3.6-5.9,0.7-8.9l-0.1,0.2c-0.5-5.2-0.8-10.3,2.8-14.7c0.4-0.5,0-1.6,0.2-2.3c0.8-2.9-0.5-6.5,4-7.9c2.6-0.8,2.6-8.4,0.6-9.9
		c-0.7-0.5-1.7-1.9-1.5-2.1c2.3-3.1,0.6-5-1.6-7.1c-0.9-0.9-1.1-2.4-1.6-3.6c0.3-0.1,0.5-0.3,0.8-0.4c0.9,0.9,1.8,1.7,3.4,3.3
		c1.8-3.5,3.2-6.5,4.8-9.4c2.1-3.9,3.8-7.7,7.6-10.8c3.4-2.8,4.5-8.4,6.6-12.7c-1.9-1.7-3.8-3.3-6.1-5.3c-0.4,1.5-0.6,1.9-0.6,2.4
		c-0.6,6.6-0.6,6.6-6.9,6.4c-0.7,0-1.3,0.1-2.5,0.2c1.5,2,2.7,3.5,3.8,4.9c-2,2.3-3.8,4.4-5.7,6.7c-0.6-0.9-1.1-1.5-1.5-2.2
		c-3.4-6.4-5.3-6.7-9.4-1.5c-0.4,0.5-1.2,1-1.3,1.5c-0.5,3.9-6.1,7.2-1.2,11.7c0.5,0.4-0.3,3.1-1.2,3.9c-5.2,4.9-7.1,14.4-4.4,19.8
		c-2.2,3.5-3.4,7.3-6,9.1c-4.9,3.5-0.5,6-0.2,9.2c1.7-0.2,3.1-0.4,4.5-0.5c-3.8,3.9-7.5,7.8-11.4,11.8c2.1,0.6,4.7,1.4,7.6,2.3
		c-0.8,1.8,4.2,5.8-2.5,5.9c2.9,2.7,0.3,3-1.5,3.8c0,0,0.2,0,0.2,0c-0.4,1.2-1.4,2.6-1.2,3.7c1.2,5.8-2.2,12.5,3.5,17.5
		c0.7,0.6,0.6,2.5,0.3,3.7c-0.8,3.8-2.4,7.5-2.8,11.3c-0.3,2.9,0.8,5.9,1.3,8.9c0.2,0.3,0.2,0.6-0.1,0.8c-1.4,4.8,3.7,3.2,5.2,5
		c-3.6,12.7-3.6,20.1,7.6,23.4c0.6,2.5,0.8,5,1.7,7.1c2.5,5.4,2.4,6.2-3,8.9c-3.3,1.7-6.8,2.8-10,4.5c-4.5,2.3-8.9,4.9-13.3,7.4
		c-4.2,2.4-8.3,4.8-12.5,7.1c-2.5,1.4-5.2,2.7-7.7,4.1c-1.3,2.1-3.6,3.3-6.6,3.6v99c0.7,0.3,1.3,0.7,2,1c0,0,0.1,0,0.1,0.1l0-0.1
		c1.6,2.9-0.8,2-2.1,2.1v19h29c0.2-0.5,0.4-1,0.6-1.5c0.5,0.5,1,1,1.4,1.5h159C188.5,345.3,186.9,342,185.4,338.6z M45.1,86.9
		c0,0,0.2,0,0.2,0c0,0,0,0-0.1,0.1L45.1,86.9z M102.6,94c-8.6,4.8-12.7,3.4-13.4-5.9C93.5,90,97.8,91.9,102.6,94z M97.1,172.5
		c-1-5.3-2-10.5-3-15.8c0.1-0.2,0.2-0.4,0.3-0.6c0.2-0.4,0.4-0.7,0.5-1.1c-0.7-1.2-1.4-2.4-2-3.7c-0.7-0.7-1.3-1.4-2-2.1v0
		c0,0,0,0,0,0c0,0,0,0-0.1,0.1v-0.1l0,0c0,0,0,0,0.1,0.1l0,0c0,0,0,0,0,0c0.4-0.4,0.8-0.7,1.1-1.1c3.2-2.1,1.6-5.1,0.4-6.8
		c-1.4-1.9-2.4-2.7-1.3-5.5c0.7-1.8-2-4.7-2.5-7.2c-1.3-6.5-2.6-13.1-3.1-19.7c-0.2-2.9,3.3-3.7,5.2-2.1c4,3.3,5.1,1.9,5.8-2.3
		c0.2-1.1,1.4-2.1,2.2-3.4c4.5,3.3,8.8,4.8,12.6-0.4c5.4,2.9,2.7,7.6,1.8,10.9c-3.2,12.1-7.3,24-11,36c-0.3,0.9-0.8,1.8-1.1,2.7l0,0
		c0,0.5-0.1,1-0.1,1.5c0,0,0,0.1,0,0.1c0,0,0.1,0.1,0.1,0.1c0.8,0.8,1.6,1.6,2.5,2.4c-0.7,0.2-1.3,0.4-2,0.6c0,0,0,0,0,0
		c0,0,0,0,0,0h-0.1c0,0,0.1,0,0.1,0c0,0-0.1,0-0.1-0.1c-0.5-0.3-1-0.6-1.5-1c0,0-0.1-0.1-0.1-0.1c0,0,0.1,0.1,0.1,0.1
		c0.9,1.3,1.7,3.3,2.9,3.7c3.7,0.9,4.1,2.7,2.6,5.8c-1.5,3.1-2.9,6.2-4.4,9.5C99.8,172.7,98.5,172.6,97.1,172.5z M140.4,284.8
		c1.6-0.6,3.2-1.2,4.8-1.8c-0.5-0.8-1-1.5-1.5-2.3c-2.2-0.3-4.4-0.5-6.5-0.8c0.5-0.4,1-0.7,1.5-0.9c0.1-0.1,0.3-0.2,0.4-0.2
		c0.2-0.1,0.4-0.2,0.6-0.3c0.1-0.1,0.3-0.1,0.4-0.2c0.2-0.1,0.5-0.2,0.7-0.2c0.3-0.1,0.7-0.2,1-0.2c0.2,0,0.4,0,0.6-0.1
		c0.1,0,0.1,0,0.2,0h0.3c0.2,0,0.5,0,0.7,0.1c0.1,0,0.2,0,0.3,0.1c0.1,0,0.2,0,0.3,0.1c0.5,0.1,1,0.3,1.4,0.6
		c0.3,0.2,0.6,0.4,0.8,0.6c0.1,0.1,0.3,0.2,0.4,0.4c0,0,0.1,0.1,0.2,0.2c0.2,0.2,0.3,0.4,0.5,0.6c0.1,0.1,0.2,0.2,0.3,0.3
		c0,0,0,0,0,0.1c0.1,0.1,0.2,0.2,0.2,0.3c0.4,0.7,0.8,1.4,1.2,2.3c-2.8,0.5-5.6,1.1-8.4,1.6C140.7,285,140.6,284.9,140.4,284.8z
		 M167,340.5c-0.3,2.7-6.5,6.7-9.8,6.4c-4.7-0.4-8.4-4.6-7.9-8.8c0.6-5.5,4-8.5,9.1-8.2C163.7,330.2,167.7,335.1,167,340.5z"/>
	<path d="M226,348.7c0.7-2.8,1.2-5.6,2.1-8.4c0.8-2.5,2.4-4.7,2.9-7.3c0.6-3-0.8-5.3-3.8-6.8c-1.9-0.9-4.9-3-4.7-4.1
		c0.7-4.6-3.1-5.3-5.3-7.3c-1-1-2.6-1.6-4-2c-3.1-1.1-5.6-2.2-6.8-6c-0.6-1.9-4.2-2.9-6.5-4.1c-1.3-0.7-2.7-1.2-4.1-1.8
		c0-0.5-0.1-1-0.1-1.5c2.3-0.9,4.5-2.2,6.9-2.8c9.7-2.4,12.4-8.1,8-17.1c-0.3-0.6-0.3-1.3-0.4-1.9c-1.1-10.6-7.5-17.3-16.3-22.1
		c-1.4-0.8-3-1.8-4.5-1.8c-4,0-5.2-2.2-5.8-5.7c-0.4-2.1,1-2.7,1.6-3.9c5.7-12.3,15.6-22.5,18.1-36.4c1.4-8.1,1-12.7-2.9-21.4
		c-0.2,1.9-0.3,3.2-0.5,4.6c-0.3,0-0.6,0-0.9,0c0-5.2,0-10.4,0-15.5c-1.5,0.1-4,0.7-4.3,0.2c-1-1.9-1.4-4.1,1.6-5.2
		c0.8-0.3,1.5-1.8,1.7-2.8c1.4-6,3.1-11.9,3.7-18c0.4-4-1.2-8.2-1.3-12.4c-0.2-5.6,0.2-11.3,0.4-16.9c0.3-9.8,0-19.4-5-28.2
		c-1.3-2.4-1.7-5.3-2.2-7.9c7.8,11.3,14.4,23.7,31.8,20.7c-1,2.2-1.8,3.7-2.6,5.4c-0.5-0.7-1.2-1.7-1.8-2.4c-3.5,1-6.8,1.9-11.5,3.3
		c0.4,2.1,0.7,5.5,1.7,8.6c0.3,0.9,2.6,1.2,5,2.2c-1-2.1-1.4-3-1.8-3.8c0.4-0.4,0.8-0.7,1.2-1.1c1.7,1.6,3.3,3.2,5.9,5.7
		c-3.9,0.7-6.3,1.1-8.9,1.5c-1.4,1.6,3.1,5.8-2.5,5.3c2.6,5.5,7.1,1.7,10.4,2.9c-2.3,4.2-2.4,4.2-11.8,1.8c-0.3,0.4-0.5,0.8-0.8,1.1
		c3.8,2.6,7.5,5.1,11.6,7.9c-0.1,0.2-0.6,1.1-1.3,2.3c1.4,0.4,2.8,0.8,4.4,1.3c-0.7,5.3-5.2,3.6-8.8,4.7c4.6,3.4,7.4,9.6,14.8,5.9
		c0.1,0.5,0.3,0.9,0.4,1.4c-3,1.9-6,3.9-8.7,5.6c1.7,2.5,3.7,5.6,6.2,9.3c-2.3,0.7-3.9,1.2-5.6,1.7c0.5-0.5,1-1,1.5-1.5
		c0.9,1.8,2.7,3.7,2.6,5.5c-0.1,1.5-2.3,2.9-3.4,4.2c1.6,0.4,3.8,0.8,7.2,1.6c-3.3,0.9-5.3,1.4-7.3,2c0.1,0.5,0.2,1,0.3,1.4
		c5.1-1.2,10.3-2.4,15.4-3.6c-3,2.9-5.9,5.9-8.9,8.9c0.2,0.1,1.2,1,2.4,1.3c0.9,0.2,1.9-0.3,2.9-0.4c-1.2,1.6-2.6,2.2-3.9,3.1
		c-0.8,0.6-1.4,1.5-2.1,2.3c0.9,0.5,1.9,0.9,2.8,1.4c3.6,1.9,4.9-1.7,6.6-3.3c3.6-3.2,3.6-9.9,0.5-13.3c0.5-2.7,1.1-5.4,1.7-8.5
		c-1,0.5-1.6,0.9-3.5,1.9c1.2-6.8,2.3-12.6,3.4-18.5c0,0-0.1,0.1-0.1,0.1c0.3,0.2,0.8,0.5,0.7,0.6c-2.6,7.3,4.4,12,4.6,18.5
		c6.9-1.5,8.1-0.9,8.5,4c-1.9,4.7-3.8,9.5-5.7,14.2c-0.4,0.7-0.7,1.4-1.1,2.2l-0.1-0.1c0,0.6,0,1.2,0.1,1.8c0,0.2,0,0.4,0,0.6
		c0.9,0.4,1.7,0.8,2.6,1.2c0.2,0.2,0.4,0.3,0.5,0.5c2.5,0.4,8.4,6.3,7.3,7c-3.2,2.1-6.7,3.8-10.2,5.5c-0.9,0.5-2.5-0.2-3.3,0.4
		c-1.2,0.8-2.1,2.2-3.1,3.4c1.2,0.6,2.5,1,3.6,1.8c2.1,1.5,5.9,3.3,5.7,4.8c-0.4,4.7,3.2,4.9,5.7,6.6c-0.1,0.2-0.2,0.3-0.2,0.5
		c0,0.2,0,0.5,0.1,0.5c2.5-0.2,5.1-0.3,7.6-0.5c-0.3,1.4-0.6,2.8-1.1,5c3.8-0.2,7.3-0.4,10.9-0.6c-0.4,0.8-1,1.8-1.5,2.6
		c2.5,1.1,5.2,3.2,7.7,3.1c3.8-0.1,7.7-1.6,11.5-2.6c0,2,0,4,0,6c0,0.3,0,0.7,0,1c0,33.7,0,67.3,0,101
		C268.7,348.7,247.3,348.7,226,348.7z"/>
	<path class="st0" d="M2.1,327.6c1.6,2.9-0.8,2-2.1,2.1c0-0.3,0-0.7,0-1C0.7,328.3,1.4,328,2.1,327.6z"/>
	<path class="st0" d="M29,348.7c0.2-0.5,0.4-1,0.6-1.5c0.5,0.5,1,1,1.4,1.5C30.3,348.7,29.7,348.7,29,348.7z"/>
	<path d="M290,211.7c-1,0-2.1,0-3.1,0c1-0.3,2.1-0.7,3.1-1C290,211,290,211.3,290,211.7z"/>
	<path d="M2.1,327.6c-0.7,0.4-1.4,0.7-2.1,1.1c0-0.3,0-0.7,0-1c0.7,0,1.4,0,2.1,0.1C2.1,327.7,2.1,327.6,2.1,327.6z"/>
	<path class="st0" d="M2.1,327.7c-0.7,0-1.4,0-2.1-0.1c0-0.3,0-0.7,0-1C0.7,327,1.4,327.4,2.1,327.7z"/>
	<path class="st0" d="M0,305.7c0,0.3,0,0.7,0,1C0,306.3,0,306,0,305.7z"/>
	<path class="st0" d="M290,247.7c0-0.3,0-0.7,0-1C290,247,290,247.3,290,247.7z"/>
	<path d="M151.8,94.2c6.3,2.3,12.4,4.5,18.4,6.8c0.1,0-0.1,0.6-0.2,1.4c-0.7,0-1.4,0.1-2.1,0c-2.9-0.3-5.5-1.4-8.4,1.5
		c-1.2,1.2-6.2-0.1-8.8-1.6c-2.2-1.3-3.3-2.3-5.3-0.1c-1.8,1.9-3,2.2-4.6-0.9c-1.3-2.5-4.3-4.2-6.7-6.2c-3.5-2.9-2.9-4.9,1.1-6.3
		c8.8-3.1,17.8-4.1,27-2.6c3.3,0.5,6.5,1.7,9.6,3.5C164.9,89.7,158,88.2,151.8,94.2z"/>
	<path d="M247,197.1c1.9-4.8,3.8-9.5,5.7-14.2c0.3-0.4,0.5-0.8,0.8-1.2c2.9,3.4,5.8,6.7,9.6,11.2c-4.8,2-8.9,3.8-13,5.5
		c-0.5,0.1-1,0.2-1.5,0.3c-0.6,0-1.1,0-1.7,0l0.1,0.1C247.1,198.2,247,197.6,247,197.1z"/>
	<path d="M239,159.7c-5.1-3-4.9-4.9,0.6-10.9c2.6,1,5,1.9,8.5,3.1c-0.3,1.2-0.9,3.7-1.7,6.9c-1.6-1.5-2.7-2.5-4.5-4.2
		c-1.1,1.8-2.1,3.5-3.1,5.1C238.9,159.8,239,159.7,239,159.7z"/>
	<path d="M161.8,193.7c-1.2,0-2.4-0.1-3.6-0.1c-2.6-0.5-5.2-1.1-7.8-1.6c-0.1-1-0.2-1.9-0.4-2.9l0,0.2c0.8-0.2,1.6-0.4,2.4-0.6
		c0,0,0,0,0,0c0.7,0,1.5,0.1,2.2,0.1l-0.1,0c0.8-0.4,1.7-0.8,2.5-1.2c2.9-0.3,5.9-0.6,8.8-0.9c0.7,0.3,1.5,0.6,2.2,0.9
		c0,0.7,0,1.4,0,2.1c-0.3,0.7-0.7,1.3-1,2c-1.3,0.3-2.6,0.6-4,0.9c-0.4,0.3-0.8,0.7-1.2,1C161.9,193.7,161.8,193.7,161.8,193.7z"/>
	<path d="M90.7,13.6c1.1-5.2,1.9-9.4,2.8-13.6C99.3,3,98.4,8.4,90.7,13.6z"/>
	<path d="M251.5,160.8c2.4-0.4,4.9-0.7,6.9-1c0.7,1.6,1.4,3.1,2.1,4.7c0.4,0.8,0.7,1.7,1.1,2.6c-1,0.2-2.4,0.9-3,0.5
		c-2.6-1.6-4.9-3.6-7.3-5.5C251.3,161.7,251.4,161.2,251.5,160.8z"/>
	<path d="M197,269.6c0.3,3.3,0.7,6.5,1,9.8c-0.2,0.2-0.4,0.4-0.6,0.6c-2.4-4.9-4.7-9.7-7.1-14.6c0.4-0.2,0.8-0.4,1.2-0.6
		c1.6,1.4,3.2,2.7,4.8,4.1C196.5,269,196.7,269.3,197,269.6z"/>
	<path d="M140.2,138.2c-4.7,0.6-8.5,1.1-13,1.7C130.5,134.9,135.3,134.2,140.2,138.2z"/>
	<path d="M197,269.6c-0.3-0.3-0.5-0.6-0.8-0.8c-0.9-2.6-1.7-5.2-2.6-7.9c0.7-0.3,1.4-0.5,2.1-0.8c1.5,3.8,2.9,7.5,4.4,11.3
		c-0.3,0.1-0.5,0.3-0.8,0.4C198.6,271.1,197.8,270.4,197,269.6z"/>
	<path d="M209.3,316.5c6,0.5,7.8,2.5,6,7.4c-2.7-2-5.1-3.9-7.6-5.8C208.3,317.7,208.8,317.1,209.3,316.5z"/>
	<path d="M145.8,288.8c2.8-1.4,4.4-2.2,6.1-3.1c0.3,0.2,0.7,0.4,1,0.6c-0.9,1.8-1.8,3.6-2.7,5.4C149,291,147.7,290.1,145.8,288.8z"
		/>
	<path d="M148.3,105.6c3.3,0.9,5.8,1.6,8.3,2.2C153,111,150.8,110.6,148.3,105.6z"/>
	<path d="M169.6,195.9c0,0-0.1-0.1-0.1-0.1c-0.2-0.3-0.4-0.7-0.6-1c0.4-0.4,0.7-0.7,1.1-1.1c0-0.3,0-0.6,0-0.9c0-0.3,0-0.7,0-1
		c0.4-0.4,0.7-0.7,1.1-1.1c0.7,0,1.4,0,2,0c0.1,0.5,0.3,1,0.4,1.5c0-0.1-0.1-0.1-0.1-0.2c0,0.1,0,0.2,0,0.3l0.3-0.4
		c0,0,0.4,0.1,0.4,0.1c0.3,0,0.6-0.1,1-0.1c0.8-0.2,1.5-0.5,2.3-0.7c-1,1.1-2,2.2-2.9,3.3c-0.6,0.2-1.3,0.4-1.9,0.6
		c-0.2,0-0.4,0-0.6,0c0.2,0,0.3,0,0.5,0c0.7-0.2,1.4-0.3,2.1-0.5C172.9,194.9,171.2,195.4,169.6,195.9z"/>
	<path d="M171.6,185.4c1.3-1,2.5-1.9,3.8-2.9c0.2,0.4,0.5,0.8,0.7,1.2l-0.2-0.1c0,0.3,0.1,0.6,0.1,0.9c0,0-0.1,0.3-0.1,0.3l0.1-0.4
		c0.4,0.1,0.7,0.2,1.1,0.3c0,1.4-0.1,2.7-0.1,4.1c0,0,0.1-0.1,0.1-0.1c-0.4,0-0.8,0.1-1.1,0.1c-0.2-0.2-0.4-0.5-0.5-0.7
		c0.2,0.2,0.4,0.4,0.7,0.6c0.3,0.4,0.7,0.8,1,1.2c0,0-0.1-0.1-0.1-0.1c0.1,0.5,0.3,1.1,0.4,1.6c-0.8-0.2-1.6-0.3-2.4-0.5
		c-0.3-0.4-0.7-0.7-1-1.1c-0.7-0.3-1.3-0.7-2-1c-0.7,0-1.4,0-2,0c0.4-0.7,0.8-1.4,1.2-2.1c0,0-0.1,0.1-0.1,0.1
		C171.2,186.3,171.4,185.9,171.6,185.4z"/>
	<path d="M248.6,198.6c0.5-0.1,1-0.2,1.5-0.3c0.4,1.3,0.8,2.6,1.2,3.9c-0.5,0-1.1,0-1.6,0c0,0,0.1-0.3,0.1-0.3l-0.2,0.2
		c0.6,0,1.1,0,1.7-0.1c-0.7,0.4-1.5,0.8-2.2,1.2c-0.1-0.2-0.3-0.3-0.5-0.5c-0.5-0.7-1.1-1.4-1.6-2.1c0,0,0.1,0.1,0.1,0.1
		c0-0.4,0-0.7,0-1.1l-0.2,0.1C247.5,199.4,248,199,248.6,198.6z"/>
	<path d="M166.1,184.6c1.9,0.3,3.8,0.5,5.6,0.8c-0.3,0.4-0.5,0.9-0.8,1.3c0,0,0.1-0.1,0.1-0.1c-0.7,0-1.4,0.1-2.1,0.1
		c-0.3-0.3-0.7-0.7-1-1c-0.7-0.4-1.3-0.7-2-1.1L166.1,184.6z"/>
	<path d="M150,189.3c0,0,0-0.2,0-0.2c-1,0.5-2,1.1-3,1.6l0.2,0.1C148.1,190.3,149,189.8,150,189.3z"/>
	<path d="M281,214.4c-0.7,0.4-1.4,0.9-2.1,1.3C279.6,215.3,280.3,214.8,281,214.4z"/>
	<path d="M180.2,185.2c0,0.8,0,1.7-0.1,2.5c-0.4,0-0.8-0.1-1.3-0.1c0,0,0.2,0.1,0.2,0.1c0-0.7-0.1-1.4-0.1-2.1
		C179.4,185.5,179.8,185.3,180.2,185.2z"/>
	<path d="M279.1,215.6c-0.7,0.4-1.5,0.8-2.2,1.1C277.7,216.3,278.4,216,279.1,215.6z"/>
	<polygon points="87.3,58.1 87.6,58 87.6,58.3 	"/>
	<path d="M277.1,216.6c-0.4,0.4-0.7,0.7-1.1,1.1C276.4,217.3,276.7,217,277.1,216.6z"/>
	<path d="M178.9,183.7c0.4,0.6,0.9,1.1,1.3,1.7c-0.4-0.2-0.9-0.4-1.3-0.6c0-0.4,0.1-0.8,0.1-1.1L178.9,183.7z"/>
	<path d="M165,185.6c0.4-0.3,0.7-0.6,1.1-1c0,0-0.1,0-0.1,0c0,0.4,0.1,0.7,0.1,1.1C165.7,185.7,165.4,185.6,165,185.6z"/>
	<path d="M156.1,186.8c-0.5-0.4-1.1-0.8-1.6-1.1C155,186,155.6,186.4,156.1,186.8z"/>
	<path d="M87.5,61c-0.1-0.1-0.1-0.2-0.2-0.3c0.1,0,0.2,0.1,0.3,0.1C87.6,60.8,87.5,61,87.5,61z"/>
	<path d="M87.1,62.3c0,0,0.1,0.2,0.1,0.2C87.3,62.5,87.1,62.3,87.1,62.3z"/>
	<path d="M88.6,66.6c0,0-0.1,0-0.1,0c0.2,0.4,0.4,0.8,0.6,1.2c-0.4,0-0.8,0-1.1,0C88.1,67.4,88.3,67,88.6,66.6z"/>
	<path class="st0" d="M45.4,87l-0.3-0.1c0,0,0.2,0,0.2,0C45.3,86.9,45.4,87,45.4,87z"/>
	<path class="st0" d="M57.9,98.3c0,0-0.1,0.2-0.1,0.2C57.8,98.5,57.9,98.3,57.9,98.3z"/>
	<polygon points="35.5,109.9 35.7,110.2 35.4,110.2 	"/>
	<path d="M145.9,191.1c0,0,0,0.1,0,0.1c0.4-0.2,0.8-0.3,1.2-0.5c0,0-0.2-0.1-0.2-0.1C146.6,190.8,146.3,191,145.9,191.1z"/>
	<path class="st0" d="M170.9,186.7c0.3-0.4,0.5-0.9,0.8-1.3"/>
	<path d="M153,186.6c0.4,0.4,0.7,0.8,1.1,1.2c-0.4,0-0.7-0.1-1.1-0.1l0.2,0.1C153.1,187.3,153,186.9,153,186.6z"/>
	<path d="M157.1,187.7c-0.4-0.4-0.8-0.8-1.2-1.2C156.3,187,156.7,187.4,157.1,187.7z"/>
	<path d="M152.4,188.7C152.4,188.7,152.4,188.7,152.4,188.7c0.2-0.4,0.4-0.7,0.7-1c0,0-0.2-0.1-0.2-0.1
		C152.8,188,152.6,188.3,152.4,188.7z"/>
	<path d="M179.6,188.8c-0.6-0.1-1.1-0.1-1.7-0.2l0.1,0.1c0.3-0.3,0.7-0.7,1-1c0,0-0.2-0.1-0.2-0.1
		C179.1,188,179.4,188.4,179.6,188.8z"/>
	<path d="M179.5,188.7c0.2-0.4,0.4-0.8,0.6-1.2C179.9,188,179.7,188.4,179.5,188.7z"/>
	<path d="M177.9,188.6c-0.3,0.3-0.7,0.7-1,1c0,0,0.1,0.1,0.1,0.1c0-0.4,0-0.8,0-1.2l-0.1,0.1c0.4,0,0.7,0,1.1,0L177.9,188.6z"/>
	<path class="st0" d="M102.1,147.4c-0.3,0.9-0.8,1.8-1.1,2.7l0,0c0,0.5-0.1,1-0.1,1.5c0,0,0,0.1,0,0.1c0,0,0.1,0.1,0.1,0.1
		c0.8,0.8,1.6,1.6,2.5,2.4c-0.7,0.2-1.3,0.4-2,0.6c0,0,0,0,0,0c0,0-0.1,0-0.1-0.1c-0.5-0.3-1-0.6-1.5-1c0,0-0.1-0.1-0.1-0.1l0.1,0.2
		l0,0c0.9,1.3,1.7,3.3,2.9,3.7c3.7,0.9,4.1,2.7,2.6,5.8c-1.5,3.1-2.9,6.2-4.4,9.5c-1.1-0.1-2.4-0.2-3.9-0.3c-1-5.3-2-10.5-3-15.8
		c0.1-0.2,0.2-0.4,0.3-0.6c0.2-0.4,0.4-0.7,0.5-1.1c-0.7-1.2-1.4-2.4-2-3.7c-0.7-0.7-1.3-1.4-2-2.1v0c0,0,0,0,0,0c0,0,0,0,0,0
		c0.4-0.4,0.8-0.7,1.1-1.1c3.2-2.1,1.6-5.1,0.4-6.8c-1.4-1.9-2.4-2.7-1.3-5.5c0.7-1.8-2-4.7-2.5-7.2c-1.3-6.5-2.6-13.1-3.1-19.7
		c-0.2-2.9,3.3-3.7,5.2-2.1c4,3.3,5.1,1.9,5.8-2.3c0.2-1.1,1.4-2.1,2.2-3.4c4.5,3.3,8.8,4.8,12.6-0.4c5.4,2.9,2.7,7.6,1.8,10.9
		C109.9,123.5,105.9,135.4,102.1,147.4z"/>
	<path class="st0" d="M94.3,156.1c-0.1,0.2-0.2,0.4-0.3,0.6l-0.2,0.1C94,156.6,94.2,156.3,94.3,156.1z"/>
	<path class="st0" d="M99.8,153.8L99.8,153.8l-0.1-0.1C99.8,153.7,99.8,153.8,99.8,153.8z"/>
	<path class="st0" d="M161.1,345.3c-2-2.7-3.1-4.1-4.1-5.5c-1.1,1.3-2.2,2.6-4.2,5C156,345,157.8,345.1,161.1,345.3z"/>
	<path class="st0" d="M89.3,88.2c4.3,1.9,8.5,3.7,13.4,5.9C94,98.8,89.9,97.4,89.3,88.2z"/>
	<path class="st0" d="M101.1,151.6v0.3c0,0-0.1-0.1-0.1-0.1L101.1,151.6z"/>
	<path class="st0" d="M101.5,154.8C101.5,154.8,101.5,154.8,101.5,154.8c-0.1,0-0.1,0-0.1-0.1C101.5,154.8,101.5,154.8,101.5,154.8z
		"/>
	<path class="st0" d="M90.9,149.2C90.9,149.2,90.9,149.2,90.9,149.2C90.9,149.2,90.8,149.2,90.9,149.2c-0.1,0-0.1,0-0.1,0
		c0,0,0,0,0,0C90.8,149.1,90.8,149.1,90.9,149.2C90.9,149.1,90.9,149.1,90.9,149.2z"/>
	<path class="st0" d="M94.3,156.1c-0.1,0.2-0.2,0.4-0.3,0.6l-0.2,0.1C94,156.6,94.2,156.3,94.3,156.1z"/>
	<path d="M167.1,194.6c-0.2,0.4-0.5,0.9-0.7,1.3c0,0,0.2,0,0.1,0C166.7,195.5,166.9,195,167.1,194.6z"/>
	<path d="M162.9,194.6c0.2,0.4,0.4,0.8,0.6,1.2c0,0,0.1-0.1,0.1-0.1C163.3,195.4,163.1,195,162.9,194.6z"/>
	<path d="M148.1,195.7c-0.4-0.2-0.8-0.5-1.2-0.7c0,0,0,0.1,0,0.1C147.2,195.3,147.7,195.5,148.1,195.7z"/>
	<path d="M148.1,197.6c-0.5-0.2-0.9-0.4-1.4-0.6c0,0,0,0.1,0,0.1c0.5-0.1,0.9-0.2,1.4-0.3c0,0-0.1-0.2-0.1-0.2c0,0.4,0,0.8,0,1.2
		L148.1,197.6z"/>
	<path class="st0" d="M99.9,153.8L99.9,153.8l-0.1-0.1C99.8,153.7,99.8,153.8,99.9,153.8z"/>
	<path class="st0" d="M101.6,154.8C101.6,154.8,101.6,154.8,101.6,154.8C101.6,154.8,101.6,154.8,101.6,154.8
		C101.6,154.8,101.6,154.8,101.6,154.8z"/>
	<path d="M101.6,154.8h-0.1c0,0,0-0.1,0-0.1C101.5,154.8,101.5,154.8,101.6,154.8C101.6,154.8,101.6,154.8,101.6,154.8
		C101.6,154.8,101.6,154.8,101.6,154.8z"/>
	<path class="st0" d="M90.9,149.2C90.9,149.2,90.9,149.2,90.9,149.2L90.9,149.2c-0.1,0-0.1,0-0.1,0.1
		C90.8,149.2,90.8,149.2,90.9,149.2L90.9,149.2C90.9,149.2,90.9,149.1,90.9,149.2C90.9,149.1,90.9,149.1,90.9,149.2z"/>
	<path d="M90.9,149.2C90.9,149.2,90.9,149.2,90.9,149.2L90.9,149.2c-0.1,0-0.1,0-0.1,0.1c0,0,0-0.1,0-0.1c0,0,0,0,0,0
		C90.8,149.1,90.8,149.1,90.9,149.2C90.9,149.1,90.9,149.1,90.9,149.2z"/>
	<path class="st0" d="M101.1,151.6l-0.1,0.1c0,0,0-0.1,0-0.1H101.1z"/>
	<path d="M246.9,200.6c-0.3,0.3-0.6,0.6-1,0.9c0-0.2,0-0.4,0-0.6c0.4-0.1,0.7-0.1,1.1-0.2L246.9,200.6z"/>
	<path d="M247.1,199.7c-0.4-0.2-0.8-0.4-1.2-0.5c0,0,0.1,0.1,0.1,0.1c0.4-0.2,0.7-0.3,1.1-0.5c0,0-0.1-0.1-0.1-0.1
		c0,0.4,0,0.8,0,1.2L247.1,199.7z"/>
	<path d="M154.6,188.8c-0.2-0.4-0.4-0.8-0.7-1.3c0.2,0.4,0.4,0.8,0.5,1.3C154.5,188.8,154.6,188.8,154.6,188.8z"/>
	<path class="st0" d="M171.9,195c0.2,0,0.4,0,0.6,0"/>
	<path class="st0" d="M169.9,193.6c-0.4,0.4-0.7,0.7-1.1,1.1c0,0,0.2,0,0.2,0c0.3-0.3,0.7-0.7,1-1L169.9,193.6z"/>
	<path class="st0" d="M169.9,192.7c0,0.3,0,0.6,0,0.9c0,0,0.1,0.1,0.1,0.1c0-0.4,0-0.7,0-1.1L169.9,192.7z"/>
	<path class="st0" d="M175.4,188c0.2,0.2,0.4,0.5,0.5,0.7"/>
	<path d="M168.1,185.6c0,0.4,0,0.8,0,1.1c-0.7,0-1.4,0-2.1,0c0-0.4,0-0.7,0-1.1C166.7,185.6,167.4,185.6,168.1,185.6z"/>
	<path d="M167.9,186.6c0.4,0,0.8,0,1.2,0c-0.4,0.4-0.8,0.8-1.2,1.2C167.9,187.4,167.9,187,167.9,186.6z"/>
	<path d="M173.9,190.6c0.4,0,0.8,0,1.1,0c0,0.4,0,0.8,0,1.1c-0.4,0-0.8,0-1.1,0C173.9,191.4,173.9,191,173.9,190.6z"/>
	<path d="M176.9,184.7c0-0.4,0-0.8,0-1.1c0.4,0,0.8,0.1,1.1,0.1c0,0-0.1-0.1-0.1-0.1c0,0.4,0.1,0.8,0.1,1.2
		C177.7,184.7,177.3,184.7,176.9,184.7z"/>
	<path d="M177.9,184.6c0.4,0,0.8,0,1.2,0c0,0.4,0,0.8,0,1.1C178.7,185.4,178.3,185,177.9,184.6z"/>
	<path class="st0" d="M99.9,153.8L99.9,153.8l-0.1-0.1C99.8,153.7,99.8,153.8,99.9,153.8z"/>
	<path d="M161.1,345.3c-3.4-0.2-5.2-0.3-8.3-0.5c2-2.4,3.1-3.7,4.2-5C158.1,341.2,159.1,342.6,161.1,345.3z"/>
	<path d="M149.1,195.8c0.3-0.4,0.6-0.8,0.9-1.2c0,0.4-0.1,0.8-0.1,1.1c0,0,0.2-0.1,0.2-0.1c-0.4,0-0.8,0-1.1,0L149.1,195.8z"/>
	<path d="M151.1,197.2c-0.4-0.2-0.8-0.4-1.2-0.6l0.2,0.2c0-0.4,0-0.8,0-1.1c0,0-0.2,0.1-0.2,0.1
		C150.3,196.2,150.7,196.7,151.1,197.2z"/>
	<path d="M150,193.8c-0.4-0.4-0.7-0.8-1.1-1.2c0.4-0.1,0.8-0.2,1.2-0.3C150.1,192.8,150,193.3,150,193.8z"/>
	<path d="M170.1,192.6c0,0.4,0,0.7,0,1.1c-0.3,0.3-0.7,0.7-1,1c-0.7,0-1.4,0-2.1,0c0-0.4-0.1-0.7-0.1-1.1c0,0,0.1,0.1,0.1,0.1
		c0.4-0.4,0.8-0.8,1.1-1.2l-0.1,0.2C168.6,192.7,169.4,192.6,170.1,192.6z"/>
	<path d="M166.8,193.7c0.2-0.2,0.3-0.4,0.5-0.6c0-0.1-0.1-0.2-0.2-0.3c0,0-0.2-0.2-0.2-0.2c0,0.4,0,0.8,0,1.2L166.8,193.7z"/>
	<path d="M166.9,191.6c0.3,0.4,0.7,0.8,1,1.2c0,0,0.1-0.1,0.1-0.1c-0.4,0-0.8,0-1.1,0c0,0,0.2,0.2,0.2,0.2
		C167,192.4,167,192,166.9,191.6z"/>
	<path d="M163,193.8c0-0.4,0-0.8,0-1.2C162.9,193,163,193.4,163,193.8z"/>
	<path d="M149.1,192.7c-0.4,0-0.8,0-1.2,0C148.3,192.7,148.7,192.7,149.1,192.7z"/>
	<path d="M148.1,192.6c-0.4,0.4-0.8,0.8-1.2,1.2C147.3,193.4,147.7,193,148.1,192.6z"/>
	<path d="M101.1,151.6v0.3c0,0-0.1-0.1-0.1-0.1c0,0,0-0.1,0-0.1H101.1z"/>
	<path d="M148.1,196.8c0-0.4-0.1-0.8-0.1-1.2c0.4,0.1,0.8,0.1,1.2,0.2c0,0-0.2-0.2-0.2-0.2c0,0.4,0,0.8,0,1.1l0.1-0.1
		c-0.4,0-0.8,0-1.2,0L148.1,196.8z"/>
	<path d="M147.9,198.7c0-0.4,0.1-0.8,0.1-1.1c0,0-0.1,0.1-0.1,0.1c0.4,0,0.8,0,1.1,0l-0.1-0.1c0,0.4,0.1,0.8,0.1,1.1
		C148.7,198.7,148.3,198.7,147.9,198.7z"/>
	<path d="M169.9,190.6c0.1,0.4,0.1,0.8,0.2,1.2c-0.3-0.4-0.6-0.8-1-1.2c0,0-0.2,0.1-0.2,0.1c0.4,0,0.8,0,1.1,0L169.9,190.6z"/>
	<path d="M167.9,189.6c0.4,0,0.8,0.1,1.2,0.1c0,0-0.1-0.1-0.1-0.1c0,0.4,0,0.8,0,1.1c0,0,0.2-0.1,0.2-0.1
		C168.7,190.3,168.3,189.9,167.9,189.6z"/>
	<path d="M170.1,188.6c-0.1,0.4-0.1,0.7-0.2,1.1c0,0,0.1-0.1,0.1-0.1c-0.4,0-0.7,0-1.1,0c0,0,0.1,0.1,0.1,0.1
		C169.4,189.4,169.7,189,170.1,188.6z"/>
	<path d="M171.1,190.7c-0.4,0-0.8-0.1-1.2-0.1c0,0,0.2,0.2,0.2,0.2c0-0.4,0-0.8,0-1.1c0,0-0.1,0.1-0.1,0.1
		C170.3,190,170.7,190.4,171.1,190.7z"/>
	<path d="M174.1,189.6c0,0.4,0,0.8,0,1.1c-0.4,0-0.8,0-1.1,0c0-0.4,0-0.8,0-1.1C173.3,189.6,173.7,189.6,174.1,189.6z"/>
</g>
</svg>
