<svg version="1.1" id="automataDfa" xmlns="http://www.w3.org/2000/svg" xmlns:xlink="http://www.w3.org/1999/xlink" x="0px" y="0px"
	 viewBox="0 0 1189.7 717.6" style="enable-background:new 0 0 1189.7 717.6;" xml:space="preserve">
<g>
	<path d="M1030.5,234c87.8,0,159.1,71,159.2,158.7c0.1,87.8-71.3,159.3-159.3,159.2c-87.9-0.1-158.9-70.9-159.2-158.8
		C870.9,305.5,942.4,234,1030.5,234z M1184.9,393c0.1-85.5-68.8-154.5-154.3-154.6c-85.3-0.1-154.4,69-154.6,154.4
		c-0.2,85.2,69.2,154.6,154.4,154.6C1115.8,547.5,1184.8,478.5,1184.9,393z"/>
	<path d="M489.4,393.1c-0.2,87.7-71.5,158.7-159.3,158.8c-87.8,0.1-159.5-71.4-159.4-159.2c0.1-87.8,72.2-159.4,159.7-158.8
		C418.5,234.5,489.6,305.7,489.4,393.1z M175.6,392.8c-0.1,85.4,68.8,154.6,154.3,154.7c85.2,0.1,154.5-69.1,154.7-154.4
		c0.1-85.2-69.1-154.6-154.4-154.7C244.7,238.4,175.7,307.3,175.6,392.8z"/>
	<path d="M467.5,247.5c3.7,3.4,7.1,6.6,11,10.2c-9.4,0-18,0-26.5,0c0-8.4,0-16.3,0-24.2c0.4-0.1,0.7-0.3,1.1-0.4
		c2.7,3.3,5.4,6.6,8,9.8c78.3-71.6,168.1-103.8,272.6-87.1c65.2,10.4,121.6,39.7,169.6,86.4c-1.7,1.7-3.1,3-4.5,4.4
		c-66.8-63.2-145.1-95-236.9-88.8C573.6,163.9,506,207.9,467.5,247.5z"/>
	<path d="M893.6,537.8c-3.2-2.8-6.2-5.3-10.2-8.8c8.9,0.4,16.3,0.8,24.1,1.1c0,7.3,0,14.2,0,22.3c-3.5-3.3-6.4-6.1-9.2-8.7
		c-72.9,67.2-158,99.7-257.3,88.2c-70.8-8.2-132-38.3-183.8-88.3c1.7-1.8,3.1-3.2,4.4-4.6c66.7,63.2,144.8,94.9,236.4,88.9
		C783.7,622.3,851.7,580.5,893.6,537.8z"/>
	<path d="M413,219.5c-1.8-1.1-3.3-2-5.1-3.1c11.7-21.6,14.6-43.9,7.7-67.3c-5.4-18.3-16-33.2-31.4-44.5c-30.8-22.6-73-22-103.3,1.5
		c-30.7,23.7-38.4,63.2-29.6,89.4c3-0.7,6-1.4,9.8-2.2c-2.3,9.1-4.5,17.5-6.5,25.3c-6.3-5.9-12.6-11.9-19.4-18.4c3.1-1,6.1-2,9.4-3
		c-6.1-24.7-3.1-48,9.6-69.9c10-17.2,24.3-29.9,42.5-37.9c36.8-16,79.8-6.2,106.1,23.9C428.6,142.8,433,187,413,219.5z"/>
	<path d="M952.4,216.6c-1.5,0.9-3,1.8-4.5,2.8c-17.3-25.9-19-69.6,6.5-102c26.6-33.9,72.6-44.9,111.5-26.8
		c36.5,17,61.5,59.1,49.9,106.8c3,1,6.1,1.9,9,2.9c-6.4,6.1-12.7,12.1-19,18.1c-1.9-7.3-4.1-15.7-6.4-24.9c3.8,0.9,6.8,1.5,9.7,2.2
		c8.6-23.9,2.4-63.9-28.7-88.7c-30.3-24.2-73.7-24.7-104.9-1.6C946.6,126.6,928.5,171.5,952.4,216.6z"/>
	<path d="M111.1,389.5c0.2-3.6,0.4-6.4,0.6-9.9c8,4.5,15.5,8.7,23.6,13.2c-8.1,4.5-15.5,8.7-23.6,13.3c-0.2-3.5-0.3-6.2-0.5-9.4
		c-37,0-73.9,0-111.2,0c0-2.6,0-4.6,0-7.2C36.8,389.5,73.7,389.5,111.1,389.5z"/>
	<path d="M700.6,97.3c-1.6,6.4-2.6,12.8-4.9,18.8c-2.5,6.7-8.2,9.8-15.4,9.8c-7.3,0-13-3.2-15.8-10c-5-12.4-5-25-0.1-37.4
		c2.7-6.8,8.2-10.2,15.7-10.2c7.5,0,13.1,3.2,15.7,10.1C698.1,84.3,699,90.8,700.6,97.3z M692.5,97.3c-1-5.3-1.5-10.7-2.9-15.7
		c-1.2-4.5-4.4-7.4-9.5-7.3c-4.9,0.1-7.8,2.9-9.2,7.2c-3.3,10.4-3.3,21,0,31.4c1.4,4.3,4.5,7.1,9.3,7.1c4.8,0,8.1-2.6,9.3-7
		C690.9,107.9,691.6,102.6,692.5,97.3z"/>
	<path d="M700.4,688.7c-1.3,6.1-2,12.2-4.1,17.9c-2.6,7.2-8.2,11-16.2,11c-8,0-13.5-3.9-16.1-11.1c-4.4-11.8-4.4-23.8,0.1-35.6
		c2.7-7.3,8.4-11,16.2-11c7.9,0,13.5,3.9,16.1,11.1C698.3,676.6,699.1,682.6,700.4,688.7z M692.5,688.8c-1-5.2-1.6-10.7-3.1-15.9
		c-1.2-4.3-4.5-7-9.3-7c-4.8,0-7.8,2.8-9.2,7.1c-3.4,10.4-3.4,21,0,31.4c1.4,4.2,4.3,7.1,9.2,7.1c5.1,0.1,8.3-2.8,9.5-7.3
		C691,699.4,691.6,694.2,692.5,688.8z"/>
	<path d="M314.1,10c-1.7-4.9-0.5-7.4,4.8-7.8c4.9-0.4,9.7-1.4,15.3-2.2c0,17.1,0,33.1,0,49.8c4.3,0,8,0,12.2,0
		c0.1,2.3,0.2,4.1,0.3,6.2c-10.6,0-21,0-31.7,0c0-1.7,0-3.5,0-5.8c3.7,0,7.4,0,11.5,0c0-14.5,0-28.4,0-42.5
		C322.2,8.5,318.1,9.3,314.1,10z"/>
	<path d="M1027,7.7c-4.5,0.8-8.5,1.6-12.9,2.4c0-2.4,0-4.3,0-7c6.6-1,13.2-2,20.4-3.1c0,17.1,0,33.2,0,49.8c4.2,0,7.9,0,12.2,0
		c0.1,2.3,0.2,4,0.3,6.2c-10.7,0-21.1,0-31.7,0c0-1.8,0-3.5,0-5.9c3.9,0,7.7,0,11.8,0C1027,35.8,1027,22.1,1027,7.7z"/>
	<path d="M1007.5,414.2c5.6,1.8,10.2,3.9,15,4.6c4.7,0.6,9.6,0.3,14.3-0.7c4.6-1,7.2-4.6,7.3-9.6c0.1-4.9-2-8.5-6.6-10
		c-4.9-1.6-10-2.5-14.9-3.9c-11-3-15.3-8.4-14.8-18.2c0.5-8.7,6.5-15.1,16.5-16.6c8.5-1.3,16.9-0.2,25.1,2.9c0,2.6,0,5,0,7.8
		c-4.2-1.2-8.1-2.9-12.1-3.3c-4.4-0.5-9-0.4-13.3,0.5c-4.6,0.9-7.2,4.4-7.3,9.4c-0.1,5.1,2.8,7.6,7.3,8.8c5.5,1.4,11.1,2.4,16.4,4.1
		c10.7,3.5,15.3,12.4,12.3,23.2c-2.5,8.9-9.6,12.6-17.7,12.8c-8,0.2-16.1-1.3-24.1-2.7C1005.3,422.4,1008.9,417.6,1007.5,414.2z"/>
	<path d="M1059.6,460.3c5.7,0,10-0.2,14.3,0.1c1.2,0.1,2.2,1.7,3.3,2.6c-0.3,0.4-0.6,0.8-0.9,1.3c-7.4,0-14.9,0-23.7,0
		c1.3-2.6,1.9-4.8,3.3-6.4c3.8-4.4,8.1-8.4,12-12.7c2.8-3.2,5.6-6.8,2.6-11.1c-2.9-4.2-7.3-3.2-11.4-2.2c-1.6,0.4-3.1,1.2-4.6,1.8
		c-1.1-4.4-1.1-4.5,2.6-5.6c1.6-0.5,3.2-0.9,4.9-1.1c5.7-0.9,11.4,1.3,13.5,5.5c2.7,5.2,1,9.8-2.5,13.8
		C1068.9,450.6,1064.6,454.9,1059.6,460.3z"/>
	<path d="M202.6,392.6c0.1-70,57.4-127,127.5-126.9c70.3,0.1,127.7,57.5,127.4,127.6c-0.3,69.9-57.6,127-127.6,127
		C259.6,520.1,202.5,462.9,202.6,392.6z M206.6,392.8c-0.1,68.5,54.9,123.7,123.3,123.7c68.3,0.1,123.7-55.1,123.8-123.4
		c0.1-68.3-55.1-123.6-123.5-123.7C261.7,269.3,206.6,324.3,206.6,392.8z"/>
	<path d="M307.9,415.2c7.1,1.4,14.1,3.1,21.3,4c2.8,0.4,5.9-0.7,8.7-1.8c4.1-1.6,5.9-5.1,5.9-9.5c0-4.3-2-7.5-5.8-9.1
		c-3.5-1.4-7.3-2.1-11-3.2c-2.9-0.8-5.9-1.3-8.6-2.4c-7.7-2.9-10.9-7.6-11-15.5c-0.1-7.6,3.6-13.6,10.8-16.4
		c9.7-3.8,19.4-2.5,28.8,0.8c1.6,0.6,1.9,5,2.8,7.7c-7.3-1.3-13.5-2.8-19.7-3.3c-3-0.3-6.3,0.9-9.1,2.1c-3.7,1.7-5,5.2-4.8,9.1
		c0.2,3.9,2.4,6.6,6.2,7.6c5.5,1.5,11,2.5,16.5,4.1c9.7,2.9,14.2,8.7,14.1,18c0,9.3-4.7,15.4-13.8,17.7c-9.8,2.5-19.5,1.3-29-2
		C305.1,421.6,308.4,417.4,307.9,415.2z"/>
	<path d="M354.3,459.4c2.3,0,4.6,0,7.1,0c0-9.4,0-18.5,0-27.9c-2.7,0.4-5.2,0.7-7.8,1.1c-1.1-4.8,3.8-6.9,13-5.5
		c0,10.5,0,21.1,0,30.8c2.2,3.4,8.4-1.5,8.1,5.7c-6.4,0-12.5,0.1-18.6-0.1c-1,0-2-1.6-3-2.5C353.5,460.5,353.9,459.9,354.3,459.4z"
		/>
</g>
</svg>
